<?xml version="1.0" encoding="UTF-8"?>
<svg width="600px" height="250px" viewBox="0 0 600 250" version="1.1" xmlns="http://www.w3.org/2000/svg" xmlns:xlink="http://www.w3.org/1999/xlink">
    <!-- Generator: Sketch 50.1 (55044) - http://www.bohemiancoding.com/sketch -->
    <title>ALUP</title>
    <desc>Created with Sketch.</desc>
    <defs></defs>
    <g id="ALUP" stroke="none" stroke-width="1" fill="none" fill-rule="evenodd">
        <g id="Grid-Logo" opacity="0.400000006"></g>
        <g transform="translate(154.000000, 79.000000)" fill-rule="nonzero" id="Shape">
            <path d="M291,2.66257669 C290.909463,5.41104294 290.818926,8.1595092 290.818926,10.9079755 C290.818926,13.5705521 290.366242,14 287.650136,14 C223.640582,14 159.631028,14 95.6214741,14 C95.078253,14 94.444495,14 93.9012739,14 C92.7242948,13.9141104 92,13.3128834 92,12.196319 C92,8.84662577 92,5.41104294 92,2.06134969 C92,0.858895706 92.7242948,0.257668712 93.9918107,0.171779141 C94.5350318,0.171779141 95.078253,0.171779141 95.5309372,0.171779141 C159.087807,0.171779141 222.55414,0.171779141 286.11101,0.171779141 C286.654231,0.171779141 287.197452,0.0858895706 287.83121,0 C288.917652,0 289.913558,0 291,0 C291,0.858895706 291,1.71779141 291,2.66257669 Z" fill="#CC6415"></path>
            <path d="M34.0906913,0.0074487549 C36.6111298,0.0074487549 39.221584,0.0964640613 41.7420225,0.0074487549 C43.2722888,-0.0815665515 44.0824297,0.6305559 44.532508,1.9657855 C46.1527899,6.86162735 47.8630875,11.6684539 49.573385,16.4752804 C52.0938235,23.8635509 54.614262,31.2518213 57.2247162,38.729107 C60.8253427,49.1438979 64.3359534,59.647704 67.8465642,70.1515102 C68.2966425,71.5757551 67.7565486,72.6439388 66.2262823,72.7329541 C61.3654366,72.8219694 56.4145753,72.7329541 51.5537296,72.7329541 C50.4735416,72.7329541 50.0234633,71.842801 49.6634007,70.952648 C48.3131658,68.0151428 47.0529465,64.9886224 45.342649,62.4071785 C42.6421791,58.3124744 38.8615214,55.5529999 33.5505974,55.6420153 C29.3198613,55.7310306 26.1693132,57.7783826 23.4688433,60.804903 C20.9484048,63.6533928 19.3281229,67.0359745 18.0679037,70.5965867 C17.437794,72.5549235 16.8977001,73 14.8273399,73 C10.6866195,73 6.54589906,72.9109847 2.40517865,72.8219694 C0.154787124,72.8219694 -0.385306842,71.9318163 0.244802785,69.8844643 C3.48536658,60.3598265 6.81594604,50.8351887 10.0565098,41.3105509 C11.9468387,35.8806172 13.7471519,30.3616682 15.6374808,24.9317345 C18.247935,17.3654335 20.8583892,9.79913246 23.3788277,2.14381611 C23.828906,0.719571206 24.8190782,0.0964640613 26.3493445,0.0964640613 C28.7797673,0.0074487549 31.3902215,0.0074487549 34.0906913,0.0074487549 Z M35.2608949,47.6306377 C35.2608949,47.6306377 35.2608949,47.6306377 35.2608949,47.6306377 C36.4310985,47.6306377 37.5112864,47.6306377 38.68149,47.5416224 C41.2919442,47.5416224 42.1020852,46.4734387 41.3819599,43.9810101 C39.6716623,38.3730458 37.8713491,32.7650815 36.1610515,27.1571172 C35.8009889,25.9999182 35.2608949,25.1097652 33.8206443,25.1097652 C32.4704094,25.1097652 31.9303155,25.9999182 31.5702528,27.0681019 C29.7699396,32.8540968 28.059642,38.5510764 26.2593288,44.248056 C25.7192349,46.1173775 26.5293758,47.2745765 28.5097203,47.4526071 C30.7601119,47.719653 33.0105034,47.6306377 35.2608949,47.6306377 Z" fill="#41589E"></path>
            <path d="M146,57.1128675 C146,46.1868346 146,35.3496313 146,24.4235984 C146,21.8475418 146.441941,21.4033941 149.005199,21.4033941 C152.894281,21.4033941 156.694974,21.4033941 160.584055,21.4033941 C161.556326,21.4033941 161.998267,21.6698828 161.998267,22.7358372 C162.086655,24.690087 163.677643,25.4007233 165.357019,24.5124279 C167.30156,23.4464735 169.157712,22.0252009 171.190641,21.3145646 C181.17851,17.8502127 190.194107,21.2257351 194.436742,31.5299612 C196.558059,36.6820743 197,42.0118465 197,47.5192777 C197,53.1155384 195.939341,58.4453106 193.110919,63.330935 C188.956672,70.5261274 183.034662,74.8787747 174.461005,74.7011156 C171.367418,74.6122861 168.450607,73.9016498 165.533795,72.7468658 C163.147314,71.7697409 161.909879,72.6580363 161.909879,75.2340928 C161.909879,80.2973764 161.909879,85.2718304 161.909879,90.3351139 C161.909879,92.3781932 161.379549,93 159.34662,93 C155.722704,93 152.098787,93 148.47487,93 C146.618718,93 146,92.3781932 146,90.512773 C146,79.3202515 146,68.2165595 146,57.1128675 Z M161.909879,48.407573 C161.909879,48.407573 161.909879,48.407573 161.909879,48.407573 C161.82149,52.2272431 161.82149,56.1357426 161.82149,59.9554127 C161.82149,61.5543443 162.528596,62.6202988 164.119584,62.7091283 C166.240901,62.8867874 168.450607,63.153276 170.660312,62.9756169 C174.372617,62.6202988 177.377816,60.843708 178.792028,57.3793561 C181.532062,50.6283114 181.532062,43.7884372 178.968804,36.9485629 C178.17331,34.9943131 176.670711,33.6618701 174.637782,32.8624043 C170.7487,31.4411317 167.124783,32.4182566 163.500867,34.1060178 C162.35182,34.638995 161.82149,35.5272903 161.82149,36.8597334 C161.998267,40.7682329 161.909879,44.587903 161.909879,48.407573 Z" fill="#41589E"></path>
            <path d="M233.585318,69.5856532 C232.769118,70.1345642 232.315674,70.5005049 231.952919,70.8664455 C227.599854,74.8003074 222.521278,76.812981 216.717192,76.9959513 C208.373817,77.1789216 201.209398,71.140901 200.211821,62.8157513 C199.576999,57.4181268 200.211821,52.2034726 204.292819,48.1781256 C206.741418,45.7080262 209.73415,44.2442636 212.998949,43.2379269 C218.44028,41.591194 223.9723,41.042283 229.595008,40.6763424 C230.139142,40.6763424 230.683275,40.5848572 231.136719,40.493372 C233.494629,40.1274314 234.310829,38.6636688 233.313251,36.3765398 C232.587741,34.7298069 231.408785,33.631985 229.776386,32.9915888 C225.241944,31.2533708 220.526123,31.0704004 215.900992,32.0767372 C212.636193,32.8086185 209.552772,33.9979256 206.378663,35.0957475 C205.01833,35.5531733 204.474197,35.370203 204.474197,33.9064404 C204.474197,30.795945 204.474197,27.7769346 204.474197,24.6664392 C204.474197,23.2941618 205.01833,22.4707953 206.378663,22.1963398 C210.368972,21.5559437 214.268593,20.6410921 218.349591,20.2751514 C224.69781,19.7262405 231.136719,19.9092108 237.303561,21.6474289 C244.286602,23.6601024 248.911734,27.959905 249.727933,35.7361437 C249.909311,37.1999062 250,38.5721837 250,40.0359462 C250,50.7397101 250,61.5349591 250,72.2387229 C250,74.8917926 249.455867,75.4407036 246.82589,75.4407036 C243.470403,75.4407036 240.114915,75.4407036 236.668739,75.4407036 C234.310829,75.4407036 233.857384,74.8917926 233.857384,72.5131784 C233.766696,71.689812 233.676007,70.7749603 233.585318,69.5856532 Z M233.766696,56.5947604 C233.766696,56.5947604 233.766696,56.5947604 233.766696,56.5947604 C233.766696,55.222483 233.766696,53.9416907 233.766696,52.5694133 C233.676007,51.0141656 232.859807,50.0993139 231.499474,50.1907991 C227.962609,50.3737694 224.516433,50.6482249 221.160945,51.9290172 C216.80788,53.6672352 215.991681,57.0521862 216.717192,60.9860481 C217.079947,62.8157513 218.168213,64.0965436 219.98199,64.8284249 C224.062989,66.2921874 227.87192,65.6517913 231.499474,63.4561475 C233.222563,62.4498107 234.129451,60.9860481 233.766696,58.8818894 C233.676007,58.1500081 233.766696,57.3266417 233.766696,56.5947604 Z" fill="#41589E"></path>
            <path d="M142,46.7501649 C142,54.7298751 142,62.6189067 142,70.5986169 C142,72.8655801 141.453994,73.5003297 139.178969,73.5003297 C135.356926,73.5003297 131.443883,73.5003297 127.62184,73.5003297 C126.347826,73.5003297 125.528817,73.4096512 125.619818,71.7774378 C125.710819,70.1452243 124.345804,69.2384391 122.798787,69.8731887 C121.888777,70.2359028 121.069767,70.779974 120.250758,71.4147237 C115.518706,74.8605076 110.240647,75.5859358 104.598584,74.588472 C98.1375126,73.4096512 93.4054601,68.1502968 92.4954499,61.0773718 C92.1314459,58.3570161 92.0404449,55.5459818 92.0404449,52.825626 C91.9494439,42.9416668 92.0404449,33.0577076 92.0404449,23.1737484 C92.0404449,20.3627141 92.3134479,20.0906785 95.1344793,20.0906785 C98.6835187,20.0906785 102.323559,20.0906785 105.872599,20.0906785 C107.78362,20.0906785 108.329626,20.6347497 108.329626,22.5389987 C108.329626,29.9746377 108.329626,37.5009553 108.329626,44.9365944 C108.329626,48.2010213 108.511628,51.3747696 108.784631,54.6391965 C109.421638,60.4426221 112.697674,61.8934785 117.975733,61.3494074 C119.977755,61.1680503 121.797776,60.079908 123.708797,59.3544798 C125.255814,58.8104087 125.619818,57.6315879 125.619818,56.0900529 C125.528817,45.1179514 125.619818,34.2365284 125.619818,23.2644269 C125.619818,20.4533926 125.983822,20.0906785 128.804853,20 C132.353893,20 135.902932,20 139.360971,20 C141.453994,20 141.908999,20.5440711 142,22.6296772 C142,30.7000659 142,38.6797761 142,46.7501649 Z" fill="#41589E"></path>
            <path d="M70,36.5 C70,25.1662592 70,13.7432763 70,2.40953545 C70,0.624694377 70.5824273,0 72.2465054,0 C75.7410694,0 79.2356335,0 82.7301975,0 C84.3110717,0 84.893499,0.624694377 84.9767029,2.23105134 C85.0599068,3.65892421 84.893499,4.99755501 84.893499,6.42542787 C84.893499,13.4755501 84.9767029,20.5256724 84.9767029,27.5757946 C84.9767029,34.0904645 84.893499,40.6943765 84.893499,47.2090465 C84.893499,54.794621 84.893499,62.4694377 84.893499,70.0550122 C84.893499,72.4645477 84.3942756,73 82.230974,73 C78.9860217,73 75.7410694,73 72.5793211,73 C70.5824273,73 70.0832039,72.4645477 70.0832039,70.3227384 C70,59.0782396 70,47.7444988 70,36.5 C70,36.5 70,36.5 70,36.5 Z" fill="#41589E"></path>
            <path d="M255.091603,46.6474027 C255.091603,38.7326294 255.091603,30.7279155 255.091603,22.8131423 C255.091603,20.5646271 255.549618,20.2048647 257.839695,20.2048647 C261.503817,20.2048647 265.259542,20.2048647 268.923664,20.2048647 C270.847328,20.2048647 271.305344,20.7445083 271.48855,22.6332611 C271.580153,23.3527859 271.580153,24.0723107 271.946565,24.6119544 C272.679389,25.6912416 273.778626,25.7811822 275.061069,25.0616574 C277.167939,23.8024889 279.183206,22.5433204 281.381679,21.3740926 C283.854962,20.0249835 286.51145,19.9350429 289.259542,20.0249835 C290.450382,20.0249835 291,20.7445083 291,21.8237956 C291,25.9610634 291,30.0983313 291,34.2355991 C291,35.4947676 290.083969,35.2249458 289.351145,35.1350052 C287.244275,34.955124 285.137405,34.7752428 283.030534,34.5953616 C279.458015,34.4154803 276.160305,35.6746488 272.862595,36.7539361 C271.671756,37.1136985 271.396947,38.1929858 271.396947,39.272273 C271.396947,42.6000754 271.396947,45.8379372 271.396947,49.1657396 C271.396947,56.1811068 271.396947,63.1065334 271.396947,70.1219006 C271.396947,72.4603564 270.938931,73 268.557252,73 C264.801527,73 260.954198,73 257.198473,72.9100594 C255.641221,72.9100594 255,72.2804752 255,70.9313661 C255,62.8367116 255,54.7420571 255.091603,46.6474027 C255,46.6474027 255,46.6474027 255.091603,46.6474027 Z" fill="#41589E"></path>
        </g>
    </g>
</svg>