<?xml version="1.0" encoding="UTF-8"?>
<svg width="600px" height="250px" viewBox="0 0 600 250" version="1.1" xmlns="http://www.w3.org/2000/svg" xmlns:xlink="http://www.w3.org/1999/xlink">
    <!-- Generator: Sketch 50.1 (55044) - http://www.bohemiancoding.com/sketch -->
    <title>AMAR</title>
    <desc>Created with Sketch.</desc>
    <defs></defs>
    <g id="AMAR" stroke="none" stroke-width="1" fill="none" fill-rule="evenodd">
        <g id="Grid-Logo" opacity="0.400000006" transform="translate(1.000000, 0.000000)"></g>
        <g id="AMAR3" transform="translate(95.000000, 72.000000)">
            <g id="Group" transform="translate(122.000000, 24.000000)" fill="#E5007E">
                <path d="M0.0712871287,56.7268293 L18.6772277,56.7268293 L18.6772277,26.3829268 C18.6772277,23.695122 18.6772277,19.6634146 24.0237624,19.6634146 C29.1564356,19.6634146 29.1564356,24.4731707 29.1564356,27.0902439 L29.1564356,56.6560976 L47.7623762,56.6560976 L47.7623762,26.3121951 C47.7623762,23.6243902 47.7623762,19.5926829 53.1089109,19.5926829 C58.2415842,19.5926829 58.2415842,24.402439 58.2415842,27.0195122 L58.2415842,56.5853659 L76.8475248,56.5853659 L76.8475248,16.0560976 C76.8475248,8.06341463 71.429703,0.212195122 59.6673267,0.212195122 C55.7465347,0.212195122 49.7584158,1.69756098 45.0534653,6.57804878 C39.6356436,0.212195122 34.7168317,0.212195122 32.0079208,0.212195122 C24.6653465,0.212195122 20.0316832,5.30487805 18.9623762,6.57804878 L18.7485149,6.57804878 L18.7485149,1.48536585 L0.142574257,1.48536585 L0.142574257,56.7268293 L0.0712871287,56.7268293 Z" id="Shape" fill-rule="nonzero"></path>
                <path d="M135.944554,56.7268293 L154.550495,56.7268293 L154.550495,28.2926829 C154.550495,21.997561 156.332673,16.7634146 166.740594,16.7634146 L166.740594,1.62682927 C160.253465,1.62682927 157.116832,2.9 154.764356,7.14390244 L154.550495,7.14390244 L154.550495,1.62682927 L135.944554,1.62682927 L135.944554,56.7268293 Z" id="Shape" fill-rule="nonzero"></path>
                <polygon id="Shape" fill-rule="nonzero" points="172.158416 56.7268293 190.764356 56.7268293 190.764356 1.62682927 172.158416 1.62682927"></polygon>
                <path d="M271.247525,41.802439 C269.607921,42.7926829 267.754455,43.8536585 264.974257,43.8536585 C261.623762,43.8536585 259.128713,41.9439024 259.128713,38.4780488 C259.128713,32.2536585 263.976238,30.697561 271.176238,31.3341463 L271.176238,41.802439 L271.247525,41.802439 Z M247.29505,18.0365854 C251.643564,16.4097561 255.493069,15.2780488 260.554455,14.5707317 C265.758416,13.7926829 270.463366,16.0560976 270.463366,21.5731707 C268.752475,20.7243902 264.546535,19.8756098 261.19604,19.8756098 C248.792079,19.8756098 241.378218,29.1414634 241.378218,38.6195122 C241.378218,51.0682927 250.075248,58 259.271287,58 C266.756436,58 270.605941,53.8268293 271.247525,52.695122 L271.461386,52.695122 L271.461386,56.7268293 L287.50099,56.7268293 L287.50099,18.9560976 C287.50099,4.24390244 279.516832,-1.42108547e-14 264.831683,-1.42108547e-14 C259.841584,-1.42108547e-14 254.49505,0.495121951 247.152475,2.9 L247.29505,18.0365854 Z" id="Shape"></path>
                <path d="M196.752475,54.3926829 C201.885149,56.5853659 206.376238,57.9292683 212.649505,57.9292683 C226.693069,57.9292683 238.027723,53.6146341 238.027723,40.8829268 C238.027723,22.1390244 210.154455,23.2 215.572277,15.1365854 C216.855446,13.1560976 221.417822,13.5097561 223.69901,14.2878049 C226.550495,15.2073171 230.257426,16.4097561 233.322772,18.0365854 L233.322772,2.97073171 C230.542574,1.83902439 225.908911,0.212195122 220.847525,0.212195122 C208.657426,0.212195122 196.681188,5.09268293 196.681188,16.9756098 C196.681188,35.7195122 219.564356,34.9414634 219.564356,41.2365854 C219.564356,44.5609756 216.570297,44.6317073 212.506931,44.6317073 C207.089109,44.6317073 201.6,40.7414634 196.681188,38.3365854 L196.681188,54.3926829 L196.752475,54.3926829 Z" id="Shape" fill-rule="nonzero"></path>
                <path d="M111.136634,41.802439 C109.49703,42.7926829 107.643564,43.8536585 104.863366,43.8536585 C101.512871,43.8536585 99.0178218,41.9439024 99.0178218,38.4780488 C99.0178218,32.2536585 103.865347,30.697561 111.065347,31.3341463 L111.065347,41.802439 L111.136634,41.802439 Z M87.1841584,18.0365854 C91.5326733,16.4097561 95.3821782,15.2780488 100.443564,14.5707317 C105.647525,13.7926829 110.352475,16.0560976 110.352475,21.5731707 C108.641584,20.7243902 104.435644,19.8756098 101.085149,19.8756098 C88.6811881,19.8756098 81.2673267,29.1414634 81.2673267,38.6195122 C81.2673267,51.0682927 89.9643564,58 99.160396,58 C106.645545,58 110.49505,53.8268293 111.136634,52.695122 L111.350495,52.695122 L111.350495,56.7268293 L127.390099,56.7268293 L127.390099,18.9560976 C127.390099,4.24390244 119.405941,-1.42108547e-14 104.720792,-1.42108547e-14 C99.7306931,-1.42108547e-14 94.3841584,0.495121951 87.0415842,2.9 L87.1841584,18.0365854 Z" id="Shape"></path>
            </g>
            <g id="Group" fill-rule="nonzero">
                <rect id="Rectangle-path" fill="#E5007E" x="0.497368421" y="0.142654206" width="107.076316" height="106.705346"></rect>
                <g transform="translate(4.263158, 2.853084)" fill="#FFFFFF" id="Shape">
                    <path d="M16.4842105,0.998579439 C17.2657895,2.35379439 12.8605263,2.6391028 15.0631579,6.99005607 C15.6315789,8.13128972 17.9763158,8.55925234 19.9657895,8.48792523 C24.3,8.27394393 33.2526316,2.35379439 36.5921053,1.35521495 C40.7131579,0.142654206 45.9,0.49928972 47.8184211,3.49502804 C48.2447368,4.27962617 48.7421053,5.42085981 48.3157895,5.99147664 C47.3210526,7.34669159 44.8342105,5.84882243 42.7026316,5.27820561 C36.3789474,3.63768224 31.1921053,6.91872897 29.1315789,8.27394393 C26.4315789,9.98579439 23.0210526,11.9116262 19.6105263,11.768972 C16.2710526,11.6976449 12.4342105,9.98579439 12.5052632,5.49218692 C12.5052632,3.99431776 13.1447368,2.4964486 14.2815789,1.35521495 C14.85,0.713271028 16.1289474,0.356635514 16.4842105,0.998579439 Z"></path>
                    <path d="M66.15,5.34953271 C67.5710526,9.27252336 66.7184211,14.3367477 66.0078947,17.1185047 C66.2210526,18.045757 66.5763158,20.114243 67.2157895,22.3967103 C67.3578947,22.9673271 67.7131579,23.5379439 67.9263158,24.1798879 C68.1394737,25.6064299 66.7894737,25.8204112 65.7947368,26.3197009 C64.7289474,26.8903178 64.9421053,27.6749159 64.6578947,28.9588037 C64.6578947,28.9588037 63.1657895,29.3154393 62.8815789,29.6007477 C62.5973684,29.8860561 64.2315789,30.2426916 64.0894737,30.7419813 C63.8763158,31.3839252 60.75,33.3810841 60.9631579,35.6635514 C61.2473684,37.9460187 59.9684211,37.9460187 58.9026316,37.7320374 C57.8368421,37.5893832 55.1368421,36.1628411 53.3605263,36.3768224 C48.6710526,36.804785 54.9947368,51.8548037 54.7815789,51.9261308 C53.4315789,52.2114393 42.5605263,35.0929346 50.0921053,32.9531215 C51.6552632,32.5251589 53.0763158,32.8817944 54.7105263,33.6663925 C56.3447368,34.4509907 58.9026316,34.4509907 59.1868421,32.7391402 C59.4,31.4552523 58.8315789,30.9559626 60.6078947,30.0287103 L59.4710526,28.1742056 C59.5421053,28.1742056 61.5315789,27.2469533 61.5315789,27.2469533 C61.6026316,26.1770467 61.3184211,24.8218318 61.5315789,24.4651963 C62.0289474,23.6805981 63.8052632,24.3225421 64.0894737,23.2526355 C64.2315789,22.6106916 63.8763158,22.4680374 63.5921053,21.540785 C63.0947368,19.8289346 62.8105263,18.9016822 62.4552632,17.332486 C62.4552632,17.332486 65.1552632,9.70048598 62.5263158,5.56351402 C61.8157895,4.42228037 62.5263158,3.28104673 62.8815789,2.6391028 C63.5210526,1.49786916 65.7947368,4.06564486 66.15,5.34953271 Z"></path>
                    <path d="M46.6105263,16.0485981 C46.5394737,16.9045234 43.9105263,18.045757 41.9210526,18.4737196 C40.7131579,18.9730093 39.7184211,19.400972 38.7947368,20.1855701 C34.4605263,23.9659065 38.2973684,25.4637757 32.9684211,30.7419813 C31.9026316,31.8118879 28.2078947,33.7377196 26.2894737,32.596486 C22.7368421,30.4566729 17.8342105,30.3140187 15.3473684,32.5251589 C12.0078947,35.5208972 12.6473684,39.5865421 11.7947368,39.515215 C10.4447368,39.3725607 10.8710526,35.0929346 12.0789474,32.8817944 C13.5,30.3140187 15.8447368,28.3168598 19.2552632,27.6035888 C24.0157895,27.032972 23.9447368,28.8161495 27.2131579,28.8161495 C36.3789474,28.8161495 30.4815789,16.9758505 42.2052632,14.3367477 C45.3315789,13.6234766 46.6815789,15.1213458 46.6105263,16.0485981 Z"></path>
                    <path d="M27.4973684,15.4066542 C28.7763158,15.4066542 29.0605263,16.4052336 29.0605263,17.4038131 C29.0605263,19.6149533 25.7210526,21.0414953 23.0210526,21.1128224 C18.9,21.1841495 17.55,19.2583178 14.0684211,19.9002617 C9.23684211,20.827514 9.02368421,24.1798879 7.31842105,23.9659065 C6.25263158,23.8232523 7.10526316,21.6834393 7.81578947,20.4708785 C8.73947368,18.8303551 12.5763158,16.9045234 14.7789474,17.0471776 C16.9105263,17.1898318 18.1184211,17.8317757 20.3921053,17.7604486 C25.1526316,17.6891215 25.3657895,15.4066542 27.4973684,15.4066542 Z"></path>
                    <path d="M95.3526316,39.8718505 C94.1447368,43.9374953 87.8921053,45.5780187 85.05,45.9346542 C83.1315789,46.1486355 81.2842105,49.1443738 80.6447368,48.2171215 C79.7921053,46.9332336 82.9184211,44.436785 85.05,43.5095327 C87.8210526,42.3682991 89.9526316,43.2955514 94.7131579,39.2299065 C94.9263158,39.1585794 95.4947368,39.4438879 95.3526316,39.8718505 Z"></path>
                    <path d="M39.7894737,46.0059813 C41.1394737,47.2898692 39.9315789,49.0017196 38.2973684,48.573757 C35.5263158,47.860486 34.2473684,48.0744673 30.9789474,48.4311028 C21.6710526,49.3583551 16.1289474,58.1315888 6.89210526,62.9818318 C1.20789474,65.9775701 0.142105263,64.9076636 0.213157895,63.837757 C0.284210526,62.9818318 1.84736842,63.4097944 6.53684211,60.4140561 C9.02368421,58.8448598 10.7289474,57.7749533 12.6473684,55.9917757 C17.9763158,50.9988785 26.0763158,44.6507664 30.7657895,44.7220935 C31.9736842,44.7220935 37.8710526,44.0801495 39.7894737,46.0059813 Z"></path>
                    <path d="M54.1421053,60.6280374 C53.9289474,61.3413084 52.8631579,61.1273271 52.3657895,61.1273271 C50.1631579,61.1986542 49.1684211,58.8448598 46.8947368,56.9903551 C45.9,56.205757 45.1894737,55.9917757 44.4078947,55.0645234 C43.8394737,54.3512523 44.2657895,53.9232897 45.1184211,53.9946168 C46.0421053,54.137271 48.3157895,55.2785047 50.0921053,56.5623925 C51.8684211,57.9176075 54.4973684,59.6294579 54.1421053,60.6280374 Z"></path>
                    <path d="M78.7973684,76.32 C79.3657895,82.6681121 71.1947368,87.0903925 70.9815789,90.5140935 C70.4131579,98.7167103 69.7736842,100.92785 68.6368421,101.712449 C67.9973684,102.140411 66.5052632,101.997757 66.7184211,100.571215 C67.3578947,95.4356636 67.1447368,93.3671776 68.6368421,88.4456075 C70.1289474,83.5953645 75.5289474,82.596785 75.2447368,78.388486 C74.8894737,72.9676262 70.7684211,68.0460561 70.2710526,64.3370467 C69.9157895,61.3413084 69.4184211,57.8462804 71.2657895,54.6365607 C71.4789474,54.2085981 72.5447368,54.4225794 72.4026316,55.3498318 C71.4789474,59.3441495 72.3315789,61.9832523 72.9710526,64.1230654 C74.3210526,69.2586168 78.3710526,72.0403738 78.7973684,76.32 Z"></path>
                    <path d="M28.5631579,66.6908411 C28.5631579,67.6894206 23.8026316,67.974729 20.1078947,71.1844486 C15.9157895,74.7508037 11.7947368,77.675215 7.95789474,77.8178692 C6.60789474,77.8178692 5.11578947,77.3899065 5.11578947,76.7479626 C5.04473684,74.6081495 9.16578947,76.6053084 13.2868421,73.4669159 C17.2657895,70.3998505 20.8184211,67.4041121 24.8684211,66.6908411 C27.0710526,66.1202243 28.5631579,66.1915514 28.5631579,66.6908411 Z"></path>
                    <path d="M44.7631579,84.665271 C48.5289474,85.0932336 50.8026316,83.952 55.7763158,80.6709533 C56.1315789,80.456972 57.0552632,80.2429907 57.0552632,81.5268785 C56.9842105,83.8093458 52.5789474,87.2330467 48.4578947,87.8749907 C44.1236842,88.5882617 40.5710526,86.5197757 37.9421053,84.0233271 C36.0236842,82.1688224 34.1052632,78.388486 35.1,77.7465421 C35.5973684,77.4612336 35.9526316,77.8891963 36.45,78.7451215 C37.7289474,81.0989159 40.7842105,84.2373084 44.7631579,84.665271 Z"></path>
                    <path d="M34.6026316,103.994916 C35.6684211,98.9306916 35.3131579,93.5098318 32.1157895,88.1602991 C29.0605263,83.1674019 24.9394737,76.1060187 24.6552632,75.6780561 C23.5894737,73.8235514 23.3763158,75.606729 23.5894737,76.6053084 C24.4421053,81.3128972 30.7657895,90.0861308 31.1210526,96.3629159 C31.2631579,99.5726355 30.6947368,101.712449 30.0552632,103.994916 L34.6026316,103.994916 Z"></path>
                    <path d="M97.4842105,22.3967103 C97.1289474,23.8945794 92.4394737,25.6064299 89.1,27.9602243 C83.2026316,32.0971963 78.5842105,37.6607103 74.25,38.873271 C69.3473684,40.2998131 67.7131579,41.7263551 64.3736842,44.7220935 C62.5973684,46.2912897 62.5973684,49.0730467 60.2526316,49.287028 C60.2526316,49.287028 57.5526316,49.287028 58.2631579,46.8619065 C59.9684211,41.1557383 65.5105263,38.7306168 71.4789474,36.0201869 C72.6868421,35.4495701 74.25,36.091514 79.4368421,31.883215 C85.1210526,27.3182804 91.7289474,23.4666168 95.2815789,21.8974206 C96.3473684,21.540785 97.6973684,21.540785 97.4842105,22.3967103 Z"></path>
                </g>
            </g>
        </g>
    </g>
</svg>