<?xml version="1.0" encoding="UTF-8"?>
<svg width="600px" height="250px" viewBox="0 0 600 250" version="1.1" xmlns="http://www.w3.org/2000/svg" xmlns:xlink="http://www.w3.org/1999/xlink">
    <!-- Generator: Sketch 50.1 (55044) - http://www.bohemiancoding.com/sketch -->
    <title>ANIM</title>
    <desc>Created with Sketch.</desc>
    <defs></defs>
    <g id="ANIM" stroke="none" stroke-width="1" fill="none" fill-rule="evenodd">
        <g id="Grid-Logo" opacity="0.400000006" transform="translate(1.000000, 0.000000)"></g>
        <g id="ANIM3" transform="translate(96.000000, 54.000000)">
            <path d="M3.8090057,137 C3.8090057,137 -24.2609941,-14.6596291 72,1.15630367 C72,1.15630367 57.7445551,47.0875056 48.7063091,58.4258684 C48.7063091,58.4258684 40.6233248,49.8318227 39.006728,41.8877469 C39.006728,41.8877469 36.2144243,68.3920726 50.5433509,78.5749334 C50.5433509,78.5749334 42.6808117,101.17944 31.8790055,105.079259 C31.8790055,105.079259 14.4638486,74.6751143 29.8950003,39.2878675 C29.8950003,39.2878675 2.41285388,74.8917709 26.3678799,106.812512 C26.3678799,106.884731 15.6395554,129.778113 3.8090057,137 Z" id="Shape" fill="#4C565C"></path>
            <path d="M17,137.093989 C17,137.093989 38.5003879,118.105943 48.2404965,97 C48.2404965,97 60.5779674,119.493531 110,109.561323 C110,109.561323 104.372382,121.903553 93.0449961,125.336007 C93.0449961,125.336007 66.1334368,124.897821 61.3716059,119.858686 C61.3716059,119.858686 57.0426687,129.279678 71.3281614,133.588504 C71.2560124,133.588504 46.3646237,145.273455 17,137.093989 Z" id="Shape" fill="#4A2682"></path>
            <path d="M51,89.7520318 C51,89.7520318 61.5813953,57.1831414 63.8848283,39.9237959 C63.8848283,39.9237959 68.8516058,42.3068854 77.345515,42.5957448 C77.345515,42.5957448 68.7796235,34.4354685 78.5692137,34.2910388 C87.351052,34.1466091 83.5359911,41.1514481 83.1040975,42.5235299 C83.1040975,42.5235299 85.6954596,43.1734635 90.0143965,41.3680926 C90.0143965,41.3680926 84.4717608,24.2531768 64.9645626,38.118425 C64.9645626,38.118425 66.620155,30.6080822 69.7153931,25.1919696 C69.7153931,25.1919696 90.8062016,24.3976064 97.572536,31.9079492 C97.572536,31.9079492 99.6600221,30.8969416 99.4440753,25.04754 C99.4440753,25.04754 75.0420819,22.5200207 70.3632337,24.1087471 C70.3632337,24.1087471 76.1218162,1.07221483 95.1971207,1 C95.1971207,1 104.914729,9.59356533 107.866002,34.7243278 C110.817276,59.8550903 114.200443,61.0105276 116,65.4878474 C116,65.4878474 111.537099,70.8317451 106.498339,70.470671 C101.747508,70.1095968 101.531561,69.604093 99.9479513,69.604093 C99.9479513,69.604093 100.595792,75.0202056 103.115172,77.9810138 C103.115172,77.9810138 96.1328904,80.941822 93.9014396,80.941822 C93.9014396,80.941822 99.2281285,82.8194077 102.467331,82.6027632 C102.467331,82.6027632 92.6777409,93.5794181 101.963455,103.978354 C101.819491,103.978354 63.2369878,119.432329 51,89.7520318 Z" id="Shape" fill="#ABCB58"></path>
            <path d="M102,1 C102,1 124.069036,13.6213592 128.715149,23.1414702 C128.715149,23.1414702 120.43926,21.1941748 116.736889,28.6227462 C116.736889,28.6227462 122.471935,25.5214979 130.530036,25.8099861 C130.530036,25.8099861 135.684318,32.9500693 136.337677,36.3398058 C136.337677,36.3398058 132.635306,34.0319001 128.497362,33.5991678 C120.802238,32.7337032 111.727799,34.6088766 123.778654,43.7683773 C123.778654,43.7683773 119.713305,34.0319001 128.497362,35.6907074 C135.103554,36.9167822 130.384845,43.7683773 127.916598,43.9126214 C127.916598,43.9126214 133.506452,44.6338419 136.773251,39.0083218 C136.773251,39.0083218 149.477465,87.1137309 114.196046,105 C114.196046,105 102.65336,98.0762829 103.306719,83.147018 C103.306719,83.147018 107.081686,83.2912621 113.397495,78.963939 C113.397495,78.963939 107.081686,80.0457698 105.121607,79.1081831 C105.121607,79.1081831 105.049012,75.2135922 106.137944,72.3287101 C106.137944,72.3287101 115.647956,71.7517337 121.383002,67.4244105 C121.383002,67.4244105 113.470091,51.9902913 112.235967,43.479889 C111.001844,35.0416089 111.364821,13.7656033 102,1 Z" id="Shape" fill="#4A2682"></path>
            <path d="M257.153558,95 C253.951311,95 252.243446,93.3221884 252.243446,89.8206687 L252.243446,68.1550152 C252.243446,58.3799392 248.685393,54.5866261 240.573034,54.5866261 C233.670412,54.5866261 229.756554,58.5258359 229.756554,68.1550152 L229.756554,95 L226.838951,95 C223.992509,95 222,93.2492401 222,89.5288754 L222,67.9361702 C222,54.7325228 229.756554,47 241.498127,47 C253.026217,47 260,53.7841945 260,67.8632219 L260,95 L257.153558,95 Z" id="Shape" fill="#4C565C"></path>
            <path d="M359.253012,94.9272727 C356.216867,94.9272727 354.048193,92.8181818 354.048193,89.0363636 L354.048193,68.3090909 C354.048193,58.4909091 350.361446,54.6363636 344,54.6363636 C336.337349,54.6363636 333.084337,58.5636364 333.084337,68.0909091 L333.084337,95 L330.337349,95 C326.506024,95 324.987952,92.8909091 324.987952,89.1090909 L324.987952,68.3818182 C324.987952,59.8727273 321.228916,54.7090909 314.506024,54.7090909 C307.638554,54.7090909 304.024096,58.8545455 304.024096,68.3818182 L304.024096,95 L301.493976,95 C298.168675,95 296,93.0363636 296,89.1090909 L296,67.2181818 C296,56.3818182 302.795181,47 315.012048,47 C321.879518,47 326.650602,50.0545455 329.542169,55.5090909 C332.578313,50.4181818 338.072289,47 344.216867,47 C355.783133,47 362,54.0545455 362,68.0181818 L362,94.9272727 L359.253012,94.9272727 Z" id="Shape" fill="#4C565C"></path>
            <path d="M276.4,47 L274,47 L274,88.8343653 C274,92.3266254 275.818182,94 279.090909,94 L282,94 L282,53.2569659 C282,49.1099071 279.163636,47 276.4,47 Z" id="Shape" fill="#4C565C"></path>
            <path d="M186.449234,47 L194.887049,47.0721075 C195.578673,47.0721075 206.229684,48.9469031 206.713821,58.3208808 C207.197958,67.6948585 206.921309,82.8374379 206.921309,82.8374379 C206.921309,82.8374379 206.713821,91.9229855 196.408622,93.5814585 C192.604689,94.1583187 187.348346,94.3746412 182.506977,92.6440607 C178.218907,91.1298028 174,88.1733944 174,82.8374379 C174,76.2756535 174.207487,76.5640836 174.207487,76.5640836 C174.207487,76.5640836 175.314086,66.5411382 189.008244,65.820063 C202.702401,65.0989877 200.420042,65.3874178 200.420042,65.3874178 C200.420042,65.3874178 201.80329,55.2923649 196.892759,54.3549671 C191.982227,53.4175694 185.273473,53.778107 183.682738,54.2828596 C182.092002,54.7155047 178.426394,55.1481499 176.213197,59.6188162 C174,64.0894825 175.106599,54.4991822 176.213197,52.8407092 C177.319796,51.1822362 180.501267,47.3605376 186.449234,47 Z M199.935905,72.3818474 L199.935905,79.9531371 C199.935905,83.6306206 197.930195,86.8754591 194.126262,87.3081042 C190.322329,87.7407493 183.129439,88.0291794 181.815353,82.8374379 C180.501267,77.7178039 181.607865,73.2471376 188.109132,72.5260624 C194.541237,71.9492022 199.935905,72.3818474 199.935905,72.3818474 Z" id="Shape" fill="#4C565C"></path>
            <path d="M388.449234,47 L396.887049,47.0721075 C397.578673,47.0721075 408.229684,48.9469031 408.713821,58.3208808 C409.197958,67.6948585 408.921309,82.8374379 408.921309,82.8374379 C408.921309,82.8374379 408.713821,91.9229855 398.408622,93.5814585 C394.604689,94.1583187 389.348346,94.3746412 384.506977,92.6440607 C380.218907,91.1298028 376,88.1733944 376,82.8374379 C376,76.2756535 376.207487,76.5640836 376.207487,76.5640836 C376.207487,76.5640836 377.314086,66.5411382 391.008244,65.820063 C404.702401,65.0989877 402.420042,65.3874178 402.420042,65.3874178 C402.420042,65.3874178 403.80329,55.2923649 398.892759,54.3549671 C393.982227,53.4175694 387.273473,53.778107 385.682738,54.2828596 C384.092002,54.7155047 380.426394,55.1481499 378.213197,59.6188162 C376,64.0894825 377.106599,54.4991822 378.213197,52.8407092 C379.319796,51.1101287 382.501267,47.3605376 388.449234,47 Z M402.005067,72.3818474 L402.005067,79.9531371 C402.005067,83.6306206 399.999357,86.8754591 396.195425,87.3081042 C392.391492,87.7407493 385.198601,88.0291794 383.884515,82.8374379 C382.570429,77.7178039 383.677028,73.2471376 390.178295,72.5260624 C396.610399,71.9492022 402.005067,72.3818474 402.005067,72.3818474 Z" id="Shape" fill="#4C565C"></path>
            <path d="M178.622555,29.9986348 L179.518741,29 L191.46789,36.3649318 L203.41704,29 L204.313226,29.9986348 C205.358776,31.122099 205.358776,32.9945393 203.267675,34.3052475 C200.056341,36.3025171 196.845008,38.2997868 193.633674,40.2970564 C192.364077,41.1708619 191.019797,41.2956913 189.451472,40.2970564 L179.81747,34.3052475 C177.651687,32.9945393 177.651687,31.122099 178.622555,29.9986348 Z" id="Shape" stroke="#44555F" stroke-width="0.5669" fill="#4C565C"></path>
            <polygon id="Shape" fill="#4C565C" fill-rule="nonzero" points="175 125 175 109 184 109 184 111.264151 177.59322 111.264151 177.59322 115.264151 184 115.264151 184 117.528302 177.59322 117.528302 177.59322 122.735849 184 122.735849 184 125"></polygon>
            <path d="M205.346369,122.660377 L207.290503,122.660377 C208.363128,122.660377 209.167598,122.584906 209.703911,122.433962 C210.240223,122.283019 210.709497,121.981132 211.111732,121.603774 C211.648045,121.075472 212.050279,120.471698 212.318436,119.641509 C212.586592,118.886792 212.72067,117.981132 212.72067,116.924528 C212.72067,115.943396 212.586592,115.037736 212.318436,114.207547 C212.050279,113.45283 211.648045,112.773585 211.111732,112.245283 C210.709497,111.867925 210.240223,111.566038 209.636872,111.415094 C209.100559,111.264151 208.22905,111.188679 207.022346,111.188679 L206.217877,111.188679 L205.413408,111.188679 L205.413408,122.660377 L205.346369,122.660377 Z M203,125 L203,109 L206.083799,109 C208.094972,109 209.502793,109.150943 210.374302,109.377358 C211.178771,109.603774 211.916201,109.981132 212.519553,110.509434 C213.324022,111.188679 213.994413,112.09434 214.396648,113.226415 C214.798883,114.358491 215,115.566038 215,117 C215,118.433962 214.798883,119.716981 214.396648,120.773585 C213.994413,121.90566 213.324022,122.735849 212.519553,123.490566 C211.916201,124.018868 211.178771,124.396226 210.374302,124.622642 C209.569832,124.849057 208.363128,125 206.687151,125 L206.083799,125 L203,125 Z" id="Shape" fill="#4C565C" fill-rule="nonzero"></path>
            <path d="M235.063218,109 L237.212644,109 L237.212644,118.511521 C237.212644,119.912442 237.465517,120.9447 238.034483,121.682028 C238.603448,122.419355 239.425287,122.714286 240.563218,122.714286 C241.637931,122.714286 242.522989,122.345622 243.028736,121.682028 C243.597701,120.9447 243.850575,119.912442 243.850575,118.511521 L243.850575,109 L246,109 L246,118.732719 C246,120.870968 245.557471,122.419355 244.609195,123.451613 C243.724138,124.483871 242.333333,125 240.5,125 C238.666667,125 237.275862,124.483871 236.390805,123.451613 C235.505747,122.419355 235,120.797235 235,118.732719 L235,109 L235.063218,109 Z" id="Shape" fill="#4C565C" fill-rule="nonzero"></path>
            <path d="M280.801105,112.089686 C280.138122,111.515695 279.475138,111.013453 278.745856,110.726457 C278.016575,110.439462 277.287293,110.295964 276.491713,110.295964 C274.966851,110.295964 273.707182,110.798206 272.712707,111.874439 C271.718232,112.950673 271.254144,114.313901 271.254144,116.035874 C271.254144,117.686099 271.718232,119.049327 272.646409,120.125561 C273.574586,121.201794 274.767956,121.704036 276.226519,121.704036 C277.088398,121.704036 277.81768,121.560538 278.61326,121.201794 C279.342541,120.914798 280.071823,120.412556 280.801105,119.766816 L280.801105,122.565022 C280.20442,123.067265 279.541436,123.426009 278.812155,123.641256 C278.082873,123.856502 277.287293,124 276.491713,124 C275.430939,124 274.436464,123.784753 273.508287,123.426009 C272.58011,123.067265 271.78453,122.493274 271.121547,121.775785 C270.458564,121.058296 269.928177,120.197309 269.530387,119.192825 C269.132597,118.188341 269,117.183857 269,116.035874 C269,114.887892 269.198895,113.883408 269.530387,112.878924 C269.928177,111.874439 270.458564,111.013453 271.121547,110.295964 C271.850829,109.578475 272.646409,109.004484 273.508287,108.573991 C274.436464,108.215247 275.364641,108 276.425414,108 C277.220994,108 278.016575,108.143498 278.812155,108.358744 C279.541436,108.64574 280.270718,109.004484 281,109.506726 L280.801105,112.089686 Z" id="Shape" fill="#4C565C" fill-rule="nonzero"></path>
            <path d="M302.669903,117.963636 L306.393204,117.963636 L305.004854,114.472727 C304.941748,114.254545 304.815534,113.963636 304.752427,113.672727 C304.68932,113.381818 304.563107,113.090909 304.5,112.727273 C304.436893,113.090909 304.373786,113.381818 304.247573,113.672727 C304.184466,113.963636 304.058252,114.254545 303.995146,114.472727 L302.669903,117.963636 Z M308.665049,124 L307.150485,120 L301.849515,120 L300.271845,124 L298,124 L304.5,108 L311,124 L308.665049,124 Z" id="Shape" fill="#4C565C" fill-rule="nonzero"></path>
            <path d="M342.801105,112.086022 C342.138122,111.512545 341.475138,111.010753 340.745856,110.724014 C340.016575,110.437276 339.287293,110.293907 338.491713,110.293907 C336.966851,110.293907 335.707182,110.795699 334.712707,111.870968 C333.718232,112.946237 333.254144,114.308244 333.254144,116.028674 C333.254144,117.677419 333.718232,119.039427 334.646409,120.114695 C335.574586,121.189964 336.767956,121.691756 338.226519,121.691756 C339.088398,121.691756 339.81768,121.548387 340.61326,121.189964 C341.342541,120.903226 342.071823,120.401434 342.801105,119.756272 L342.801105,122.551971 C342.20442,123.053763 341.541436,123.412186 340.812155,123.62724 C340.082873,123.842294 339.287293,123.985663 338.491713,123.985663 C337.430939,123.985663 336.436464,123.770609 335.508287,123.412186 C334.58011,123.053763 333.78453,122.480287 333.121547,121.763441 C332.458564,121.046595 331.928177,120.18638 331.530387,119.182796 C331.132597,118.179211 331,117.175627 331,116.028674 C331,114.88172 331.198895,113.878136 331.530387,112.874552 C331.928177,111.870968 332.458564,111.010753 333.121547,110.293907 C333.850829,109.577061 334.646409,109.003584 335.508287,108.573477 C336.436464,108.215054 337.364641,108 338.425414,108 C339.220994,108 340.016575,108.143369 340.812155,108.358423 C341.541436,108.645161 342.270718,109.003584 343,109.505376 L342.801105,112.086022 Z M335.972376,127.641577 L335.972376,126.566308 C336.502762,126.709677 336.966851,126.781362 337.298343,126.853047 C337.696133,126.924731 338.027624,126.924731 338.292818,126.924731 C338.624309,126.924731 338.889503,126.853047 339.022099,126.781362 C339.154696,126.637993 339.287293,126.494624 339.287293,126.27957 C339.287293,125.992832 339.154696,125.777778 338.955801,125.706093 C338.756906,125.562724 338.425414,125.491039 337.961326,125.491039 C337.895028,125.491039 337.828729,125.491039 337.762431,125.491039 C337.696133,125.491039 337.629834,125.491039 337.563536,125.491039 L337.563536,123.555556 L338.359116,123.555556 L338.359116,124.487455 L338.491713,124.487455 C339.220994,124.487455 339.751381,124.630824 340.082873,124.917563 C340.414365,125.204301 340.61326,125.706093 340.61326,126.27957 C340.61326,126.853047 340.414365,127.283154 340.016575,127.569892 C339.618785,127.856631 339.088398,128 338.292818,128 C337.961326,128 337.629834,128 337.165746,127.928315 C336.900552,127.928315 336.436464,127.784946 335.972376,127.641577 Z" id="Shape" fill="#4C565C" fill-rule="nonzero"></path>
            <path d="M364.669903,117.874539 L368.393204,117.874539 L367.004854,114.332103 C366.941748,114.110701 366.815534,113.815498 366.752427,113.520295 C366.68932,113.225092 366.563107,112.929889 366.5,112.560886 C366.436893,112.929889 366.373786,113.225092 366.247573,113.520295 C366.184466,113.815498 366.058252,114.110701 365.995146,114.332103 L364.669903,117.874539 Z M370.665049,124 L369.150485,119.940959 L363.849515,119.940959 L362.271845,124 L360,124 L366.5,107.763838 L373,124 L370.665049,124 Z M369.150485,104.147601 C369.024272,104.885609 368.834951,105.402214 368.519417,105.771218 C368.203883,106.140221 367.825243,106.361624 367.383495,106.361624 C367.320388,106.361624 367.194175,106.361624 367.131068,106.361624 C367.067961,106.361624 366.941748,106.361624 366.878641,106.287823 L365.742718,105.918819 C365.616505,105.918819 365.553398,105.918819 365.553398,105.845018 C365.490291,105.845018 365.490291,105.845018 365.427184,105.845018 C365.237864,105.845018 365.048544,105.918819 364.92233,105.99262 C364.796117,106.140221 364.73301,106.287823 364.669903,106.583026 L363.786408,106.583026 C363.912621,105.845018 364.165049,105.254613 364.417476,104.885609 C364.669903,104.516605 365.048544,104.369004 365.490291,104.369004 C365.553398,104.369004 365.679612,104.369004 365.742718,104.369004 C365.805825,104.369004 365.932039,104.369004 365.995146,104.442804 L367.067961,104.738007 C367.131068,104.738007 367.194175,104.738007 367.257282,104.738007 C367.320388,104.738007 367.383495,104.738007 367.509709,104.738007 C367.699029,104.738007 367.825243,104.664207 368.014563,104.516605 C368.140777,104.369004 368.26699,104.221402 368.26699,104 L369.150485,104 L369.150485,104.147601 Z" id="Shape" fill="#4C565C" fill-rule="nonzero"></path>
            <path d="M406.303965,117 C406.303965,116.207207 406.154185,115.486486 405.854626,114.765766 C405.555066,114.045045 405.180617,113.468468 404.581498,112.891892 C404.057269,112.387387 403.45815,111.954955 402.709251,111.666667 C402.035242,111.378378 401.286344,111.234234 400.462555,111.234234 C399.713656,111.234234 398.964758,111.378378 398.215859,111.666667 C397.54185,111.954955 396.867841,112.387387 396.343612,112.891892 C395.819383,113.396396 395.370044,114.045045 395.070485,114.765766 C394.770925,115.486486 394.621145,116.207207 394.621145,117 C394.621145,117.792793 394.770925,118.513514 395.070485,119.162162 C395.370044,119.882883 395.744493,120.459459 396.343612,121.036036 C396.867841,121.612613 397.54185,121.972973 398.215859,122.261261 C398.889868,122.54955 399.638767,122.693694 400.462555,122.693694 C401.211454,122.693694 401.960352,122.54955 402.634361,122.261261 C403.30837,121.972973 403.982379,121.540541 404.506608,121.036036 C405.030837,120.459459 405.480176,119.882883 405.779736,119.162162 C406.154185,118.513514 406.303965,117.720721 406.303965,117 Z M409,117 C409,118.081081 408.77533,119.09009 408.400881,120.099099 C407.951542,121.036036 407.352423,121.900901 406.528634,122.693694 C405.704846,123.486486 404.806167,124.063063 403.757709,124.423423 C402.709251,124.855856 401.660793,125 400.537445,125 C399.414097,125 398.290749,124.783784 397.242291,124.423423 C396.193833,123.990991 395.295154,123.414414 394.471366,122.693694 C393.647577,121.900901 393.048458,121.108108 392.599119,120.099099 C392.14978,119.162162 392,118.081081 392,117 C392,115.918919 392.22467,114.90991 392.599119,113.900901 C393.048458,112.963964 393.647577,112.099099 394.471366,111.306306 C395.295154,110.513514 396.193833,109.936937 397.242291,109.576577 C398.290749,109.216216 399.339207,109 400.537445,109 C401.660793,109 402.784141,109.216216 403.757709,109.576577 C404.806167,109.936937 405.704846,110.513514 406.528634,111.306306 C407.352423,112.099099 407.951542,112.963964 408.400881,113.900901 C408.77533,114.90991 409,115.918919 409,117 Z" id="Shape" fill="#4C565C" fill-rule="nonzero"></path>
        </g>
    </g>
</svg>