<?xml version="1.0" encoding="UTF-8"?>
<svg width="600px" height="250px" viewBox="0 0 600 250" version="1.1" xmlns="http://www.w3.org/2000/svg" xmlns:xlink="http://www.w3.org/1999/xlink">
    <!-- Generator: Sketch 50.1 (55044) - http://www.bohemiancoding.com/sketch -->
    <title>ARZZ</title>
    <desc>Created with Sketch.</desc>
    <defs></defs>
    <g id="ARZZ" stroke="none" stroke-width="1" fill="none" fill-rule="evenodd">
        <g id="Grid-Logo" opacity="0.400000006" transform="translate(1.000000, 0.000000)"></g>
        <g id="ARZZ3" transform="translate(115.000000, 92.000000)">
            <path d="M24,3 L32,3" id="Shape" stroke="#000000" stroke-width="0.216"></path>
            <path d="M0,68 L23.8018868,3 L32.625,3 L58,68 L48.6981132,68 L41.4481132,48.2763295 L15.5259434,48.2763295 L8.75471698,68 L0,68 Z M17.9198113,41.2950991 L38.9858491,41.2950991 L32.4882075,23.265902 L28.3160377,12.55683 L24.759434,22.181439 L17.9198113,41.2950991 Z" id="Shape" fill="#000000" fill-rule="nonzero"></path>
            <path d="M68,67.9322917 L68,3 L97.5813953,3 C104.837209,3 112.651163,3.609375 116.837209,10.921875 C118.511628,13.9010417 119.906977,17.1510417 119.906977,20.7395833 C119.906977,30.828125 113.348837,38.546875 104,39.96875 C104.767442,40.375 110.139535,48.4322917 111.325581,50.328125 L122,68 L111.813953,68 C105.953488,58.65625 100.302326,49.3802083 93.5348837,40.7135417 C92.1395349,40.6458333 86.6976744,40.5104167 85.5116279,40.5104167 L76.0930233,40.5104167 L76.0930233,68 L68,68 L68,67.9322917 Z M76.0930233,32.9947917 L95.9767442,32.9947917 C99.6744186,32.9947917 102.604651,32.5885417 104.697674,31.7760417 C106.790698,30.9635417 108.395349,29.6770833 109.44186,27.8489583 C110.55814,26.0885417 111.046512,22.7708333 111.046512,20.671875 C111.046512,17.625 110,15.0520833 107.906977,13.0885417 C105.813953,11.125 102.465116,10.109375 97.9302326,10.109375 L76.0930233,10.109375 L76.0930233,32.9947917 Z" id="Shape" fill="#000000" fill-rule="nonzero"></path>
            <polygon id="Shape" fill="#000000" fill-rule="nonzero" points="131 68 131 3 175.568889 3 175.568889 10.6590198 138.837037 10.6590198 138.837037 30.5860271 171.820741 30.5860271 171.820741 38.177268 138.837037 38.177268 138.837037 60.3409802 177 60.3409802 177 68"></polygon>
            <g id="Group" transform="translate(186.000000, 1.000000)" fill="#000000" fill-rule="nonzero">
                <path d="M0.0686746988,66.5164948 L0.0686746988,58.3659794 L34.2686747,15.9556701 C36.6722892,12.9164948 39.0072289,10.2917526 41.2048193,8.0814433 L3.98313253,8.0814433 L3.98313253,0.27628866 L51.7807229,0.27628866 L51.7807229,8.0814433 L14.2843373,54.014433 L10.2325301,58.642268 L52.8795181,58.642268 L52.8795181,66.4474227 L0.0686746988,66.4474227 L0.0686746988,66.5164948 Z" id="Shape"></path>
                <path d="M61.1204819,66.5164948 L61.1204819,58.3659794 L95.3204819,15.9556701 C97.7240964,12.9164948 100.059036,10.2917526 102.256627,8.0814433 L65.0349398,8.0814433 L65.0349398,0.27628866 L112.83253,0.27628866 L112.83253,8.0814433 L75.3361446,54.014433 L71.2843373,58.642268 L113.931325,58.642268 L113.931325,66.4474227 L61.1204819,66.4474227 L61.1204819,66.5164948 Z" id="Shape"></path>
            </g>
            <path d="M302,34.926337 C302,24.0161453 305.188583,15.4389506 311.496432,9.26337033 C317.804281,3.08779011 325.98369,0 336.034659,0 C342.619776,0 348.511723,1.44096872 353.779817,4.32290616 C359.04791,7.20484359 363.068298,11.2532795 365.840979,16.4682139 C368.61366,21.6831483 370,27.5842583 370,34.1029263 C370,40.7588295 368.544343,46.728557 365.633028,52.012109 C362.721713,57.2956609 358.632008,61.2754793 353.294597,63.9515641 C347.957187,66.6276488 342.203874,68 336.034659,68 C329.380224,68 323.349643,66.4904137 318.081549,63.5398587 C312.813456,60.5206862 308.862385,56.4722503 306.089704,51.2573158 C303.38634,46.1796165 302,40.6902119 302,34.926337 Z M311.704383,35.0635721 C311.704383,43.0232089 313.991845,49.2674067 318.636086,53.7961655 C323.211009,58.3935419 329.033639,60.6579213 335.965341,60.6579213 C343.035678,60.6579213 348.858308,58.3249243 353.433231,53.7275479 C358.008155,49.1301715 360.295617,42.6115035 360.295617,34.1029263 C360.295617,28.7507568 359.325178,24.0847629 357.384302,20.1049445 C355.443425,16.1251261 352.601427,13.037336 348.788991,10.8415742 C345.045872,8.64581231 340.817533,7.54793138 336.103976,7.54793138 C329.449541,7.54793138 323.696228,9.67507568 318.913354,13.9293643 C314.130479,18.0464178 311.704383,25.1826438 311.704383,35.0635721 Z" id="Shape" fill="#000000" fill-rule="nonzero"></path>
        </g>
    </g>
</svg>