<?xml version="1.0" encoding="UTF-8"?>
<svg width="600px" height="250px" viewBox="0 0 600 250" version="1.1" xmlns="http://www.w3.org/2000/svg" xmlns:xlink="http://www.w3.org/1999/xlink">
    <!-- Generator: Sketch 50.1 (55044) - http://www.bohemiancoding.com/sketch -->
    <title>AZUL</title>
    <desc>Created with Sketch.</desc>
    <defs></defs>
    <g id="AZUL" stroke="none" stroke-width="1" fill="none" fill-rule="evenodd">
        <g id="Grid-Logo" opacity="0.400000006"></g>
        <g id="Group-2" transform="translate(135.000000, 80.000000)">
            <g id="Group" transform="translate(244.000000, 0.000000)">
                <polygon id="Fill-1" fill="#5359A3" points="53.2237218 12.1142727 58.3532915 12.1142727 58.3532915 8.20518182 53.2237218 8.20518182"></polygon>
                <polygon id="Fill-2" fill="#912582" points="34.3022727 67.2363636 50.0734326 67.2363636 50.0734326 50.8181818 34.3022727 50.8181818"></polygon>
                <polygon id="Fill-3" fill="#6281C0" points="44.5535266 77.4 54.8047806 77.4 54.8047806 71.1454545 44.5535266 71.1454545"></polygon>
                <polygon id="Fill-4" fill="#E63F16" points="38.6393417 86 50.8619906 86 50.8619906 73.8818182 38.6393417 73.8818182"></polygon>
                <polygon id="Fill-5" fill="#D1191C" points="54.0162226 67.6272727 64.6617555 67.6272727 64.6617555 62.9363636 54.0162226 62.9363636"></polygon>
                <polygon id="Fill-6" fill="#F4A000" points="50.0734326 57.0727273 61.1132445 57.0727273 61.1132445 54.3363636 50.0734326 54.3363636"></polygon>
                <polygon id="Fill-7" fill="#7298CF" points="64.6617555 64.887 72.1569992 64.887 72.1569992 62.9363636 64.6617555 62.9363636"></polygon>
                <polygon id="Fill-8" fill="#3169B0" points="50.0734326 54.7272727 60.3286293 54.7272727 60.3286293 41.4363636 50.0734326 41.4363636"></polygon>
                <polygon id="Fill-9" fill="#81CCE2" points="29.9652038 50.8181818 50.0734326 50.8181818 50.0734326 31.2727273 29.9652038 31.2727273"></polygon>
                <polygon id="Fill-10" fill="#9AC21C" points="18.1368339 42.2181818 31.538377 42.2181818 31.538377 31.2727273 18.1368339 31.2727273"></polygon>
                <polygon id="Fill-11" fill="#5359A3" points="35.4851097 31.6636364 58.3572343 31.6636364 58.3572343 12.9 35.4851097 12.9"></polygon>
                <polygon id="Fill-12" fill="#219BD6" points="60.3246865 53.9454545 76.8804616 53.9454545 76.8804616 33.6181818 60.3246865 33.6181818"></polygon>
                <polygon id="Fill-13" fill="#F4A000" points="57.9590125 62.5454545 72.1569992 62.5454545 72.1569992 44.9545455 57.9590125 44.9545455"></polygon>
                <polygon id="Fill-14" fill="#D1191C" points="50.0734326 67.2402727 60.7189655 67.2402727 60.7189655 57.0727273 50.0734326 57.0727273"></polygon>
                <polygon id="Fill-15" fill="#0696A6" points="43.7649687 71.1454545 57.5647335 71.1454545 57.5647335 63.7181818 43.7649687 63.7181818"></polygon>
                <polygon id="Fill-16" fill="#B4C7E6" points="72.1569992 60.9818182 74.9130094 60.9818182 74.9130094 51.9948182 72.1569992 51.9948182"></polygon>
                <polygon id="Fill-17" fill="#3FB7B0" points="77.2786834 37.5272727 84.7660415 37.5272727 84.7660415 32.8363636 77.2786834 32.8363636"></polygon>
                <polygon id="Fill-18" fill="#B1194F" points="76.4901254 40.6545455 82.0100313 40.6545455 82.0100313 37.5272727 76.4901254 37.5272727"></polygon>
                <polygon id="Fill-19" fill="#80C397" points="50.0734326 41.4363636 60.3286293 41.4363636 60.3286293 23.4545455 50.0734326 23.4545455"></polygon>
                <polygon id="Fill-20" fill="#EBDF00" points="60.3246865 33.6181818 74.1244514 33.6181818 74.1244514 16.0272727 60.3246865 16.0272727"></polygon>
                <polygon id="Fill-21" fill="#32B9D2" points="58.3532915 29.3181818 68.6045455 29.3181818 68.6045455 12.9 58.3532915 12.9"></polygon>
                <polygon id="Fill-22" fill="#77AEDD" points="72.1569992 33.6142727 85.9528213 33.6142727 85.9528213 28.9233636 72.1569992 28.9233636"></polygon>
                <polygon id="Fill-23" fill="#E04490" points="74.5187304 28.9272727 81.2214734 28.9272727 81.2214734 18.3727273 74.5187304 18.3727273"></polygon>
                <polygon id="Fill-24" fill="#623A8D" points="78.8557994 25.8 85.1642633 25.8 85.1642633 21.5 78.8557994 21.5"></polygon>
                <polygon id="Fill-25" fill="#FDD900" points="77.2786834 30.1 85.9528213 30.1 85.9528213 25.7960909 77.2786834 25.7960909"></polygon>
                <polygon id="Fill-26" fill="#5359A3" points="53.2276646 12.1181818 58.3572343 12.1181818 58.3572343 7.81818182 53.2276646 7.81818182"></polygon>
                <polygon id="Fill-27" fill="#5359A3" points="35.4851097 18.7636364 44.9478056 18.7636364 44.9478056 8.20909091 35.4851097 8.20909091"></polygon>
                <polygon id="Fill-28" fill="#1DB5E7" points="6.30846395 31.6636364 35.4811669 31.6636364 35.4811669 8.20909091 6.30846395 8.20909091"></polygon>
                <polygon id="Fill-29" fill="#34A636" points="21.2910658 13.2909091 31.538377 13.2909091 31.538377 0 21.2910658 0"></polygon>
                <polygon id="Fill-30" fill="#EAB900" points="0.394278997 36.7454545 19.3196708 36.7454545 19.3196708 29.3181818 0.394278997 29.3181818"></polygon>
                <polygon id="Fill-31" fill="#C3D000" points="44.9478056 12.9 52.4391066 12.9 52.4391066 1.16881818 44.9478056 1.16881818"></polygon>
                <polygon id="Fill-32" fill="#9AC21C" points="54.8047806 48.0818182 57.9590125 48.0818182 57.9590125 44.9545455 54.8047806 44.9545455"></polygon>
            </g>
            <g id="Group-37" transform="translate(0.000000, 10.000000)">
                <path d="M192.829876,21.9475817 L174.371695,21.9475817 L174.371695,52.4650128 C174.371695,62.7696 168.088058,65.1436183 164.160785,65.1436183 C158.269876,65.1436183 155.128058,62.3732697 155.128058,54.8429945 L155.128058,21.5512514 L136.669876,21.5512514 L136.669876,56.4283156 C136.669876,71.4888661 141.382604,80.9968294 157.877149,80.9968294 C164.553513,80.9968294 171.622604,77.4338202 175.157149,71.4888661 L175.549876,71.4888661 L175.549876,79.4154716 L193.615331,79.4154716 L193.615331,21.9475817 L192.829876,21.9475817 Z" id="Fill-33" fill="#3169B0"></path>
                <path d="M39.27312,22.3423266 L48.3058473,50.0854459 L30.63312,50.0854459 L39.27312,22.3423266 Z M0.000392727273,79.4138862 L20.8149382,79.4138862 L25.9203927,65.1459963 L53.0185745,65.1459963 L57.7313018,79.4138862 L78.9385745,79.4138862 L49.8767564,0.544161468 L29.0622109,0.544161468 L0.000392727273,79.4138862 Z M80.1167564,79.4138862 L134.31312,79.4138862 L134.31312,65.1459963 L104.07312,65.1459963 L132.349484,36.6102165 L132.349484,22.3423266 L82.47312,22.3423266 L82.47312,36.6102165 L108.39312,36.6102165 L80.1167564,65.1459963 L80.1167564,79.4138862 Z M197.149484,79.4138862 L215.607665,79.4138862 L215.607665,0.544161468 L197.149484,0.544161468 L197.149484,79.4138862 Z" id="Fill-35" fill="#011E41"></path>
            </g>
        </g>
    </g>
</svg>