<?xml version="1.0" encoding="UTF-8"?>
<svg width="600px" height="250px" viewBox="0 0 600 250" version="1.1" xmlns="http://www.w3.org/2000/svg" xmlns:xlink="http://www.w3.org/1999/xlink">
    <!-- Generator: Sketch 50.1 (55044) - http://www.bohemiancoding.com/sketch -->
    <title>B3SA</title>
    <desc>Created with Sketch.</desc>
    <defs>
        <polygon id="path-1" points="0.275259294 0.625367647 29.109946 0.625367647 29.109946 38.5238051 0.275259294 38.5238051"></polygon>
        <polygon id="path-3" points="0.295839447 0.811507601 26.6645554 0.811507601 26.6645554 27.4882051 0.295839447 27.4882051"></polygon>
    </defs>
    <g id="B3SA" stroke="none" stroke-width="1" fill="none" fill-rule="evenodd">
        <g id="Grid-Logo" opacity="0.400000006"></g>
        <g transform="translate(110.000000, 32.000000)">
            <g id="Group-6" transform="translate(35.000000, 0.000000)">
                <path d="M74.6285878,89.0088174 C78.2606898,84.2559375 80.4429526,78.3441115 80.4429526,71.915864 C80.4429526,56.3481556 67.7786237,43.680815 52.2146168,43.680815 L0.617757499,43.680815 L0.617757499,82.6045895 L0.617757499,100.147911 L0.617757499,139.071685 L26.9309851,139.071685 L56.756245,139.071685 C72.3232537,139.071685 84.9845809,126.407347 84.9845809,110.839638 C84.9845809,102.051464 80.9472445,94.1910478 74.6285878,89.0088174 Z M24.0373105,61.2301409 L47.5829364,61.2301409 C53.4783481,61.2301409 58.2721223,66.0220527 58.2721223,71.915864 C58.2721223,77.8126777 53.4783481,82.6045895 47.5829364,82.6045895 L24.0373105,82.6045895 L24.0373105,61.2301409 Z M49.6961594,121.528364 L24.0373105,121.528364 L24.0373105,100.147911 L49.6961594,100.147911 C55.5885693,100.147911 60.3793417,104.945827 60.3793417,110.839638 C60.3793417,116.73345 55.5885693,121.528364 49.6961594,121.528364 Z" id="Fill-1" fill="#004384"></path>
                <g id="Group-5" transform="translate(132.076433, 0.000000)">
                    <mask id="mask-2" fill="white">
                        <use xlink:href="#path-1"></use>
                    </mask>
                    <g id="Clip-4"></g>
                    <path d="M29.109946,26.6641238 C29.109946,30.1289522 27.7891817,32.9722733 25.1356461,35.194087 C22.4821105,37.4098958 19.0781406,38.5238051 14.9297399,38.5238051 C11.0334851,38.5238051 7.73757776,37.4939645 5.05402478,35.4342831 C2.37947701,33.3866115 0.785554603,30.5883272 0.275259294,27.0424326 L10.7873427,27.0424326 C11.5798013,29.0901042 12.9846142,30.1289522 15.0408042,30.1289522 C16.3015338,30.1289522 17.3341313,29.7956801 18.1566073,29.129136 C18.9610728,28.4595895 19.3693091,27.5828738 19.3693091,26.5019914 C19.3693091,25.454136 18.9730798,24.6164522 18.1806212,23.982935 C17.3851609,23.3494179 16.2835233,23.0341605 14.8727069,23.0341605 L11.3096449,23.0341605 L11.3096449,15.6751532 L14.6055523,15.6751532 C15.9413253,15.6751532 17.006942,15.3779105 17.7994006,14.7804228 C18.5918592,14.1859375 18.9880885,13.3992953 18.9880885,12.4265012 C18.9880885,11.3426164 18.6218765,10.4749081 17.8804475,9.82637868 C17.1420202,9.17484681 16.13944,8.85058211 14.8727069,8.85058211 C13.6119773,8.85058211 12.576378,9.28293505 11.7629072,10.1536458 C11.2796276,10.6730699 10.9254226,11.366636 10.6732767,12.2013174 L0.644472959,12.2013174 C1.22080649,8.56234681 2.78170979,5.71902574 5.32418112,3.68036152 C7.86665246,1.6416973 11.0334851,0.623866422 14.8216774,0.623866422 C18.8259947,0.623866422 22.121902,1.70474877 24.6973925,3.87251838 C27.2758847,6.03728554 28.5696334,8.79653799 28.5696334,12.1532782 C28.5696334,15.2217831 27.3089038,17.5696998 24.7874446,19.1910233 C27.672114,20.8183517 29.109946,23.3043811 29.109946,26.6641238" id="Fill-3" fill="#004384" mask="url(#mask-2)"></path>
                </g>
            </g>
            <polygon id="Fill-7" fill="#004384" points="0 15 0 170 36 170 36 158.299739 11.668115 158.299739 11.668115 26.655329 36 26.655329 36 15"></polygon>
            <polygon id="Fill-8" fill="#004384" points="119 15 119 26.6583245 143.328877 26.6583245 143.328877 158.302735 119 158.302735 119 170 155 170 155 15"></polygon>
            <path d="M241.472542,125.810937 C243.136466,125.989412 244.471196,126.636766 245.48571,127.749971 C246.494239,128.863176 247,130.284933 247,132.021291 C247,134.087376 246.296723,135.766259 244.890169,137.060966 C243.483615,138.358697 241.577286,139 239.165195,139 L227,139 L227,113 L238.437977,113 C240.850067,113 242.723477,113.608028 244.082149,114.824084 C245.443813,116.04014 246.120156,117.658522 246.120156,119.676207 C246.120156,121.28249 245.668263,122.640721 244.773455,123.750902 C243.875655,124.864107 242.780338,125.520535 241.472542,125.729261 L241.472542,125.810937 Z M228.954212,125.069808 L238.862936,125.069808 C240.475984,125.069808 241.777794,124.582781 242.780338,123.596626 C243.779889,122.610471 244.273679,121.33089 244.273679,119.757882 C244.273679,118.23025 243.743977,117.005119 242.678587,116.08854 C241.619183,115.168935 240.152776,114.709133 238.285351,114.709133 L228.954212,114.709133 L228.954212,125.069808 Z M239.015562,137.296917 C240.829119,137.296917 242.289541,136.797789 243.390842,135.799535 C244.495137,134.804305 245.039802,133.506574 245.039802,131.900291 C245.039802,130.300058 244.483166,129.032577 243.375879,128.094823 C242.262607,127.169168 240.790214,126.703316 238.97965,126.703316 L228.954212,126.703316 L228.954212,137.296917 L239.015562,137.296917 Z" id="Fill-9" fill="#004384"></path>
            <path d="M272.940966,139 L269.807784,131.900291 L255.230897,131.900291 L252.062009,139 L250,139 L261.640086,113 L263.359914,113 L275,139 L272.940966,139 Z M262.523804,115.483537 L256.028327,130.115532 L269.01333,130.115532 L262.523804,115.483537 Z" id="Fill-11" fill="#004384"></path>
            <polygon id="Fill-12" fill="#004384" points="298 139 280 139 280 113 282.019873 113 282.019873 137.218266 298 137.218266"></polygon>
            <g id="Group-24" transform="translate(227.000000, 78.000000)">
                <path d="M90.0966792,58.9217311 C91.9059204,57.7379696 93.1930921,56.1335821 93.9671953,54.0995553 L95.8544469,54.5652483 C94.9813305,57.0078832 93.4661285,58.939758 91.3058404,60.3698861 C89.1545536,61.7940054 86.6432187,62.5090694 83.765835,62.5090694 C80.045339,62.5090694 76.9069205,61.2141425 74.3355776,58.6302975 C71.7702356,56.0494569 70.4860643,52.8947624 70.4860643,49.166214 C70.4860643,45.446679 71.7702356,42.28898 74.3355776,39.705135 C76.9069205,37.1242945 80.045339,35.8353765 83.765835,35.8353765 C86.6432187,35.8353765 89.1545536,36.5414271 91.3058404,37.9535285 C93.4661285,39.3686343 94.9813305,41.2704644 95.8544469,43.6560143 L94.0062005,44.2358772 C93.2651017,42.2078593 91.97793,40.5974629 90.1596876,39.4197103 C88.332444,38.2359487 86.2051603,37.6470724 83.765835,37.6470724 C80.5824106,37.6470724 77.8940521,38.7587267 75.7037601,40.9790307 C73.5074672,43.2023392 72.4093208,45.9334033 72.4093208,49.166214 C72.4093208,52.4080382 73.5074672,55.1421067 75.7037601,57.3624107 C77.8940521,59.5827148 80.5824106,60.6973735 83.765835,60.6973735 C86.1751563,60.6973735 88.287438,60.1054927 90.0966792,58.9217311" id="Fill-13" fill="#004384"></path>
                <path d="M120.985498,62.077327 L117.826077,55.0258337 L103.130117,55.0258337 L99.9286902,62.077327 L97.8494129,62.077327 L109.589978,36.2538993 L111.321209,36.2538993 L123.061775,62.077327 L120.985498,62.077327 Z M110.478097,38.7265788 L103.931224,53.2531958 L117.02497,53.2531958 L110.478097,38.7265788 Z M107.000633,30.7647308 C106.700593,31.110245 106.547573,31.5789425 106.547573,32.1678188 L105.128384,32.1678188 C105.128384,31.0651779 105.413422,30.2239261 105.974496,29.6440632 C106.541572,29.0672048 107.246666,28.7787756 108.092779,28.7787756 C108.860881,28.7787756 109.703994,29.1212852 110.613115,29.7972912 C111.525236,30.4823106 112.263335,30.8248203 112.82441,30.8248203 C113.310475,30.8248203 113.688525,30.6385431 113.961561,30.281011 C114.231597,29.9204745 114.363615,29.4337502 114.363615,28.8178337 L115.82781,28.8178337 C115.82781,29.9475148 115.548773,30.8007845 114.9997,31.3806474 C114.450627,31.9575058 113.754534,32.2489395 112.90542,32.2489395 C112.134318,32.2489395 111.294206,31.9124387 110.382084,31.2454462 C109.469962,30.5754492 108.743866,30.2419529 108.206794,30.2419529 C107.693726,30.2419529 107.291672,30.4162122 107.000633,30.7647308 Z" id="Fill-15" fill="#004384"></path>
                <g id="Group-19" transform="translate(123.996399, 35.020864)">
                    <mask id="mask-4" fill="white">
                        <use xlink:href="#path-3"></use>
                    </mask>
                    <g id="Clip-18"></g>
                    <path d="M22.8558476,4.68427064 C25.4001868,7.26811565 26.6663557,10.4258146 26.6663557,14.1453496 C26.6663557,17.9009383 25.4001868,21.0586373 22.8558476,23.6304644 C20.3175091,26.199287 17.1940926,27.4882051 13.4975998,27.4882051 C9.78310447,27.4882051 6.6506868,26.199287 4.10934794,23.6304644 C1.56800908,21.0586373 0.295839447,17.9009383 0.295839447,14.1453496 C0.295839447,10.4258146 1.57400988,7.26811565 4.13635154,4.68427064 C6.6806908,2.1034301 9.80710767,0.811507601 13.4975998,0.811507601 C17.1940926,0.811507601 20.3175091,2.1034301 22.8558476,4.68427064 M21.4876651,22.3625776 C23.6599548,20.1452781 24.7430992,17.4112095 24.7430992,14.1453496 C24.7430992,10.9125389 23.6599548,8.17847034 21.4876651,5.95816632 C19.3213763,3.7378623 16.6600214,2.62620805 13.4975998,2.62620805 C10.3171757,2.62620805 7.64681962,3.7378623 5.47452997,5.95816632 C3.30224032,8.17847034 2.22209629,10.9125389 2.22209629,14.1453496 C2.22209629,17.4112095 3.30224032,20.1452781 5.47452997,22.3625776 C7.64681962,24.5678593 10.3171757,25.6735046 13.4975998,25.6735046 C16.6600214,25.6735046 19.3213763,24.5678593 21.4876651,22.3625776" id="Fill-17" fill="#004384" mask="url(#mask-4)"></path>
                </g>
                <path d="M15.1775895,14.1262712 C16.6627876,14.303535 17.9049532,14.9404829 18.8920848,16.0341103 C19.8792165,17.1277377 20.3772829,18.5308256 20.3772829,20.255392 C20.3772829,22.3615261 19.6751892,24.0560477 18.2770028,25.3419613 C16.875816,26.6248703 14.9105539,27.2678271 12.3692151,27.2678271 L0.0105671808,27.2678271 L0.0105671808,1.4443994 L11.8681483,1.4443994 C14.2504659,1.4443994 16.1287164,2.06332042 17.490898,3.29815797 C18.8500792,4.52698659 19.5281696,6.17343666 19.5281696,8.22849478 C19.5281696,9.79682861 19.1021128,11.1127869 18.240998,12.1823785 C17.3798832,13.2459613 16.3597472,13.8558689 15.1775895,14.0090969 L15.1775895,14.1262712 Z M3.05297285,13.008608 L11.8321435,13.008608 C13.2633343,13.008608 14.4244891,12.5849776 15.3126075,11.7377168 C16.2037264,10.8874516 16.6417848,9.76978838 16.6417848,8.3817228 C16.6417848,7.07477794 16.185724,6.02621759 15.2736023,5.24205067 C14.3644811,4.45788376 13.1373175,4.06730253 11.6041131,4.06730253 L3.05297285,4.06730253 L3.05297285,13.008608 Z M12.1021795,24.6509329 C13.6893911,24.6509329 14.9585603,24.2242981 15.8886844,23.3740328 C16.8248092,22.5297765 17.295872,21.4000954 17.295872,19.987994 C17.295872,18.6239642 16.815808,17.5303368 15.8526796,16.7131207 C14.8895511,15.8868912 13.6503859,15.4722742 12.1351839,15.4722742 L3.05297285,15.4722742 L3.05297285,24.6509329 L12.1021795,24.6509329 Z" id="Fill-20" fill="#004384"></path>
                <path d="M46.1045133,4.83855022 C48.681857,7.43140864 49.9810302,10.6071344 49.9810302,14.3597186 C49.9810302,18.1092984 48.681857,21.2820197 46.1045133,23.8778826 C43.5301701,26.4737455 40.3767496,27.7716769 36.6592539,27.7716769 C32.9117542,27.7716769 29.7463321,26.4737455 27.1659881,23.8778826 C24.5886444,21.2820197 23.295472,18.1092984 23.295472,14.3597186 C23.295472,10.6071344 24.5886444,7.43140864 27.1659881,4.83855022 C29.7463321,2.24268733 32.9117542,0.944755887 36.6592539,0.944755887 C40.3767496,0.944755887 43.5301701,2.24268733 46.1045133,4.83855022 M43.9292233,21.8558736 C45.9094873,19.8398736 46.8996193,17.3371493 46.8996193,14.3597186 C46.8996193,11.4003148 45.9094873,8.9035994 43.9292233,6.86356364 C41.9579604,4.81751893 39.5336372,3.79599881 36.6592539,3.79599881 C33.757867,3.79599881 31.3215422,4.81751893 29.3442785,6.86356364 C27.3670149,8.9035994 26.3798832,11.4003148 26.3798832,14.3597186 C26.3798832,17.3371493 27.3670149,19.8398736 29.3442785,21.8558736 C31.3215422,23.8718736 33.757867,24.8783714 36.6592539,24.8783714 C39.5336372,24.8783714 41.9579604,23.8718736 43.9292233,21.8558736" id="Fill-22" fill="#004384"></path>
            </g>
            <polygon id="Fill-25" fill="#004384" points="300 105 282 105 282 79 285.070214 79 285.070214 102.207912 300 102.207912"></polygon>
            <path d="M317.332635,80.938291 C319.05863,82.2325008 320.14149,83.9651697 320.575232,86.1362975 L317.542028,86.8348079 C317.257852,85.2563557 316.518995,84.0044798 315.316482,83.0731325 C314.113969,82.1417852 312.627281,81.6761115 310.86539,81.6761115 C309.12743,81.6761115 307.718516,82.1115466 306.644631,82.9763691 C305.570745,83.8411916 305.032306,84.9721133 305.032306,86.3721581 C305.032306,87.4819129 305.358361,88.3437115 306.01047,88.9484825 C306.66557,89.5593012 307.628777,89.9917124 308.909064,90.2517639 L314.514807,91.5308545 C318.837272,92.4622018 321,94.7149737 321,98.2800986 C321,100.632658 320.126533,102.507448 318.388573,103.901445 C316.647622,105.30149 314.332336,106 311.442716,106 C308.65181,106 306.294646,105.304513 304.362249,103.925636 C302.429853,102.54071 301.314089,100.644753 301,98.2407884 L304.185761,97.5815881 C304.469937,99.395901 305.286569,100.792922 306.644631,101.790794 C308.002692,102.785642 309.686808,103.284578 311.708944,103.284578 C313.653305,103.284578 315.181873,102.840072 316.297637,101.945011 C317.407418,101.052973 317.966796,99.8797178 317.966796,98.437339 C317.966796,97.2459402 317.637751,96.3508792 316.985642,95.7612275 C316.333533,95.1655281 315.268621,94.6998544 313.781932,94.3581588 L307.987736,93.0820921 C303.86569,92.1477209 301.807658,89.9403069 301.807658,86.4477545 C301.807658,84.2252212 302.64822,82.4290514 304.320371,81.0562213 C305.998504,79.6864151 308.203111,79 310.943165,79 C313.473826,79 315.606641,79.6471049 317.332635,80.938291" id="Fill-26" fill="#004384"></path>
            <path d="M346.714617,105 L343.817697,98.4054683 L330.182303,98.4054683 L327.276349,105 L324,105 L335.590688,79 L338.406301,79 L350,105 L346.714617,105 Z M337.015057,82.8024433 L331.371786,95.646655 L342.622191,95.646655 L337.015057,82.8024433 Z" id="Fill-28" fill="#004384"></path>
            <g id="Group-33" transform="translate(227.000000, 44.000000)" fill="#00BCED">
                <path d="M16.2104779,13.3713 C17.5738358,13.5243 18.7411152,14.1393 19.7123162,15.2163 C20.6804534,16.2933 21.1675858,17.6943 21.1675858,19.4103 C21.1675858,21.5673 20.4537377,23.2863 19.0291054,24.5673 C17.5983456,25.8513 15.5333946,26.4963 12.8373162,26.4963 L0.021752451,26.4963 L0.021752451,0.7053 L12.5585172,0.7053 C14.9420956,0.7053 16.8446691,1.3413 18.2601103,2.6103 C19.6724877,3.8823 20.3771446,5.5713 20.3771446,7.6743 C20.3771446,9.1893 19.9543505,10.4433 19.1026348,11.4453 C18.2539828,12.4473 17.2889093,13.0353 16.2104779,13.2153 L16.2104779,13.3713 Z M4.22824755,11.8683 L12.0897672,11.8683 C13.3397672,11.8683 14.3599877,11.5023 15.1351103,10.7703 C15.9041054,10.0413 16.2901348,9.0843 16.2901348,7.9023 C16.2901348,6.8253 15.9041054,5.9463 15.1351103,5.2683 C14.3599877,4.5873 13.3550858,4.2483 12.1265319,4.2483 L4.22824755,4.2483 L4.22824755,11.8683 Z M12.4053309,22.9533 C13.7901348,22.9533 14.8746936,22.5933 15.6651348,21.8763 C16.4494485,21.1593 16.8446691,20.2053 16.8446691,19.0293 C16.8446691,17.8713 16.4463848,16.9443 15.6436887,16.2363 C14.8440564,15.5313 13.8054534,15.1803 12.515625,15.1803 L4.22824755,15.1803 L4.22824755,22.9533 L12.4053309,22.9533 Z" id="Fill-29"></path>
                <path d="M43.7239583,26.4963 L34.3336397,16.2213 L30.5193015,16.2213 L30.5193015,26.4963 L26.3128064,26.4963 L26.3128064,0.7083 L38.6933211,0.7083 C41.3893995,0.7083 43.5707721,1.4223 45.2374387,2.8443 C46.9041054,4.2663 47.7405025,6.1473 47.7405025,8.4813 C47.7405025,10.6893 46.9806985,12.4923 45.4702819,13.8903 C43.9659926,15.2883 41.9561887,16.0533 39.4439338,16.1793 L48.950674,26.4963 L43.7239583,26.4963 Z M38.6933211,12.4863 C40.1363358,12.4863 41.3005515,12.1203 42.1951593,11.3883 C43.0867034,10.6563 43.5309436,9.6873 43.5309436,8.4813 C43.5309436,7.2783 43.0867034,6.3033 42.1951593,5.5593 C41.3005515,4.8123 40.1363358,4.4403 38.6933211,4.4403 L30.5193015,4.4403 L30.5193015,12.4863 L38.6933211,12.4863 Z" id="Fill-31"></path>
            </g>
            <path d="M298.46339,71 L295.876271,64.9416007 L283.123729,64.9416007 L280.539661,71 L276,71 L287.547458,45 L291.458644,45 L303,71 L298.46339,71 Z M289.503051,50.0814332 L284.765085,61.1426245 L294.241017,61.1426245 L289.503051,50.0814332 Z" id="Fill-34" fill="#00BCED"></path>
            <path d="M321.124964,45.9722998 C322.952117,47.2871663 324.09562,49.0664582 324.570803,51.3131911 L320.361606,52.1606166 C320.122482,50.7944823 319.454161,49.6907182 318.353577,48.85234 C317.252993,48.0169775 315.91635,47.5947727 314.34365,47.5947727 C312.795474,47.5947727 311.553869,47.9626941 310.603504,48.6985368 C309.662336,49.4343795 309.190219,50.3813247 309.190219,51.542388 C309.190219,52.4471127 309.46,53.1558137 309.996496,53.668491 C310.529927,54.1871998 311.38219,54.5581369 312.531825,54.7933654 L318.240146,55.9936334 C322.746715,56.9737518 325,59.3320675 325,63.0746119 C325,65.4962582 324.074161,67.4233218 322.225547,68.8558025 C320.376934,70.2852675 317.936642,71 314.895474,71 C311.983066,71 309.518248,70.327488 307.494891,68.970401 C305.477664,67.6163297 304.312701,65.7284709 304,63.3038088 L308.485109,62.3779739 C308.79781,64.0004468 309.555036,65.2338881 310.76292,66.0692505 C311.970803,66.9076287 313.476058,67.3268178 315.287883,67.3268178 C317.016934,67.3268178 318.378102,66.9619122 319.356058,66.2260695 C320.343212,65.4932425 320.833723,64.5161398 320.833723,63.3038088 C320.833723,62.3236904 320.551679,61.5757847 319.984526,61.0600916 C319.420438,60.5443985 318.470073,60.1433039 317.139562,59.8598235 L311.394453,58.7017759 C306.96146,57.6945158 304.748029,55.3482632 304.748029,51.6600022 C304.748029,49.3620016 305.630949,47.5133475 307.399854,46.1049927 C309.168759,44.6996537 311.514015,44 314.423358,44 C317.069051,44 319.303942,44.6544175 321.124964,45.9722998" id="Fill-35" fill="#00BCED"></path>
            <polygon id="Fill-37" fill="#00BCED" points="330 71 334 71 334 45 330 45"></polygon>
            <polygon id="Fill-38" fill="#00BCED" points="360 71 341 71 341 45 345.302241 45 345.302241 67.234295 360 67.234295"></polygon>
        </g>
    </g>
</svg>