<?xml version="1.0" encoding="UTF-8"?>
<svg width="600px" height="250px" viewBox="0 0 600 250" version="1.1" xmlns="http://www.w3.org/2000/svg" xmlns:xlink="http://www.w3.org/1999/xlink">
    <!-- Generator: Sketch 50.1 (55044) - http://www.bohemiancoding.com/sketch -->
    <title>BBAS</title>
    <desc>Created with Sketch.</desc>
    <defs></defs>
    <g id="BBAS" stroke="none" stroke-width="1" fill="none" fill-rule="evenodd">
        <g id="Grid-Logo" opacity="0.400000006"></g>
        <g id="Group-22" transform="translate(25.000000, 74.000000)">
            <polygon id="Fill-1" fill="#FFF101" points="0 102 550 102 550 0 0 0"></polygon>
            <g id="Group-13" transform="translate(27.000000, 10.000000)" fill="#005795">
                <path d="M0,61.9816822 L7.51656574,56.9817556 L15.0299013,61.9816822 L0,71.9783118 L0,61.9816822 Z M72.1325438,9.99662956 L64.6192083,14.9933325 L57.1058727,9.99662956 L72.1325438,0 L72.1325438,9.99662956 Z M72.1325438,47.9844666 L36.067887,71.9783118 L0,47.9844666 L42.828597,19.4935888 L50.3419326,24.4902918 L15.7792968,47.4847963 L36.8172825,61.4820119 L46.5852648,54.9830744 L39.0719292,49.9863715 L57.1058727,37.9878371 L72.1325438,47.9844666 Z M0,23.9938452 L36.067887,0 L72.1325438,23.9938452 L29.3039469,52.484723 L21.7906113,47.4847963 L56.3532471,24.4902918 L35.3152614,10.4962999 L25.5472791,16.9952374 L33.0606147,21.9919403 L15.0299013,33.9904747 L0,23.9938452 Z" id="Fill-2"></path>
                <path d="M100.167469,64.8909145 C104.819522,64.8909145 116.426642,64.4651542 116.426642,53.6833508 C116.426642,47.9170381 114.394466,43.8608328 106.586169,42.9545466 L106.586169,42.8467815 C112.576484,41.9387286 115.571641,38.4178152 115.571641,33.5083229 C115.571641,24.4878595 108.618344,22.5657552 100.27545,22.5657552 L80.7538219,22.5657552 L80.7538219,64.8909145 L100.167469,64.8909145 Z M91.7165934,39.9141593 L91.7165934,29.0793566 L98.5088031,29.0793566 C102.197874,29.0793566 104.819522,31.3742219 104.819522,34.469375 C104.819522,38.5785795 101.50396,39.8611601 99.0982755,39.8611601 L95.2481176,39.8611601 L91.7165934,39.9141593 Z M95.2481176,46.3712282 L98.1352935,46.3712282 C103.698993,46.3712282 105.408994,48.6678601 105.408994,52.4025369 C105.408994,58.3278472 100.167469,58.3808464 97.8679952,58.3808464 L91.7183636,58.3808464 L91.7183636,46.4242274 L95.2481176,46.3712282 Z M160.707883,64.9456803 L160.707883,39.5926308 L160.814095,39.5926308 L172.419444,64.9456803 L184.0779,64.9456803 L184.0779,30.2524055 L176.591776,30.2524055 L176.591776,54.2716419 L176.430689,54.2716419 L165.145744,30.2524055 L153.21999,30.2524055 L153.21999,64.9456803 L160.707883,64.9456803 Z M202.58344,65.9067324 C211.085651,65.9067324 215.79258,62.8645785 215.79258,53.4183548 L206.754002,53.4183548 C206.592915,56.2467453 206.807108,60.6227124 202.58344,60.6227124 C197.449896,60.6227124 196.754213,56.7272714 196.754213,47.6538087 C196.754213,38.5785795 197.449896,34.6831384 202.58344,34.6831384 C205.256423,34.6831384 206.327387,36.4444784 206.327387,41.1402074 L215.312859,41.1402074 C215.686369,33.5613221 211.889316,29.3991184 202.58521,29.3991184 C187.450069,29.3991184 187.450107,38.3135835 187.450107,47.6538087 C187.448337,56.9392682 187.448337,65.9067324 202.58344,65.9067324 Z M124.928852,64.9456803 L127.389413,57.25903 L139.690446,57.25903 L142.043026,64.9456803 L151.509989,64.9456803 L139.851534,30.2524055 L127.977115,30.2524055 L116.051362,64.9456803 L124.928852,64.9456803 Z M137.764482,51.9237774 L129.15429,51.9237774 L133.271746,36.9250045 L133.432833,36.9250045 L137.764482,51.9237774 Z M233.227157,60.6209458 C228.038737,60.6209458 227.397929,56.7255047 227.397929,47.6520421 C227.397929,38.5768128 228.038737,34.6813718 233.227157,34.6813718 C238.360701,34.6813718 239.056385,38.5768128 239.056385,47.6520421 C239.056385,56.7255047 238.360701,60.6209458 233.227157,60.6209458 Z M233.227157,65.9067324 C248.362261,65.9067324 248.362261,56.9410348 248.362261,47.6538087 C248.362261,38.3135835 248.362261,29.3991184 233.227157,29.3991184 C218.092053,29.3991184 218.092053,38.3135835 218.092053,47.6538087 C218.092053,56.9392682 218.092053,65.9067324 233.227157,65.9067324 Z M469.612693,64.9456803 L469.612693,30.2524055 L460.627221,30.2524055 L460.627221,64.9456803 L469.612693,64.9456803 Z M497.314358,64.9456803 L497.314358,59.6598937 L484.854008,59.6598937 L484.854008,30.2524055 L475.868536,30.2524055 L475.868536,64.9456803 L497.314358,64.9456803 Z M352.436898,64.8909145 C357.088951,64.8909145 368.696071,64.4651542 368.696071,53.73635 C368.696071,47.9188047 366.663895,43.8625995 358.853828,42.9545466 L358.853828,42.8467815 C364.844142,41.9387286 367.786194,38.4178152 367.786194,33.5083229 C367.786194,24.4878595 360.887773,22.5657552 352.543109,22.5657552 L333.023251,22.5657552 L333.023251,64.8909145 L352.436898,64.8909145 Z M343.984252,39.9671584 L343.984252,29.1305892 L350.778232,29.1305892 C354.467303,29.1305892 357.087181,31.4272211 357.087181,34.5223742 C357.087181,38.6315787 353.771619,39.9141593 351.365934,39.9141593 L347.515776,39.9141593 L343.984252,39.9671584 Z M347.515776,46.4242274 L350.402952,46.4242274 C355.966652,46.4242274 357.674883,48.7190926 357.674883,52.4555361 C357.674883,58.3808464 352.435128,58.4868447 350.133884,58.4868447 L343.982482,58.4868447 L343.982482,46.5302258 L347.515776,46.4242274 Z M268.73712,35.5364255 L273.390943,35.5364255 C279.701661,35.5364255 279.701661,41.1402074 279.701661,47.5460437 C279.701661,56.2997445 278.632468,59.6086611 273.123644,59.6086611 L268.73712,59.6086611 L268.73712,35.5364255 Z M259.647206,64.8909145 L274.461906,64.8909145 C289.917414,64.8909145 288.903096,52.6692995 288.903096,47.3322803 C288.903096,36.4974776 286.709834,30.1446405 274.78231,30.1446405 L259.647206,30.1446405 L259.647206,64.8909145 Z M307.137798,60.6757116 C301.949378,60.6757116 301.255465,56.7802706 301.255465,47.7598071 C301.255465,38.7393437 301.951149,34.842136 307.137798,34.842136 C312.271342,34.842136 312.967026,38.7375771 312.967026,47.7598071 C312.967026,56.7802706 312.271342,60.6757116 307.137798,60.6757116 Z M307.137798,65.9067324 C322.272902,65.9067324 322.272902,56.9410348 322.272902,47.7615738 C322.272902,38.4213485 322.272902,29.5598827 307.137798,29.5598827 C292.002695,29.5598827 292.002695,38.4213485 292.002695,47.7615738 C292.002695,56.9392682 292.002695,65.9067324 307.137798,65.9067324 Z M420.088156,52.2417726 L411.477964,52.2417726 L415.59542,37.2977655 L415.703401,37.2977655 L420.088156,52.2417726 Z M444.263607,64.9456803 C450.788519,64.9456803 457.364765,64.1453924 457.364765,55.1796948 C457.364765,44.291893 440.197486,45.8394695 440.197486,39.272869 C440.197486,36.8720053 441.801276,35.5911914 444.584011,35.5911914 L456.244237,35.5911914 L456.244237,30.2541722 L443.567924,30.2541722 C433.139749,30.2541722 430.572977,34.4163758 430.572977,39.8611601 C430.572977,50.1624374 447.793361,49.5211471 447.793361,55.7662193 C447.793361,58.1140837 446.350658,59.6616603 443.463483,59.6616603 L432.070555,59.6616603 L422.176977,30.2541722 L410.304329,30.2541722 L399.768173,60.8912417 L393.296367,48.2420998 C398.32547,47.441812 400.355875,44.5586556 400.355875,39.3294014 C400.408981,33.4570903 396.452612,30.2541722 390.30121,30.2541722 L372.27716,30.2541722 L372.27716,64.9474469 L381.315738,64.9474469 L381.315738,35.592958 L386.663474,35.592958 C389.499315,35.592958 391.370403,37.462063 391.370403,40.876978 C391.370403,43.7583677 389.658632,46.1062322 386.930773,45.9984671 L383.239932,45.9984671 L392.921087,64.9474469 L407.254296,64.9474469 L409.714857,57.2607966 L421.962784,57.2607966 L424.368469,64.9474469 L444.263607,64.9474469 L444.263607,64.9456803 Z" id="Shape" fill-rule="nonzero"></path>
            </g>
        </g>
    </g>
</svg>