<?xml version="1.0" encoding="UTF-8"?>
<svg width="600px" height="250px" viewBox="0 0 600 250" version="1.1" xmlns="http://www.w3.org/2000/svg" xmlns:xlink="http://www.w3.org/1999/xlink">
    <!-- Generator: Sketch 50.1 (55044) - http://www.bohemiancoding.com/sketch -->
    <title>BBDC</title>
    <desc>Created with Sketch.</desc>
    <defs></defs>
    <g id="BBDC" stroke="none" stroke-width="1" fill="none" fill-rule="evenodd">
        <g id="Grid-Logo" opacity="0.400000006"></g>
        <g transform="translate(74.000000, 65.000000)" fill-rule="nonzero">
            <path d="M404.850374,75.2397661 C404.690773,74.8499025 404.610973,74.5380117 404.531172,74.5380117 C404.371571,74.6159844 404.13217,74.6939571 403.972569,74.7719298 C402.935162,75.3177388 401.01995,76.0974659 398.466334,76.0974659 C393.438903,76.0974659 389.049875,72.3547758 389.049875,66.2729045 C389.049875,59.6452242 392.720698,56.0584795 397.74813,56.1364522 C400.541147,56.1364522 402.456359,56.8382066 404.291771,58.0077973 C405.169576,54.9668616 406.605985,52.0818713 408.441397,49.7426901 C407.723192,49.1968811 406.526185,48.4951267 404.850374,47.7153996 C402.376559,46.6237817 399.583541,46 396.551122,46 C385.458853,46 377,53.3294347 377,66.0389864 C377,78.6705653 385.458853,86 396.551122,86 C401.897756,86 406.047382,84.2846004 406.047382,84.2846004 C406.925187,83.9727096 408.361596,83.2709552 409,83.037037 C406.526185,79.6842105 405.329177,76.4873294 404.850374,75.2397661" id="Shape" fill="#575756"></path>
            <path d="M147,33 L169.025478,33 C177.496815,33 183.789809,37.3628049 183.789809,46.4115854 C183.789809,53.117378 180.88535,56.8338415 175.802548,58.7728659 L175.802548,58.9344512 C181.853503,60.3887195 185,64.1859756 185,70.6493902 C185,83.3338415 175.399151,86 167.250531,86 L147,86 L147,33 Z M159.101911,75.9817073 L163.781316,75.9817073 C168.218684,75.9817073 172.81741,75.2545732 172.81741,69.8414634 C172.81741,64.1051829 168.057325,63.5396341 163.861996,63.5396341 L159.101911,63.5396341 L159.101911,75.9817073 Z M159.101911,54.0060976 L163.539278,54.0060976 C167.492569,54.0060976 171.607219,52.875 171.607219,48.3506098 C171.607219,43.5030488 167.734607,43.0182927 163.619958,43.0182927 L159.101911,43.0182927 L159.101911,54.0060976 Z" id="Shape" fill="#575756"></path>
            <path d="M297,87.0956652 L285.951374,87.0956652 L285.951374,81.0119581 L285.786469,81.0119581 C283.477801,85.45142 278.942918,88 273.830867,88 C263.524313,88 258,78.1345291 258,66.2137519 C258,56.348281 263.276956,45.9073244 272.841438,45.9073244 C277.623679,45.9073244 281.663848,47.387145 284.79704,51.9910314 L284.961945,51.9910314 L284.961945,33 L297,33 L297,87.0956652 Z M277.623679,77.3946188 C281.581395,77.3946188 284.961945,72.955157 284.961945,67.1180867 C284.961945,61.0343797 281.993658,56.5949178 277.623679,56.5949178 C272.92389,56.5949178 270.367865,61.1988042 270.367865,66.5426009 C270.367865,72.955157 273.088795,77.3946188 277.623679,77.3946188 Z" id="Shape" fill="#575756"></path>
            <path d="M412,66.0389864 C412,53.3294347 420.436735,46 431.5,46 C442.563265,46 451,53.3294347 451,66.0389864 C451,78.6705653 442.563265,86 431.5,86 C420.436735,85.9220273 412,78.5925926 412,66.0389864 M438.981633,66.0389864 C438.981633,60.3469786 436.753061,55.2787524 431.420408,55.2787524 C426.087755,55.2787524 423.938776,60.3469786 423.938776,66.0389864 C423.938776,71.6530214 426.087755,76.7212476 431.420408,76.7212476 C436.832653,76.7212476 438.981633,71.6530214 438.981633,66.0389864" id="Shape" fill="#575756"></path>
            <path d="M253,85.140625 C252.525581,82.09375 252.367442,79.125 252.367442,76.078125 L252.367442,61.859375 C252.367442,50.21875 245.013953,46 236.553488,46 C231.730233,46 227.460465,46.78125 223.427907,48.65625 L223.427907,57.640625 L223.427907,57.71875 C226.590698,55.6875 230.306977,54.828125 234.023256,54.828125 C238.134884,54.828125 241.534884,56.234375 241.613953,61.46875 C240.111628,61.15625 238.134884,60.921875 236.237209,60.921875 C230.069767,60.921875 219,62.328125 219,73.96875 C219,82.25 224.851163,86 231.493023,86 C235.84186,86 239.637209,83.96875 241.693023,80.0625 L241.693023,85.140625 L253,85.140625 Z M241.772093,73.03125 C240.269767,75.609375 237.739535,77.015625 234.576744,77.015625 C231.888372,77.015625 229.832558,75.453125 229.832558,72.796875 C229.832558,69.125 232.916279,67.71875 236.790698,67.71875 C238.530233,67.71875 240.269767,67.875 241.693023,67.953125 L241.693023,73.03125 L241.772093,73.03125 Z" id="Shape" fill="#575756"></path>
            <path d="M212.730897,46 C207.707641,46 204.837209,49.1936128 202.76412,54.0638723 L202.604651,54.0638723 L202.604651,46.8782435 L192,46.8782435 L192,86 L203.641196,86 L203.641196,69.4730539 C203.641196,61.8083832 206.671096,57.257485 212.013289,56.8582834 C213.129568,56.7784431 214.963455,57.0978044 216,57.497006 L216,46.6387226 C215.122924,46.239521 213.767442,46 212.730897,46" id="Shape" fill="#575756"></path>
            <path d="M338,67.4424951 C338,56.0584795 333.525114,46 321.059361,46 C310.591324,46 303,53.3294347 303,65.9610136 C303,78.5925926 311.47032,86 322.577626,86 C326.892694,86 331.207763,85.2202729 334.883562,83.582846 L334.883562,74.3040936 C331.36758,76.4093567 327.771689,77.2670565 324.655251,77.2670565 C318.981735,77.2670565 315.385845,75.2397661 314.746575,69.9376218 L338,69.9376218 L338,67.4424951 Z M314.586758,62.374269 C314.826484,58.0077973 316.824201,54.4210526 321.059361,54.4210526 C325.694064,54.4210526 327.531963,58.0077973 327.531963,62.374269 L314.586758,62.374269 Z" id="Shape" fill="#575756"></path>
            <path d="M359.255682,46 C352.096591,46 344,49.59375 344,58.421875 C344,72.25 361.642045,67.640625 361.642045,74.125 C361.642045,76.78125 359.170455,77.171875 356.613636,77.171875 C352.096591,77.171875 347.835227,75.84375 344.9375,74.515625 L344.9375,83.65625 C348.176136,84.90625 352.011364,86 357.295455,86 C365.392045,86 374,83.421875 374,73.1875 C374,58.65625 355.505682,63.34375 355.505682,57.40625 C355.505682,55.296875 358.573864,54.671875 361.215909,54.75 C364.028409,54.828125 368.460227,55.921875 371.102273,57.640625 L371.102273,48.265625 C367.352273,46.78125 363.176136,46 359.255682,46" id="Shape" fill="#575756"></path>
            <g id="Group">
                <path d="M119.355705,118.839189 L20.4563758,118.839189 C20.4563758,118.839189 0.483221477,118.839189 0.483221477,98.8986486 L0.483221477,0.160810811 L99.3825503,0.160810811 C99.3825503,0.160810811 119.355705,0.160810811 119.355705,20.1013514 L119.355705,118.839189 Z" id="Shape" fill="#DC0332"></path>
                <polygon id="Shape" fill="#FFFFFF" points="54.5234899 102.19527 48.6442953 102.19527 48.6442953 72.2040541 54.5234899 72.2040541"></polygon>
                <polygon id="Shape" fill="#FFFFFF" points="69.4228188 102.19527 59.8389262 102.19527 59.8389262 61.0277027 69.4228188 61.0277027"></polygon>
                <path d="M43.409396,32.4033784 C43.409396,32.4033784 53.0738255,22.9959459 69.3422819,26.0513514 C69.3422819,26.0513514 76.5100671,27.177027 81.9865772,32.0013514 C81.9865772,32.0013514 82.7919463,32.8054054 83.4362416,32.1621622 C83.4362416,32.1621622 84.2416107,31.5189189 83.3557047,30.6344595 C83.3557047,30.6344595 78.6040268,24.1216216 69.3422819,21.227027 C69.3422819,21.227027 56.5369128,16.6439189 43.409396,22.8351351 C43.409396,22.8351351 35.2751678,26.2121622 30.8456376,35.297973 C30.8456376,35.297973 24.4832215,37.3885135 19.6510067,40.0418919 C19.6510067,40.0418919 18.2013423,40.6047297 18.7651007,41.7304054 C18.7651007,41.7304054 19.2483221,42.5344595 20.4563758,41.9716216 C20.4563758,41.9716216 24.885906,40.4439189 29.2348993,39.4790541 C29.2348993,39.4790541 25.7718121,48.4040541 29.3959732,59.5 C31.0067114,64.4047297 33.9060403,69.4702703 38.4161074,73.4905405 C38.4161074,73.4905405 39.1409396,74.2141892 39.9463087,73.7317568 C39.9463087,73.7317568 40.6711409,73.2493243 40.1879195,72.4452703 C40.1879195,72.4452703 36.6442953,67.0581081 35.1946309,59.4195946 C34.0671141,53.2283784 34.5503356,44.625 38.8993289,37.7905405 C38.8993289,37.7905405 55.409396,35.4587838 69.4228188,40.7655405 C69.4228188,40.7655405 93.261745,48.5648649 87.3020134,62.9574324 C87.3020134,62.9574324 85.5302013,67.9425676 79.0067114,72.5256757 C79.0067114,72.5256757 77.8791946,73.1689189 78.5234899,74.0533784 C78.5234899,74.0533784 79.0067114,74.777027 80.1342282,74.2945946 C80.1342282,74.2945946 90.2013423,70.997973 94.5503356,62.9574324 C94.5503356,62.9574324 103.409396,49.4493243 82.5503356,38.4337838 C82.5503356,38.4337838 76.8322148,35.3783784 69.5033557,33.7702703 C69.3422819,33.7702703 56.0536913,30.5540541 43.409396,32.4033784" id="Shape" fill="#FFFFFF"></path>
            </g>
        </g>
    </g>
</svg>