<?xml version="1.0" encoding="UTF-8"?>
<svg width="600px" height="250px" viewBox="0 0 600 250" version="1.1" xmlns="http://www.w3.org/2000/svg" xmlns:xlink="http://www.w3.org/1999/xlink">
    <!-- Generator: Sketch 50.1 (55044) - http://www.bohemiancoding.com/sketch -->
    <title>BBSE</title>
    <desc>Created with Sketch.</desc>
    <defs></defs>
    <g id="BBSE" stroke="none" stroke-width="1" fill="none" fill-rule="evenodd">
        <g id="Grid-Logo" opacity="0.400000006"></g>
        <g id="Group-19" transform="translate(25.000000, 48.000000)">
            <polygon id="Fill-1-Copy" fill="#FFF101" points="0 155 551 155 551 0 0 0"></polygon>
            <g id="Group-16" transform="translate(1.000000, 13.000000)">
                <g id="Group-13-Copy" transform="translate(24.008112, 0.944089)" fill="#005795">
                    <path d="M0,60.5066861 L7.35090494,55.6257442 L14.6986509,60.5066861 L0,70.265423 L0,60.5066861 Z M70.5427839,9.75873686 L63.195038,14.6365318 L55.847292,9.75873686 L70.5427839,0 L70.5427839,9.75873686 Z M70.5427839,46.8425663 L35.2729714,70.265423 L0,46.8425663 L41.8846792,19.0296942 L49.2324252,23.9074892 L15.4315301,46.3547868 L36.0058507,60.0189066 L45.5585522,53.6746262 L38.2108063,48.7968313 L55.847292,37.0838295 L70.5427839,46.8425663 Z M0,23.4228566 L35.2729714,0 L70.5427839,23.4228566 L28.6581047,51.2357287 L21.3103587,46.3547868 L55.1112538,23.9074892 L34.5369333,10.2465164 L24.9842317,16.5907968 L32.3319777,21.4685917 L14.6986509,33.1815935 L0,23.4228566 Z" id="Fill-2"></path>
                    <path d="M103.014175,54.5351859 C107.563699,54.5351859 118.915005,54.1195577 118.915005,43.5943319 C118.915005,37.9652419 116.927617,34.0055633 109.29141,33.1208442 L109.29141,33.0156436 C115.149702,32.1291999 118.078848,28.6920748 118.078848,23.899415 C118.078848,15.0936142 111.278798,13.2172508 103.119776,13.2172508 L84.0283934,13.2172508 L84.0283934,54.5351859 L103.014175,54.5351859 Z M94.7495517,30.1528098 L94.7495517,19.5758462 L101.392065,19.5758462 C104.999831,19.5758462 107.563699,21.8160998 107.563699,24.8375967 C107.563699,28.8490132 104.321211,30.1010719 101.968546,30.1010719 L98.2032431,30.1010719 L94.7495517,30.1528098 Z M98.2032431,36.456218 L101.026787,36.456218 C106.467866,36.456218 108.14018,38.6981963 108.14018,42.3439979 C108.14018,48.1283019 103.014175,48.1800398 100.76538,48.1800398 L94.7512829,48.1800398 L94.7512829,36.507956 L98.2032431,36.456218 Z M162.220313,54.5886485 L162.220313,29.8389329 L162.324184,29.8389329 L173.673758,54.5886485 L185.075268,54.5886485 L185.075268,20.7209797 L177.754134,20.7209797 L177.754134,44.1686233 L177.596597,44.1686233 L166.560366,20.7209797 L154.897449,20.7209797 L154.897449,54.5886485 L162.220313,54.5886485 Z M203.172957,55.5268302 C211.487784,55.5268302 216.090975,52.5570713 216.090975,43.3356421 L207.251602,43.3356421 C207.094065,46.0967246 207.303537,50.3685555 203.172957,50.3685555 C198.152553,50.3685555 197.472202,46.5658155 197.472202,37.7082766 C197.472202,28.8490132 198.152553,25.0462732 203.172957,25.0462732 C205.787029,25.0462732 206.834389,26.765698 206.834389,31.3496813 L215.621826,31.3496813 C215.987104,23.951153 212.273737,19.8879985 203.174688,19.8879985 C188.373117,19.8879985 188.373153,28.5903234 188.373153,37.7082766 C188.371422,46.7727673 188.371422,55.5268302 203.172957,55.5268302 Z M127.229832,54.5886485 L129.636163,47.0849197 L141.666089,47.0849197 L143.966818,54.5886485 L153.225135,54.5886485 L141.823625,20.7209797 L130.210913,20.7209797 L118.547996,54.5886485 L127.229832,54.5886485 Z M139.782572,41.8766317 L131.362143,41.8766317 L135.388853,27.2347889 L135.54639,27.2347889 L139.782572,41.8766317 Z M233.141304,50.3668309 C228.067234,50.3668309 227.440549,46.5640909 227.440549,37.7065521 C227.440549,28.8472886 228.067234,25.0445486 233.141304,25.0445486 C238.161707,25.0445486 238.842059,28.8472886 238.842059,37.7065521 C238.842059,46.5640909 238.161707,50.3668309 233.141304,50.3668309 Z M233.141304,55.5268302 C247.942838,55.5268302 247.942838,46.7744919 247.942838,37.7082766 C247.942838,28.5903234 247.942838,19.8879985 233.141304,19.8879985 C218.339769,19.8879985 218.339769,28.5903234 218.339769,37.7082766 C218.339769,46.7727673 218.339769,55.5268302 233.141304,55.5268302 Z M464.317038,54.5886485 L464.317038,20.7209797 L455.529601,20.7209797 L455.529601,54.5886485 L464.317038,54.5886485 Z M491.408174,54.5886485 L491.408174,49.4286493 L479.222443,49.4286493 L479.222443,20.7209797 L470.435006,20.7209797 L470.435006,54.5886485 L491.408174,54.5886485 Z M349.72373,54.5351859 C354.273254,54.5351859 365.62456,54.1195577 365.62456,43.6460699 C365.62456,37.9669665 363.637173,34.0072879 355.999235,33.1208442 L355.999235,33.0156436 C361.857526,32.1291999 364.734737,28.6920748 364.734737,23.899415 C364.734737,15.0936142 357.988353,13.2172508 349.827601,13.2172508 L330.737949,13.2172508 L330.737949,54.5351859 L349.72373,54.5351859 Z M341.457376,30.2045478 L341.457376,19.6258595 L348.10162,19.6258595 C351.709386,19.6258595 354.271523,21.8678378 354.271523,24.8893347 C354.271523,28.9007512 351.029035,30.1528098 348.67637,30.1528098 L344.911067,30.1528098 L341.457376,30.2045478 Z M344.911067,36.507956 L347.734612,36.507956 C353.17569,36.507956 354.846273,38.7482097 354.846273,42.3957359 C354.846273,48.1800398 349.721999,48.2835157 347.471473,48.2835157 L341.455645,48.2835157 L341.455645,36.6114319 L344.911067,36.507956 Z M267.868647,25.8792543 L272.419902,25.8792543 C278.591536,25.8792543 278.591536,31.3496813 278.591536,37.6030761 C278.591536,46.1484626 277.545908,49.3786359 272.158495,49.3786359 L267.868647,49.3786359 L267.868647,25.8792543 Z M258.97907,54.5351859 L273.467262,54.5351859 C288.58214,54.5351859 287.590177,42.6044123 287.590177,37.3943997 C287.590177,26.817436 285.445253,20.6157792 273.780605,20.6157792 L258.97907,20.6157792 L258.97907,54.5351859 Z M305.422997,50.4202935 C300.348927,50.4202935 299.670307,46.6175534 299.670307,37.8117526 C299.670307,29.0059517 300.350658,25.201487 305.422997,25.201487 C310.4434,25.201487 311.123752,29.0042271 311.123752,37.8117526 C311.123752,46.6175534 310.4434,50.4202935 305.422997,50.4202935 Z M305.422997,55.5268302 C320.224531,55.5268302 320.224531,46.7744919 320.224531,37.8134772 C320.224531,28.695524 320.224531,20.044937 305.422997,20.044937 C290.621462,20.044937 290.621462,28.695524 290.621462,37.8134772 C290.621462,46.7727673 290.621462,55.5268302 305.422997,55.5268302 Z M415.883993,42.1870594 L407.463565,42.1870594 L411.490274,27.5986792 L411.595876,27.5986792 L415.883993,42.1870594 Z M439.526632,54.5886485 C445.907738,54.5886485 452.339048,53.8074053 452.339048,45.055067 C452.339048,34.4263654 435.550126,35.9371138 435.550126,29.5267805 C435.550126,27.1830509 437.118569,25.9327169 439.839974,25.9327169 L451.243215,25.9327169 L451.243215,20.7227043 L438.84628,20.7227043 C428.647936,20.7227043 426.137735,24.7858588 426.137735,30.1010719 C426.137735,40.1572068 442.978592,39.5311775 442.978592,45.6276338 C442.978592,47.9196254 441.567685,49.4303739 438.744141,49.4303739 L427.602308,49.4303739 L417.926778,20.7227043 L406.315796,20.7227043 L396.011851,50.6306945 L389.68268,38.282568 C394.600944,37.5013248 396.586601,34.6867798 396.586601,29.5819677 C396.638536,23.8494017 392.769363,20.7227043 386.753534,20.7227043 L369.126724,20.7227043 L369.126724,54.5903731 L377.966097,54.5903731 L377.966097,25.9344415 L383.195972,25.9344415 C385.969313,25.9344415 387.799163,27.7590669 387.799163,31.0927161 C387.799163,33.9055366 386.125118,36.1975282 383.45738,36.0923277 L379.847883,36.0923277 L389.315671,54.5903731 L403.332984,54.5903731 L405.739316,47.0866443 L417.717306,47.0866443 L420.069971,54.5903731 L439.526632,54.5903731 L439.526632,54.5886485 Z" id="Shape" fill-rule="nonzero"></path>
                </g>
                <g id="Group" transform="translate(108.668298, 101.961649)" fill="#005A9F" fill-rule="nonzero">
                    <path d="M0.552089386,17.0359712 L5.24484917,16.4913043 C5.52089386,18.125305 6.07298325,19.2146389 6.90111733,19.7593058 C7.72925141,20.3039728 8.83343018,20.8486397 10.4896983,20.8486397 C12.1459665,20.8486397 13.2501453,20.5763062 14.0782793,19.7593058 C14.9064134,18.9423054 15.1824581,18.3976385 15.1824581,17.5806381 C15.1824581,17.0359712 14.9064134,16.4913043 14.6303687,16.2189708 C14.354324,15.9466373 13.8022347,15.4019704 12.9741006,15.1296369 C12.4220112,14.8573035 11.0417877,14.58497 9.10947487,14.0403031 C6.62507264,13.4956361 4.69275978,12.6786358 3.58858101,11.8616354 C2.20835755,10.499968 1.38022347,9.13830071 1.38022347,7.23196646 C1.38022347,6.1426326 1.65626816,5.05329874 2.48440224,3.96396488 C3.31253632,2.87463102 4.1406704,2.05763062 5.52089386,1.51296369 C6.90111733,0.968296764 8.28134079,0.695963299 10.2136536,0.695963299 C13.2501453,0.695963299 15.4585028,1.24063023 16.8387263,2.60229755 C18.2189497,3.96396488 19.0470838,5.59796567 19.3231285,7.77663339 L14.6303687,8.04896685 C14.354324,6.95963299 14.0782793,5.87029913 13.2501453,5.3256322 C12.4220112,4.78096527 11.5938771,4.50863181 10.2136536,4.50863181 C8.83343018,4.50863181 7.72925141,4.78096527 6.90111733,5.3256322 C6.34902794,5.59796567 6.07298325,6.1426326 6.07298325,6.68729953 C6.07298325,7.23196646 6.34902794,7.77663339 6.90111733,8.04896685 C7.45320671,8.59363378 9.10947487,9.13830071 11.3178324,9.68296764 C13.52619,10.2276346 15.4585028,10.7723015 16.5626816,11.3169684 C17.6668604,11.8616354 18.4949944,12.6786358 19.0470838,13.7679696 C19.5991732,14.8573035 19.8752179,15.9466373 19.8752179,17.5806381 C19.8752179,18.9423054 19.5991732,20.3039728 18.7710391,21.3933066 C17.9429051,22.4826405 16.8387263,23.2996409 15.4585028,24.1166413 C14.0782793,24.9336417 12.4220112,24.9336417 10.2136536,24.9336417 C7.17716202,24.9336417 4.96880448,24.1166413 3.31253632,22.754974 C1.65626816,21.3933066 0.828134079,19.7593058 0.552089386,17.0359712 Z" id="Shape"></path>
                    <path d="M33.6774526,19.2146389 L38.0941677,20.0316393 C37.5420783,21.6656401 36.7139442,23.0273074 35.3337207,23.8443078 C33.9534973,24.6613082 32.5732738,25.2059751 30.6409609,25.2059751 C27.6044693,25.2059751 25.3961118,24.1166413 24.0158883,22.210307 C22.9117095,20.5763062 22.3596201,18.669972 22.3596201,16.4913043 C22.3596201,13.7679696 23.1877542,11.5893019 24.5679777,9.9553011 C25.9482012,8.32130032 27.880514,7.50429992 30.0888716,7.50429992 C32.5732738,7.50429992 34.7816313,8.32130032 36.1618548,9.9553011 C37.5420783,11.5893019 38.3702123,14.0403031 38.3702123,17.5806381 L27.0523799,17.5806381 C27.0523799,18.9423054 27.3284246,20.0316393 28.1565587,20.5763062 C28.9846928,21.1209732 29.8128269,21.6656401 30.6409609,21.6656401 C31.469095,21.6656401 32.0211844,21.3933066 32.5732738,21.1209732 C33.1253632,20.8486397 33.4014079,20.0316393 33.6774526,19.2146389 Z M33.9534973,14.58497 C33.9534973,13.2233027 33.6774526,12.4063023 32.8493185,11.5893019 C32.0211844,10.7723015 31.469095,10.499968 30.3649162,10.499968 C29.2607375,10.499968 28.4326034,10.7723015 27.880514,11.5893019 C27.3284246,12.4063023 27.0523799,13.2233027 27.0523799,14.58497 L33.9534973,14.58497 Z" id="Shape"></path>
                    <path d="M41.6827487,25.7506421 L46.9275978,26.295309 C46.9275978,26.8399759 47.2036425,27.3846429 47.4796872,27.6569763 C48.0317766,27.9293098 48.583866,28.2016432 49.4120001,28.2016432 C50.5161788,28.2016432 51.6203576,27.9293098 52.172447,27.6569763 C52.4484917,27.3846429 53.0005811,27.1123094 53.0005811,26.5676425 C53.2766258,26.295309 53.2766258,25.4783086 53.2766258,24.3889747 L53.2766258,21.9379736 C51.8964023,23.8443078 50.2401341,24.6613082 48.0317766,24.6613082 C45.8234191,24.6613082 43.8911062,23.5719743 42.5108827,21.6656401 C41.406704,20.0316393 40.8546146,18.125305 40.8546146,15.9466373 C40.8546146,13.2233027 41.6827487,11.044635 43.0629721,9.41063417 C44.4431956,7.77663339 46.0994638,7.23196646 48.3078213,7.23196646 C50.5161788,7.23196646 52.172447,8.04896685 53.5526705,9.9553011 L53.5526705,7.50429992 L57.9693856,7.50429992 L57.9693856,22.754974 C57.9693856,24.6613082 57.6933409,26.295309 57.4172962,27.1123094 C57.1412515,27.9293098 56.5891621,28.7463102 56.0370727,29.5633106 C55.4849833,30.380311 54.6568492,30.6526444 53.5526705,30.9249779 C52.4484917,31.1973114 51.3443129,31.4696448 49.6880448,31.4696448 C46.6515531,31.4696448 44.7192403,30.9249779 43.6150615,30.1079775 C42.5108827,29.2909771 41.6827487,27.9293098 41.6827487,26.295309 C41.6827487,26.0229755 41.6827487,26.0229755 41.6827487,25.7506421 Z M45.8234191,15.9466373 C45.8234191,17.8529716 46.0994638,18.9423054 46.9275978,20.0316393 C47.7557319,21.1209732 48.583866,21.3933066 49.4120001,21.3933066 C50.5161788,21.3933066 51.3443129,20.8486397 52.172447,20.0316393 C53.0005811,19.2146389 53.2766258,17.8529716 53.2766258,16.2189708 C53.2766258,14.58497 53.0005811,13.2233027 52.172447,12.4063023 C51.3443129,11.5893019 50.5161788,11.044635 49.4120001,11.044635 C48.3078213,11.044635 47.4796872,11.5893019 46.6515531,12.4063023 C45.8234191,13.2233027 45.8234191,14.0403031 45.8234191,15.9466373 Z" id="Shape"></path>
                    <path d="M73.7039331,24.6613082 L73.7039331,22.210307 C73.1518437,23.0273074 72.3237096,23.8443078 71.2195308,24.3889747 C70.1153521,24.9336417 69.0111733,25.2059751 67.9069945,25.2059751 C66.8028157,25.2059751 65.698637,24.9336417 64.8705029,24.3889747 C64.0423688,23.8443078 63.2142347,23.2996409 62.93819,22.210307 C62.6621453,21.1209732 62.3861006,20.0316393 62.3861006,18.3976385 L62.3861006,7.77663339 L66.8028157,7.77663339 L66.8028157,15.6743039 C66.8028157,18.125305 66.8028157,19.4869724 67.0788604,20.0316393 C67.3549051,20.5763062 67.6309498,21.1209732 67.9069945,21.3933066 C68.1830392,21.6656401 69.0111733,21.9379736 69.5632627,21.9379736 C70.3913967,21.9379736 70.9434861,21.6656401 71.7716202,21.3933066 C72.5997543,21.1209732 72.875799,20.5763062 73.1518437,19.7593058 C73.4278884,18.9423054 73.4278884,17.5806381 73.4278884,15.1296369 L73.4278884,8.04896685 L77.8446035,8.04896685 L77.8446035,24.9336417 L73.7039331,24.9336417 L73.7039331,24.6613082 Z" id="Shape"></path>
                    <path d="M86.9540783,24.6613082 L82.5373632,24.6613082 L82.5373632,7.77663339 L86.6780336,7.77663339 L86.6780336,10.2276346 C87.5061677,9.13830071 88.0582571,8.32130032 88.6103465,8.04896685 C89.1624359,7.77663339 89.7145253,7.50429992 90.5426593,7.50429992 C91.6468381,7.50429992 92.4749722,7.77663339 93.579151,8.32130032 L92.1989275,12.1339688 C91.3707934,11.5893019 90.818704,11.3169684 89.99057,11.3169684 C89.4384806,11.3169684 88.8863912,11.5893019 88.3343018,11.8616354 C87.7822124,12.1339688 87.5061677,12.9509692 87.230123,13.7679696 C86.9540783,14.58497 86.9540783,16.4913043 86.9540783,19.4869724 L86.9540783,24.6613082 Z" id="Shape"></path>
                    <path d="M95.5114638,5.3256322 L95.5114638,1.24063023 L99.9281789,1.24063023 L99.9281789,5.3256322 L95.5114638,5.3256322 Z M95.5114638,24.6613082 L95.5114638,7.77663339 L99.9281789,7.77663339 L99.9281789,24.6613082 L95.5114638,24.6613082 Z" id="Shape"></path>
                    <path d="M120.631531,24.6613082 L116.49086,24.6613082 L116.49086,22.210307 C115.662726,23.2996409 114.834592,23.8443078 114.006458,24.3889747 C113.178324,24.9336417 112.074145,25.2059751 111.246011,25.2059751 C109.313698,25.2059751 107.65743,24.3889747 106.277207,22.754974 C104.896983,21.1209732 104.068849,18.9423054 104.068849,16.2189708 C104.068849,13.2233027 104.620939,11.044635 106.001162,9.68296764 C107.381386,8.32130032 109.037654,7.50429992 111.246011,7.50429992 C113.178324,7.50429992 114.834592,8.32130032 116.214816,9.9553011 L116.214816,1.51296369 L120.631531,1.51296369 L120.631531,24.6613082 Z M108.485564,15.6743039 C108.485564,17.5806381 108.761609,18.669972 109.313698,19.4869724 C110.141833,20.5763062 110.969967,21.1209732 112.35019,21.1209732 C113.454369,21.1209732 114.282503,20.5763062 115.110637,19.7593058 C115.938771,18.9423054 115.938771,17.8529716 115.938771,16.2189708 C115.938771,14.3126365 115.662726,12.9509692 114.834592,12.1339688 C114.006458,11.3169684 113.178324,10.7723015 112.074145,10.7723015 C110.969967,10.7723015 110.141833,11.3169684 109.313698,12.1339688 C108.485564,12.9509692 108.485564,14.0403031 108.485564,15.6743039 Z" id="Shape"></path>
                    <path d="M128.360782,12.9509692 L124.220112,12.1339688 C124.772201,10.499968 125.600335,9.41063417 126.704514,8.59363378 C127.808693,7.77663339 129.464961,7.50429992 131.673319,7.50429992 C133.605631,7.50429992 135.2619,7.77663339 136.090034,8.32130032 C136.918168,8.86596724 137.746302,9.41063417 138.298391,10.2276346 C138.850481,11.044635 138.850481,12.4063023 138.850481,14.3126365 L138.850481,19.4869724 C138.850481,20.8486397 138.850481,22.210307 139.126525,22.754974 C139.40257,23.2996409 139.678615,24.1166413 139.954659,24.9336417 L135.537944,24.9336417 C135.537944,24.6613082 135.2619,24.1166413 134.985855,23.5719743 C134.985855,23.2996409 134.985855,23.0273074 134.70981,23.0273074 C133.881676,23.8443078 133.053542,24.3889747 132.225408,24.6613082 C131.397274,24.9336417 130.293095,25.2059751 129.464961,25.2059751 C127.808693,25.2059751 126.428469,24.6613082 125.324291,23.8443078 C124.220112,23.0273074 123.668023,21.6656401 123.668023,20.3039728 C123.668023,19.2146389 123.944067,18.3976385 124.496157,17.8529716 C125.048246,17.3083047 125.600335,16.4913043 126.428469,16.2189708 C127.256604,15.9466373 128.360782,15.4019704 130.01705,15.1296369 C132.225408,14.8573035 133.605631,14.3126365 134.433766,14.0403031 L134.433766,13.4956361 C134.433766,12.6786358 134.157721,12.1339688 133.881676,11.5893019 C133.605631,11.044635 132.501453,11.044635 131.397274,11.044635 C130.56914,11.044635 130.01705,11.3169684 129.464961,11.5893019 C128.912872,11.8616354 128.636827,12.1339688 128.360782,12.9509692 Z M134.433766,16.4913043 C133.881676,16.7636377 133.053542,17.0359712 131.673319,17.3083047 C130.293095,17.5806381 129.741006,17.5806381 129.188916,17.8529716 C128.636827,18.3976385 128.360782,18.669972 128.360782,19.4869724 C128.360782,20.0316393 128.636827,20.5763062 129.188916,21.1209732 C129.741006,21.6656401 130.293095,21.9379736 131.121229,21.9379736 C131.949363,21.9379736 132.777497,21.6656401 133.329587,21.1209732 C133.881676,20.8486397 134.157721,20.3039728 134.433766,19.7593058 C134.433766,19.4869724 134.70981,18.669972 134.70981,17.5806381 L134.70981,16.4913043 L134.433766,16.4913043 Z" id="Shape"></path>
                    <path d="M159.277788,24.6613082 L155.137118,24.6613082 L155.137118,22.210307 C154.308983,23.2996409 153.480849,23.8443078 152.652715,24.3889747 C151.824581,24.9336417 150.720402,25.2059751 149.892268,25.2059751 C147.959956,25.2059751 146.303687,24.3889747 144.923464,22.754974 C143.54324,21.1209732 142.715106,18.9423054 142.715106,16.2189708 C142.715106,13.2233027 143.267196,11.044635 144.647419,9.68296764 C146.027643,8.32130032 147.683911,7.50429992 149.892268,7.50429992 C151.824581,7.50429992 153.480849,8.32130032 154.861073,9.9553011 L154.861073,1.51296369 L159.277788,1.51296369 L159.277788,24.6613082 Z M147.131821,15.6743039 C147.131821,17.5806381 147.407866,18.669972 147.959956,19.4869724 C148.78809,20.5763062 149.616224,21.1209732 150.996447,21.1209732 C152.100626,21.1209732 152.92876,20.5763062 153.756894,19.7593058 C154.585028,18.9423054 154.585028,17.8529716 154.585028,16.2189708 C154.585028,14.3126365 154.308983,12.9509692 153.480849,12.1339688 C152.652715,11.3169684 151.824581,10.7723015 150.720402,10.7723015 C149.616224,10.7723015 148.78809,11.3169684 147.959956,12.1339688 C147.131821,12.9509692 147.131821,14.0403031 147.131821,15.6743039 Z" id="Shape"></path>
                    <path d="M173.632112,19.2146389 L178.048827,20.0316393 C177.496738,21.6656401 176.668604,23.0273074 175.28838,23.8443078 C173.908157,24.6613082 172.527933,25.2059751 170.59562,25.2059751 C167.559129,25.2059751 165.350771,24.1166413 163.970548,22.210307 C162.866369,20.5763062 162.31428,18.669972 162.31428,16.4913043 C162.31428,13.7679696 163.142414,11.5893019 164.522637,9.9553011 C165.902861,8.32130032 167.835173,7.50429992 170.043531,7.50429992 C172.527933,7.50429992 174.736291,8.32130032 176.116514,9.9553011 C177.496738,11.5893019 178.324872,14.0403031 178.324872,17.5806381 L167.007039,17.5806381 C167.007039,18.9423054 167.283084,20.0316393 168.111218,20.5763062 C168.939352,21.1209732 169.767486,21.6656401 170.59562,21.6656401 C171.423754,21.6656401 171.975844,21.3933066 172.527933,21.1209732 C173.080023,20.8486397 173.356067,20.0316393 173.632112,19.2146389 Z M173.908157,14.58497 C173.908157,13.2233027 173.632112,12.4063023 172.803978,11.5893019 C171.975844,10.7723015 171.423754,10.499968 170.319576,10.499968 C169.215397,10.499968 168.387263,10.7723015 167.835173,11.5893019 C167.283084,12.4063023 167.007039,13.2233027 167.007039,14.58497 L173.908157,14.58497 Z" id="Shape"></path>
                </g>
                <rect id="Rectangle-path" fill="#005A9F" fill-rule="nonzero" x="0" y="83.0798623" width="549.659415" height="8.81150055"></rect>
            </g>
        </g>
    </g>
</svg>