<?xml version="1.0" encoding="UTF-8"?>
<svg width="600px" height="250px" viewBox="0 0 600 250" version="1.1" xmlns="http://www.w3.org/2000/svg" xmlns:xlink="http://www.w3.org/1999/xlink">
    <!-- Generator: Sketch 50.1 (55044) - http://www.bohemiancoding.com/sketch -->
    <title>BEEF</title>
    <desc>Created with Sketch.</desc>
    <defs></defs>
    <g id="BEEF" stroke="none" stroke-width="1" fill="none" fill-rule="evenodd">
        <g id="Grid-Logo" opacity="0.400000006"></g>
        <g id="BEEF3" transform="translate(45.000000, 89.000000)" fill="#C63336">
            <path d="M442.561133,46.391716 C439.657182,47.860355 436.84123,49.156213 433.409289,49.0698225 C433.145293,50.2792899 432.793299,51.5751479 432.353307,52.8710059 C429.009364,61.7692308 420.913502,68.7668639 410.001688,68.7668639 C399.089874,68.7668639 396.185923,61.7692308 399.441868,52.8710059 C400.233854,50.7976331 401.289836,48.7242604 402.521815,46.9100592 C399.969859,48.1195266 397.769896,49.0698225 394.689949,48.983432 C394.425953,50.1928994 394.073959,51.4887574 393.633967,52.7846154 C390.290024,61.6828402 382.194162,68.6804734 371.282348,68.6804734 C360.370534,68.6804734 357.466583,61.6828402 360.722528,52.7846154 C364.066471,43.8863905 372.162333,36.8887574 383.074147,36.8887574 C390.290024,36.8887574 394.249956,39.9988166 394.865946,44.6639053 C395.041943,45.9597633 395.569934,46.564497 396.801913,46.4781065 C397.593899,46.391716 398.473884,46.2189349 399.265871,45.9597633 C401.993824,45.095858 404.809776,43.3680473 408.241718,41.1218935 C411.849656,38.5301775 416.777572,36.8887574 421.881485,36.8887574 C429.097362,36.8887574 433.057295,39.9988166 433.673284,44.6639053 C433.849281,45.9597633 434.377272,46.564497 435.609251,46.4781065 C436.401238,46.391716 437.281223,46.2189349 438.073209,45.9597633 C441.241155,44.9230769 444.585098,42.8497041 448.633029,40.0852071 C451.712977,38.0118343 455.584911,36.9751479 460.248831,36.9751479 C464.296762,36.9751479 466.672722,39.6532544 466.584723,43.4544379 L481.808464,10.3668639 C483.21644,7.4295858 486.208389,5.44260355 489.464333,5.44260355 L494.128254,5.44260355 L472.480623,52.5254438 C471.072647,55.5491124 468.608689,60.991716 468.52069,63.3242604 C468.432692,64.9656805 468.872684,66.0023669 470.28066,66.0023669 C471.600638,66.0023669 473.448606,65.1384615 474.856582,64.0153846 C480.84048,59.3502959 486.912377,48.6378698 495.448231,36.7159763 C496.152219,35.6792899 497.384198,34.4698225 498.616177,34.4698225 C500.376147,34.4698225 501.784123,35.4201183 500.640143,37.2343195 C499.760158,38.7029586 500.376147,39.5668639 500.992137,40.3443787 C501.96012,41.4674556 503.368096,42.5905325 504.424078,43.8 C506.624041,46.3053254 509,49.4153846 509,54.1668639 C509,56.2402367 508.560008,62.3739645 503.544093,65.9159763 C501.080135,67.7301775 497.736192,68.7668639 494.216252,68.7668639 C490.960308,68.7668639 488.672347,68.2485207 487.176372,67.5573964 C485.592399,66.7798817 483.040443,65.052071 483.656432,61.4236686 C484.008426,59.0911243 486.73638,57.2769231 488.584348,57.1905325 C490.960308,57.0177515 492.720278,58.5727811 492.984273,60.5597633 C491.224303,60.5597633 489.816327,61.7692308 489.728329,63.3242604 C489.64033,64.8792899 490.784311,66.0887574 492.544281,66.0887574 C496.856207,66.0887574 498.528179,61.3372781 498.968171,56.2402367 C499.408164,49.8473373 495.624228,44.9230769 495.53623,40.7763314 C495.184236,41.2946746 494.832242,41.8130178 494.392249,42.4177515 C487.968359,51.747929 482.072459,60.9053254 476.088561,65.4840237 C473.712602,67.2982249 471.072647,68.7668639 467.024716,68.7668639 C462.800788,68.7668639 459.896837,67.2118343 459.280848,64.0153846 C459.192849,63.4970414 459.192849,62.8923077 459.192849,62.2011834 C455.320915,67.5573964 451.800975,68.7668639 448.281035,68.7668639 C440.009176,68.7668639 437.369221,61.5100592 438.953194,55.3763314 C439.305188,53.216568 440.097175,50.1065089 442.561133,46.391716 Z M452.240968,65.1384615 C455.672909,65.1384615 459.808839,59.8686391 463.064783,50.1065089 C464.472759,45.8733728 465.528741,38.8757396 460.776822,38.8757396 C457.256882,38.8757396 454.000938,42.5905325 451.008989,48.8970414 C448.985023,53.1301775 448.369034,56.6721893 448.457032,59.0911243 C448.545031,63.756213 450.480998,65.1384615 452.240968,65.1384615 Z M382.634154,52.8710059 C385.538105,45.0094675 387.474072,38.616568 382.458157,38.616568 C377.354244,38.616568 374.538292,45.0094675 371.634342,52.8710059 C368.730391,60.7325444 366.794424,67.1254438 371.898337,67.1254438 C376.914252,67.1254438 379.730204,60.7325444 382.634154,52.8710059 Z M421.353494,52.8710059 C424.257445,45.0094675 426.193412,38.616568 421.089499,38.616568 C415.985586,38.616568 413.169634,45.0094675 410.265683,52.8710059 C407.361733,60.7325444 405.425766,67.1254438 410.44168,67.1254438 C415.72159,67.1254438 418.449544,60.7325444 421.353494,52.8710059 Z M97.3430179,12.7857988 C91.1831229,18.4011834 84.4952369,27.8177515 77.6313539,38.3573964 C71.9994499,46.9100592 65.8395549,55.1171598 58.6236779,60.8189349 C53.6077635,64.7928994 45.5119015,68.939645 37.856032,71.704142 C35.4800725,72.5680473 33.28011,73 31.344143,73 C37.2400425,69.0260355 42.07996,63.756213 53.7837605,38.3573964 L65.5755594,12.7857988 C59.6796599,18.2284024 53.2557695,27.1266272 46.655882,37.147929 C40.495987,46.564497 34.4240905,54.9443787 31.2561445,58.6591716 C24.5682585,66.6934911 19.024353,72.9136095 9.16852105,72.9136095 C4.68059756,72.9136095 1.86464556,71.0130178 0.632666566,67.9893491 C-0.863307931,64.1881657 0.368671067,59.2639053 3.53661706,57.1905325 C3.53661706,62.287574 7.58454805,64.1017751 11.280485,64.1017751 C16.384398,64.1017751 20.5203275,61.2508876 24.3922615,58.0544379 C28.7921865,54.339645 36.624053,47.2556213 43.2239405,37.147929 C51.4957995,24.4485207 60.3836479,12.6994083 68.1275159,7.6887574 C69.4474934,6.9112426 71.5594574,5.44260355 74.5514064,5.44260355 L79.4793224,5.44260355 L60.9116389,45.9597633 L60.9116389,46.0461538 C57.4796974,53.4757396 53.695762,59.0047337 49.9118265,63.0650888 C53.7837605,61.3372781 58.1836854,58.2272189 62.5836104,53.5621302 C64.1675834,51.8343195 65.7515564,50.0201183 67.3355294,48.1195266 C70.0634829,44.7502959 72.6154394,41.035503 75.1673959,37.2343195 C84.2312414,23.4118343 93.9110764,10.6260355 102.182935,6.56568047 C103.414914,5.96094675 104.910889,5.61538462 106.230866,5.61538462 L111.334779,5.61538462 L92.6790974,45.9597633 C83.0872609,66.7798817 70.5914739,73 63.1116014,73 C69.0075009,69.0260355 73.8474184,63.756213 85.5512189,38.3573964 L97.3430179,12.7857988 Z M236.028654,42.4177515 C237.524628,39.2213018 240.428579,37.4934911 243.684523,37.4934911 L248.348444,37.4934911 L241.396562,52.5254438 C239.988586,55.5491124 237.524628,60.991716 237.348631,63.3242604 C237.260633,64.9656805 238.404613,66.0023669 240.164583,66.0023669 C241.748556,66.0023669 243.420528,65.1384615 244.564508,64.5337278 C247.820453,62.8923077 250.636405,60.1278107 253.452357,56.9313609 C256.884298,52.8710059 258.55627,46.391716 257.324291,45.0094675 C256.884298,44.4911243 255.388324,44.1455621 253.364358,44.5775148 C253.188361,43.8863905 253.100363,43.1952663 253.188361,42.4177515 C253.628354,39.3940828 256.532304,36.8887574 259.70025,36.8887574 C262.868196,36.8887574 265.068159,39.3940828 264.628166,42.4177515 C264.276172,44.8366864 261.724216,50.1928994 258.644268,54.4260355 C257.500288,56.0674556 256.092312,57.6224852 254.596337,59.1775148 C251.956382,61.8556213 249.492424,64.2745562 246.500475,65.9159763 C244.740505,66.8662722 243.420528,67.643787 241.484561,68.0757396 C239.636592,68.5076923 237.700625,68.7668639 235.764658,68.7668639 C231.54073,68.7668639 228.63678,67.2118343 228.02079,64.0153846 C227.668796,61.8556213 228.460783,58.5727811 229.78076,55.7218935 L236.028654,42.4177515 Z M269.380085,43.1088757 C272.548031,39.5668639 277.563945,36.9751479 284.427828,36.9751479 C288.475759,36.9751479 290.851719,39.6532544 290.76372,43.4544379 L291.291711,42.4177515 C292.787686,39.2213018 295.691636,37.4934911 298.947581,37.4934911 L303.611501,37.4934911 L296.747618,52.5254438 C295.339642,55.5491124 292.875684,60.991716 292.699687,63.3242604 C292.611689,64.9656805 293.051681,66.0023669 294.459657,66.0023669 C295.779635,66.0023669 297.627603,65.1384615 299.035579,64.0153846 C300.17956,63.1514793 301.32354,62.1147929 302.467521,60.8189349 C302.555519,61.7692308 302.467521,63.8426036 300.267558,65.5704142 C297.891599,67.3846154 295.163645,68.8532544 291.115714,68.8532544 C286.891786,68.8532544 283.987836,67.2982249 283.371846,64.1017751 C283.283848,63.583432 283.283848,62.9786982 283.283848,62.287574 C279.411914,67.643787 275.891974,68.8532544 272.372034,68.8532544 C264.100175,68.8532544 261.46022,61.5964497 263.044193,55.4627219 C263.748181,52.6118343 264.804163,48.2059172 269.380085,43.1088757 Z M276.507963,64.7065089 C279.939905,64.7065089 284.075834,59.8686391 287.331779,50.0201183 C288.739755,45.7869822 289.795737,38.7893491 285.043818,38.7893491 C281.523878,38.7893491 278.267933,42.504142 275.275984,48.8106509 C273.252019,53.043787 272.636029,56.2402367 272.724028,58.6591716 C272.812026,63.3242604 274.747993,64.7065089 276.507963,64.7065089 Z M206.90115,42.4177515 C208.397125,39.2213018 211.301075,37.4934911 214.55702,37.4934911 L219.22094,37.4934911 L214.997012,46.6508876 C218.428954,42.8497041 222.828879,36.8887574 227.580798,36.8887574 C233.652694,36.8887574 234.092687,42.2449704 230.572747,45.4414201 C228.988774,43.6272189 227.844793,43.0224852 225.028841,43.0224852 C222.212889,43.0224852 214.909014,46.7372781 211.03708,55.2899408 L207.341143,63.3242604 C206.021165,66.2615385 202.941218,68.2485207 199.685273,68.2485207 L195.021353,68.2485207 L201.709239,53.8213018 C199.773272,56.2402367 197.925303,58.0544379 196.077335,59.695858 C190.621428,64.5337278 189.037455,65.7431953 185.077522,67.2982249 C182.173572,68.5076923 179.709614,68.8532544 175.661683,68.8532544 C166.509839,68.8532544 162.197912,61.8556213 163.253894,55.4627219 C163.957882,51.0568047 165.805851,47.1692308 169.589786,43.1952663 C172.845731,39.739645 177.685648,37.0615385 184.549531,37.0615385 C189.565446,37.0615385 194.317365,39.912426 194.845356,43.8863905 C195.19735,46.4781065 194.405363,49.4153846 191.237417,52.5254438 C186.3975,57.1905325 176.013677,57.2769231 172.933729,57.4497041 C172.669734,60.4733728 173.197725,62.3739645 173.725716,63.3242604 C174.165708,64.2745562 175.661683,66.1751479 179.181623,66.1751479 C181.997575,66.1751479 184.373534,65.3112426 186.661495,64.1881657 C188.861458,63.0650888 191.413414,61.2508876 194.757357,58.3136095 C198.453294,54.9443787 203.9972,48.2923077 206.90115,42.4177515 Z M175.397687,48.8970414 C174.341705,51.2295858 173.637717,53.3893491 173.197725,55.2035503 C177.069659,54.8579882 182.525566,52.3526627 185.605513,48.0331361 C188.597462,43.7136095 188.421465,38.7893491 185.077522,38.7893491 C181.557582,38.8757396 178.389636,42.5905325 175.397687,48.8970414 Z M112.742755,24.7076923 C114.150731,21.6840237 117.75867,19.2650888 120.838617,19.2650888 C123.918565,19.2650888 125.326541,21.6840237 123.918565,24.7076923 C122.510589,27.7313609 118.90265,30.1502959 115.822703,30.1502959 C112.742755,30.2366864 111.334779,27.7313609 112.742755,24.7076923 Z M105.262883,42.4177515 C106.758857,39.2213018 109.662808,37.4934911 112.918752,37.4934911 L117.582673,37.4934911 L110.71879,52.5254438 C109.310814,55.5491124 106.846856,60.991716 106.670859,63.3242604 C106.58286,64.8792899 106.934854,66.0023669 108.430829,66.0023669 C110.1028,66.0023669 112.302763,64.6201183 114.062733,63.0650888 C115.822703,61.5100592 117.75867,59.3502959 120.134629,56.4130178 C123.302575,52.4390533 127.790499,45.9597633 129.46247,42.3313609 C130.958445,39.1349112 133.862395,37.4071006 137.11834,37.4071006 L141.78226,37.4071006 L135.622365,50.7112426 C139.934292,44.6639053 143.278235,41.2946746 146.270184,39.3940828 C148.382148,38.0118343 150.758107,36.8887574 154.190049,36.8887574 C158.413977,36.8887574 161.317927,38.443787 161.933917,41.6402367 C162.285911,43.8 161.493924,47.0828402 160.173947,49.9337278 L154.014052,63.3242604 C152.694074,66.2615385 149.614127,68.2485207 146.358182,68.2485207 L141.694262,68.2485207 L148.558145,53.216568 C149.966121,50.1928994 152.430079,44.7502959 152.606076,42.4177515 C152.694074,40.7763314 152.254082,39.739645 150.846106,39.739645 C149.878122,39.739645 148.82214,40.2579882 148.118152,40.6899408 C145.038205,42.3313609 141.430266,45.8733728 136.326353,53.3029586 C134.390386,56.0674556 132.366421,59.4366864 129.902463,63.4106509 C128.142493,66.347929 125.502538,68.3349112 122.246593,68.3349112 L117.582673,68.3349112 L123.654569,55.2035503 C122.950581,56.1538462 122.334592,57.0177515 121.718602,57.7952663 C118.110664,62.287574 115.294712,65.3976331 112.302763,67.0390533 C110.366796,68.1621302 107.726841,68.939645 105.086886,68.939645 C100.862958,68.939645 97.9590074,67.3846154 97.3430179,64.1881657 C96.9910239,62.0284024 97.7830104,58.7455621 99.1029879,55.8946746 L105.262883,42.4177515 Z M344.090811,45.9597633 C334.498975,66.7798817 322.091186,73 314.523315,73 C320.243218,69.1988166 324.995137,64.0153846 336.082948,40.2579882 C326.139117,42.0721893 319.187236,40.9491124 314.25932,38.8757396 C308.97941,36.3704142 305.019477,31.0142012 309.507401,21.3384615 C314.963308,9.50295858 335.37896,0 359.490549,0 C377.970234,0 417.305563,8.98461538 431.209326,0 C430.593337,6.99763314 423.113464,12.4402367 408.593712,12.4402367 C392.049994,12.4402367 377.00225,2.24615385 358.434567,2.24615385 C339.602888,2.24615385 322.44318,10.7988166 317.603263,21.3384615 C313.907326,29.2863905 316.459282,38.616568 326.491111,38.616568 C330.09905,38.616568 333.794987,38.1846154 337.490924,37.4071006 L349.810714,10.712426 C351.21869,7.60236686 354.474634,5.52899408 357.906576,5.52899408 L362.834492,5.52899408 L349.898712,33.6059172 C358.434567,30.3230769 366.44243,25.9171598 373.130316,22.2023669 L367.410414,34.7289941 C361.514514,46.564497 353.770646,50.6248521 349.546718,49.5017751 C354.650631,45.3550296 358.610564,39.4804734 361.690511,31.964497 C356.850594,34.1242604 352.36267,35.852071 348.314739,37.2343195 L344.090811,45.9597633 Z" id="Shape"></path>
        </g>
    </g>
</svg>