<?xml version="1.0" encoding="UTF-8"?>
<svg width="600px" height="250px" viewBox="0 0 600 250" version="1.1" xmlns="http://www.w3.org/2000/svg" xmlns:xlink="http://www.w3.org/1999/xlink">
    <!-- Generator: Sketch 50.1 (55044) - http://www.bohemiancoding.com/sketch -->
    <title>BRAP</title>
    <desc>Created with Sketch.</desc>
    <defs>
        <polygon id="path-1" points="0.676246154 0.337813866 8.99986154 0.337813866 8.99986154 2 0.676246154 2"></polygon>
    </defs>
    <g id="BRAP" stroke="none" stroke-width="1" fill="none" fill-rule="evenodd">
        <g id="Grid-Logo" opacity="0.400000006"></g>
        <g transform="translate(39.000000, 61.000000)">
            <path d="M520,83.7248885 C513.538331,82.3336313 507.351994,82.5617275 501.633586,86.3641948 C499.740687,87.6239079 498.807474,88.9387011 498.862408,91.3596312 C499.053022,99.9735027 498.888882,108.594502 498.984851,117.211614 C499.008016,119.260592 498.486476,120.073832 496.227572,119.994776 C490.312594,119.788064 491.070416,120.609729 491.065121,115.045996 C491.053207,102.846089 491.094242,90.6455346 491.000921,78.4462759 C490.983051,76.1588339 491.197491,74.6366805 494.124866,75.0753769 C496.329498,75.4065052 499.638762,73.9186959 498.992793,78.3231558 C498.87366,79.1318605 498.975585,79.9723172 498.975585,81.3486704 C505.277085,76.8042424 511.533579,73.4106635 519.279242,76.0046097 C520.236943,77.1528667 519.103851,78.6776121 520,79.8368851 L520,83.7248885 Z" id="Fill-1" fill="#040405"></path>
            <g id="Group-5" transform="translate(401.000000, 141.000000)">
                <mask id="mask-2" fill="white">
                    <use xlink:href="#path-1"></use>
                </mask>
                <g id="Clip-4"></g>
                <path d="M8.94724615,0.6276 C8.96455385,1.0856 8.98255385,1.54226667 8.99986154,2.00026667 L0.692169231,2.00026667 C0.686630769,1.5656 0.681784615,1.13093333 0.676246154,0.696933333 C3.42816923,0.1736 6.18701538,0.286266667 8.94724615,0.6276" id="Fill-3" fill="#9CA59C" mask="url(#mask-2)"></path>
            </g>
            <path d="M520,80 C518.199836,78.8886667 519.472166,77.3553333 519.029035,76.0573333 C519.35269,76.0386667 519.676345,76.0193333 520,76 L520,80 Z" id="Fill-6" fill="#97968F"></path>
            <path d="M376.819802,120.965945 C372.688885,121.215396 368.585043,120.055837 364.470242,118.750764 C361.95933,117.954338 360.876963,116.733714 361.01105,113.894255 C361.260529,108.596659 361.077449,108.577171 365.724086,111.058693 C371.321582,114.048213 377.159532,115.318207 383.3991,113.540865 C386.109208,112.769125 387.899401,111.189915 387.967734,108.062027 C388.036067,104.861383 386.198814,103.302961 383.47259,102.602028 C379.531844,101.59058 375.501492,100.917581 371.590401,99.808691 C361.894865,97.060827 358.235187,87.922068 363.720514,80.3462783 C365.842702,77.4152234 368.922195,75.8886323 372.295003,74.9505908 C379.219189,73.0257867 385.901631,74.2438116 392.479639,76.641534 C393.724458,77.0949641 394.391671,77.8654054 394.287883,79.3036491 C394.186673,80.7022664 394.209235,82.117124 394.280147,83.5189894 C394.399407,85.8673413 393.495608,85.7471628 391.858197,84.7500065 C386.958857,81.7656833 381.696579,80.2358441 375.908267,81.0446126 C374.504864,81.2407958 373.180108,81.6513513 371.972678,82.3782686 C368.322025,84.5752605 368.373597,89.4525568 372.07969,91.5637998 C374.647976,93.0260792 377.56953,93.3236021 380.37698,93.9790618 C382.250333,94.4169011 384.170101,94.6728488 386.020246,95.1873424 C392.546038,97.0010626 395.726741,100.590176 395.986535,106.287934 C396.249553,112.042208 392.640157,117.237165 386.835729,119.409471 C383.684035,120.589819 380.418238,121.10821 376.819802,120.965945" id="Fill-8" fill="#030304"></path>
            <path d="M204.362434,81.0924196 C208.907799,77.534722 213.699138,74.7558561 219.647584,75.1711038 C221.080285,75.2712024 223.247688,74.8159152 223.653995,76.368412 C224.203251,78.4711282 224.005571,80.8579951 223.699713,83.0633931 C223.534228,84.2568265 222.28311,83.4153526 221.525871,83.2823184 C216.11509,82.3329963 211.109973,83.2203218 206.486695,86.3207948 C204.653482,87.550393 203.707577,88.8374671 203.759734,91.2701857 C203.94518,99.8625193 203.683109,108.463248 203.867911,117.055582 C203.96321,121.46444 200.883385,119.507674 198.982561,119.876425 C196.876974,120.284569 196.001899,119.508966 196.02186,117.13114 C196.131969,104.119615 196.139052,91.1055073 196.000611,78.0952741 C195.973567,75.543083 196.840915,74.7946039 199.147402,75.1556046 C199.462275,75.2046852 199.80226,75.2234134 200.110049,75.1594794 C203.328958,74.4897876 204.33217,75.9615597 203.856964,78.9664547 C203.763597,79.5586509 203.519555,80.2335091 204.362434,81.0924196" id="Fill-10" fill="#040405"></path>
            <path d="M46.0420179,57.3399083 C46.2772275,55.232991 46.3908902,53.1254242 46.0827525,51.0152595 C45.656353,50.1728822 45.1478273,49.3402472 45.786441,48.3809633 C45.9625197,38.4114255 47.4742997,28.4081147 45,18.5067724 C45.4106313,16.9486667 46.8159757,17.04479 47.8987282,17.0681713 C55.8524913,17.2389849 63.8108536,17.1552018 71.7639598,17.2344385 C76.5371375,17.2818506 81.3451367,16.9649038 86.1386818,17.0032232 C87.8219414,17.1675419 89.4184757,17.7137557 91.0373484,18.1612483 C91.7160398,18.3859688 92.4183835,18.5788648 92.8132465,19.2556243 C101.432561,23.0265127 103.659168,30.0383127 102.843161,38.5919813 C102.019271,39.7876764 103.262334,41.4828225 101.864216,42.5388791 C101.039669,44.6646314 100.102116,46.7293324 98.5489439,48.4563032 C96.9576656,51.1659391 94.7895326,51.7556681 91.7686006,50.7359825 C89.2279428,49.8780177 86.3469539,51.1152796 83.7668756,49.8903579 C83.527724,49.6390086 83.3641285,49.3460925 83.267548,49.0148571 C82.9856907,47.4418134 83.6407297,45.9980165 83.8956496,44.4970652 C84.2353238,43.5046578 84.2865706,42.4823742 84.2287537,41.4458021 C84.1610816,39.0699995 84.252406,36.6987433 83.7741028,34.3372294 C82.6887222,28.9816066 79.9976092,26.1888371 74.6370645,25.0347088 C73.9951658,24.8963693 73.3486679,24.7911533 72.6942859,24.7275042 C65.2083139,24.0033325 64.4047906,24.7184114 64.4093897,32.1413331 C64.4133318,38.8433306 64.3824523,45.5446785 64.3896794,52.2486244 C64.4100467,53.5800611 64.3725972,54.9069514 64.099281,56.2156562 C63.3588307,58.980498 63.8581583,61.8018448 63.7136161,64.5933153 C63.6367459,66.0884213 63.8844387,67.6406816 62.8778994,68.9539327 C59.9988815,71.0049947 56.7893876,69.0546023 53.7763397,69.6488777 C53.0799091,69.7865678 52.4360393,68.8695002 52.0707417,70.5802339 C51.6476273,72.5598529 49.0622929,71.4472914 47.5064932,72 C46.5485726,71.7622898 46.1425404,71.0205822 45.8120644,70.2061327 C45.3317901,67.1860447 45.328505,64.1464722 45.4526799,61.1017039 C45.4927575,59.8235247 45.4218004,58.528459 46.0420179,57.3399083" id="Fill-12" fill="#030303"></path>
            <path d="M84.1239567,50.2331631 C87.6696843,50.502714 91.2678883,49.6680176 94.7695615,51.1596631 C96.5738464,51.9285995 96.9470126,49.0683644 98.6204302,49 C97.9311091,50.3028296 97.2314224,51.1616163 99.6291453,51.8166121 C104.103254,53.0393578 108.885094,53.9691132 111.963716,58.0898571 C115.031972,62.0667103 114.012244,66.3769212 112.902463,70.6565309 C112.695796,71.452162 112.382233,72.2725345 111.966308,73.0186827 C110.975733,75.1900654 109.371636,76.8399256 107.528479,78.2866459 C106.228876,78.5054119 105.378238,76.828206 103.970443,77.4460897 C105.140474,77.7273603 106.964843,77.3282425 106.188061,79.6024973 L106.204905,79.5816625 C105.111969,79.9006962 104.554811,81.2074323 103.091947,80.971738 C99.4211828,80.3798979 99.224234,79.7561544 101.649815,75.4739403 C99.2954984,75.1763925 97.7542439,73.7739463 96.6548286,71.7646848 C96.5589456,71.4697414 96.5103563,71.1669849 96.4973991,70.8577175 C98.0691029,67.7018879 97.2897296,64.7837058 95.5897499,61.9638382 C95.1077434,60.0268477 93.0631032,59.7514369 91.931295,58.5072054 C91.378672,57.9947981 90.8655684,57.3723568 90.1082223,57.2186997 C88.3784411,56.8684137 86.995264,56.5077102 87.524564,54.0811006 C88.1076364,51.4051237 85.6755769,51.6323539 84.1414489,51.0704638 C83.9542179,50.7950531 83.9574572,50.5157358 84.1239567,50.2331631" id="Fill-14" fill="#0B0706"></path>
            <path d="M95.9086723,87.0378002 L94.0908874,87.753955 C91.0665571,89.6917466 87.6929471,90.3973015 84.2301049,90.8451467 C83.2683105,90.9690329 82.3351979,91.1651308 81.4205691,90.7411353 C79.6646092,89.9256066 79.5313984,88.5661713 81.0496186,87.2743102 C82.3804513,86.1421099 84.082872,85.708177 85.5309812,84.7018504 C84.5857585,85.0953711 83.649459,86.1149476 82.880151,84.5236398 C83.335872,81.9518425 85.5609377,81.6378208 87.3341066,80.745443 C88.1544044,80.7176183 88.9906365,80.7818801 89.6643387,80.1167372 C91.6478404,78.1577458 92.8958148,78.9182876 93.7569044,81.2919996 C94.0590188,82.1234281 94.6001476,82.7759836 95.5491945,82.8693951 C96.5893857,83.2172038 97.496366,83.061518 98.4498746,82.4215499 C99.3848993,81.7941692 100.409794,81.7206325 101,83.0548931 C100.344782,83.6975112 99.6902005,84.3401293 99.0349821,84.9827473 C98.2573882,86.1030228 97.0999206,86.5979049 95.9086723,87.0378002" id="Fill-16" fill="#2A2014"></path>
            <path d="M100.609357,82.1115219 C98.5807262,80.6830564 97.0746587,83.9185646 95.0731418,82.7334262 C94.0501991,80.7954562 92.6957243,79.0334969 92,76.9207515 C92.1472791,76.6916288 92.3383106,76.5038841 92.5656997,76.3556646 C93.4160978,76.2173264 94.1857698,75.5169893 95.1033371,75.9567071 C95.2327455,76.0388454 95.3128555,76.0919574 95.3190178,76.1012211 C95.1914581,76.0579904 95.1113481,75.9499137 94.9905669,75.8628348 C94.4408893,75.4311455 94.1284604,74.8889091 94.0643724,74.2064819 C94.0890216,73.1627695 94.5838548,72.3277997 95.2284319,71.5576759 C95.5322336,71.2464149 95.8847175,71.0308791 96.3308684,71 C97.9213595,72.2456614 99.0009954,74.3800222 101.821483,73.9026319 C100.961225,75.4496729 100.209424,76.8015583 99.4582385,78.1509733 C101.284746,78.6376273 103.074896,79.7659483 105,78.4554409 C103.655385,79.8172075 102.692833,81.6403074 100.609357,82.1115219" id="Fill-18" fill="#1B100B"></path>
            <path d="M29.1565807,65.1843525 C34.2621983,62.2595216 39.832197,60.3466997 45.3030076,58.2189821 C46.1441753,57.8035587 46.7869666,57.9484883 46.9344608,58.9192673 C47.1141589,60.0999445 46.9924279,61.2749993 45.6933197,61.8278561 C44.0361034,62.5331389 42.3853279,63.2446686 40.8028247,64.0892589 C40.5265147,64.237312 40.2308822,64.3510069 39.9313853,64.4453361 C38.1517938,64.6308711 36.7618705,65.9920856 34.933329,66.0358144 C33.5066931,65.3892531 33.822292,67.3676682 32.8233248,67.3689176 C32.2372126,67.7624766 31.632422,68.1041858 30.8743405,67.9705007 C30.6044712,67.8842925 30.3816198,67.7293677 30.1961249,67.522593 C29.8599154,66.7417219 28.5543665,66.3600321 29.1565807,65.1843525" id="Fill-20" fill="#FAF0EA"></path>
            <path d="M84.2049021,84.1453347 C85.2177338,85.6845618 86.386333,83.4070482 87.5967904,84.3584882 C85.8167867,86.2219671 83.1783463,86.8478635 81.2604163,88.4542662 C81.7620288,89.8087602 83.0363029,90.4275515 84.1836299,89.9611973 C87.5501288,88.593139 91.5863593,89.9521545 94.6715161,87.5661264 C94.9453101,87.3542647 95.5491664,87.5202661 96,87.5105773 C94.3119471,88.5330685 92.6252666,89.5555596 90.9372138,90.5780508 L90.9509378,90.5877396 L88.2075087,91.3124617 C86.6745372,92.3478713 84.7140627,90.5515681 83.2428492,91.9926154 C83.2160874,92.2690691 83.1241365,92.5080595 82.9573898,92.7289641 C82.6952613,92.8762338 82.4187225,92.9556819 82.1195392,92.9815187 C78.8861631,93.2082366 78.7811744,91.3163373 79.1434882,89.1027698 C79.1482916,88.4187406 79.0796716,87.7379411 79.0048758,87.0539119 C79.0199722,86.7574347 79.0995714,86.4803351 79.2368115,86.2135701 C80.7093974,85.1329462 81.9246583,83.5032903 84.2049021,84.1453347" id="Fill-22" fill="#332618"></path>
            <path d="M49.1581752,103.076148 C47.760053,103.568186 46.3490982,103.987107 44.8207242,103.755172 C39.2846995,104.240617 33.7352004,103.830087 28.1972508,103.96673 C26.7689718,103.903203 26.9280973,103.033597 27.1314955,102.140617 C27.2514812,101.843957 27.4330638,101.576063 27.6640523,101.341131 C28.4121985,100.817929 29.1821602,101.122981 29.9495553,101.291987 C30.6361045,101.488563 31.2809475,101.790018 31.9495309,102.032741 C32.8324203,102.371953 33.7505997,102.430686 34.6893113,102.320412 C35.2180184,102.246696 35.7460838,102.161594 36.2818488,102.171183 C37.2455842,102.366559 38.0553273,101.959624 38.8734116,101.585052 C39.7768333,101.422638 40.7097703,101.634196 41.6099839,101.393272 C42.8124074,101.413049 44.0398547,101.703118 45.179398,101.080429 C45.4533761,101.005515 45.7312039,100.983939 46.0141649,101.011508 C47.1793736,101.879915 49.2640449,100.128717 50,102.22632 C49.9467443,102.706371 49.4597435,102.811251 49.1581752,103.076148" id="Fill-24" fill="#FCECEF"></path>
            <path d="M71,97.8316224 C69.314918,99.0616171 67.4058222,99.5544623 65.4811699,100 C64.4034144,99.5671718 63.316325,99.9004424 62.2317246,99.9526925 C61.6467995,99.9632837 61.1421461,99.7309828 60.6997187,99.3066275 C60.1085711,98.6662112 59.3599915,98.1910181 59.0053029,97.2907637 C58.9374765,96.3707389 59.5342245,95.8793059 59.9984309,95.2982005 C60.3095613,94.9564568 60.6698502,94.7043856 61.0768087,94.5363381 C61.9031709,94.2701452 62.7233105,93.958057 63.6019426,94.0046584 C63.8919161,94.0738544 64.1445539,94.2235438 64.364212,94.4480778 C65.0312754,96.3410835 66.3006872,96.8614658 68.0056815,96.6913001 C69.0940155,96.5825635 70.4611222,95.9252012 71,97.8316224" id="Fill-26" fill="#E3C16B"></path>
            <path d="M12.2948102,77.1912138 C13.8335262,75.236545 15.5459682,73.4821038 17.4948342,72 C18.9832611,72.1449199 19.5893427,73.2370701 19.9367947,74.610659 C20.0399853,75.105627 20.0197391,75.5942942 19.8545035,76.0731601 C19.6442036,76.5156209 19.3333255,76.8607684 18.9492996,77.1324057 C17.208121,77.8395029 16.1337629,79.8564803 14.0973807,80 C13.4945646,79.941892 12.9727335,79.6695546 12.485517,79.3041043 C12.2588895,79.098276 12.0956131,78.8441411 12.0002598,78.5423996 C11.9924225,78.0663341 12.1635361,77.6336746 12.2948102,77.1912138" id="Fill-28" fill="#D8AC4F"></path>
            <path d="M112.313726,72 C112.961519,70.1242967 112.589023,68.0599241 113.361951,66.1750621 C113.669842,65.4234376 113.78159,64.3207292 112.997022,63.6417637 C111.867896,62.6636138 111.33127,61.9547298 113.409095,61.8185704 C113.544124,61.8100222 113.669842,61.6463867 113.799633,61.5554102 C113.600581,61.3783418 113.296182,61.2403506 113.220519,61.0168782 C112.881781,60.0246849 112.60823,59.0080684 112.311398,58 C115.241306,59.7010772 115.577716,64.641284 114.274564,68.3676567 C113.821168,69.6639191 113.342162,71.0133019 112.313726,72" id="Fill-30" fill="#21100A"></path>
            <path d="M6.08545048,91.0896393 C5.81408334,89.3069515 6.21832196,87.6407022 6.88478842,86.0201439 C7.51258857,85.9029684 7.75794384,86.312714 7.9168272,86.8411088 C7.94986931,87.4431989 7.72208963,88.0430782 7.90065765,88.6481161 C9.22796638,86.0009831 11.9022685,86.3090292 13.8630016,89.3312709 C14.0507089,90.2060334 14.1920166,91.0704786 13.2499649,91.6091908 C12.3859488,92.0211471 11.3939824,92.0071451 10.552463,92.5016401 C8.55306363,93.8075197 7.37198384,92.2665523 6.08545048,91.0896393" id="Fill-32" fill="#DBB14F"></path>
            <path d="M7.81735404,95.9713931 C7.65586494,95.7285646 7.49373245,95.4857361 7.33224335,95.2435483 C6.84327237,94.697024 7.01891589,94.0614412 7.08775786,93.4405947 C8.25871468,92.442371 9.07902784,93.3726796 9.96625282,93.9505986 C10.4256282,94.2978626 10.8882205,94.6451266 11.3392319,95.0020012 C11.8378536,95.4767662 12.4136813,95.7862284 13.1259061,95.795839 C13.4057776,95.7900726 13.6805021,95.7996832 13.9578001,95.8048089 C14.8328008,95.8451735 15.6859265,95.6151592 16.5596405,95.6164406 C16.8800451,95.67923 17.1483358,95.8285151 17.3741632,96.0623737 C17.9268291,96.9241266 18.3797706,97.7922865 17.523428,98.7309244 C15.7103751,99.4363444 13.9545832,98.5297419 12.1646921,98.5470411 C11.3546731,98.4458091 10.7125769,97.8762193 9.91027851,97.7487183 C8.94842112,97.4661659 8.55531419,96.5172767 7.81735404,95.9713931" id="Fill-34" fill="#E2D0AE"></path>
            <path d="M28,101.725935 C27.7914448,102.333845 27.5828896,102.940454 27.3736907,103.548364 C26.092106,104.21739 24.7847738,104.042494 23.4710047,103.669946 L23.4446135,103.666695 C22.4617005,102.807169 21.155012,103.687501 20.1321903,103.03863 C18.9922172,103.125753 17.8734859,103.134205 17,102.20186 C17.0154485,100.560828 18.6298204,100.896966 19.4125461,100.207135 C20.1714553,100.839101 20.8730762,99.6154791 21.6306981,100.129764 C23.0229972,102.388459 25.0776523,100.957432 26.8561648,101.078364 C27.3234829,101.142081 27.700041,101.36574 28,101.725935" id="Fill-36" fill="#FBEBE3"></path>
            <path d="M9.96790333,95.8120081 C9.05600845,95.2976077 8.49295481,94.1184102 7.30318069,94.1336678 C6.77792923,93.7645782 6.40057055,93.2305609 6.00397918,92.7183401 C6.00265279,92.2424471 6.00132639,91.7665541 6,91.2892079 C7.50213957,90.3984524 8.25685693,93.9854507 9.92943794,92.0767927 C10.8711767,92.0637147 11.8288321,92.1167532 12.5981398,91.3473323 C13.3667842,90.868533 12.6657858,90.3737496 12.6114037,89.8855051 C13.8230633,88.2391332 14.4345303,89.1415136 14.9332539,90.5379508 C15.0154902,92.9363064 15.5128874,95.7604228 11.767818,94.3182126 C11.5861022,94.2484634 11.3805114,93.9636541 11.2239971,94.3588996 C11.4289247,94.4206567 11.5794703,94.5950297 11.551616,94.8674876 C11.4375463,95.9921936 10.8545968,96.2188785 9.96790333,95.8120081" id="Fill-38" fill="#DCC36A"></path>
            <path d="M70.034508,96.976151 C68.350558,95.8721462 66.5033838,97.1267919 64.6474878,96.6852942 C62.8619899,96.261519 62.7791318,95.670423 63.2320477,94.5231545 C63.7671987,93.6917628 64.7720864,93.432181 65.7103138,93.0891993 C66.2703845,92.9620146 66.8229792,92.9521109 67.3519003,93.1835453 C68.083294,93.6875928 67.3512773,94.1499405 67.3026838,94.6305318 C68.435908,95.9831722 70.4369615,95.0105221 71.7651825,95.8090751 C71.9296526,95.9232286 72.0075268,96.054062 71.9994279,96.2005329 C71.990706,96.35378 71.9657862,96.4298823 71.9234227,96.4298823 C71.3583681,96.7697365 70.7870835,97.091347 70.034508,96.976151" id="Fill-40" fill="#C1A151"></path>
            <path d="M81.242729,92.3433719 C81.4601875,92.342831 81.6782913,92.34229 81.8963951,92.3417491 C82.619106,91.9079035 83.3250397,91.8408251 84,92.4120732 C81.9964132,93.4685575 79.7985978,94.0987696 77.4962475,94.499076 C76.5057464,94.8972186 75.4416837,94.9745751 74.3672966,95 C74.0085222,94.9556417 73.6839476,94.8398774 73.3955086,94.6559529 C72.9405879,94.1474555 72.8928373,93.5994685 73.1767595,93.02227 C74.6486376,91.8224326 76.5541422,92.0453059 78.2273469,92.2800802 C79.2785041,92.4272199 80.2490015,92.21192 81.242729,92.3433719" id="Fill-42" fill="#644D27"></path>
            <path d="M10.7986464,98.0600351 C12.8906937,97.7938849 14.8588832,98.4900596 16.8974619,98.639987 C17.9871404,98.5417787 17.9796954,99.1932077 18,99.8272032 C17.7996616,100.500133 17.2216582,100.800569 16.4954315,100.954565 C15.5011844,101.152724 14.5035533,100.617518 13.5072758,100.961538 C11.8450085,101.152143 11.1972927,99.7911741 10,99.2704958 C10.6341794,99.0456047 11.2196277,98.7980501 10.7986464,98.0600351" id="Fill-44" fill="#F7DAAF"></path>
            <path d="M20.7159297,70.678756 C20.9476768,70.5564794 21.1794238,70.4349393 21.4111709,70.3126627 C22.6516993,70.0600067 23.9066173,69.6371947 25.0486911,70.605832 C25.4069145,70.9954967 25.6734994,71.4352507 25.8582912,71.9265671 C26.02112,72.4561871 26.0415683,72.98949 25.9302388,73.530159 C25.4637153,74.853104 24.5988292,75.7495539 23.1303404,76 C22.1139856,75.9933705 21.2559155,75.6265406 20.5470421,74.9201352 C20.2175977,74.4369214 20.1191431,73.8852033 20.0479528,73.3246459 C19.8760359,72.3486425 20.1820026,71.4868131 20.7159297,70.678756" id="Fill-46" fill="#E1CAA9"></path>
            <path d="M23,103.130506 C24.276613,103.087236 25.5525944,103.043967 26.8292074,103 C32.5534366,103.057925 38.2770341,103.116548 44,103.175171 C36.9978944,104.219215 29.9976839,104.344835 23,103.130506" id="Fill-48" fill="#F8DFD1"></path>
            <path d="M8.1891278,83.2740806 C8.36495304,82.9688797 8.5401999,82.6629177 8.71602514,82.3577168 C9.08271329,82.0707823 9.49046589,82.0235941 9.90400222,82 C10.5928438,82.1514588 11.2458264,82.4170825 11.7808209,83.0457507 C12.0144834,83.5290489 12.052656,84.0473577 11.9364031,84.5915439 C11.6373846,85.387654 11.1891459,86.0528549 10.8236145,86.794927 C8.31232114,88.6664707 8.01098908,88.5035954 8,85.2727279 C8.18160896,84.6280766 7.97860022,83.9164486 8.1891278,83.2740806" id="Fill-50" fill="#BBA154"></path>
            <path d="M40,64.6410069 C41.2729031,63.1042341 43.1125405,62.6876154 44.8365179,61.9696687 C46.7423385,61.1763901 47.5089076,60.0057963 45.0652677,58.7474244 C45.6236488,58.4985013 46.1820298,58.2495782 46.7397683,58 C47.1291571,59.5112254 47.0854633,61.0073844 46.5823421,62.4858567 C44.6951556,64.179189 42.7604199,65.7205472 40,64.6410069" id="Fill-52" fill="#F7E1D9"></path>
            <path d="M106.397179,79 C106.108362,77.8171596 105.585703,76.8831259 104.050247,77.920717 C103.599598,78.225337 103.456351,79.0336225 102.726177,78.3988293 C102.321213,78.0464652 102.030847,77.4506741 102.001423,76.9503709 C101.961934,76.2954041 102.752504,76.0109576 103.326267,76.0015433 C105.119568,75.9733004 106.800594,76.3256644 108,77.6409776 L106.397179,79 Z" id="Fill-54" fill="#1B100B"></path>
            <path d="M24.006028,68.0277166 C24.7818204,67.4822187 25.4644311,66.6903463 26.6526794,67.2281248 C28.0684645,66.7044984 29.1526959,67.1078323 30,68.1763133 L29.9819415,68.1705238 C30.0888477,69.7484792 28.6918434,69.7369002 27.5548813,70 C27.2247722,69.9871345 26.9026088,69.9228069 26.5970593,69.8089471 C26.092144,68.8086533 23.8695058,69.7767833 24.006028,68.0277166" id="Fill-56" fill="#F9E6E1"></path>
            <path d="M23.2781975,70.8659364 C22.6984103,69.8633758 21.6207388,71.0210656 21,70.1967515 C21.7926274,69.2215666 22.7070316,68.4465288 23.8218828,68 C24.3370098,68.7330616 25.6803273,69.1485646 24.5762528,70.5057933 C24.198529,70.8768867 23.8062566,71.1871452 23.2781975,70.8659364" id="Fill-58" fill="#F1D4AC"></path>
            <path d="M19.9372873,71 C19.9581915,71.7345455 19.9790958,72.469697 20,73.2042424 C19.513369,73.6654545 20.0350024,74.5557576 19.5085075,75 C19.0058337,74.2369697 18.5031599,73.4745455 18,72.7127273 C18.5298979,71.9393939 19.1322314,71.2915152 19.9372873,71" id="Fill-60" fill="#D6C68B"></path>
            <path d="M81.7391701,91.8651598 C81.8142475,91.5919022 79.9907457,91.2491031 81.8108656,91.0437509 C83.6039307,90.8416712 85.2502228,91.4033218 87,91.4364563 C86.6049981,91.8958399 85.8562531,91.8254802 85.1913784,91.8798862 C84.0368095,92.1645977 82.8903571,91.8520696 81.7391701,91.8651598" id="Fill-62" fill="#4F2635"></path>
            <path d="M62.1037179,99.4093354 C63.1588123,98.9912986 64.2184277,98.5388194 65,100.009039 C63.9087374,100.304839 62.8163446,100.601989 61.7245169,100.898465 C61.3628348,101.070677 61.0175415,101.075404 61.0005876,100.497987 C60.9745917,99.6200421 61.8183281,99.898283 62.1037179,99.4093354" id="Fill-64" fill="#FBF0A9"></path>
            <path d="M50,103 C50.237106,102.790632 50.474212,102.580647 50.7113181,102.371279 C52.2815186,100.692022 54.4383954,100.985753 56.5408309,101.081816 C56.9247851,101.139701 57.2815186,101.259779 57.6146132,101.432816 C57.7442693,101.554743 57.8717765,101.678516 58,101.802906 C55.4011461,102.534463 52.7378223,102.9532 50,103" id="Fill-66" fill="#FBE3D7"></path>
            <path d="M59.8108066,100.433736 C58.9803197,100.622491 58.15034,100.811245 57.319853,101 C57.3203603,100.999505 57.2062127,100.943522 57.2062127,100.943522 C56.7278076,100.167697 57.1529439,99.6668284 57.755643,99.2179791 C58.4440797,98.9182508 59.1188187,98.9063608 59.7712355,99.316072 C60.0624386,99.6787185 60.075629,100.051769 59.8108066,100.433736" id="Fill-68" fill="#FCE4C0"></path>
            <path d="M16.6595042,101.100153 C17.2085626,101.079217 17.7161575,100.973182 18.0097466,100.427474 C18.9212773,99.9520057 19.8120762,99.5373218 20,101.136624 C19.4088091,102.219935 17.7977472,101.791068 17.2901523,103 C16.8634784,102.856144 16.4368044,102.712288 16.0107993,102.568432 C15.9379036,101.948432 16.2428617,101.499303 16.6595042,101.100153" id="Fill-70" fill="#F8E4B2"></path>
            <path d="M29.8952741,67 C28.9283112,66.7472556 27.9619721,66.4945111 27,66.2448302 C27.0087339,65.4212407 27.8159919,65.2512127 28.5234345,65 C28.5970484,65.8424815 30.4542411,65.8654583 29.8952741,67" id="Fill-72" fill="#FBF5C2"></path>
            <path d="M24.6765477,70.6986399 C25.6307906,69.6172425 23.8630384,69.2198888 24.0085776,68.3423454 C24.0902718,68.1255482 24.2522871,68.0116488 24.4946236,68 C24.9271222,68.5759687 25.4014977,68.6846909 26.1683246,68.4407131 C27.4713125,68.0258862 26.8740525,68.9157255 26.7951044,69.4153298 C26.8253106,70.9225558 26.1285073,71.3645632 24.6765477,70.6986399" id="Fill-74" fill="#FAE0BD"></path>
            <path d="M10.3014248,82 C9.86761656,81.9749738 9.43380828,81.9499476 9,81.9243255 C9.14914094,81.7187532 9.29828187,81.5137767 9.44742281,81.3088003 C10.6931519,80.7266432 10.9809134,78.8615957 12.7712235,79.0081777 L12.7767931,79.0159239 C13.5113586,81.2098872 12.3677385,81.9600773 10.3014248,82" id="Fill-76" fill="#D6AC4C"></path>
            <path d="M12,79.5163987 C10.805809,80.0340836 10.3645504,81.755627 9,82 C9.58201452,80.2778135 10.7337554,79.1118971 11.9430274,78 C11.9620182,78.5048232 11.9810091,79.0102894 12,79.5163987" id="Fill-78" fill="#C0A052"></path>
            <path d="M7.47530703,83 C7.65037889,83.3180978 7.82492814,83.6366997 8,83.9547975 C7.11680167,84.3782558 7.74653776,85.8714502 6.44577998,86 L6,85.5039489 C6.32923961,84.5804067 6.73634701,83.6992102 7.47530703,83" id="Fill-80" fill="#D6A249"></path>
            <path d="M7,96 L9.0945072,96.9172397 C9.59683737,97.1937396 10.4203073,97.3749111 9.74489969,98 C8.43802996,97.5973441 7.50030191,96.9466445 7,96" id="Fill-82" fill="#F5C3A9"></path>
            <path d="M60.318246,100.974677 C60.3056942,100.672142 60.2925718,100.369607 60.2800199,100.067072 C59.946825,99.7866853 59.9337026,99.469542 60.12141,99.1278943 C60.3581838,98.9497663 60.5909638,98.9620185 60.8203205,99.1377903 C61.2105694,99.2900002 61.6013887,99.4417389 61.9916375,99.5934776 C62.1251437,100.005811 60.6012335,100.000627 61.6082352,100.632558 C61.2642,100.968079 60.8214616,101.048661 60.318246,100.974677" id="Fill-84" fill="#FCE1A8"></path>
            <path d="M73.1551666,95.9990551 C73.152304,95.892832 73.1477239,95.7861645 73.1419988,95.679497 C72.9456257,95.4874954 72.9576485,95.2968272 73.148869,95.1070479 C73.5473403,94.9528245 73.9750099,95.012825 74.3940918,95.0057138 C74.9374098,95.0439363 75.5259565,94.8883795 76,95.2279378 C75.1635537,95.7337196 74.2280621,96.0186108 73.1551666,95.9990551" id="Fill-86" fill="#B89D58"></path>
            <path d="M14.9994695,101.012508 C15.0094868,101.411959 14.87876,101.753695 14.5126247,102 C14.0087504,101.820952 13.5048761,101.641904 13,101.462855 C13.5214047,100.782109 14.3082701,101.071131 14.9994695,101.012508" id="Fill-88" fill="#FCEAD7"></path>
            <path d="M9.55316875,99.4911822 C9.36935539,98.9934683 9.1849658,98.4970607 9,98 C9.5975375,98.2129327 10.1956512,98.4265186 10.7937649,98.6394513 C11.2092177,99.5048988 11.0040843,99.9725669 10.1138283,100 C9.92713388,99.8308295 9.73986321,99.6610059 9.55316875,99.4911822" id="Fill-90" fill="#F2E7B7"></path>
            <path d="M82,92.382388 C83.0056818,91.5745243 84.0001959,92.2785117 85,92.402147 C84.6385188,92.6019959 84.2776254,92.8007157 83.916732,93 C83.2784091,92.9757246 82.6394984,92.9514491 82.0011755,92.9266092 C82.0011755,92.7453903 82.0011755,92.5636068 82,92.382388" id="Fill-92" fill="#5A391D"></path>
            <path d="M6,92 C6.57916034,92.0934524 6.97369752,92.4041667 6.9908953,93.160119 C6.9939302,93.7732143 6.9969651,94.3863095 7,95 C6.35609509,94.1434524 6.00050582,93.1535714 6,92" id="Fill-94" fill="#E9C092"></path>
            <path d="M75.8128654,95.9999882 C75.2700673,95.9692489 74.7267291,95.9385096 74.183931,95.9068097 C74.0148805,95.7041223 73.962491,95.5129623 74.0262225,95.3333294 C74.0877936,95.1584996 74.1482846,95.0710847 74.2093156,95.0710847 C75.1393637,95.0470696 76.0694118,95.0230545 77,95 C76.7213096,95.7694434 76.2984132,96.0019094 75.8128654,95.9999882" id="Fill-96" fill="#93703F"></path>
            <path d="M17,68.5550312 C16.82891,68.6841242 16.6123223,68.9043087 16.3611374,68.9987534 C16.2943128,69.0239014 16.1232227,68.6623293 16,68.4779108 C16.1890995,68.3348467 16.3682464,68.1655169 16.5696682,68.054307 C16.8383886,67.9062133 16.9772512,68.0571012 17,68.5550312" id="Fill-98" fill="#E40D35"></path>
            <path d="M20,103.150151 C21.0293375,103.198488 22.1618418,102.418948 23,104 C21.9665825,103.985938 20.924422,104.040427 20,103.150151" id="Fill-100" fill="#F8DFD1"></path>
            <path d="M174.479484,112.532608 C169.907226,114.079614 165.136794,113.788451 160.409105,113.790405 C153.191284,113.794314 153.191284,113.791708 153.191284,106.577126 L153.191284,103.004357 C153.191284,102.788102 153.178979,102.570544 153.193227,102.35494 C153.406944,99.0505364 151.774272,94.6843982 153.853808,92.719864 C155.918448,90.7696599 160.213521,92.2111434 163.528084,92.162942 C166.430108,92.1206029 169.347675,92.1564283 172.236746,92.4052519 C177.428137,92.8520922 180.763424,95.9070211 181.332042,100.475084 C182.084587,106.525016 179.742114,110.751761 174.479484,112.532608 M153.502145,68.8744831 C158.768014,68.2335343 164.038415,68.8243276 169.306874,68.8067405 C172.532065,68.7559336 175.017663,69.9609695 176.038326,73.2054473 C177.172971,76.8120872 175.890019,80.9684841 173.212075,82.876349 C171.589765,84.0325321 169.75309,84.7138659 167.784299,84.766627 C163.58119,84.8786627 159.374194,84.8232962 155.171084,84.917745 C153.838265,84.947708 153.125873,84.5861973 153.187398,83.1271268 C153.385572,78.3786339 152.806592,73.612554 153.502145,68.8744831 M177.518157,86.7226934 C178.143767,86.2042022 178.45139,85.9319293 178.7765,85.683757 C184.397269,81.3912237 186.147161,76.3678524 184.205571,70.0866841 C182.670691,65.1232389 177.821248,61.9966592 171.342371,61.4553701 C163.485988,60.8000911 155.623777,61.1557396 147.765451,61.0033188 C146.025273,60.9694475 144.989715,61.1563909 145.000077,63.391244 C145.081031,81.8126606 145.062249,100.234728 145.033106,118.656145 C145.030516,120.200545 145.290215,121.040813 147.126889,120.998474 C155.845913,120.797201 164.583719,121.270747 173.281371,120.38358 C182.197274,119.474267 188.781714,113.054356 189.837997,104.436721 C190.882622,95.9115807 186.886753,90.0205835 177.518157,86.7226934" id="Fill-102" fill="#030304"></path>
            <path d="M175,112 L161,112.983906 C165.704041,112.982377 170.450612,113.210138 175,112" id="Fill-104" fill="#030304"></path>
            <path d="M169,68.6542511 C163.670382,69.3958261 158.332896,68.7134598 153,68.7152185 C154.921652,67.5292846 157.093099,68.1694427 159.115719,68.1975815 C162.407638,68.2438933 165.764465,67.5750102 169,68.6542511" id="Fill-106" fill="#FCF3F8"></path>
            <path d="M433.412267,102.060142 C431.683009,112.884108 421.088923,117.69353 411.174727,112.24346 C410.234956,111.726514 409.996731,111.126882 409.996075,110.198463 C409.996075,102.832306 410.007888,95.4641966 409.941605,88.0980401 C409.930449,86.8037216 410.560463,86.0615068 411.533704,85.4996372 C412.945986,84.6851541 414.360894,83.8485348 415.855209,83.205933 C425.535774,79.0443215 432.655594,83.2547629 433.527113,93.6386086 C433.625553,94.8189906 433.540239,96.013696 433.540239,97.2018908 C433.622928,97.2031929 433.706274,97.2051461 433.789619,97.2064482 C433.670835,98.8249974 433.66821,100.462427 433.412267,102.060142 M441.053817,89.0258086 C438.023841,75.5585162 427.074716,70.3421784 414.731683,76.6796512 C413.226211,77.4524661 411.797523,78.3717707 409.940949,79.4512375 C410.933222,75.1828513 408.539823,75.0435232 405.759884,75.348873 C405.437658,75.3846816 405.099682,75.3736135 404.779424,75.3208772 C402.632125,74.9679996 401.988986,75.8371722 402.000142,77.9843867 C402.106457,99.0919343 402.113676,120.200133 402.148458,141.307681 C404.769581,142.180108 407.384797,142.30316 409.989512,141.241272 L409.989512,118.34069 C411.090069,118.839406 411.662332,119.130432 412.257564,119.364816 C424.663598,124.26734 436.353647,119.209211 440.432334,106.963969 C442.382754,101.109587 442.422129,95.110668 441.053817,89.0258086" id="Fill-108" fill="#030304"></path>
            <path d="M301.076255,96.9063327 L301.101779,96.9063327 C301.101779,99.6105861 300.809233,102.354522 301.172462,105.009335 C301.669857,108.639943 300.086047,110.617554 296.977983,112.022699 C294.991022,112.921081 293.051182,113.814259 290.862644,114.131718 C284.155667,115.104911 279.81197,112.466361 278.146352,105.977324 C276.978783,101.428167 276.906137,96.7423991 277.978808,92.1503076 C279.726889,84.6666099 284.726362,81.1739141 292.564913,81.8075304 C293.967435,81.9213732 295.356869,82.242735 296.741066,82.5205113 C299.820333,83.1372138 301.804677,84.3524039 301.169844,88.1599563 C300.69601,91.002122 301.076255,93.9854528 301.076255,96.9063327 M308.967163,60.3335337 C308.971744,58.6538651 308.558121,57.8920944 306.780589,58.0742429 C305.811978,58.1731234 304.815225,58.1347421 303.843996,58.0378132 C301.809913,57.8335467 300.949289,58.4196743 301.059239,60.7101906 C301.267359,65.0336133 300.958451,69.3811055 301.143665,73.7064798 C301.259506,76.4269964 301.082145,77.337088 297.931541,76.0698554 C286.145246,71.3261904 274.40411,76.8849696 270.539482,88.921727 C268.398067,95.5916115 268.555139,102.420225 270.610165,109.062788 C274.371386,121.222495 286.264359,125.529655 297.217518,118.881238 C298.398176,118.164353 299.543494,117.389572 301.393672,116.199102 C299.678314,121.621921 303.099212,120.539439 305.74784,120.758017 C308.109157,120.952525 309.011667,120.329317 308.999886,117.810465 C308.906952,98.6523553 308.919387,79.492294 308.967163,60.3335337" id="Fill-110" fill="#030304"></path>
            <path d="M475.136945,110.126325 C471.403705,113.15456 467.119616,114.790388 462.304052,114.603852 C457.715156,114.425915 454.806573,112.309194 454.283493,108.932362 C453.527934,104.04869 455.543406,100.698317 460.337659,99.1292972 C464.876184,97.644285 469.633628,97.6045965 474.320037,97.1144432 C475.704584,96.9695801 476.265119,97.5477096 476.181814,98.9923718 C476.092696,100.526995 476.161795,102.070878 476.161795,103.868107 C475.638069,105.763895 477.313216,108.360848 475.136945,110.126325 M483.949227,103.418304 L483.961497,103.418304 C483.961497,98.679494 484.060947,93.937377 483.940186,89.2018748 C483.723851,80.7720326 479.511443,75.9697214 471.436639,74.5812846 C465.838393,73.6181764 460.298912,73.8966576 454.772993,75.0859903 C448.754345,76.3811591 450.171181,75.6899173 449.899309,81.0346383 C449.750134,83.9610054 450.538629,84.3433382 453.141113,83.4126423 C458.564354,81.473858 464.150976,80.4234351 469.928749,81.6908219 C472.876724,82.3370833 475.065264,83.82408 475.87959,86.9985003 C476.468539,89.2905125 476.374255,90.8449796 473.361703,90.6908559 C471.339773,90.5876657 469.284263,90.902528 467.261041,91.1631493 C462.154877,91.8206558 456.993177,92.2261402 452.431403,95.118772 C447.174773,98.451285 444.986878,104.068534 446.439232,110.86387 C447.673313,116.63855 452.385553,121.13989 457.968947,121.809965 C463.733804,122.501207 469.064698,121.33238 473.876387,117.881463 C474.476315,117.450842 476.021661,115.987659 475.949979,117.4859 C475.723311,122.198912 478.814003,120.695379 481.089078,120.958646 C483.358341,121.221252 484.064821,120.251529 483.995077,117.955548 C483.846549,113.11421 483.949227,108.264934 483.949227,103.418304" id="Fill-112" fill="#030304"></path>
            <path d="M249.602176,113.353138 C246.741187,114.482343 243.750625,114.761339 240.709528,114.36334 C237.585505,113.954764 235.163124,112.586892 234.353288,109.220433 C233.45275,105.477794 234.640293,102.398264 237.72674,100.397694 C241.033463,98.2543202 244.839044,98.0698658 248.565586,97.5905487 C248.991236,97.5356752 249.426603,97.5641036 249.856788,97.5376585 C256.194241,97.1542049 256.194241,97.1535438 256.192945,103.563831 C256.191002,110.091799 255.626708,110.974403 249.602176,113.353138 M263.922668,117.267671 C263.957005,107.908758 263.955062,98.5491828 263.935626,89.1902692 C263.919429,81.1985662 259.830081,76.1541674 252.120442,74.6910933 C246.431506,73.6121341 240.765245,73.85609 235.086027,75.0097565 C228.782911,76.2903595 230.335205,75.8050923 230.037833,81.1093141 C229.860317,84.2668566 230.962342,84.1405813 233.350387,83.316156 C238.807386,81.4319441 244.404972,80.4190975 250.198863,81.7089563 C253.221819,82.3819836 255.302774,84.128681 256.051062,87.1625928 C256.511697,89.0296154 256.531133,90.4840947 253.589808,90.6811106 C246.851325,91.1333214 239.969662,91.2265403 233.675617,94.3397873 C227.684774,97.3029585 225.097186,102.931794 226.279546,110.353605 C227.237744,116.371844 232.323515,121.166998 238.433565,121.84862 C244.860424,122.564621 250.557135,120.741232 255.834026,116.367216 C256.034865,117.003881 256.176749,117.219409 256.152778,117.413119 C255.534711,122.398678 259.21331,120.533638 261.479555,120.887341 C264.689745,121.389137 263.91619,118.971395 263.922668,117.267671" id="Fill-114" fill="#030304"></path>
            <path d="M345.724949,92.9943862 C342.380806,92.8026153 339.018411,92.9467741 335.663186,92.9467741 C335.663838,92.9414839 335.663838,92.9361936 335.663838,92.9309034 C332.091537,92.9309034 328.518585,92.8859365 324.947588,92.9520643 C323.428057,92.9804993 323.175779,92.4091545 323.405241,90.9715345 C324.319828,85.2322963 329.665893,80.8222284 336.00803,80.709811 C343.088095,80.584168 346.629106,83.4197313 347.984363,90.0622762 C348.415908,92.1783682 348.171453,93.1352385 345.724949,92.9943862 M331.864683,74.5533059 C320.942439,76.5569805 314.456889,86.4874034 315.035758,98.9941682 C315.618538,111.605415 321.332264,119.198879 332.232995,121.370518 C338.285046,122.576691 344.298636,122.019894 350.183154,119.954059 C355.332351,118.146123 355.364293,118.239363 355.098326,112.55435 C355.082681,112.225695 355.019449,111.893733 355.046828,111.569706 C355.211753,109.62753 354.564437,109.452291 353.040342,110.458758 C349.255529,112.958391 345.054816,114.363609 340.592048,114.937599 C331.472252,116.108723 324.240299,110.490499 323.195336,101.67896 C322.931976,99.4590471 323.623621,99.0583122 325.588386,99.1105532 C330.14698,99.2328898 334.710138,99.1495687 339.270688,99.1475849 C344.048314,99.145601 348.82594,99.1535364 353.603566,99.1383269 C354.671997,99.1350206 355.806919,99.2970338 355.915131,97.6068054 C356.931412,81.7526476 348.814858,71.4439733 331.864683,74.5533059" id="Fill-116" fill="#030304"></path>
            <path d="M47,73.7906855 C47.0052038,72.8602241 47.0110581,71.9297628 47.0162619,71 L48.2911926,72.3873095 C49.5583177,71.4645321 51.002372,72.371243 52.3358455,71.9269686 C53.2172389,71.6335799 54.1480685,71.8361578 54.3594728,72.9671015 C54.6203132,74.3613964 53.1099106,73.7613466 52.6285592,74.4815461 C54.6703998,73.9681158 55.3364861,70.4795843 58.0808396,71.736266 C59.06761,72.2455049 60.1890287,72.5340038 60.8115332,73.6397999 C60.8967454,73.9674173 60.8694254,74.2887478 60.7347771,74.5968059 C60.3347351,75.0166312 59.805899,75.0941696 59.289422,75.2038411 C60.167563,75.210128 61.0736746,75.3260864 61.7404113,74.4913257 C62.020766,74.104332 62.330392,73.7578539 62.7668607,73.5699454 C63.0947,73.5685483 63.3620452,73.7033674 63.5734495,73.9723071 C64.0691114,74.9160408 64.0580533,75.9247391 63.9123469,76.9502025 C63.8414452,77.2722315 63.7191559,77.5753999 63.5552362,77.8562148 C61.852293,78.9794744 59.79354,78.1321399 58.0405102,78.9997322 C57.1187873,79.0151002 56.3980611,78.3647552 55.5465895,78.1426181 C53.293995,78.1475079 50.9926148,76.7979198 48.8024659,78.6490629 C48.2690765,79.0989255 47.6368149,78.4422937 47.3636155,77.7367637 C47.128794,76.432581 47.6973091,75.044573 47,73.7906855" id="Fill-118" fill="#231411"></path>
            <path d="M58.211405,72.7321959 C56.7738308,72.004857 55.4485672,73.1218418 54.8788467,73.9630184 C53.8258509,75.5170176 52.7204435,74.8347554 51.5496918,74.9348409 C51.9186148,73.6398415 53.4392306,74.8523277 53.8013468,73.1348299 C51.9288248,72.3173377 49.9194882,72.9209067 48,72.7291399 C48.7752826,70.1857458 51.3693144,73.3785496 52.2746049,70.8458517 C51.6429436,70.5478872 50.9969881,70.2422826 50.3510327,69.936678 C50.3700915,69.6241974 50.3898309,69.3117167 50.4088896,69 C54.5868395,69.2238554 58.7641087,69.4477107 62.9420586,69.6715661 C63.9106514,70.068852 64.2047006,70.8175832 63.8630045,71.8963674 C62.1102803,73.2815201 60.1125151,72.5954379 58.211405,72.7321959" id="Fill-120" fill="#0D0A09"></path>
            <path d="M83.8939161,49.8868498 C84.1501332,49.5917051 84.4056596,49.2958525 84.6618766,49 C84.7102195,49.3100082 84.7592529,49.6200163 84.8082864,49.9300245 C84.8027615,50.1671312 84.7979272,50.4035301 84.7930929,50.6406368 C87.3476667,51.5239477 87.6273646,52.3853174 85.9277685,54.2319185 C85.3034552,54.9106807 84.5265167,55.3940952 83.7157382,55.8131017 C83.2578624,56.0091571 82.7875557,56.0664874 82.3055085,55.9100677 C81.6031561,55.2560779 81.692245,54.1455692 80.9740085,53.5000728 C78.6134967,50.536593 81.0630975,50.7687452 82.8400422,50.5528719 C83.2323098,50.4014068 83.6888043,50.3539854 83.8939161,49.8868498" id="Fill-122" fill="#372517"></path>
            <path d="M62.5575479,71.7335719 C62.3716986,71.0924791 62.1858493,70.4520286 62,69.8115782 C63.1309012,67.1887506 62.3351828,64.3732097 62.5891586,61.6636611 C62.734677,60.1103922 62.1907544,58.4774684 62.9772076,57 C63.1080107,57.1175551 63.2388137,57.2351102 63.3712518,57.3513805 C63.6633785,57.8479384 63.7789212,58.4145154 63.8481378,59.0010061 C63.7789212,64.8524234 64.4318463,70.7269662 63.4649939,76.5526884 C63.2704244,76.9413268 62.9875629,77.0762261 62.6180443,76.9593134 C62.5929737,75.8634173 62.5673581,74.7668788 62.5417425,73.6709826 C62.1384332,73.0202542 62.0997373,72.3746647 62.5575479,71.7335719" id="Fill-124" fill="#51151C"></path>
            <path d="M63.2741688,52.0841338 C64.1799669,52.05631 65.0857651,52.0278238 65.9915632,52 C66.4352077,52.6346472 66.7649043,53.3395164 66.9835452,54.113945 C67.0390731,54.6220603 66.9586734,55.0897648 66.6717795,55.4958596 C66.1888028,55.9072541 65.6445141,55.9814508 65.0695695,55.874793 C64.4535573,55.2268963 63.8589465,55.3097052 63.2822666,55.9556144 C63.2822666,55.9556144 63,56 63,56 C63.0913896,54.6949321 63.1827792,53.3898642 63.2741688,52.0841338" id="Fill-126" fill="#AB8E48"></path>
            <path d="M90.4614876,57.9969666 L90.1662043,57.9449212 C89.2275069,56.6017511 87.665874,56.7558854 86.3479984,56.3248432 C85.9410754,56.1994006 85.5486854,56.0332559 85.156956,55.8697801 C84.3926542,55.4767711 83.550403,55.3833564 82.722024,55.2285549 C82.4445766,55.1344729 82.2041221,54.9803386 82,54.7701555 C82.3620029,53.888721 83.2035936,53.5584333 83.8892852,53.0259694 C85.4839477,51.7875572 85.0195534,50.7840163 83.4242304,50 L88.7934998,50 C87.6381292,51.3324941 85.8928524,52.0224285 88.2716343,53.7445954 C89.0821773,54.3317736 87.0336901,53.8400119 87.4062624,55.1558248 C88.7875545,55.6656023 90.9714625,55.4220568 92,57.3644155 C91.6062888,57.8708567 91.0705509,58.0243237 90.4614876,57.9969666" id="Fill-128" fill="#241B1B"></path>
            <path d="M91,58.5291163 L92.6663487,58 C94.0457906,59.0565581 96.3646554,59.2865116 97,61 C95.0002385,60.1778605 93.000477,59.3534884 91,58.5291163" id="Fill-130" fill="#98804C"></path>
            <path d="M88,80.4223802 C89.5521488,78.7241917 91.2128676,77.1582587 93.2086789,76 C93.1858926,76.5303857 93.1141828,77.5243475 93.1490324,77.5284379 C96.7774148,77.9327035 95.0898886,81.1750097 96,83 C93.4077239,82.8009349 94.1033761,79.7467861 92.6597973,78.8837164 C90.9508252,77.8624854 90.3644132,82.2344176 88,80.4223802" id="Fill-132" fill="#24170F"></path>
            <path d="M93,76.5263052 C93.5,75.6842035 94,74.8421017 94.4995247,74 C94.6663498,74.6844571 94.8331749,75.3695794 95,76.0547017 C94.3659696,76.4804087 93.8208175,77.6484424 93,76.5263052" id="Fill-134" fill="#24170F"></path>
            <path d="M95,76 C96.1096076,76.1531712 96.9653586,76.1127828 97,77.9782705 C95.8893099,78.1718301 95.5066306,77.0363821 95,76" id="Fill-136" fill="#24170F"></path>
            <path d="M34,67.2293191 C32.2816189,68.4145965 30.0692032,68.9659001 28.112531,69.8453485 C27.8098006,70.0466986 27.501029,70.0512632 27.1875587,69.8600567 C26.9022805,69.4746006 26.9277878,69.1180538 27.3654379,68.8015741 C28.3803568,68.6590568 29.4033305,68.5287118 29.9953665,67.769972 C30.6706366,67.5929665 31.3459067,67.415961 32.0211768,67.2389555 C32.6783233,66.962543 33.3374835,66.8844374 34,67.2293191" id="Fill-138" fill="#E1CE99"></path>
            <path d="M39,64.0206392 C37.7477128,65.2391758 35.7472493,65.5543732 33.8085286,65.9433919 C33.0058735,66.1196887 32.8889256,65.8671423 33.0799647,65.422272 C35.1276432,65.0959043 36.6741162,63.8234587 39,64.0206392" id="Fill-140" fill="#F1DECA"></path>
            <path d="M33.5054241,65.0398084 C33.6701183,65.2150581 33.8353057,65.3907987 34,65.5665393 C33.8180473,65.7079172 33.6356016,65.8492951 33.454142,65.990673 C32.969428,65.9936184 32.484714,65.9970546 32,66 C32.5350099,65.7309893 32.6420118,64.797306 33.5054241,65.0398084" id="Fill-142" fill="#F7F4BF"></path>
            <path d="M81,92.3995901 C78.5319968,93.550557 75.8625501,92.6364101 73.3124298,92.9373236 C73.1218925,92.7727445 73.0141139,92.5761188 73,92.3447304 C73.1764234,91.4957633 74.2811548,91.2888174 74.6814755,90.5924797 C74.9047314,90.3127496 75.1722534,90.0694116 75.4936648,89.8695268 C75.9344026,89.6109802 76.4065758,89.4007753 76.8960706,89.2160992 C77.4022454,89.0558655 77.9084202,88.8548944 78.4396151,89.1541783 C78.6955894,89.4263041 79.2267843,89.8814765 79.1684042,89.9444836 C77.0141139,92.2659715 80.1242983,91.7369286 81,92.3995901" id="Fill-144" fill="#4E381D"></path>
            <path d="M74,87.5359265 C74.0420639,87.2506211 74.0841279,86.9653156 74.1261918,86.6804921 C74.235558,86.4785614 74.3976444,86.4284401 74.619742,86.5547071 C75.7229389,86.370126 76.8261357,86.185063 77.9287717,86 C77.9523275,86.185063 77.9764442,86.3706079 78,86.5561529 C77.8827818,87.0670039 77.3998878,87.2723081 76.9377454,87.4964079 C76.087493,87.8443649 75.2467751,88.257865 74.273696,87.791834 C74.1822771,87.7070134 74.091419,87.6217109 74,87.5359265" id="Fill-146" fill="#4A1B1B"></path>
            <path d="M78.2784312,88.7326411 C78.6958143,88.4886437 79.1138195,88.2446463 79.5318246,88 C80.1706509,88.4561973 80.1445256,88.908501 79.5218721,89.3549643 C79.105111,89.5697599 78.6877279,89.7852044 78.2709668,90 C77.8853073,89.5756003 77.9325817,89.1524984 78.2784312,88.7326411" id="Fill-148" fill="#56443E"></path>
            <path d="M61,97.692145 C60.79029,97.6914738 60.58058,97.6955012 60.3715421,97.7048985 C59.7639209,98.7164524 58.2058831,97.8693515 57.6930346,99.0681805 C57.4477008,99.7125678 57.2030391,100.356284 56.9577053,101 C56.6888463,100.983219 56.4199874,100.967109 56.1511284,100.950328 C52.8818033,99.9636104 49.5748379,99.6870608 46.2134286,100.418709 C46.0037186,100.406627 45.7946807,100.389846 45.5856428,100.368366 C44.9699558,99.7931162 44.9081182,99.0849614 45.0889259,98.3190802 C45.58161,97.1155526 46.6173892,96.9557982 47.7297932,96.9450584 C50.0171109,97.182005 51.9576005,95.9200798 54.0829307,95.4475291 C55.1879411,95.0917736 56.2983287,94.8145528 57.4638323,95.1541986 C58.1393405,95.3428162 58.6125323,95.8026134 59.035313,96.3295343 C59.6899846,96.7832904 60.3446562,97.2377177 61,97.692145" id="Fill-150" fill="#F7E1B2"></path>
            <path d="M47,101.047922 C50.4719686,99.2804196 53.7647258,99.9787105 57,101.445372 C54.998918,101.473404 53.0018936,101.510946 51.0812876,102 C50.7526205,101.559501 50.3752621,101.012381 49.592818,101.442869 C48.4472172,102.072582 47.7526882,101.569512 47,101.047922" id="Fill-152" fill="#FCF6D4"></path>
            <path d="M44.9668634,99.4397722 C44.9779089,99.9608715 44.9889545,100.481459 45,101.002559 C44.1243351,102.985702 42.5472793,101.377403 41.3089529,101.503203 C40.9610188,101.254671 40.9444505,100.945795 41.0757695,100.611351 C41.8870022,100.268213 42.1999588,99.4878422 42.9713048,99.1027707 C43.7125824,98.9110021 44.3906551,98.968277 44.9668634,99.4397722" id="Fill-154" fill="#FDECC7"></path>
            <path d="M40.8781349,100.386257 L40.874892,101.697681 C40.1830683,102.343069 39.4690847,101.754294 38.7653704,101.75496 C38.5302584,101.588451 38.3405474,101.364663 38.2011017,101.075604 C37.9908522,100.434212 37.8022221,99.7948181 38.4205395,99.3079464 C39.2404586,98.8783537 40.0420012,98.8670311 40.8154384,99.4731231 C41.0386596,99.755522 41.0591981,100.060566 40.8781349,100.386257" id="Fill-156" fill="#FDE8CB"></path>
            <path d="M29.6424848,102 C29.1365402,101.81112 28.6305956,101.622239 28.124651,101.432692 C27.8125159,100.699195 28.1430119,100.20597 28.4964591,99.7180851 C29.0263748,99.2268627 29.5945424,98.8971564 30.2677752,99.0293059 C30.8328826,99.2862632 31.0180216,99.850902 30.9986407,100.581729 C30.9012259,101.634253 30.2259531,101.741708 29.6424848,102" id="Fill-158" fill="#E9E5C5"></path>
            <path d="M35.8771948,102.517704 C35.5337928,102.678128 35.1903908,102.839064 34.8469888,103 C34.4103626,102.753983 33.9937507,102.494128 34.000071,101.917525 C34.0432596,101.666383 34.1596581,101.454194 34.3482132,101.277369 C34.6947753,101.074917 35.0724122,100.997012 35.4732234,101.000087 C35.8850951,101.023151 36.2632587,101.138472 36.5956002,101.382951 C36.8868598,101.688935 37.1375643,102.080512 36.9142477,102.445949 C36.682504,102.8242 36.2500914,102.839576 35.8771948,102.517704" id="Fill-160" fill="#FEF1AE"></path>
            <path d="M29,100.061849 C28.8346738,100.504015 28.6693475,100.945556 28.5040213,101.388347 C28.5029749,101.592232 28.4966967,101.79549 28.4857098,102 C28.1414545,101.979987 27.7971992,101.960599 27.4529439,101.940586 C27.0098068,101.350823 26.8905208,100.680381 27.1008409,99.9267603 C27.7809805,99.0030273 28.4490869,98.3582279 29,100.061849" id="Fill-162" fill="#F0E2B6"></path>
            <path d="M37,102.458256 C37.8291124,102.491438 37.767642,102.004959 37.4779936,101.386316 C37.9491025,100.819976 38.4393902,100.942018 38.9375461,101.3312 C38.9582001,101.533103 38.9788542,101.735568 39,101.937471 C38.4620113,102.755767 37.9220556,103.569564 37,102.458256" id="Fill-164" fill="#FDF2B1"></path>
            <path d="M34.3573958,101.192945 C34.5715972,101.447587 34.7857986,101.702228 35,101.956067 C33.9826908,101.895916 32.8514949,102.258028 32,101.581925 C32.0560582,101.501322 32.1121164,101.420318 32.1681747,101.338913 C32.845594,100.929482 33.5790716,100.903817 34.3573958,101.192945" id="Fill-166" fill="#FEF8D7"></path>
            <path d="M30,101.361734 C30.3608163,100.983143 30.7216327,100.604552 31.082449,100.225961 C31.2560544,99.9887343 31.4628571,99.9323096 31.7077551,100.085202 C31.8634014,100.307867 31.9629932,100.557835 32,100.838138 C31.974966,101.261626 31.890068,101.659632 31.6070748,101.972698 C31.6070748,101.972698 31.6081633,102 31.607619,102 C31.0715646,101.787042 30.5360544,101.574692 30,101.361734" id="Fill-168" fill="#F9E8BC"></path>
            <path d="M59.9056198,94.9090176 C59.6823148,95.1157843 59.4583452,95.3231128 59.2350402,95.5304413 C58.4661001,96.0715182 57.579526,96.0557859 56.6683619,95.9209381 C55.7851108,95.7978895 54.8699591,96.0018468 54,95.7377698 C54.2286218,93.583576 56.5174981,94.8848574 57.6180727,94.1932005 C58.2939691,93.9465414 58.9711947,93.9274379 59.6490849,94.1858962 C60.004645,94.3572653 60.0897135,94.5988677 59.9056198,94.9090176" id="Fill-170" fill="#F4EBD1"></path>
            <path d="M66,93.6355808 C65.2726315,94.0901669 64.5452631,94.5447531 63.8178946,95 C63.6333689,94.9762135 63.4483321,94.9517663 63.2632953,94.9273191 C63.0838811,94.6828469 62.9918739,94.3941054 63.0005635,94.0544872 C63.0751916,93.7254408 63.2336485,93.4869152 63.4652001,93.3256957 C63.8342514,93.184959 64.2002359,93.0270432 64.5897332,93.0012745 C65.1192861,92.9920242 65.6396382,93.0171321 66,93.6355808" id="Fill-172" fill="#F4E38F"></path>
            <path d="M61.9752842,93.1138866 C61.9836876,93.283094 61.9915966,93.451908 62,93.620722 C61.3712308,93.8694176 60.7459219,94.1291314 60.007909,93.9284434 C60.0059318,93.8206229 60.0034602,93.7128023 60,93.6057687 C60.329214,92.6039031 61.2694019,93.1571722 61.9752842,93.1138866" id="Fill-174" fill="#F4E9C6"></path>
            <path d="M57.3144131,95.0746549 C58.2096087,95.0500849 59.1054978,95.025515 60,95 C59.5541357,95.3326394 59.1082714,95.6662238 58.6631005,95.9993356 C58.0591382,96.0083131 57.5168895,95.9303508 57.2145617,95.516914 C57.0037642,95.3945368 56.9482912,95.2882245 57.0481426,95.1979771 C57.1382863,95.1157623 57.2270431,95.0746549 57.3144131,95.0746549" id="Fill-176" fill="#E6D282"></path>
            <path d="M20,76.7439655 C18.8025551,78.0719964 17.6043936,79.4000273 16.4069487,80.7287884 C16.798931,81.8210007 16.1539876,82.4028813 15.3721728,82.9183237 C15.0346525,83.0139653 14.6921159,83.0249166 14.3481461,82.9548282 C12.6368962,81.930514 12.8052981,80.4827486 13.4824887,78.9218194 C15.8544472,78.9225495 16.6728087,75.7722177 19.1637234,76.0131469 C19.6073011,76.0613327 19.8767442,76.3161336 20,76.7439655" id="Fill-178" fill="#C1A856"></path>
            <path d="M13.4330709,79.5660718 C13.9862563,80.4631764 13.2143164,81.6273179 14,82.4784618 C13.8110236,82.7135009 13.5722262,82.871745 13.2841804,82.9543577 C12.6697208,83.0899124 12.138869,82.9200327 11.6813171,82.491261 C11.0639943,82.4697351 10.3997137,82.589 10,81.9129718 C11.2810308,81.3620262 12.1949893,80.5126276 12.2906228,79 C12.7567645,79.010472 13.1845383,79.1012297 13.4330709,79.5660718" id="Fill-180" fill="#B89543"></path>
            <path d="M19.7025888,77 C19.4683925,76.8020214 19.2347983,76.6034483 19,76.4048751 C19.2010837,76.2027348 19.4021674,76.0011891 19.6038531,75.7990488 C20.2570741,75.3561237 19.9253462,74.5517241 20.2805539,74 C20.8537026,74.2134364 21.4274533,74.4268728 22,74.6409037 C21.2335942,75.4274673 20.4677905,76.2140309 19.7025888,77" id="Fill-182" fill="#D3B672"></path>
            <path d="M20.7448564,74.1653193 C21.1720047,75.0056589 21.1494534,75.6938157 20,76 C20.0059695,75.599232 20.0126022,75.1978577 20.0192349,74.7970897 C20.0795928,74.1465238 19.8991824,73.4213824 20.6898047,73 C20.7083764,73.3886419 20.726948,73.7766774 20.7448564,74.1653193" id="Fill-184" fill="#DCC563"></path>
            <path d="M14.2099898,83.0097839 C14.4215601,83.0125794 14.6324774,83.0090851 14.8433948,83 C15.0752079,83.0076874 15.3070211,83.0146759 15.5381812,83.0216644 C15.8803505,83.3864657 16.0246623,83.8288397 15.9965836,84.3383035 C15.9201832,84.6416057 15.820928,84.9400159 15.7040419,85.2279434 C14.7095308,86.8387995 15.2404156,88.4258947 15.7765243,90.0164842 C15.7745653,90.3505359 15.6635562,90.6363668 15.4585158,90.8851584 C14.9916246,91.0836327 14.5750139,91.0472923 14.2439455,90.5979299 C13.7979501,89.5454572 13.1012046,89.4574018 12.2399045,90.0011094 C12.1034286,87.2280607 10.040618,88.3657934 8.80188693,88.2372044 C7.0623088,88.0575992 8.31344682,89.0492716 8.48649044,89.6244276 C8.5289351,89.7662948 8.32193575,90.1534593 8.23508745,90.1513628 C7.95429969,90.145772 7.57295073,90.1052385 7.41623198,89.9088608 C6.78870398,89.12335 7.06818575,88.1428593 7.02900606,87.2315549 C7.93340385,86.4886742 7.61147742,84.7834729 8.97101258,84.3970072 C8.87110437,85.1503707 8.77119617,85.9030354 8.67194096,86.6557001 C9.53520008,86.6990289 10.3501376,86.5955987 10.9417509,85.8065937 C11.4732886,85.0783888 12.5696669,85.1349959 12.927508,84.1663857 C13.2272326,83.6184849 13.7875022,83.4025393 14.2099898,83.0097839" id="Fill-186" fill="#C7AD53"></path>
            <path d="M11,91.0166053 C10.4944072,91.8372483 9.94556301,92.4799265 9,91.5194183 C9.52249565,90.7714651 10.304002,91.0672375 11,91.0166053" id="Fill-188" fill="#CBAF52"></path>
            <path d="M19.7138198,100.319215 C19.2555108,99.4901953 18.4347704,99.6622186 17.6895082,99.6245058 C17.6731885,99.079986 17.5603112,98.5817802 17.0081644,98.2959569 C16.7803698,97.4126836 16.5525753,96.530072 16.3241007,95.6467987 C15.9317501,95.2385743 15.9195104,94.787344 16.1595447,94.3056789 C18.1185779,93.2159777 19.0535556,95.3708998 20.5923589,95.6190103 C21.761251,96.1979347 23.0967391,96.4672173 24.1779133,97.1572952 C25.1924491,97.805029 26.6163351,98.4726116 25.7119567,100.149838 C24.4261074,101.30901 23.0770196,101.035758 21.7095722,100.321862 C21.0452281,99.6483244 20.376124,102.143323 19.7138198,100.319215" id="Fill-190" fill="#EAD7B2"></path>
            <path d="M16.7054704,94.9451189 C16.7074921,95.3990722 16.7088399,95.8523344 16.7108616,96.3062876 C16.4891457,96.3097424 16.2667559,96.3125062 16.04504,96.3138881 C15.1035897,96.3615635 14.0826183,96.0789656 13.3521014,96.9986181 C13.1236464,96.9993091 12.8945175,97 12.6653886,97 C12.1700658,96.2897049 11.1794203,96.3332346 10.6807279,95.6277761 C10.2258397,95.4329286 9.77095138,95.2380811 9.31673702,95.0446155 C11.4038318,94.4179252 10.1294707,93.7311223 9,92.8895469 C11.9968713,93.7794887 13.9579452,93.3918665 14.0711618,90 C14.4775287,90.040766 14.8838956,90.0829138 15.2895885,90.1250617 C15.5470216,90.2383773 15.750542,90.416642 15.9116061,90.6494917 C16.1663435,91.1476656 16.391429,91.6562037 16.4069289,92.2331458 C16.4042332,92.9496595 16.7775786,93.5528576 16.9898598,94.2064949 C17.0343377,94.5091304 16.9312297,94.7530352 16.7054704,94.9451189" id="Fill-192" fill="#DFCFA3"></path>
            <path d="M13,95.994539 C13.3549437,94.6410229 14.1198999,94.8610526 15,95.5230468 C14.4728411,96.2159975 13.690363,95.9292921 13,95.994539" id="Fill-194" fill="#DECD8A"></path>
            <path d="M10.0000003,95.0031946 C10.9840409,94.9876352 11.9524618,94.989141 12,96 C11.0397285,95.9889578 9.99932122,96.0672568 10.0000003,95.0031946" id="Fill-196" fill="#DCCC8B"></path>
            <path d="M21,101.063284 C22.535622,100.98585 24.126615,101.201411 25.5108896,100.312658 C25.9649317,99.8954878 26.4285714,99.905952 26.9003322,100.283358 C26.9335548,100.990733 26.9667774,101.699503 27,102.407575 C24.7674419,102.889623 22.3894426,103.947197 21,101.063284" id="Fill-198" fill="#F4F0D3"></path>
            <path d="M74,95.1773971 C73.9928986,95.3401583 73.9825694,95.5034808 73.9696578,95.6662421 C73.5461588,95.7173155 73.1226598,95.7683889 72.6991607,95.8194622 C70.5629438,96.2033543 68.5823112,96.0591142 67,94.556098 L68.1723693,93.4672812 C68.3253712,92.8993005 68.8037444,92.5855641 69.3473209,92.3195336 C70.0477728,92.0220734 70.7604906,91.8424747 71.5125888,92.1915696 C72.6759199,92.9088417 72.3524855,94.327671 73.3428018,95.1291299 C73.5616527,95.1448448 73.7811491,95.1611209 74,95.1773971" id="Fill-200" fill="#806445"></path>
            <path d="M67.5785829,94 C69.6623251,94.6834951 71.6718817,95.6239482 74,95.4563107 C73.9963635,95.6375405 73.9941815,95.8194175 73.9927269,96 C71.879165,95.9676375 69.7386926,96.163754 67.7284087,95.3197411 C66.796725,94.9288026 66.7719965,94.5171521 67.5785829,94" id="Fill-202" fill="#B58E41"></path>
            <path d="M69.9356621,93.2260198 C69.4500775,93.478133 68.965232,93.7302462 68.4796474,93.9816244 C67.8240712,93.9875046 67.1677559,93.9941198 66.514397,94 C65.6777429,93.9750092 64.8388714,93.9485483 64,93.9228225 C64.0029564,92.062477 65.8344308,93.4112459 66.4138803,92.5630283 C66.8824657,92.5064315 67.3503121,92.4483646 67.8181584,92.3910327 C68.1071441,92.1881661 68.4264326,92.0580669 68.7767631,92 C69.4707721,92.1205439 70.2276041,92.184491 69.9356621,93.2260198" id="Fill-204" fill="#CCBB77"></path>
            <path d="M73.9939678,95 C72.0864611,94.6911485 72.519437,93.004047 72,91.8780259 C72.1575067,91.2275073 72.5851206,90.9431066 73.2727882,91.0093809 C73.8726542,91.3227366 73.5951743,92.0401729 73.9912869,92.4494012 C73.9946381,92.6591628 73.9979893,92.8695679 74,93.079973 C73.9979893,93.7195531 73.9959786,94.3597765 73.9939678,95" id="Fill-206" fill="#644F21"></path>
            <path d="M27.1505114,71 C27.4336743,71.0184266 27.7168371,71.0368533 28,71.0557524 C26.8725442,71.9114103 25.5586946,72.5662651 24.0396168,73 C24.0266277,72.6824947 24.0136386,72.3649894 24,72.0474841 C24.8189641,71.3302622 25.9230395,71.0670919 27.1505114,71" id="Fill-208" fill="#DBC79E"></path>
            <path d="M26.8728171,69.9515022 C25.8072488,70.3006861 24.7416804,70.6498699 23.676112,71 C23.4507414,70.815472 23.2253707,70.6299976 23,70.4445233 C23.4349259,70.2760823 23.8705107,70.1076414 24.3054366,69.9387272 C25.3037891,69.9836764 25.9429984,69.6283416 26.3383855,69 C26.5591433,69.0108824 26.7799012,69.0217648 27,69.0331204 C26.9578254,69.3392477 26.9156507,69.645375 26.8728171,69.9515022" id="Fill-210" fill="#F0EED1"></path>
            <path d="M12,84.1723463 C11.6409091,84.9248672 10.8621212,85.0250418 10,84.9955549 C10.0075758,84.461156 10.3545455,84.19739 11.0131313,84.1808289 C11.3388889,83.9493772 11.6676768,83.93322 12,84.1723463" id="Fill-212" fill="#C5A54D"></path>
            <path d="M13.320767,83.9889225 C12.8976276,83.9924471 12.4738382,83.9964753 12.0500487,84 C12.0337992,83.6676737 12.0175496,83.335851 12,83.0040282 C12.6662333,83.0030211 13.3331167,83.0015106 14,83 C13.7738057,83.3298087 13.5476113,83.6591138 13.320767,83.9889225" id="Fill-214" fill="#B89034"></path>
            <path d="M57.7985374,100 C57.6488269,99.7239173 56.1881827,99.5841535 57.6322538,99.1584646 C58.361471,98.9438976 59.2067001,99.042815 60,99 C59.9977903,99.3208661 59.9955805,99.6412402 59.9933708,99.9621063 C59.2613913,99.9744094 58.5299644,99.9876969 57.7985374,100" id="Fill-216" fill="#F1D58B"></path>
            <path d="M56.6755983,82.590398 C53.4499669,83.3933966 50.2249835,84.1963953 47,85 C47.0045349,84.3854788 47.0097177,83.7715636 47.0136048,83.1582544 C47.4347055,82.2207156 48.3293825,81.9589077 49.2720002,81.7643699 C50.2891203,81.500744 51.3133668,81.2674198 52.3823147,81.3146907 C53.5050339,81.5146828 54.6005436,81.434686 55.663013,81.0074301 C56.133998,80.9698558 56.5525073,81.0704579 56.8816137,81.4086264 C57.0759678,81.8437607 57.0468147,82.2431389 56.6755983,82.590398" id="Fill-218" fill="#A41A17"></path>
            <path d="M19.3730591,93.3868369 C22.6868177,95.3751773 25.9898542,97.4087945 29.8371948,97.2645227 C30.0819109,97.6397827 30.0503753,97.9782073 29.7451109,98.2820987 C29.1673791,98.7425403 28.5139619,98.8568833 27.8447769,98.9052297 C25.570431,99.4055763 23.735691,97.7994024 21.7281361,97.0151169 C20.4957257,95.7112997 18.0536105,96.131069 18,93.1466398 C18.4995236,92.8749793 18.9523745,92.9954615 19.3730591,93.3868369" id="Fill-220" fill="#9F7659"></path>
            <path d="M47,81.1353366 C47.0087644,80.5435054 47.0169811,79.951084 47.0257455,79.3586627 C47.1824093,79.1710233 47.3774175,79.0571415 47.6063878,79.004036 C47.8413837,78.9904646 48.0725451,79.0117068 48.3026109,79.0589117 C49.0273183,79.197576 49.7525735,79.3391907 49.9952382,80.2649965 C50.0675446,81.3524791 49.3033973,81.6162364 48.5869066,81.9283787 C47.8550781,82.1354901 47.3133278,81.9000558 47,81.1353366" id="Fill-222" fill="#5D1810"></path>
            <path d="M14.6642721,90.6604646 C14.5882982,90.4661576 14.5276368,90.2658204 14.4811101,90.060123 C14.5076127,89.812884 14.5347041,89.5669852 14.5617956,89.3210863 C13.9328021,87.7713203 13.7095918,86.2182043 14.5411825,84.659728 C14.5476609,84.4466603 14.5765193,84.2369428 14.6289354,84.0312453 C15.1813661,83.9220314 15.4752498,84.0814971 15.2373159,84.7910528 C14.966401,86.8366366 15.3038667,88.7803768 16,90.6638148 C15.5535795,91.1308216 15.1083368,91.0939703 14.6642721,90.6604646" id="Fill-224" fill="#512619"></path>
            <path d="M16,91 C16.4948318,91.0006912 16.9903199,91.0013825 17.4864643,91.002765 C18.3245283,91.9518482 19.1612797,92.9002403 20,93.8493235 C19.4749795,93.8513973 18.9493027,93.853471 18.4236259,93.8548535 C18.1486464,94.0228267 17.8651354,94.0490941 17.5711239,93.9122271 C17.031009,93.549322 16.6490566,93.0799647 16.6372436,92.3638319 C16.4246103,91.9089909 16.2126333,91.4541498 16,91" id="Fill-226" fill="#5F4A30"></path>
            <path d="M47.577057,79.9859621 C47.4058863,79.9936829 47.2347157,79.9978943 47.0641174,80 C47.0423633,77.6669006 47.0211817,75.3338013 47,73 C48.0241617,74.2332297 47.3744001,75.8054748 47.5678974,77.2071593 C48.0802645,78.1308533 48.2010572,79.056653 47.577057,79.9859621" id="Fill-228" fill="#411B10"></path>
            <path d="M16.7870737,84 C16.5429318,83.8018522 16.2980802,83.6037044 16.0539383,83.4055565 C16.0361955,83.0517211 16.0177429,82.6973615 16,82.3430019 C16.8800464,82.1301765 17.3527164,81.6783156 17.4385919,81 C18.8218261,82.1894111 17.2739381,83.0318015 16.7870737,84" id="Fill-230" fill="#6F301B"></path>
            <path d="M47.0151781,83.3561737 C47.086929,83.1336499 47.0827896,82.9131615 47,82.6940299 C47.0765803,82.4626866 47.1545405,82.2313433 47.2325007,82 C47.9058558,82.2265943 48.5792109,82.453867 49.2525661,82.6811398 C49.9604168,82.4077341 50.0818415,82.743555 49.9569673,83.3358209 C49.0504215,83.5569878 48.1438758,83.7788331 47.23802,84 C47.1641993,83.7849389 47.0896887,83.5705563 47.0151781,83.3561737" id="Fill-232" fill="#881917"></path>
            <path d="M73.4260232,55.9775069 C72.4299518,55.984802 71.4345834,55.9927049 70.4385121,56 C70.2944086,55.9981762 70.1503051,55.9963525 70.0069046,55.9939208 C69.2934166,55.9221861 68.5314255,55.9489346 68.1033327,55.2954193 C68.0688885,54.9160764 68.0344442,54.5373414 68,54.1586065 C68.3071864,53.5895922 69.9506691,53.9117905 69.2983372,52.7026351 C69.2927137,52.5245141 69.3714434,52.3816526 69.5359322,52.2740506 C70.3499411,51.8868047 71.114041,51.8661354 71.7916789,52.4977656 C72.0911329,53.4619287 72.6640321,54.1458401 73.9764282,54.0595153 C74.4537271,54.0893035 74.9162641,54.1683332 75.3591187,54.3221373 C75.6480286,54.4510166 75.8596147,54.6443356 75.9973917,54.8972308 C76.0198859,55.1805221 75.8968707,55.4072768 75.6290491,55.5732393 C74.892364,55.6936077 74.0881963,55.5458828 73.4260232,55.9775069" id="Fill-234" fill="#806249"></path>
            <path d="M73.6430185,51 L75,51.1151002 C74.8563037,52.73404 73.3312246,53.0683788 72.4087212,53.9665718 C71.666516,54.120724 71.2394939,53.7260945 70.9439675,53.1046902 C70.4905106,52.3270784 69.7178039,52.4305316 69,52.3839434 C70.3888387,51.375446 72.1098057,51.5090445 73.6430185,51" id="Fill-236" fill="#6F4E26"></path>
            <path d="M68.7018081,52.4184419 C69.4669117,53.9119375 68.6355346,54.0356278 67.6094793,53.9935205 C66.9366852,53.5059962 67.0869839,52.70793 67,52 C67.5668749,52.1394806 68.1343415,52.2789613 68.7018081,52.4184419" id="Fill-238" fill="#7E7030"></path>
            <path d="M59.0730466,84.2090992 C59.2234417,83.7236809 59.374533,83.2382626 59.5249281,82.7528443 C59.1357112,82.783567 58.7464944,82.8142896 58.3572775,82.8450123 C57.668663,82.010721 58.0982638,81.3040994 58.6162912,80.6056706 C59.4288423,79.0770467 61.5963416,80.2294885 62.4262996,78.7390973 C62.4945344,77.9799058 62.6031531,77.2432443 63.2068222,76.6916016 C63.2388507,76.4997555 63.270183,76.306544 63.2994265,76.1140153 C63.4971682,76.0785135 63.6949098,76.0402808 63.891259,76 C64.0305137,78.7363664 64.2115448,81.4768291 63.1908079,84.1176139 C62.8085537,84.5668477 62.3239474,84.8460827 61.7376851,84.9594152 C60.746888,85.0625068 59.7964747,85.0208605 59.0730466,84.2090992" id="Fill-240" fill="#A61A19"></path>
            <path d="M48.0110668,77.981492 C48.0076084,77.2877313 48.0041501,76.5944961 48,75.9007353 C50.8676887,74.4070474 53.9601722,75.1733377 56.9973216,75.3846194 C57.0699476,76.6475793 55.6499367,76.6375933 54.6463148,76.9849993 C52.6570546,77.3056009 50.6297522,77.5074222 48.687526,77.9998872 C48.4613479,78.0009383 48.2365532,77.9946314 48.0110668,77.981492" id="Fill-242" fill="#2E1D15"></path>
            <path d="M63,76.2289454 C62.9949744,76.9603493 62.9899488,77.6917531 62.9849232,78.423157 C61.037859,78.5169975 59.1015639,78.6776303 57.188961,79 C56.6569645,78.9845439 56.1594293,78.8807674 55.7042527,78.6627262 C53.802419,76.8311806 56.2412749,77.1546543 57.2837296,76.7831563 C59.0347951,75.6570704 61.0285257,76.0131123 63,76.2289454" id="Fill-244" fill="#5D1E14"></path>
            <path d="M57,77.2872604 C56.8953866,78.1537743 55.1839106,77.6612573 55.9465426,79.2612792 C55.124804,80.2417041 54.2434357,80.1679582 53.3275449,79.497661 C52.8719534,78.7674452 52.9028144,78.043814 53.3505599,77.3274256 C54.1686371,77.1858598 54.9014543,76.8322748 55.4428288,76 C55.9622346,76.4293063 56.4811173,76.8579541 57,77.2872604" id="Fill-246" fill="#502322"></path>
            <path d="M64,71.1432854 C63.993228,71.6918253 63.9857035,72.2403652 63.9789315,72.7894508 C63.7441685,72.7883592 63.5094056,72.7872676 63.2746426,72.7867218 C62.5199398,72.8718683 61.7659895,73.2195498 61.0105342,72.788905 C60.006772,72.4248492 59.0030098,72.0607934 58,71.6961918 C59.8878856,70.8725633 61.9277652,70.9134991 64,71.1432854" id="Fill-248" fill="#22100C"></path>
            <path d="M62,74.0389227 C61.5597005,74.830267 60.8526212,74.8676861 60.2450191,74.6951425 C59.460506,74.4720139 58.0011306,75.8669141 58.0000002,74.0597111 C57.9994349,72.5858151 59.5175923,73.6737402 60.3066272,73.3445909 C61.1538788,72.5380018 61.5727003,73.3044 62,74.0389227" id="Fill-250" fill="#22100C"></path>
            <path d="M62.992691,74 C62.3289037,73.7588866 61.6657807,73.5177733 61.0019934,73.2766599 C61.0006645,73.0369903 61,72.7965989 61,72.5569293 C61.6664452,72.3591297 62.3315615,71.410558 63,72.5547636 C62.9973422,73.0362684 62.9953488,73.5184952 62.992691,74" id="Fill-252" fill="#271B1C"></path>
            <path d="M76.8190375,50.7529854 C78.4797523,49.8500196 80.237927,49.9489442 82,50.0954716 C81.9317781,50.1854707 81.873952,50.3379484 81.794035,50.3550557 C80.5004187,50.6406725 79.2236954,50.9255456 80.0637988,53.0215569 C79.4959331,54.1870819 78.781228,55.1912037 77.7241141,55.8256599 C76.5357544,56.009377 75.3428465,56.2451597 74.2597434,55.3771522 L74.2948289,55.1383943 C73.3403727,52.3216468 74.8412535,51.3569461 76.8190375,50.7529854" id="Fill-254" fill="#503419"></path>
            <path d="M74.0885545,54.7121078 L77.8255529,54.5749612 C78.6845312,53.8899425 79.5403468,53.7235094 80.3892046,54.5949617 C80.7756816,54.6321056 81.1615261,54.6685352 81.5473705,54.705679 C81.546738,54.7063933 81.5530633,54.6771068 81.5530633,54.6771068 C81.9882453,55.0042586 82.0951431,55.4485564 81.9192993,55.9921426 L80.9205314,56 C78.6763083,55.0128303 76.2347352,56.3485809 74,55.248551 C74.0328917,55.070689 74.0619881,54.8913984 74.0885545,54.7121078" id="Fill-256" fill="#B98D54"></path>
            <path d="M81.7080311,55 C80.8053541,54.994006 79.902677,54.987346 79,54.981352 C79.1002232,53.7399267 79.7536785,53.0586081 81.021168,53 C82.0948927,53.3782884 82.2225102,54.0795871 81.7080311,55" id="Fill-258" fill="#342E1B"></path>
            <path d="M70,56.0540711 C68.0163345,56.3692083 66.0326691,56.6848629 64.049657,57 C64.0326691,56.6688214 64.0163345,56.3381603 64,56.0074991 C64.5900033,55.8248334 64.5645214,54.1704928 65.8020255,55.5350521 C67.0199281,56.102713 68.4475662,55.4589846 69.6772297,55.955235 C69.7902646,55.9769686 69.8980725,56.0100865 70,56.0540711" id="Fill-260" fill="#CBA35D"></path>
            <path d="M68,55.8501877 C66.9903895,55.7306163 65.9028832,56.6027841 65,55.1362762 C65.5230147,55.0914369 66.0460293,55.0457185 66.569044,55 C67.0657562,55.1837531 67.696004,54.6896419 68,55.8501877" id="Fill-262" fill="#C1A872"></path>
            <path d="M74.059064,55 C76.3471243,55.6874443 78.7823513,54.222618 81,55.935886 C78.0002114,55.9572573 75.0010572,55.9786287 72,56 C72.4852692,54.8539626 73.2984917,55.0338379 74.059064,55" id="Fill-264" fill="#DCA661"></path>
            <path d="M85.640398,57.1251945 C86.9778068,57.2446209 88.4006058,57.1637396 89,59 C87.6770077,58.5867466 86.3540154,58.1722295 85.0310231,57.7583442 C84.9478509,57.1902788 84.9949818,56.7833442 85.640398,57.1251945" id="Fill-266" fill="#BB8B44"></path>
            <path d="M75.9840955,90.1012697 C75.7605466,90.2678665 75.5363663,90.4333815 75.3128174,90.5994374 C74.5524986,91.2739381 73.7025078,90.9299265 72.8670412,90.7606252 C72.4319419,90.6329732 72.1161949,90.4036321 72,90.0055307 C72.6719096,89.6701735 73.3438192,89.3348163 74.0157288,89 L74.1496055,89.0627442 C74.5430262,89.6918094 76.1779641,88.711701 75.9840955,90.1012697" id="Fill-268" fill="#746344"></path>
            <path d="M73.0399695,90 C73.3599796,90.2453628 73.6799898,90.4900748 74,90.7354377 C73.8724542,90.8369671 73.7449084,90.9384966 73.6181263,91.0419785 C71.9982179,91.6075496 70.2492363,91.6693785 68.5644094,91.9824276 L68.2810591,92 C68.2810591,92 68,91.9661568 68,91.9661568 C68.889002,89.8372925 71.1504582,90.2642369 73.0399695,90" id="Fill-270" fill="#71271B"></path>
            <path d="M59,95 C59.2278912,94.4605272 59.4563492,93.9218196 59.6848073,93.3838772 C60.5702948,93.2997041 61.4552154,93.2147658 62.3395692,93.1305928 C62.5821995,92.9247514 62.8027211,92.9622466 63,93.2430786 C62.9552154,93.4183116 62.9331066,93.5981359 62.9342404,93.7833166 C62.1411565,93.9348281 61.3021542,93.8927416 60.6695011,94.7390635 C60.1128118,94.8255322 59.5561224,94.9135313 59,95" id="Fill-272" fill="#904931"></path>
            <path d="M86,55.6019462 C85.8068082,55.7346308 85.6141428,55.8673154 85.420951,56 C84.6144938,55.8661236 83.8069837,55.73185 83,55.5975763 C83.593262,54.7434689 84.4886822,54.9865916 85.3830497,55.2241526 C85.5888752,55.3500838 85.7941744,55.476015 86,55.6019462" id="Fill-274" fill="#AA9555"></path>
            <path d="M62.738793,93 C62.4923174,92.9759063 62.2464755,92.9523042 62,92.9282105 C63.1816886,92.217691 64.4869317,91.8503844 66,92.0573939 C65.3106289,92.3607783 64.6206241,92.6641628 63.9306194,92.9675472 C63.5333439,92.9783648 63.1360684,92.9891824 62.738793,93" id="Fill-276" fill="#6A4821"></path>
            <path d="M85,54.5209481 C84.1064453,54.638094 83.0710938,54.173997 82.3474609,54.9895316 C82.3474609,54.9895316 82.3386719,54.9995015 82.3386719,55 C82.2267578,54.6939252 82.1136719,54.387352 82,54.0817757 C83.0230469,54.1121838 84.1386719,53.6869692 85,54.5209481" id="Fill-278" fill="#372517"></path>
            <path d="M74.88,88.4164538 C74.6,88.5484538 74.306,88.6354538 74,88.6774538 C74.1,87.9384538 74.359,87.7344538 74.88,88.4164538" id="Fill-280" fill="#CD1726"></path>
            <path d="M72.2547461,91.2142388 C73.159823,90.7139682 74.0731031,91.2546115 74.981598,91.1961003 C75.1989806,92.5225488 73.4277914,92.2258971 72.9691006,93 C72.4058201,92.7290932 72.2930273,92.26744 72.2547461,91.7730205 C72.0284768,91.649562 71.9532816,91.5261034 72.0277932,91.4020597 C72.1023049,91.278016 72.1775001,91.2165792 72.2533789,91.2165792 L72.2547461,91.2142388 Z" id="Fill-282" fill="#574A22"></path>
            <path d="M75.7766456,90 C75.1842266,89.5646259 74.592419,89.1292517 74,88.6938776 C75.0478908,88.7163265 76.0572651,88.537415 77,88 C76.9975545,88.4435374 76.995109,88.8863946 76.9926635,89.3292517 C76.5873242,89.5530612 76.1819849,89.7768707 75.7766456,90" id="Fill-284" fill="#624E31"></path>
            <path d="M46.9207924,96.2037657 C47.0479098,96.0893301 47.1988617,96.061261 47.3736482,96.1211777 C47.6497313,96.0056625 47.9397179,95.9727353 48.24427,96.022396 C48.8249052,96.2885128 49.1890436,96.6334391 48.8970708,97.216413 C47.9840765,97.3367863 46.9446269,97.0426004 46.214364,97.7610618 C45.3450663,97.7896707 44.4757687,97.8193592 43.606471,97.8490477 C43.293312,98.2744028 42.9569806,98.6538756 42.2472417,98.3213646 C41.1568128,98.3289216 40.0663838,98.3353991 38.9766169,98.3429562 C38.7627684,98.516229 38.5052232,98.598817 38.2053056,98.5939589 C37.1075939,98.4654887 36.0052477,98.3580703 34.8929704,98.4325614 C34.6360873,98.4687274 34.3758939,98.5000353 34.120335,98.5415992 C33.5099066,98.6290453 33.0497681,99.212559 32.3201672,98.9172935 L32.005022,98.8984008 C32.005022,98.8984008 31.6892147,98.9097364 31.6892147,98.9102762 C31.6554491,98.459551 31.5607731,98.0336561 31,97.7999268 C31.2721107,96.2599039 32.7942092,96.8585318 33.8469001,96.7257433 C36.5534415,96.3845956 39.2705759,97.2444821 41.9817517,96.7106291 C43.5501951,96.045607 45.3470525,96.8461166 46.9207924,96.2037657" id="Fill-286" fill="#FEF7EA"></path>
            <path d="M48.7407546,97.935822 C48.4942928,97.6572757 48.2471464,97.3787293 48,97.100183 C48.9440855,96.2315385 50.46941,97.1316883 51.4881187,96.4880812 C52.4116657,96.3255542 53.3345281,96.162527 54.2587598,96 C54.6325601,96.2520419 55.2726761,96.4105683 54.873545,96.9341554 C52.7471276,96.9991662 50.9986182,98.2998826 48.7407546,97.935822" id="Fill-288" fill="#EEE8DB"></path>
            <path d="M53.5986334,96 C53.398867,95.7133641 53.1991005,95.4262673 53,95.1391705 C53.398867,95.0926267 53.7970681,95.0465438 54.1979327,95 C55.1328396,95.0400922 56.0664147,95.0801843 56.9999898,95.1207373 C57.0006557,95.2677419 56.9686931,95.4119816 56.9054337,95.5520737 C55.7521155,95.5211982 54.6320917,95.6073733 53.5986334,96" id="Fill-290" fill="#F6F2E0"></path>
            <path d="M41,99.6713021 C41.5230812,99.4475348 42.0461623,99.2237674 42.5700082,99 C42.7130144,99.5640164 43.1580922,100.336474 42.9416712,100.649135 C42.3627641,101.483665 41.6790878,100.583997 41.0275306,100.45832 C41.0183537,100.196236 41.0091769,99.9341522 41,99.6713021" id="Fill-292" fill="#FCF0BE"></path>
            <path d="M36.9098722,100 C37.0958119,100.007126 37.2811846,100.013777 37.4665573,100.020903 C37.6445605,100.332067 37.8225637,100.64323 38,100.954394 C37.4387798,100.969596 36.8781264,100.984323 36.3174731,101 C35.9427594,100.990499 35.5680457,100.980048 35.193332,100.970546 C35.0487753,100.860808 34.9852837,100.740618 35.0028572,100.609501 C35.0215646,100.474109 35.0504759,100.405701 35.0901582,100.405701 C35.6043266,99.9809976 36.2709882,100.033254 36.9098722,100" id="Fill-294" fill="#FAF0D9"></path>
            <path d="M41,97.2936192 C38.6105806,98.2846423 36.1014674,97.5156483 33.6636612,97.773227 C32.4762732,97.8979624 31.152638,97.3260504 30.1416073,98.4018936 C29.5100315,98.6014703 28.8784557,98.8004233 28.2468799,98.9993763 C27.6012973,98.2004458 26.9448914,98.2391138 26.2782988,98.9738056 C25.8784706,98.982537 25.4786423,98.9918922 25.0794508,99 C23.9958398,97.0073514 21.7070142,96.8925948 20.0001041,95.8710115 C19.9905541,94.7508873 20.63932,94.9286353 21.3428394,95.2173979 C23.4005542,95.856667 25.4111554,96.6886523 27.6254908,96.6842866 C31.2462283,97.1657654 34.9089861,96.4697416 38.5252669,97.0584929 C39.1243726,97.0703428 39.724115,97.0821926 40.3232207,97.0940425 C40.6568353,96.8083984 40.8828529,96.8751318 41,97.2936192" id="Fill-296" fill="#F7F1E7"></path>
            <path d="M35.9996509,100.141076 C35.9929749,100.356113 35.9856313,100.57175 35.9789553,100.786787 C35.556363,100.801762 35.1337708,100.815539 34.7118461,100.829915 C34.4261123,101.019195 34.11768,101.045551 33.7892197,100.93354 C33.0662064,100.408226 32.721056,99.8008497 33.2704927,99 C33.5241816,99.001198 33.7772029,99.002396 34.0308917,99.0035939 C34.3580169,99.841581 36.0276902,98.8077242 35.9996509,100.141076" id="Fill-298" fill="#FAE8E7"></path>
            <path d="M33.463698,101.216805 C33.642304,101.230741 33.82091,101.244278 34,101.258214 C33.9835431,101.383637 33.9617619,101.507467 33.9341723,101.631297 C33.2894482,101.754331 32.6447241,101.876966 32,102 C32.0058083,101.743182 32.0116167,101.486762 32.017909,101.229944 C32.4956438,100.916985 32.9782188,100.934106 33.463698,101.216805" id="Fill-300" fill="#FBE3D3"></path>
            <path d="M34,100.977875 C33.3436573,100.98525 32.6879736,100.992625 32.031631,101 C32.0184514,100.791485 32.0079077,100.581629 32,100.373785 C32.4355848,99.9158565 32.8724876,99.4572578 33.3087315,99 C33.538715,99.6590681 33.7693575,100.318807 34,100.977875" id="Fill-302" fill="#F4E8C7"></path>
            <path d="M13.9822301,84 C13.9883227,85.3333333 13.9939075,86.6666667 14,88 C13.0592122,86.6718413 12.3316629,85.3425327 13.9822301,84" id="Fill-304" fill="#5B3D25"></path>
            <path d="M23,95.3494291 C22.3991921,95.4217791 21.7888358,95.4771056 21.4502387,95.9865955 C19.5001836,96.1872299 18.9096585,94.0671925 17,94.1979089 C17.0022035,93.9905866 17.0051414,93.7820484 17.0080793,93.5735102 C17.1542416,93.3102534 17.3870731,93.1242106 17.7205288,93.0281492 C17.9452809,92.9965341 18.171502,92.9916702 18.3977231,93.0129496 C19.9320602,93.7917761 21.4663974,94.5706026 23,95.3494291" id="Fill-306" fill="#F1ECD8"></path>
            <path d="M18,93.4170724 C17.7725966,93.6118143 17.5444892,93.8059072 17.3170858,94 C16.4870281,93.4910743 15.1585135,93.1061344 16.7327365,92 L18,93.4170724 Z" id="Fill-308" fill="#F9EBDE"></path>
            <path d="M71.9916421,91.0345726 C72.0023014,91.2406727 72.0028624,91.4467727 71.9927641,91.6528728 C71.6325906,91.9148864 71.2729782,92.1762499 70.9128047,92.4382636 C70.3400055,92.625509 69.7666452,92.8127545 69.193285,93 C68.9542914,92.4057557 68.4734991,92.3498421 68,92.2776745 C69.2482647,91.5085377 70.5195312,90.8382249 71.9916421,91.0345726" id="Fill-310" fill="#BBA15B"></path>
            <path d="M119.005,114.002 C119.005,114.002 119.004,114.001 119.004,114 C119.002,114.001 119.001,114.001 119,114.002 L119,114.004 C119.002,114.004 119.003,114.003 119.005,114.002" id="Fill-312" fill="#CF1517"></path>
            <path d="M118.9182,114.704099 C118.926042,114.70083 118.933885,114.697562 118.941727,114.694293 C118.943688,114.675336 118.943034,114.6603 118.944341,114.641343 C118.958066,114.655724 118.97375,114.666184 118.988782,114.679258 C118.973097,114.683834 118.961333,114.690371 118.945648,114.694293 C118.97375,114.724364 118.997278,114.755088 119.024726,114.785159 C118.986168,114.762279 118.950223,114.735477 118.9182,114.704099 M112.047568,72.2893714 C110.940477,74.3825538 109.258927,75.9900291 107.584566,77.6046951 C107.176105,78.0184941 106.757842,78.4224875 106.342846,78.8290957 C106.129793,79.0291313 105.920007,79.2324354 105.725254,79.4514285 C104.489416,80.6974016 103.338537,82.0427387 101.750443,82.8801425 C100.852484,83.4116095 99.9590988,83.9456913 99.5702444,85.0033956 C99.5336464,85.1570177 99.482017,85.2844913 99.4303876,85.4113113 C98.6474506,85.7303222 97.9533945,86.1892273 97.3103144,86.7278851 C97.0874583,86.7527261 96.8613346,86.7716837 96.6325968,86.7860654 C95.8941002,86.8775849 95.2163826,87.1554121 94.5550035,87.4842287 C93.0283416,88.4386467 91.3605158,89.1806086 90.0978829,90.5318291 C90.0207655,90.7246738 90.1220637,90.8959461 90.135788,91.0750629 C90.0096554,90.9495504 89.869145,90.8410344 89.726674,90.7567057 C88.8979894,90.4978361 88.1712565,90.8135785 87.4634762,91.2116885 C86.8563406,91.5738444 86.1916937,91.8026432 85.5355428,92.0510534 C85.0035639,92.2700465 84.4787739,92.5066899 83.9631334,92.7629446 C81.9757282,93.6702954 79.944536,94.4704376 77.8924306,95.2208978 C77.3526092,95.4392372 76.8219374,95.6791491 76.2925726,95.9223296 C75.2233865,96.3864644 74.1058387,96.7113587 72.999401,97.0669775 C72.2935813,97.3095042 71.5818798,97.5343808 70.8682176,97.7520665 C68.9683863,98.3652474 67.0927359,99.0562199 65.1746055,99.6151427 C64.0211132,100.085815 62.7754721,100.139419 61.582114,100.427052 C60.9821673,100.600939 60.3763387,100.755215 59.7685496,100.89184 C58.673222,101.153325 57.598154,101.491293 56.513283,101.788078 C54.1729679,102.119509 51.8718651,102.744457 49.4916842,102.794139 C47.9192748,103.163486 46.312228,103.34391 44.7313226,103.664228 C38.0345315,104.313363 31.3233627,103.922444 24.6102332,103.896296 C24.2736618,103.798239 23.9377439,103.71391 23.5907159,103.653769 C22.4999631,103.4655 21.3856829,103.449157 20.3256463,103.103998 C19.3368452,102.849051 18.3232097,102.701312 17.3546683,102.369227 C16.8155005,102.205146 16.2841751,102.022106 15.7652669,101.80246 C15.1221868,101.520056 14.4823743,101.231116 13.828184,100.974208 C12.7688009,100.570868 11.8322828,99.9524576 10.9075283,99.3105134 C10.5696498,99.0640644 10.2330784,98.8169617 9.87886145,98.5927388 C8.92208365,98.0468902 8.14829615,97.3186562 7.62546675,96.3400509 C7.40979962,95.9968526 7.19217189,95.6530007 6.97127647,95.313071 C6.44779353,94.3468862 6.12494638,93.3212137 6.05501795,92.2203645 C6.03671892,91.8032969 6.03737246,91.3836145 6.02299465,90.9652395 C5.97920769,89.6800438 6.14520602,88.4255724 6.58830393,87.2109775 C6.94056024,86.017955 7.4307128,84.8889962 8.13065065,83.8561329 C8.37638047,83.523394 8.64825176,83.2109202 8.9122806,82.8932167 C9.19460848,82.5787817 9.46517269,82.25258 9.70175299,81.9002298 C10.5428548,80.5372424 11.7832675,79.5200682 12.8034384,78.3120104 C14.398068,76.618899 16.1815698,75.1212472 17.8167188,73.4660511 C18.6676236,72.7410857 19.6139448,72.1586292 20.568762,71.5866321 C20.80861,71.446738 21.0458438,71.3029216 21.2700069,71.1381864 C22.2764535,70.4204118 23.2763647,69.6921778 24.3468579,69.0704987 C24.5873595,68.9364879 24.8272074,68.8018235 25.0579059,68.6508163 C25.7807175,68.233095 26.5035292,67.8147199 27.1962781,67.348624 C27.9217039,66.8583408 28.7235935,66.5131815 29.5111053,66.1444885 C34.5505271,63.0707396 40.284005,61.556745 45.5593536,59.0177317 C46.2978501,58.5653637 47.1860066,58.2993034 47.5748609,57.4082954 C48.1212177,55.3968268 48.2473503,53.397125 47.4029808,51.4242253 C47.2311006,51.1862746 47.0441891,51.0274228 46.8474745,50.9247902 C46.9742607,50.1645243 46.7866956,49.4402126 46.4886829,48.7283214 C46.6697126,48.5655474 46.8794979,48.43742 47.1369913,48.3681267 C48.0722024,46.8998919 47.8689525,45.2008971 47.851307,43.6221852 C47.7611189,35.6377596 48.9923821,27.5905779 46.8272149,19.6872125 C46.5729891,19.0361164 46.2115833,18.3784832 46.6938934,17.8025638 C47.2990684,17.6535177 47.9865891,17.8215215 48.6087561,17.8221752 C61.5958383,17.8417865 74.5829205,17.8921222 87.5700027,17.9346135 C88.9077924,18.2699672 90.2449286,18.6066283 91.5827183,18.9426357 C92.1349569,19.0773002 92.687849,19.2126184 93.2400875,19.3472828 C93.3721019,19.3472828 93.5041164,19.3466291 93.6354773,19.3459754 C93.0231133,20.8044045 94.7360331,21.1541399 95.543151,21.6437694 C99.9113906,24.2945673 101.848474,28.2992005 102.326862,33.1752305 C102.516388,35.1089075 102.34124,37.0589272 102.386334,39.0030636 C102.417051,39.7567923 102.541222,40.3340191 102.734016,40.7818111 C102.60723,41.3002039 102.47979,41.817943 102.353004,42.335682 C102.283075,42.3552934 102.213147,42.3657527 102.143872,42.3892863 C100.415267,44.1987582 99.6741568,46.641676 98.1775576,48.5975792 C97.1318988,50.4992243 97.7619083,51.4889427 99.7453923,52.2779718 C103.933256,53.9436273 108.694271,54.539158 111.795303,58.3738264 C113.363137,59.3478557 114.068304,60.828511 114.402914,62.5883009 C115.089128,66.1935168 113.819306,69.2947215 112.047568,72.2893714 M118.209766,52.3877953 C118.236561,52.4113289 118.262702,52.4348625 118.288844,52.4577423 C118.21238,52.4767 118.135916,52.4943502 118.060106,52.5178838 C118.1052,52.4649332 118.156176,52.4237494 118.209766,52.3877953 M107.218585,41.4760521 C107.215317,41.4374832 107.230349,41.444674 107.238191,41.4767058 C107.231656,41.4767058 107.22512,41.4760521 107.218585,41.4760521 M111.354166,5.22451148 C113.614096,5.32060699 115.875333,5.24869879 118.13853,5.20490015 C115.640059,5.34937027 113.117408,5.38924664 110.622858,5.25654332 C110.866627,5.24673765 111.110396,5.23497086 111.354166,5.22451148 M120.853976,117.598731 C120.888613,79.5893616 120.84548,41.5799922 120.948738,3.57127649 C120.957234,0.581856325 120.016795,-0.00648352813 117.234689,5.3581356e-05 C79.233488,0.0856897156 41.2322868,0.0530041682 3.23108567,0.0634635434 C2.15405711,0.0641172543 1.07702856,0.215124483 0,0.29553093 L0,0.949241878 L0,2.25666378 L0,120.578345 C7.42090975,120.959459 14.8431266,120.809105 22.2659969,120.631296 C24.6278787,121.213099 26.9884535,120.743081 29.3503353,120.624105 C34.5818969,121.198063 39.8134586,120.724777 45.0450202,120.635872 C47.6741985,121.094123 50.3040304,121.149035 52.9338623,120.632603 C55.331035,120.642409 57.7301684,121.142498 60.1247271,120.602533 C64.0191525,120.864671 67.9129245,121.20983 71.8099641,120.629989 L71.8093106,120.629335 C81.5280555,120.697975 91.2468004,120.844406 100.964892,120.807144 C107.387197,120.782957 113.819306,121.233364 120.233769,120.565925 C121.450655,119.795853 120.853322,118.581258 120.853976,117.598731" id="Fill-314" fill="#CF1517"></path>
            <path d="M65.6757632,52.7944546 C66.3993709,52.870524 67.1096723,53.116438 67.8491208,52.9341338 C68.1203153,52.8357682 68.3750354,52.7072371 68.6101128,52.5347694 C69.7607885,51.6999734 71.2523581,51.729483 72.4068356,50.9137043 C72.4816041,50.8415695 72.5398983,50.7589424 72.598826,50.6769711 C72.9194438,51.0658431 73.3528481,51.2507704 73.835042,51.346513 C74.7157904,51.4671748 75.5902025,51.443567 76.4595456,51.2507704 C77.9485807,50.239572 79.7119785,50.3713819 81.3499171,49.9818542 C81.3866677,49.9248021 81.4227848,49.8670943 81.4589018,49.8093865 C81.5615502,49.7739749 81.6641985,49.7418421 81.7662133,49.6985612 C82.2287646,49.407399 82.403647,48.9358999 82.5183344,48.4250546 C82.6228837,46.9758013 83.6271904,45.721312 83.3718367,44.1940221 C84.0263785,43.3474221 83.8502288,42.3617988 83.8090427,41.3991274 C84.187321,38.7878486 83.9560453,36.2172275 83.529611,33.6210313 C82.8098051,29.2299908 80.8018254,25.883593 76.7168002,24.1871143 C72.9904106,22.6401512 69.117652,22.8677036 65.2252509,23.4041241 C63.5315526,23.6375784 62.9796592,24.4684399 63.0005691,26.2134457 C63.1019502,34.808632 63.0994156,43.4057857 63.1336318,52.0016279 C63.8509032,52.7078929 64.7905794,52.6600216 65.6757632,52.7944546" id="Fill-316" fill="#CF1517"></path>
            <path d="M61.9879356,84.3939612 C61.9866418,84.3667591 61.9847011,84.3395571 61.9827604,84.3130026 C62.0170459,84.331785 62.0513314,84.3479768 62.08497,84.3654638 C62.0532721,84.3758265 62.0202804,84.3829509 61.9879356,84.3939612 M96.7198015,63.9593688 C96.3530113,62.7773736 94.9382489,62.1303527 95.0068199,60.7054817 C93.7505472,59.0403257 91.7089423,58.5442116 90.0955827,57.4120868 C89.8200049,57.2702474 89.5405456,57.1368277 89.2520298,57.0241333 C87.7971599,56.4606616 86.2666031,56.1782781 84.7593346,55.814936 C83.7967528,55.7326821 82.8807475,55.4205059 81.9401602,55.2449877 C81.6076555,55.2262053 81.2725632,55.2236146 80.9407053,55.2449877 C80.599144,55.2475783 80.2543483,55.230739 79.912787,55.1983555 C77.234636,54.8304798 74.5390189,55.1044436 71.8524583,55.0163606 C70.7773165,55.037086 69.7021747,55.0396767 68.6464399,55.2896768 C66.8500087,56.354444 64.3394039,55.142656 62.8347229,57.130351 C62.7545078,63.4023738 62.6736457,69.6750443 62.5934306,75.9470672 C61.3436268,78.1854099 61.9258335,80.7307476 61.4018475,83.0934426 C61.4083164,83.3013443 61.4438957,83.5027692 61.4930599,83.7009558 C61.2284792,83.7313962 60.9638986,83.761189 60.6986711,83.7916294 C59.9767348,83.7760854 59.2541515,83.7598937 58.5322152,83.7449973 C59.5161446,82.2514735 59.1189502,81.5183126 57.2338942,81.6070432 C56.6051109,81.6666287 55.9860311,81.7760847 55.3740671,81.9367065 C52.4196914,82.7242715 49.2207889,82.7495306 46.579511,84.5001789 C46.54846,84.0448678 46.5038241,83.5914998 46.3854421,83.1446085 C46.2897014,82.8615773 46.1506187,82.6063959 45.9559029,82.3758258 C45.9093264,82.3551004 45.8627498,82.3408517 45.8155264,82.3278984 C45.8375209,82.2974579 45.8588685,82.2734942 45.8808629,82.2301004 C45.9274395,82.1361884 45.9035043,82.0442195 45.8207016,81.9535459 C45.9578436,81.871292 46.0833415,81.771551 46.1842573,81.6433126 C46.3395125,81.3725871 46.4591883,81.0817839 46.5284062,80.7780274 C46.6674889,80.1076903 46.6804268,79.4205139 46.6875427,78.7346329 C46.6862489,76.7501763 46.7244158,74.763129 46.6551979,72.7786723 C46.4404283,71.886185 46.2043111,71.000822 45.8401085,70.1549668 C45.6673871,67.2670124 45.4953127,64.3790581 45.3238852,61.4885131 C42.9989396,61.8337205 41.1274684,63.5986174 38.6964319,63.6212858 C38.5392361,63.7190838 38.3691023,63.7566486 38.1860307,63.7333325 C36.5979001,64.355742 35.2109543,65.4023745 33.5775409,65.9295768 C33.2062224,66.1426597 32.8245536,66.339551 32.4816985,66.5999138 C30.6587445,67.7411059 28.7607506,68.7501736 26.8711663,69.7721946 C25.5941929,70.7294488 24.0914526,71.4166252 23.2284929,72.8628693 C22.8203013,73.7825587 21.9204684,74.1543205 21.180419,74.7048388 C19.8659255,75.0772482 19.2306733,76.2968082 18.2428626,77.0753059 C17.0150533,78.2754358 15.512313,79.2540631 15.0536635,81.0681829 C15.0724235,82.43023 14.4856885,83.645904 14.1434803,84.9172775 C13.7566363,86.759247 14.1971727,88.4813978 14.925578,90.1562689 C15.724495,91.4878755 16.8468602,92.5124873 18.0533219,93.4541974 C21.4695816,95.7858044 25.2151116,97.0403385 29.375949,96.9399499 L29.3927683,96.9399499 C30.2453778,97.6465564 31.3256947,97.5254423 32.3555537,97.5791988 C34.1338718,97.6718154 35.9335375,97.3946133 37.6911549,97.8758311 C38.402094,98.0260902 39.1130331,98.0442249 39.8278536,97.9069191 C40.7205706,97.6135253 41.7200255,97.5558828 42.397326,96.8097685 L42.4270832,96.8097685 C42.4646032,96.7981105 42.5027701,96.7909861 42.540937,96.7806234 C42.5765163,96.8369706 42.615977,96.8933178 42.6729039,96.9483696 C43.4013092,97.4639138 44.2189862,97.4179293 45.0457197,97.3272557 C45.3665803,97.3065303 45.6822658,97.2624889 45.9960105,97.1873593 C47.1966501,96.8078255 48.4529229,96.8777737 49.6768508,96.7016079 C50.6575457,96.7974628 51.5166241,96.3751829 52.3996376,96.0571776 C52.8764002,95.9444833 53.2865325,95.73982 53.4928925,95.2560115 C54.656659,94.2838609 56.2894255,95.2495348 57.4583672,94.2968143 C57.5896872,94.0662443 57.8290388,93.8978504 58.0134043,93.6977208 C58.1583091,93.6847675 58.3032139,93.6698711 58.4481187,93.6659851 C59.3919405,93.6109332 60.3402905,93.6057519 61.2562958,93.3227207 C62.5248596,92.7722024 63.8186523,92.313653 65.2055981,92.1756996 C65.6597194,92.1348965 66.111253,92.0863213 66.5272074,91.875829 C67.7964181,90.8130048 69.3437942,90.4328234 70.8963454,90.0642999 C71.7036721,89.7482376 72.4476029,89.3395587 73.0168717,88.6575637 C73.2413448,88.3369677 73.3920716,87.992408 73.4354137,87.5934442 C73.6365985,86.7126149 74.1217707,87.5850245 74.4348686,87.4146876 C75.5365331,87.2573042 76.7248817,87.3039363 77.4461712,86.192537 C78.9676714,85.3518631 80.4891717,84.5118369 82.0113188,83.6711631 C83.5438163,82.6659814 85.0763138,81.660152 86.6094582,80.6549703 C89.1278257,80.2644262 90.0276586,77.9328191 91.6364899,76.4522487 L91.610614,76.4373523 C93.0823032,76.2760828 93.2103887,74.9962897 93.651572,73.9775069 C94.0882271,73.1316517 94.5248821,72.2857965 94.9608903,71.4399413 C95.1911854,71.225563 95.4214805,71.0118324 95.6511287,70.7981017 C95.5954956,70.5889048 95.5398625,70.3797078 95.4848763,70.1705108 C96.7152732,68.2624791 97.4268592,66.23981 96.7198015,63.9593688" id="Fill-318" fill="#CF1517"></path>
            <path d="M59,81.4125207 C58.8299876,81.9380942 58.6599752,82.4642056 58.4899628,82.9892411 C57.9962825,82.9930067 57.5026022,82.9962344 57.0089219,83 C57.005948,82.6530247 57.002974,82.3060494 57,81.959612 C57.2136307,81.2043355 57.7221809,80.95957 58.3992565,81.0052954 C58.638166,81.0730766 58.8403965,81.2064873 59,81.4125207" id="Fill-320" fill="#981A15"></path>
            <path d="M58.8712711,81.263505 C58.2142419,81.4766572 57.5572126,81.6898093 56.9001833,81.9029615 C56.4641428,81.8925356 56.0281023,81.8815304 55.5920618,81.8705253 C54.7819895,82.3472215 53.7324578,81.9377146 52.9250243,82.4254159 C51.7884164,82.3871876 50.6748969,82.45206 49.6728613,83 C49.4485742,82.8134919 49.2242871,82.6269837 49,82.4404756 C49.3964604,81.8409852 50.4202651,81.6150902 50.3246132,80.7230948 C51.2613417,79.8554266 52.424996,79.9359379 53.6123983,80.1166538 C54.7074471,80.1143369 55.8018362,80.1125993 56.8962253,80.1102824 C57.3487575,80.1265005 57.8019494,80.1432978 58.2551413,80.1600951 C58.613341,80.4624468 59.2809249,80.6309992 58.8712711,81.263505" id="Fill-322" fill="#6D170F"></path>
            <path d="M52,81.7410708 C52.5842196,81.1568912 53.201583,80.735712 54,81.1950766 C53.5824883,82.5862789 52.7069008,81.7547492 52,81.7410708" id="Fill-324" fill="#981A15"></path>
            <path d="M41.7925512,99 C41.5281192,98.9235761 41.2636872,98.8464311 41,98.7700072 C41.8067039,97.8183129 43.067784,98.5277578 43.9899441,98 C44.9932961,98.0504686 45.996648,98.1002163 47,98.149243 C45.4461825,99.4780101 43.4960894,98.5313627 41.7925512,99" id="Fill-326" fill="#F3E7CC"></path>
            <path d="M51,96.0898023 C50.0944233,97.2284797 48.8288973,96.6025792 47.7718631,97 C47.5145754,96.9114362 47.2585551,96.8221282 47,96.7335644 C48.2794677,96.0600329 49.6147022,95.8635553 51,96.0898023" id="Fill-328" fill="#DED2BA"></path>
            <path d="M39,98.7059986 C35.326266,98.8106205 31.6345424,99.5349878 28,98.226814 C28.67975,98.1517418 29.3588575,98.0750722 30.03925,98 C32.9972548,98.8170097 36.0548449,97.6629735 39,98.7059986" id="Fill-330" fill="#EDDCCE"></path>
            <path d="M53.9887711,79.4758448 C52.9534623,80.3133917 51.5086712,79.8503129 50.2577667,80 C49.5054273,79.8277847 48.753088,79.6550688 48,79.4823529 C49.5024329,78.0866083 51.9540861,78.4100125 54,78 C53.996257,78.4921151 53.992514,78.9842303 53.9887711,79.4758448" id="Fill-332" fill="#462615"></path>
            <path d="M78,51 C75.8374268,51.4616549 75.7633712,52.8511604 75.0931305,53.9752775 C74.5732452,53.9833502 74.0533599,53.9914228 73.5327266,54 C72.9589827,53.7265388 72.1533475,53.6210898 72,53.0413724 C72.4488218,52.0035318 73.7698541,51.5711403 74.9988779,51.0741675 C75.9997507,51.0499495 76.9998753,51.0247225 78,51" id="Fill-334" fill="#5A4C1C"></path>
            <path d="M72.6134135,53.6373627 C73.0753836,54.0434812 73.5373536,54.4495997 74,54.8544371 C73.0118035,54.3426253 70.0952372,56.370015 71.2775558,53 C71.7226163,53.2126677 72.1676767,53.4246949 72.6134135,53.6373627" id="Fill-336" fill="#675824"></path>
            <path d="M58.7097264,80.9367283 C58.4726444,80.4801652 58.2363222,80.0228831 58,79.5670391 C59.9931611,79.0889061 61.9863222,78.6143681 64,79.4850734 C63.1360182,81.6765761 60.5615502,79.3211421 59.5045593,81 C59.2401216,80.9798681 58.974924,80.9582982 58.7097264,80.9367283" id="Fill-338" fill="#7B1718"></path>
            <path d="M35.4883956,99.9878174 C35.0711403,99.5577913 34.0852674,99.9858561 34,99.0561758 C35.006559,99.1699342 36.1165489,98.6413502 37,99.5146416 C36.6347124,100.089317 36.0489405,100.000076 35.4883956,99.9878174" id="Fill-340" fill="#FCE2C1"></path>
        </g>
    </g>
</svg>