<?xml version="1.0" encoding="UTF-8"?>
<svg width="600px" height="250px" viewBox="0 0 600 250" version="1.1" xmlns="http://www.w3.org/2000/svg" xmlns:xlink="http://www.w3.org/1999/xlink">
    <!-- Generator: Sketch 50.1 (55044) - http://www.bohemiancoding.com/sketch -->
    <title>BRDT</title>
    <desc>Created with Sketch.</desc>
    <defs>
        <polygon id="path-1" points="0 92 455 92 455 0 0 0"></polygon>
    </defs>
    <g id="BRDT" stroke="none" stroke-width="1" fill="none" fill-rule="evenodd">
        <g id="Grid-Logo" opacity="0.400000006"></g>
        <g id="Group-37" transform="translate(72.000000, 79.000000)">
            <path d="M24.7244269,41 L32.1782105,41 C33.6571358,41 35,42.090604 35,43.885906 C35,46.3087248 33.3140251,48 30.9773231,48 L23,48 L24.7244269,41 Z" id="Fill-2" fill="#008251"></path>
            <path d="M62.1135721,41 L69.4069274,41 C72.8621583,41 73,43.4586139 73,44.1588119 C73,45.7873267 71.6246466,49 67.4281338,49 L60,49 C60,49 62.0737512,41.1964356 62.1135721,41" id="Fill-4" fill="#008251"></path>
            <path d="M21.1372326,54 L27.8283676,54 C31.1048435,54 31.2890877,54.9597371 31.740486,55.7880033 C32.1888136,56.6064092 31.9830742,58.3352506 31.6729298,58.9301561 C31.2829463,59.6795399 30.6196672,62 26.4311825,62 L19,62 C19,62 21.1341619,54.0131471 21.1372326,54" id="Fill-6" fill="#008251"></path>
            <path d="M91,33 L91,92 L0,92 L0,33 L17.5106517,33 L7.80860073,67.3450129 L27.6672511,67.3450129 C36.270559,67.3450129 37.7696659,65.2868734 39.5156136,63.7897674 C41.848561,61.7865116 43.0978167,57.0238243 42.0502481,53.7094574 C41.3097254,51.3677519 39.142342,49.9468734 38.9075422,49.8797933 C41.5956996,48.6022222 43.1610321,45.8031525 43.3536884,45.3915245 C44.3500827,43.269354 45.1237182,39.4244444 42.6432683,36.3296124 C40.5812438,33.7592248 36.577605,33.0518346 33.669699,33 L54.931128,33 L45.1959643,67.4151421 L55.0515382,67.4151421 L58.6487926,54.3650129 L64.2779689,54.3650129 C68.3689051,54.3650129 67.9956335,56.9750388 68.0979821,58.0940568 L68.4200794,67.6895607 L77.5712537,67.6865116 C77.5712537,67.6865116 77.1558386,56.9171059 77.1227258,56.1273902 C76.9993053,53.3649096 75.2082038,52.1178295 73.6820046,52.1178295 C76.6139927,51.3037209 79.157658,48.5839276 80.175124,46.8367959 C81.3491234,44.8243928 82.231128,41.6197933 81.07218,38.4395866 C79.3864373,33.8232558 75.04565,33.0548837 72.0113133,33 L91,33 Z" id="Fill-8" fill="#008251"></path>
            <mask id="mask-2" fill="white">
                <use xlink:href="#path-1"></use>
            </mask>
            <g id="Clip-11"></g>
            <polygon id="Fill-10" fill="#FABA00" mask="url(#mask-2)" points="0 22 91 22 91 0 0 0"></polygon>
            <path d="M139.945097,26.1336328 C139.460432,27.8168164 138.215449,28.4889107 136.694813,28.5567097 L136.349489,28.5567097 L133.444529,28.5567097 L134.759182,23.9139528 L136.694813,23.9139528 L136.764483,23.9139528 C138.285119,23.9139528 140.499432,24.1792532 139.945097,26.1336328 Z M147,23.4393599 C146.721318,20.6802358 144.370693,19 139.530102,19 L136.694813,19 L129.155244,19 L123,40 L130.054903,40 L131.990534,33.4706625 L135.589171,33.4706625 L136.694813,33.4706625 C142.226051,33.1346154 145.479364,30.3076923 146.654676,26.1336328 C146.860659,25.5263897 146.930329,24.9898933 147,24.4504492 L147,23.4393599 Z" id="Fill-12" fill="#008251" mask="url(#mask-2)"></path>
            <polygon id="Fill-13" fill="#008251" mask="url(#mask-2)" points="148 40 166.193054 40 167.660878 35.1538462 156.607763 35.1538462 157.585291 31.8552779 166.609806 31.8552779 168.010215 26.9413251 158.9857 26.9413251 159.895812 23.9139528 170.529111 23.9139528 172 19 154.226762 19"></polygon>
            <polygon id="Fill-14" fill="#008251" mask="url(#mask-2)" points="196 19 176.625883 19 175 24.5182482 181.233541 24.5182482 176.830602 40 183.740605 40 188.211783 24.5182482 194.442357 24.5182482"></polygon>
            <path d="M209.931017,26.1336328 C209.588586,27.4129702 208.501737,27.9524144 206.73598,28.0880124 L206.122581,28.0880124 L203.335484,28.0880124 L204.559305,23.9139528 L206.73598,23.9139528 L207.822829,23.9139528 C209.386104,23.9139528 210.404467,24.5860472 209.931017,26.1336328 M209.04665,19 L206.73598,19 L198.985112,19 L193,40 L199.934988,40 L202.046154,32.7278214 L204.151365,32.7278214 C205.443672,32.7278214 206.259553,32.8634194 206.73598,33.1994666 C207.414888,33.7389107 207.277916,34.6792532 206.801489,36.3624368 C206.801489,36.4980348 206.73598,36.6336328 206.73598,36.766283 C206.259553,38.3816676 206.054094,39.5932061 206.122581,40 L206.73598,40 L213.191563,40 L213.328536,39.3927569 C212.512655,39.3927569 212.852109,38.4494666 213.66799,35.6903425 C214.894789,31.4514318 213.66799,30.9797866 211.696774,30.1072431 C214.346898,29.432201 215.97866,27.4129702 216.729032,24.9898933 C216.866005,24.4504492 216.934491,23.9817518 217,23.5101067 L217,22.4312184 C216.729032,20.1437395 214.415385,19 209.04665,19" id="Fill-15" fill="#008251" mask="url(#mask-2)"></path>
            <path d="M236.371855,27.900426 C235.532116,30.64164 234.131529,32.7824814 232.03218,33.5849308 C231.474397,33.7840788 230.913549,33.8514377 230.285276,33.8514377 C226.855829,33.8514377 226.993743,30.5098509 227.766058,27.900426 C228.39433,25.6951544 229.794918,23.2204473 232.03218,22.4179979 C232.522539,22.2159212 233.083387,22.0841321 233.714724,22.0841321 C236.862214,22.0167732 237.211595,25.0274228 236.371855,27.900426 M235.253224,17 C234.131529,17 233.083387,17.1347178 232.03218,17.3367945 C226.644362,18.4731097 222.237262,22.350639 220.628272,27.8359957 C220.278892,28.9049521 220.070489,29.9739084 220,30.908147 L220,32.4486155 C220.349381,36.6600106 223.56736,39 228.743711,39 C229.865407,39 230.913549,38.8682109 232.03218,38.5987753 C237.211595,37.529819 241.759673,33.7840788 243.509641,27.900426 C243.788533,26.8958999 244,25.8943024 244,24.9600639 L244,24.0228967 C243.788533,20.0780085 241.198825,17 235.253224,17" id="Fill-16" fill="#008251" mask="url(#mask-2)"></path>
            <path d="M261.750879,25.5951144 C261.403806,26.806823 260.152513,27.4112031 258.761173,27.4112031 L256.952736,27.4112031 L255.774511,27.4112031 L256.815733,23.9116945 L256.952736,23.9116945 L259.318318,23.9116945 C260.849705,23.9116945 262.238001,23.9116945 261.750879,25.5951144 M260.29256,33.2014601 C259.875463,34.6814544 258.554147,35.0853573 256.952736,35.0853573 C256.885757,35.1531658 256.745709,35.1531658 256.675686,35.1531658 L253.548977,35.1531658 L254.660222,31.2497543 L256.952736,31.2497543 C259.178271,31.2497543 260.849705,31.3824231 260.29256,33.2014601 M261.540808,19 L256.952736,19 L251.186439,19 L245,40 L255.56444,40 L256.952736,40 C261.887882,39.7317142 265.504757,37.9804858 266.756049,33.6731714 C267.450197,31.3824231 266.756049,29.4307174 264.530515,28.8941457 C266.198905,28.0185315 268.077366,26.4707286 268.771513,24.3155974 C269.952782,20.1409518 266.405931,19 261.540808,19" id="Fill-17" fill="#008251" mask="url(#mask-2)"></path>
            <path d="M285.996526,26.1336328 C285.588586,27.4129702 284.501737,27.9524144 282.733002,28.0880124 L282.122581,28.0880124 L279.40397,28.0880124 L280.559305,23.9139528 L282.733002,23.9139528 L283.822829,23.9139528 C285.451613,23.9139528 286.407444,24.5860472 285.996526,26.1336328 M292.657568,24.9898933 C292.794541,24.4504492 292.931514,23.9139528 293,23.5101067 L293,22.4990174 C292.729032,20.1437395 290.483871,19 285.04665,19 L282.733002,19 L275.05062,19 L269,40 L275.937965,40 L278.043176,32.7278214 L280.151365,32.7278214 C281.443672,32.7278214 282.259553,32.8634194 282.733002,33.1994666 C283.414888,33.7389107 283.343424,34.6792532 282.869975,36.3624368 C282.801489,36.4980348 282.733002,36.6336328 282.733002,36.766283 C282.259553,38.3816676 282.122581,39.5932061 282.122581,40 L282.733002,40 L289.191563,40 L289.397022,39.3927569 C288.515633,39.3927569 288.920596,38.4494666 289.66799,35.6903425 C290.894789,31.4514318 289.66799,30.9797866 287.696774,30.1072431 C290.349876,29.432201 291.97866,27.4129702 292.657568,24.9898933" id="Fill-18" fill="#008251" mask="url(#mask-2)"></path>
            <path d="M305.012016,32.8634194 L302.867824,32.8634194 L305.012016,29.0283549 L307.088652,25.3259405 L307.156208,32.8634194 L305.012016,32.8634194 Z M305.481976,19 L305.012016,19.7398933 L292,40 L298.708678,40 L300.318291,37.2379281 L305.012016,37.2379281 L307.156208,37.2379281 L307.156208,40 L314,40 L312.455007,19 L305.481976,19 Z" id="Fill-19" fill="#008251" mask="url(#mask-2)"></path>
            <path d="M332.913009,17 C327.713714,17 323.247166,19.2055652 321.983104,23.6899214 C319.714799,31.6451871 332.31455,29.4396219 331.444595,32.6498469 C331.114713,33.5871389 329.847731,34.1905206 328.180804,34.1905206 C327.512282,34.1905206 326.779534,33.985488 326.382508,33.6515777 C325.848274,33.3176674 325.64976,32.7172148 325.713985,31.9790973 L319.183484,31.9790973 C318.249304,35.7253362 320.917555,39 326.382508,39 C332.116037,39 336.845323,36.5952603 338.179449,31.7769937 C340.310546,24.1556384 327.848003,26.162029 328.715038,23.0191719 C328.913552,22.2166156 329.713443,21.8153375 331.178938,21.8153375 C331.84746,21.8153375 332.445919,21.9471442 332.848784,22.2166156 C333.312955,22.4187192 333.514388,22.8873652 333.447243,23.6225536 L339.910601,23.6225536 C340.444835,19.9436826 338.643619,17 332.913009,17" id="Fill-20" fill="#008251" mask="url(#mask-2)"></path>
            <path d="M122.697683,65.1436798 L127.269352,65.1436798 C128.324353,65.1436798 129.270923,64.9680392 130.109062,64.6225166 C130.947202,64.2798733 131.685702,63.839332 132.327494,63.3066513 C132.963425,62.77685 133.520231,62.1750648 133.99205,61.4984164 C134.46387,60.830406 134.856565,60.1681543 135.170134,59.5260582 C135.480774,58.8810826 135.721079,58.2735387 135.88519,57.7063058 C136.052232,57.1390728 136.157732,56.6841348 136.201691,56.3443709 C136.441996,54.593723 136.225135,53.2375468 135.554037,52.2844803 C134.880009,51.3314138 133.813287,50.8563202 132.348008,50.8563202 L127.776339,50.8563202 L122.697683,65.1436798 Z M125.115393,48 L132.793453,48 C135.489565,48 137.438386,48.6968039 138.636984,50.0875324 C139.835581,51.4782609 140.242929,53.571552 139.861957,56.3731644 C139.782831,56.9720703 139.621651,57.64296 139.384276,58.3771955 C139.146901,59.1143104 138.839192,59.8629427 138.464081,60.6202131 C138.088969,61.3746041 137.646455,62.1002016 137.142399,62.8027642 C136.635413,63.5024475 136.063954,64.1157501 135.428024,64.6369133 C134.721759,65.2156637 134.050662,65.7137921 133.405939,66.1370573 C132.764147,66.5574431 132.060813,66.9087244 131.298868,67.1880219 C130.539854,67.4673193 129.684131,67.6746329 128.740492,67.8042039 C127.793922,67.9337748 126.665658,68 125.358629,68 L118,68 L125.115393,48 Z" id="Fill-21" fill="#008251" mask="url(#mask-2)"></path>
            <polygon id="Fill-22" fill="#008251" mask="url(#mask-2)" points="149.250341 48 153 48 145.749659 68 142 68"></polygon>
            <path d="M158.648857,61.5557999 C158.35989,63.1855415 158.610912,64.3315008 159.401923,64.9997251 C160.190015,65.6679494 161.345884,66.0005498 162.863692,66.0005498 C163.348223,66.0005498 163.879455,65.940077 164.445714,65.822155 C165.017811,65.7042331 165.543206,65.5167675 166.024818,65.2476636 C166.50643,64.9846069 166.923827,64.6429357 167.279928,64.2196262 C167.638948,63.7963167 167.854944,63.273227 167.936672,62.6443101 C168.012562,62.057724 167.933753,61.5678944 167.703163,61.1748213 C167.469654,60.7847719 167.142742,60.4551952 166.722426,60.1891149 C166.299191,59.9260583 165.797147,59.702309 165.216294,59.5148433 C164.638359,59.3273777 164.037074,59.1459593 163.418275,58.9705882 C162.965852,58.8496427 162.434619,58.6893898 161.815821,58.4807587 C161.20286,58.2781748 160.619088,57.9727872 160.067423,57.5736668 C159.515759,57.1715228 159.075011,56.6454096 158.739342,55.9983507 C158.403673,55.3512919 158.298594,54.528862 158.427024,53.5280374 C158.549616,52.5846619 158.838583,51.7108301 159.291006,50.9095657 C159.746349,50.1083013 160.338877,49.4128642 161.077349,48.8383727 C161.812902,48.257834 162.682723,47.8073117 163.68973,47.4837823 C164.693818,47.1602529 165.808822,47 167.034744,47 C168.123479,47 169.130486,47.1179219 170.052846,47.3477185 C170.978125,47.5835624 171.754542,47.9675646 172.387935,48.4997251 C173.021327,49.0258384 173.47667,49.7182518 173.753961,50.5709181 C174.034172,51.4235844 174.075036,52.46674 173.876554,53.7034085 L170.373921,53.7034085 C170.522783,52.391149 170.286355,51.4447499 169.6588,50.8642111 C169.034164,50.286696 168.009643,49.9994502 166.591077,49.9994502 C166.337136,49.9994502 165.983954,50.026663 165.528612,50.0871358 C165.070351,50.1445849 164.606252,50.2806487 164.133396,50.4983507 C163.654703,50.7130291 163.225631,51.024464 162.84326,51.4235844 C162.460889,51.8257284 162.224461,52.3790544 162.133977,53.0835624 C162.066843,53.5975811 162.131058,54.0208906 162.320784,54.3504673 C162.513429,54.6860913 162.79072,54.9703134 163.161416,55.2031336 C163.529192,55.4389775 163.967021,55.635514 164.471984,55.7927433 C164.974028,55.9499725 165.511099,56.0951072 166.077358,56.2341946 C166.792479,56.4307312 167.510518,56.6454096 168.225639,56.8812534 C168.946598,57.1140737 169.585828,57.446674 170.143331,57.8639362 C170.700833,58.2872457 171.126987,58.8435954 171.418873,59.5299615 C171.710759,60.2163277 171.78373,61.1083013 171.640706,62.2058824 C171.535627,63.0252886 171.27293,63.8446949 170.86137,64.6459593 C170.446892,65.453271 169.848526,66.1759208 169.075028,66.8229797 C168.30153,67.4700385 167.341224,67.9961517 166.188274,68.3982958 C165.035324,68.8004398 163.672216,69 162.096032,69 C160.87011,69 159.781375,68.8548653 158.823989,68.5736668 C157.866602,68.2924684 157.084348,67.8479934 156.468468,67.2523364 C155.855507,66.6536559 155.429354,65.8826278 155.190007,64.9392523 C154.95066,63.9989005 154.938985,62.8741067 155.146224,61.5557999 L158.648857,61.5557999 Z" id="Fill-23" fill="#008251" mask="url(#mask-2)"></path>
            <polygon id="Fill-24" fill="#008251" mask="url(#mask-2)" points="180.099023 48 198 48 196.870534 51.0233228 189.959782 51.0233228 183.727928 68 179.922448 68 186.154302 51.0233228 179 51.0233228"></polygon>
            <path d="M205.547948,57.1045206 L210.89137,57.1045206 C212.468117,57.1045206 213.711995,56.7906709 214.623005,56.1658508 C215.536935,55.5381515 216.071277,54.6397927 216.231871,53.4592571 C216.304869,52.9208177 216.26399,52.4773971 216.106316,52.1289951 C215.948641,51.7863519 215.706289,51.5214512 215.38218,51.3314138 C215.055151,51.147135 214.672643,51.0204434 214.234658,50.9542183 C213.796673,50.8908724 213.335328,50.8563202 212.847704,50.8563202 L207.737875,50.8563202 L205.547948,57.1045206 Z M205.031125,48 L214.053624,48 C214.500369,48 215.08727,48.0374316 215.817245,48.1122948 C216.547221,48.1871581 217.245078,48.3915923 217.910815,48.7284768 C218.573633,49.0653614 219.116735,49.5750072 219.543041,50.254535 C219.966427,50.9340628 220.094902,51.8871293 219.931388,53.0964584 C219.718235,54.6858624 219.128415,55.923985 218.173607,56.807947 C217.215879,57.6947884 215.98076,58.26778 214.46533,58.5326807 L214.456571,58.5873884 C215.288743,58.9069968 215.814325,59.3763317 216.033318,60.0011517 C216.249391,60.6288511 216.301949,61.3630867 216.188073,62.200979 C216.094636,62.8920242 215.942801,63.5859487 215.732568,64.2741146 C215.522335,64.9651598 215.37926,65.656205 215.303342,66.3472502 C215.268304,66.6265477 215.253704,66.9087244 215.262464,67.1880219 C215.274143,67.4673193 215.341301,67.7350993 215.461017,68 L211.635945,68 C211.571707,67.7350993 211.545428,67.4845955 211.548348,67.2427296 C211.551268,67.0037432 211.571707,66.7388425 211.609666,66.4595451 C211.711862,65.7109128 211.869537,64.9795566 212.08269,64.2597178 C212.298763,63.5398791 212.453517,62.817161 212.552794,62.0858048 C212.631632,61.5099338 212.579073,61.0636337 212.398039,60.7469047 C212.217005,60.4272963 211.951294,60.1969479 211.600906,60.0587388 C211.250518,59.9205298 210.841731,59.8341492 210.380387,59.8053556 C209.916122,59.7794414 209.440178,59.7621653 208.955474,59.7621653 L204.60482,59.7621653 L201.708276,68 L198,68 L205.031125,48 Z" id="Fill-25" fill="#008251" mask="url(#mask-2)"></path>
            <polygon id="Fill-26" fill="#008251" mask="url(#mask-2)" points="229.250341 48 233 48 225.749659 68 222 68"></polygon>
            <path d="M240.903659,56.3731644 L246.483063,56.3731644 C247.396057,56.3731644 248.150917,56.2608696 248.735711,56.0391592 C249.323487,55.8174489 249.791919,55.5381515 250.135037,55.2127843 C250.478156,54.8845379 250.725798,54.5390153 250.87498,54.1762165 C251.024162,53.8105384 251.119638,53.4995681 251.155442,53.2375468 C251.182294,53.0302332 251.185278,52.7941261 251.161409,52.5205874 C251.140523,52.2528074 251.03908,51.9936654 250.854094,51.7402822 C250.669109,51.4897783 250.370745,51.276706 249.959003,51.1068241 C249.541293,50.9398215 248.959484,50.8563202 248.201639,50.8563202 L242.890762,50.8563202 L240.903659,56.3731644 Z M237.749953,65.1436798 L243.090666,65.1436798 C243.409916,65.1436798 243.860445,65.1321624 244.439271,65.1120069 C245.018097,65.0976101 245.617808,64.9997121 246.238405,64.8211921 C246.861986,64.642672 247.434844,64.3403398 247.962948,63.9084365 C248.488069,63.482292 248.849089,62.8545926 249.043025,62.0339764 C249.096731,61.7892312 249.132535,61.4897783 249.150436,61.1356176 C249.171322,60.781457 249.078829,60.4359344 248.875942,60.0990498 C248.673054,59.7621653 248.326952,59.4771091 247.831668,59.2467607 C247.336384,59.013533 246.61136,58.8954794 245.656595,58.8954794 L240.017518,58.8954794 L237.749953,65.1436798 Z M240.184602,48 L249.371226,48 C250.78547,48 251.880466,48.17852 252.653228,48.5298013 C253.431958,48.883962 254.001833,49.3072272 254.362853,49.7909588 C254.72089,50.2804492 254.923777,50.7929744 254.968532,51.3314138 C255.013287,51.8756119 255.010303,52.3219119 254.959581,52.6789519 C254.879023,53.2749784 254.705972,53.839332 254.443412,54.3720127 C254.180851,54.9046933 253.840716,55.3855456 253.423007,55.8174489 C253.005298,56.2435934 252.524932,56.5977541 251.975942,56.8799309 C251.43292,57.156349 250.845143,57.3463864 250.215595,57.4414051 L250.206645,57.4961129 C252.247453,58.129571 253.118676,59.5318169 252.817328,61.6970919 C252.745721,62.2182551 252.548801,62.8401958 252.232535,63.5600346 C251.913286,64.2798733 251.415018,64.9680392 250.737732,65.6331702 C250.057463,66.2954218 249.165355,66.8568961 248.055441,67.3147135 C246.948511,67.7696516 245.579021,68 243.949954,68 L233,68 L240.184602,48 Z" id="Fill-27" fill="#008251" mask="url(#mask-2)"></path>
            <path d="M263.092616,48 L266.86736,48 L262.373905,60.5539305 C262.277272,60.8197159 262.189698,61.0943608 262.111183,61.3719589 C262.032668,61.649557 261.963213,61.9301083 261.905837,62.2195191 C261.791085,62.9076079 261.818263,63.4893826 261.984352,63.9589369 C262.15346,64.4255379 262.428262,64.806497 262.811775,65.0929546 C263.195289,65.3794122 263.660338,65.5861342 264.206921,65.7131205 C264.753504,65.8371537 265.357463,65.8962171 266.021817,65.8962171 C266.746568,65.8962171 267.429042,65.8223878 268.063199,65.6658698 C268.697356,65.5152581 269.289235,65.23766 269.835818,64.8478414 C270.382401,64.4580228 270.892747,63.9175925 271.369874,63.2413163 C271.843982,62.5591337 272.275813,61.6938546 272.659327,60.6395725 L277.225256,48 L281,48 L276.403872,60.8699198 C276.107932,61.7145268 275.724418,62.6122908 275.250311,63.5720714 C274.776203,64.5259457 274.117887,65.4089439 273.272345,66.2122064 C272.426802,67.0184222 271.354775,67.6858388 270.056263,68.2085501 C268.754732,68.7371678 267.130082,69 265.176275,69 C264.110287,69 263.110735,68.8700605 262.180638,68.6131346 C261.250542,68.3532555 260.456335,67.9634369 259.80406,67.446632 C259.145745,66.9327802 258.659558,66.274223 258.33342,65.47982 C258.010302,64.685417 257.922728,63.7522149 258.067678,62.6772606 C258.134113,62.2018 258.233766,61.735199 258.363618,61.2892701 C258.496489,60.8344818 258.641439,60.3796934 258.807527,59.9219519 L263.092616,48 Z" id="Fill-28" fill="#008251" mask="url(#mask-2)"></path>
            <polygon id="Fill-29" fill="#008251" mask="url(#mask-2)" points="288.250341 48 292 48 284.749659 68 281 68"></polygon>
            <path d="M297.697775,65.1436798 L302.269533,65.1436798 C303.324554,65.1436798 304.271143,64.9680392 305.109298,64.6225166 C305.944524,64.2798733 306.683038,63.839332 307.324843,63.3066513 C307.963717,62.77685 308.517603,62.1750648 308.992362,61.4984164 C309.464191,60.830406 309.853963,60.1681543 310.170469,59.5260582 C310.481115,58.8810826 310.718494,58.2735387 310.882609,57.7063058 C311.049654,57.1390728 311.158086,56.6841348 311.202046,56.3443709 C311.439425,54.593723 311.225491,53.2375468 310.55438,52.2844803 C309.880339,51.3314138 308.813595,50.8563202 307.348288,50.8563202 L302.773599,50.8563202 L297.697775,65.1436798 Z M300.112601,48 L307.790811,48 C310.486976,48 312.435834,48.6968039 313.634456,50.0875324 C314.833077,51.4782609 315.243363,53.571552 314.862383,56.3731644 C314.780326,56.9720703 314.622073,57.64296 314.384693,58.3771955 C314.147313,59.1143104 313.839599,59.8629427 313.46448,60.6202131 C313.086431,61.3746041 312.649769,62.1002016 312.139842,62.8027642 C311.635777,63.5024475 311.064307,64.1157501 310.425433,64.6369133 C309.725016,65.2156637 309.048044,65.7137921 308.40624,66.1370573 C307.764435,66.5574431 307.058157,66.9087244 306.299128,67.1880219 C305.540099,67.4673193 304.684359,67.6746329 303.740702,67.8042039 C302.794113,67.9337748 301.665827,68 300.358773,68 L293,68 L300.112601,48 Z" id="Fill-30" fill="#008251" mask="url(#mask-2)"></path>
            <path d="M322.769327,59.7053326 C322.5177,61.6646509 322.816141,63.206707 323.664653,64.3224299 C324.51609,65.4411765 325.859078,66.0005498 327.693618,66.0005498 C328.902015,66.0005498 329.993376,65.7163277 330.976479,65.1478835 C331.956656,64.5794393 332.813945,63.8326003 333.54542,62.913414 C334.282747,61.991204 334.873779,60.951072 335.324368,59.7930181 C335.777882,58.6349643 336.076324,57.4708631 336.231397,56.2916438 C336.483024,54.3353491 336.210915,52.793293 335.409219,51.6775701 C334.607522,50.5588235 333.287941,49.9994502 331.456327,49.9994502 C330.206967,49.9994502 329.083421,50.2836723 328.082763,50.8521165 C327.085031,51.4205607 326.216038,52.164376 325.484563,53.086586 C324.750162,54.008796 324.153278,55.048928 323.690986,56.2069819 C323.225768,57.3650357 322.9244,58.5291369 322.769327,59.7053326 M319.097322,59.8232545 C319.381134,57.6280924 319.95461,55.7231996 320.817751,54.1025289 C321.677966,52.4818582 322.707883,51.1514568 323.910428,50.102254 C325.107122,49.0560748 326.406222,48.2729522 327.807728,47.7649808 C329.212161,47.2509621 330.596112,47 331.962507,47 C333.323051,47 334.543152,47.2237493 335.616958,47.6742716 C336.690763,48.1247938 337.568533,48.7567345 338.25612,49.5731171 C338.937855,50.3864761 339.42648,51.351017 339.724922,52.46674 C340.020438,53.5885102 340.07603,54.822155 339.900476,56.1737218 C339.616664,58.3900495 339.054891,60.3040132 338.226861,61.9095657 C337.392979,63.5211655 336.392321,64.8485432 335.221961,65.897746 C334.051601,66.9469489 332.775908,67.7240242 331.380253,68.2350192 C329.99045,68.7429907 328.588944,69 327.187437,69 C325.683524,69 324.390276,68.7641561 323.298915,68.295492 C322.207554,67.8238043 321.323932,67.1767455 320.650975,66.3512919 C319.978018,65.5318857 319.509874,64.5582738 319.243617,63.4425509 C318.97736,62.3238043 318.930545,61.1203958 319.097322,59.8232545" id="Fill-31" fill="#008251" mask="url(#mask-2)"></path>
            <path d="M351.547948,57.1045206 L356.89137,57.1045206 C358.468117,57.1045206 359.714915,56.7906709 360.625925,56.1658508 C361.536935,55.5381515 362.071277,54.6397927 362.231871,53.4592571 C362.307789,52.9208177 362.26399,52.4773971 362.106316,52.1289951 C361.951561,51.7863519 361.706289,51.5214512 361.38218,51.3314138 C361.058071,51.147135 360.675563,51.0204434 360.237578,50.9542183 C359.796673,50.8908724 359.335328,50.8563202 358.847704,50.8563202 L353.737875,50.8563202 L351.547948,57.1045206 Z M351.028205,48 L360.050704,48 C360.497449,48 361.090189,48.0374316 361.820165,48.1122948 C362.550141,48.1871581 363.245078,48.3915923 363.910815,48.7284768 C364.576553,49.0653614 365.119655,49.5750072 365.543041,50.254535 C365.966427,50.9340628 366.094902,51.8871293 365.931388,53.0964584 C365.718235,54.6858624 365.128415,55.923985 364.173607,56.807947 C363.215879,57.6947884 361.98076,58.26778 360.46533,58.5326807 L360.459491,58.5873884 C361.288743,58.9069968 361.817245,59.3763317 362.033318,60.0011517 C362.252311,60.6288511 362.304869,61.3630867 362.190993,62.200979 C362.094636,62.8920242 361.942801,63.5859487 361.732568,64.2741146 C361.522335,64.9651598 361.37926,65.656205 361.306262,66.3472502 C361.268304,66.6265477 361.250784,66.9087244 361.262464,67.1880219 C361.274143,67.4673193 361.341301,67.7350993 361.463937,68 L357.638865,68 C357.571707,67.7350993 357.545428,67.4845955 357.548348,67.2427296 C357.554188,67.0037432 357.571707,66.7388425 357.612586,66.4595451 C357.711862,65.7109128 357.869537,64.9795566 358.08269,64.2597178 C358.298763,63.5398791 358.456437,62.817161 358.552794,62.0858048 C358.634551,61.5099338 358.579073,61.0636337 358.400959,60.7469047 C358.217005,60.4272963 357.951294,60.1969479 357.600906,60.0587388 C357.250518,59.9205298 356.841731,59.8341492 356.380387,59.8053556 C355.916122,59.7794414 355.443098,59.7621653 354.955474,59.7621653 L350.607739,59.7621653 L347.711196,68 L344,68 L351.028205,48 Z" id="Fill-32" fill="#008251" mask="url(#mask-2)"></path>
            <path d="M382.005848,51.5272099 L381.944444,51.5272099 L375.760234,60.0443421 L382.134503,60.0443421 L382.005848,51.5272099 Z M381.225146,48 L385.084795,48 L386,68 L382.289474,68 L382.157895,62.7048661 L373.850877,62.7048661 L369.918129,68 L366,68 L381.225146,48 Z" id="Fill-33" fill="#008251" mask="url(#mask-2)"></path>
            <path d="M407.648857,61.5557999 C407.35989,63.1855415 407.610912,64.3315008 408.401923,64.9997251 C409.190015,65.6679494 410.345884,66.0005498 411.863692,66.0005498 C412.348223,66.0005498 412.876537,65.940077 413.445714,65.822155 C414.017811,65.7042331 414.543206,65.5167675 415.024818,65.2476636 C415.50643,64.9846069 415.923827,64.6429357 416.279928,64.2196262 C416.636029,63.7963167 416.854944,63.273227 416.936672,62.6443101 C417.012562,62.057724 416.933753,61.5678944 416.703163,61.1748213 C416.469654,60.7847719 416.139823,60.4551952 415.719507,60.1891149 C415.296272,59.9260583 414.797147,59.702309 414.216294,59.5148433 C413.63544,59.3273777 413.039993,59.1459593 412.421194,58.9705882 C411.965852,58.8496427 411.431701,58.6893898 410.81874,58.4807587 C410.20286,58.2781748 409.619088,57.9727872 409.067423,57.5736668 C408.515759,57.1715228 408.075011,56.6454096 407.736423,55.9983507 C407.400754,55.3512919 407.298594,54.528862 407.429942,53.5280374 C407.549616,52.5846619 407.835664,51.7108301 408.291006,50.9095657 C408.74343,50.1083013 409.338877,49.4128642 410.077349,48.8383727 C410.812902,48.257834 411.682723,47.8073117 412.68973,47.4837823 C413.693818,47.1602529 414.808822,47 416.034744,47 C417.123479,47 418.130486,47.1179219 419.052846,47.3477185 C419.975206,47.5835624 420.754542,47.9675646 421.385016,48.4997251 C422.018408,49.0258384 422.473751,49.7182518 422.753961,50.5709181 C423.034172,51.4235844 423.075036,52.46674 422.876554,53.7034085 L419.373921,53.7034085 C419.519864,52.391149 419.283436,51.4447499 418.655881,50.8642111 C418.034164,50.286696 417.006725,49.9994502 415.588158,49.9994502 C415.334217,49.9994502 414.983954,50.026663 414.525693,50.0871358 C414.070351,50.1445849 413.606252,50.2806487 413.133396,50.4983507 C412.654703,50.7130291 412.225631,51.024464 411.84326,51.4235844 C411.463808,51.8257284 411.22738,52.3790544 411.133977,53.0835624 C411.069762,53.5975811 411.128139,54.0208906 411.320784,54.3504673 C411.51051,54.6860913 411.79072,54.9703134 412.161416,55.2031336 C412.526273,55.4389775 412.964102,55.635514 413.469065,55.7927433 C413.974028,55.9499725 414.514017,56.0951072 415.077358,56.2341946 C415.78956,56.4307312 416.507599,56.6454096 417.225639,56.8812534 C417.943679,57.1140737 418.585828,57.446674 419.143331,57.8639362 C419.700833,58.2872457 420.124068,58.8435954 420.415954,59.5299615 C420.70784,60.2163277 420.78373,61.1083013 420.640706,62.2058824 C420.535627,63.0252886 420.27293,63.8446949 419.86137,64.6459593 C419.443973,65.453271 418.851445,66.1759208 418.072109,66.8229797 C417.30153,67.4700385 416.338305,67.9961517 415.185355,68.3982958 C414.035324,68.8004398 412.672216,69 411.096032,69 C409.87011,69 408.778456,68.8548653 407.823989,68.5736668 C406.866602,68.2924684 406.084348,67.8479934 405.468468,67.2523364 C404.855507,66.6536559 404.429354,65.8826278 404.190007,64.9392523 C403.95066,63.9989005 403.938985,62.8741067 404.146224,61.5557999 L407.648857,61.5557999 Z" id="Fill-34" fill="#008251" mask="url(#mask-2)"></path>
            <polygon id="Fill-35" fill="#008251" mask="url(#mask-2)" points="425.781886 66 431 66 429.214362 70 424 70"></polygon>
            <path d="M451.005848,51.5272099 L450.944444,51.5272099 L444.760234,60.0443421 L451.134503,60.0443421 L451.005848,51.5272099 Z M450.222222,48 L454.084795,48 L455,68 L451.28655,68 L451.154971,62.7048661 L442.850877,62.7048661 L438.918129,68 L435,68 L450.222222,48 Z" id="Fill-36" fill="#008251" mask="url(#mask-2)"></path>
        </g>
    </g>
</svg>