<?xml version="1.0" encoding="UTF-8"?>
<svg width="600px" height="250px" viewBox="0 0 600 250" version="1.1" xmlns="http://www.w3.org/2000/svg" xmlns:xlink="http://www.w3.org/1999/xlink">
    <!-- Generator: Sketch 50.2 (55047) - http://www.bohemiancoding.com/sketch -->
    <title>BRFS3</title>
    <desc>Created with Sketch.</desc>
    <defs></defs>
    <g id="BRFS3" stroke="none" stroke-width="1" fill="none" fill-rule="evenodd">
        <g id="Grid-Logo" opacity="0.400000006" transform="translate(1.000000, 0.000000)"></g>
        <g transform="translate(136.000000, 47.000000)" fill-rule="nonzero" id="Shape">
            <path d="M77,111 C92.1187215,105.41784 107.041096,97.7183099 120,87.7089202 C108.415525,83.2816901 97.4200913,77.314554 87.4063927,70 C84.6575342,84.2441315 81.1232877,98.1032864 77,111" fill="#E32119"></path>
            <path d="M125,57.3684211 C118.634518,50.6698565 113.619289,42.2488038 109.954315,33.2535885 C103.781726,32.6794258 97.9949239,31.5311005 92.4010152,30 C91.4365482,43.0143541 89.5076142,56.6028708 87,70 C99.7309645,68.0861244 112.654822,64.0669856 125,57.3684211" fill="#F39400"></path>
            <path d="M87,70.4203822 C96.8955224,77.6815287 107.761194,83.6050955 119.208955,88 C126.58209,82.2675159 133.179104,75.7707006 139,68.5095541 C133.761194,65.8343949 129.104478,62.2038217 125.029851,58 C112.80597,64.6878981 99.8059701,68.7006369 87,70.4203822" fill="#E95D0F"></path>
            <path d="M87,70.0175864 C79.4450262,64.3899333 72.4712042,57.9860522 66.2722513,51 C61.4293194,57.2098241 55.8115183,63.0315343 50,68.2710734 C62.0104712,71.1819284 74.408377,71.7640995 87,70.0175864" fill="#E64415"></path>
            <path d="M60,153.714474 C77.7894737,158.095511 96.1654135,156.000233 112,148.952477 C103.398496,148.000078 94.6015038,146.285759 86.1954887,144 C77.9849624,148.000078 69.1879699,151.238236 60,153.714474" fill="#00378B"></path>
            <path d="M36,121 C42,134.122807 50,145.701754 59.8,154 C62.6,149.175439 65.4,143.77193 68,137.789474 C56.8,132.964912 46,127.368421 36,121" fill="#00378B"></path>
            <path d="M60,155 C69.119403,152.369048 77.8507463,148.72619 86,144.678571 C79.9850746,142.857143 73.9701493,140.630952 68.1492537,138 C65.4328358,144.27381 62.7164179,149.940476 60,155" fill="#005EA8"></path>
            <path d="M77,111 C84.6273063,120.259843 92.6457565,128.385827 101.055351,135 C111.811808,128.19685 121.590406,120.448819 130,111.755906 C113.9631,115.913386 95.3837638,115.535433 77,111" fill="#81197F"></path>
            <path d="M25,85 C27.3197026,97.5052632 30.9925651,109.821053 36.0185874,121 C49.1635688,119.105263 63.2750929,115.694737 77,110.768421 C58.4423792,106.031579 40.0780669,97.3157895 25,85" fill="#81197F"></path>
            <path d="M77,112 C66.7546468,98.9638009 57.669145,84.1764706 50.3234201,69 C42.3977695,76.0045249 33.6988848,81.841629 25,85.5384615 C40.0780669,98.3800905 58.4423792,107.330317 77,112" fill="#B51621"></path>
            <path d="M23,58 C23.1849315,66.8741259 24.109589,75.9370629 25.7739726,85 C34.0958904,81.2237762 42.4178082,75.7482517 50,68.951049 C40.3835616,66.4965035 31.3219178,62.9090909 23,58" fill="#DB001B"></path>
            <path d="M87,70.5565611 C74.408377,72.3076923 61.8167539,71.7239819 50,69 C57.3612565,84.1764706 66.4659686,99.158371 76.7329843,112 C80.8010471,98.9638009 84.2879581,84.9547511 87,70.5565611" fill="#CD071E"></path>
            <path d="M120,88.3088235 C127.942408,91.3676471 136.272251,93.6617647 144.795812,95 C149.638743,88.3088235 153.706806,81.4264706 157,74.3529412 C150.60733,73.5882353 144.989529,71.6764706 139.759162,69 C133.947644,76.0735294 127.361257,82.5735294 120,88.3088235" fill="#EC7405"></path>
            <path d="M25,85.9428341 C16.2827351,78.2165802 8.51299893,69.3016719 2.44881464,59 C-0.204265996,69.69789 -0.583277515,80.5938891 0.743262801,90.895561 C8.70250469,91.4898882 16.8512523,89.5087975 25,85.9428341" fill="#93117E"></path>
            <path d="M26,84 C24.2,74.9253731 23.2,65.8507463 23,56.9651741 C17.2,53.7512438 11.8,50.159204 6.8,46 C6,47.7014925 5.2,49.5920398 4.4,51.4825871 C3.4,53.7512438 2.8,56.2089552 2,58.4776119 C8.6,68.119403 16.8,76.6268657 26,84" fill="#C50E1F"></path>
            <path d="M1,90 C2.7027027,102.24 7.43243243,113.897143 14.2432432,124 C21.0540541,123.805714 28.4324324,123.028571 36,121.862857 C22.5675676,112.731429 10.4594595,101.657143 1,90" fill="#004A99"></path>
            <path d="M25.2162162,85 C17.0810811,88.6 8.94594595,90.3052632 1,89.9263158 C10.4594595,101.294737 22.5675676,111.905263 36,121 C31.0810811,109.821053 27.4864865,97.5052632 25.2162162,85" fill="#0B3087"></path>
            <path d="M60,154 C50.5769231,145.701754 42.8846154,134.315789 37.1153846,121 C29.4230769,122.157895 21.9230769,122.736842 15,123.122807 C23.8461538,135.666667 36.5384615,145.894737 52.1153846,151.491228 C54.6153846,152.649123 57.3076923,153.421053 60,154" fill="#005EA8"></path>
            <path d="M85,145.013699 C93.5333333,147.506849 102.066667,149.232877 110.6,150 C112.733333,149.041096 114.866667,147.890411 117,146.739726 C111.569697,143.863014 106.139394,140.219178 100.90303,136 C95.8606061,139.260274 90.430303,142.328767 85,145.013699" fill="#004A99"></path>
            <path d="M129,112 C137.653846,109.758242 145.538462,106.395604 152.461538,101.538462 C153.038462,99.6703297 153.423077,97.989011 154,96.1208791 C150.538462,95.9340659 147.076923,95.5604396 143.615385,95 C139.192308,100.791209 134.384615,106.582418 129,112" fill="#DD3519"></path>
            <path d="M157.867925,73 C154.125786,79.6315789 149.503145,86.4473684 144,92.8947368 C147.962264,93.4473684 151.924528,93.8157895 155.886792,94 C157.647799,87 158.308176,79.8157895 157.867925,73" fill="#F39400"></path>
            <path d="M102,135.276596 C107.2,139.489362 112.592593,143.12766 117.985185,146 C133.585185,137.191489 146.103704,123.021277 152.651852,105.021277 C153.22963,103.680851 153.614815,102.340426 154,101 C147.066667,105.978723 139.17037,109.617021 130.503704,111.723404 C122.222222,120.531915 112.592593,128.574468 102,135.276596" fill="#9C1D3F"></path>
            <path d="M94,30.6829268 C99.2307692,32.2439024 104.835165,33.4146341 111,34 C107.637363,24.8292683 105.582418,14.8780488 105.208791,5.12195122 C101.659341,3.75609756 98.2967033,2.7804878 94.7472527,2 C94.9340659,11.3658537 94.5604396,20.9268293 94,30.6829268" fill="#F9B200"></path>
            <path d="M94.2,29 C95,19.5430464 95.2,10.4569536 94.8,1.92715232 C92.8,1.55629139 90.8,1.18543046 89,1 C89,8.60264901 86.8,16.7615894 83,25.1059603 C86.6,26.7748344 90.2,28.0728477 94.2,29" fill="#F49E00"></path>
            <path d="M23.0621832,57.8540925 C31.4221953,62.8505338 40.5253196,66.6939502 50,69 C41.4542099,50.5516014 35.5093124,31.7188612 33.4657539,15 C31.2364173,16.7295374 28.8213027,18.4590747 26.7777442,20.3807829 C23.9910735,31.3345196 22.6906272,44.4021352 23.0621832,57.8540925" fill="#E64415"></path>
            <path d="M68,50.8957655 C56.6011561,38.4039088 47.7572254,23.990228 42.4508671,9 C39.5028902,10.5374593 36.7514451,12.267101 34,13.9967427 C36.1618497,30.7166124 42.4508671,49.742671 51.4913295,68 C57.3872832,62.8110749 63.0867052,57.0456026 68,50.8957655" fill="#EB690B"></path>
            <path d="M82,25.9090909 C71.8564593,21.3471074 62.2870813,14.5041322 52.3349282,5 C48.6985646,6.33057851 45.2535885,7.85123967 42,9.56198347 C47.1674641,24.3884298 55.7799043,38.6446281 66.8803828,51 C73.0047847,43.0165289 78.1722488,34.4628099 82,25.9090909" fill="#F39400"></path>
            <path d="M110,34 C113.450777,42.952381 118.435233,51.3333333 124.953368,58 C132.430052,54 139.906736,48.8571429 147,42.7619048 C145.466321,39.9047619 143.740933,37.047619 141.823834,34.3809524 C129.746114,34.952381 119.393782,34.952381 110,34" fill="#EE7F00"></path>
            <path d="M139.533835,68 C143.857143,62.4148148 147.804511,56.2518519 151,49.5111111 C150.06015,47.0074074 148.932331,44.5037037 147.616541,42 C140.661654,48.162963 133.330827,53.1703704 126,57.4074074 C129.947368,61.6444444 134.458647,65.3037037 139.533835,68" fill="#F39400"></path>
            <path d="M156,75 C155.426966,66.744 153.707865,58.68 150.651685,51 C147.404494,57.72 143.393258,63.864 139,69.432 C143.966292,72.312 149.696629,74.232 156,75" fill="#E95D0F"></path>
            <path d="M87.6074074,69 C90.1111111,55.6086957 92.037037,42.026087 93,29.0173913 C89.3407407,27.8695652 85.6814815,26.7217391 82.2148148,25 C78.5555556,33.6086957 73.3555556,42.2173913 67,50.2521739 C73.162963,57.3304348 80.0962963,63.4521739 87.6074074,69" fill="#EE7F00"></path>
            <path d="M77.9655172,111 C74.8390805,120.965517 71.5172414,130.149425 68,138.551724 C73.862069,141.091954 79.9195402,143.241379 85.9770115,145 C91.6436782,142.264368 96.9195402,139.137931 102,135.816092 C93.7931034,128.977011 85.5862069,120.574713 77.9655172,111" fill="#00378B"></path>
            <path d="M77,111 C63.2688679,116.207143 49.3443396,119.485714 36,121.414286 C45.6698113,127.971429 56.1132075,133.564286 66.9433962,138 C70.6179245,130.092857 74.0990566,120.835714 77,111" fill="#9C0A7D"></path>
            <path d="M77,110.256472 C95.1498559,114.869326 113.492795,115.253731 129.518732,111.217483 C134.925072,105.643618 139.752161,99.6853484 144,93.7270787 C135.504323,92.381663 127.201729,90.075236 119.285303,87 C106.541787,96.9945169 92.0605187,104.682607 77,110.256472" fill="#CD071E"></path>
            <path d="M27,20 C18.7647059,27.0205128 11.9019608,35.7487179 7,45.9948718 C11.9019608,50.1692308 17.1960784,53.9641026 22.8823529,57 C22.6862745,43.9076923 24.0588235,31.0051282 27,20" fill="#EB690B"></path>
            <path d="M142,32.6229695 C133.126904,20.4688629 120.395939,10.708747 104.57868,5.18415313 C104.385787,5.18415313 104.192893,5 104,5 C104.57868,14.2076565 106.507614,23.415313 109.979695,32.2546632 C119.431472,33.1754289 129.847716,33.1754289 142,32.6229695" fill="#FCC400"></path>
            <path d="M88,0.604120859 C76.0810811,-0.897164012 64.1621622,0.41646025 53,4.35733303 C62.8378378,13.7403635 72.1081081,20.4961454 82.3243243,25 C85.9189189,16.5552726 88,8.29820582 88,0.604120859" fill="#FCC400"></path>
            <path d="M211.171227,63.5498891 C205.434192,63.5498891 199.88839,65.6718404 196.254935,67.9866962 L196.254935,35.3858093 C189.752961,35.3858093 183.059752,38.4722838 180,40.9800443 L180,90.9423503 C180,111.390244 192.812713,122 208.685179,122 C224.748879,122 237.752826,108.882483 237.752826,91.135255 C237.944061,76.6674058 227.999866,63.5498891 211.171227,63.5498891 Z M218.629374,107.725055 C205.434192,111.197339 196.254935,104.059867 196.254935,91.135255 L196.254935,79.7538803 C199.123452,78.0177384 201.99197,76.8603104 206.581599,76.8603104 C222.26283,77.0532151 225.322582,93.8359202 218.629374,107.725055 Z M260.700969,94.2217295 C260.700969,89.3991131 260.700969,84.383592 261.848376,81.2971175 C265.290598,81.6829268 270.45393,82.0687361 273.704917,81.1042129 C281.736767,78.5964523 281.545532,69.7228381 281.545532,64.3215078 C276.955904,63.9356984 272.748744,64.3215078 267.776647,64.9002217 C254.198995,67.0221729 244.446035,77.4390244 244.446035,95.3791574 L244.446035,121.614191 L260.509735,121.614191 L260.509735,94.2217295 L260.700969,94.2217295 Z M303.728737,62.1995565 C303.728737,57.7627494 303.919972,54.8691796 305.258613,52.1685144 C309.083304,52.7472284 316.350216,53.518847 320.74861,52.3614191 C328.589225,50.0465632 329.162929,40.594235 328.971694,35.1929047 C324.5733,34.8070953 319.027499,35 313.481698,35.7716186 C298.565405,37.8935698 287.473802,48.8891353 287.473802,66.6363636 L287.473802,121.807095 L303.537502,121.807095 L303.537502,79.9467849 L314.629105,79.9467849 C322.278486,79.9467849 323.234658,74.7383592 323.234658,66.8292683 L303.728737,66.8292683 L303.728737,62.1995565 Z" fill="#000000"></path>
        </g>
    </g>
</svg>