<?xml version="1.0" encoding="UTF-8"?>
<svg width="600px" height="250px" viewBox="0 0 600 250" version="1.1" xmlns="http://www.w3.org/2000/svg" xmlns:xlink="http://www.w3.org/1999/xlink">
    <!-- Generator: Sketch 50.1 (55044) - http://www.bohemiancoding.com/sketch -->
    <title>BRML</title>
    <desc>Created with Sketch.</desc>
    <defs></defs>
    <g id="BRML" stroke="none" stroke-width="1" fill="none" fill-rule="evenodd">
        <g id="Grid-Logo" opacity="0.400000006" transform="translate(1.000000, 0.000000)"></g>
        <g id="BRML3" transform="translate(56.000000, 102.000000)" fill="#30569C" fill-rule="nonzero">
            <path d="M488.991101,29.0251146 C488.951057,29.1776638 488.884316,29.3302129 488.879867,29.482762 C488.817576,31.4005226 488.141271,33.1134314 487.042277,34.6737911 C485.818699,36.4172097 484.176881,37.7204152 482.34374,38.8013348 C480.119055,40.1132573 477.716394,41.0154764 475.233645,41.7259195 C472.768693,42.4363626 470.259248,42.9245199 467.718657,43.2644865 C466.21032,43.4693382 464.688635,43.5957361 463.171399,43.7352095 C459.429478,44.0751762 455.678658,44.0054394 451.927838,43.9662125 C450.192583,43.9487783 448.461778,43.8877587 446.726523,43.7962292 C444.848888,43.6959826 442.971253,43.5390749 441.098068,43.3952429 C438.913427,43.2252596 436.742133,42.9375955 434.579739,42.5801947 C432.550826,42.2445866 430.53971,41.8000148 428.559739,41.2551965 C428.065859,41.1200816 427.56753,40.9849666 427.038054,40.8411346 C427.082548,40.6798684 427.109244,40.557829 427.153738,40.4357897 C428.492999,36.6830811 429.83226,32.9303724 431.17597,29.1776638 C431.331698,28.7418091 431.336147,28.7505262 431.821129,28.868207 C434.103656,29.434818 436.372836,30.0493731 438.673161,30.5418889 C440.51965,30.9385166 442.397284,31.2174636 444.274919,31.483335 C445.814402,31.7012623 447.362783,31.8538114 448.911164,31.9758507 C450.330514,32.0891729 451.749863,32.1501926 453.173662,32.1807024 C455.202575,32.2242879 457.235938,32.2460806 459.264851,32.2286464 C460.68865,32.2199293 462.108,32.1589097 463.531798,32.0760973 C464.58185,32.0150776 465.631902,31.9322653 466.650808,31.6533183 C466.935567,31.5748644 467.220327,31.4746179 467.469492,31.3264273 C467.651916,31.2218222 467.820992,31.0474803 467.918878,30.8644213 C468.132448,30.4765107 467.994518,30.0624487 467.589625,29.8663142 C467.313764,29.7355578 467.006757,29.6309526 466.7042,29.6004428 C465.453927,29.4653279 464.199204,29.3476471 462.944481,29.2474005 C461.720904,29.1515125 460.492878,29.0904928 459.264851,29.012039 C458.201451,28.9466608 457.133602,28.8812826 456.070203,28.8071873 C455.09579,28.7374506 454.121378,28.6589967 453.146966,28.5761843 C452.12806,28.4890134 451.109154,28.3974839 450.094697,28.2928788 C448.755436,28.1490468 447.411726,28.0226489 446.081364,27.8265143 C444.399501,27.5780772 442.717639,27.2991302 441.049125,26.9722392 C438.601971,26.4927991 436.208209,25.8346585 433.939029,24.7973244 C432.479636,24.1304668 431.122577,23.3023429 429.97464,22.1821964 C428.404011,20.6523466 427.49634,18.7956057 427.184884,16.6642764 C427.073649,15.9058893 427.024706,15.1344265 427.002459,14.3673223 C426.957966,12.5367327 427.518587,10.880485 428.568638,9.37678641 C429.538601,7.99076858 430.793324,6.89241483 432.203775,5.9553273 C434.21934,4.61725349 436.426228,3.66273177 438.722104,2.89998611 C441.378378,2.01520115 444.105843,1.40500462 446.873352,0.964791406 C448.893367,0.646617502 450.92228,0.424331623 452.960092,0.258706851 C456.452849,-0.02459868 459.950054,-0.0333157733 463.44726,0.0364209729 C465.049034,0.0669307993 466.646358,0.123591906 468.248132,0.206404292 C469.756469,0.284858131 471.264806,0.393821797 472.768693,0.524578196 C474.303726,0.655334595 475.83876,0.794808088 477.364894,0.990942686 C480.670777,1.41808026 483.954413,1.96725713 487.113467,3.06996943 C487.198005,3.10047926 487.282543,3.13098908 487.367081,3.15714036 C487.527258,3.20944292 487.571752,3.31404804 487.527258,3.46223863 C487.482764,3.61478776 487.429372,3.76733689 487.380429,3.91988603 C486.174649,7.62465067 484.973319,11.3294153 483.767539,15.0341799 C483.727495,15.1562193 483.678552,15.2782586 483.616261,15.4482419 C483.40714,15.3872222 483.211368,15.3392782 483.024494,15.2739 C481.093467,14.6114009 479.135744,14.0404313 477.133527,13.6176523 C475.166904,13.1992318 473.186934,12.8374724 471.184717,12.6021109 C469.685279,12.4234105 468.185841,12.2403516 466.681953,12.1139537 C465.382737,12.00499 464.079071,11.9352533 462.775405,11.909102 C460.359397,11.861158 457.943388,11.8262896 455.527379,11.8567995 C453.796574,11.8785922 452.065768,12.0006315 450.334963,12.0965195 C449.952317,12.1183122 449.57412,12.2054832 449.195924,12.2882956 C449.026848,12.3231639 448.853322,12.3929007 448.702044,12.4844302 C448.266005,12.7415844 448.243758,13.2341002 448.702044,13.4520275 C449.133633,13.6568792 449.618614,13.8094283 450.090247,13.870448 C451.496249,14.053507 452.911149,14.2016975 454.326049,14.3237368 C455.816588,14.4544932 457.311577,14.5460227 458.802117,14.6462693 C459.865516,14.7203646 460.933365,14.7726671 461.996765,14.8554795 C463.220342,14.947009 464.448369,15.0559727 465.671946,15.1692949 C466.615213,15.2564658 467.558479,15.3436368 468.501746,15.4526004 C469.765368,15.5964325 471.033438,15.7315474 472.292611,15.9146064 C474.241435,16.1979119 476.176912,16.5378785 478.085692,17.0260358 C479.954428,17.5054759 481.77867,18.0982382 483.47833,19.0178916 C484.817591,19.7414103 486.005573,20.6436295 486.935492,21.8422298 C487.985543,23.1933793 488.555063,24.7319462 488.79088,26.4012696 C488.848721,26.8153315 488.848721,27.2381105 488.888766,27.656531 C488.906563,27.8526656 488.964405,28.0488002 489,28.2449348 C488.991101,28.5020891 488.991101,28.7636019 488.991101,29.0251146 Z" id="Shape"></path>
            <path d="M57.4018226,18.3842034 C57.584819,18.4413048 57.7024596,18.4852289 57.8201002,18.5115834 C59.7764194,18.8717614 61.3362462,19.9171562 62.6520779,21.3666532 C63.9417671,22.7897956 64.7303947,24.4676982 64.9395335,26.3871836 C65.0266746,27.2129576 65.0092464,28.0563013 64.9526046,28.8864677 C64.8654635,30.1426984 64.6388964,31.3813594 64.2424041,32.5804888 C63.2707801,35.5321917 61.4364586,37.8030702 58.8570801,39.4809728 C56.8702615,40.7723428 54.6830182,41.5805472 52.3912055,42.1164218 C50.8793063,42.4722074 49.3499788,42.7313599 47.794509,42.827993 C46.5658186,42.9026641 45.3327711,42.9905124 44.0997236,42.9905124 C29.6647894,43.0036896 15.2254982,42.9992972 0.790564024,42.9992972 C0.67292345,42.9992972 0.559639934,42.9992972 0.441999359,42.9992972 C0.0324358785,42.9905124 0.010650587,42.9729427 0.00193647036,42.5380936 C-0.00242058795,42.4370681 0.00193647036,42.3316501 0.00193647036,42.2306246 C0.00193647036,28.4076945 0.00193647036,14.5891568 0.00193647036,0.766226654 C0.00193647036,-0.121041183 -0.0111347046,0.00633885268 0.751350499,0.00633885268 C15.0991435,0.00633885268 29.4512936,0.00633885268 43.7990866,0.00633885268 C46.522248,0.00633885268 49.2192671,0.252314095 51.8552874,0.968277745 C53.9074618,1.52611445 55.8376387,2.34310365 57.5238202,3.66961299 C59.5106388,5.22452791 60.7828998,7.23186158 61.1837492,9.7487154 C61.5105286,11.786796 61.3667457,13.77656 60.347194,15.6301591 C59.8374182,16.5525663 59.1838594,17.343201 58.2775913,17.8966453 C58.0815237,18.0152405 57.8636708,18.1030888 57.654532,18.2085068 C57.5935332,18.2480385 57.5281773,18.2963551 57.4018226,18.3842034 Z M30.6712699,26.5892346 C30.6712699,26.5848422 30.6712699,26.5848422 30.6712699,26.5804498 C27.4034762,26.5804498 24.1400395,26.5804498 20.8722458,26.5804498 C20.2056158,26.5804498 20.2056158,26.5804498 20.2056158,27.270059 C20.2056158,28.148542 20.2056158,29.027025 20.2056158,29.905508 C20.2056158,30.6302565 20.2056158,30.6302565 20.9245305,30.6346489 C24.4493906,30.6346489 27.9786079,30.6434337 31.503468,30.6346489 C34.6231218,30.6258641 37.7427755,30.6082944 40.8624293,30.5819399 C41.6336286,30.5775475 42.3961138,30.4721295 43.1280996,30.2085846 C44.0648671,29.8703687 44.4352171,29.1280505 44.2391495,28.0211619 C44.1694365,27.6390218 43.9472265,27.34473 43.6030189,27.1778183 C43.3198102,27.037261 43.0191731,26.8879189 42.709822,26.8483871 C41.8776239,26.7341843 41.0410687,26.6111967 40.2045135,26.6068043 C37.028218,26.571665 33.8475654,26.5892346 30.6712699,26.5892346 Z M20.2666147,12.3314554 C20.2404723,12.5378989 20.2099729,12.6960259 20.2099729,12.8497604 C20.2012588,13.2890019 20.2056158,13.7282434 20.2056158,14.1674849 C20.2056158,14.9054107 20.2056158,14.9098031 20.9550299,14.9098031 C26.645348,14.9098031 32.3356662,14.9098031 38.0259843,14.9098031 C38.1436249,14.9098031 38.2569084,14.9141955 38.374549,14.9054107 C38.823326,14.8702713 39.272103,14.8570941 39.6947376,14.6682202 C40.3003687,14.3958905 40.5705064,13.7941296 40.3570105,13.183584 C40.1957993,12.7311652 39.8210923,12.5335065 39.3984577,12.4456582 C39.045536,12.3709872 38.6795431,12.3358479 38.3179072,12.3358479 C32.4663779,12.3314554 26.6192057,12.3314554 20.7676764,12.3314554 C20.6108223,12.3314554 20.4539682,12.3314554 20.2666147,12.3314554 Z" id="Shape"></path>
            <path d="M215.994515,42.9685984 C209.171288,42.9685984 202.435819,42.9685984 195.652084,42.9685984 C195.63892,42.7621875 195.61698,42.5821269 195.61698,42.3976746 C195.61698,38.4012085 195.61698,34.4047424 195.61698,30.4082763 C195.61698,28.7086803 195.61698,27.0134759 195.61698,25.3138799 C195.61698,25.1469945 195.603816,24.9801091 195.59504,24.7166059 C195.366868,24.8527492 195.217679,24.9274085 195.081653,25.0240263 C191.812647,27.263804 188.543641,29.5079735 185.274635,31.7477512 C183.102611,33.2365446 180.934975,34.725338 178.762951,36.2141315 C178.131089,36.6489118 177.306159,36.6445201 176.687461,36.2141315 C171.421948,32.538261 166.156435,28.8667822 160.890922,25.1953034 C160.750509,25.0986856 160.601319,25.0064594 160.417026,24.8922747 C160.373147,25.0240263 160.32488,25.1118607 160.316104,25.1996952 C160.30294,25.3577971 160.307328,25.5202908 160.307328,25.6827845 C160.307328,31.2295281 160.307328,36.7762718 160.307328,42.3274071 C160.307328,42.5294263 160.285388,42.7270537 160.276613,42.9158977 C159.903639,43.0125156 140.535327,43.0300825 140.078983,42.9466398 C140.070207,42.9334646 140.061431,42.9246812 140.052655,42.911506 C140.043879,42.8983308 140.030715,42.8895474 140.030715,42.8763722 C140.017552,42.8061047 140,42.7314454 140,42.6611779 C140,28.5505783 140,14.4399787 140,0.329379076 C140,0.272286703 140.008776,0.21519433 140.02194,0.158101956 C140.026328,0.13175163 140.048267,0.105401304 140.078983,0.0483089311 C140.171129,0.0395254891 140.280827,0.013175163 140.390526,0.013175163 C144.120264,0.013175163 147.850002,0.013175163 151.57974,0.00878344202 C151.812301,0.00878344202 152.000982,0.0790509782 152.189662,0.206410888 C160.566216,5.80585518 168.942769,11.4052995 177.323711,17.000352 C177.350038,17.0179189 177.376366,17.0310941 177.393918,17.048661 C177.687909,17.3385146 177.951184,17.268247 178.275891,17.048661 C184.427765,12.9907108 190.588415,8.94154398 196.744677,4.89237721 C199.100995,3.34209969 201.461699,1.79182217 203.818016,0.237152935 C204.046189,0.0878344202 204.265585,0 204.546412,0 C208.201556,0.00878344202 211.8567,0.00439172101 215.516231,0.00439172101 C215.647869,0.00439172101 215.775119,0.017566884 215.928696,0.0219586051 C215.955024,0.13175163 215.985739,0.228369493 215.994515,0.324987355 C216.003291,0.439172101 215.998903,0.557748568 215.998903,0.676325036 C215.998903,14.5541634 215.998903,28.4276101 215.998903,42.3054485 C215.994515,42.5118594 215.994515,42.7138786 215.994515,42.9685984 Z" id="Shape"></path>
            <path d="M120.174535,27.7177204 C120.488393,28.1305142 120.871998,28.4598709 121.216371,28.8287505 C121.556385,29.1888472 121.909476,29.5401611 122.253849,29.8958664 C122.611299,30.2603545 122.968749,30.6248426 123.326199,30.9893308 C123.670572,31.345036 124.014945,31.7007413 124.363677,32.0564466 C124.721127,32.4209348 125.074218,32.7898143 125.431668,33.1543025 C125.776041,33.5100077 126.124773,33.865713 126.469146,34.2214183 C126.826596,34.5859065 127.184046,34.9503946 127.541496,35.3148827 C127.898946,35.6793709 128.256397,36.043859 128.609488,36.4127386 C128.95386,36.7684439 129.302592,37.1241491 129.646965,37.4798544 C130.004415,37.8443426 130.357506,38.2132221 130.714957,38.5777103 C131.059329,38.9334155 131.408061,39.2891208 131.752434,39.6404347 C132.109884,40.0049228 132.467334,40.369411 132.824785,40.7338991 C133.169157,41.0896044 133.51353,41.4453097 133.862262,41.801015 C134.215353,42.1655031 134.568444,42.5299912 135,42.973525 C134.74281,42.9823078 134.577163,42.9910907 134.415874,42.9910907 C127.323539,42.9910907 120.235563,42.9910907 113.143227,42.9910907 C111.412645,42.9910907 109.686422,42.9823078 107.95584,42.9998735 C107.628904,43.004265 107.428383,42.8944794 107.223503,42.6397768 C103.971578,38.5294046 100.706575,34.4322066 97.4633687,30.317443 C97.1625874,29.9353892 96.8530878,29.7860808 96.3692223,29.7948636 C94.5078657,29.8212122 92.6508683,29.8080379 90.7895117,29.8080379 C90.6151457,29.8080379 90.4451389,29.8080379 90.2184632,29.8080379 C90.2010266,30.0407833 90.1748717,30.2383974 90.1748717,30.4360114 C90.1705125,34.4190324 90.1748717,38.3976619 90.1748717,42.3806829 C90.1748717,42.5563398 90.1748717,42.7276053 90.1748717,42.9515679 C89.9917874,42.9691336 89.8392172,42.9910907 89.686647,42.9910907 C88.7712257,42.9954821 87.8558045,42.9910907 86.9403832,42.9910907 C81.5045245,42.9910907 76.0730249,42.9910907 70.6371662,42.9910907 C70.4497228,42.9910907 70.2666386,42.9910907 70.0966318,42.9910907 C69.9745756,42.600254 69.9658573,0.482112954 70.0835543,0.00783923502 C70.2666386,0.00783923502 70.4628003,0.00783923502 70.6633211,0.00783923502 C78.1915713,0.00783923502 85.7154623,0.00783923502 93.2437125,0.00783923502 C100.379639,0.00783923502 107.511207,-0.0185093049 114.647134,0.0254049283 C117.807517,0.0473620449 120.885076,0.618247077 123.78391,1.95763119 C126.116055,3.0335299 128.095108,4.54857095 129.507472,6.74428261 C130.54495,8.35593497 131.142153,10.13007 131.342674,12.0359477 C131.582427,14.3194878 131.434216,16.5635052 130.693161,18.750434 C129.629529,21.8815188 127.606883,24.2089732 124.777796,25.8513655 C123.487488,26.6022989 122.105638,27.1336611 120.671478,27.5201063 C120.55814,27.5508463 120.449161,27.5815863 120.335823,27.6167177 C120.30095,27.6255005 120.266077,27.6562405 120.174535,27.7177204 Z M90.2315406,13.0547579 C90.2053857,13.1689349 90.1792308,13.2260234 90.1792308,13.2831119 C90.1748717,14.3370535 90.1748717,15.3909951 90.1705125,16.4449367 C90.1705125,16.6601165 90.2533364,16.7742935 90.475653,16.7742935 C90.5628359,16.7742935 90.6500189,16.7786849 90.7372019,16.7786849 C97.0405312,16.7786849 103.34822,16.7786849 109.651549,16.7742935 C109.908739,16.7742935 110.174647,16.7435535 110.427478,16.686465 C111.246998,16.4976338 111.774455,15.8169632 111.839842,14.8991557 C111.887792,14.2097023 111.4388,13.5158574 110.702104,13.2479805 C110.340295,13.1162378 109.939253,13.0415837 109.555648,13.0415837 C103.278473,13.0284094 97.005658,13.0328008 90.7284836,13.0328008 C90.5715542,13.0328008 90.4146249,13.0459751 90.2315406,13.0547579 Z" id="Shape"></path>
            <path d="M303,42.9912584 C302.740177,42.9912584 302.592347,42.9912584 302.444516,42.9912584 C294.188418,42.9912584 285.932319,42.9868876 277.67174,43 C277.250648,43 277.031142,42.8601342 276.838515,42.5104696 C275.875378,40.7665176 274.876403,39.0444196 273.917746,37.2960968 C273.729598,36.950803 273.510093,36.8415328 273.111399,36.8415328 C265.271913,36.8546453 257.432427,36.8546453 249.59294,36.8415328 C249.153929,36.8415328 248.934424,36.9857695 248.732837,37.3529173 C247.77418,39.0968693 246.775205,40.8233381 245.807589,42.5629193 C245.63736,42.8688758 245.453692,42.9956292 245.081876,42.9956292 C236.884013,42.9868876 228.686151,42.9868876 220.488288,42.9868876 C220.353897,42.9868876 220.223985,42.9868876 220,42.9868876 C220.107513,42.8076845 220.170229,42.6896727 220.250864,42.5804025 C222.737101,39.0881277 225.227817,35.5958528 227.714054,32.103578 C233.922927,23.3838178 240.13628,14.6640577 246.345153,5.94429762 C247.657707,4.10418784 248.974741,2.26407806 250.273856,0.415226672 C250.479922,0.118011791 250.708387,0 251.080203,0 C258.010309,0.00874161415 264.935935,0.00874161415 271.866041,0 C272.260255,0 272.48424,0.135495019 272.703746,0.441451515 C277.492552,7.18123602 282.290317,13.9122789 287.088083,20.6476926 C292.266623,27.9207156 297.449644,35.1893678 302.628184,42.4623907 C302.735697,42.6066274 302.834251,42.750864 303,42.9912584 Z M261.325291,15.54259 C260.926598,16.0190079 256.061636,24.6382395 255.994441,24.9747916 C256.334899,25.0709494 266.275367,25.079691 266.69198,24.987904 C266.638223,24.6382395 261.65231,15.8441756 261.325291,15.54259 Z" id="Shape"></path>
            <path d="M325.472148,29.1555009 C325.644741,29.1862428 325.773079,29.2169848 325.901417,29.2257683 C326.060733,29.2345517 326.224475,29.23016 326.388217,29.23016 C338.350218,29.23016 350.312219,29.23016 362.27422,29.23016 C363.10178,29.23016 362.995569,29.2125931 362.995569,29.9372257 C362.999994,34.0961775 362.995569,38.2507377 362.995569,42.4096895 C362.995569,42.5809663 362.995569,42.7522431 362.995569,42.905953 C362.610554,43.0113542 305.58416,43.0333127 305.084084,42.9454785 C305.075233,42.936695 305.061956,42.9235199 305.053105,42.9147365 C305.044255,42.9015613 305.030978,42.8927779 305.030978,42.8796028 C305.017702,42.7346763 305,42.5897497 305,42.4448232 C305,28.3649926 305.004425,14.2807702 305.008851,0.200939601 C305.008851,0.161414187 305.035404,0.121888774 305.04868,0.0823633601 C305.371738,-0.00547089221 324.826032,-0.0362128805 325.414617,0.0560130844 C325.432319,0.139455624 325.463297,0.236073301 325.467723,0.332690979 C325.476574,0.477617495 325.472148,0.626935724 325.472148,0.77186224 C325.472148,10.0076339 325.472148,19.2434055 325.472148,28.4791771 C325.472148,28.694371 325.472148,28.909565 325.472148,29.1555009 Z" id="Shape"></path>
            <path d="M386.498558,29.1569953 C386.67141,29.1877389 386.799942,29.2184825 386.928473,29.2272663 C387.092462,29.2360502 387.252018,29.2316583 387.416006,29.2316583 C399.369436,29.2316583 411.318433,29.2316583 423.271862,29.2316583 C423.489036,29.2316583 423.706209,29.2316583 423.905655,29.2316583 C424.02089,29.6269327 424.029754,42.508486 423.93668,42.9213282 C423.613135,43.0091669 366.593904,43.0311266 366.088642,42.9476798 C366.075346,42.934504 366.06205,42.9257201 366.053185,42.9169362 C366.044321,42.9081524 366.035457,42.8949765 366.031025,42.8818007 C366.022161,42.8378813 366.004432,42.7983539 366.004432,42.7544345 C366.004432,28.6299628 366,14.5010991 366,0.37662741 C366,0.301964468 366.008864,0.231693465 366.017728,0.157030523 C366.022161,0.130678897 366.044321,0.104327271 366.057618,0.0823675819 C366.372298,-0.00547117264 385.851468,-0.0362147367 386.449804,0.0560159555 C386.467533,0.139462772 386.498558,0.236085402 386.50299,0.332708032 C386.511854,0.477641977 386.507422,0.62696786 386.507422,0.771901805 C386.507422,10.0081468 386.507422,19.2443919 386.507422,28.4850289 C386.498558,28.6914499 386.498558,28.9110468 386.498558,29.1569953 Z" id="Shape"></path>
        </g>
    </g>
</svg>