<?xml version="1.0" encoding="UTF-8"?>
<svg width="600px" height="250px" viewBox="0 0 600 250" version="1.1" xmlns="http://www.w3.org/2000/svg" xmlns:xlink="http://www.w3.org/1999/xlink">
    <!-- Generator: Sketch 50.1 (55044) - http://www.bohemiancoding.com/sketch -->
    <title>BTOW</title>
    <desc>Created with Sketch.</desc>
    <defs>
        <polygon id="path-1" points="0.000842307692 0.772676923 218.227885 0.772676923 218.227885 219 0.000842307692 219"></polygon>
    </defs>
    <g id="BTOW" stroke="none" stroke-width="1" fill="none" fill-rule="evenodd">
        <g id="Grid-Logo" opacity="0.400000006"></g>
        <g transform="translate(190.000000, 16.000000)">
            <g id="Group-3">
                <mask id="mask-2" fill="white">
                    <use xlink:href="#path-1"></use>
                </mask>
                <g id="Clip-2"></g>
                <path d="M218.228727,109.885215 C218.228727,170.146715 169.377688,219.000562 109.113381,219.000562 C48.8518808,219.000562 0.000842307692,170.146715 0.000842307692,109.885215 C0.000842307692,49.6237154 48.8518808,0.772676923 109.113381,0.772676923 C169.377688,0.772676923 218.228727,49.6237154 218.228727,109.885215" id="Fill-1" fill="#60BDAE" mask="url(#mask-2)"></path>
            </g>
            <path d="M155.693645,80.8693178 C153.843483,87.1478507 152.161,92.7957148 150.521148,98.4576564 C147.99174,107.1744 145.513489,115.902405 142.972713,124.619149 C142.014948,127.916082 139.189969,126.761733 136.976026,126.908138 C134.997972,127.034835 133.261491,126.992603 132.60214,124.351677 C129.794213,113.151676 126.78166,102.002353 123.851525,90.8333214 C121.322117,81.1902832 118.866602,71.5275366 116.226355,61.9126533 C115.621002,59.708128 116.197934,59.2069716 118.343668,59.1112451 C126.065468,58.7790178 126.150729,58.6973687 128.071942,66.4793709 C131.112915,78.777412 134.025998,91.1064235 136.95329,103.432619 C137.143706,104.226586 137.160758,105.113464 138.141259,105.175405 C139.064919,105.23453 138.993869,104.266003 139.167233,103.688829 C141.062867,97.3511705 142.961344,91.0163279 144.777403,84.656146 C146.965767,77.0064716 149.145605,69.3567972 151.171973,61.6648905 C151.74038,59.5054131 153.093187,58.9423159 154.923455,59.1900787 C157.012348,59.4744427 159.752066,57.8668004 160.763829,61.4959614 C164.685833,75.5311571 168.784042,89.5184896 172.805517,103.52553 C173.018669,104.254741 172.814043,105.386566 173.805912,105.437245 C175.144508,105.504817 174.789255,104.181539 174.979671,103.404465 C178.390108,89.5776148 181.811914,75.756396 185.128565,61.9070223 C185.617394,59.8686107 186.649052,59.2013406 188.664052,59.1168761 C197.127622,58.7733868 196.897417,58.6663984 194.714737,66.6201452 C190.687578,81.322611 186.944623,96.0982794 183.090828,110.845793 C181.925595,115.29426 180.783099,119.745543 179.640602,124.196826 C179.168825,126.038153 178.216744,127.282598 176.071011,126.916585 C173.643916,126.499893 170.378422,128.358113 169.230241,124.413618 C167.317554,117.850721 165.336658,111.307533 163.421129,104.744636 C161.318026,97.5341771 159.274605,90.309641 157.160134,83.1019979 C156.98677,82.5163769 156.466678,82.0292979 155.693645,80.8693178" id="Fill-4" fill="#353433"></path>
            <path d="M22.0768246,92.8848258 C22.073987,82.9798749 22.2045187,73.074924 22.0030459,63.1756057 C21.9321047,59.8382821 23.0927015,58.9567781 26.2907274,59.0412673 C33.8842654,59.2412251 41.5090175,58.7342899 49.074179,59.213062 C58.2567982,59.7988538 66.0716725,63.0009946 68.5829883,73.9986726 C70.0926154,80.6226261 67.8139865,85.9792416 62.8452701,90.2205996 C61.1001184,91.7104259 60.6347447,92.3243807 62.7487902,93.7747787 C70.3423282,99.0018441 71.1453817,106.605872 68.9064798,114.485899 C66.8832389,121.616787 61.2845654,125.365292 53.9152013,126.322836 C44.0912744,127.604256 34.2162699,126.624181 24.3696418,126.883281 C21.946293,126.94524 22.0853376,125.201946 22.0824999,123.607916 C22.073987,113.365009 22.0768246,103.124917 22.0768246,92.8848258" id="Fill-6" fill="#353433"></path>
            <path d="M95.3285004,125.960266 C90.2216949,125.960266 85.1148894,125.901147 80.0080839,125.982787 C77.2046199,126.0222 76.0348892,124.825751 76.0015477,121.945829 C75.9654277,118.685858 76.5516823,115.983291 78.7994547,113.322953 C86.3735308,104.362256 93.6697611,95.1622691 100.996554,85.9904342 C104.414058,81.7113707 107.467583,77.2549512 105.033654,71.2670774 C103.16653,66.68116 99.8740574,64.6035621 94.8061503,64.9188615 C90.0577659,65.2144547 87.3987817,67.4074747 86.0206666,72.1566722 C85.1287817,75.2336567 82.1530533,76.4526268 78.1492956,75.2815147 C75.2430287,74.4313323 76.2682796,72.1820088 76.5655746,70.2676909 C78.1937509,59.7896156 90.8273987,54.4801986 99.5017441,56.3804406 C112.479921,59.2209506 116.403103,68.4913165 114.577656,80.2897081 C113.899713,84.6644875 110.754498,87.8456335 108.139969,91.1647229 C102.260753,98.6305627 96.2342777,105.972535 90.2855994,113.379256 C89.6048773,114.226623 88.4573742,115.076806 88.965832,116.276069 C89.488182,117.50067 90.8829679,117.193816 91.9554526,117.202261 C98.1708628,117.236044 104.389051,117.312053 110.604462,117.202261 C113.719113,117.145958 114.963862,118.381819 114.972197,121.582671 C114.980533,124.772263 113.794131,126.072873 110.648917,125.996863 C105.54489,125.872995 100.435306,125.963081 95.3285004,125.960266" id="Fill-8" fill="#FEFEFE"></path>
            <path d="M99.881001,156.806833 C99.0386575,156.661212 98.6061791,156.524328 98.1708741,156.521416 C96.7547195,156.518503 96.1356818,155.845734 96.2006949,154.369136 C96.2600547,153.017772 97.0430384,152.423638 98.1652208,152.508098 C100.403932,152.682843 103.544347,151.110135 104.629783,153.766264 C105.768925,156.556365 104.115332,159.474612 101.90206,161.475446 C97.5263966,165.430516 91.5140993,164.635424 88.0344858,159.812453 C84.5350857,154.972007 85.6798814,147.944332 90.4710633,144.842602 C94.3972884,142.300058 98.0295413,142.372868 101.418702,145.160056 C102.450431,146.007571 103.829839,147.053131 102.82355,148.587978 C101.763554,150.201459 100.338919,149.668486 99.0895373,148.529729 C96.782986,146.42696 94.4764348,146.90751 92.4525491,148.858833 C90.5558629,150.687834 89.5297868,152.89545 90.7622088,155.682638 C91.9635376,158.402841 93.7782507,159.847402 96.8197326,159.559072 C98.4337531,159.407626 99.1941236,158.52225 99.881001,156.806833" id="Fill-10" fill="#353433"></path>
            <path d="M126.992339,145.012154 C127.071794,146.304355 126.342512,146.943293 125.18758,147.032114 C123.065001,147.192565 122.690428,148.519148 122.721643,150.33568 C122.775559,153.647842 122.721643,156.960003 122.71313,160.2693 C122.710292,161.747739 122.551383,163.017019 120.573525,162.999827 C118.487836,162.979771 118.624045,161.524254 118.612694,160.148962 C118.589993,156.951408 118.536077,153.753854 118.618369,150.559165 C118.663772,148.610835 118.323251,147.186834 116.016224,147.029249 C114.747785,146.943293 113.913509,146.269973 114.007152,144.808725 C114.103633,143.241465 115.201812,143.026576 116.393635,143.015115 C119.219956,142.989328 122.046277,143.000789 124.872598,143.01798 C126.163739,143.026576 127.094495,143.473546 126.992339,145.012154" id="Fill-12" fill="#353433"></path>
            <path d="M149.036935,152.928188 C149.036935,150.420533 149.052651,147.912878 149.031697,145.405222 C149.018601,143.949349 149.401006,142.969214 150.956817,143.000739 C152.473341,143.032264 152.910749,143.966544 152.90813,145.433881 C152.897653,148.85289 152.989326,152.271899 152.905511,155.690908 C152.850507,157.828864 153.476499,158.920769 155.582345,158.671436 C156.975766,158.502348 158.012973,158.840524 157.999877,160.815123 C157.989401,162.786857 156.915524,162.993201 155.540438,162.990335 C147.580654,162.97314 149.207184,163.646624 149.023839,156.344332 C148.995028,155.206573 149.02122,154.065948 149.02122,152.928188 L149.036935,152.928188 Z" id="Fill-14" fill="#353433"></path>
            <path d="M108.007058,153.117353 C108.007058,150.489248 107.987452,147.861142 108.013593,145.233037 C108.026664,143.953339 108.516809,142.997144 110.258457,143.000006 C111.967428,143.005732 113,143.606933 113,145.212997 C112.993465,150.469208 112.986929,155.725419 112.986929,160.984492 C112.990197,162.461728 112.022978,162.951277 110.493726,162.997083 C108.872981,163.048614 108.039734,162.418785 108.033199,161.001669 C108.020129,158.373564 108.029932,155.745459 108.029932,153.117353 L108.007058,153.117353 Z" id="Fill-16" fill="#353433"></path>
            <path d="M82.9830233,152.988974 C82.9830233,155.612274 82.9728541,158.235573 82.986413,160.858873 C82.9965823,162.204964 82.4576136,162.997121 80.6576618,162.999991 C78.7763562,163.002861 77.9865468,162.33699 78.0034955,160.744068 C78.0441724,155.612274 78.0407827,150.477609 78.0001058,145.345815 C77.9899366,143.795944 78.7119511,143.029619 80.5966465,143.000918 C82.7016749,142.963606 83.0033617,144.068607 82.999972,145.46062 C82.9898028,147.969115 82.9965823,150.480479 82.9965823,152.988974 L82.9830233,152.988974 Z" id="Fill-18" fill="#353433"></path>
            <path d="M34.0119023,106.514374 C34.0119023,103.807543 34.0399749,101.100712 34.0006733,98.3938807 C33.9754079,96.682374 34.7305603,95.9577328 36.4429875,96.0056663 C42.0266233,96.169204 47.6327171,95.6109201 53.196702,96.6626367 C57.5816387,97.4944233 60.9138537,101.47854 60.9980714,106.300083 C61.0879037,111.23723 58.0307999,115.280558 53.6486705,116.253326 C47.8629122,117.536251 42.0182015,116.7383 36.2015634,116.910296 C34.6603788,116.95823 33.9754079,116.188475 34.0006733,114.634866 C34.0427821,111.928036 34.0119023,109.221205 34.0119023,106.514374" id="Fill-20" fill="#60BDAE"></path>
            <path d="M34.0118685,76.6772444 C34.0118685,74.2774819 33.9978935,71.8748522 34.0146635,69.4750897 C34.0230485,68.2995788 34.0454085,67.0351877 35.683276,67.1183336 C41.5276121,67.416512 47.4390281,66.1693236 53.2162844,68.1447554 C57.4814479,69.6012421 60.5251983,73.2911995 59.9242742,77.4800323 C59.2562702,82.1276011 57.7162275,85.4878421 52.5902053,86.4253837 C47.0952437,87.4288687 41.4745072,86.8239106 35.9068756,86.7723028 C34.4981978,86.7579673 33.9783286,85.9523123 34.0006885,84.564636 C34.0426135,81.9355054 34.0118685,79.3063749 34.0118685,76.6772444" id="Fill-22" fill="#60BDAE"></path>
            <path d="M65.8375976,159.09707 C64.7830163,159.147713 64.1270169,158.835414 64.1270169,157.645302 C64.1297849,154.505431 64.1297849,151.362746 64.1187131,148.222875 C64.1159452,146.714837 64.9656997,146.346268 66.2749306,146.419419 C69.026253,146.576975 71.7083771,149.542409 71.7748074,152.566926 C71.8467736,155.782762 68.9487509,158.945141 65.8375976,159.09707 M69.9645812,143.583406 C67.6312163,142.643696 65.1677586,143.155754 62.7624275,143.020705 C60.8248765,142.913792 59.9197634,143.710014 60.0055692,145.766686 C60.1024468,148.118776 60.0277127,150.479306 60.0277127,152.831396 L60.0166409,152.831396 L60.0166409,156.199161 C60.0166409,163.272311 60.2768264,163.503018 67.2769212,162.656154 C71.7083771,162.118774 75.2817747,158.455591 75.9239344,153.793614 C76.4885921,149.708406 73.8507549,145.150528 69.9645812,143.583406" id="Fill-24" fill="#353433"></path>
            <path d="M136.728072,155.341122 C135.695105,155.323997 134.37829,155.401059 134.694326,153.825562 C134.931352,152.64394 135.302987,151.396671 136.824639,150.563256 C137.380627,151.670671 138.080002,152.669627 138.390184,153.774187 C138.720851,154.958664 137.775671,155.361101 136.728072,155.341122 M145.404415,160.096154 C143.33848,155.035726 141.219872,149.992424 139.112969,144.943413 C138.653547,143.841707 138.071223,142.945501 136.593465,143.002584 C135.200568,143.053959 134.577276,143.764645 134.09737,144.960538 C132.063623,149.998132 129.912827,154.99006 127.887859,160.030508 C127.55134,160.87534 125.991646,162.091212 128.028319,162.753378 C129.397806,163.195772 131.033582,163.167231 131.49593,161.440464 C132.239199,158.64624 134.231978,158.400782 136.637358,158.703323 C139.03396,158.360824 140.956509,158.720448 141.685146,161.511818 C142.147495,163.267126 143.871058,163.181502 145.179094,162.704857 C146.656852,162.168275 145.758492,160.966673 145.404415,160.096154" id="Fill-26" fill="#353433"></path>
        </g>
    </g>
</svg>