<?xml version="1.0" encoding="UTF-8"?>
<svg width="600px" height="250px" viewBox="0 0 600 250" version="1.1" xmlns="http://www.w3.org/2000/svg" xmlns:xlink="http://www.w3.org/1999/xlink">
    <!-- Generator: Sketch 50.1 (55044) - http://www.bohemiancoding.com/sketch -->
    <title>CARD</title>
    <desc>Created with Sketch.</desc>
    <defs></defs>
    <g id="CARD" stroke="none" stroke-width="1" fill="none" fill-rule="evenodd">
        <g id="Grid-Logo" opacity="0.400000006" transform="translate(1.000000, 0.000000)"></g>
        <g id="CARD3" transform="translate(156.000000, 55.000000)">
            <path d="M168.763186,38.6644295 C165.803014,37.5011186 159.941873,35 148.515608,35 C132.885899,35 114,45.9932886 114,73.6800895 C114,97.5861298 128.741658,113 149.758881,113 C159.527449,113 165.921421,111.255034 169,110.324385 L168.348762,94.5615213 C166.572659,95.3176734 161.421959,98.5749441 152.600646,98.5749441 C141.174381,98.5749441 132.471475,88.6286353 132.471475,73.9127517 C132.471475,58.6733781 140.167922,49.0760626 152.245425,49.0760626 C160.474704,49.0760626 165.092573,51.8680089 167.875135,53.3803132 L168.763186,38.6644295 Z" id="Shape" fill="#7C7B7B"></path>
            <path d="M222.951397,37.6154993 C216.342649,36.2205663 211.877278,35 204.792224,35 C178.893074,35 178,54.2384501 178,56.5052161 C178,83.4157973 208.424058,76.266766 208.424058,90.8554396 C208.424058,97.0163934 202.886999,99.8062593 197.171324,99.8062593 C190.443499,99.8062593 185.680437,97.1907601 180.262454,95.1564829 L179.250304,109.861401 C182.584447,110.849478 190.622114,113 200.029162,113 C215.390036,113 227,104.339791 227,90.099851 C227,63.3055142 196.575942,69.6989568 196.575942,55.9821162 C196.575942,50.3442623 200.981774,47.7868852 206.876063,47.7868852 C211.758202,47.7868852 217.831106,49.5305514 222.117861,51.681073 L222.951397,37.6154993 Z" id="Shape" fill="#7C7B7B"></path>
            <path d="M233,84.8831563 C233,103.880121 243.823529,114 261,114 C278.176471,114 289,103.880121 289,84.8831563 L289,36 L271.058824,36 L271.058824,87.7830046 C271.058824,95.4764795 268.235294,100.210926 261,100.210926 C253.764706,100.210926 250.941176,95.4764795 250.941176,87.7830046 L250.941176,36 L233,36 L233,84.8831563 Z" id="Shape" fill="#7C7B7B"></path>
            <path d="M46.8079952,110.510213 C25.9333737,109.859108 9.12901272,92.3976657 9.12901272,70.9704043 C9.12901272,55.6398499 17.6765597,42.3218008 30.2362205,35.8107545 C28.9569958,46.3468112 29.9454876,56.9420592 33.2016959,67.4781159 L40.0048455,89.6156732 L49.1920048,89.6156732 L42.3888552,67.4781159 C37.3882495,51.1413089 37.737129,37.2313464 42.3888552,22.1375573 L49.1920048,0 L40.0048455,0 L33.1435494,22.1375573 C32.8528165,22.9662359 32.7365233,23.8541059 32.503937,24.6827845 C13.6062992,31.2530221 0,49.4839516 0,70.9704043 C0,96.7778241 19.6535433,117.909129 44.5402786,119.684869 C44.5402786,119.684869 46.2265294,113.588162 46.8079952,110.510213 Z M49.1338583,31.4897874 C70.0084797,32.140892 86.8128407,49.543143 86.8128407,70.9704043 C86.8128407,86.3009587 78.2652938,99.6190079 65.7056329,106.189246 C66.9848577,95.6531888 65.9963658,85.0579408 62.7983041,74.5218841 L55.9951545,52.3843268 L46.8079952,52.3843268 L53.6111448,74.5218841 C58.6117505,90.8586911 58.262871,104.768654 53.6111448,119.862443 L46.8079952,142 L55.9951545,142 L62.7983041,119.862443 C63.0890369,118.974573 63.3797698,118.086703 63.6123561,117.258024 C82.4518474,110.687787 96,92.456857 96,71.0295957 C96,45.2221759 76.3464567,24.0908712 51.4597214,22.3151313 C51.4015748,22.25594 49.715324,28.4118383 49.1338583,31.4897874 Z" id="Shape" fill="#15607E"></path>
        </g>
    </g>
</svg>