<?xml version="1.0" encoding="UTF-8"?>
<svg width="600px" height="250px" viewBox="0 0 600 250" version="1.1" xmlns="http://www.w3.org/2000/svg" xmlns:xlink="http://www.w3.org/1999/xlink">
    <!-- Generator: Sketch 50.1 (55044) - http://www.bohemiancoding.com/sketch -->
    <title>CCRO</title>
    <desc>Created with Sketch.</desc>
    <defs></defs>
    <g id="CCRO" stroke="none" stroke-width="1" fill="none" fill-rule="evenodd">
        <g id="Grid-Logo" opacity="0.400000006"></g>
        <g id="CCRO3" transform="translate(215.000000, 16.000000)" fill-rule="nonzero">
            <path d="M144.493498,152.477321 L148.124627,152.477321 C155.392601,152.477321 160.857157,153.734981 164.528299,156.274709 C168.12656,158.818745 170,162.616134 170,167.59222 C170,172.127552 168.530972,175.703845 165.594344,178.358428 C162.730597,181.123559 158.549297,182.708556 153.263368,183.114855 C154.841001,184.038001 156.124257,185.288483 157.081698,186.692584 C157.997697,188.052178 158.730782,190.043474 159.280953,192.808605 L163.795214,213.528422 L147.798811,213.528422 L144.493498,198.416394 L144.493498,177.768361 C146.881383,177.476917 148.786261,176.807887 150.218135,175.815828 C152.34451,174.449056 153.263368,172.457759 153.263368,170.028579 C153.263368,167.889407 152.640317,166.302975 151.172718,165.273588 C149.812295,164.202566 147.721645,163.687155 144.96936,163.687155 L144.493498,163.687155 L144.493498,152.477321 Z M125.193211,152.477321 L144.493498,152.477321 L144.493498,163.684284 L138.548792,163.684284 L135.726486,177.952129 L141.483991,177.952129 C142.58862,177.952129 143.577499,177.874602 144.492069,177.76549 L144.492069,198.413522 L143.498903,193.837992 C143.063053,192.18121 142.441431,190.890529 141.299648,190.266006 C140.23646,189.525192 138.547363,189.197855 136.238074,189.197855 L133.300018,189.197855 L128.237015,213.525551 L114.47988,213.525551 L114.47988,203.497286 L125.193211,152.477321 Z M114.481309,161.029701 L116.571959,154.688277 C115.873171,154.468617 115.178669,154.248957 114.481309,154.02499 L114.481309,161.029701 Z M114.481309,213.525551 L112.387801,213.525551 L114.481309,203.497286 L114.481309,213.525551 Z M114.481309,154.02499 C111.473231,153.101844 108.682363,152.477321 105.854341,151.961909 C102.370401,151.297187 99.1050999,151 95.9098207,151 C89.5992872,151 84.2104688,151.852797 79.694779,153.615819 C75.0690551,155.318543 71.0735271,157.967383 67.5124198,161.652788 C64.537209,164.715106 62.2264906,168.439275 60.5774064,172.750639 C59.4370519,175.702409 58.6682414,178.724528 58.3009843,181.816995 L58.3009843,190.962313 C59.0712238,197.7488 61.6420232,203.198663 66.0433916,207.260218 C71.4007717,212.343981 78.8473727,215 88.4246362,215 C91.0668863,215 93.7791582,214.776033 96.5400166,214.338149 C99.2137051,213.930414 102.074595,213.415003 105.121256,212.675625 L106.590284,198.592983 C104.056639,199.773117 101.638745,200.732155 99.2137051,201.358114 C96.8272488,201.984073 94.4093542,202.317152 92.0943487,202.317152 C86.7383977,202.317152 82.5556686,200.917358 79.4004018,198.077572 C76.3523112,195.35264 74.7746778,191.440397 74.7746778,186.689712 C74.7746778,179.317466 76.872473,173.491453 80.9780352,169.290637 C85.0507301,165.158733 90.7396417,163.056889 98.0776376,163.056889 C100.789909,163.056889 103.324983,163.35264 105.744307,164.089147 C108.166489,164.715106 110.368602,165.674144 112.459252,167.040917 L114.47988,161.028265 L114.47988,154.02499 L114.481309,154.02499 Z M58.3024134,155.500875 L58.3024134,154.617928 C58.3738641,154.65382 58.4881854,154.65382 58.5596362,154.688277 L58.3024134,155.500875 Z M58.3024134,154.617928 L58.3024134,155.500875 L54.5569631,167.040917 C52.3562788,165.674144 50.1555946,164.715106 47.7377,164.089147 C45.4241235,163.35264 42.7804443,163.056889 40.0667434,163.056889 C32.8001984,163.056889 27.0055395,165.158733 22.9328447,169.290637 C18.8215664,173.491453 16.8023671,179.317466 16.8023671,186.689712 C16.8023671,191.440397 18.2713953,195.351205 21.4266621,198.077572 C24.510478,200.918794 28.8032413,202.317152 34.0491581,202.317152 C36.4684818,202.317152 38.8935215,201.984073 41.202811,201.358114 C43.6264217,200.732155 46.1600666,199.773117 48.6879954,198.592983 L47.110362,212.675625 C44.1408673,213.416439 41.202811,213.930414 38.4891101,214.338149 C35.7382548,214.776033 33.0231248,215 30.3808747,215 C20.8050402,215 13.4656154,212.343981 8.07250994,207.260218 C2.7137009,202.317152 0,195.243528 0,186.24465 C0,181.637534 0.841690273,177.100767 2.52935787,172.752075 C4.1841581,168.439275 6.49201853,164.715106 9.46151324,161.654224 C13.0226205,157.970254 17.1338988,155.319978 21.6438725,153.617255 C26.1595622,151.852797 31.6241184,151.001436 37.8646302,151.001436 C41.0913477,151.001436 44.4666829,151.298623 47.8448761,151.963345 C51.2202113,152.547669 54.7027227,153.397595 58.3024134,154.617928 Z M58.3024134,181.818431 C58.1166413,183.256988 58.0466195,184.732873 58.0466195,186.24465 C58.0466195,187.871282 58.1152123,189.454843 58.3024134,190.963749 L58.3024134,181.818431 Z" id="Shape" fill="#000000"></path>
            <path d="M86.4871901,13.009266 C96.7151679,17.7626245 103.621117,26.6792305 103.621117,37.0781728 C103.621117,47.3768809 96.7535975,56.4770143 86.4871901,60.8619063 L86.4871901,13.009266 Z M86.4871901,116.721986 C97.6289393,120.81747 111.11632,120.492768 121.42258,115.601058 C116.48793,118.825492 111.045154,121.400522 105.269321,123.173679 C99.4934886,124.87766 93.4614583,125.892707 87.5404469,125.96753 L86.5227731,125.998588 C86.5227731,125.998588 86.5227731,125.998588 86.4871901,125.998588 L86.4871901,116.721986 Z M86.4871901,113.426964 C91.418994,115.601058 97.1563971,116.829279 103.2966,116.829279 C131.401477,116.829279 149.712489,87.7571344 150,62.3837716 C149.780809,41.9388242 139.769176,23.8162037 124.385933,12.5419771 C133.848164,21.3512902 140.318577,36.6475894 140.318577,55.0257364 C140.318577,73.0791812 129.024533,102.401206 104.71992,102.401206 C97.4866073,102.401206 91.4887367,97.5094957 91.1627964,90.1895777 C90.8311629,80.1125141 98.2537768,79.2400533 105.124143,75.4368018 C117.075761,68.9455804 122.117161,62.8891777 126.212052,50.3486123 C132.461851,30.7027148 117.620893,0.323290495 86.8828731,0 L86.4871901,0 L86.4871901,9.20742625 C98.4018021,13.5174956 107.717432,22.9465664 107.717432,37.2984056 C107.717432,50.0239101 99.2002847,59.4854511 87.4322746,64.484454 C87.1063343,64.5917469 86.8117071,64.7385688 86.4871901,64.8839789 L86.4871901,113.426964 Z M48.5870243,113.458023 C46.3908414,111.866982 44.3455306,110.126296 42.3699623,108.275493 C30.5322096,96.9320904 23.1451786,81.0894444 23,63.47223 C23.2220379,38.0988672 41.3480186,9.35424813 69.3447236,9.35424813 C75.5930986,9.35424813 81.4400973,10.6530571 86.4871901,13.009266 L86.4871901,60.8619063 C86.4089075,60.8986118 86.3391648,60.9324938 86.2295692,60.9691992 C74.3149572,66.0839654 65.2484086,75.7205634 65.2484086,88.591478 C65.2484086,102.946141 74.5683082,112.375211 86.4857668,116.721986 L86.4857668,126 C55.4545434,125.67671 40.5025665,95.1899923 46.8676537,75.5440947 C50.8472565,62.8891777 55.8943493,56.9443031 67.843121,50.3472006 C74.8245058,46.6145365 82.1716838,45.6700765 81.8400502,35.7017176 C81.6222822,28.2363895 75.5916753,23.3771498 68.2829269,23.3771498 C43.978314,23.3771498 32.6828462,52.7739969 32.6828462,70.8655589 C32.6842695,89.136413 39.1176761,104.617651 48.5870243,113.458023 Z M86.4871901,0 L86.2623056,0 C73.4396154,0.0310584755 61.5250034,3.84136872 51.5446833,10.3989423 C61.8509436,5.50723241 75.336901,5.1458247 86.4871901,9.20742625 L86.4871901,0 Z M86.4871901,64.8839789 C76.5452997,69.561103 69.452896,79.4588744 69.452896,89.6432309 C69.452896,100.156525 76.2891021,108.857133 86.4871901,113.426964 L86.4871901,64.8839789 Z" id="Shape" fill="#B30000"></path>
        </g>
    </g>
</svg>