<?xml version="1.0" encoding="UTF-8"?>
<svg width="600px" height="250px" viewBox="0 0 600 250" version="1.1" xmlns="http://www.w3.org/2000/svg" xmlns:xlink="http://www.w3.org/1999/xlink">
    <!-- Generator: Sketch 50.1 (55044) - http://www.bohemiancoding.com/sketch -->
    <title>CESP</title>
    <desc>Created with Sketch.</desc>
    <defs>
        <polygon id="path-1" points="0.670406081 0.157461538 85.9578108 0.157461538 85.9578108 91.8283531 0.670406081 91.8283531"></polygon>
        <polygon id="path-3" points="0.790402498 0.240988235 16.2078 0.240988235 16.2078 17.1011166 0.790402498 17.1011166"></polygon>
        <polygon id="path-5" points="0.0188130857 0.45747 15.8583226 0.45747 15.8583226 17 0.0188130857 17"></polygon>
        <polygon id="path-7" points="0.483615685 0.82824 19.1935088 0.82824 19.1935088 17 0.483615685 17"></polygon>
    </defs>
    <g id="CESP" stroke="none" stroke-width="1" fill="none" fill-rule="evenodd">
        <g id="Grid-Logo" opacity="0.400000006"></g>
        <g transform="translate(34.000000, 79.000000)">
            <g id="Group-3" transform="translate(146.000000, 0.000000)">
                <mask id="mask-2" fill="white">
                    <use xlink:href="#path-1"></use>
                </mask>
                <g id="Clip-2"></g>
                <path d="M13.1103195,64.2398846 C16.3065214,64.2398846 19.5027233,64.2788077 22.6971632,64.2204231 C24.1155439,64.1956538 24.8273772,64.3000385 24.8291391,66.1771923 C24.834425,71.5751154 26.3920008,73.6044231 31.5915552,75.0038846 C37.2263147,76.5218846 42.9086471,77.1924231 48.4112593,74.3138846 C50.1732228,73.3921154 51.7219888,72.2226538 52.9430295,70.6515769 C55.8590792,66.8990385 55.6864068,63.4950385 52.2593877,60.2290385 C48.328447,56.4835769 43.6504338,53.8881154 38.6376475,51.9331154 C33.0592709,49.7551923 27.7081876,47.2181154 22.9438381,43.5062692 C11.299021,34.4318846 12.9552668,21.3519615 20.9739629,12.2651923 C27.107358,5.31742308 35.3815388,1.72057692 44.557845,0.712115385 C55.770981,-0.521038462 66.8132066,-0.133576923 76.6802025,6.39134615 C84.1667856,11.3398846 86.7621579,18.5052692 85.7472669,27.2558846 C85.5798804,28.6854231 84.920906,28.8888846 83.7351046,28.8835769 C77.3444628,28.8499615 70.952059,28.8446538 64.5596552,28.8888846 C63.313947,28.8959615 62.58978,28.7101923 62.8117874,27.2063462 C64.0240183,18.9723462 58.7064123,16.6475769 52.536016,16.0814231 C48.7125551,15.7328846 44.9578107,16.5874231 41.657653,18.7830385 C36.3241893,22.3303462 36.0722285,28.2271923 41.1836848,32.1389615 C45.4617323,35.4155769 50.4815665,37.3405 55.3393,39.5449615 C58.9795167,41.1974231 62.7554046,42.5703462 66.1753758,44.6792692 C78.0915353,52.0339615 81.0798255,61.4020385 73.9826363,75.3559615 C69.2077151,84.7470385 60.2551783,88.0696538 50.9467248,90.3024231 C40.3608478,92.8430385 29.6657291,91.8858846 19.0798521,89.8017308 C14.9938586,88.9967308 11.3043069,87.1549615 7.95833812,84.7081154 C1.58707792,80.0497308 -0.0603579953,73.5407308 0.942199265,66.0480385 C1.12544347,64.6768846 1.79851355,64.1691154 3.21337028,64.2080385 C6.51000409,64.3053462 9.81016182,64.2398846 13.1103195,64.2398846" id="Fill-1" fill="#020303" mask="url(#mask-2)"></path>
            </g>
            <path d="M75.4791557,29.0938623 C72.4714053,29.0938623 69.4565653,28.9841494 66.4559044,29.1381013 C64.8182135,29.2230403 64.3627086,28.5629936 64.0915325,27.1154919 C62.5672747,18.9684282 56.9328383,15.6823515 48.7213428,17.7969781 C43.7870014,19.0692932 39.8150694,21.6740886 36.7452852,25.6060555 C28.5461964,36.1119454 24.0443189,47.9998632 24.0957183,61.3866002 C24.125849,68.9904083 27.4969399,73.7558389 33.4610414,74.9379064 C41.2117148,76.4738862 50.0134171,72.8038145 51.5181785,66.0600136 C51.8194853,64.704529 52.7127712,64.4267078 54.0438381,64.4408643 C60.99339,64.5116468 67.9464867,64.5452684 74.8942661,64.4302469 C77.1327982,64.3930861 77.1966043,65.0584414 76.5532257,66.9253294 C72.3756961,79.0220556 63.669703,86.2294818 51.5624883,89.1351027 C41.0841025,91.6496504 30.362899,91.5647114 19.8153899,89.2218113 C8.80883104,86.7762765 2.06133194,78.6805301 0.430730639,66.2652828 C-1.39660626,52.3706815 2.79687493,39.7430867 9.10304824,27.660517 C15.2195755,15.9407075 23.8954379,6.90532368 37.0572263,3.39628212 C48.9801121,0.218148677 61.0607409,-0.070289938 72.8187943,4.1855068 C82.859399,7.82018726 87.7972852,16.2114505 86.8951373,26.7987403 C86.7568906,28.4320461 86.3226544,29.2141925 84.5024071,29.1310231 C81.4999738,28.9947668 78.4886786,29.0938623 75.4791557,29.0938623" id="Fill-4" fill="#020303"></path>
            <path d="M91,28.9648758 C93.4134787,20.5709408 95.722178,12.6141716 97.9758236,4.64160118 C98.3611988,3.28094449 99.1497084,3.00179041 100.478098,3.00354609 C121.050385,3.04217119 141.624447,3.04919393 162.19851,3.00003472 C164.047245,2.99476766 164.256804,3.58818955 163.784408,5.17006269 C161.619559,12.4298245 159.527522,19.7124103 157.430158,26.9932404 C157.105164,28.1221465 156.845879,29.0035009 155.258204,28.9999895 C133.961342,28.947319 112.666255,28.9648758 91,28.9648758" id="Fill-6" fill="#E31F14"></path>
            <path d="M105.375951,88.9674765 C95.3376589,88.9674765 85.2993673,88.930291 75.2628445,88.9993498 C73.3135586,89.011745 72.538797,88.8700858 73.2728748,86.525627 C75.3672073,79.8322326 77.1979795,73.0556134 79.0570534,66.2896187 C79.4957312,64.6977241 80.1112951,63.9929699 81.9756756,64.0000528 C102.257447,64.0868191 122.540987,64.0779654 142.822758,64.0142188 C144.740205,64.0089065 145.389377,64.3418055 144.777351,66.3639898 C142.718396,73.1777945 140.685973,80.0022236 138.855201,86.8780042 C138.354613,88.7567585 137.440111,89.004662 135.798608,88.9975791 C125.657722,88.9391447 115.516836,88.9674765 105.375951,88.9674765" id="Fill-8" fill="#E31F14"></path>
            <path d="M83,55.9857559 C84.55665,50.5231254 86.065809,45.373662 87.4606377,40.1939495 C87.7596553,39.0889679 88.3787974,39 89.2477071,39 C110.409352,39.0035587 131.572757,39.0035587 153,39.0035587 C151.494359,44.4341608 150.055557,49.597859 148.636103,54.7668954 C148.366987,55.7455426 147.751363,56.0017702 146.80682,55.9999908 C125.653969,55.9821972 104.501118,55.9857559 83,55.9857559" id="Fill-10" fill="#E31F14"></path>
            <path d="M286.270321,34.5071807 C283.281761,40.1219979 278.159537,43.1464603 271.826508,43.5698494 C267.153194,43.8842648 262.442322,43.6305887 257.414888,43.6305887 C259.766747,35.5594006 262.098933,27.7240241 264.289828,19.8511322 C264.667199,18.4970019 265.452344,18.6542096 266.360895,18.6524232 C270.01656,18.6488503 273.672226,18.6702877 277.326103,18.6470638 C288.037346,18.5791787 290.73796,26.1162178 286.270321,34.5071807 M309.964184,21.959145 C309.568929,12.2604996 300.467324,4.31436309 289.879486,3.57119925 C275.358768,2.54934896 260.823742,3.27822119 246.299447,3.0013212 C244.630789,2.96916508 244.011973,3.51939215 243.570217,5.15578177 C241.295263,13.5824737 238.830729,21.959145 236.457408,30.3608266 C231.061546,49.463353 225.721127,68.5819575 220.237628,87.66126 C219.661736,89.6656586 220.096338,89.9925792 221.940267,89.9389857 C225.284736,89.8460902 228.632782,89.9139754 231.980828,89.9139754 C235.012312,89.9139754 238.06168,89.7210386 241.073491,89.9729283 C243.598833,90.185516 244.426902,89.1458012 245.011737,86.8627161 C246.784127,79.9152061 248.810481,73.0320083 250.752777,66.1291595 C252.777343,58.9297598 252.79344,59.1280559 260.262157,58.8600881 C267.770222,58.5885475 275.365922,59.7658191 282.77562,58.127643 C299.639255,54.3975322 310.71356,40.3542366 309.964184,21.959145" id="Fill-12" fill="#020303"></path>
            <path d="M345.294329,18.2359144 L349.766771,18.9608316 C348.54464,21.5676409 346.955173,23.5561916 344.99663,24.9355227 C343.039828,26.3112383 340.863669,27 338.469894,27 C335.776679,27 333.779836,26.1449232 332.481104,24.4365773 C331.17889,22.7264236 330.736695,20.249774 331.149295,16.9993974 C331.483553,14.3636638 332.298307,11.9502862 333.593556,9.76288039 C334.887065,7.57547454 336.50961,5.90147635 338.459448,4.74088581 C340.411028,3.58029527 342.447913,3 344.570103,3 C346.953433,3 348.797075,3.67249171 350.097547,5.01747514 C351.399761,6.36245857 352.033458,8.19373305 351.99864,10.5149141 L347.601058,10.9578186 C347.53142,9.60921964 347.193681,8.62940645 346.582615,8.02380235 C345.976772,7.41639048 345.099345,7.11449232 343.957297,7.11449232 C342.707311,7.11449232 341.48518,7.51401024 340.297867,8.31666165 C339.108814,9.11750527 338.081667,10.3684845 337.212944,12.0732148 C336.344222,13.7761374 335.804534,15.4772522 335.588659,17.1747514 C335.351893,19.0313347 335.593882,20.4648991 336.311144,21.4772522 C337.028406,22.4914131 338.017253,22.9975896 339.279425,22.9975896 C340.451069,22.9975896 341.575708,22.5962639 342.653342,21.7954203 C343.734458,20.9927689 344.611885,19.8068695 345.294329,18.2359144" id="Fill-14" fill="#1D1D1B"></path>
            <path d="M365.721488,16.7416504 C365.856729,15.7021889 365.669473,14.8688727 365.15972,14.2417018 C364.6465,13.6145309 363.921749,13.3018189 362.985469,13.3018189 C362.057858,13.3018189 361.196133,13.5953139 360.402029,14.180557 C359.607925,14.767547 358.93519,15.6183332 358.39076,16.7329154 C357.84633,17.8509917 357.511697,18.8782242 357.388593,19.8146131 C357.236014,20.9763642 357.425004,21.8987771 357.955563,22.5818518 C358.482654,23.2649265 359.216074,23.6055904 360.154088,23.6055904 C361.331374,23.6055904 362.385556,23.0919741 363.316635,22.0612476 C364.6465,20.6042544 365.44754,18.8293084 365.721488,16.7416504 M353.073035,19.8757579 C353.466619,16.869181 354.610962,14.470558 356.506063,12.683383 C358.399429,10.894461 360.700252,10 363.401594,10 C365.745762,10 367.491752,10.6603638 368.63436,11.9793444 C369.776969,13.2983249 370.203497,15.075018 369.910476,17.3059295 C369.565439,19.9369027 368.443637,22.2097421 366.55027,24.1261946 C364.651701,26.0409002 362.321404,27 359.559377,27 C358.063062,27 356.778277,26.694276 355.701555,26.0828281 C354.623099,25.4696331 353.874075,24.604871 353.452748,23.4833008 C353.029688,22.3617306 352.903117,21.1597986 353.073035,19.8757579" id="Fill-16" fill="#1D1D1B"></path>
            <path d="M375.599608,10.3913592 L379.750765,10.3913592 L379.070189,12.4089141 C380.901687,10.8023757 382.706461,10 384.489855,10 C385.720949,10 386.633135,10.2609061 387.231756,10.7827184 C387.828597,11.3045306 388.159977,12.022916 388.224115,12.9414485 C388.897564,12.1069063 389.79906,11.4081783 390.928602,10.8452644 C392.058145,10.2805634 393.19125,10 394.329701,10 C395.630278,10 396.597694,10.3538316 397.233729,11.0632818 C397.867983,11.7727321 398.108501,12.7127089 397.955282,13.8778514 C397.878673,14.4514874 397.606086,15.4415011 397.132177,16.8496794 L393.706136,27 L389.294864,27 L392.720905,16.8496794 C393.144928,15.5791023 393.36763,14.8589299 393.389009,14.6927363 C393.451366,14.231683 393.362285,13.8707032 393.123549,13.6062231 C392.888376,13.3399558 392.498203,13.2059287 391.956593,13.2059287 C390.857338,13.2059287 389.802623,13.793861 388.785323,14.9732997 C388.049517,15.8185641 387.319055,17.3143067 386.595721,19.4605277 L384.051578,27 L379.640305,27 L383.021806,16.9586881 C383.408416,15.8024808 383.625773,15.0519289 383.670313,14.7088195 C383.727325,14.2709976 383.631118,13.9100179 383.374565,13.6294544 C383.119795,13.347104 382.736748,13.2059287 382.223644,13.2059287 C381.742608,13.2059287 381.225941,13.350678 380.675422,13.6437507 C380.123122,13.9368233 379.624271,14.3371176 379.171741,14.8482077 C378.720993,15.3592978 378.304096,16.0151372 377.921049,16.8192999 C377.748233,17.1945758 377.436451,18.0434143 376.985703,19.3658152 L374.413054,27 L370,27 L375.599608,10.3913592 Z" id="Fill-18" fill="#1D1D1B"></path>
            <path d="M403.925491,19.347936 C403.758301,20.567818 403.932457,21.5130581 404.446217,22.1870261 C404.961718,22.8609941 405.628735,23.1979781 406.44901,23.1979781 C407.161307,23.1979781 407.880571,22.9452401 408.610285,22.4380792 C409.341739,21.9309183 410.005273,21.0918281 410.602628,19.915754 C411.198241,18.7430497 411.563969,17.6529065 411.701552,16.6486942 C411.860034,15.4810447 411.698069,14.5846672 411.212174,13.9612468 C410.726279,13.3361415 410.043588,13.0227464 409.160617,13.0227464 C408.338601,13.0227464 407.551417,13.3108677 406.79558,13.8854254 C406.041485,14.4599832 405.404074,15.3074979 404.879865,16.42123 C404.357397,17.536647 404.038692,18.5122157 403.925491,19.347936 Z M402.549659,10.3689975 L406.637098,10.3689975 L406.072833,11.9764111 C407.04114,11.2687447 407.927593,10.7615838 408.728711,10.4582982 C409.531569,10.1533277 410.369259,10 411.240039,10 C412.913677,10 414.181532,10.5644482 415.045346,11.6967144 C415.907417,12.8272957 416.186067,14.5122157 415.879552,16.7531592 C415.494668,19.5754002 414.292992,21.9595619 412.274525,23.9039596 C410.545157,25.5652906 408.653824,26.3976411 406.598784,26.3976411 C404.484531,26.3976411 403.002464,25.5551811 402.1491,23.8753159 L399.3121,32 L395,32 L402.549659,10.3689975 Z" id="Fill-20" fill="#1D1D1B"></path>
            <path d="M428.412073,19.0502466 C428.143134,19.121866 427.793168,19.188245 427.358728,19.2476367 C425.181356,19.5148993 423.733223,19.9009453 423.01088,20.4092684 C422.497137,20.7760995 422.200615,21.270448 422.121312,21.8940608 C422.054077,22.4041307 422.174755,22.8338471 422.486793,23.18321 C422.797108,23.5360666 423.247063,23.7124949 423.831489,23.7124949 C424.476253,23.7124949 425.103777,23.5517879 425.715786,23.2321208 C426.329519,22.9107069 426.808782,22.4984587 427.157024,21.9936293 C427.505265,21.4887998 427.858679,20.7009864 428.21554,19.6319359 L428.412073,19.0502466 Z M424.879661,14.9836621 L420.762825,14.6168311 C421.426553,13.1704686 422.405767,12.0385327 423.697019,11.2245171 C424.986548,10.4105014 426.608802,10 428.563782,10 C430.59634,10 432.044474,10.4209823 432.904734,11.2612002 C433.766718,12.101418 434.121856,13.128545 433.963251,14.3425812 C433.899464,14.8316893 433.78913,15.35224 433.632249,15.9007398 C433.477092,16.4527333 432.992656,17.8990958 432.182391,20.243321 C431.513492,22.1787916 431.129047,23.532573 431.029057,24.3081587 C430.937686,25.0016441 430.95665,25.7719893 431.085947,26.6174476 L426.934632,26.6174476 C426.841537,26.0270242 426.817402,25.4156391 426.862225,24.7815454 C426.14333,25.4959926 425.353753,26.0427456 424.490045,26.4270448 C423.626337,26.8061036 422.781592,27 421.960983,27 C420.650767,27 419.628454,26.5580559 418.888872,25.6776613 C418.151013,24.7955199 417.873454,23.6618372 418.052747,22.2748664 C418.254451,20.7271887 418.885424,19.4869503 419.942216,18.5628853 C421.000733,17.6335799 422.748837,17.0728524 425.18308,16.8807028 C427.23805,16.7060214 428.624121,16.4964036 429.339568,16.2518496 C429.598163,15.6404644 429.751596,15.1531032 429.799867,14.7845253 C429.86193,14.316379 429.729184,13.9233457 429.40163,13.608919 C429.077524,13.2927456 428.54999,13.1337855 427.827647,13.1337855 C427.063929,13.1337855 426.439853,13.2944924 425.957142,13.6159063 C425.474431,13.9373202 425.114121,14.3932388 424.879661,14.9836621 Z" id="Fill-22" fill="#1D1D1B"></path>
            <path d="M439.594739,10.3913592 L443.77122,10.3913592 L443.055862,12.5500894 C444.223212,11.6315568 445.282013,10.9775045 446.239382,10.5879323 C447.196752,10.1965731 448.177255,10 449.180891,10 C450.522632,10 451.526269,10.3913592 452.197139,11.1722905 C452.86801,11.956796 453.118919,12.9932724 452.948087,14.2870808 C452.871569,14.8696521 452.556598,15.9740355 452.004953,17.6002313 L448.849905,27 L444.443869,27 L447.616713,17.5698518 C448.08828,16.1616735 448.342748,15.3235572 448.378338,15.0519289 C448.454856,14.4782929 448.346307,14.0279617 448.056249,13.6991485 C447.76797,13.3703353 447.326655,13.2059287 446.734082,13.2059287 C446.086345,13.2059287 445.335398,13.4829181 444.474121,14.0351098 C443.612844,14.5890886 442.897486,15.3181962 442.328047,16.2260065 C441.915204,16.8711237 441.374237,18.1899506 440.701587,20.1824871 L438.407815,27 L434,27 L439.594739,10.3913592 Z" id="Fill-24" fill="#1D1D1B"></path>
            <path d="M458.407912,26 L454,26 L461.729869,4 L466.139561,4 L463.376605,11.8317874 C464.475022,11.0738171 465.475526,10.5250604 466.381676,10.1889469 C467.287826,9.85454829 468.234921,9.68649154 469.215842,9.68649154 C470.536792,9.68649154 471.531954,10.0569023 472.19777,10.7977239 C472.863585,11.5368306 473.116382,12.5091589 472.950818,13.7095643 C472.863585,14.3492088 472.584085,15.3404007 472.114098,16.67971 L468.838428,26 L464.430516,26 L467.775616,16.5013641 C468.131667,15.4690155 468.329275,14.8105074 468.370221,14.5206953 C468.443211,13.9890872 468.331055,13.5638008 468.037313,13.2448359 C467.741791,12.9241562 467.303848,12.7629589 466.721704,12.7629589 C465.984679,12.7629589 465.242312,13.0133292 464.498166,13.5140697 C463.527926,14.1742926 462.746394,14.9837088 462.153569,15.9457479 C461.824222,16.4739263 461.316849,17.7206329 460.62611,19.6807234 L458.407912,26 Z" id="Fill-26" fill="#1D1D1B"></path>
            <path d="M480.635242,4 L485,4 L483.65022,7.90131733 L479.285463,7.90131733 L480.635242,4 Z M478.536564,10.0620469 L482.899559,10.0620469 L477.364758,26 L473,26 L478.536564,10.0620469 Z" id="Fill-28" fill="#1D1D1B"></path>
            <path d="M492.412068,19.0502466 C492.143129,19.121866 491.793164,19.188245 491.358724,19.2476367 C489.181353,19.5148993 487.73322,19.9009453 487.010878,20.4092684 C486.497135,20.7760995 486.200613,21.270448 486.121311,21.8940608 C486.054076,22.4041307 486.174754,22.8338471 486.486792,23.18321 C486.797106,23.5360666 487.247061,23.7124949 487.831486,23.7124949 C488.47625,23.7124949 489.103775,23.5517879 489.715783,23.2321208 C490.329516,22.9107069 490.808779,22.4984587 491.15702,21.9936293 C491.505261,21.4887998 491.858675,20.7009864 492.215536,19.6319359 L492.412068,19.0502466 Z M488.879659,14.9836621 L484.762824,14.6168311 C485.426552,13.1704686 486.405765,12.0385327 487.697017,11.2245171 C488.986545,10.4105014 490.608798,10 492.563778,10 C494.596335,10 496.044468,10.4209823 496.906452,11.2612002 C497.766712,12.101418 498.121849,13.128545 497.963244,14.3425812 C497.899457,14.8316893 497.789124,15.35224 497.632242,15.9007398 C497.477085,16.4527333 496.99265,17.8990958 496.182386,20.243321 C495.513486,22.1787916 495.129041,23.532573 495.029051,24.3081587 C494.937681,25.0016441 494.956645,25.7719893 495.085942,26.6174476 L490.934628,26.6174476 C490.841534,26.0270242 490.817398,25.4156391 490.862222,24.7815454 C490.143327,25.4959926 489.35375,26.0427456 488.490042,26.4270448 C487.626334,26.8061036 486.78159,27 485.960982,27 C484.650766,27 483.628453,26.5580559 482.888871,25.6776613 C482.151013,24.7955199 481.873454,23.6618372 482.052747,22.2748664 C482.254451,20.7271887 482.885423,19.4869503 483.942215,18.5628853 C485.000732,17.6335799 486.748835,17.0728524 489.183077,16.8807028 C491.238046,16.7060214 492.624116,16.4964036 493.339563,16.2518496 C493.598158,15.6404644 493.751591,15.1531032 493.801586,14.7845253 C493.861925,14.316379 493.72918,13.9233457 493.401626,13.608919 C493.07752,13.2927456 492.549986,13.1337855 491.827643,13.1337855 C491.063926,13.1337855 490.439849,13.2944924 489.957139,13.6159063 C489.474428,13.9373202 489.115842,14.3932388 488.879659,14.9836621 Z" id="Fill-30" fill="#1D1D1B"></path>
            <polygon id="Fill-32" fill="#1D1D1B" points="325 59 332.585211 37 349 37 347.734631 40.67667 335.88077 40.67667 334.151608 45.673786 345.611682 45.673786 344.348064 49.350456 332.884489 49.350456 330.689783 55.3216151 343.570991 55.3216151 342.291621 59"></polygon>
            <path d="M351.593479,42.3913592 L355.772127,42.3913592 L355.056703,44.5500894 C356.222382,43.6315568 357.281281,42.9775045 358.240519,42.5861453 C359.196198,42.1965731 360.176792,42 361.182301,42 C362.522387,42 363.527897,42.3913592 364.198829,43.1722905 C364.867983,43.9550089 365.118915,44.9914853 364.948067,46.2870808 C364.871542,46.8696521 364.556542,47.9740355 364.006626,49.6002313 L360.849504,59 L356.44306,59 L359.617978,49.5716388 C360.089589,48.1616735 360.342301,47.3235572 360.379674,47.0519289 C360.454419,46.4800799 360.34586,46.0279617 360.057555,45.7009356 C359.76747,45.3703353 359.326113,45.2059287 358.733486,45.2059287 C358.087468,45.2059287 357.334671,45.4829181 356.473314,46.0368969 C355.611958,46.5890886 354.896533,47.3181962 354.328821,48.2260065 C353.914159,48.8729108 353.373142,50.1899506 352.702209,52.1824871 L350.408224,59 L346,59 L351.593479,42.3913592 Z" id="Fill-34" fill="#1D1D1B"></path>
            <path d="M377.887775,49.1853869 C377.924823,48.9914706 377.947757,48.8447231 377.96187,48.7416504 C378.12241,47.5414654 377.972455,46.6382694 377.515536,46.0355565 C377.056852,45.4363375 376.379411,45.1341075 375.474392,45.1341075 C374.571138,45.1341075 373.717281,45.4747713 372.911055,46.1595931 C372.103066,46.8409208 371.483843,47.8489364 371.053386,49.1853869 L377.887775,49.1853869 Z M381.214997,51.8600349 L370.255982,51.8600349 C370.218934,52.0347344 370.197764,52.1675059 370.185415,52.2600966 C370.042517,53.339739 370.233047,54.2097421 370.75877,54.8718528 C371.284492,55.5357106 371.988395,55.8658925 372.87048,55.8658925 C374.32239,55.8658925 375.555544,55.112938 376.568177,53.6035351 L380.392895,54.2604049 C379.420838,55.8414346 378.244137,57.0258966 376.868086,57.813791 C375.488506,58.6051793 374.006604,59 372.422381,59 C370.250689,59 368.578257,58.3116843 367.401557,56.9298119 C366.22662,55.5479396 365.790871,53.7205837 366.092544,51.4477443 C366.388924,49.2255678 367.265716,47.2497174 368.724683,45.5166992 C370.712901,43.1722331 373.258597,42 376.365298,42 C378.342931,42 379.835417,42.6131949 380.837465,43.8395848 C381.841277,45.0712157 382.194111,46.7920049 381.899495,49.0019525 C381.758361,50.062378 381.529019,51.0144898 381.214997,51.8600349 Z" id="Fill-36" fill="#1D1D1B"></path>
            <path d="M386.568992,42.3913592 L390.667331,42.3913592 L389.586489,45.6151582 C391.431008,43.2044571 393.245404,42 395.027907,42 C395.662237,42 396.317829,42.1608325 397,42.4860717 L394.836545,46.1602018 C394.457364,46.0136655 394.044518,45.9421844 393.596235,45.9421844 C392.841417,45.9421844 392.035216,46.231683 391.181174,46.8196153 C390.323588,47.4021865 389.613068,48.1813308 389.047841,49.1552612 C388.480842,50.1309787 387.84474,51.6749711 387.139535,53.7908126 L385.388926,59 L381,59 L386.568992,42.3913592 Z" id="Fill-38" fill="#1D1D1B"></path>
            <path d="M399.125568,51.9613097 C398.966617,53.2349266 399.112041,54.2086564 399.560148,54.8770794 C400.006565,55.547309 400.628843,55.8815205 401.426982,55.8815205 C402.155792,55.8815205 402.901511,55.5798269 403.660757,54.9800527 C404.421695,54.3802785 405.052428,53.525781 405.554647,52.4201731 C406.055175,51.3145653 406.369696,50.2432819 406.496519,49.2117426 C406.645324,48.0176139 406.467772,47.0583365 405.962171,46.3339104 C405.458261,45.6040647 404.817383,45.2409484 404.039535,45.2409484 C403.290434,45.2409484 402.563316,45.5643207 401.856489,46.2056455 C401.149663,46.8505834 400.507093,47.8405721 399.935544,49.1792247 C399.495891,50.210764 399.227027,51.1393301 399.125568,51.9613097 M393.190254,60.070907 L397.525908,60.7664283 C397.466724,61.2523899 397.49378,61.6173128 397.610457,61.8648099 C397.723752,62.1123071 397.933433,62.3236733 398.239499,62.497102 C398.543874,62.6723372 398.976763,62.7590516 399.541548,62.7590516 C400.427617,62.7590516 401.159809,62.5693639 401.743194,62.1881822 C402.177774,61.8937147 402.561625,61.4185924 402.894747,60.7664283 C403.102736,60.3545352 403.412184,59.458487 403.824782,58.0800903 L404.069973,57.288822 C402.458476,58.5967633 400.879107,59.2489274 399.333558,59.2489274 C397.816755,59.2489274 396.641529,58.6690252 395.812953,57.5092209 C394.984376,56.3512232 394.707057,54.6530674 394.982685,52.4201731 C395.226185,50.4474219 395.779133,48.6408732 396.644911,46.9969138 C397.508998,45.3529545 398.592912,44.1082424 399.89327,43.2663907 C401.193628,42.4227324 402.46524,42 403.711487,42 C404.74298,42 405.649341,42.2944674 406.430571,42.8870154 C407.215182,43.4759503 407.778276,44.3051562 408.124925,45.3692134 L409.076943,42.3956342 L413,42.3956342 L408.588252,56.3873542 C407.872971,58.6310877 407.304804,60.2334964 406.885442,61.1927738 C406.46439,62.1538577 406.024737,62.9162213 405.566484,63.4852842 C405.104848,64.054347 404.555282,64.5312759 403.914403,64.9160708 C403.273525,65.3008656 402.539642,65.5772676 401.711066,65.7452766 C400.882489,65.9150922 399.996419,66 399.052857,66 C396.864738,66 395.260005,65.5935265 394.24373,64.7823861 C393.225764,63.9694392 392.831768,62.6199473 393.065122,60.7339104 C393.090487,60.5333835 393.13107,60.3129846 393.190254,60.070907" id="Fill-40" fill="#1D1D1B"></path>
            <path d="M427.315436,37 L432,37 L426.422885,41.7329277 L423.500356,41.7329277 L427.315436,37 Z M425.956203,50.8688303 C425.993467,50.6686951 426.018309,50.5172414 426.03073,50.4108632 C426.192206,49.1721884 426.041377,48.240027 425.581793,47.6197881 C425.122209,46.9995492 424.439043,46.6876268 423.528748,46.6876268 C422.620226,46.6876268 421.76139,47.0392157 420.950463,47.7459995 C420.137762,48.4509804 419.514928,49.491323 419.081961,50.8688303 L425.956203,50.8688303 Z M429.302827,53.631057 L418.279907,53.631057 C418.244418,53.809556 418.22135,53.9465855 418.208929,54.0421456 C418.065198,55.156412 418.258614,56.054316 418.785627,56.7376606 C419.314415,57.4228082 420.024197,57.765382 420.911425,57.765382 C422.371802,57.765382 423.610373,56.9864773 424.62891,55.430471 L428.475931,56.1084066 C427.49998,57.7383367 426.316418,58.9625873 424.930568,59.7757494 C423.542943,60.5907144 422.0524,61 420.460713,61 C418.274584,61 416.5924,60.2878071 415.408838,58.8616182 C414.22705,57.4354293 413.788759,55.5494704 414.093966,53.2037413 C414.392074,50.9121028 415.273979,48.8710841 416.739679,47.0842912 C418.739491,44.6628352 421.300031,43.4530088 424.424848,43.4530088 C426.414013,43.4530088 427.915203,44.0876719 428.923094,45.3533919 C429.934533,46.6227181 430.289425,48.3986928 429.99309,50.6795132 C429.851134,51.7739464 429.620455,52.7565923 429.302827,53.631057 Z" id="Fill-42" fill="#1D1D1B"></path>
            <path d="M433.23089,46.7847942 L434.387367,43.5639334 L436.622605,43.5639334 L437.545936,40.9927741 L443.220997,38 L441.205953,43.5639334 L444,43.5639334 L442.841673,46.7847942 L440.032823,46.7847942 L437.595896,53.5133522 C437.15736,54.7349984 436.926064,55.4278982 436.90201,55.6006912 C436.855751,55.9324537 436.929765,56.1916431 437.125903,56.3799874 C437.323892,56.5666038 437.716169,56.659912 438.300884,56.659912 C438.504423,56.659912 439.013273,56.6236255 439.831133,56.5527804 L438.659854,59.7736412 C437.849395,59.9239711 437.031535,60 436.198872,60 C434.581655,60 433.447383,59.706252 432.797906,59.117028 C432.144728,58.526076 431.893078,57.7070374 432.041107,56.659912 C432.113272,56.1639962 432.470392,55.0270185 433.116168,53.2420672 L435.449475,46.7847942 L433.23089,46.7847942 Z" id="Fill-44" fill="#1D1D1B"></path>
            <path d="M447.637004,37 L452,37 L450.651982,40.9013173 L446.287225,40.9013173 L447.637004,37 Z M445.538326,43.0620469 L449.899559,43.0620469 L444.364758,59 L440,59 L445.538326,43.0620469 Z" id="Fill-46" fill="#1D1D1B"></path>
            <path d="M460.091928,52.5035964 L464.133249,53.1900945 C463.2079,55.0871352 462.013015,56.5300041 460.552028,57.5169544 C459.089324,58.5056515 457.480693,59 455.722701,59 C453.717492,59 452.206718,58.3833744 451.192096,57.1483765 C450.177474,55.9168722 449.810081,54.2189684 450.091634,52.0599055 C450.319967,50.2956227 450.891658,48.6309083 451.804989,47.060522 C452.720038,45.4901356 453.952692,44.2533909 455.501235,43.3537813 C457.051495,42.4506782 458.679011,42 460.387216,42 C462.243064,42 463.659415,42.4978422 464.636268,43.498767 C465.614837,44.4979449 466.064636,45.8115495 465.992531,47.4448212 L461.889406,47.8867653 C461.910007,46.9784217 461.726311,46.3111385 461.343467,45.8831689 C460.958906,45.4569462 460.412968,45.242088 459.698784,45.242088 C458.879875,45.242088 458.072985,45.5565146 457.281545,46.1906083 C456.486672,46.8212084 455.820558,47.7662351 455.274619,49.0256885 C454.733831,50.283395 454.388756,51.4624949 454.246263,52.5629881 C454.120937,53.5219893 454.25313,54.2608919 454.641124,54.7814427 C455.027402,55.3002466 455.561323,55.5587752 456.242888,55.5587752 C456.924453,55.5587752 457.614602,55.3054871 458.311618,54.7954172 C459.008634,54.2870941 459.60436,53.5219893 460.091928,52.5035964" id="Fill-48" fill="#1D1D1B"></path>
            <path d="M478.412068,51.0502466 C478.143129,51.121866 477.793164,51.188245 477.358724,51.2493835 C475.181353,51.5148993 473.73322,51.9009453 473.010878,52.4110152 C472.497135,52.7760995 472.200613,53.2721948 472.121311,53.8940608 C472.054076,54.4041307 472.174754,54.8338471 472.486792,55.1849568 C472.797106,55.5378134 473.247061,55.7124949 473.831486,55.7124949 C474.47625,55.7124949 475.103775,55.5517879 475.715783,55.2321208 C476.329516,54.9107069 476.808779,54.4984587 477.15702,53.9936293 C477.505261,53.4887998 477.858675,52.7009864 478.215536,51.6319359 L478.412068,51.0502466 Z M474.879659,46.9836621 L470.762824,46.6185779 C471.426552,45.1704686 472.405765,44.0385327 473.697017,43.2245171 C474.986545,42.4087546 476.608798,42 478.563778,42 C480.596335,42 482.044468,42.4209823 482.906452,43.2612002 C483.766712,44.101418 484.121849,45.128545 483.963244,46.3425812 C483.899457,46.8316893 483.789124,47.35224 483.632242,47.9007398 C483.477085,48.4527333 482.99265,49.9008426 482.182386,52.243321 C481.513486,54.1805384 481.129041,55.5343198 481.029051,56.3081587 C480.937681,57.0016441 480.956645,57.7719893 481.085942,58.6174476 L476.934628,58.6174476 C476.841534,58.0270242 476.817398,57.4156391 476.862222,56.7832922 C476.143327,57.4959926 475.35375,58.0444924 474.490042,58.4270448 C473.626334,58.8078504 472.78159,59 471.960982,59 C470.650766,59 469.628453,58.5598027 468.888871,57.6776613 C468.151013,56.7972667 467.873454,55.6618372 468.052747,54.2766132 C468.254451,52.7271887 468.885423,51.4886971 469.942215,50.5628853 C471.000732,49.6335799 472.748835,49.0745993 475.183077,48.8807028 C477.238046,48.7060214 478.624116,48.4964036 479.339563,48.2518496 C479.598158,47.6422113 479.751591,47.1531032 479.801586,46.7862721 C479.861925,46.316379 479.72918,45.9233457 479.401626,45.608919 C479.07752,45.2944924 478.55171,45.1337855 477.827643,45.1337855 C477.063926,45.1337855 476.439849,45.2944924 475.957139,45.6176531 C475.474428,45.9373202 475.115842,46.3932388 474.879659,46.9836621 Z" id="Fill-50" fill="#1D1D1B"></path>
            <path d="M498.335591,52.2573574 C498.18213,53.3786021 498.349542,54.2553648 498.841313,54.8842735 C499.33134,55.5131821 499.999241,55.8267934 500.84153,55.8267934 C501.624527,55.8267934 502.388342,55.5654506 503.139949,55.0377069 C503.888069,54.5133354 504.540275,53.7073881 505.093082,52.6266094 C505.647632,51.5424586 505.994662,50.5055181 506.12894,49.5124157 C506.284144,48.3810546 506.09755,47.467198 505.569158,46.7674739 C505.044254,46.0694359 504.374608,45.7204169 503.560221,45.7204169 C502.295916,45.7204169 501.164146,46.4100245 500.164909,47.7875536 C499.163928,49.1633967 498.553574,50.6538933 498.335591,52.2573574 Z M507.442073,58.630748 L503.347469,58.630748 L503.940385,56.9345494 C503.057987,57.6730533 502.215699,58.199111 501.415263,58.5194666 C500.614827,58.8381361 499.735917,59 498.783765,59 C497.128833,59 495.861041,58.4469651 494.983875,57.3408952 C494.108453,56.2314531 493.815483,54.5993256 494.111941,52.43271 C494.453739,49.9255058 495.486109,47.6577253 497.209051,45.6310546 C498.93025,43.6060699 500.979296,42.5927345 503.356189,42.5927345 C505.502891,42.5927345 506.99913,43.4290313 507.843163,45.0999387 L510.680437,37 L515,37 L507.442073,58.630748 Z" id="Fill-52" fill="#1D1D1B"></path>
            <g id="Group-56" transform="translate(513.000000, 42.000000)">
                <mask id="mask-4" fill="white">
                    <use xlink:href="#path-3"></use>
                </mask>
                <g id="Clip-55"></g>
                <path d="M12.24578,7.36725561 C12.28148,7.17493476 12.30358,7.02939465 12.31718,6.92717005 C12.47188,5.73685989 12.32738,4.84109519 11.88708,4.24334118 C11.44508,3.64905241 10.79228,3.34930909 9.92018,3.34930909 C9.04978,3.34930909 8.22698,3.68717005 7.45008,4.36635722 C6.67148,5.04207914 6.07478,6.04180107 5.65998,7.36725561 L12.24578,7.36725561 Z M15.45198,10.0198973 L4.89158,10.0198973 C4.85588,10.1931594 4.83548,10.3248385 4.82358,10.4166674 C4.68588,11.4874267 4.86948,12.3502717 5.37608,13.0069348 C5.88268,13.6653305 6.56098,13.9927957 7.41098,13.9927957 C8.81008,13.9927957 9.99668,13.2460364 10.97418,11.7490524 L14.65978,12.4005176 C13.72308,13.968539 12.58918,15.1432556 11.26318,15.9246674 C9.93378,16.7095444 8.50578,17.1011166 6.97918,17.1011166 C4.88648,17.1011166 3.27488,16.4184642 2.14098,15.0479615 C1.00878,13.6774588 0.58888,11.865138 0.87958,9.61099893 C1.16348,7.40710588 2.01008,5.4475123 3.41598,3.72875294 C5.33188,1.40357647 7.78498,0.240988235 10.77868,0.240988235 C12.68438,0.240988235 14.12258,0.849137968 15.08818,2.06543743 C16.05548,3.28693476 16.39548,4.99356578 16.11158,7.18533048 C15.97558,8.23703102 15.75458,9.18130909 15.45198,10.0198973 Z" id="Fill-54" fill="#1D1D1B" mask="url(#mask-4)"></path>
            </g>
            <path d="M321.128173,85.083817 L325.43735,84.846838 C325.314675,86.2922288 325.423527,87.2690887 325.769091,87.7737997 C326.321992,88.5987036 327.481358,89.0111555 329.250643,89.0111555 C330.721015,89.0111555 331.818179,88.7307605 332.547318,88.1717796 C333.273002,87.6109897 333.687678,86.9362328 333.786163,86.1456999 C333.872554,85.4600889 333.679039,84.877591 333.198705,84.4036331 C332.866965,84.0563051 331.901115,83.4900882 330.306339,82.7104093 C328.709836,81.9289214 327.553926,81.2776815 326.840337,80.7548805 C326.126749,80.2320796 325.598037,79.5537047 325.254201,78.7197558 C324.912093,77.8858069 324.81188,76.908947 324.953561,75.7909852 C325.198911,73.8390744 326.068003,72.2200196 327.564293,70.9320118 C329.058855,69.6458129 331.066579,69 333.592648,69 C336.155001,69 338.062511,69.6403859 339.30654,70.9157308 C340.552296,72.1928846 341.108653,73.8915354 340.982523,76.0116831 L336.647429,76.2197181 C336.676802,75.1108012 336.407262,74.2641893 335.837083,73.6690284 C335.263447,73.0792945 334.345976,72.7844275 333.08467,72.7844275 C331.842369,72.7844275 330.926626,73.0159795 330.335712,73.4808924 C329.744799,73.9458054 329.406146,74.5301123 329.3163,75.2374312 C329.231637,75.9031431 329.406146,76.4512701 329.839828,76.883621 C330.271783,77.326826 331.272189,77.9346499 332.844503,78.7052838 C335.215068,79.8539986 336.699263,80.7892515 337.291905,81.5056154 C338.183459,82.5602623 338.523839,83.9188211 338.314773,85.5740559 C338.059056,87.6218437 337.0742,89.3711465 335.365388,90.8219643 C333.656577,92.2745911 331.441515,93 328.718475,93 C326.840337,93 325.254201,92.663526 323.963522,91.9941961 C322.669386,91.3230572 321.815845,90.3932313 321.399441,89.1992915 C320.983037,88.0071606 320.891462,86.6341298 321.128173,85.083817" id="Fill-57" fill="#1D1D1B"></path>
            <path d="M350.041985,74.5961702 L348.141747,74.5961702 C348.576636,73.3866883 349.013272,72.5407304 349.451654,72.0548992 C350.087395,71.3618253 350.80697,71.0135897 351.612126,71.0135897 C352.134343,71.0135897 353.037305,71.2565053 354.315774,71.7406378 C355.063294,72.0192263 355.582017,72.1568219 355.873689,72.1568219 C356.104233,72.1568219 356.310325,72.085476 356.488472,71.9427843 C356.670113,71.8000927 356.862232,71.4858312 357.070071,71 L359,71 C358.643705,72.2196742 358.142448,73.118292 357.496227,73.6975523 C356.84826,74.2768126 356.174095,74.5655934 355.470238,74.5655934 C355.01963,74.5655934 354.321013,74.368543 353.379627,73.9727434 C352.439987,73.5752452 351.833937,73.376496 351.561477,73.376496 C351.261071,73.376496 350.988611,73.4631303 350.742348,73.6380974 C350.499579,73.8113659 350.265542,74.1307235 350.041985,74.5961702 Z M351.545758,85.2691684 C351.275044,85.3388155 350.920496,85.4033665 350.480367,85.4611227 C348.274484,85.7210254 346.807389,86.0981391 346.075588,86.5924639 C345.556865,86.9474944 345.256459,87.4299282 345.174372,88.0346691 C345.106257,88.5306926 345.228515,88.9485754 345.546385,89.2900162 C345.859016,89.6331557 346.314864,89.8030268 346.906942,89.8030268 C347.560149,89.8030268 348.19589,89.6467454 348.815912,89.3358814 C349.435935,89.0233187 349.92322,88.622423 350.277768,88.1314956 C350.628823,87.642267 350.986864,86.8761486 351.348399,85.834839 L351.545758,85.2691684 Z M347.968839,81.3145703 L343.798097,80.9595398 C344.470515,79.5513088 345.462551,78.4522431 346.768965,77.6589453 C348.077125,76.8673462 349.720621,76.4715466 351.7012,76.4715466 C353.760373,76.4715466 355.227469,76.8792371 356.10074,77.6963169 C356.974011,78.5133966 357.332052,79.5122384 357.17137,80.6911435 C357.106748,81.1667825 356.99497,81.6729982 356.837781,82.2063933 C356.678845,82.7431859 356.189814,84.1497182 355.367192,86.4293877 C354.689534,88.311559 354.300055,89.6297583 354.197009,90.3822871 C354.106189,91.0566752 354.125401,91.8058065 354.254645,92.6279824 L350.050718,92.6279824 C349.956404,92.0538182 349.933699,91.4592696 349.975616,90.8426376 C349.249055,91.5391089 348.449138,92.0691066 347.574121,92.4428229 C346.699103,92.8131418 345.845044,93 345.011943,93 C343.684571,93 342.648872,92.5702262 341.899605,91.7140761 C341.152085,90.8562273 340.870892,89.7537642 341.054279,88.404988 C341.258624,86.8999305 341.896112,85.6955447 342.966742,84.7952282 C344.039119,83.8932129 345.810113,83.3462281 348.276231,83.1593699 C350.358109,82.9894989 351.760583,82.7856536 352.487144,82.5495329 C352.750872,81.9532855 352.906314,81.4793452 352.953471,81.122616 C353.016346,80.6656629 352.881863,80.2851517 352.551766,79.9776851 C352.22167,79.6702185 351.687228,79.5156359 350.955427,79.5156359 C350.181708,79.5156359 349.551207,79.6719172 349.060428,79.98448 C348.56965,80.2970427 348.206369,80.7404061 347.968839,81.3145703 Z" id="Fill-59" fill="#1D1D1B"></path>
            <path d="M372.722826,82.7405961 C372.858074,81.7010277 372.670808,80.8693731 372.159295,80.2403905 C371.647781,79.6131552 370.922993,79.3004111 369.98493,79.3004111 C369.05727,79.3004111 368.1955,79.5939363 367.403088,80.1792395 C366.607208,80.7662898 365.936172,81.6171634 365.391714,82.7318602 C364.845522,83.8500514 364.512605,84.8773895 364.389495,85.8138746 C364.236908,86.9757451 364.425908,87.8982528 364.954761,88.5813977 C365.483613,89.2645427 366.215337,89.6069887 367.153401,89.6069887 C368.330748,89.6069887 369.386719,89.0915725 370.317847,88.06074 C371.646047,86.6035971 372.448863,84.8284687 372.722826,82.7405961 M360.071976,85.8750257 C360.467316,82.8681398 361.609984,80.4692703 363.506918,78.6819116 C365.400384,76.8928058 367.699593,76 370.40281,76 C372.747101,76 374.491448,76.6586845 375.634117,77.9778006 C376.778519,79.2969168 377.203335,81.0737924 376.910299,83.3066804 C376.566978,85.9361768 375.445117,88.2092497 373.549917,90.1258993 C371.652983,92.0425488 369.322563,93 366.560392,93 C365.062265,93 363.777413,92.6942446 362.700634,92.0827338 C361.622122,91.4694758 360.873058,90.6046249 360.45171,89.4829394 C360.030362,88.3612539 359.903784,87.1591984 360.071976,85.8750257" id="Fill-61" fill="#1D1D1B"></path>
            <path d="M394.41716,78.9633643 L395.776296,78.9633643 C398.103582,78.9633643 399.674289,78.8124562 400.493494,78.5123548 C401.311006,78.2139684 401.988035,77.7338062 402.521195,77.0718684 C403.056048,76.4133604 403.372559,75.6862577 403.477498,74.8974199 C403.545201,74.3658118 403.487653,73.931951 403.303163,73.590693 C403.118673,73.2511497 402.830936,73.0024943 402.436566,72.8498714 C402.04389,72.6938187 401.129901,72.6166498 399.697985,72.6166498 L396.544723,72.6166498 L394.41716,78.9633643 Z M390.410843,91 L386,91 L393.349147,69 L402.054045,69 C403.602748,69 404.802782,69.1869203 405.654146,69.5624756 C406.507202,69.9363162 407.140224,70.5588121 407.551519,71.4231039 C407.964506,72.2873957 408.091449,73.3214592 407.935733,74.5218645 C407.790171,75.6330969 407.439809,76.7134617 406.884645,77.7629589 C406.329482,78.8124562 405.708308,79.6527399 405.017739,80.285525 C404.325477,80.9148803 403.609519,81.3916128 402.864787,81.7157222 C402.121748,82.0415465 401.146826,82.288487 399.934945,82.4599735 C399.230835,82.5611505 397.929247,82.6091667 396.030181,82.6091667 L393.212049,82.6091667 L390.410843,91 Z" id="Fill-63" fill="#1D1D1B"></path>
            <g id="Group-67" transform="translate(408.000000, 75.000000)">
                <mask id="mask-6" fill="white">
                    <use xlink:href="#path-5"></use>
                </mask>
                <g id="Clip-66"></g>
                <path d="M10.3253333,9.26347 C10.0608,9.33317 9.71434667,9.39777 9.28426667,9.45557 C7.12874667,9.71567 5.69514667,10.09137 4.98005333,10.58777 C4.47146667,10.94307 4.17621333,11.42417 4.09770667,12.03107 C4.03114667,12.52747 4.15232,12.94567 4.45952,13.28737 C4.76842667,13.62907 5.21216,13.80077 5.79072,13.80077 C6.43072,13.80077 7.05194667,13.64437 7.65781333,13.33327 C8.26368,13.02047 8.73813333,12.61927 9.08288,12.12797 C9.42933333,11.63667 9.77749333,10.86997 10.13248,9.82957 L10.3253333,9.26347 Z M6.83008,5.30587 L2.75285333,4.95057 C3.40992,3.54127 4.37930667,2.43967 5.6576,1.64747 C6.93589333,0.85527 8.54186667,0.45747 10.4772267,0.45747 C12.4893867,0.45747 13.92128,0.86717 14.7746133,1.68487 C15.6279467,2.50087 15.9778133,3.50047 15.8225067,4.68197 C15.75936,5.15797 15.6484267,5.66457 15.4948267,6.19837 C15.33952,6.73557 14.8616533,8.14317 14.05952,10.42457 C13.3973333,12.30817 13.01504,13.62567 12.9160533,14.38047 C12.8256,15.05537 12.84608,15.80507 12.9723733,16.62787 L8.86442667,16.62787 C8.77226667,16.05327 8.74666667,15.45827 8.79104,14.84117 C8.08106667,15.53647 7.29770667,16.06857 6.44266667,16.44257 C5.58933333,16.81147 4.75306667,17.00017 3.94069333,17.00017 C2.64362667,17.00017 1.62986667,16.57007 0.899413333,15.71327 C0.16896,14.85477 -0.10752,13.75147 0.07168,12.40167 C0.269653333,10.89547 0.896,9.69017 1.94218667,8.78917 C2.98837333,7.88477 4.71893333,7.33907 7.13045333,7.15207 C9.16309333,6.98207 10.5352533,6.77807 11.2452267,6.54007 C11.5012267,5.94507 11.65312,5.47077 11.7009067,5.11377 C11.76064,4.65647 11.6292267,4.27397 11.30496,3.96797 C10.9841067,3.66027 10.4635733,3.50557 9.74848,3.50557 C8.99242667,3.50557 8.37461333,3.66197 7.89674667,3.97477 C7.41717333,4.28757 7.06218667,4.73127 6.83008,5.30587 Z" id="Fill-65" fill="#1D1D1B" mask="url(#mask-6)"></path>
            </g>
            <g id="Group-70" transform="translate(425.000000, 75.000000)">
                <mask id="mask-8" fill="white">
                    <use xlink:href="#path-7"></use>
                </mask>
                <g id="Clip-69"></g>
                <path d="M4.57070175,0.82824 L8.91631579,0.82824 L5.65666667,10.18504 C5.26368421,11.30704 5.04614035,12.00574 5.00929825,12.28284 C4.94614035,12.74014 5.0654386,13.12944 5.36368421,13.45924 C5.66192982,13.78564 6.0777193,13.94884 6.61280702,13.94884 C6.99701754,13.94884 7.38473684,13.87744 7.7777193,13.73464 C8.17070175,13.59014 8.58473684,13.37084 9.01807018,13.07844 C9.45140351,12.78774 9.85140351,12.45284 10.2145614,12.07374 C10.5794737,11.69974 10.9391228,11.20334 11.2952632,10.58794 C11.5496491,10.13234 11.8566667,9.38774 12.2180702,8.35754 L14.8496491,0.82824 L19.1935088,0.82824 L13.6794737,16.62804 L9.62508772,16.62804 L10.3707018,14.48434 C8.3654386,16.16224 6.31807018,17.00034 4.23035088,17.00034 C2.90754386,17.00034 1.91807018,16.62804 1.26192982,15.88344 C0.60754386,15.14054 0.367192982,14.14264 0.535614035,12.89314 C0.609298246,12.34744 0.928596491,11.26284 1.49350877,9.63594 L4.57070175,0.82824 Z" id="Fill-68" fill="#1D1D1B" mask="url(#mask-8)"></path>
            </g>
            <polygon id="Fill-71" fill="#1D1D1B" points="443 91 450.65174 69 455 69 447.364117 91"></polygon>
            <path d="M466.722161,82.7405961 C466.857402,81.7010277 466.670145,80.8693731 466.158657,80.2403905 C465.647169,79.6131552 464.922416,79.3004111 463.984399,79.3004111 C463.056785,79.3004111 462.196791,79.5939363 461.402684,80.1792395 C460.606844,80.7662898 459.93584,81.6171634 459.391409,82.7318602 C458.846978,83.8500514 458.512343,84.8773895 458.389239,85.8138746 C458.23666,86.9757451 458.42565,87.8982528 458.956211,88.5813977 C459.483304,89.2645427 460.216725,89.6069887 461.153009,89.6069887 C462.330298,89.6069887 463.386218,89.0915725 464.3173,88.06074 C465.647169,86.6035971 466.448211,84.8284687 466.722161,82.7405961 M454.071933,85.8750257 C454.467252,82.8681398 455.611599,80.4692703 457.506705,78.6819116 C459.400078,76.8928058 461.700908,76 464.402259,76 C466.746435,76 468.49243,76.6586845 469.633308,77.9778006 C470.777655,79.2969168 471.20245,81.0737924 470.911162,83.3066804 C470.566124,85.9361768 469.444318,88.2092497 467.550945,90.1258993 C465.65237,92.0425488 463.322065,93 460.560029,93 C459.06371,93 457.777187,92.6942446 456.702195,92.0827338 C455.623736,91.4694758 454.872975,90.6046249 454.453382,89.4829394 C454.03032,88.3612539 453.903749,87.1591984 454.071933,85.8750257" id="Fill-73" fill="#1D1D1B"></path>
        </g>
    </g>
</svg>