<?xml version="1.0" encoding="UTF-8"?>
<svg width="600px" height="250px" viewBox="0 0 600 250" version="1.1" xmlns="http://www.w3.org/2000/svg" xmlns:xlink="http://www.w3.org/1999/xlink">
    <!-- Generator: Sketch 50.1 (55044) - http://www.bohemiancoding.com/sketch -->
    <title>CIEL</title>
    <desc>Created with Sketch.</desc>
    <defs></defs>
    <g id="CIEL" stroke="none" stroke-width="1" fill="none" fill-rule="evenodd">
        <g id="Grid-Logo" opacity="0.400000006"></g>
        <g id="CIEL3" transform="translate(135.000000, 69.000000)" fill-rule="nonzero">
            <path d="M172.55916,85 C167.906489,89.5720297 161.534351,92.4168481 154.454198,92.3152475 C149.599237,92.2136468 145.148855,90.7912376 141.406489,88.3528218 L132,103.389719 C138.473282,107.453746 146.05916,109.892162 154.251908,109.993762 C166.187023,110.196963 177.110687,105.421733 185,97.7000824 L172.55916,85 Z" id="Shape" fill="#000000"></path>
            <path d="M156.230008,22.0064754 C132.171312,21.5931409 112.412467,41.0198622 112.002958,65.3032639 C111.90058,74.3966228 114.460016,82.8699799 119.067,90 L198,56.0032377 C193.495393,36.7831836 176.603117,22.3164763 156.230008,22.0064754 Z M130.021386,68.7132734 C129.919008,67.6799372 129.816631,66.646601 129.816631,65.6132647 C130.021386,51.3532246 141.692413,39.8831923 155.820498,40.0898596 C163.498806,40.1931932 170.358094,43.8098701 174.965078,49.2865521 L130.021386,68.7132734 Z" id="Shape" fill="#000000"></path>
            <path d="M62.2229917,84.6352941 C57.5484765,89.1905882 51.1080332,91.9858824 44.0443213,91.9858824 C29.7091413,91.9858824 17.9709141,80.3905882 17.9709141,66 C17.9709141,51.7129412 29.6052632,40.0141176 44.0443213,40.0141176 C47.5761773,40.0141176 51.0041551,40.7388235 54.0166205,41.9811765 L61.0803324,25.3129412 C55.8864266,23.1388235 50.1731302,22 44.1481994,22 C19.7368421,22 0,41.7741176 0,66 C0,90.3294118 19.7368421,110 44.1481994,110 C56.1980609,110 67.1052632,105.237647 75,97.4729412 L62.2229917,84.6352941 Z" id="Shape" fill="#000000"></path>
            <path d="M223.519737,1 L223.519737,86.9041227 L238,93.0699904 L231.167763,110 L216.789474,103.834132 C213.526316,102.371045 211.384868,100.176414 209.753289,97.7727709 C208.121711,95.2646213 207,91.8159156 207,87.1131352 L207,1 L223.519737,1 Z" id="Shape" fill="#000000"></path>
            <path d="M83.4802632,108.895086 L83.4802632,53.185923 L69,46.9960159 L75.8322368,30 L90.2105263,36.189907 C93.4736842,37.6586985 95.6151316,39.8618858 97.2467105,42.2749004 C98.8782895,44.7928287 100,48.2549801 100,52.9760956 L100,109 L83.4802632,109 L83.4802632,108.895086 Z" id="Shape" fill="#000000"></path>
            <path d="M79,12 C79,5.33333333 84.3333333,0 91,0 C97.5641026,0 103,5.33333333 103,12 C103,18.5641026 97.6666667,24 91,24 C84.3333333,24 79,18.6666667 79,12" id="Shape" fill="#009BDB"></path>
            <path d="M296.038953,42.6427695 C309.025964,48.8413886 314.42856,64.3379363 308.194795,77.1484158 L324.610376,85 C335.207777,63.0982125 325.961025,36.8573917 303.935056,26.3197392 C287.207786,18.3648447 267.98701,21.7740852 255,33.4481512 L267.259738,46.7751822 C274.844152,39.9567012 286.168825,37.8904949 296.038953,42.6427695" id="Shape" fill="#009BDB"></path>
            <path d="M274.961047,89.3572305 C261.974036,83.1586114 256.57144,67.6620637 262.805205,54.8515842 L246.389624,47 C235.792223,68.9017875 245.038975,95.1426083 267.064944,105.680261 C283.792214,113.635155 303.01299,110.225915 316,98.5518488 L303.740262,85.2248178 C296.155848,92.0432988 284.831175,94.1095051 274.961047,89.3572305" id="Shape" fill="#000000"></path>
        </g>
    </g>
</svg>