<?xml version="1.0" encoding="UTF-8"?>
<svg width="600px" height="250px" viewBox="0 0 600 250" version="1.1" xmlns="http://www.w3.org/2000/svg" xmlns:xlink="http://www.w3.org/1999/xlink">
    <!-- Generator: Sketch 50.1 (55044) - http://www.bohemiancoding.com/sketch -->
    <title>CMIG</title>
    <desc>Created with Sketch.</desc>
    <defs></defs>
    <g id="CMIG" stroke="none" stroke-width="1" fill="none" fill-rule="evenodd">
        <g id="Grid-Logo" opacity="0.400000006"></g>
        <g transform="translate(135.000000, 81.000000)" id="Shape">
            <path d="M54.9284711,24.914791 C63.1734785,28.698959 77.9770144,13.5622872 58.6762018,3.3450337 C39.3753891,-6.68301137 6.2079732,6.37236807 0.961150345,35.3212529 C-4.28567251,64.4593461 12.5791152,84.3262279 36.1898181,89.8132714 C71.7932589,92.6513974 83.2238373,62.7564705 89.5949793,26.0500414 C90.7192985,22.8334987 92.4057773,21.5090399 94.6544156,21.8874567 C103.274196,21.8874567 111.893976,21.8874567 120.32637,21.8874567 C134.38036,21.8874567 133.818201,0.885324536 122.949782,0.506907741 C109.457952,0.506907741 95.9661213,0.506907741 82.4742911,0.506907741 C79.2887201,0.506907741 75.728376,3.15582531 74.7914434,6.18315967 C70.1067801,22.2658735 65.4221169,38.5377957 60.5500671,54.6205094 C44.8095985,80.1636431 16.8890054,63.7025125 19.1376438,43.6464224 C21.7610552,23.7795406 38.2510699,17.3464551 54.9284711,24.914791 Z" fill="#009045"></path>
            <path d="M89.686073,67.4397821 C99.9201379,67.4397821 110.343722,67.4397821 120.577787,67.4397821 C126.452899,47.4910356 132.32801,27.542289 138.392641,7.59354246 C140.856397,-2.1926351 157.534133,-1.62804793 159.05029,7.59354246 C163.030205,20.3908516 167.010119,33.3763564 170.800513,46.1736655 C174.780427,32.999965 178.760341,19.8262644 182.550736,6.65256385 C184.066893,-1.25165649 200.17607,-3.13361371 203.587425,6.65256385 C209.841575,29.2360505 216.285246,52.0077329 222.539396,74.5912196 C225.950751,89.4586816 209.462536,94.3517704 204.345503,81.742657 C200.555109,68.9453479 196.764715,56.3362345 192.97432,43.5389254 C188.804886,57.4654088 184.445933,71.2036966 180.276499,85.13018 C176.675624,91.5288346 163.030205,91.7170303 160.755968,85.13018 C156.776054,71.0155008 152.22758,56.9008217 148.247666,42.7861425 C144.457272,56.1480388 140.666878,69.6981308 136.876483,83.0600271 C135.360325,86.2593543 132.32801,88.517703 125.5053,88.8940945 C113.755077,88.8940945 100.109658,88.8940945 88.359435,88.8940945 C77.1777715,87.0121372 79.6415278,68.192565 89.686073,67.4397821 Z" fill="#009045"></path>
            <path d="M234.75,0 L238.25,0 C243.111111,0 247,4.50319829 247,9.9445629 L247,78.0554371 C247,83.4968017 243.111111,88 238.25,88 L234.75,88 C229.888889,88 226,83.4968017 226,78.0554371 L226,9.9445629 C226.194444,4.50319829 230.083333,0 234.75,0 Z" fill="#009045"></path>
            <path d="M302.814406,25.2390959 C310.81733,28.4515538 322.170316,19.5700524 315.097964,8.42093363 C281.225121,-15.2000808 247.910622,15.601722 249.027309,42.6241625 C250.330111,63.2216871 256.285775,90.4330957 292.205878,91 C312.86459,91 330.545469,69.4576349 329.987126,61.520974 C329.987126,53.3953451 329.987126,47.1593973 329.987126,39.0337683 C329.801011,36.955119 326.45095,33.553693 321.053629,33.3647248 C309.142299,33.3647248 303.931093,33.3647248 292.019763,33.3647248 C278.247289,33.1757567 275.8278,55.8519306 290.530847,56.2298668 C297.417084,56.2298668 301.325489,56.2298668 308.211727,56.2298668 C305.233894,63.4106552 300.581031,69.4576349 284.947411,67.1900175 C271.547166,61.1430378 267.824876,50.7497914 270.802708,37.7109915 C276.013914,26.5618727 281.59735,16.1686264 302.814406,25.2390959 Z" fill="#009045"></path>
            <path d="M99.1098266,33 L111.890173,33 C117.421965,33 122,37.362069 122,42.5172414 L122,46.4827586 C122,51.8362069 117.421965,56 111.890173,56 L99.1098266,56 C93.5780347,56 89,51.637931 89,46.4827586 L89,42.5172414 C89.1907514,37.362069 93.5780347,33 99.1098266,33 Z" fill="#FEEE00"></path>
        </g>
    </g>
</svg>