<?xml version="1.0" encoding="UTF-8"?>
<svg width="600px" height="250px" viewBox="0 0 600 250" version="1.1" xmlns="http://www.w3.org/2000/svg" xmlns:xlink="http://www.w3.org/1999/xlink">
    <!-- Generator: Sketch 50.1 (55044) - http://www.bohemiancoding.com/sketch -->
    <title>CRFB</title>
    <desc>Created with Sketch.</desc>
    <defs>
        <polygon id="path-1" points="0 0.133594565 44.9696176 0.133594565 44.9696176 52.8366217 0 52.8366217"></polygon>
    </defs>
    <g id="CRFB" stroke="none" stroke-width="1" fill="none" fill-rule="evenodd">
        <g id="Grid-Logo" opacity="0.400000006" transform="translate(0.000000, 1.000000)"></g>
        <g transform="translate(24.000000, 81.000000)">
            <g id="Group-3" transform="translate(0.000000, 13.000000)">
                <mask id="mask-2" fill="white">
                    <use xlink:href="#path-1"></use>
                </mask>
                <g id="Clip-2"></g>
                <path d="M39.3181471,0.614915217 C42.2663824,0.614915217 43.9863824,2.54106196 43.9863824,5.18846957 C43.9863824,7.5942087 43.4963824,10.0002359 43.4963824,12.6476435 C43.4963824,14.5735022 43.9863824,16.4993609 43.9863824,18.4237793 C43.9863824,21.7941761 40.7931471,23.4783663 37.8434412,23.4783663 C33.9116765,23.4783663 31.9452059,21.5525076 32.1919706,17.7022304 C32.1919706,15.5364315 32.4369706,14.5735022 30.9637353,12.8890239 C29.2437353,11.2045457 26.7855,10.723225 24.5740294,10.723225 C15.2357941,10.723225 14.2528529,19.6283772 14.2528529,26.8476109 C14.2528529,34.3047685 15.2357941,42.4918283 24.8190294,42.4918283 C27.0305,42.4918283 29.2437353,42.2467033 30.7166765,40.8041815 C32.4369706,39.1225837 32.4369706,37.68035 32.4369706,35.5093663 C32.4369706,33.8283446 32.4369706,32.3852467 33.4202059,30.936388 C34.4037353,29.4947304 36.1234412,29.0134098 38.0881471,29.0134098 C42.7581471,29.0134098 44.9696176,32.3852467 44.9696176,36.7136761 C44.9696176,47.7863554 34.4037353,52.8366217 24.3272647,52.8366217 C17.6925588,52.8366217 11.0578529,50.910475 6.38814706,45.8607848 C1.96520588,41.2872304 -8.82352941e-05,33.3452957 -8.82352941e-05,26.8476109 C-8.82352941e-05,21.071475 1.22844118,13.8522413 4.42314706,8.79707826 C8.35461765,3.26232283 14.9910882,0.133594565 21.8705,0.133594565 C27.0305,0.133594565 31.2087353,1.81807283 34.6484412,5.42840978 C34.4037353,2.54106196 36.3681471,0.614915217 39.3181471,0.614915217" id="Fill-1" fill="#004F9E" mask="url(#mask-2)"></path>
            </g>
            <path d="M70.5376173,48.4116523 C68.3799038,50.5785774 59.9892422,49.617839 59.9892422,53.4743483 C59.9892422,55.880088 62.1469557,56.8477485 64.0641899,56.8477485 C68.3799038,56.8477485 70.5376173,54.196849 70.5376173,49.8560767 L70.5376173,48.4116523 Z M63.1062902,36.1213541 C63.1062902,39.4944659 59.9892422,40.9409093 56.8704724,40.9409093 C53.5140929,40.9409093 50.3984798,38.2900097 50.3984798,34.6749108 C50.3984798,27.2044561 60.468766,26 65.9828589,26 C69.8187621,26 74.6139998,26.2416988 77.7313348,28.1686556 C82.0467618,30.5792984 82.5265726,34.916898 82.5265726,39.2542092 L82.5265726,52.9906623 C82.5265726,53.9519775 82.2858063,56.3640624 83.7252385,56.3640624 L85.4031413,56.3640624 C87.801621,56.3640624 89,58.2927498 89,60.4593864 C89,64.5552872 84.9236175,66 81.567238,66 C78.2111456,66 74.6139998,64.8001586 73.4156209,61.4207016 C69.8187621,64.5552872 65.5033351,66 60.9485767,66 C54.4734274,66 48,62.3880737 48,55.1581642 C48,37.8080542 70.5376173,46.7214911 70.5376173,37.0841115 C70.5376173,34.4346541 67.9000931,32.9882107 65.5033351,32.9882107 C64.3046692,32.9882107 63.1062902,33.2301979 63.1062902,34.6749108 L63.1062902,36.1213541 Z" id="Fill-4" fill="#004F9E"></path>
            <path d="M99.1093935,40.5327659 C99.1093935,39.5635282 99.3538165,35.4468052 97.8840508,35.4468052 C97.1472607,35.4468052 96.412818,35.9309891 95.431605,35.9309891 C92.9809197,35.9309891 92,33.9928038 92,31.8125265 C92,29.1477753 93.2253427,26.7262759 95.6777885,26.7262759 C97.8840508,26.967788 99.3538165,27.4525518 100.825343,27.4525518 C102.540998,27.4525518 104.012818,26.967788 105.728474,26.7262759 C107.93503,26.7262759 108.18092,28.1785377 108.18092,29.8755009 L108.18092,35.4468052 C109.406262,29.3907371 113.81908,26 120.193738,26 C125.341292,26 130,29.8755009 130,35.2032636 C130,38.8372524 127.547848,42.4715311 123.625343,42.4715311 C120.682584,42.4715311 118.476321,40.5327659 118.476321,37.6267926 C118.476321,36.6569751 118.722211,35.6880274 119.212818,34.7205293 C110.877789,34.2354756 110.631898,45.3806936 110.631898,51.1900309 C110.631898,52.1624577 110.387182,56.2797606 112.103131,56.2797606 C112.838161,56.2797606 113.572897,55.7929673 114.55411,55.7929673 C117.006262,55.7929673 117.741292,57.7323124 117.741292,59.9102702 C117.741292,62.8211724 116.515949,65 114.063503,65 C110.141292,65 107.2,64.2737241 104.012818,64.2737241 C101.315949,64.2737241 98.3746573,65 95.6777885,65 C93.2253427,65 92,62.8211724 92,59.9102702 C92,57.7323124 92.9809197,55.7929673 95.431605,55.7929673 C96.412818,55.7929673 97.1472607,56.2797606 97.8840508,56.2797606 C99.3538165,56.2797606 99.1093935,52.1624577 99.1093935,51.1900309 L99.1093935,40.5327659 Z" id="Fill-6" fill="#004F9E"></path>
            <path d="M140.111393,40.5327659 C140.111393,39.5635282 140.355814,35.4468052 138.884299,35.4468052 C137.904854,35.4468052 137.168363,35.9309891 136.433339,35.9309891 C133.980912,35.9309891 133,33.9928038 133,31.8125265 C133,29.1477753 134.227094,26.7262759 136.679814,26.7262759 C138.884299,26.967788 140.355814,27.4525518 141.827035,27.4525518 C143.542971,27.4525518 145.014486,26.967788 146.730422,26.7262759 C148.936667,26.7262759 148.936667,28.1785377 148.936667,29.8755009 L148.936667,35.4468052 C150.406421,29.3907371 154.819205,26 161.193813,26 C166.341328,26 171,29.8755009 171,35.2032636 C171,38.8372524 168.549334,42.4715311 164.625392,42.4715311 C161.684416,42.4715311 159.233456,40.5327659 159.233456,37.6267926 C159.233456,36.6569751 159.723766,35.6880274 160.214662,34.7205293 C151.877936,34.2354756 151.633515,45.3806936 151.633515,51.1900309 C151.633515,52.1624577 151.387627,56.2797606 153.103269,56.2797606 C153.83976,56.2797606 154.576545,55.7929673 155.555696,55.7929673 C158.008123,55.7929673 158.742854,57.7323124 158.742854,59.9102702 C158.742854,62.8211724 157.51752,65 155.065094,65 C151.143206,65 148.200176,64.2737241 145.014486,64.2737241 C142.317931,64.2737241 139.376369,65 136.679814,65 C134.227094,65 133,62.8211724 133,59.9102702 C133,57.7323124 133.980912,55.7929673 136.433339,55.7929673 C137.168363,55.7929673 137.904854,56.2797606 138.884299,56.2797606 C140.355814,56.2797606 140.111393,52.1624577 140.111393,51.1900309 L140.111393,40.5327659 Z" id="Fill-8" fill="#004F9E"></path>
            <path d="M194.998614,39.9767098 C196.249902,39.9767098 197.499394,40.2169665 197.499394,38.7705231 C197.499394,37.5657786 196.748382,36.3616108 195.998866,35.6391102 C194.749374,34.6746223 193.499882,34.1929553 191.999654,34.1929553 C189.74961,34.1929553 188.249382,34.6746223 186.75035,36.1210657 C186.001134,36.8432779 184.749846,38.0480225 184.749846,39.0122219 C184.749846,40.2169665 187.248831,39.9767098 187.999843,39.9767098 L194.998614,39.9767098 Z M187.999843,47.9279663 C186.499614,47.9279663 184.498811,47.4437034 184.498811,49.6175506 C184.498811,53.7128745 187.999843,56.8477485 192.25039,56.8477485 C198.749185,56.8477485 198.248909,51.061975 204.25072,51.061975 C206.998945,51.061975 209.248689,52.7457908 209.248689,55.6415618 C209.248689,58.7761474 206.749705,61.4207016 204.25072,63.1105743 C200.50015,65.2774994 196.249902,66 191.999654,66 C179.750083,66 172,58.0473014 172,46.2441504 C172,34.6746223 179.500843,26 191.750413,26 C196.249902,26 201.249665,26.9641994 204.499961,29.8553557 C208.248437,32.9882107 210,38.0480225 210,42.6273209 C210,46.966651 209.499724,47.9279663 204.999937,47.9279663 L187.999843,47.9279663 Z" id="Fill-10" fill="#004F9E"></path>
            <path d="M228.72418,51.2118383 C228.72418,52.1827296 228.477069,56.2935308 230.201544,56.2935308 C230.9417,56.2935308 231.681856,55.8075062 232.666175,55.8075062 C235.130807,55.8075062 235.869193,57.7434994 235.869193,59.9183075 C235.869193,62.824613 234.637762,65 231.434449,65 C228.231431,65 225.275525,64.274871 222.318144,64.274871 C219.361943,64.274871 216.651969,65 214.187042,65 C211.231431,65 210,62.824613 210,59.9183075 C210,57.7434994 210.738387,55.8075062 213.201544,55.8075062 C214.187042,55.8075062 214.925724,56.2935308 215.666175,56.2935308 C217.390356,56.2935308 217.144718,52.1827296 217.144718,51.2118383 L217.144718,37.9108591 C217.144718,35.2503159 217.144718,35.0091852 214.680382,35.0091852 C211.72418,35.0091852 210,34.2840562 210,31.1398042 C210,27.9955521 211.231431,26.7867143 214.187042,26.7867143 C216.406331,26.7867143 217.144718,27.027845 217.144718,24.3670124 C217.390356,16.3874091 224.535369,13 231.925724,13 C234.392125,13 237.348031,13.4837088 239.565256,14.6928361 C242.028118,15.9034108 244,18.3210864 244,21.2227603 C244,24.3670124 241.78248,26.7867143 238.333825,26.7867143 C235.869193,26.7867143 233.406331,25.0935887 233.406331,22.4315982 C233.406331,21.7064692 233.651969,21.2227603 233.897606,20.4976313 C233.406331,20.2550532 233.158925,20.2550532 232.420538,20.2550532 C229.709974,20.2550532 228.72418,21.9493367 228.72418,24.3670124 C228.72418,26.7867143 228.970113,26.7867143 231.434449,26.7867143 C234.392125,26.7867143 236.609644,27.027845 236.609644,30.6558059 C236.609644,34.0417676 235.130807,35.0091852 231.925724,35.0091852 C228.970113,35.0091852 228.72418,34.7680545 228.72418,37.9108591 L228.72418,51.2118383 Z" id="Fill-12" fill="#004F9E"></path>
            <path d="M257.747733,35.1570887 C251.57701,35.1570887 250.095339,41.1810565 250.095339,45.9988463 C250.095339,50.3401641 251.57701,56.8478145 257.006159,56.8478145 C259.72162,56.8478145 261.943092,56.1253191 263.176882,53.7129631 C264.410672,51.3008955 264.906434,48.4117791 264.906434,45.9988463 C264.906434,41.1810565 263.670576,35.1570887 257.747733,35.1570887 M277,45.5217974 C277,57.5700215 270.831049,66 257.747733,66 C244.910525,66 238,58.2925169 238,45.9988463 C238,33.4706892 244.910525,26 257.747733,26 C269.843367,26 277,33.7109441 277,45.5217974" id="Fill-14" fill="#004F9E"></path>
            <path d="M282.177729,41.0739756 C282.177729,40.08596 282.425983,35.88948 280.69354,35.88948 C279.952038,35.88948 279.209943,36.3830444 278.219891,36.3830444 C275.74328,36.3830444 275,34.4073089 275,32.1847911 C275,29.4684134 276.238602,27 281.932438,27 C283.416628,27.2461911 284.900521,27.7403467 286.632964,27.7403467 C288.368666,27.7403467 290.097257,27.2461911 291.833552,27 C294.307497,27 293.81099,29.2222222 293.81099,31.1967756 L293.81099,48.9772133 C293.81099,50.4573155 293.81099,53.1736933 294.801042,54.6543867 C295.543136,55.8900711 297.27943,56.8813376 299.011281,56.8813376 C301.237269,56.8813376 303.217966,55.8900711 304.453309,53.91404 C305.940461,51.4488777 306.18901,48.9772133 306.18901,46.26054 L306.18901,41.0739756 C306.18901,40.08596 306.434302,35.88948 304.701562,35.88948 C303.96006,35.88948 303.217966,36.3830444 302.227913,36.3830444 C299.753079,36.3830444 299.011281,34.4073089 299.011281,32.1847911 C299.011281,29.4684134 300.246328,27 305.446916,27 C306.931105,27.2461911 308.414998,27.7403467 310.147441,27.7403467 C311.879884,27.7403467 313.611735,27.2461911 315.34477,27 C318.066969,27 317.822271,28.7280667 317.822271,30.7043933 L317.822271,51.9377133 C317.822271,52.9289799 317.573424,57.126051 319.057614,57.126051 C319.803263,57.126051 320.544766,56.6298267 321.532152,56.6298267 C324.009652,56.6298267 325,58.6067444 325,60.8268978 C325,63.7941954 323.512848,66.0152355 320.544766,66.0152355 C318.564365,66.0152355 316.831922,65.2748888 315.099479,65.2748888 C313.611735,65.2748888 311.879884,66.0152355 310.395695,66.0152355 C307.672904,66.0152355 307.672904,63.5435711 307.672904,62.0628777 L307.672904,60.5821844 C304.950112,64.7792555 299.504826,67 294.556343,67 C290.594653,67 286.139419,65.5193066 283.910172,62.3075911 C281.932438,59.1023777 282.177729,54.6543867 282.177729,50.9532444 L282.177729,41.0739756 Z" id="Fill-16" fill="#004F9E"></path>
            <path d="M334.155658,40.5327659 C334.155658,39.5635282 334.403138,35.4468052 332.676094,35.4468052 C331.936311,35.4468052 331.196529,35.9309891 330.209858,35.9309891 C327.743031,35.9309891 327,33.9928038 327,31.8125265 C327,29.1477753 328.234742,26.7262759 330.701569,26.7262759 C332.923574,26.967788 334.403138,27.4525518 335.885656,27.4525518 C337.6127,27.4525518 339.092265,26.967788 340.818719,26.7262759 C343.041019,26.7262759 343.041019,28.1785377 343.041019,29.8755009 L343.041019,35.4468052 C344.520583,29.3907371 348.961935,26 355.377515,26 C360.558649,26 365,29.8755009 365,35.2032636 C365,38.8372524 362.777405,42.4715311 358.584124,42.4715311 C355.869522,42.4715311 353.402991,40.5327659 353.402991,37.6267926 C353.402991,36.6569751 353.894997,35.6880274 354.390843,34.7205293 C345.999852,34.2354756 345.752372,45.3806936 345.752372,51.1900309 C345.752372,52.1624577 345.507845,56.2797606 347.23489,56.2797606 C347.974082,56.2797606 348.714454,55.7929673 349.701717,55.7929673 C352.167953,55.7929673 352.911279,57.7323124 352.911279,59.9102702 C352.911279,62.8211724 351.676241,65 349.20971,65 C345.01259,65 342.053756,64.2737241 339.092265,64.2737241 C336.377663,64.2737241 333.415581,65 330.701569,65 C328.234742,65 327,62.8211724 327,59.9102702 C327,57.7323124 327.743031,55.7929673 330.209858,55.7929673 C331.196529,55.7929673 331.936311,56.2797606 332.676094,56.2797606 C334.403138,56.2797606 334.155658,52.1624577 334.155658,51.1900309 L334.155658,40.5327659 Z" id="Fill-18" fill="#004F9E"></path>
            <path d="M550,45.6192793 C550,46.3501385 549.267626,47.0815816 549.267626,47.0815816 L508.961058,87.0957578 C507.493387,88.7992466 506.51952,87.826617 507.0066,86.605501 C507.983682,84.6532339 509.448137,82.4594883 510.916393,77.5814485 C513.112929,70.5038232 513.112929,64.6464378 512.135261,61.2315763 C511.40318,58.0646172 507.493387,51.4760806 498.944935,51.4760806 C487.954653,51.4760806 484.777233,61.4791867 485.02282,65.1361106 C485.267529,67.5780504 485.02282,71.2352664 488.928812,74.6498359 C491.860938,77.0917757 494.548062,76.3603326 495.28102,76.1191461 C496.012809,76.1191461 497.48048,75.1395086 497.48048,77.5814485 C497.48048,80.2651588 495.038942,83.6806043 493.570687,85.3846771 C491.860938,86.8539873 486.487567,91 478.670904,91 C474.028737,91 468.412703,89.0474409 464.503202,84.4117555 C461.570784,80.996602 459.616034,77.0917757 457.906285,71.4828767 C454.487372,61.2315763 454,53.6701182 454,45.6192793 C454,38.3010515 454.732081,30.2513806 457.906285,20.0047521 C459.373663,14.6376235 462.06108,9.7566637 464.503202,6.58678458 C468.167409,1.95051516 474.028737,0 478.670904,0 C486.487567,0 491.860938,4.14601269 493.570687,5.85358943 C495.038942,7.31793577 497.48048,10.7327973 497.48048,13.6611979 C497.48048,15.8566955 496.012809,14.8808539 495.28102,14.8808539 C494.548062,14.6376235 491.860938,13.9061803 488.928812,16.3449082 C485.02282,19.7600617 485.267529,23.663136 485.02282,25.8589255 C484.777233,29.7634598 487.954653,39.5221674 498.944935,39.5221674 C507.493387,39.5221674 511.40318,33.1786133 512.135261,29.7634598 C513.112929,26.3483063 513.112929,20.4915049 510.916393,13.6611979 C509.448137,8.53729974 507.983682,6.58678458 507.0066,4.39099506 C506.51952,3.4145695 507.493387,2.19549753 508.961058,3.90278228 L549.267626,43.9131625 C549.267626,43.9131625 550,44.6460656 550,45.6192793" id="Fill-20" fill="#004F9E"></path>
            <path d="M402,45.5005093 C402,46.485622 402.973782,47.2237935 402.973782,47.2237935 L445.693116,88.5870363 C446.914653,89.5686129 447.159487,88.5870363 446.914653,87.8494541 C446.66982,87.3549824 446.424402,87.1109879 445.206371,85.1410571 C433.48826,68.1525035 433.733385,45.5005093 433.733385,45.5005093 C433.733385,45.5005093 433.48826,22.8482204 445.206371,6.1071973 C446.424402,4.13667714 446.66982,3.891504 446.914653,3.15333247 C447.159487,2.41368754 446.914653,1.43034287 445.693116,2.41368754 L402.973782,43.777225 C402.973782,43.777225 402,44.5168699 402,45.5005093" id="Fill-22" fill="#E20714"></path>
        </g>
    </g>
</svg>