<?xml version="1.0" encoding="UTF-8"?>
<svg width="600px" height="250px" viewBox="0 0 600 250" version="1.1" xmlns="http://www.w3.org/2000/svg" xmlns:xlink="http://www.w3.org/1999/xlink">
    <!-- Generator: Sketch 50.1 (55044) - http://www.bohemiancoding.com/sketch -->
    <title>CSAN</title>
    <desc>Created with Sketch.</desc>
    <defs></defs>
    <g id="CSAN" stroke="none" stroke-width="1" fill="none" fill-rule="evenodd">
        <g id="Grid-Logo" opacity="0.400000006" transform="translate(1.000000, 0.000000)"></g>
        <g id="CSAN3" transform="translate(95.000000, 64.000000)">
            <g id="Group">
                <path d="M97.2340541,3.60336134 L86.1567568,36.5176471 C26.8637838,36.2487395 30.5027027,114.231933 78.6648649,117.727731 C82.1432432,117.996639 83.8556757,117.512605 79.2,117.889076 C61.7010811,117.781513 48.6972973,111.865546 39.3859459,103.152941 C24.9908108,89.6 18.1945946,67.9260504 20.9772973,48.4033613 C23.4389189,31.2470588 33.2318919,15.9193277 49.8745946,6.72268908 C63.0389189,-0.484033613 79.092973,-2.09747899 97.2340541,3.60336134 Z" id="Shape" fill="#A2BF5B"></path>
                <path d="M8.66918919,20.9210084 L26.0610811,31.7310924 C23.5459459,36.9478992 21.8335135,42.594958 21.0308108,48.4033613 C18.2481081,67.8722689 25.0443243,89.6 39.4394595,103.152941 C48.6972973,111.811765 61.6475676,117.727731 78.9859459,117.889076 C82.1432432,117.889076 84.5513514,117.405042 87.7086486,116.759664 C89.207027,116.436975 90.9194595,116.114286 92.7924324,115.737815 C84.4443243,119.233613 76.3637838,120.578151 68.7648649,120.470588 C48.8043243,120.255462 29.592973,110.090756 17.2848649,94.4941176 C9.15081081,84.2218487 3.90648649,71.7445378 2.62216216,58.5142857 C1.33783784,45.8756303 3.63891892,33.2907563 8.66918919,20.9210084 Z" id="Shape" fill="#0092CE"></path>
                <path d="M11.0772973,85.189916 L0,91.7512605 C15.0372973,119.233613 57.2594595,141.122689 98.892973,118.319328 L96.8059459,114.12437 L90.0632432,116.27563 C90.9194595,116.114286 91.8827027,115.89916 92.8459459,115.684034 C84.4978378,119.179832 76.4172973,120.52437 68.8183784,120.416807 C48.8578378,120.201681 29.6464865,110.036975 17.3383784,94.4403361 C14.9837838,91.589916 12.8967568,88.4705882 11.0772973,85.189916 Z" id="Shape" fill="#0076AF"></path>
            </g>
            <g id="Group" transform="translate(112.000000, 58.000000)" fill="#0076AF">
                <path d="M50.5591474,41.4651271 L56.7728242,53.2663276 C50.8777975,60.3470479 40.8403197,63.4046317 32.4492007,63.619199 C20.9777975,63.8874081 11.0465364,58.5768678 4.77975133,48.4385638 C1.91190053,43.7180836 0.371758437,38.4075434 0.318650089,32.3996595 C0.318650089,26.4990593 1.75257549,21.0812354 4.62042629,16.1461879 C7.48827709,11.2111405 11.4182948,7.40257121 16.3573712,4.55955473 C21.2964476,1.71653825 26.6603908,0.321850922 32.4492007,0.321850922 C38.6097691,0.321850922 45.8325044,1.44832915 55.4451155,9.70916949 L48.0630551,21.5640118 C41.5838366,15.6097697 34.9984014,13.732306 28.7847247,15.4488443 C22.9428064,17.0044571 16.9415631,21.9931463 16.8353464,31.3804649 C16.7291297,38.4611852 19.5438721,44.4690691 25.8637655,47.9021456 C33.6175844,52.0325658 44.0268206,48.1167129 50.5591474,41.4651271 Z" id="Shape" fill-rule="nonzero"></path>
                <path d="M129.425044,54.5537313 L136.860213,42.4306799 C143.71119,48.5994893 148.703375,49.2968329 151.730551,49.2968329 C154.439076,49.2968329 159.962345,48.7067729 159.165719,44.5227109 C158.847069,42.7525308 156.828952,41.6260526 155.28881,40.7677835 C148.012966,36.7982888 141.958615,36.1009451 135.851155,29.9857776 C133.195737,27.3573284 131.390053,23.3341919 131.390053,19.4719808 C131.390053,13.732306 133.248845,9.28003492 137.763055,5.73967478 C142.277265,2.19931463 147.322558,0.268209102 154.704618,0.268209102 C161.661812,0.268209102 169.415631,2.8966583 174.56714,7.77806395 L168.406572,20.598459 C163.786146,15.6634115 156.191652,14.2687242 152.580284,14.9660679 C150.084192,15.4488443 147.959858,16.3607552 147.90675,19.096488 C147.853641,22.3686391 155.554352,24.9434465 157.891119,25.9089992 C162.564654,27.8401048 166.972647,29.5030012 171.274423,33.9552723 C173.982948,36.7446469 175.151332,40.3386489 175.151332,44.6836364 C175.151332,50.5305948 173.770515,54.7146568 169.309414,58.1477333 C164.795204,61.5808098 160.652753,63.4582735 153.005151,63.4582735 C146.950799,63.4582735 141.746181,62.3317953 137.497513,60.0788388 C133.142629,57.933166 131.868028,57.0748969 129.425044,54.5537313 Z" id="Shape" fill-rule="nonzero"></path>
                <path d="M230.861989,62.2781534 L216.469627,62.2781534 L216.469627,55.841135 C214.929485,58.1477333 212.964476,59.8106297 210.840142,60.9907498 C204.520249,64.5311099 195.651155,64.799319 189.384369,61.205317 C185.454352,58.9523606 182.852043,55.5192841 181.471226,51.7643567 C176.903908,39.6413052 183.542451,30.146703 194.907638,26.2308502 C201.439964,23.9778937 209.193783,23.1732664 215.301243,23.9242519 C215.248135,14.322366 207.866075,14.3760079 203.617407,14.8051424 C197.244405,15.3952024 192.199112,18.6137117 189.70302,20.3302499 L183.542451,8.58269126 C190.180995,3.11122558 198.200355,0.590060024 206.857016,0.590060024 C215.619893,0.590060024 221.461812,2.52116556 226.98508,9.33367674 C228.525222,11.2111405 229.587389,13.3031715 230.171581,15.6634115 C230.755773,18.0236516 230.915098,20.008399 230.915098,24.4070283 L230.915098,62.2781534 L230.861989,62.2781534 Z M215.40746,35.5108851 C212.486501,35.9400196 209.406217,35.6718105 206.432149,36.1545869 C202.395915,36.7982888 196.872647,38.7293943 196.12913,42.698889 C195.969805,43.7180836 195.969805,45.0054873 196.553996,46.2392492 C197.987922,49.2431911 200.749556,50.6378784 203.617407,50.5842366 C210.787034,50.5842366 215.513677,41.7333362 215.40746,35.5108851 Z" id="Shape" fill-rule="nonzero"></path>
                <path d="M298.946892,62.3854371 L282.961279,62.3854371 L282.961279,31.3268231 C282.961279,29.7712103 283.014387,28.2692393 283.014387,26.874552 C283.014387,22.3149973 282.908171,18.2918607 279.243694,16.6289643 C277.915986,16.0389043 275.632327,15.7706952 273.826643,15.9316206 C263.94849,16.8435316 259.859147,25.5871483 259.859147,34.8135414 L259.859147,62.3854371 L243.873535,62.3854371 L243.873535,1.50197097 L258.690764,1.50197097 L258.690764,10.460155 C263.94849,3.59400196 270.640142,0.107283641 278.606394,0.107283641 C282.111545,0.107283641 285.351155,0.750985485 288.272114,2.03838917 C291.193073,3.32579286 293.423623,4.93504747 294.910657,6.97343665 C296.397691,8.958184 297.459858,11.2111405 298.04405,13.732306 C298.628242,16.2534716 298.946892,19.8474735 298.946892,24.5679537 L298.946892,62.3854371 Z" id="Shape" fill-rule="nonzero"></path>
                <path d="M93.1520426,0.536418204 C110.784014,0.536418204 125.123268,14.6978588 125.123268,32.1850922 C125.123268,49.6723257 110.837123,63.8337662 93.1520426,63.8337662 C75.520071,63.8337662 61.1808171,49.6723257 61.1808171,32.1850922 C61.1808171,14.6978588 75.520071,0.536418204 93.1520426,0.536418204 Z M93.1520426,14.9660679 C102.021137,14.9660679 109.243872,22.69049 109.243872,32.1850922 C109.243872,41.6796944 102.021137,49.4041166 93.1520426,49.4041166 C84.2829485,49.4041166 77.0602131,41.6796944 77.0602131,32.1850922 C77.0602131,22.6368482 84.2298401,14.9660679 93.1520426,14.9660679 Z" id="Shape"></path>
            </g>
        </g>
    </g>
</svg>