<?xml version="1.0" encoding="UTF-8"?>
<svg width="600px" height="250px" viewBox="0 0 600 250" version="1.1" xmlns="http://www.w3.org/2000/svg" xmlns:xlink="http://www.w3.org/1999/xlink">
    <!-- Generator: Sketch 50.1 (55044) - http://www.bohemiancoding.com/sketch -->
    <title>CSNA</title>
    <desc>Created with Sketch.</desc>
    <defs></defs>
    <g id="CSNA" stroke="none" stroke-width="1" fill="none" fill-rule="evenodd">
        <g id="Grid-Logo" opacity="0.400000006"></g>
        <g id="CSNA3" transform="translate(114.000000, 71.000000)">
            <path d="M223.786408,45.1296296 C222.702265,38.5277778 217.281553,34.9074074 209.692557,34.9074074 C197.983819,34.9074074 193.430421,44.7037037 193.430421,54.5 C193.430421,64.2962963 197.983819,74.0925926 209.692557,74.0925926 C218.148867,74.0925926 223.135922,69.4074074 223.786408,61.9537037 L242,61.9537037 C240.915858,78.9907407 227.68932,89 209.909385,89 C188.660194,89 175,73.6666667 175,54.5 C175,35.3333333 188.660194,20 209.909385,20 C225.087379,20 241.349515,29.1574074 242,44.9166667 L223.786408,44.9166667 L223.786408,45.1296296 Z" id="Shape" fill="#000000" fill-rule="nonzero"></path>
            <path d="M264.72242,65.2215385 C265.149466,73.0769231 270.060498,75.4123077 277.747331,75.4123077 C283.085409,75.4123077 288.850534,73.5015385 288.850534,68.6184615 C288.850534,62.8861538 279.02847,61.6123077 268.992883,59.0646154 C259.170819,56.3046154 248.921708,52.0584615 248.921708,39.9569231 C248.921708,25.52 264.081851,20 277.106762,20 C290.772242,20 304.651246,26.3692308 304.651246,41.2307692 L286.715302,41.2307692 C286.928826,35.2861538 281.163701,33.3753846 275.6121,33.3753846 C271.768683,33.3753846 266.857651,34.6492308 266.857651,39.1076923 C266.857651,44.2030769 276.893238,45.0523077 286.928826,47.8123077 C296.964413,50.5723077 307,54.8184615 307,66.92 C307,83.6923077 292.053381,89 276.893238,89 C261.092527,89 247,82.4184615 247,65.4338462 L264.72242,65.4338462 L264.72242,65.2215385 Z" id="Shape" fill="#000000" fill-rule="nonzero"></path>
            <polygon id="Shape" fill="#000000" fill-rule="nonzero" points="312 21 330.251799 21 354.021583 61.6645161 354.233813 61.6645161 354.233813 21 371 21 371 87 352.748201 87 328.978417 45.9096774 328.766187 45.9096774 328.766187 87 312 87"></polygon>
            <polygon id="Shape" fill="#004E94" points="175 0 370 0 370 3 175 3"></polygon>
            <polygon id="Shape" fill="#004E94" points="175 106 370 106 370 109 175 109"></polygon>
            <path d="M7.78064516,65 C3.45806452,65 0,61.7378641 0,57.6601942 L0,51.3398058 C0,47.2621359 3.45806452,44 7.78064516,44 L59.2193548,44 C63.5419355,44 67,47.2621359 67,51.3398058 L67,57.4563107 C67,61.5339806 63.5419355,64.7961165 59.2193548,64.7961165 L7.78064516,64.7961165 L7.78064516,65 Z" id="Shape" fill="#004E94"></path>
            <path d="M95.7806452,65 C91.4580645,65 88,61.7378641 88,57.6601942 L88,51.3398058 C88,47.2621359 91.4580645,44 95.7806452,44 L147.219355,44 C151.541935,44 155,47.2621359 155,51.3398058 L155,57.6601942 C155,61.7378641 151.541935,65 147.219355,65 L95.7806452,65 Z" id="Shape" fill="#004E94"></path>
            <path d="M49.8004922,108 C47.0894163,108 44.5868847,106.766427 43.1270746,104.299282 L26.4435305,75.7215124 C26.2349862,75.3103214 26.0264419,75.104726 26.0264419,74.6935351 C25.8178976,73.0487714 26.8606191,71.4040077 28.5289735,71.1984122 L41.8758088,69.1424576 C44.795429,68.7312666 47.7150492,70.1704349 48.966315,72.431985 L56.6824541,85.5900946 C57.0995427,86.206881 57.7251756,86.6180719 58.5593529,86.6180719 L93.3862511,86.6180719 C94.2204283,86.6180719 94.8460612,86.206881 95.2631498,85.5900946 L102.979289,72.431985 C104.439099,69.9648394 107.150175,68.5256712 110.069795,69.1424576 L123.41663,71.1984122 C125.084985,71.4040077 126.336251,73.0487714 125.919162,74.6935351 C125.919162,75.104726 125.710618,75.5159169 125.502073,75.7215124 L108.818529,104.299282 C107.358719,106.766427 104.856188,108 102.145112,108 L49.8004922,108 Z" id="Shape" fill="#004E94"></path>
            <path d="M49.8004922,0 C47.0894163,0 44.5868847,1.24550514 43.1270746,3.73651542 L26.4435305,33.2134704 C26.2349862,33.6286387 26.0264419,33.8362229 26.0264419,34.2513913 C25.8178976,35.9120648 26.8606191,37.5727383 28.5289735,37.7803225 L41.8758088,39.8561644 C44.795429,40.2713328 47.7150492,38.8182435 48.966315,36.5348174 L56.6824541,22.8342609 C57.0995427,22.2115083 57.7251756,21.7963399 58.5593529,21.7963399 L93.3862511,21.7963399 C94.2204283,21.7963399 94.8460612,22.2115083 95.2631498,22.8342609 L102.979289,36.5348174 C104.439099,39.0258277 107.150175,40.478917 110.069795,39.8561644 L123.41663,37.7803225 C125.084985,37.5727383 126.336251,35.9120648 125.919162,34.2513913 C125.919162,33.8362229 125.710618,33.4210546 125.502073,33.2134704 L108.818529,3.73651542 C107.358719,1.24550514 104.856188,1.29060258e-14 102.145112,1.29060258e-14 L49.8004922,1.29060258e-14 Z" id="Shape" fill="#004E94"></path>
        </g>
    </g>
</svg>