<?xml version="1.0" encoding="UTF-8"?>
<svg width="600px" height="250px" viewBox="0 0 600 250" version="1.1" xmlns="http://www.w3.org/2000/svg" xmlns:xlink="http://www.w3.org/1999/xlink">
    <!-- Generator: Sketch 50.1 (55044) - http://www.bohemiancoding.com/sketch -->
    <title>CYRE</title>
    <desc>Created with Sketch.</desc>
    <defs></defs>
    <g id="CYRE" stroke="none" stroke-width="1" fill="none" fill-rule="evenodd">
        <g id="Grid-Logo" opacity="0.400000006"></g>
        <g id="CYRE3" transform="translate(75.000000, 60.000000)">
            <g id="Group" transform="translate(109.000000, 36.000000)" fill="#000000" fill-rule="nonzero">
                <path d="M47.1777778,13.9243243 C43.7555556,10.6918919 38.1333333,8.7027027 32.5111111,8.7027027 C18.8222222,8.7027027 9.77777778,16.9081081 9.77777778,27.3513514 C9.77777778,37.0486486 18.3333333,45.0054054 32.5111111,45.0054054 C39.6,45.0054054 44.7333333,42.7675676 48.4,38.7891892 L55.4888889,42.7675676 C53.7777778,44.7567568 46.4444444,50.7243243 32.2666667,50.7243243 C12.9555556,50.7243243 0.733333333,38.5405405 0.733333333,27.1027027 C0.733333333,12.9297297 13.6888889,2.73513514 32.5111111,2.73513514 C40.5777778,2.73513514 48.8888889,4.97297297 54.0222222,9.6972973 L47.1777778,13.9243243 Z" id="Shape"></path>
                <polygon id="Shape" points="79.4444444 28.3459459 55 1.49189189 66.2444444 1.49189189 83.8444444 22.1297297 101.933333 1.49189189 112.688889 1.49189189 88.2444444 28.3459459 88.2444444 51.7189189 79.4444444 51.7189189 79.4444444 28.3459459"></polygon>
                <path d="M118.311111,2.48648649 L147.888889,2.48648649 C164.511111,2.48648649 168.666667,10.1945946 168.666667,16.6594595 C168.666667,23.1243243 161.577778,29.5891892 151.8,30.3351351 L171.111111,52.9621622 L160.111111,52.9621622 L140.311111,30.5837838 L127.111111,30.5837838 L127.111111,52.9621622 L118.311111,52.9621622 L118.311111,2.48648649 Z M127.111111,24.8648649 L145.444444,24.8648649 C152.288889,24.8648649 159.377778,23.6216216 159.377778,16.6594595 C159.377778,9.6972973 152.533333,8.45405405 145.444444,8.45405405 L127.111111,8.45405405 L127.111111,24.8648649 Z" id="Shape"></path>
                <polygon id="Shape" points="175.266667 1.24324324 219.266667 1.24324324 219.266667 7.70810811 183.822222 7.70810811 183.822222 22.8756757 219.266667 22.8756757 219.266667 29.3405405 183.822222 29.3405405 183.822222 45.5027027 220.977778 45.5027027 220.977778 51.9675676 175.266667 51.9675676 175.266667 1.24324324"></polygon>
                <polygon id="Shape" points="227.822222 1.24324324 236.622222 1.24324324 236.622222 43.2648649 273.044444 43.2648649 273.044444 51.7189189 227.822222 51.7189189"></polygon>
                <path d="M306.044444,0.994594595 L313.622222,0.994594595 L340.266667,51.4702703 L330.488889,51.4702703 L324.133333,41.2756757 L294.555556,41.2756757 L288.688889,51.4702703 L278.911111,51.4702703 L306.044444,0.994594595 Z M321.2,33.0702703 L309.711111,9.94594595 L309.466667,9.94594595 L297.733333,33.0702703 L321.2,33.0702703 Z" id="Shape"></path>
                <path d="M9.28888889,60.172973 C12.7111111,60.172973 15.1555556,60.172973 17.3555556,61.6648649 C19.3111111,62.9081081 20.5333333,65.1459459 20.5333333,67.3837838 C20.5333333,69.8702703 19.3111111,73.6 13.4444444,75.0918919 C14.9111111,75.3405405 16.3777778,75.3405405 18.3333333,76.5837838 C20.5333333,78.0756757 21.7555556,80.3135135 21.7555556,82.8 C21.7555556,86.0324324 20.0444444,88.5189189 18.0888889,89.7621622 C15.8888889,91.2540541 13.6888889,91.7513514 8.06666667,91.7513514 L1.22222222,91.7513514 L1.22222222,60.172973 L9.28888889,60.172973 Z M7.57777778,74.3459459 C9.04444444,74.3459459 11.7333333,74.3459459 13.4444444,73.6 C15.6444444,72.3567568 16.3777778,69.8702703 16.3777778,67.8810811 C16.3777778,66.8864865 16.1333333,64.6486486 14.4222222,63.4054054 C12.9555556,62.4108108 11.2444444,62.1621622 8.31111111,62.1621622 L4.88888889,62.1621622 L4.88888889,74.0972973 L7.57777778,74.0972973 L7.57777778,74.3459459 Z M8.55555556,89.7621622 C10.2666667,89.7621622 12.9555556,89.7621622 14.6666667,88.7675676 C16.8666667,87.2756757 17.3555556,84.5405405 17.3555556,83.0486486 C17.3555556,81.8054054 17.1111111,79.3189189 14.9111111,77.827027 C13.2,76.5837838 11.2444444,76.5837838 7.57777778,76.5837838 L4.88888889,76.5837838 L4.88888889,89.7621622 L8.55555556,89.7621622 Z" id="Shape"></path>
                <path d="M39.6,59.9243243 C43.0222222,59.9243243 45.7111111,59.9243243 48.4,61.4162162 C52.0666667,63.1567568 52.3111111,66.3891892 52.3111111,67.6324324 C52.3111111,71.1135135 50.1111111,75.3405405 42.7777778,76.5837838 L55.2444444,91.7513514 L50.1111111,91.7513514 L38.6222222,76.8324324 L36.1777778,76.8324324 L36.1777778,91.7513514 L31.7777778,91.7513514 L31.7777778,59.9243243 L39.6,59.9243243 Z M36.1777778,62.1621622 L36.1777778,75.0918919 L38.6222222,75.0918919 C41.8,75.0918919 47.6666667,75.0918919 47.6666667,68.1297297 C47.6666667,62.1621622 42.7777778,62.1621622 39.1111111,62.1621622 L36.1777778,62.1621622 Z" id="Shape"></path>
                <path d="M74.3111111,60.172973 L86.5333333,92 L81.8888889,92 L77.4888889,80.3135135 L66.4888889,80.3135135 L62.3333333,92 L59.1555556,92 L71.3777778,60.4216216 L74.3111111,60.4216216 L74.3111111,60.172973 Z M67.2222222,78.3243243 L76.7555556,78.3243243 L72.1111111,65.3945946 L67.2222222,78.3243243 Z" id="Shape"></path>
                <polygon id="Shape" points="115.377778 60.6702703 115.377778 62.4108108 96.5555556 89.5135135 116.6 89.5135135 116.6 92 91.1777778 92 91.1777778 90.2594595 110.244444 62.9081081 92.1555556 62.9081081 92.1555556 60.6702703"></polygon>
                <polygon id="Shape" points="128.822222 60.6702703 128.822222 92 124.177778 92 124.177778 60.6702703"></polygon>
                <polygon id="Shape" points="144.466667 60.6702703 144.466667 89.5135135 158.155556 89.5135135 158.155556 92 140.066667 92 140.066667 60.6702703"></polygon>
                <path d="M188.466667,60.9189189 C191.888889,60.9189189 194.333333,60.9189189 197.022222,62.1621622 C200.444444,63.9027027 200.688889,66.8864865 200.688889,68.3783784 C200.688889,71.8594595 198.733333,75.8378378 191.644444,77.0810811 L203.866667,91.7513514 L198.733333,91.7513514 L187.733333,77.3297297 L185.288889,77.3297297 L185.288889,92 L180.888889,92 L180.888889,60.9189189 L188.466667,60.9189189 Z M185.044444,62.9081081 L185.044444,75.3405405 L187.488889,75.3405405 C190.666667,75.3405405 196.288889,75.3405405 196.288889,68.627027 C196.288889,62.9081081 191.644444,62.9081081 187.977778,62.9081081 L185.044444,62.9081081 Z" id="Shape"></path>
                <polygon id="Shape" points="227.088889 60.9189189 227.088889 63.1567568 214.866667 63.1567568 214.866667 74.8432432 226.111111 74.8432432 226.111111 77.0810811 215.111111 77.0810811 215.111111 89.5135135 227.333333 89.5135135 227.333333 92 211.2 92 211.2 60.9189189"></polygon>
                <path d="M248.111111,60.9189189 L260.088889,92 L255.444444,92 L251.044444,80.5621622 L240.288889,80.5621622 L236.133333,92 L233.2,92 L245.177778,60.9189189 L248.111111,60.9189189 Z M241.022222,78.572973 L250.311111,78.572973 L245.666667,65.8918919 L241.022222,78.572973 Z" id="Shape"></path>
                <polygon id="Shape" points="272.8 60.9189189 272.8 89.5135135 285.511111 89.5135135 285.511111 92 268.888889 92 268.888889 60.9189189"></polygon>
                <polygon id="Shape" points="310.933333 60.9189189 310.933333 63.1567568 300.911111 63.1567568 300.911111 92 296.511111 92 296.511111 62.9081081 286.488889 62.9081081 286.488889 60.6702703 310.933333 60.6702703"></polygon>
                <polygon id="Shape" points="319.977778 60.9189189 328.533333 75.8378378 337.088889 60.9189189 340.022222 60.9189189 329.511111 78.0756757 329.511111 92 325.355556 92 325.355556 78.0756757 315.088889 60.9189189"></polygon>
            </g>
            <g id="Group">
                <g fill-rule="nonzero" id="Shape">
                    <polygon fill="#5F1700" points="18.7297297 20.1686408 31.8648649 13.0358288 44.7567568 5.90301682 44.7567568 0.983836137 23.1081081 13.0358288 1.21621622 24.8418624 19.4594595 20.1686408"></polygon>
                    <polygon fill="#5F1700" points="45 5.90301682 57.8918919 13.0358288 71.027027 20.1686408 71.027027 20.1686408 88.5405405 24.8418624 66.8918919 13.0358288 45 0.983836137 44.7567568 0.983836137 44.7567568 5.90301682"></polygon>
                    <polygon fill="#BD5426" points="71.027027 20.1686408 45 20.1686408 19.4594595 20.1686408 1.21621622 24.8418624 0.972972973 25.0878215 45 25.0878215 88.7837838 25.0878215 88.5405405 24.8418624"></polygon>
                    <polygon fill="#9A171F" points="45 5.90301682 18.7297297 20.1686408 71.027027 20.1686408"></polygon>
                </g>
                <g transform="translate(0.000000, 36.893855)" id="Shape">
                    <polygon fill="#5F1700" fill-rule="nonzero" points="5.83783784 84.8558668 5.83783784 6.14897585 83.6756757 6.14897585 83.6756757 6.39493489 89.027027 0.737877102 0.486486486 0.737877102 0.486486486 90.2669655 0.72972973 90.2669655 6.08108108 84.8558668"></polygon>
                    <polygon fill="#BD5426" fill-rule="nonzero" points="83.6756757 6.39493489 83.6756757 84.8558668 6.08108108 84.8558668 0.72972973 90.2669655 89.2702703 90.2669655 89.2702703 0.737877102 89.027027 0.737877102"></polygon>
                    <polyline stroke="#000000" stroke-width="0.1399" points="83.6756757 6.39493489 83.6756757 6.14897585 5.83783784 6.14897585 5.83783784 84.8558668 6.08108108 84.8558668"></polyline>
                    <path d="M5.83783784,6.14897585 L5.83783784,84.6099077 L83.9189189,84.6099077 L83.9189189,6.14897585 L5.83783784,6.14897585 Z M71.2702703,72.311956 L18.2432432,72.311956 L18.2432432,18.6928866 L71.2702703,18.6928866 L71.2702703,72.311956 Z" fill="#9A171F" fill-rule="nonzero"></path>
                    <g transform="translate(17.027027, 18.446928)" fill-rule="nonzero">
                        <polygon fill="#BD5426" points="7.2972973 47.7160526 7.2972973 6.14897585 48.1621622 6.39493489 51.0810811 3.44342648 54.2432432 7.10542736e-15 0.972972973 7.10542736e-15 0.972972973 53.8650285 1.21621622 53.8650285 4.37837838 50.421602"></polygon>
                        <polygon fill="#5F1700" points="48.1621622 6.39493489 48.6486486 47.2241346 7.2972973 46.9781755 1.21621622 53.8650285 54.2432432 53.8650285 54.2432432 7.10542736e-15 54.2432432 7.10542736e-15"></polygon>
                    </g>
                </g>
            </g>
        </g>
    </g>
</svg>