<?xml version="1.0" encoding="UTF-8"?>
<svg width="600px" height="250px" viewBox="0 0 600 250" version="1.1" xmlns="http://www.w3.org/2000/svg" xmlns:xlink="http://www.w3.org/1999/xlink">
    <!-- Generator: Sketch 50.1 (55044) - http://www.bohemiancoding.com/sketch -->
    <title>ECOR</title>
    <desc>Created with Sketch.</desc>
    <defs></defs>
    <g id="ECOR" stroke="none" stroke-width="1" fill="none" fill-rule="evenodd">
        <g id="Grid-Logo" opacity="0.400000006"></g>
        <g id="ECOR3" transform="translate(55.000000, 59.000000)" fill-rule="nonzero">
            <path d="M462.149779,23.136118 C470.666651,24.9115273 482.295456,24.0238226 488.846895,17.4548082 C490.157183,16.2120216 482.9506,27.5746413 471.321795,34.1436558 C455.434554,43.1982433 435.288877,44.2634889 417.927562,41.9554568 C418.746492,27.3971004 406.298757,17.4548082 393.851022,17.4548082 C382.713575,17.4548082 374.360489,24.9115273 371.576128,34.8538195 C360.43868,33.7885739 350.120163,33.9661148 338,37.6944744 C342.258436,15.8569398 363.7144,1.12104239 394.014808,0.0557968014 C424.479002,-1.18698972 440.202457,18.6975947 462.149779,23.136118" id="Shape" fill="#5FAC28"></path>
            <path d="M326.619614,48.466502 C318.080714,50.0430173 307.899718,58.976604 304.122897,62.304803 C300.510286,65.4578336 295.419788,58.6262673 299.525028,55.4732367 C304.451317,51.9698694 321.857535,41.8101041 337.950077,38.4819052 C356.341553,34.8033695 374.56882,38.3067368 395.095021,45.3134715 C415.785432,52.1450377 426.623266,52.8457112 446,52.1450377 C435.819004,73.1652417 410.859144,80.1719764 393.781344,79.996808 C375.882497,79.996808 357.65523,74.3914203 346.324767,62.1296346 C340.249011,55.4732367 336.307981,46.7148184 326.619614,48.466502" id="Shape" fill="#006B52"></path>
            <path d="M28.211757,106.341564 C28.0438298,101.740741 25.0211416,98.0246914 20.6550364,98.0246914 C16.121004,98.0246914 13.2662429,101.386831 12.4266072,106.341564 L28.211757,106.341564 Z M12.5945344,113.773663 C12.7624615,119.259259 15.7851497,122.975309 21.1588177,122.975309 C24.181506,122.975309 27.2041942,121.559671 28.3796841,118.55144 L40.1345828,118.55144 C37.7836031,127.930041 29.555174,132 20.9908906,132 C8.39635624,132 0,124.037037 0,110.411523 C0,98.0246914 9.40391899,89 20.8229635,89 C34.5929877,89 41.4779998,99.9711934 40.9742185,113.773663 L12.5945344,113.773663 Z" id="Shape" fill="#1E120D"></path>
            <path d="M73.5531915,104.81405 C73.5531915,101.438017 70.5659574,98.9504132 67.412766,98.9504132 C60.4425532,98.9504132 59.2808511,105.347107 59.2808511,111.033058 C59.2808511,116.363636 61.4382979,121.694215 66.7489362,121.694215 C71.0638298,121.694215 73.2212766,119.028926 73.8851064,114.764463 L86,114.764463 C84.8382979,125.603306 77.0382979,132 66.9148936,132 C55.4638298,132 47,123.64876 47,111.210744 C47,98.2396694 54.6340426,89 66.9148936,89 C76.3744681,89 84.8382979,94.3305785 85.6680851,105.169421 L73.5531915,105.169421 L73.5531915,104.81405 Z" id="Shape" fill="#1E120D"></path>
            <path d="M106.5,121.91358 C112.429752,121.91358 114.293388,115.897119 114.293388,110.588477 C114.293388,105.45679 112.429752,99.2633745 106.5,99.2633745 C100.570248,99.2633745 98.8760331,105.45679 98.8760331,110.588477 C98.8760331,115.720165 100.570248,121.91358 106.5,121.91358 M106.5,89 C118.528926,89 127,98.3786008 127,110.588477 C127,122.798354 118.528926,132 106.5,132 C94.4710744,132 86,122.798354 86,110.588477 C86.1694215,98.3786008 94.4710744,89 106.5,89" id="Shape" fill="#1E120D"></path>
            <path d="M139.938776,106.198276 L151.387755,106.198276 C155.897959,106.198276 158.326531,104.068966 158.326531,100.137931 C158.326531,95.2241379 155.030612,94.4051724 151.387755,94.4051724 L139.938776,94.4051724 L139.938776,106.198276 Z M133,89 L152.255102,89 C161.102041,89 165.438776,92.7672414 165.438776,99.3189655 C165.438776,106.525862 160.061224,108.491379 158.846939,108.818966 L158.846939,108.982759 C161.27551,109.310345 164.744898,110.948276 164.744898,117.008621 C164.744898,121.431034 165.438776,125.525862 167,127 L159.540816,127 C158.5,125.362069 158.5,123.232759 158.5,121.431034 C158.5,114.551724 156.938776,111.439655 150.520408,111.439655 L140.112245,111.439655 L140.112245,127 L133,127 L133,89 Z" id="Shape" fill="#88868B"></path>
            <path d="M177.833333,110.501172 C177.833333,118.318927 181.333333,126.136683 189.5,126.136683 C197.833333,126.136683 201.166667,118.318927 201.166667,110.501172 C201.166667,102.683416 197.666667,94.8656603 189.5,94.8656603 C181.166667,94.8656603 177.833333,102.50574 177.833333,110.501172 M208,110.501172 C208,122.227805 201.166667,132 189.5,132 C178,132 171,122.227805 171,110.501172 C171,98.7745382 177.833333,89.0023435 189.5,89.0023435 C201,88.8246672 208,98.7745382 208,110.501172" id="Shape" fill="#88868B"></path>
            <path d="M219.040404,121.431034 L225.909091,121.431034 C236.89899,121.431034 239.131313,115.534483 239.131313,107.836207 C239.131313,100.301724 236.727273,94.2413793 225.909091,94.2413793 L219.040404,94.2413793 L219.040404,121.431034 Z M212,89 L228.484848,89 C240.676768,89 246,97.5172414 246,108 C246,118.482759 240.676768,127 228.484848,127 L212,127 L212,89 Z" id="Shape" fill="#88868B"></path>
            <path d="M253.833333,110.501172 C253.833333,118.318927 257.333333,126.136683 265.5,126.136683 C273.833333,126.136683 277.166667,118.318927 277.166667,110.501172 C277.166667,102.683416 273.666667,94.8656603 265.5,94.8656603 C257.166667,94.8656603 253.833333,102.50574 253.833333,110.501172 M284,110.501172 C284,122.227805 277.166667,132 265.5,132 C254,132 247,122.227805 247,110.501172 C247,98.7745382 253.833333,89.0023435 265.5,89.0023435 C277,88.8246672 284,98.7745382 284,110.501172" id="Shape" fill="#88868B"></path>
            <polygon id="Shape" fill="#88868B" points="289 89 296.104478 89 305.915423 119.103896 306.084577 119.103896 316.064677 89 323 89 309.636816 127 302.024876 127"></polygon>
            <rect id="Rectangle-path" fill="#88868B" x="328" y="89" width="7" height="38"></rect>
            <path d="M350.556561,111.865801 L362.443439,111.865801 L356.58371,95.4155844 L356.41629,95.4155844 L350.556561,111.865801 Z M352.900452,89 L360.099548,89 L375,127 L367.800905,127 L364.117647,116.965368 L348.714932,116.965368 L345.031674,127 L338,127 L352.900452,89 Z" id="Shape" fill="#88868B"></path>
            <path d="M382.984127,117.312757 C382.984127,123.683128 387.52381,126.160494 393.285714,126.160494 C399.571429,126.160494 401.84127,122.975309 401.84127,119.967078 C401.84127,116.781893 400.095238,115.54321 398.52381,114.835391 C395.730159,113.773663 392.063492,113.065844 386.47619,111.473251 C379.492063,109.526749 377.571429,105.279835 377.571429,101.032922 C377.571429,92.8930041 385.079365,89 392.412698,89 C400.793651,89 407.952381,93.600823 407.952381,102.09465 L400.619048,102.09465 C400.269841,96.7860082 396.777778,94.8395062 391.888889,94.8395062 C388.571429,94.8395062 384.555556,96.0781893 384.555556,100.148148 C384.555556,102.979424 386.47619,104.572016 389.444444,105.45679 C390.142857,105.633745 399.047619,107.934156 401.142857,108.641975 C406.380952,110.234568 409,114.835391 409,119.082305 C409,128.283951 400.968254,132 392.936508,132 C383.68254,132 376.174603,127.576132 376,117.312757 L382.984127,117.312757 Z" id="Shape" fill="#88868B"></path>
        </g>
    </g>
</svg>