<?xml version="1.0" encoding="UTF-8"?>
<svg width="600px" height="250px" viewBox="0 0 600 250" version="1.1" xmlns="http://www.w3.org/2000/svg" xmlns:xlink="http://www.w3.org/1999/xlink">
    <!-- Generator: Sketch 50.1 (55044) - http://www.bohemiancoding.com/sketch -->
    <title>EGIE</title>
    <desc>Created with Sketch.</desc>
    <defs>
        <linearGradient x1="49.9922382%" y1="100.004679%" x2="49.9922382%" y2="0.0267889908%" id="linearGradient-1">
            <stop stop-color="#FFFFFF" stop-opacity="0" offset="0%"></stop>
            <stop stop-color="#D6EAF8" stop-opacity="0.1557" offset="15.57%"></stop>
            <stop stop-color="#A9D2F1" stop-opacity="0.3239" offset="32.39%"></stop>
            <stop stop-color="#84BFEA" stop-opacity="0.4866" offset="48.66%"></stop>
            <stop stop-color="#61B1E4" stop-opacity="0.6395" offset="63.95%"></stop>
            <stop stop-color="#38A6E0" stop-opacity="0.7804" offset="78.04%"></stop>
            <stop stop-color="#009EDC" stop-opacity="0.905" offset="90.5%"></stop>
            <stop stop-color="#009BDB" offset="100%"></stop>
        </linearGradient>
    </defs>
    <g id="EGIE" stroke="none" stroke-width="1" fill="none" fill-rule="evenodd">
        <g id="Grid-Logo" opacity="0.400000006" transform="translate(1.000000, 0.000000)"></g>
        <g id="EGIE3" transform="translate(115.000000, 61.000000)">
            <path d="M371,58 C322.622354,22.0825688 257.333474,0 185.5,0 C113.614169,0 48.3776461,22.0293578 0,58 L371,58 Z" id="XMLID_45_" fill="url(#linearGradient-1)"></path>
            <g id="XMLID_36_" transform="translate(12.000000, 66.000000)" fill="#009BDB" fill-rule="nonzero">
                <g id="XMLID_37_">
                    <path d="M145.97855,1.53826087 C142.529003,1.53826087 140.751964,4.4026087 140.281571,7.90347826 C139.758912,11.7756522 137.77281,25.0895652 137.354683,28.4843478 C137.093353,30.5 136.936556,32.6217391 135.002719,33.5234783 C133.068882,34.3721739 130.716918,33.046087 128.67855,31.2956522 C126.640181,29.5452174 96.9009063,3.76608696 96.9009063,3.76608696 C95.1761329,2.22782609 93.0332326,1.53826087 90.994864,1.53826087 C86.5,1.53826087 82.1619335,4.4026087 82.1619335,11.2982609 L82.1619335,54.3165217 C82.1619335,57.6582609 84.4616314,59.8330435 87.2839879,59.8330435 C90.3676737,59.8330435 92.3537764,57.7643478 92.7719033,54.7408696 C92.7719033,54.7408696 96.0646526,34.266087 96.4305136,31.9321739 C96.9009063,29.28 97.3190332,27.2113043 99.8277946,26.4156522 C102.127492,25.6730435 104.270393,27.0521739 107.510876,29.9165217 C110.699094,32.7278261 137.51148,57.3930435 137.51148,57.3930435 C139.549849,59.1434783 141.065559,59.886087 143.940181,59.886087 C146.553474,59.886087 151.361934,58.7721739 151.361934,50.6034783 L151.361934,7.74434783 C151.361934,3.71304348 148.957704,1.53826087 145.97855,1.53826087 Z" id="XMLID_44_"></path>
                    <path d="M337.846526,47.3678261 C314.483686,52.46 287.723565,46.9965217 287.723565,30.1817391 C287.723565,17.4513043 299.326586,12.306087 308.420846,11.5634783 C317.985498,10.7678261 325.511782,12.8365217 329.32719,16.9208696 C331.73142,19.4669565 331.051964,22.9147826 326.348036,23.2330435 C322.00997,23.4982609 313.856495,23.7634783 307.009668,24.0286957 C303.141994,24.1878261 301.103625,26.2565217 301.103625,29.1208696 C301.103625,31.3486957 302.776133,33.9478261 307.218731,33.9478261 C313.595166,34.0008696 329.745317,34.053913 337.741994,34.1069565 C343.020846,34.1069565 345.634139,31.0834783 345.634139,24.9304348 C345.634139,15.1173913 336.90574,0.212173913 311.295468,0.212173913 C288.089426,0.212173913 271.312085,11.9347826 271.312085,31.1895652 C271.312085,58.4008696 310.720544,66.7286957 339.571299,56.5973913 C342.289124,55.6426087 344.797885,53.6269565 344.013897,50.5504348 C343.386707,47.686087 341.191541,46.6252174 337.846526,47.3678261 Z" id="XMLID_43_"></path>
                    <path d="M66.6912387,47.3678261 C43.3283988,52.46 16.5682779,46.9965217 16.5682779,30.1817391 C16.5682779,17.4513043 28.1712991,12.306087 37.2655589,11.5634783 C46.8302115,10.7678261 54.3042296,12.8365217 58.1719033,16.9208696 C60.5761329,19.4669565 59.8966767,22.9147826 55.1927492,23.2330435 C50.8546828,23.4982609 42.6489426,23.7634783 35.8543807,24.0286957 C31.9867069,24.1878261 29.9483384,26.2565217 29.9483384,29.1208696 C29.9483384,31.3486957 31.6208459,33.9478261 36.0634441,33.9478261 C42.4398792,34.0008696 58.5900302,34.053913 66.5867069,34.1069565 C71.8655589,34.1069565 74.478852,31.0834783 74.478852,24.9304348 C74.478852,15.1173913 65.7504532,0.212173913 40.1401813,0.212173913 C16.934139,0.212173913 0.156797583,11.9347826 0.156797583,31.1895652 C0.156797583,58.4008696 39.5652568,66.7286957 68.4160121,56.5973913 C71.1338369,55.6426087 73.6425982,53.6269565 72.8586103,50.5504348 C72.2314199,47.686087 70.0362538,46.6252174 66.6912387,47.3678261 Z" id="XMLID_42_"></path>
                    <g id="XMLID_39_" transform="translate(247.217523, 0.000000)">
                        <path d="M0.52265861,21.1643478 C1.04531722,36.0165217 2.40422961,48.3226087 2.77009063,52.6191304 C3.29274924,58.1886957 6.11510574,59.78 8.93746224,59.78 C11.655287,59.78 14.5299094,58.3478261 15.052568,52.6721739 C15.4706949,47.8982609 16.8818731,33.2052174 17.5090634,18.6713043 C17.5613293,17.9286957 17.0386707,17.6104348 16.4114804,17.7165217 L1.2021148,20.2095652 C0.836253776,20.3686957 0.470392749,20.74 0.52265861,21.1643478 Z" id="XMLID_41_"></path>
                        <path d="M8.9897281,0.106086957 C1.98610272,0.106086957 -0.052265861,5.67565217 0.052265861,9.07043478 C0.052265861,9.70695652 0.156797583,11.4573913 0.209063444,13.6321739 C0.209063444,14.1095652 0.679456193,14.5869565 1.25438066,14.533913 L17.1432024,11.9347826 C17.665861,11.8286957 17.8749245,11.4573913 17.9271903,11.0330435 C17.9794562,10.2904348 17.9794562,9.49478261 17.9794562,9.12347826 C18.0839879,5.83478261 15.9933535,0.106086957 8.9897281,0.106086957 Z" id="XMLID_40_"></path>
                    </g>
                    <path d="M232.896677,23.8165217 C227.617825,23.8165217 211.25861,23.9226087 200.805438,23.9756522 C195.73565,23.9756522 194.481269,26.733913 194.481269,29.0678261 C194.481269,31.0834783 195.840181,33.6295652 200.544109,33.8947826 C207.756798,34.266087 216.903323,34.7434783 221.136858,34.9556522 C226.833837,35.273913 226.938369,38.2443478 225.004532,40.7904348 C221.136858,45.9356522 211.729003,49.2773913 201.955287,49.2773913 C189.202417,49.2773913 175.1429,41.9043478 175.1429,30.1817391 C175.1429,19.2017391 187.164048,7.10782609 222.861631,12.2 C225.997583,12.6243478 229.081269,12.093913 229.865257,9.12347826 C230.701511,5.99391304 228.663142,3.97826087 224.638671,2.86434783 C216.537462,0.689565217 209.167976,0.212173913 202.112085,0.212173913 C178.069789,0.212173913 158.783686,11.8817391 158.783686,30.7652174 C158.783686,50.9217391 178.017523,60.7347826 201.955287,60.7347826 C228.715408,60.7347826 241.729607,45.9356522 241.729607,32.9930435 C241.729607,26.3095652 238.436858,23.8165217 232.896677,23.8165217 Z" id="XMLID_38_"></path>
                </g>
            </g>
        </g>
    </g>
</svg>