<?xml version="1.0" encoding="UTF-8"?>
<svg width="600px" height="250px" viewBox="0 0 600 250" version="1.1" xmlns="http://www.w3.org/2000/svg" xmlns:xlink="http://www.w3.org/1999/xlink">
    <!-- Generator: Sketch 50.1 (55044) - http://www.bohemiancoding.com/sketch -->
    <title>ELET</title>
    <desc>Created with Sketch.</desc>
    <defs></defs>
    <g id="ELET" stroke="none" stroke-width="1" fill="none" fill-rule="evenodd">
        <g id="Grid-Logo" opacity="0.400000006"></g>
        <g transform="translate(55.000000, 56.000000)">
            <g id="Group">
                <path d="M0.668571429,99.7325153 C0.668571429,99.7325153 74.4621429,125.554601 95.2714286,58.8404908 C106.47,71.3705521 119.757857,84.5779141 116.080714,102.865031 C106.135714,151.546012 38.1085714,140.62454 14.4578571,120.051534 C8.94214286,113.617178 4.42928571,108.11411 0.668571429,99.7325153 Z" id="Shape" fill="#3F8ECA"></path>
                <path d="M81.1478571,0.846625767 C81.3985714,-0.0846625767 65.3528571,1.94723926 56.745,22.1815951 C56.745,22.1815951 29.835,93.806135 101.372143,127.671166 C101.372143,127.671166 137.140714,101.002454 98.1964286,61.8883436 C76.3842857,39.8760736 76.5514286,17.3558282 81.1478571,0.846625767 Z" id="Shape" fill="#E8E33A"></path>
                <path d="M64.6842857,97.5312883 C72.2057143,108.706748 83.7385714,119.289571 101.205,127.586503 C108.392143,122.083436 113.824286,114.040491 116.080714,102.780368 C117.167143,94.991411 115.746429,85.5092025 108.893571,74.9263804 C104.882143,69.1693252 99.8678571,63.9202454 95.2714286,58.7558282 C88.92,79.3288344 77.4707143,91.0969325 64.6842857,97.5312883 Z" id="Shape" fill="#669F3E"></path>
                <path d="M34.0135714,104.727607 C38.1085714,114.887117 45.045,126.401227 56.8285714,136.730061 C40.0307143,134.782822 23.8178571,128.179141 14.5414286,120.051534 C10.8642857,115.733742 7.68857143,111.839264 4.84714286,107.267485 C4.01142857,105.066258 3.17571429,102.780368 2.42357143,100.325153 C6.60214286,101.595092 19.2214286,104.981595 34.0135714,104.727607 Z" id="Shape" fill="#3F8ECA"></path>
                <path d="M33.7628571,104.727607 C37.8578571,114.887117 44.7107143,126.401227 56.4107143,136.645399 C39.78,134.613497 23.7342857,128.094479 14.5414286,120.051534 C10.7807143,115.564417 7.43785714,111.585276 4.59642857,106.844172 C3.84428571,104.727607 3.00857143,102.611043 2.34,100.325153 C6.35142857,101.510429 18.9707143,104.981595 33.7628571,104.727607 Z" id="Shape" fill="#3F8ECA"></path>
                <path d="M33.5121429,104.727607 C37.5235714,114.887117 44.3764286,126.316564 55.9928571,136.645399 C39.5292857,134.528834 23.7342857,128.009816 14.5414286,120.136196 C10.6135714,115.564417 7.27071429,111.415951 4.26214286,106.420859 C3.51,104.47362 2.84142857,102.441718 2.17285714,100.325153 C6.10071429,101.510429 18.6364286,104.896933 33.5121429,104.727607 Z" id="Shape" fill="#3F8FCB"></path>
                <path d="M33.2614286,104.727607 C37.2728571,114.802454 44.1257143,126.316564 55.575,136.560736 C39.2785714,134.359509 23.6507143,127.925153 14.625,120.051534 C10.6135714,115.310429 7.10357143,111.077301 4.095,105.828221 C3.42642857,103.965644 2.75785714,102.103067 2.17285714,100.240491 C5.85,101.425767 18.3857143,104.896933 33.2614286,104.727607 Z" id="Shape" fill="#4390CC"></path>
                <path d="M33.0107143,104.727607 C37.0221429,114.802454 43.7914286,126.231902 55.1571429,136.476074 C39.0278571,134.274847 23.5671429,127.840491 14.625,120.051534 C10.4464286,115.141104 6.93642857,110.823313 3.76071429,105.404908 C3.17571429,103.711656 2.59071429,102.018405 2.00571429,100.240491 C5.59928571,101.341104 18.0514286,104.81227 33.0107143,104.727607 Z" id="Shape" fill="#4391CD"></path>
                <path d="M32.6764286,104.727607 C36.6878571,114.802454 43.3735714,126.147239 54.6557143,136.391411 C38.6935714,134.105521 23.4835714,127.755828 14.5414286,120.051534 C10.2792857,115.056442 6.60214286,110.569325 3.42642857,104.896933 C2.84142857,103.373006 2.34,101.764417 1.83857143,100.155828 C5.265,101.256442 17.7171429,104.81227 32.6764286,104.727607 Z" id="Shape" fill="#4493CE"></path>
                <path d="M32.4257143,104.727607 C36.3535714,114.717791 43.0392857,126.147239 54.2378571,136.391411 C38.3592857,134.020859 23.4,127.755828 14.5414286,120.051534 C10.1121429,114.887117 6.35142857,110.315337 3.17571429,104.304294 C2.67428571,102.949693 2.25642857,101.510429 1.755,100.071166 C5.01428571,101.171779 17.4664286,104.727607 32.4257143,104.727607 Z" id="Shape" fill="#4391CD"></path>
                <path d="M32.175,104.727607 C36.1028571,114.717791 42.705,126.062577 53.7364286,136.306748 C38.025,133.936196 23.2328571,127.671166 14.5414286,120.051534 C10.0285714,114.717791 6.18428571,109.976687 2.84142857,103.796319 C2.42357143,102.611043 2.00571429,101.341104 1.58785714,100.071166 C4.68,101.087117 17.1321429,104.727607 32.175,104.727607 Z" id="Shape" fill="#4794CE"></path>
                <path d="M31.9242857,104.727607 C35.8521429,114.717791 42.3707143,125.977914 53.3185714,136.222086 C37.7742857,133.766871 23.1492857,127.586503 14.5414286,120.051534 C9.86142857,114.548466 5.93357143,109.722699 2.59071429,103.203681 C2.25642857,102.18773 1.92214286,101.087117 1.58785714,99.9865031 C4.26214286,100.917791 16.7142857,104.642945 31.9242857,104.727607 Z" id="Shape" fill="#4795CF"></path>
                <path d="M31.6735714,104.727607 C35.6014286,114.633129 42.0364286,125.893252 52.9007143,136.137423 C37.5235714,133.682209 23.1492857,127.50184 14.5414286,120.051534 C9.69428571,114.379141 5.68285714,109.468712 2.25642857,102.611043 C2.00571429,101.764417 1.67142857,100.833129 1.42071429,99.9865031 C3.92785714,100.833129 16.38,104.642945 31.6735714,104.727607 Z" id="Shape" fill="#4795CE"></path>
                <path d="M31.4228571,104.727607 C35.2671429,114.633129 41.7857143,125.893252 52.4828571,136.052761 C37.2728571,133.512883 23.0657143,127.417178 14.5414286,120.051534 C9.61071429,114.209816 5.43214286,109.130061 1.92214286,102.018405 C1.67142857,101.341104 1.50428571,100.663804 1.25357143,99.9865031 C3.51,100.663804 15.9621429,104.558282 31.4228571,104.727607 Z" id="Shape" fill="#4B96CF"></path>
                <path d="M31.0885714,104.727607 C34.9328571,114.548466 41.3678571,125.808589 51.9814286,136.052761 C36.9385714,133.512883 22.8985714,127.417178 14.5414286,120.136196 C9.44357143,114.125153 5.18142857,108.960736 1.58785714,101.510429 C1.42071429,101.002454 1.25357143,100.579141 1.08642857,100.071166 C3.09214286,100.579141 15.5442857,104.558282 31.0885714,104.727607 Z" id="Shape" fill="#4B97D0"></path>
                <path d="M30.8378571,104.727607 C34.6821429,114.548466 41.0335714,125.723926 51.5635714,135.968098 C36.6878571,133.343558 22.8985714,127.332515 14.5414286,120.136196 C9.27642857,113.955828 4.93071429,108.622086 1.33714286,100.748466 C1.25357143,100.494479 1.17,100.240491 1.08642857,99.9865031 C2.42357143,100.325153 15.0428571,104.47362 30.8378571,104.727607 Z" id="Shape" fill="#4E98D0"></path>
                <path d="M30.5871429,104.727607 C34.4314286,114.548466 40.6992857,125.639264 51.1457143,135.883436 C36.4371429,133.258896 22.815,127.247853 14.5414286,120.051534 C9.10928571,113.70184 4.68,108.198773 1.00285714,99.9865031 L1.00285714,99.9018405 C1.33714286,99.9865031 14.2071429,104.388957 30.5871429,104.727607 Z" id="Shape" fill="#4F99D1"></path>
                <path d="M30.3364286,104.727607 C34.0971429,114.463804 40.365,125.639264 50.7278571,135.798773 C36.1864286,133.089571 22.7314286,127.16319 14.625,120.051534 C9.19285714,113.617178 4.76357143,108.198773 1.00285714,99.9018405 C0.919285714,99.8171779 13.7892857,104.388957 30.3364286,104.727607 Z" id="Shape" fill="#529AD2"></path>
                <path d="M30.0857143,104.727607 C33.8464286,114.463804 40.0307143,125.554601 50.2264286,135.71411 C35.8521429,133.004908 22.6478571,127.078528 14.5414286,120.051534 C9.10928571,113.617178 4.68,108.198773 0.919285714,99.9018405 C0.919285714,99.8171779 13.7057143,104.304294 30.0857143,104.727607 Z" id="Shape" fill="#529AD2"></path>
                <path d="M29.7514286,104.642945 C33.5121429,114.379141 39.6128571,125.385276 49.725,135.544785 C35.5178571,132.75092 22.4807143,126.909202 14.4578571,119.966871 C9.02571429,113.532515 4.59642857,108.11411 0.835714286,99.8171779 C0.919285714,99.8171779 13.5385714,104.219632 29.7514286,104.642945 Z" id="Shape" fill="#529AD2"></path>
                <path d="M29.5007143,104.642945 C33.1778571,114.294479 39.2785714,125.300613 49.3071429,135.460123 C35.3507143,132.666258 22.3971429,126.909202 14.5414286,119.966871 C9.10928571,113.532515 4.68,108.11411 0.919285714,99.8171779 C0.919285714,99.8171779 13.455,104.219632 29.5007143,104.642945 Z" id="Shape" fill="#529BD3"></path>
                <path d="M29.25,104.642945 C32.9271429,114.294479 39.0278571,125.215951 48.8892857,135.37546 C35.1,132.496933 22.3971429,126.82454 14.5414286,120.051534 C9.10928571,113.617178 4.68,108.198773 0.919285714,99.9018405 C0.919285714,99.8171779 13.2878571,104.134969 29.25,104.642945 Z" id="Shape" fill="#559CD3"></path>
                <path d="M28.9992857,104.642945 C32.6764286,114.209816 38.6935714,125.215951 48.4714286,135.290798 C34.8492857,132.41227 22.3135714,126.739877 14.5414286,120.051534 C9.10928571,113.617178 4.68,108.198773 0.919285714,99.9018405 C0.919285714,99.8171779 13.1207143,104.134969 28.9992857,104.642945 Z" id="Shape" fill="#589ED4"></path>
                <path d="M28.7485714,104.642945 C32.4257143,114.209816 38.3592857,125.131288 48.0535714,135.206135 C34.5985714,132.327607 22.23,126.655215 14.625,120.051534 C9.19285714,113.617178 4.76357143,108.198773 1.00285714,99.9018405 C0.919285714,99.8171779 13.0371429,104.050307 28.7485714,104.642945 Z" id="Shape" fill="#589ED4"></path>
                <path d="M28.4142857,104.642945 C32.0078571,114.209816 37.9414286,125.046626 47.5521429,135.121472 C34.2642857,132.158282 22.1464286,126.655215 14.5414286,120.051534 C9.10928571,113.617178 4.68,108.198773 0.919285714,99.9018405 C0.919285714,99.8171779 12.87,104.050307 28.4142857,104.642945 Z" id="Shape" fill="#5B9FD5"></path>
                <path d="M28.1635714,104.642945 C31.7571429,114.125153 37.6071429,124.961963 47.0507143,135.03681 C33.93,132.07362 21.9792857,126.570552 14.4578571,120.051534 C9.02571429,113.617178 4.59642857,108.198773 0.835714286,99.9018405 C0.919285714,99.8171779 12.7028571,103.965644 28.1635714,104.642945 Z" id="Shape" fill="#5B9FD5"></path>
                <path d="M27.9128571,104.642945 C31.5064286,114.125153 37.2728571,124.877301 46.6328571,134.952147 C33.6792857,131.988957 21.8957143,126.48589 14.5414286,120.051534 C9.10928571,113.617178 4.68,108.198773 0.919285714,99.9018405 C0.919285714,99.8171779 12.6192857,103.965644 27.9128571,104.642945 Z" id="Shape" fill="#5EA1D6"></path>
                <path d="M27.6621429,104.642945 C31.1721429,114.040491 36.9385714,124.792638 46.215,134.867485 C33.4285714,131.904294 21.8957143,126.48589 14.5414286,120.051534 C9.10928571,113.617178 4.68,108.198773 0.919285714,99.9018405 C0.919285714,99.8171779 12.4521429,103.880982 27.6621429,104.642945 Z" id="Shape" fill="#5EA1D6"></path>
                <path d="M27.4114286,104.558282 C30.9214286,113.955828 36.6042857,124.623313 45.7971429,134.69816 C33.1778571,131.650307 21.8121429,126.316564 14.625,120.051534 C9.19285714,113.617178 4.76357143,108.198773 1.00285714,99.9018405 C0.919285714,99.8171779 12.285,103.796319 27.4114286,104.558282 Z" id="Shape" fill="#61A2D6"></path>
                <path d="M27.0771429,104.558282 C30.5871429,113.871166 36.1864286,124.53865 45.2957143,134.613497 C32.8435714,131.565644 21.645,126.231902 14.5414286,120.051534 C9.10928571,113.617178 4.68,108.198773 0.919285714,99.9018405 C0.919285714,99.8171779 12.2014286,103.796319 27.0771429,104.558282 Z" id="Shape" fill="#64A4D8"></path>
                <path d="M26.8264286,104.558282 C30.3364286,113.871166 35.8521429,124.53865 44.8778571,134.528834 C32.6764286,131.480982 21.645,126.231902 14.5414286,120.051534 C9.10928571,113.617178 4.68,108.198773 0.919285714,99.9018405 C0.919285714,99.8171779 12.0342857,103.711656 26.8264286,104.558282 Z" id="Shape" fill="#64A3D7"></path>
                <path d="M26.5757143,104.558282 C30.0021429,113.871166 35.6014286,124.453988 44.46,134.359509 C32.4257143,131.311656 21.5614286,126.062577 14.5414286,120.051534 C9.10928571,113.617178 4.68,108.198773 0.919285714,99.9018405 C0.919285714,99.8171779 11.9507143,103.711656 26.5757143,104.558282 Z" id="Shape" fill="#64A4D8"></path>
                <path d="M26.325,104.558282 C29.7514286,113.786503 35.2671429,124.369325 44.0421429,134.274847 C32.175,131.226994 21.4778571,126.062577 14.625,120.051534 C9.19285714,113.617178 4.76357143,108.198773 1.00285714,99.9018405 C0.919285714,99.8171779 11.7835714,103.626994 26.325,104.558282 Z" id="Shape" fill="#66A5D8"></path>
                <path d="M26.0742857,104.47362 C29.5007143,113.70184 34.9328571,124.2 43.5407143,134.105521 C31.8407143,130.973006 21.3107143,125.893252 14.5414286,119.966871 C9.10928571,113.532515 4.68,108.11411 0.919285714,99.8171779 C0.919285714,99.8171779 11.6164286,103.626994 26.0742857,104.47362 Z" id="Shape" fill="#69A6D7"></path>
                <path d="M25.74,104.47362 C29.0828571,113.617178 34.515,124.115337 43.0392857,134.020859 C31.5064286,130.888344 21.2271429,125.893252 14.4578571,120.051534 C9.02571429,113.617178 4.59642857,108.198773 0.835714286,99.9018405 C0.919285714,99.8171779 11.5328571,103.542331 25.74,104.47362 Z" id="Shape" fill="#6CA8DA"></path>
                <path d="M25.4892857,104.47362 C28.8321429,113.617178 34.1807143,124.030675 42.6214286,133.936196 C31.2557143,130.803681 21.1435714,125.808589 14.5414286,120.051534 C9.10928571,113.617178 4.68,108.198773 0.919285714,99.9018405 C0.919285714,99.8171779 11.3657143,103.542331 25.4892857,104.47362 Z" id="Shape" fill="#6CA8DA"></path>
                <path d="M25.2385714,104.47362 C28.5814286,113.532515 33.8464286,123.946012 42.2035714,133.766871 C31.005,130.634356 21.06,125.723926 14.5414286,120.051534 C9.10928571,113.617178 4.68,108.198773 0.919285714,99.9018405 C0.919285714,99.8171779 11.2821429,103.457669 25.2385714,104.47362 Z" id="Shape" fill="#6CA8DA"></path>
                <path d="M24.9878571,104.47362 C28.3307143,113.532515 33.5121429,123.86135 41.7857143,133.682209 C30.8378571,130.549693 21.06,125.639264 14.625,120.051534 C9.19285714,113.617178 4.76357143,108.198773 1.00285714,99.9018405 C0.919285714,99.8171779 11.115,103.373006 24.9878571,104.47362 Z" id="Shape" fill="#6EA9DA"></path>
                <path d="M24.6535714,104.388957 C27.9128571,113.36319 33.0942857,123.692025 41.2842857,133.512883 C30.5035714,130.380368 20.8928571,125.554601 14.5414286,120.051534 C9.10928571,113.617178 4.68,108.198773 0.919285714,99.9018405 C0.919285714,99.8171779 10.9478571,103.373006 24.6535714,104.388957 Z" id="Shape" fill="#70AADA"></path>
                <path d="M24.4028571,104.388957 C27.6621429,113.36319 32.76,123.607362 40.8664286,133.428221 C30.2528571,130.295706 20.8092857,125.554601 14.5414286,120.051534 C9.10928571,113.617178 4.68,108.198773 0.919285714,99.9018405 C0.919285714,99.8171779 10.8642857,103.288344 24.4028571,104.388957 Z" id="Shape" fill="#72ABDB"></path>
                <path d="M24.1521429,104.388957 C27.4114286,113.278528 32.4257143,123.522699 40.4485714,133.258896 C30.0021429,130.12638 20.7257143,125.385276 14.5414286,120.051534 C9.10928571,113.617178 4.68,108.198773 0.919285714,99.9018405 C0.919285714,99.8171779 10.6971429,103.288344 24.1521429,104.388957 Z" id="Shape" fill="#75ADDB"></path>
                <path d="M23.9014286,104.388957 C27.0771429,113.278528 32.175,123.438037 40.0307143,133.174233 C29.7514286,130.041718 20.7257143,125.385276 14.625,120.051534 C9.19285714,113.617178 4.76357143,108.198773 1.00285714,99.9018405 C0.919285714,99.8171779 10.6135714,103.203681 23.9014286,104.388957 Z" id="Shape" fill="#74ACDB"></path>
                <path d="M23.5671429,104.304294 C26.7428571,113.109202 31.7571429,123.268712 39.5292857,133.004908 C29.4171429,129.872393 20.5585714,125.300613 14.5414286,120.051534 C9.10928571,113.617178 4.68,108.198773 0.919285714,99.9018405 C0.919285714,99.8171779 10.4464286,103.203681 23.5671429,104.304294 Z" id="Shape" fill="#75ADDC"></path>
                <path d="M23.3164286,104.304294 C26.4921429,113.109202 31.4228571,123.184049 39.0278571,132.835583 C29.1664286,129.703067 20.3914286,125.131288 14.4578571,120.051534 C9.02571429,113.617178 4.59642857,108.198773 0.835714286,99.9018405 C0.919285714,99.8171779 10.3628571,103.119018 23.3164286,104.304294 Z" id="Shape" fill="#79AFDC"></path>
                <path d="M23.0657143,104.304294 C26.1578571,113.02454 31.0885714,123.099387 38.61,132.75092 C28.9157143,129.618405 20.3914286,125.131288 14.5414286,120.051534 C9.10928571,113.617178 4.68,108.198773 0.919285714,99.9018405 C0.919285714,99.8171779 10.1957143,103.119018 23.0657143,104.304294 Z" id="Shape" fill="#79AFDD"></path>
                <path d="M22.815,104.219632 C25.9071429,112.939877 30.7542857,122.930061 38.1921429,132.496933 C28.665,129.364417 20.3078571,124.961963 14.5414286,119.966871 C9.10928571,113.532515 4.68,108.11411 0.919285714,99.8171779 C0.919285714,99.8171779 10.0285714,103.034356 22.815,104.219632 Z" id="Shape" fill="#7BB1DD"></path>
                <path d="M22.4807143,104.219632 C25.5728571,112.855215 30.3364286,122.845399 37.6907143,132.41227 C28.3307143,129.279755 20.1407143,124.961963 14.4578571,120.051534 C9.02571429,113.617178 4.59642857,108.198773 0.835714286,99.9018405 C0.919285714,99.8171779 9.945,103.034356 22.4807143,104.219632 Z" id="Shape" fill="#7BB0DD"></path>
                <path d="M22.23,104.219632 C25.3221429,112.855215 30.0021429,122.760736 37.2728571,132.327607 C28.08,129.195092 20.0571429,124.961963 14.5414286,120.051534 C9.10928571,113.617178 4.68,108.198773 0.919285714,99.9018405 C0.919285714,99.8171779 9.77785714,102.949693 22.23,104.219632 Z" id="Shape" fill="#7DB2DF"></path>
                <path d="M21.9792857,104.134969 C24.9878571,112.68589 29.6678571,122.591411 36.855,132.07362 C27.9128571,129.025767 19.9735714,124.707975 14.5414286,119.966871 C9.10928571,113.532515 4.68,108.11411 0.919285714,99.8171779 C0.919285714,99.8171779 9.69428571,102.949693 21.9792857,104.134969 Z" id="Shape" fill="#7FB3DF"></path>
                <path d="M21.7285714,104.134969 C24.7371429,112.68589 29.3335714,122.422086 36.4371429,131.988957 C27.6621429,128.941104 19.9735714,124.707975 14.5414286,120.051534 C9.10928571,113.617178 4.68,108.198773 0.919285714,99.9018405 C0.919285714,99.8171779 9.52714286,102.865031 21.7285714,104.134969 Z" id="Shape" fill="#81B4DF"></path>
                <path d="M21.3942857,104.134969 C24.4028571,112.601227 28.9157143,122.337423 35.9357143,131.819632 C27.3278571,128.771779 19.8064286,124.623313 14.4578571,120.051534 C9.02571429,113.617178 4.59642857,108.198773 0.835714286,99.9018405 C0.919285714,99.8171779 9.44357143,102.780368 21.3942857,104.134969 Z" id="Shape" fill="#83B5DF"></path>
                <path d="M21.1435714,104.050307 C24.0685714,112.516564 28.665,122.168098 35.5178571,131.650307 C27.0771429,128.602454 19.7228571,124.53865 14.5414286,120.051534 C9.10928571,113.617178 4.68,108.198773 0.919285714,99.9018405 C0.919285714,99.8171779 9.27642857,102.780368 21.1435714,104.050307 Z" id="Shape" fill="#83B5E0"></path>
                <path d="M20.8928571,104.050307 C23.8178571,112.431902 28.3307143,122.083436 35.1,131.480982 C26.8264286,128.433129 19.6392857,124.453988 14.5414286,120.051534 C9.10928571,113.617178 4.68,108.198773 0.919285714,99.9018405 C0.919285714,99.8171779 9.19285714,102.695706 20.8928571,104.050307 Z" id="Shape" fill="#83B5E0"></path>
                <path d="M20.6421429,104.050307 C23.5671429,112.431902 27.9964286,121.998773 34.6821429,131.396319 C26.6592857,128.433129 19.5557143,124.453988 14.5414286,120.136196 C9.10928571,113.70184 4.68,108.283436 0.919285714,99.9865031 C0.919285714,99.8171779 9.02571429,102.695706 20.6421429,104.050307 Z" id="Shape" fill="#85B6E0"></path>
                <path d="M20.3078571,103.965644 C23.2328571,112.262577 27.5785714,121.829448 34.1807143,131.142331 C26.325,128.179141 19.3885714,124.284663 14.4578571,120.051534 C9.02571429,113.617178 4.59642857,108.198773 0.835714286,99.9018405 C0.919285714,99.8171779 8.94214286,102.611043 20.3078571,103.965644 Z" id="Shape" fill="#87B7E0"></path>
                <path d="M20.0571429,103.965644 C22.8985714,112.262577 27.2442857,121.744785 33.7628571,130.973006 C26.0742857,128.009816 19.3885714,124.2 14.5414286,119.966871 C9.10928571,113.532515 4.68,108.11411 0.919285714,99.8171779 C0.919285714,99.8171779 8.775,102.611043 20.0571429,103.965644 Z" id="Shape" fill="#89B7E1"></path>
                <path d="M19.8064286,103.965644 C22.6478571,112.177914 26.91,121.57546 33.345,130.888344 C25.8235714,127.925153 19.305,124.2 14.5414286,120.051534 C9.10928571,113.617178 4.68,108.198773 0.919285714,99.9018405 C0.919285714,99.8171779 8.69142857,102.52638 19.8064286,103.965644 Z" id="Shape" fill="#8BBAE2"></path>
                <path d="M19.5557143,103.880982 C22.3971429,112.093252 26.5757143,121.406135 32.9271429,130.634356 C25.5728571,127.755828 19.2214286,124.030675 14.5414286,120.051534 C9.10928571,113.617178 4.68,108.198773 0.919285714,99.9018405 C0.919285714,99.8171779 8.52428571,102.52638 19.5557143,103.880982 Z" id="Shape" fill="#8BB8E1"></path>
                <path d="M19.2214286,103.880982 C21.9792857,112.008589 26.1578571,121.321472 32.4257143,130.549693 C25.3221429,127.671166 19.0542857,124.030675 14.4578571,120.136196 C9.02571429,113.70184 4.59642857,108.283436 0.835714286,99.9865031 C0.919285714,99.8171779 8.44071429,102.441718 19.2214286,103.880982 Z" id="Shape" fill="#8DBBE2"></path>
                <path d="M18.9707143,103.796319 C21.7285714,111.839264 25.8235714,121.152147 32.0078571,130.295706 C25.0714286,127.417178 18.9707143,123.946012 14.5414286,120.051534 C9.10928571,113.617178 4.68,108.198773 0.919285714,99.9018405 C0.919285714,99.8171779 8.27357143,102.441718 18.9707143,103.796319 Z" id="Shape" fill="#8FBBE3"></path>
                <path d="M18.72,103.796319 C21.4778571,111.839264 25.5728571,121.067485 31.59,130.12638 C24.8207143,127.332515 18.8871429,123.86135 14.5414286,120.051534 C9.10928571,113.617178 4.68,108.198773 0.919285714,99.9018405 C0.919285714,99.8171779 8.19,102.357055 18.72,103.796319 Z" id="Shape" fill="#91BCE3"></path>
                <path d="M18.4692857,103.711656 C21.1435714,111.669939 25.2385714,120.813497 31.2557143,129.872393 C24.6535714,127.078528 18.8871429,123.692025 14.625,119.966871 C9.19285714,113.532515 4.76357143,108.11411 1.00285714,99.8171779 C0.919285714,99.8171779 8.02285714,102.357055 18.4692857,103.711656 Z" id="Shape" fill="#93BDE3"></path>
                <path d="M18.135,103.711656 C20.8092857,111.669939 24.8207143,120.728834 30.7542857,129.78773 C24.3192857,127.078528 18.72,123.692025 14.5414286,120.051534 C9.10928571,113.617178 4.68,108.198773 0.919285714,99.9018405 C0.919285714,99.8171779 7.93928571,102.272393 18.135,103.711656 Z" id="Shape" fill="#93BDE3"></path>
                <path d="M17.8842857,103.711656 C20.5585714,111.585276 24.4864286,120.644172 30.3364286,129.618405 C24.0685714,126.909202 18.6364286,123.607362 14.5414286,120.051534 C9.10928571,113.617178 4.68,108.198773 0.919285714,99.9018405 C0.919285714,99.8171779 7.77214286,102.272393 17.8842857,103.711656 Z" id="Shape" fill="#95BEE4"></path>
                <path d="M17.6335714,103.626994 C20.3078571,111.415951 24.1521429,120.474847 29.9185714,129.364417 C23.9014286,126.655215 18.5528571,123.522699 14.625,120.051534 C9.19285714,113.617178 4.76357143,108.198773 1.00285714,99.9018405 C0.919285714,99.8171779 7.68857143,102.18773 17.6335714,103.626994 Z" id="Shape" fill="#97BFE4"></path>
                <path d="M17.2992857,103.626994 C19.89,111.415951 23.7342857,120.305521 29.4171429,129.195092 C23.5671429,126.570552 18.4692857,123.438037 14.5414286,120.051534 C9.10928571,113.617178 4.68,108.198773 0.919285714,99.9018405 C0.919285714,99.8171779 7.52142857,102.18773 17.2992857,103.626994 Z" id="Shape" fill="#99C0E4"></path>
                <path d="M17.0485714,103.542331 C19.6392857,111.246626 23.4,120.136196 28.9992857,129.025767 C23.3164286,126.401227 18.3857143,123.353374 14.5414286,120.051534 C9.10928571,113.617178 4.68,108.198773 0.919285714,99.9018405 C0.919285714,99.8171779 7.43785714,102.103067 17.0485714,103.542331 Z" id="Shape" fill="#9BC1E6"></path>
                <path d="M16.7978571,103.542331 C19.3885714,111.246626 23.1492857,120.051534 28.5814286,128.856442 C23.0657143,126.316564 18.3021429,123.353374 14.5414286,120.136196 C9.10928571,113.70184 4.68,108.283436 0.919285714,99.9865031 C0.919285714,99.8171779 7.27071429,102.103067 16.7978571,103.542331 Z" id="Shape" fill="#9AC0E5"></path>
                <path d="M16.5471429,103.457669 C19.0542857,111.077301 22.815,119.797546 28.1635714,128.602454 C22.815,126.062577 18.2185714,123.184049 14.5414286,120.051534 C9.10928571,113.617178 4.68,108.198773 0.919285714,99.9018405 C0.919285714,99.8171779 7.18714286,102.018405 16.5471429,103.457669 Z" id="Shape" fill="#9CC1E5"></path>
                <path d="M16.2128571,103.457669 C18.72,110.992638 22.3971429,119.712883 27.6621429,128.433129 C22.4807143,125.977914 18.0514286,123.099387 14.5414286,120.051534 C9.10928571,113.617178 4.68,108.198773 0.919285714,99.9018405 C0.919285714,99.8171779 7.02,102.018405 16.2128571,103.457669 Z" id="Shape" fill="#9EC2E6"></path>
                <path d="M15.9621429,103.373006 C18.4692857,110.907975 22.0628571,119.543558 27.2442857,128.179141 C22.3135714,125.808589 17.9678571,123.014724 14.5414286,120.051534 C9.10928571,113.617178 4.68,108.198773 0.919285714,99.9018405 C0.919285714,99.8171779 6.93642857,101.933742 15.9621429,103.373006 Z" id="Shape" fill="#A0C3E6"></path>
                <path d="M15.7114286,103.373006 C18.135,110.823313 21.7285714,119.374233 26.91,128.009816 C22.1464286,125.639264 17.9678571,122.930061 14.625,120.051534 C9.19285714,113.617178 4.76357143,108.198773 1.00285714,99.9018405 C0.919285714,99.8171779 6.76928571,101.933742 15.7114286,103.373006 Z" id="Shape" fill="#A2C4E6"></path>
                <path d="M15.3771429,103.288344 C17.8007143,110.653988 21.3107143,119.204908 26.4085714,127.755828 C21.8121429,125.469939 17.7171429,122.845399 14.5414286,120.051534 C9.10928571,113.617178 4.68,108.198773 0.919285714,99.9018405 C0.919285714,99.8171779 6.68571429,101.84908 15.3771429,103.288344 Z" id="Shape" fill="#A4C5E7"></path>
                <path d="M15.1264286,103.288344 C17.55,110.653988 20.9764286,119.035583 25.9907143,127.586503 C21.5614286,125.300613 17.6335714,122.760736 14.5414286,120.051534 C9.10928571,113.617178 4.68,108.198773 0.919285714,99.9018405 C0.919285714,99.8171779 6.51857143,101.84908 15.1264286,103.288344 Z" id="Shape" fill="#A4C5E7"></path>
                <path d="M14.8757143,103.203681 C17.2992857,110.484663 20.7257143,118.866258 25.5728571,127.332515 C21.3107143,125.131288 17.55,122.676074 14.5414286,120.051534 C9.10928571,113.617178 4.68,108.198773 0.919285714,99.9018405 C0.919285714,99.8171779 6.435,101.764417 14.8757143,103.203681 Z" id="Shape" fill="#A4C5E7"></path>
                <path d="M14.5414286,103.119018 C16.8814286,110.4 20.3078571,118.696933 25.0714286,127.078528 C20.9764286,124.961963 17.3828571,122.591411 14.4578571,120.051534 C9.02571429,113.617178 4.59642857,108.198773 0.835714286,99.9018405 C0.919285714,99.8171779 6.35142857,101.764417 14.5414286,103.119018 Z" id="Shape" fill="#A7C7E7"></path>
                <path d="M14.2907143,103.119018 C16.6307143,110.315337 19.9735714,118.527607 24.6535714,126.909202 C20.7257143,124.792638 17.2992857,122.506748 14.5414286,120.051534 C9.10928571,113.617178 4.68,108.198773 0.919285714,99.9018405 C0.919285714,99.8171779 6.18428571,101.679755 14.2907143,103.119018 Z" id="Shape" fill="#A7C7E7"></path>
                <path d="M14.04,103.034356 C16.38,110.146012 19.6392857,118.27362 24.3192857,126.570552 C20.6421429,124.53865 17.2992857,122.337423 14.625,119.966871 C9.19285714,113.532515 4.76357143,108.11411 1.00285714,99.8171779 C0.919285714,99.8171779 6.10071429,101.679755 14.04,103.034356 Z" id="Shape" fill="#A9C8E8"></path>
                <path d="M13.7892857,103.034356 C16.0457143,110.06135 19.305,118.188957 23.9014286,126.401227 C20.3914286,124.453988 17.2157143,122.337423 14.625,120.051534 C9.19285714,113.617178 4.76357143,108.198773 1.00285714,99.9018405 C0.919285714,99.8171779 5.93357143,101.595092 13.7892857,103.034356 Z" id="Shape" fill="#A9C6E7"></path>
                <path d="M13.455,102.949693 C15.7114286,109.976687 18.8871429,117.934969 23.4,126.147239 C20.0571429,124.284663 17.0485714,122.168098 14.5414286,120.051534 C9.10928571,113.617178 4.68,108.198773 0.919285714,99.9018405 C0.919285714,99.8171779 5.85,101.595092 13.455,102.949693 Z" id="Shape" fill="#ABC7E8"></path>
                <path d="M13.2042857,102.949693 C15.4607143,109.892025 18.5528571,117.850307 22.9821429,125.977914 C19.8064286,124.115337 16.965,122.168098 14.5414286,120.136196 C9.10928571,113.70184 4.68,108.283436 0.919285714,99.9865031 C0.919285714,99.8171779 5.68285714,101.510429 13.2042857,102.949693 Z" id="Shape" fill="#ADC8E8"></path>
                <path d="M12.9535714,102.865031 C15.1264286,109.722699 18.2185714,117.596319 22.5642857,125.723926 C19.5557143,123.946012 16.8814286,122.083436 14.5414286,120.051534 C9.10928571,113.617178 4.68,108.198773 0.919285714,99.9018405 C0.919285714,99.8171779 5.59928571,101.510429 12.9535714,102.865031 Z" id="Shape" fill="#ACC7E7"></path>
                <path d="M12.6192857,102.780368 C14.7921429,109.638037 17.8842857,117.426994 22.0628571,125.385276 C19.2214286,123.692025 16.6307143,121.91411 14.4578571,119.966871 C9.02571429,113.532515 4.59642857,108.11411 0.835714286,99.8171779 C0.919285714,99.8171779 5.51571429,101.425767 12.6192857,102.780368 Z" id="Shape" fill="#AEC8E7"></path>
                <path d="M12.3685714,102.780368 C14.5414286,109.553374 17.55,117.257669 21.7285714,125.215951 C19.0542857,123.607362 16.6307143,121.91411 14.625,120.136196 C9.19285714,113.70184 4.76357143,108.283436 1.00285714,99.9865031 C0.919285714,99.8171779 5.34857143,101.425767 12.3685714,102.780368 Z" id="Shape" fill="#B0C9E8"></path>
                <path d="M12.1178571,102.695706 C14.2071429,109.384049 17.2157143,117.003681 21.3107143,124.877301 C18.8035714,123.353374 16.5471429,121.744785 14.625,120.051534 C9.19285714,113.617178 4.76357143,108.198773 1.00285714,99.9018405 C0.919285714,99.8171779 5.265,101.341104 12.1178571,102.695706 Z" id="Shape" fill="#B0C7E7"></path>
                <path d="M11.7835714,102.611043 C13.8728571,109.214724 16.7978571,116.834356 20.8092857,124.623313 C18.4692857,123.184049 16.38,121.660123 14.5414286,120.051534 C9.10928571,113.617178 4.68,108.198773 0.919285714,99.9018405 C0.919285714,99.8171779 5.09785714,101.341104 11.7835714,102.611043 Z" id="Shape" fill="#B1C8E7"></path>
                <path d="M11.5328571,102.611043 C13.6221429,109.130061 16.4635714,116.665031 20.3914286,124.369325 C18.2185714,123.014724 16.2964286,121.57546 14.5414286,120.051534 C9.10928571,113.617178 4.68,108.198773 0.919285714,99.9018405 C0.919285714,99.8171779 5.01428571,101.256442 11.5328571,102.611043 Z" id="Shape" fill="#B1C8E7"></path>
                <path d="M11.2821429,102.52638 C13.2878571,109.045399 16.1292857,116.411043 19.9735714,124.115337 C17.9678571,122.845399 16.1292857,121.490798 14.5414286,120.051534 C9.10928571,113.617178 4.68,108.198773 0.919285714,99.9018405 C0.919285714,99.8171779 4.93071429,101.256442 11.2821429,102.52638 Z" id="Shape" fill="#B3C9E6"></path>
                <path d="M10.9478571,102.441718 C12.9535714,108.876074 15.7114286,116.241718 19.5557143,123.776687 C17.7171429,122.591411 16.0457143,121.321472 14.5414286,119.966871 C9.10928571,113.532515 4.68,108.11411 0.919285714,99.8171779 C0.919285714,99.8171779 4.76357143,101.171779 10.9478571,102.441718 Z" id="Shape" fill="#B3C7E5"></path>
                <path d="M10.6971429,102.441718 C12.7028571,108.791411 15.3771429,116.072393 19.1378571,123.522699 C17.4664286,122.422086 15.9621429,121.23681 14.5414286,120.051534 C9.10928571,113.617178 4.68,108.198773 0.919285714,99.9018405 C0.919285714,99.8171779 4.68,101.171779 10.6971429,102.441718 Z" id="Shape" fill="#B3C8E6"></path>
                <path d="M10.4464286,102.357055 C12.3685714,108.622086 15.0428571,115.818405 18.72,123.184049 C17.2157143,122.168098 15.8785714,121.067485 14.625,119.966871 C9.19285714,113.532515 4.76357143,108.11411 1.00285714,99.8171779 C0.919285714,99.8171779 4.59642857,101.087117 10.4464286,102.357055 Z" id="Shape" fill="#B5C8E6"></path>
                <path d="M10.1121429,102.272393 C12.0342857,108.452761 14.7085714,115.564417 18.2185714,122.930061 C16.8814286,121.998773 15.6278571,121.067485 14.5414286,120.051534 C9.10928571,113.617178 4.68,108.198773 0.919285714,99.9018405 C0.919285714,99.8171779 4.42928571,101.087117 10.1121429,102.272393 Z" id="Shape" fill="#B6C8E5"></path>
                <path d="M9.86142857,102.272393 C11.7835714,108.368098 14.3742857,115.395092 17.8007143,122.676074 C16.6307143,121.829448 15.5442857,120.982822 14.5414286,120.136196 C9.10928571,113.70184 4.68,108.283436 0.919285714,99.9865031 C0.919285714,99.8171779 4.34571429,101.002454 9.86142857,102.272393 Z" id="Shape" fill="#B6C8E5"></path>
                <path d="M9.61071429,102.18773 C11.4492857,108.198773 14.04,115.141104 17.3828571,122.337423 C16.38,121.57546 15.4607143,120.813497 14.5414286,120.051534 C9.10928571,113.617178 4.68,108.198773 0.919285714,99.9018405 C0.919285714,99.8171779 4.17857143,101.002454 9.61071429,102.18773 Z" id="Shape" fill="#B8C9E5"></path>
                <path d="M9.27642857,102.103067 C11.115,108.11411 13.6221429,114.887117 16.8814286,121.998773 C16.0457143,121.406135 15.21,120.728834 14.4578571,120.051534 C9.02571429,113.617178 4.59642857,108.198773 0.835714286,99.9018405 C0.919285714,99.8171779 4.095,100.917791 9.27642857,102.103067 Z" id="Shape" fill="#B7C7E4"></path>
                <path d="M9.02571429,102.018405 C10.8642857,107.944785 13.2878571,114.633129 16.4635714,121.57546 C15.795,121.067485 15.1264286,120.559509 14.5414286,119.966871 C9.10928571,113.532515 4.68,108.11411 0.919285714,99.8171779 C0.919285714,99.8171779 4.01142857,100.917791 9.02571429,102.018405 Z" id="Shape" fill="#B7C7E4"></path>
                <path d="M8.775,102.018405 C10.53,107.860123 12.9535714,114.463804 16.0457143,121.321472 C15.5442857,120.89816 15.0428571,120.474847 14.5414286,120.051534 C9.10928571,113.617178 4.68,108.198773 0.919285714,99.9018405 C0.919285714,99.8171779 3.84428571,100.917791 8.775,102.018405 Z" id="Shape" fill="#B9C7E3"></path>
                <path d="M8.44071429,101.933742 C10.1957143,107.690798 12.5357143,114.125153 15.6278571,120.982822 C15.2935714,120.644172 14.8757143,120.390184 14.5414286,120.051534 C9.10928571,113.617178 4.68,108.198773 0.919285714,99.9018405 C0.919285714,99.8171779 3.76071429,100.833129 8.44071429,101.933742 Z" id="Shape" fill="#BBC8E4"></path>
                <path d="M8.19,101.84908 C9.945,107.521472 12.2014286,113.871166 15.21,120.559509 C15.0428571,120.390184 14.7921429,120.220859 14.625,120.051534 C9.19285714,113.617178 4.76357143,108.198773 1.00285714,99.9018405 C0.919285714,99.8171779 3.67714286,100.833129 8.19,101.84908 Z" id="Shape" fill="#BBC8E4"></path>
                <path d="M7.93928571,101.764417 C9.61071429,107.267485 11.8671429,113.617178 14.7085714,120.136196 C14.625,120.051534 14.625,120.051534 14.5414286,119.966871 C9.10928571,113.532515 4.68,108.11411 0.919285714,99.8171779 C0.919285714,99.8171779 3.51,100.748466 7.93928571,101.764417 Z" id="Shape" fill="#BAC6E3"></path>
                <path d="M7.605,101.764417 C9.27642857,107.182822 11.3657143,113.278528 14.2071429,119.712883 C8.94214286,113.447853 4.59642857,108.029448 0.919285714,99.9018405 C0.919285714,99.8171779 3.42642857,100.748466 7.605,101.764417 Z" id="Shape" fill="#BCC7E3"></path>
                <path d="M7.35428571,101.679755 C8.94214286,106.928834 11.0314286,112.770552 13.6221429,118.95092 C8.60785714,112.939877 4.42928571,107.690798 0.919285714,99.8171779 C0.919285714,99.8171779 3.34285714,100.663804 7.35428571,101.679755 Z" id="Shape" fill="#BCC7E3"></path>
                <path d="M7.10357143,101.595092 C8.60785714,106.674847 10.6135714,112.347239 13.1207143,118.27362 C8.35714286,112.601227 4.34571429,107.352147 0.919285714,99.8171779 C0.919285714,99.8171779 3.17571429,100.663804 7.10357143,101.595092 Z" id="Shape" fill="#BEC8E3"></path>
                <path d="M6.76928571,101.510429 C8.27357143,106.420859 10.1121429,111.839264 12.5357143,117.596319 C8.02285714,112.177914 4.17857143,107.013497 0.919285714,99.8171779 C0.919285714,99.8171779 3.09214286,100.579141 6.76928571,101.510429 Z" id="Shape" fill="#BDC6E2"></path>
                <path d="M6.51857143,101.425767 C7.93928571,106.166871 9.77785714,111.415951 12.0342857,117.003681 C7.68857143,111.754601 4.095,106.844172 0.919285714,99.8171779 C0.919285714,99.8171779 3.00857143,100.579141 6.51857143,101.425767 Z" id="Shape" fill="#BFC7E2"></path>
                <path d="M79.8107143,30.7325153 C70.8685714,36.2355828 60.0042857,45.7177914 52.4828571,61.5496933 C50.4771429,39.7067485 56.9957143,22.1815951 56.9957143,22.1815951 C58.2492857,19.1337423 59.67,16.5092025 61.1742857,14.2233129 C66.6064286,9.73619632 73.125,5.33374233 80.6464286,1.52392638 C78.4735714,9.99018405 77.3871429,20.0650307 79.8107143,30.7325153 Z" id="Shape" fill="#E8E33A"></path>
                <path d="M79.8107143,30.4785276 C70.8685714,35.9815951 60.0042857,45.3791411 52.4828571,61.1263804 C50.6442857,39.5374233 56.9957143,22.1815951 56.9957143,22.1815951 C58.3328571,19.0490798 59.7535714,16.3398773 61.3414286,13.9693252 C66.7735714,9.48220859 73.2085714,5.16441718 80.73,1.4392638 C78.4735714,9.90552147 77.3871429,19.8957055 79.8107143,30.4785276 Z" id="Shape" fill="#EAE439"></path>
                <path d="M79.7271429,30.3092025 C70.785,35.8122699 59.9207143,45.1251534 52.3992857,60.7877301 C50.6442857,39.3680982 56.9121429,22.2662577 56.9121429,22.2662577 C58.2492857,18.9644172 59.8371429,16.1705521 61.425,13.8 C66.8571429,9.39754601 73.2085714,5.0797546 80.6464286,1.35460123 C78.5571429,9.73619632 77.3871429,19.6417178 79.7271429,30.3092025 Z" id="Shape" fill="#EAE439"></path>
                <path d="M79.6435714,30.0552147 C70.785,35.5582822 59.9207143,44.8711656 52.3992857,60.3644172 C50.8114286,39.1141104 56.9957143,22.2662577 56.9957143,22.2662577 C58.4164286,18.8797546 60.0042857,16.001227 61.7592857,13.5460123 C67.1078571,9.14355828 73.4592857,4.91042945 80.8135714,1.26993865 C78.5571429,9.56687117 77.4707143,19.4723926 79.6435714,30.0552147 Z" id="Shape" fill="#EAE439"></path>
                <path d="M79.6435714,29.8858896 C70.785,35.3042945 60.0042857,44.6171779 52.3992857,59.9411043 C50.895,38.8601227 56.9957143,22.2662577 56.9957143,22.2662577 C58.4164286,18.7104294 60.0878571,15.7472393 61.9264286,13.2920245 C67.275,8.97423313 73.5428571,4.74110429 80.8971429,1.18527607 C78.5571429,9.39754601 77.4707143,19.3030675 79.6435714,29.8858896 Z" id="Shape" fill="#EAE439"></path>
                <path d="M79.56,29.6319018 C70.7014286,35.0503067 59.9207143,44.2785276 52.3157143,59.5177914 C50.895,38.6907975 56.9957143,22.2662577 56.9957143,22.2662577 C58.5,18.6257669 60.255,15.5779141 62.0935714,13.0380368 C67.3585714,8.80490798 73.6264286,4.65644172 80.8971429,1.01595092 C78.5571429,9.31288344 77.4707143,19.1337423 79.56,29.6319018 Z" id="Shape" fill="#EAE439"></path>
                <path d="M79.56,29.3779141 C70.7014286,34.796319 60.0042857,43.9398773 52.3157143,59.0944785 C50.9785714,38.4368098 56.9957143,22.2662577 56.9957143,22.2662577 C58.5835714,18.5411043 60.3385714,15.408589 62.2607143,12.7840491 C67.5257143,8.55092025 73.71,4.48711656 80.8971429,0.931288344 C78.6407143,9.14355828 77.4707143,18.8797546 79.56,29.3779141 Z" id="Shape" fill="#EAE439"></path>
                <path d="M79.4764286,29.208589 C70.6178571,34.5423313 59.9207143,43.6858896 52.2321429,58.6711656 C51.0621429,38.1828221 56.9121429,22.1815951 56.9121429,22.1815951 C58.5,18.2871166 60.4221429,15.0699387 62.3442857,12.4453988 C67.6092857,8.29693252 73.71,4.23312883 80.73,0.76196319 C80.73,0.76196319 80.73,0.846625767 80.73,0.846625767 C78.6407143,9.05889571 77.4707143,18.795092 79.4764286,29.208589 Z" id="Shape" fill="#EAE439"></path>
                <path d="M79.4764286,28.9546012 C70.7014286,34.2883436 60.0042857,43.3472393 52.3157143,58.2478528 C51.2292857,38.0134969 56.9957143,22.1815951 56.9957143,22.1815951 C58.6671429,18.202454 60.5892857,14.9006135 62.6785714,12.191411 C67.86,8.12760736 73.8771429,4.14846626 80.8135714,0.76196319 C80.8971429,0.76196319 80.9807143,0.846625767 80.9807143,0.931288344 C78.6407143,8.97423313 77.4707143,18.6257669 79.4764286,28.9546012 Z" id="Shape" fill="#EAE439"></path>
                <path d="M79.3928571,28.7006135 C70.6178571,34.0343558 59.9207143,43.008589 52.2321429,57.8245399 C51.2292857,37.7595092 56.9957143,22.1815951 56.9957143,22.1815951 C58.7507143,18.0331288 60.7564286,14.6466258 62.8457143,11.8527607 C67.9435714,7.87361963 73.7935714,3.9791411 80.5628571,0.592638037 C80.73,0.592638037 80.8135714,0.677300613 80.8135714,0.76196319 C78.6407143,8.97423313 77.4707143,18.4564417 79.3928571,28.7006135 Z" id="Shape" fill="#ECE53D"></path>
                <path d="M79.3928571,28.5312883 C70.6178571,33.8650307 60.0042857,42.7546012 52.2321429,57.401227 C51.3128571,37.590184 56.9957143,22.1815951 56.9957143,22.1815951 C58.7507143,17.8638037 60.9235714,14.392638 63.0964286,11.598773 C68.1107143,7.70429448 73.8771429,3.9791411 80.4792857,0.592638037 C80.8135714,0.592638037 80.8971429,0.677300613 80.8971429,0.76196319 C78.7242857,8.88957055 77.5542857,18.3717791 79.3928571,28.5312883 Z" id="Shape" fill="#ECE53D"></path>
                <path d="M79.3092857,28.2773006 C70.6178571,33.5263804 60.0042857,42.4159509 52.1485714,56.9779141 C51.3964286,37.3361963 56.9121429,22.1815951 56.9121429,22.1815951 C58.7507143,17.7791411 60.9235714,14.2233129 63.2635714,11.3447853 C68.1942857,7.53496933 73.7935714,3.89447853 80.2285714,0.677300613 C80.6464286,0.677300613 80.8971429,0.76196319 80.8135714,0.846625767 C78.7242857,8.80490798 77.5542857,18.202454 79.3092857,28.2773006 Z" id="Shape" fill="#ECE53D"></path>
                <path d="M79.3092857,28.0233129 C70.6178571,33.2723926 60.0042857,42.0773006 52.2321429,56.5546012 C51.5635714,37.0822086 56.9957143,22.1815951 56.9957143,22.1815951 C58.9178571,17.609816 61.1742857,13.9693252 63.5142857,11.0907975 C68.2778571,7.45030675 73.7935714,3.80981595 80.0614286,0.677300613 C80.6464286,0.677300613 80.8971429,0.76196319 80.8971429,0.846625767 C78.7242857,8.80490798 77.5542857,18.0331288 79.3092857,28.0233129 Z" id="Shape" fill="#ECE53D"></path>
                <path d="M79.2257143,27.8539877 C70.5342857,33.1030675 60.0042857,41.9079755 52.1485714,56.2159509 C51.5635714,36.997546 56.9957143,22.2662577 56.9957143,22.2662577 C58.9178571,17.5251534 61.3414286,13.8 63.765,10.8368098 C68.445,7.2809816 73.7935714,3.80981595 79.8107143,0.76196319 C80.4792857,0.677300613 80.8971429,0.76196319 80.8971429,0.931288344 C78.7242857,8.7202454 77.5542857,17.9484663 79.2257143,27.8539877 Z" id="Shape" fill="#ECE53D"></path>
                <path d="M79.2257143,27.6 C70.6178571,32.7644172 60.0042857,41.5693252 52.1485714,55.7079755 C51.6471429,36.6588957 56.9957143,22.1815951 56.9957143,22.1815951 C59.0014286,17.2711656 61.5085714,13.4613497 64.0157143,10.4981595 C68.5285714,7.02699387 73.71,3.72515337 79.56,0.76196319 C80.3957143,0.677300613 80.8971429,0.76196319 80.8971429,0.931288344 C78.7242857,8.63558282 77.5542857,17.7791411 79.2257143,27.6 Z" id="Shape" fill="#ECE53D"></path>
                <path d="M79.1421429,27.3460123 C70.5342857,32.5104294 60.0042857,41.2306748 52.1485714,55.2846626 C51.7307143,36.4895706 56.9957143,22.1815951 56.9957143,22.1815951 C59.085,17.1018405 61.6757143,13.207362 64.2664286,10.1595092 C68.6957143,6.85766871 73.71,3.6404908 79.3092857,0.677300613 C80.3121429,0.50797546 80.8971429,0.592638037 80.8971429,0.76196319 C78.8078571,8.55092025 77.6378571,17.609816 79.1421429,27.3460123 Z" id="Shape" fill="#ECE53D"></path>
                <path d="M79.1421429,27.0920245 C70.5342857,32.2564417 60.0878571,40.8920245 52.1485714,54.8613497 C51.8142857,36.2355828 56.9957143,22.1815951 56.9957143,22.1815951 C59.1685714,16.9325153 61.8428571,12.9533742 64.6007143,9.8208589 C68.8628571,6.60368098 73.71,3.55582822 79.0585714,0.76196319 C80.2285714,0.50797546 80.9807143,0.592638037 80.8971429,0.846625767 C78.8078571,8.55092025 77.6378571,17.5251534 79.1421429,27.0920245 Z" id="Shape" fill="#ECE53D"></path>
                <path d="M79.1421429,26.9226994 C70.5342857,32.002454 60.0878571,40.6380368 52.1485714,54.4380368 C51.8978571,36.0662577 56.9957143,22.1815951 56.9957143,22.1815951 C59.2521429,16.7631902 62.01,12.6147239 64.8514286,9.56687117 C68.9464286,6.5190184 73.6264286,3.55582822 78.7242857,0.846625767 C80.145,0.50797546 80.9807143,0.592638037 80.8971429,0.846625767 C78.8078571,8.46625767 77.6378571,17.3558282 79.1421429,26.9226994 Z" id="Shape" fill="#EDE63D"></path>
                <path d="M79.0585714,26.6687117 C70.5342857,31.7484663 60.0878571,40.2993865 52.1485714,54.0147239 C51.9814286,35.8122699 56.9957143,22.1815951 56.9957143,22.1815951 C59.3357143,16.593865 62.1771429,12.3607362 65.1857143,9.22822086 C69.1135714,6.34969325 73.5428571,3.55582822 78.39,0.931288344 C79.9778571,0.50797546 80.9807143,0.592638037 80.8971429,0.846625767 C78.8078571,8.38159509 77.6378571,17.1865031 79.0585714,26.6687117 Z" id="Shape" fill="#EDE640"></path>
                <path d="M79.0585714,26.4147239 C70.5342857,31.4944785 60.0878571,39.9607362 52.1485714,53.591411 C52.065,35.6429448 56.9957143,22.1815951 56.9957143,22.1815951 C59.4192857,16.3398773 62.4278571,12.0220859 65.52,8.88957055 C69.2807143,6.1803681 73.4592857,3.47116564 78.0557143,1.01595092 C79.8942857,0.50797546 80.9807143,0.592638037 80.8971429,0.846625767 C78.8078571,8.38159509 77.7214286,17.1018405 79.0585714,26.4147239 Z" id="Shape" fill="#EDE640"></path>
                <path d="M78.975,26.2453988 C70.5342857,31.3251534 60.0878571,39.7067485 52.065,53.1680982 C52.065,35.3889571 56.9121429,22.2662577 56.9121429,22.2662577 C59.4192857,16.2552147 62.595,11.8527607 65.7707143,8.63558282 C69.3642857,6.09570552 73.2921429,3.55582822 77.6378571,1.18527607 C79.6435714,0.592638037 80.8971429,0.592638037 80.8971429,0.931288344 C78.8914286,8.29693252 77.7214286,16.9325153 78.975,26.2453988 Z" id="Shape" fill="#EDE640"></path>
                <path d="M78.975,25.991411 C70.5342857,30.9865031 60.1714286,39.3680982 52.1485714,52.7447853 C52.2321429,35.2196319 56.9957143,22.2662577 56.9957143,22.2662577 C59.5864286,16.001227 62.9292857,11.4294479 66.1885714,8.21226994 C69.5314286,5.84171779 73.2085714,3.47116564 77.22,1.26993865 C79.4764286,0.592638037 80.8971429,0.592638037 80.8971429,0.846625767 C78.8914286,8.21226994 77.7214286,16.7631902 78.975,25.991411 Z" id="Shape" fill="#EDE640"></path>
                <path d="M78.975,25.7374233 C70.5342857,30.7325153 60.1714286,39.0294479 52.1485714,52.3214724 C52.3157143,34.9656442 56.9957143,22.2662577 56.9957143,22.2662577 C59.67,15.7472393 63.18,11.0907975 66.6064286,7.87361963 C69.7821429,5.67239264 73.125,3.55582822 76.8021429,1.4392638 C79.3092857,0.592638037 80.9807143,0.592638037 80.8971429,0.846625767 C78.8914286,8.12760736 77.7214286,16.6785276 78.975,25.7374233 Z" id="Shape" fill="#EDE640"></path>
                <path d="M78.8914286,25.4834356 C70.5342857,30.4785276 60.1714286,38.6907975 52.1485714,51.8134969 C52.3992857,34.7116564 56.9957143,22.1815951 56.9957143,22.1815951 C59.8371429,15.408589 63.4307143,10.6674847 67.0242857,7.36564417 C69.8657143,5.33374233 72.9578571,3.38650307 76.3007143,1.52392638 C79.0585714,0.50797546 80.9807143,0.50797546 80.8971429,0.76196319 C78.8914286,8.12760736 77.7214286,16.5092025 78.8914286,25.4834356 Z" id="Shape" fill="#EDE640"></path>
                <path d="M78.8914286,25.3141104 C70.5342857,30.3092025 60.255,38.4368098 52.1485714,51.4748466 C52.3992857,34.6269939 56.9957143,22.2662577 56.9957143,22.2662577 C59.9207143,15.1546012 63.8485714,10.2441718 67.5257143,6.94233129 C70.1164286,5.16441718 72.7907143,3.47116564 75.7157143,1.77791411 C78.8078571,0.50797546 80.8971429,0.50797546 80.8135714,0.846625767 C78.8914286,8.04294479 77.805,16.3398773 78.8914286,25.3141104 Z" id="Shape" fill="#EDE644"></path>
                <path d="M78.8914286,25.0601227 C70.5342857,29.9705521 60.255,38.0981595 52.1485714,51.0515337 C52.4828571,34.3730061 56.9957143,22.2662577 56.9957143,22.2662577 C60.0878571,14.8159509 64.1828571,9.73619632 68.1107143,6.5190184 C70.2835714,4.99509202 72.6235714,3.55582822 75.1307143,2.11656442 C78.5571429,0.592638037 80.9807143,0.50797546 80.8971429,0.931288344 C78.975,7.95828221 77.805,16.1705521 78.8914286,25.0601227 Z" id="Shape" fill="#EFE744"></path>
                <path d="M78.8078571,24.806135 C70.5342857,29.7165644 60.255,37.8441718 52.1485714,50.6282209 C52.5664286,34.203681 56.9957143,22.2662577 56.9957143,22.2662577 C60.255,14.3079755 64.6842857,9.14355828 68.8628571,5.92638037 C70.6178571,4.74110429 72.4564286,3.6404908 74.3785714,2.45521472 C78.2228571,0.592638037 80.9807143,0.50797546 80.8971429,0.931288344 C78.975,7.87361963 77.805,16.0858896 78.8078571,24.806135 Z" id="Shape" fill="#EFE744"></path>
                <path d="M78.8078571,24.5521472 C70.5342857,29.4625767 60.3385714,37.5055215 52.1485714,50.1202454 C52.65,33.8650307 56.9957143,22.1815951 56.9957143,22.1815951 C60.5892857,13.6306748 65.4364286,8.29693252 69.8657143,5.0797546 C70.9521429,4.40245399 72.1221429,3.6404908 73.2921429,2.96319018 C77.7214286,0.592638037 80.9807143,0.423312883 80.8971429,0.846625767 C78.975,7.87361963 77.805,15.9165644 78.8078571,24.5521472 Z" id="Shape" fill="#EFE744"></path>
                <path d="M78.8078571,24.2981595 C70.5342857,29.1239264 60.3385714,37.1668712 52.2321429,49.6969325 C52.8171429,33.6957055 56.9957143,22.1815951 56.9957143,22.1815951 C65.3528571,1.94723926 81.0642857,-0.0846625767 80.8971429,0.846625767 C78.975,7.78895706 77.8885714,15.7472393 78.8078571,24.2981595 Z" id="Shape" fill="#EFE847"></path>
                <path d="M78.7242857,24.1288344 C70.5342857,28.9546012 60.3385714,36.9128834 52.1485714,49.3582822 C52.7335714,33.6110429 56.9121429,22.2662577 56.9121429,22.2662577 C65.3528571,1.94723926 81.0642857,-0.0846625767 80.8971429,0.846625767 C78.975,7.70429448 77.8885714,15.6625767 78.7242857,24.1288344 Z" id="Shape" fill="#F1E847"></path>
                <path d="M78.7242857,23.8748466 C70.5342857,28.7006135 60.4221429,36.5742331 52.2321429,48.9349693 C52.9007143,33.3570552 56.9957143,22.2662577 56.9957143,22.2662577 C65.3528571,1.94723926 81.0642857,-0.0846625767 80.8971429,0.846625767 C79.0585714,7.6196319 77.8885714,15.4932515 78.7242857,23.8748466 Z" id="Shape" fill="#F1E847"></path>
                <path d="M78.7242857,23.6208589 C70.6178571,28.3619632 60.4221429,36.2355828 52.2321429,48.4269939 C52.9842857,33.1030675 56.9957143,22.1815951 56.9957143,22.1815951 C65.3528571,1.94723926 81.0642857,-0.0846625767 80.8971429,0.846625767 C79.0585714,7.6196319 77.8885714,15.3239264 78.7242857,23.6208589 Z" id="Shape" fill="#F1E84A"></path>
                <path d="M78.6407143,23.3668712 C70.5342857,28.1079755 60.4221429,35.8969325 52.2321429,48.003681 C52.9842857,32.9337423 56.9957143,22.1815951 56.9957143,22.1815951 C65.3528571,1.94723926 81.0642857,-0.0846625767 80.8971429,0.846625767 C79.0585714,7.53496933 77.9721429,15.1546012 78.6407143,23.3668712 Z" id="Shape" fill="#F1E84A"></path>
                <path d="M78.6407143,23.1128834 C70.5342857,27.8539877 60.5057143,35.5582822 52.3157143,47.5803681 C53.1514286,32.6797546 56.9957143,22.1815951 56.9957143,22.1815951 C65.3528571,1.94723926 81.0642857,-0.0846625767 80.8971429,0.846625767 C79.0585714,7.45030675 77.9721429,15.0699387 78.6407143,23.1128834 Z" id="Shape" fill="#F1E84A"></path>
                <path d="M78.6407143,22.9435583 C70.6178571,27.6846626 60.5892857,35.3042945 52.3157143,47.2417178 C53.235,32.595092 56.9957143,22.2662577 56.9957143,22.2662577 C65.3528571,1.94723926 81.0642857,-0.0846625767 80.8971429,0.846625767 C79.0585714,7.36564417 77.9721429,14.9006135 78.6407143,22.9435583 Z" id="Shape" fill="#F1E84D"></path>
                <path d="M78.6407143,22.6895706 C70.6178571,27.3460123 60.5892857,34.9656442 52.3157143,46.8184049 C53.235,32.4257669 56.9957143,22.2662577 56.9957143,22.2662577 C65.3528571,1.94723926 81.0642857,-0.0846625767 80.8971429,0.846625767 C79.1421429,7.36564417 77.9721429,14.7312883 78.6407143,22.6895706 Z" id="Shape" fill="#F1E84D"></path>
                <path d="M78.6407143,22.4355828 C70.6178571,27.0920245 60.6728571,34.6269939 52.3157143,46.3104294 C53.3185714,32.0871166 56.9121429,22.1815951 56.9121429,22.1815951 C65.3528571,1.94723926 81.0642857,-0.0846625767 80.8971429,0.846625767 C79.1421429,7.2809816 78.0557143,14.5619632 78.6407143,22.4355828 Z" id="Shape" fill="#F1E950"></path>
                <path d="M78.5571429,22.1815951 C70.6178571,26.8380368 60.6728571,34.2883436 52.3157143,45.8871166 C53.3185714,31.9177914 56.9121429,22.1815951 56.9121429,22.1815951 C65.3528571,1.94723926 81.0642857,-0.0846625767 80.8971429,0.846625767 C79.1421429,7.19631902 78.0557143,14.4773006 78.5571429,22.1815951 Z" id="Shape" fill="#F1E950"></path>
                <path d="M78.5571429,21.9276074 C70.6178571,26.4993865 60.6728571,33.9496933 52.3992857,45.4638037 C53.4857143,31.7484663 56.9957143,22.1815951 56.9957143,22.1815951 C65.3528571,1.94723926 81.0642857,-0.0846625767 80.8971429,0.846625767 C79.1421429,7.11165644 78.0557143,14.3079755 78.5571429,21.9276074 Z" id="Shape" fill="#F1E952"></path>
                <path d="M78.5571429,21.7582822 C70.7014286,26.3300613 60.7564286,33.6957055 52.4828571,45.1251534 C53.5692857,31.5791411 56.9957143,22.2662577 56.9957143,22.2662577 C65.3528571,1.94723926 81.0642857,-0.0846625767 80.8971429,0.846625767 C79.1421429,7.02699387 78.1392857,14.1386503 78.5571429,21.7582822 Z" id="Shape" fill="#F1E952"></path>
                <path d="M78.5571429,21.5042945 C70.7014286,26.0760736 60.84,33.3570552 52.4828571,44.7018405 C53.5692857,31.409816 56.9957143,22.2662577 56.9957143,22.2662577 C65.3528571,1.94723926 81.0642857,-0.0846625767 80.8971429,0.846625767 C79.2257143,7.02699387 78.1392857,13.9693252 78.5571429,21.5042945 Z" id="Shape" fill="#F1E955"></path>
                <path d="M78.5571429,21.2503067 C70.7014286,25.7374233 60.9235714,33.1030675 52.5664286,44.2785276 C53.7364286,31.2404908 56.9957143,22.2662577 56.9957143,22.2662577 C65.3528571,1.94723926 81.0642857,-0.0846625767 80.8971429,0.846625767 C79.2257143,6.94233129 78.1392857,13.8 78.5571429,21.2503067 Z" id="Shape" fill="#F1E955"></path>
                <path d="M78.5571429,20.996319 C70.785,25.4834356 60.9235714,32.7644172 52.5664286,43.7705521 C53.7364286,30.9018405 56.9957143,22.1815951 56.9957143,22.1815951 C65.3528571,1.94723926 81.0642857,-0.0846625767 80.8971429,0.846625767 C79.2257143,6.85766871 78.1392857,13.7153374 78.5571429,20.996319 Z" id="Shape" fill="#F2EA57"></path>
                <path d="M78.4735714,20.7423313 C70.7014286,25.2294479 60.9235714,32.4257669 52.5664286,43.3472393 C53.82,30.7325153 56.9121429,22.1815951 56.9121429,22.1815951 C65.3528571,1.94723926 81.0642857,-0.0846625767 80.8971429,0.846625767 C79.2257143,6.77300613 78.2228571,13.5460123 78.4735714,20.7423313 Z" id="Shape" fill="#F2EA57"></path>
                <path d="M78.4735714,20.4883436 C70.785,24.9754601 61.0071429,32.0871166 52.65,42.9239264 C53.9035714,30.5631902 56.9957143,22.1815951 56.9957143,22.1815951 C65.3528571,1.94723926 81.0642857,-0.0846625767 80.8971429,0.846625767 C79.3092857,6.77300613 78.2228571,13.3766871 78.4735714,20.4883436 Z" id="Shape" fill="#F2EA5A"></path>
                <path d="M78.4735714,20.2343558 C70.785,24.6368098 61.0907143,31.7484663 52.65,42.5006135 C53.9035714,30.393865 56.9121429,22.1815951 56.9121429,22.1815951 C65.3528571,1.94723926 81.0642857,-0.0846625767 80.8971429,0.846625767 C79.3092857,6.68834356 78.2228571,13.207362 78.4735714,20.2343558 Z" id="Shape" fill="#F2EA5C"></path>
                <path d="M78.4735714,19.9803681 C70.785,24.3828221 61.0907143,31.409816 52.7335714,42.0773006 C54.0707143,30.1398773 56.9957143,22.1815951 56.9957143,22.1815951 C65.3528571,1.94723926 81.0642857,-0.0846625767 80.8971429,0.846625767 C79.3092857,6.60368098 78.3064286,13.0380368 78.4735714,19.9803681 Z" id="Shape" fill="#F2EA5C"></path>
                <path d="M78.4735714,19.8110429 C70.8685714,24.2134969 61.1742857,31.1558282 52.8171429,41.7386503 C54.1542857,30.0552147 56.9957143,22.2662577 56.9957143,22.2662577 C65.3528571,1.94723926 81.0642857,-0.0846625767 80.8971429,0.846625767 C79.3092857,6.5190184 78.3064286,12.9533742 78.4735714,19.8110429 Z" id="Shape" fill="#F2EA5F"></path>
                <path d="M78.4735714,19.5570552 C70.8685714,23.8748466 61.2578571,30.8171779 52.8171429,41.3153374 C54.1542857,29.8858896 56.9957143,22.2662577 56.9957143,22.2662577 C65.3528571,1.94723926 81.0642857,-0.0846625767 80.8971429,0.846625767 C79.3092857,6.43435583 78.3064286,12.7840491 78.4735714,19.5570552 Z" id="Shape" fill="#F2EA61"></path>
                <path d="M78.4735714,19.3030675 C70.8685714,23.6208589 61.2578571,30.4785276 52.9007143,40.8920245 C54.2378571,29.7165644 56.9957143,22.2662577 56.9957143,22.2662577 C65.3528571,1.94723926 81.0642857,-0.0846625767 80.8971429,0.846625767 C79.3928571,6.43435583 78.3064286,12.6147239 78.4735714,19.3030675 Z" id="Shape" fill="#F4EB63"></path>
                <path d="M78.4735714,19.0490798 C70.9521429,23.3668712 61.3414286,30.1398773 52.9842857,40.4687117 C54.405,29.4625767 56.9957143,22.2662577 56.9957143,22.2662577 C65.3528571,1.94723926 81.0642857,-0.0846625767 80.8971429,0.846625767 C79.3928571,6.34969325 78.39,12.4453988 78.4735714,19.0490798 Z" id="Shape" fill="#F4EC65"></path>
                <path d="M78.4735714,18.795092 C70.9521429,23.0282209 61.425,29.801227 52.9842857,40.0453988 C54.405,29.2932515 56.9957143,22.2662577 56.9957143,22.2662577 C65.3528571,1.94723926 81.0642857,-0.0846625767 80.8971429,0.846625767 C79.3928571,6.26503067 78.39,12.2760736 78.4735714,18.795092 Z" id="Shape" fill="#F4EC6A"></path>
                <path d="M78.4735714,18.5411043 C71.0357143,22.7742331 61.5085714,29.5472393 53.0678571,39.6220859 C54.4885714,29.1239264 56.9957143,22.1815951 56.9957143,22.1815951 C65.3528571,1.94723926 81.0642857,-0.0846625767 80.8971429,0.846625767 C79.3928571,6.1803681 78.39,12.191411 78.4735714,18.5411043 Z" id="Shape" fill="#F4EC6C"></path>
                <path d="M78.4735714,18.2871166 C71.0357143,22.5202454 61.5921429,29.208589 53.1514286,39.198773 C54.5721429,28.9546012 56.9957143,22.1815951 56.9957143,22.1815951 C65.3528571,1.94723926 81.0642857,-0.0846625767 80.8971429,0.846625767 C79.4764286,6.09570552 78.4735714,12.0220859 78.4735714,18.2871166 Z" id="Shape" fill="#F4EC6C"></path>
                <path d="M78.4735714,18.0331288 C71.0357143,22.1815951 61.5921429,28.8699387 53.1514286,38.7754601 C54.5721429,28.7006135 56.9957143,22.1815951 56.9957143,22.1815951 C65.3528571,1.94723926 81.0642857,-0.0846625767 80.8971429,0.846625767 C79.4764286,6.01104294 78.4735714,11.8527607 78.4735714,18.0331288 Z" id="Shape" fill="#F4EC70"></path>
                <path d="M78.4735714,17.7791411 C71.1192857,21.9276074 61.6757143,28.5312883 53.235,38.3521472 C54.6557143,28.5312883 56.9957143,22.1815951 56.9957143,22.1815951 C65.3528571,1.94723926 81.0642857,-0.0846625767 80.8971429,0.846625767 C79.4764286,6.01104294 78.4735714,11.6834356 78.4735714,17.7791411 Z" id="Shape" fill="#F4EC70"></path>
                <path d="M78.4735714,17.5251534 C71.1192857,21.6736196 61.7592857,28.192638 53.3185714,37.9288344 C54.7392857,28.3619632 56.9957143,22.1815951 56.9957143,22.1815951 C65.3528571,1.94723926 81.0642857,-0.0846625767 80.8971429,0.846625767 C79.4764286,5.92638037 78.5571429,11.5141104 78.4735714,17.5251534 Z" id="Shape" fill="#F4ED74"></path>
                <path d="M78.4735714,17.2711656 C71.2028571,21.3349693 61.8428571,27.8539877 53.3185714,37.5055215 C54.7392857,28.192638 56.9957143,22.1815951 56.9957143,22.1815951 C65.3528571,1.94723926 81.0642857,-0.0846625767 80.8971429,0.846625767 C79.4764286,5.84171779 78.5571429,11.3447853 78.4735714,17.2711656 Z" id="Shape" fill="#F6EE76"></path>
                <path d="M78.4735714,17.0171779 C71.2028571,21.0809816 61.8428571,27.5153374 53.4021429,37.0822086 C54.8228571,28.0233129 56.9957143,22.1815951 56.9957143,22.1815951 C65.3528571,1.94723926 81.0642857,-0.0846625767 80.8971429,0.846625767 C79.56,5.75705521 78.5571429,11.2601227 78.4735714,17.0171779 Z" id="Shape" fill="#F6EE78"></path>
                <path d="M78.4735714,16.7631902 C71.2028571,20.8269939 61.9264286,27.2613497 53.4857143,36.7435583 C54.9064286,27.8539877 56.9957143,22.2662577 56.9957143,22.2662577 C65.3528571,1.94723926 81.0642857,-0.0846625767 80.8971429,0.846625767 C79.56,5.67239264 78.6407143,11.0907975 78.4735714,16.7631902 Z" id="Shape" fill="#F6EE7A"></path>
                <path d="M78.4735714,16.5092025 C71.2864286,20.5730061 62.01,26.9226994 53.4857143,36.3202454 C54.9064286,27.6846626 56.9121429,22.2662577 56.9121429,22.2662577 C65.3528571,1.94723926 81.0642857,-0.0846625767 80.8971429,0.846625767 C79.56,5.58773006 78.6407143,10.9214724 78.4735714,16.5092025 Z" id="Shape" fill="#F6EE7C"></path>
                <path d="M78.4735714,16.2552147 C71.2864286,20.2343558 62.0935714,26.5840491 53.5692857,35.8969325 C54.99,27.5153374 56.9121429,22.1815951 56.9121429,22.1815951 C65.3528571,1.94723926 81.0642857,-0.0846625767 80.8971429,0.846625767 C79.56,5.58773006 78.6407143,10.7521472 78.4735714,16.2552147 Z" id="Shape" fill="#F6EE80"></path>
                <path d="M78.4735714,16.001227 C71.37,19.9803681 62.0935714,26.2453988 53.6528571,35.4736196 C55.0735714,27.3460123 56.9957143,22.1815951 56.9957143,22.1815951 C65.3528571,1.94723926 81.0642857,-0.0846625767 80.8971429,0.846625767 C79.6435714,5.50306748 78.7242857,10.5828221 78.4735714,16.001227 Z" id="Shape" fill="#F7F082"></path>
                <path d="M78.4735714,15.7472393 C71.37,19.7263804 62.1771429,25.9067485 53.7364286,35.0503067 C55.1571429,27.1766871 56.9957143,22.1815951 56.9957143,22.1815951 C65.3528571,1.94723926 81.0642857,-0.0846625767 80.8971429,0.846625767 C79.6435714,5.41840491 78.7242857,10.4134969 78.4735714,15.7472393 Z" id="Shape" fill="#F7F082"></path>
                <path d="M78.4735714,15.4932515 C71.4535714,19.4723926 62.3442857,25.5680982 53.82,34.6269939 C55.2407143,26.9226994 56.9957143,22.1815951 56.9957143,22.1815951 C65.3528571,1.94723926 81.0642857,-0.0846625767 80.8971429,0.846625767 C79.6435714,5.33374233 78.7242857,10.2441718 78.4735714,15.4932515 Z" id="Shape" fill="#F7F086"></path>
                <path d="M78.5571429,15.2392638 C71.5371429,19.1337423 62.4278571,25.2294479 53.9035714,34.203681 C55.3242857,26.7533742 56.9957143,22.1815951 56.9957143,22.1815951 C65.3528571,1.94723926 81.0642857,-0.0846625767 80.8971429,0.846625767 C79.6435714,5.24907975 78.8078571,10.0748466 78.5571429,15.2392638 Z" id="Shape" fill="#F7F088"></path>
                <path d="M78.5571429,14.9852761 C71.5371429,18.8797546 62.4278571,24.9754601 53.9871429,33.8650307 C55.3242857,26.6687117 56.9957143,22.1815951 56.9957143,22.1815951 C65.3528571,1.94723926 81.0642857,-0.0846625767 80.8971429,0.846625767 C79.7271429,5.16441718 78.8078571,9.99018405 78.5571429,14.9852761 Z" id="Shape" fill="#F7F08A"></path>
                <path d="M78.5571429,14.7312883 C71.6207143,18.6257669 62.5114286,24.6368098 54.0707143,33.4417178 C55.4078571,26.4993865 56.9957143,22.1815951 56.9957143,22.1815951 C65.3528571,1.94723926 81.0642857,-0.0846625767 80.8971429,0.846625767 C79.7271429,5.0797546 78.8078571,9.8208589 78.5571429,14.7312883 Z" id="Shape" fill="#F7F08C"></path>
                <path d="M78.5571429,14.4773006 C71.6207143,18.2871166 62.595,24.2981595 54.1542857,33.0184049 C55.4914286,26.3300613 56.9957143,22.1815951 56.9957143,22.1815951 C65.3528571,1.94723926 81.0642857,-0.0846625767 80.8971429,0.846625767 C79.7271429,5.0797546 78.8914286,9.65153374 78.5571429,14.4773006 Z" id="Shape" fill="#F7F18E"></path>
                <path d="M78.5571429,14.2233129 C71.7042857,18.0331288 62.6785714,23.9595092 54.1542857,32.595092 C55.4914286,26.0760736 56.9121429,22.1815951 56.9121429,22.1815951 C65.3528571,1.94723926 81.0642857,-0.0846625767 80.8971429,0.846625767 C79.7271429,4.99509202 78.8914286,9.48220859 78.5571429,14.2233129 Z" id="Shape" fill="#F7F190"></path>
                <path d="M78.6407143,13.9693252 C71.7878571,17.7791411 62.7621429,23.6208589 54.3214286,32.2564417 C55.575,25.991411 56.9957143,22.2662577 56.9957143,22.2662577 C65.3528571,1.94723926 81.0642857,-0.0846625767 80.8971429,0.846625767 C79.8107143,4.91042945 78.8914286,9.31288344 78.6407143,13.9693252 Z" id="Shape" fill="#F7F193"></path>
                <path d="M78.6407143,13.7153374 C71.8714286,17.4404908 62.9292857,23.2822086 54.405,31.8331288 C55.6585714,25.8220859 56.9957143,22.1815951 56.9957143,22.1815951 C65.3528571,1.94723926 81.0642857,-0.0846625767 80.8971429,0.846625767 C79.8107143,4.82576687 78.975,9.14355828 78.6407143,13.7153374 Z" id="Shape" fill="#F7F195"></path>
                <path d="M78.6407143,13.4613497 C71.8714286,17.1865031 62.9292857,23.0282209 54.4885714,31.409816 C55.7421429,25.6527607 56.9957143,22.1815951 56.9957143,22.1815951 C65.3528571,1.94723926 81.0642857,-0.0846625767 80.8971429,0.846625767 C79.8107143,4.74110429 78.975,8.97423313 78.6407143,13.4613497 Z" id="Shape" fill="#F7F197"></path>
                <path d="M78.6407143,13.207362 C71.8714286,16.9325153 63.0128571,22.6895706 54.4885714,31.0711656 C55.7421429,25.5680982 56.9121429,22.2662577 56.9121429,22.2662577 C65.3528571,1.94723926 81.0642857,-0.0846625767 80.8971429,0.846625767 C79.8107143,4.65644172 79.0585714,8.80490798 78.6407143,13.207362 Z" id="Shape" fill="#F9F299"></path>
                <path d="M78.7242857,12.9533742 C72.0385714,16.593865 63.18,22.3509202 54.6557143,30.6478528 C55.8257143,25.398773 56.9957143,22.2662577 56.9957143,22.2662577 C65.3528571,1.94723926 81.0642857,-0.0846625767 80.8971429,0.846625767 C79.8942857,4.57177914 79.0585714,8.63558282 78.7242857,12.9533742 Z" id="Shape" fill="#F9F39D"></path>
                <path d="M78.7242857,12.6993865 C72.0385714,16.3398773 63.2635714,22.0122699 54.7392857,30.2245399 C55.9092857,25.2294479 56.9957143,22.1815951 56.9957143,22.1815951 C65.3528571,1.94723926 81.0642857,-0.0846625767 80.8971429,0.846625767 C79.8942857,4.48711656 79.0585714,8.46625767 78.7242857,12.6993865 Z" id="Shape" fill="#F9F39F"></path>
                <path d="M78.7242857,12.4453988 C72.1221429,16.0858896 63.2635714,21.6736196 54.8228571,29.8858896 C55.9092857,25.0601227 56.9957143,22.2662577 56.9957143,22.2662577 C65.3528571,1.94723926 81.0642857,-0.0846625767 80.8971429,0.846625767 C79.8942857,4.48711656 79.1421429,8.29693252 78.7242857,12.4453988 Z" id="Shape" fill="#F9F3A1"></path>
                <path d="M78.7242857,12.191411 C72.1221429,15.7472393 63.3471429,21.4196319 54.9064286,29.4625767 C55.9928571,24.8907975 56.9957143,22.2662577 56.9957143,22.2662577 C65.3528571,1.94723926 81.0642857,-0.0846625767 80.8971429,0.846625767 C79.8942857,4.40245399 79.1421429,8.12760736 78.7242857,12.191411 Z" id="Shape" fill="#F9F3A3"></path>
                <path d="M78.8078571,11.9374233 C72.2057143,15.408589 63.5142857,20.996319 54.99,29.0392638 C55.9928571,24.7214724 56.9957143,22.1815951 56.9957143,22.1815951 C65.3528571,1.94723926 81.0642857,-0.0846625767 80.8971429,0.846625767 C79.9778571,4.31779141 79.2257143,7.95828221 78.8078571,11.9374233 Z" id="Shape" fill="#F9F3A5"></path>
                <path d="M78.8078571,11.598773 C72.2892857,15.1546012 63.5978571,20.6576687 55.0735714,28.6159509 C56.0764286,24.5521472 56.9121429,22.1815951 56.9121429,22.1815951 C65.3528571,1.94723926 81.0642857,-0.0846625767 80.8971429,0.846625767 C79.9778571,4.23312883 79.2257143,7.78895706 78.8078571,11.598773 Z" id="Shape" fill="#F9F4A7"></path>
                <path d="M78.8078571,11.3447853 C72.3728571,14.8159509 63.6814286,20.3190184 55.1571429,28.192638 C56.0764286,24.3828221 56.9121429,22.1815951 56.9121429,22.1815951 C65.3528571,1.94723926 81.0642857,-0.0846625767 80.8971429,0.846625767 C79.9778571,4.14846626 79.2257143,7.6196319 78.8078571,11.3447853 Z" id="Shape" fill="#F9F4A9"></path>
                <path d="M78.8914286,11.0907975 C72.4564286,14.5619632 63.765,20.0650307 55.3242857,27.8539877 C56.2435714,24.2981595 56.9957143,22.2662577 56.9957143,22.2662577 C65.3528571,1.94723926 81.0642857,-0.0846625767 80.8971429,0.846625767 C79.9778571,4.06380368 79.3092857,7.45030675 78.8914286,11.0907975 Z" id="Shape" fill="#F9F4AB"></path>
                <path d="M78.8914286,10.8368098 C72.4564286,14.3079755 63.8485714,19.7263804 55.4078571,27.4306748 C56.2435714,24.1288344 56.9957143,22.1815951 56.9957143,22.1815951 C65.3528571,1.94723926 81.0642857,-0.0846625767 80.8971429,0.846625767 C80.0614286,3.9791411 79.3092857,7.36564417 78.8914286,10.8368098 Z" id="Shape" fill="#F9F4AD"></path>
                <path d="M78.975,10.5828221 C72.6235714,13.9693252 64.0157143,19.3877301 55.575,27.0920245 C56.4107143,24.0441718 57.0792857,22.2662577 57.0792857,22.2662577 C65.3528571,1.94723926 81.0642857,-0.0846625767 80.8971429,0.846625767 C80.0614286,3.89447853 79.3928571,7.19631902 78.975,10.5828221 Z" id="Shape" fill="#F8F3AF"></path>
                <path d="M78.975,10.3288344 C72.6235714,13.7153374 64.0992857,19.0490798 55.6585714,26.6687117 C56.4107143,23.8748466 56.9957143,22.2662577 56.9957143,22.2662577 C65.3528571,1.94723926 81.0642857,-0.0846625767 80.8971429,0.846625767 C80.0614286,3.80981595 79.3928571,7.02699387 78.975,10.3288344 Z" id="Shape" fill="#F8F3B1"></path>
                <path d="M78.975,10.0748466 C72.7071429,13.4613497 64.1828571,18.7104294 55.6585714,26.3300613 C56.4107143,23.7055215 56.9121429,22.2662577 56.9121429,22.2662577 C65.3528571,1.94723926 81.0642857,-0.0846625767 80.8971429,0.846625767 C80.0614286,3.72515337 79.4764286,6.85766871 78.975,10.0748466 Z" id="Shape" fill="#F8F4B3"></path>
                <path d="M79.0585714,9.73619632 C72.7907143,13.1226994 64.35,18.3717791 55.8257143,25.8220859 C56.4942857,23.4515337 56.9957143,22.1815951 56.9957143,22.1815951 C65.3528571,1.94723926 81.0642857,-0.0846625767 80.8971429,0.846625767 C80.145,3.6404908 79.4764286,6.68834356 79.0585714,9.73619632 Z" id="Shape" fill="#F8F4B5"></path>
                <path d="M79.0585714,9.48220859 C72.8742857,12.7840491 64.35,18.0331288 55.9092857,25.4834356 C56.4942857,23.3668712 56.9121429,22.2662577 56.9121429,22.2662577 C65.3528571,1.94723926 81.0642857,-0.0846625767 80.8971429,0.846625767 C80.145,3.55582822 79.4764286,6.5190184 79.0585714,9.48220859 Z" id="Shape" fill="#F8F4B7"></path>
                <path d="M79.1421429,9.22822086 C72.9578571,12.5300613 64.5171429,17.6944785 56.0764286,25.0601227 C56.5778571,23.197546 56.9957143,22.1815951 56.9957143,22.1815951 C65.3528571,1.94723926 81.0642857,-0.0846625767 80.8971429,0.846625767 C80.145,3.47116564 79.56,6.26503067 79.1421429,9.22822086 Z" id="Shape" fill="#F8F4B9"></path>
                <path d="M79.1421429,8.97423313 C73.0414286,12.2760736 64.6007143,17.3558282 56.16,24.7214724 C56.6614286,23.1128834 56.9957143,22.2662577 56.9957143,22.2662577 C65.3528571,1.94723926 81.0642857,-0.0846625767 80.8971429,0.846625767 C80.145,3.38650307 79.56,6.09570552 79.1421429,8.97423313 Z" id="Shape" fill="#F8F4BB"></path>
                <path d="M79.2257143,8.7202454 C73.125,11.9374233 64.7678571,17.1018405 56.3271429,24.2981595 C56.745,22.9435583 56.9957143,22.2662577 56.9957143,22.2662577 C65.3528571,1.94723926 81.0642857,-0.0846625767 80.8971429,0.846625767 C80.2285714,3.30184049 79.6435714,5.92638037 79.2257143,8.7202454 Z" id="Shape" fill="#F8F5BD"></path>
                <path d="M79.2257143,8.46625767 C73.2085714,11.6834356 64.8514286,16.7631902 56.4107143,23.9595092 C56.745,22.8588957 56.9957143,22.2662577 56.9957143,22.2662577 C65.3528571,1.94723926 81.0642857,-0.0846625767 80.8971429,0.846625767 C80.2285714,3.21717791 79.6435714,5.75705521 79.2257143,8.46625767 Z" id="Shape" fill="#F8F5BF"></path>
                <path d="M79.3092857,8.12760736 C73.2921429,11.3447853 65.0185714,16.3398773 56.5778571,23.4515337 C56.8285714,22.604908 56.9957143,22.1815951 56.9957143,22.1815951 C65.3528571,1.94723926 81.0642857,-0.0846625767 80.8971429,0.846625767 C80.2285714,3.21717791 79.7271429,5.58773006 79.3092857,8.12760736 Z" id="Shape" fill="#F8F5C1"></path>
                <path d="M79.3092857,7.87361963 C73.3757143,11.006135 65.1021429,16.001227 56.6614286,23.1128834 C56.8285714,22.5202454 56.9957143,22.2662577 56.9957143,22.2662577 C65.3528571,1.94723926 81.0642857,-0.0846625767 80.8971429,0.846625767 C80.2285714,3.13251534 79.7271429,5.41840491 79.3092857,7.87361963 Z" id="Shape" fill="#FAF6C4"></path>
                <path d="M79.3928571,7.6196319 C73.4592857,10.7521472 65.2692857,15.7472393 56.8285714,22.6895706 C56.9121429,22.3509202 56.9957143,22.1815951 56.9957143,22.1815951 C65.3528571,1.94723926 81.0642857,-0.0846625767 80.8971429,0.846625767 C80.3121429,3.04785276 79.8107143,5.24907975 79.3928571,7.6196319 Z" id="Shape" fill="#FAF6C6"></path>
                <path d="M79.3928571,7.36564417 C73.5428571,10.4981595 65.3528571,15.408589 56.9121429,22.3509202 L56.9121429,22.2662577 C65.3528571,1.94723926 81.0642857,-0.0846625767 80.8971429,0.846625767 C80.3121429,2.96319018 79.8107143,5.0797546 79.3928571,7.36564417 Z" id="Shape" fill="#FAF7CA"></path>
                <path d="M79.4764286,7.02699387 C73.6264286,10.0748466 65.52,14.9852761 57.1628571,21.8429448 C65.6035714,1.86257669 81.0642857,-0.0846625767 80.8971429,0.846625767 C80.3121429,2.87852761 79.8942857,4.91042945 79.4764286,7.02699387 Z" id="Shape" fill="#FAF7CC"></path>
                <path d="M79.56,6.77300613 C73.7935714,9.8208589 65.6871429,14.6466258 57.33,21.4196319 C65.7707143,1.86257669 81.0642857,-0.0846625767 80.8971429,0.846625767 C80.3957143,2.79386503 79.8942857,4.74110429 79.56,6.77300613 Z" id="Shape" fill="#FBF8CE"></path>
                <path d="M79.56,6.5190184 C73.8771429,9.48220859 65.8542857,14.3079755 57.4971429,20.996319 C66.0214286,1.86257669 81.0642857,-0.0846625767 80.8971429,0.846625767 C80.3957143,2.70920245 79.9778571,4.57177914 79.56,6.5190184 Z" id="Shape" fill="#FBF8D0"></path>
                <path d="M79.6435714,6.26503067 C73.9607143,9.22822086 66.0214286,13.9693252 57.7478571,20.5730061 C66.2721429,1.77791411 81.0642857,-0.0846625767 80.8971429,0.846625767 C80.3957143,2.62453988 79.9778571,4.40245399 79.6435714,6.26503067 Z" id="Shape" fill="#FBF8D2"></path>
                <path d="M79.6435714,5.92638037 C74.0442857,8.88957055 66.1885714,13.5460123 57.915,20.0650307 C66.5228571,1.77791411 81.0642857,-0.0846625767 80.8971429,0.846625767 C80.3957143,2.5398773 80.0614286,4.23312883 79.6435714,5.92638037 Z" id="Shape" fill="#FCF8D4"></path>
                <path d="M79.7271429,5.67239264 C74.2114286,8.55092025 66.3557143,13.207362 58.0821429,19.6417178 C66.7735714,1.77791411 81.0642857,-0.0846625767 80.8971429,0.846625767 C80.4792857,2.45521472 80.0614286,4.06380368 79.7271429,5.67239264 Z" id="Shape" fill="#FCF9D6"></path>
            </g>
            <path d="M141,70.2859116 L180.188026,70.2859116 L180.188026,77.3632597 L149.055783,77.3632597 L149.055783,93.0345304 L171.12527,93.0345304 L171.12527,100.111878 L149.055783,100.111878 L149.055783,119.321823 L180.188026,119.321823 L180.188026,126.399171 L141,126.399171 L141,70.2859116 Z M486.307766,92.9502762 L488.573455,86.2941989 C488.573455,86.2941989 483.874249,84.4406077 473.468863,84.4406077 C463.147391,84.4406077 457.944698,88.9060773 457.944698,97.6685083 C457.944698,106.430939 466.587882,109.042818 472.881462,109.042818 C479.175042,109.042818 482.195961,111.907459 482.195961,115.361878 C482.195961,118.816298 479.426785,121.259669 472.881462,121.259669 C466.252224,121.259669 460.546045,118.984807 460.546045,118.984807 L458.532099,125.472376 C458.532099,125.472376 465.245251,127.494475 474.308007,127.494475 C483.370762,127.494475 490,123.450276 490,115.109116 C490,106.767956 485.300793,102.133978 474.475836,102.133978 C463.734792,102.133978 462.979562,91.0124309 473.720606,91.0124309 C484.629478,91.0966851 486.307766,92.9502762 486.307766,92.9502762 Z M451.567204,97.4157459 C451.399375,82.25 432.350805,81.4917127 419.931474,86.5469613 L422.364992,92.0234807 C435.371724,87.558011 443.511421,92.1077348 443.511421,95.8991713 L443.511421,101.712707 C437.805242,100.364641 417.246213,96.4889503 417.246213,111.149171 L417.246213,117.805249 C417.246213,117.805249 418.421015,132.128453 443.511421,125.893646 L443.511421,126.483425 L451.567204,124.040055 L451.567204,97.4157459 Z M443.511421,107.189227 C439.819187,106.430939 425.469824,104.156077 425.469824,112.497238 L425.469824,114.940608 C425.469824,123.029006 436.966098,122.017956 443.511421,119.911602 L443.511421,107.189227 Z M356.240442,67 L356.240442,87.3052486 C358.002645,85.2831492 361.778793,84.3563536 364.212311,84.3563536 L368.324116,84.3563536 C377.302957,84.3563536 384.687425,91.7707182 384.687425,100.785912 L384.687425,111.149171 C384.687425,120.164365 377.302957,127.578729 368.324116,127.578729 C360.436163,127.578729 355.485213,127.410221 348.18466,124.124309 L348.18466,70.4544199 L356.240442,67 Z M356.240442,95.4779006 L356.240442,118.900552 C357.247415,119.995856 359.848762,120.417127 362.450108,120.417127 L368.911517,120.417127 C372.939409,120.417127 376.21207,116.372928 376.21207,111.486188 L376.21207,100.280387 C376.21207,95.3936464 372.939409,91.3494475 368.911517,91.3494475 L363.205338,91.3494475 C360.603991,91.3494475 357.583073,93.0345304 356.240442,95.4779006 Z M391.148834,85.6201657 L399.204616,85.6201657 L399.204616,87.8950276 C399.204616,88.5690608 402.729021,83.5980663 413.973551,85.2831492 L414.057466,92.191989 C408.60303,91.0124309 399.204616,92.191989 399.204616,95.9834254 L399.204616,126.56768 L391.148834,126.56768 L391.148834,85.6201657 Z M277.109161,85.6201657 L285.164943,85.6201657 L285.164943,87.8950276 C285.164943,88.5690608 288.689348,83.5980663 299.933878,85.2831492 L300.017793,92.191989 C294.563357,91.0124309 285.164943,92.191989 285.164943,95.9834254 L285.164943,126.56768 L277.109161,126.56768 L277.109161,85.6201657 Z M256.466218,74.6671271 L256.466218,85.6201657 L270.815581,85.6201657 L270.815581,92.6975138 L256.466218,92.6975138 L256.466218,112.918508 C256.466218,124.208564 265.445059,120.838398 270.479923,119.490331 L271.822553,125.893646 C261.249339,128.589779 248.410435,130.948895 248.410435,112.75 L248.410435,78.121547 L256.466218,74.6671271 Z M222.39697,84.2720994 L225.669632,84.2720994 C234.648473,84.2720994 242.032941,91.6864641 242.032941,100.701657 C242.032941,103.060773 242.032941,105.41989 242.032941,107.779006 L214.509017,107.779006 L214.509017,111.486188 C214.509017,116.372928 217.781678,120.417127 221.80957,120.417127 L225.837461,120.417127 C230.368839,120.417127 233.557586,119.995856 237.921135,118.816298 L239.263765,125.135359 C234.144987,126.904696 231.627555,127.410221 225.753547,127.494475 C224.578745,127.494475 223.487858,127.494475 222.313056,127.494475 C213.334215,127.494475 205.949748,120.08011 205.949748,111.064917 L205.949748,100.701657 C206.033662,91.6864641 213.418129,84.2720994 222.39697,84.2720994 Z M233.6415,101.459945 L233.6415,100.280387 C233.6415,95.3936464 230.368839,91.3494475 226.340947,91.3494475 L221.893484,91.3494475 C217.865593,91.3494475 214.592931,95.3936464 214.592931,100.280387 L214.592931,101.459945 L233.6415,101.459945 Z M319.653763,84.2720994 L324.94037,84.2720994 C333.919211,84.2720994 341.303679,91.6864641 341.303679,100.701657 L341.303679,111.064917 C341.303679,120.08011 333.919211,127.494475 324.94037,127.494475 L319.653763,127.494475 C310.674922,127.494475 303.290454,120.08011 303.290454,111.064917 L303.290454,100.701657 C303.290454,91.6864641 310.591007,84.2720994 319.653763,84.2720994 Z M319.066362,91.3494475 L325.527771,91.3494475 C329.555662,91.3494475 332.828324,95.3936464 332.828324,100.280387 L332.828324,111.486188 C332.828324,116.372928 329.555662,120.417127 325.527771,120.417127 L319.066362,120.417127 C315.038471,120.417127 311.765809,116.372928 311.765809,111.486188 L311.765809,100.280387 C311.765809,95.3936464 315.038471,91.3494475 319.066362,91.3494475 Z M195.71219,67 L195.71219,111.654696 C195.71219,116.794199 196.970906,119.65884 201.586199,122.354972 L197.306564,128 C192.019957,126.314917 187.656408,118.816298 187.656408,111.823204 L187.656408,70.4544199 L195.71219,67 Z" id="Shape" fill="#3F8ECA"></path>
        </g>
    </g>
</svg>