<?xml version="1.0" encoding="UTF-8"?>
<svg width="600px" height="250px" viewBox="0 0 600 250" version="1.1" xmlns="http://www.w3.org/2000/svg" xmlns:xlink="http://www.w3.org/1999/xlink">
    <!-- Generator: Sketch 50.1 (55044) - http://www.bohemiancoding.com/sketch -->
    <title>EMBR</title>
    <desc>Created with Sketch.</desc>
    <defs></defs>
    <g id="EMBR" stroke="none" stroke-width="1" fill="none" fill-rule="evenodd">
        <g id="Grid-Logo" opacity="0.400000006"></g>
        <g id="EMBR3" transform="translate(55.000000, 64.000000)" fill="#005489">
            <polygon id="Shape" points="227.525 43 209 43 209 78 219.545 78 219.545 51.4583333 220.685 51.4583333 233.225 78 242.63 78 254.6 51.4583333 256.31 51.4583333 256.31 78 266 78 266 43 248.045 43 237.5 65.4583333"></polygon>
            <path d="M300.054795,69.5416667 L281.068493,69.5416667 L281.068493,64 L300.054795,64 C300.917808,64 302.068493,65.4583333 302.068493,66.9166667 C302.068493,68.0833333 300.917808,69.5416667 300.054795,69.5416667 Z M312.136986,51.4583333 C311.849315,45.9166667 308.39726,43 301.780822,43 L271,43 L271,78 L302.931507,78 C309.547945,77.125 312.712329,75.9583333 313,68.375 C313,63.7083333 310.69863,61.0833333 307.821918,60.2083333 C311.561644,57.875 312.136986,56.7083333 312.136986,51.4583333 Z M300.054795,51.4583333 C300.917808,51.4583333 301.780822,52.9166667 301.780822,54.375 C301.780822,55.5416667 300.917808,56.7083333 300.054795,56.7083333 L281.068493,56.7083333 L281.068493,51.4583333 L300.054795,51.4583333 Z" id="Shape"></path>
            <path d="M375.934831,64 L381.92809,51.4583333 L384.496629,51.4583333 L390.775281,64 L375.934831,64 Z M444.429213,51.4583333 L444.429213,43 L408.469663,43 L408.469663,76.8333333 L391.346067,43 L375.934831,43 L358.525843,77.4166667 L358.525843,71.5833333 C358.525843,66.625 356.242697,65.4583333 354.244944,64.5833333 C356.52809,63.4166667 359.096629,62.25 359.096629,53.5 C359.096629,47.6666667 357.38427,43 351.105618,43 L318,43 L318,78 L327.988764,78 L327.988764,69.5416667 L347.110112,69.5416667 C347.966292,69.5416667 348.537079,70.4166667 348.822472,71.875 L348.822472,78 L369.370787,78 L372.224719,71.875 L395.341573,71.875 L398.766292,78 L445,78 L445,69.5416667 L418.74382,69.5416667 L418.74382,64 L445,64 L445,56.7083333 L418.74382,56.7083333 L418.74382,51.4583333 L444.429213,51.4583333 Z M345.683146,60.5 L327.988764,60.5 L327.988764,51.75 L345.397753,51.75 C347.966292,51.75 349.393258,54.375 349.393258,56.7083333 C349.107865,58.4583333 347.966292,60.5 345.683146,60.5 Z" id="Shape"></path>
            <path d="M489.430556,78 L489.430556,71.5833333 C489.430556,66.625 487.152778,65.4583333 485.159722,64.5833333 C487.4375,63.4166667 490,62.25 490,53.5 C490,47.6666667 488.291667,43 482.027778,43 L449,43 L449,78 L458.965278,78 L458.965278,69.5416667 L478.041667,69.5416667 C478.895833,69.5416667 479.465278,70.4166667 479.75,71.875 L479.75,78 L489.430556,78 Z M476.618056,60.5 L458.965278,60.5 L458.965278,51.75 L476.333333,51.75 C478.895833,51.75 480.319444,54.375 480.319444,56.7083333 C480.319444,58.4583333 479.180556,60.5 476.618056,60.5 Z" id="Shape"></path>
            <polygon id="Shape" points="0 65.7179487 24.0566038 65.7179487 96.2264151 121 119.716981 121 71.6037736 65.7179487 119.716981 65.7179487 119.716981 55.8461538 71.6037736 55.8461538 120 0 96.509434 0 24.0566038 55.8461538 9.90566038 55.8461538"></polygon>
            <polygon id="Shape" points="177.92126 51.4583333 204 51.4583333 204 43 168 43 168 78 204 78 204 69.5416667 177.92126 69.5416667 177.92126 64 204 64 204 56.7083333 177.92126 56.7083333"></polygon>
        </g>
    </g>
</svg>