<?xml version="1.0" encoding="UTF-8"?>
<svg width="600px" height="250px" viewBox="0 0 600 250" version="1.1" xmlns="http://www.w3.org/2000/svg" xmlns:xlink="http://www.w3.org/1999/xlink">
    <!-- Generator: Sketch 50.1 (55044) - http://www.bohemiancoding.com/sketch -->
    <title>EQTL</title>
    <desc>Created with Sketch.</desc>
    <defs></defs>
    <g id="EQTL" stroke="none" stroke-width="1" fill="none" fill-rule="evenodd">
        <g id="Grid-Logo" opacity="0.400000006" transform="translate(1.000000, 0.000000)"></g>
        <g id="EQTL3" transform="translate(75.000000, 69.000000)">
            <text id="&quot;" fill="#000000" font-family="Helvetica" font-size="22.8315" font-weight="normal">
                <tspan x="226" y="79">"</tspan>
            </text>
            <path d="M160.619571,96.6738351 L152.781328,96.6738351 L152.781328,92.1792115 L161.089865,92.1792115 L161.089865,88.2365591 L148,88.2365591 L148,109.605735 L161.56016,109.605735 L161.56016,105.584229 L152.781328,105.584229 L152.781328,100.537634 L160.619571,100.537634 L160.619571,96.6738351 Z M174.963555,109.605735 L174.963555,103.139785 C174.963555,99.6702509 174.885172,96.6738351 174.80679,93.7562724 L174.885172,93.7562724 C175.904144,96.2795699 177.39341,99.0394265 178.569146,101.326165 L183.115327,109.605735 L188.131802,109.605735 L188.131802,88.2365591 L183.664004,88.2365591 L183.664004,94.4659498 C183.664004,97.6989247 183.820769,100.537634 184.055916,103.376344 L183.977534,103.376344 C183.036945,100.9319 181.782826,98.3297491 180.528707,96.0430108 L176.060909,88.2365591 L170.417374,88.2365591 L170.417374,109.605735 L174.963555,109.605735 Z M210.705941,96.6738351 L202.867698,96.6738351 L202.867698,92.1792115 L211.176236,92.1792115 L211.176236,88.2365591 L198.164753,88.2365591 L198.164753,109.605735 L211.64653,109.605735 L211.64653,105.584229 L202.867698,105.584229 L202.867698,100.537634 L210.705941,100.537634 L210.705941,96.6738351 Z M220.738892,109.605735 L225.52022,109.605735 L225.52022,101.168459 L226.931103,101.168459 C228.890664,101.247312 229.831253,101.878136 230.37993,104.637993 C230.928607,107.240143 231.555667,109.053763 231.790814,109.605735 L236.728907,109.605735 C236.336995,108.738351 235.709935,105.978495 235.004493,103.53405 C234.455816,101.562724 233.59361,100.222222 232.104343,99.5913978 L232.104343,99.4336918 C233.907139,98.8028674 235.8667,96.9103943 235.8667,94.2293907 C235.8667,92.2580645 235.161258,90.7598566 233.828757,89.734767 C232.339491,88.4731183 230.144783,88 227.009486,88 C224.422866,88 222.149775,88.1577061 220.582127,88.4731183 L220.582127,109.605735 L220.738892,109.605735 Z M225.441837,91.8637993 C225.755367,91.7849462 226.382426,91.7060932 227.636545,91.7060932 C229.831253,91.7060932 231.163754,92.6523297 231.163754,94.6236559 C231.163754,96.516129 229.831253,97.6989247 227.401398,97.6989247 L225.52022,97.6989247 L225.52022,91.8637993 L225.441837,91.8637993 Z M262.830255,97.4623656 L254.91363,97.4623656 L254.91363,101.168459 L258.205691,101.168459 L258.205691,105.663082 C257.813779,105.820789 256.951573,105.978495 255.854219,105.978495 C251.935097,105.978495 249.11333,103.455197 249.11333,98.9605735 C249.11333,94.3870968 252.170245,92.1003584 256.246131,92.1003584 C258.519221,92.1003584 259.930105,92.4157706 261.105841,93.046595 L262.124813,89.1039427 C261.105841,88.6308244 258.911133,88.1577061 256.167748,88.1577061 C249.191712,88.1577061 244.018472,92.1792115 244.018472,99.3548387 C244.018472,102.508961 245.037444,105.268817 246.997004,107.16129 C248.956565,108.97491 251.778333,110 255.619071,110 C258.440839,110 261.262606,109.369176 262.751872,108.817204 L262.751872,97.4623656 L262.830255,97.4623656 Z M277.174239,88.2365591 L272.392911,88.2365591 L272.392911,109.605735 L277.174239,109.605735 L277.174239,88.2365591 Z M298.102346,104.086022 L299.82676,109.605735 L305,109.605735 L298.337494,88.2365591 L292.0669,88.2365591 L285.639541,109.605735 L290.577634,109.605735 L292.0669,104.086022 L298.102346,104.086022 Z M292.693959,100.537634 L294.02646,96.0430108 C294.33999,94.781362 294.65352,93.125448 294.967049,91.9426523 L295.045432,91.9426523 C295.358962,93.2043011 295.750874,94.8602151 296.064403,96.0430108 L297.396905,100.537634 L292.693959,100.537634 Z" id="Shape" fill="#B2B2B2"></path>
            <path d="M122.351266,70.7714286 C122.351266,75.0928571 120.95,78.3928571 118.147468,80.6714286 L122.58481,89 L108.883544,89 L106.470253,84.4428571 C105.38038,84.5214286 104.290506,84.5214286 103.044937,84.5214286 C97.128481,84.5214286 92.535443,83.5785714 89.2658228,81.5357143 C85.3734177,79.1 83.4272152,75.3285714 83.4272152,70.0642857 L83.4272152,51.7571429 C88.7987342,51.1285714 94.3259494,50.6571429 99.9310127,50.1071429 L99.9310127,70.6142857 C99.9310127,71.7142857 100.164557,72.5785714 100.631646,73.2857143 C101.098734,73.8357143 101.877215,74.15 102.811392,74.15 C103.74557,74.15 104.446203,73.8357143 104.913291,73.2857143 C105.38038,72.5785714 105.691772,71.7142857 105.691772,70.6142857 L105.691772,49.6357143 C111.063291,49.2428571 116.590506,48.7714286 122.19557,48.3785714 L122.19557,70.7714286 L122.351266,70.7714286 Z M347.332278,83.5785714 L330.828481,83.5785714 L330.828481,48.5357143 C336.433544,48.85 341.960759,49.4 347.332278,49.7928571 L347.332278,83.5785714 Z M190.156962,70.9285714 L190.156962,53.4071429 C187.899367,53.9571429 186.420253,54.6642857 185.641772,55.3714286 C184.785443,56.2357143 184.396203,57.2571429 184.396203,58.4357143 L184.396203,70.85 C184.396203,71.8714286 184.707595,72.6571429 185.174684,73.2857143 C185.71962,73.7571429 186.498101,73.9928571 187.432278,73.9928571 C188.210759,73.9928571 188.833544,73.7571429 189.300633,73.2857143 C189.84557,72.6571429 190.156962,71.95 190.156962,70.9285714 Z M206.660759,83.5785714 L192.025316,83.5785714 L192.025316,80.9857143 C191.168987,82.4785714 190.001266,83.5 188.366456,83.8928571 C186.731646,84.3642857 184.474051,84.6 181.437975,84.6 C176.533544,84.6 173.03038,83.7357143 170.928481,82.0071429 C168.90443,80.2 167.892405,77.5285714 167.892405,73.9142857 L167.892405,60.1642857 C167.892405,54.7428571 171.551266,50.1857143 178.946835,46.5714286 C179.725316,46.2571429 180.425949,45.8642857 181.126582,45.6285714 C189.534177,45.3928571 198.01962,45.2357143 206.660759,45.1571429 L206.660759,83.5785714 Z M285.36519,70.7714286 C285.36519,75.8785714 283.418987,79.5714286 279.60443,81.7714286 C276.490506,83.6571429 272.053165,84.5214286 266.214557,84.5214286 C260.298101,84.5214286 255.627215,83.5785714 252.435443,81.5357143 C248.543038,79.1 246.596835,75.3285714 246.596835,70.0642857 L246.596835,45.0785714 C252.201899,45.1571429 257.729114,45.3142857 263.100633,45.3928571 L263.100633,70.5357143 C263.100633,71.6357143 263.412025,72.5 263.879114,73.2071429 C264.346203,73.7571429 265.046835,74.0714286 265.981013,74.0714286 C266.91519,74.0714286 267.693671,73.7571429 268.160759,73.2071429 C268.627848,72.5 268.861392,71.6357143 268.861392,70.5357143 L268.861392,45.4714286 C274.466456,45.6285714 279.915823,45.7857143 285.36519,46.0214286 L285.36519,70.7714286 Z M305.138608,46.9642857 L305.138608,83.5785714 L288.63481,83.5785714 L288.63481,46.2571429 C294.162025,46.4928571 299.689241,46.65 305.138608,46.9642857 Z M372.944304,70.9285714 L372.944304,53.4071429 C370.764557,53.9571429 369.285443,54.6642857 368.429114,55.3714286 C367.572785,56.2357143 367.261392,57.2571429 367.261392,58.4357143 L367.261392,70.85 C367.261392,71.8714286 367.494937,72.6571429 367.962025,73.2857143 C368.506962,73.7571429 369.285443,73.9928571 370.21962,73.9928571 C371.075949,73.9928571 371.620886,73.7571429 372.165823,73.2857143 C372.632911,72.6571429 372.944304,71.95 372.944304,70.9285714 Z M389.448101,83.5785714 L374.812658,83.5785714 L374.812658,80.9857143 C373.956329,82.4785714 372.788608,83.5 371.153797,83.8928571 C369.596835,84.3642857 367.261392,84.6 364.225316,84.6 C359.320886,84.6 355.817722,83.7357143 353.793671,82.0071429 C351.76962,80.2 350.679747,77.5285714 350.679747,73.9142857 L350.679747,60.1642857 C350.679747,56.4714286 352.236709,53.3285714 355.506329,50.5 C367.417089,51.6 378.705063,52.8571429 389.370253,54.2714286 L389.370253,83.5785714 L389.448101,83.5785714 Z M164.077848,83.5785714 L147.574051,83.5785714 L147.574051,81.3 C146.717722,82.1642857 145.316456,82.95 143.448101,83.5785714 C141.735443,84.2071429 139.711392,84.5214286 137.298101,84.5214286 C133.794937,84.5214286 130.836709,83.6571429 128.656962,81.7714286 C126.399367,79.8857143 125.309494,77.6857143 125.309494,75.0928571 L125.309494,48.2214286 C130.681013,47.9071429 136.208228,47.5142857 141.813291,47.2785714 L141.813291,70.9285714 C141.813291,72.9714286 142.747468,73.9928571 144.693671,73.9928571 C145.627848,73.9928571 146.328481,73.7571429 146.79557,73.2857143 C147.262658,72.6571429 147.574051,71.8714286 147.574051,70.9285714 L147.574051,46.8857143 C152.94557,46.5714286 158.472785,46.4142857 164.077848,46.1785714 L164.077848,83.5785714 Z M410,83.5785714 L393.496203,83.5785714 L393.496203,54.9 C399.256962,55.6857143 404.784177,56.4714286 410,57.4142857 L410,83.5785714 Z M243.171519,83.5785714 L232.739873,83.5785714 C225.577848,83.5785714 221.218354,82.6357143 219.583544,80.6714286 C217.948734,78.7071429 217.170253,74.15 217.170253,67.1571429 L217.170253,45.0785714 L225.811392,45 L233.751899,45.0785714 L233.751899,67 C233.751899,68.9642857 234.452532,70.3785714 235.698101,71.2428571 C236.632278,71.7928571 238.189241,72.1071429 240.135443,72.1071429 L243.171519,72.1071429 L243.171519,83.5785714 Z M79.7683544,70.7714286 C79.7683544,75.8 77.8221519,79.4928571 73.8518987,81.7714286 C70.7379747,83.6571429 66.2227848,84.5214286 60.3063291,84.5214286 C54.4677215,84.5214286 49.9525316,83.5785714 46.6829114,81.5357143 C42.9462025,79.1 41,75.3285714 41,70.0642857 L41,57.4142857 C46.2936709,56.55 57.5037975,54.7428571 57.5037975,54.7428571 L57.5037975,70.6142857 C57.5037975,71.7142857 57.7373418,72.5785714 58.2044304,73.2857143 C58.671519,73.8357143 59.45,74.15 60.3841772,74.15 C61.3183544,74.15 62.0189873,73.8357143 62.4860759,73.2857143 C62.9531646,72.5785714 63.1867089,71.7142857 63.1867089,70.6142857 L63.1867089,56.9428571 L79.6905063,56.9428571 L79.6905063,70.7714286 L79.7683544,70.7714286 Z" id="Shape" fill="#737DB7"></path>
            <path d="M147.527735,40.8103241 L147.527735,15.8403361 L164.049594,15.8403361 L164.049594,40.030012 C165.530327,39.9519808 167.011059,39.8739496 168.491792,39.8739496 L168.491792,29.027611 C168.491792,24.0336134 170.440124,20.3661465 174.570589,18.1032413 C177.765855,16.3085234 182.363919,15.3721489 188.28685,15.3721489 C194.131847,15.3721489 198.574045,16.3865546 201.457577,18.4153661 C204.964576,20.6782713 206.757042,24.5018007 206.757042,29.729892 L206.757042,38.8595438 C210.26404,38.7815126 213.693105,38.7815126 217.200104,38.7815126 L217.200104,25.8283313 L209.79644,25.8283313 L209.79644,15.8403361 L217.200104,15.8403361 L217.200104,2.26290516 L233.721963,2.26290516 L233.721963,15.8403361 L242.606359,15.8403361 L242.606359,25.8283313 L233.721963,25.8283313 L233.721963,38.6254502 C238.086228,38.6254502 242.372559,38.7034814 246.658891,38.7815126 L246.658891,29.6518607 C246.658891,24.5798319 248.607223,20.8343337 252.503888,18.4933974 C255.85502,16.3865546 260.453084,15.3721489 266.298082,15.3721489 C271.67548,15.3721489 276.195611,16.6206483 279.858476,19.0396158 C283.599274,21.302521 285.469673,24.6578631 285.469673,29.1056423 L285.469673,39.9519808 C286.56074,40.030012 287.651806,40.030012 288.664939,40.1080432 L288.664939,15.8403361 L305.186798,15.8403361 L305.186798,18.1032413 C306.121998,17.3229292 307.524797,16.6986795 309.23933,16.152461 C311.109729,15.6062425 313.135994,15.2941176 315.473993,15.2941176 C318.980992,15.2941176 321.786591,16.2304922 324.046656,18.1812725 C326.384655,20.0540216 327.475721,22.3169268 327.475721,24.969988 L327.475721,42.4489796 C328.644721,42.5270108 329.81372,42.605042 330.98272,42.7611044 L330.98272,15.8403361 L347.504579,15.8403361 L347.504579,44.3217287 C352.95991,44.8679472 358.259374,45.4141657 363.402972,46.0384154 C369.793503,42.8391357 373.066701,40.5762305 373.066701,39.1716687 L373.066701,29.1836735 C373.066701,28.0912365 372.832901,27.2328932 372.365302,26.6866747 C371.897702,26.1404562 371.118369,25.8283313 370.183169,25.8283313 C369.403836,25.8283313 368.78037,26.1404562 368.234837,26.6866747 C367.689304,27.2328932 367.37757,28.0912365 367.37757,29.1836735 L367.37757,42.5270108 L351.401244,42.5270108 L351.401244,29.027611 C351.401244,24.0336134 353.42751,20.3661465 357.480041,18.1032413 C360.75324,16.3085234 365.273371,15.3721489 371.196302,15.3721489 C377.041299,15.3721489 381.483497,16.3865546 384.36703,18.4153661 C387.874028,20.6782713 389.666494,24.5018007 389.666494,29.729892 L389.666494,49.6278511 C389.978227,49.7058824 390.212027,49.7058824 390.52376,49.7839136 C391.614826,49.939976 392.705893,50.0960384 393.719025,50.3301321 L393.719025,0 L410.240885,0 L410.240885,53.2953181 C427.308277,56.7286915 441.180404,60.7082833 451,65 C428.944876,58.757503 398.706757,53.5294118 363.013306,49.7058824 C322.95559,45.4921969 275.805944,42.9951981 225.538967,42.9951981 C175.194056,42.9951981 128.04441,45.4921969 87.9866943,49.7058824 C52.2932435,53.5294118 22.1330569,58.757503 0,65 C9.81959565,60.7082833 23.6917228,56.7286915 40.7591153,53.2953181 L40.7591153,29.6518607 C40.7591153,24.5798319 42.6295144,20.8343337 46.3703128,18.4933974 C49.565578,16.3865546 54.1636426,15.3721489 60.0865734,15.3721489 C65.9315708,15.3721489 70.4517021,16.3085234 73.6469673,18.1032413 C77.6215656,20.3661465 79.569898,23.9555822 79.569898,29.027611 L79.569898,46.9747899 C80.8168308,46.8187275 82.1416969,46.6626651 83.3886297,46.5066026 L83.3886297,29.6518607 C83.3886297,24.5798319 85.3369622,20.8343337 89.2336271,18.4933974 C92.5847589,16.3865546 97.1828236,15.3721489 103.027821,15.3721489 C108.405219,15.3721489 112.92535,16.6206483 116.666148,19.0396158 C120.329013,21.302521 122.277346,24.6578631 122.277346,29.1056423 L122.277346,42.6830732 C123.290479,42.605042 124.225678,42.5270108 125.238811,42.4489796 L125.238811,15.9183673 L141.76067,15.9183673 L141.76067,41.2785114 C143.709003,41.0444178 145.579402,40.9663866 147.527735,40.8103241 Z M63.0480387,44.6338535 L63.0480387,29.1836735 C63.0480387,28.0912365 62.8142388,27.2328932 62.346639,26.6866747 C61.8790392,26.1404562 61.1776395,25.8283313 60.24244,25.8283313 C59.3851737,25.8283313 58.7617073,26.1404562 58.2161742,26.6866747 C57.6706411,27.2328932 57.3589079,28.0912365 57.3589079,29.1836735 L57.3589079,44.6338535 L63.0480387,44.6338535 Z M99.9884223,44.6338535 C101.858821,44.3997599 103.807154,44.2436975 105.755486,44.0876351 L105.755486,29.1836735 C105.755486,28.0912365 105.521687,27.2328932 104.976153,26.6866747 C104.508554,26.1404562 103.807154,25.8283313 102.871954,25.8283313 C102.014688,25.8283313 101.391222,26.1404562 100.845689,26.6866747 C100.300156,27.2328932 99.9884223,28.0912365 99.9884223,29.1836735 L99.9884223,44.6338535 Z M184.390185,39.2496999 C186.260584,39.1716687 188.208917,39.1716687 190.157249,39.0936375 L190.157249,29.1836735 C190.157249,28.0912365 189.845516,27.2328932 189.377916,26.6866747 C188.910316,26.1404562 188.208917,25.8283313 187.273717,25.8283313 C186.416451,25.8283313 185.792984,26.1404562 185.247451,26.6866747 C184.701918,27.2328932 184.390185,28.0912365 184.390185,29.1836735 L184.390185,39.2496999 Z M263.18075,39.0936375 C265.129082,39.1716687 266.999482,39.1716687 268.947814,39.2496999 L268.947814,29.1056423 C268.947814,28.0132053 268.714014,27.1548619 268.246414,26.6086435 C267.778815,26.062425 266.999482,25.7503001 266.064282,25.7503001 C265.284949,25.7503001 264.661483,26.062425 264.11595,26.6086435 C263.570416,27.1548619 263.258683,28.0132053 263.258683,29.1056423 L263.258683,39.0936375 L263.18075,39.0936375 Z M305.264731,40.9663866 C307.13513,41.0444178 309.083463,41.2004802 310.953862,41.3565426 L310.953862,29.1836735 C310.953862,27.1548619 310.096596,26.1404562 308.148263,26.1404562 C307.213064,26.1404562 306.433731,26.3745498 305.966131,26.8427371 C305.498531,27.3109244 305.264731,28.0912365 305.264731,29.1056423 L305.264731,40.9663866 Z M347.504579,12.0948379 L330.98272,12.0948379 L330.98272,0 L347.504579,0 L347.504579,12.0948379 Z" id="Shape" fill="#153D8A"></path>
        </g>
    </g>
</svg>