<?xml version="1.0" encoding="UTF-8"?>
<svg width="600px" height="250px" viewBox="0 0 600 250" version="1.1" xmlns="http://www.w3.org/2000/svg" xmlns:xlink="http://www.w3.org/1999/xlink">
    <!-- Generator: Sketch 50.1 (55044) - http://www.bohemiancoding.com/sketch -->
    <title>ESTC</title>
    <desc>Created with Sketch.</desc>
    <defs>
        <polygon id="path-1" points="0 135 450 135 450 0 0 0"></polygon>
    </defs>
    <g id="ESTC" stroke="none" stroke-width="1" fill="none" fill-rule="evenodd">
        <g id="Grid-Logo" opacity="0.400000006" transform="translate(1.000000, 0.000000)"></g>
        <g id="ESTC3" transform="translate(75.000000, 58.000000)">
            <path d="M157,59.0631988 C157.369388,56.820425 157.596843,54.5438406 158.134851,52.340216 C159.641517,46.1748125 162.904746,41.0925365 168.231451,37.3650595 C171.633579,34.9840773 175.527011,34.1138977 179.603014,34.0634783 C187.237635,33.9691643 194.874075,34.0118725 202.509909,34.0000091 C202.656694,33.9994159 202.803478,34.0278881 203,34.0480558 L203,43.9759333 C202.629399,43.9759333 202.273962,43.9735606 201.918525,43.9765264 C195.510951,44.0269458 189.10277,44.0595702 182.695196,44.1461729 C181.568837,44.1610021 180.432166,44.3342076 179.322789,44.5459691 C174.722728,45.4250463 171.851936,48.5557948 171.215061,53.3533494 C171.053719,54.566381 170.961524,55.7883101 170.82505,57.131839 L202.998787,57.131839 L202.998787,67.117847 L170.914213,67.117847 C170.812919,72.9866657 173.883872,77.4834835 179.006171,78.9438667 C180.381215,79.3359517 181.818128,79.6871081 183.236844,79.7310026 C188.35247,79.8887857 193.472949,79.9119193 198.591002,79.9759816 C200.027914,79.9943699 201.464827,79.9789474 202.978164,79.9789474 L202.978164,89.928179 C202.777397,89.9530921 202.572384,90.001732 202.367977,89.9999525 C195.53036,89.9554648 188.692137,89.9637691 181.85634,89.833865 C178.264363,89.7650574 174.698466,89.3083169 171.300584,88.0567293 C165.891388,86.064273 162.435277,82.1066463 160.01697,77.1584266 C158.318029,73.6824535 157.519205,69.96684 157.166194,66.1486081 C157.131014,65.7648274 157.056409,65.3846058 157,65.0031978 L157,59.0631988 Z" id="Fill-1" fill="#000000"></path>
            <path d="M321.346139,74.4519522 C321.128493,74.430045 321.007172,74.4069207 320.885242,74.4069207 C315.893407,74.4057036 310.901573,74.4008354 305.910348,74.4148317 C305.422017,74.4160487 304.923931,74.4896814 304.448402,74.6034773 C302.901104,74.9740747 301.985406,76.0730876 301.839089,77.677184 C301.673264,79.4985272 302.270723,80.7070763 303.869232,81.295529 C304.863575,81.6612581 305.957901,81.9131913 307.01199,81.9302302 C311.663029,82.00508 316.316506,81.9764789 320.968764,81.9813471 C321.08216,81.9813471 321.196165,81.9332729 321.346139,81.8998035 L321.346139,74.4519522 Z M332.979528,90.9967828 C332.560696,90.9967828 332.318055,90.9967828 332.074803,90.9967828 C322.242328,90.9906974 312.409244,91.0235583 302.576769,90.9602707 C298.598176,90.9347123 295.056096,89.7486789 292.48702,86.4577254 C288.310291,81.1081004 289.563736,71.6928577 294.97806,67.7568579 C296.87286,66.3791362 299.051758,65.8990027 301.314178,65.7237448 C303.124846,65.5825648 304.944049,65.5064981 306.760204,65.4937188 C311.229566,65.4620751 315.698928,65.4827652 320.168291,65.4827652 C320.531643,65.4827652 320.894387,65.4827652 321.233353,65.4827652 C322.032608,62.2167616 320.334726,59.2367692 317.210257,58.5199158 C315.811104,58.1992182 314.346719,58.0416078 312.909768,58.0300457 C306.683997,57.9783202 300.457007,58.0075299 294.230626,58.0075299 C293.897146,58.0075299 293.563666,58.0075299 293.164954,58.0075299 L293.164954,49.0809403 C293.378332,49.0523392 293.585004,48.9993967 293.791067,49.0000052 C301.865914,49.0346917 309.94198,49.0231295 318.014998,49.1503132 C319.869561,49.1795228 321.78326,49.4740534 323.5543,50.0193002 C328.360801,51.4998641 331.085337,55.0178009 332.124185,59.783233 C332.650315,62.1972885 332.908808,64.7111437 332.942339,67.1842271 C333.044761,74.7519597 332.979528,82.3215178 332.979528,89.8898589 L332.979528,90.9967828 Z" id="Fill-3" fill="#000000"></path>
            <path d="M248.038088,49.0015571 L248.038088,58.228175 C247.623923,58.228175 247.261298,58.228175 246.899287,58.228175 C240.229688,58.228175 233.559475,58.2231923 226.889876,58.2350261 C225.960918,58.2368946 225.029506,58.2954407 224.103616,58.3789001 C222.360439,58.5358535 221.402029,59.4177821 221.111807,61.0720212 C220.75409,63.1124154 221.409392,64.8575878 222.939657,65.4953667 C223.780874,65.8460205 224.73192,66.057783 225.64063,66.0870561 C229.018994,66.1954287 232.402266,66.1412424 235.778789,66.2714141 C237.56553,66.3405483 239.382336,66.492519 241.117536,66.9023418 C246.896832,68.2669645 250.094804,72.5719721 249.997858,78.6153009 C249.943864,81.9698685 248.851694,84.9532288 246.953282,87.6725088 C244.805143,90.7486709 241.684482,91.7227786 238.19997,91.8186945 C234.139307,91.9301813 230.07619,91.964437 226.013686,91.9862361 C220.925892,92.0130178 215.838099,91.9924644 210.750919,91.9924644 L209.665499,91.9924644 L209.665499,82.7733204 C210.008489,82.7733204 210.366819,82.7739433 210.725149,82.7733204 C218.418197,82.7571268 226.111245,82.7434246 233.804293,82.719757 C234.360809,82.7185113 234.919779,82.668062 235.47384,82.6064017 C237.545281,82.3747086 238.543574,81.2872458 238.601864,79.2200698 C238.663835,77.015871 237.568597,75.4675132 235.6076,75.2158895 C234.136239,75.0271717 232.641562,74.9879334 231.155474,74.9580375 C228.055062,74.8957544 224.952195,74.9237818 221.85301,74.8316028 C220.714208,74.7973471 219.564975,74.6086293 218.450103,74.3551371 C212.977596,73.1113437 209.488788,68.9259196 209.065419,63.1485396 C208.896071,60.8347226 209.018173,58.5458188 209.87841,56.3640419 C211.748598,51.6224298 215.336805,49.3877123 220.248502,49.1367114 C221.580581,49.0682 222.913887,49.0096539 224.247193,49.0077854 C231.785619,48.9953288 239.324046,49.0015571 246.862472,49.0015571 C247.227551,49.0015571 247.593244,49.0015571 248.038088,49.0015571" id="Fill-5" fill="#000000"></path>
            <path d="M438.22174,71.0385708 C438.169518,71.0249572 438.117911,71.0119624 438.065689,70.9983488 C437.982134,69.9086415 437.954487,68.8115087 437.805194,67.7310835 C437.291575,64.0096188 435.995857,60.7584423 432.33602,59.0499348 C430.338685,58.1174028 428.211101,57.9732224 426.048499,58.1273036 C421.969044,58.4187585 419.150287,60.5369118 417.92768,64.4520609 C416.628889,68.609161 416.579739,72.8510367 417.846582,77.0106119 C418.285861,78.4542729 419.105438,79.9096911 420.116086,81.0235315 C422.606766,83.766673 425.94897,84.1051568 429.397461,83.7283074 C433.49289,83.2815336 436.129176,80.9666019 437.209249,77.0155623 C437.739455,75.0768612 437.896121,73.0342016 438.22174,71.0385708 M426.552901,49 C431.034772,49.0532168 434.541629,49.4721446 437.85803,50.8731083 C443.55145,53.2790037 447.253064,57.5091222 448.921094,63.4811634 C450.203911,68.0776116 450.361191,72.7538851 449.294021,77.4091193 C447.708317,84.3297813 443.475882,89.0171931 436.873186,91.3494512 C431.004668,93.4224321 424.962282,93.5276281 418.998537,91.7504338 C412.326416,89.7616098 407.999982,85.266026 406.08743,78.5241973 C404.702012,73.6393882 404.604941,68.6716598 406.000803,63.7893259 C408.309627,55.7127451 413.858669,51.1410489 421.916207,49.5371186 C423.73476,49.1751205 425.610449,49.1045772 426.552901,49" id="Fill-7" fill="#000000"></path>
            <path d="M284.980787,89.8930221 C284.901454,89.9619591 284.878522,90.0005875 284.85559,89.9999932 C280.756962,89.9239249 276.625485,90.1283586 272.567143,89.6980969 C266.692216,89.0758813 263.813321,86.1876602 262.864433,80.5657318 C262.530369,78.5873597 262.372325,76.5644163 262.344434,74.5593015 C262.274399,69.3920005 262.321502,64.2229166 262.321502,59.054427 C262.321502,58.6960737 262.321502,58.3383146 262.321502,57.8795272 L255,57.8795272 L255,49.0740184 L262.287414,49.0740184 L262.287414,34 L274.115982,34 L274.115982,49.0240985 L285,49.0240985 L285,57.8141559 L274.194695,57.8141559 C274.168664,58.1101095 274.140154,58.2842347 274.140154,58.4577657 C274.144492,63.6565638 274.120321,68.8553619 274.181679,74.0529714 C274.197174,75.3639623 274.450665,76.6779246 274.663251,77.9800013 C274.960127,79.7973223 276.188538,80.812954 278.01442,81.0126335 C279.780803,81.2057758 281.573217,81.1825988 283.354475,81.2444043 C283.878812,81.2628271 284.404388,81.2473757 284.980787,81.2473757 L284.980787,89.8930221 Z" id="Fill-9" fill="#000000"></path>
            <path d="M379,49.0847781 L379,58.2009893 C378.632406,58.2171737 378.303281,58.2451853 377.974156,58.2451853 C373.589284,58.2482977 369.20319,58.1810699 364.820761,58.2800441 C363.078658,58.3192603 361.308466,58.5744769 359.613992,58.996518 C356.479062,59.7777296 354.473781,61.869883 353.618911,65.0557326 C352.70359,68.4669199 352.677943,71.9023838 353.53953,75.3210408 C354.622162,79.6192612 357.673437,81.6398294 361.716972,82.3388737 C363.352216,82.6214794 365.029593,82.7335257 366.689873,82.7602923 C370.425044,82.8200503 374.162047,82.7783442 377.898439,82.7777217 C378.23367,82.7777217 378.568291,82.7777217 378.972522,82.7777217 L378.972522,91.935639 C378.713008,91.9543134 378.446777,91.9897947 378.179935,91.9897947 C372.652591,91.9866823 367.125246,92.0321233 361.599122,91.9530684 C358.195518,91.9051375 354.788862,91.6057249 351.663701,90.0601085 C347.078545,87.792416 344.152447,83.9766171 342.528195,79.1580039 C340.532073,73.2338673 340.497268,67.1951944 342.389583,61.2530059 C344.45959,54.7543207 348.925064,50.8451499 355.560076,49.7439839 C358.197961,49.3063808 360.895076,49.1146572 363.570819,49.0567666 C368.477772,48.9503226 373.389,49.0256426 378.298396,49.028755 C378.509671,49.028755 378.720946,49.0617464 379,49.0847781" id="Fill-11" fill="#000000"></path>
            <mask id="mask-2" fill="white">
                <use xlink:href="#path-1"></use>
            </mask>
            <g id="Clip-14"></g>
            <polygon id="Fill-13" fill="#000000" mask="url(#mask-2)" points="387 91 398 91 398 49 387 49"></polygon>
            <polygon id="Fill-15" fill="#000000" mask="url(#mask-2)" points="387 45 398 45 398 34 387 34"></polygon>
            <path d="M305,43.9959652 C307.672715,40.64178 310.206104,37.4549377 312.760424,34.2804912 C312.883398,34.1277978 313.191486,34.0066572 313.414539,34.0055303 C316.916673,33.993698 320.418806,34.0032765 323.92094,34.0117282 C323.972615,34.0117282 324.02429,34.0601844 323.98766,34.0415908 C322.977705,34.968457 321.989991,35.943216 320.919205,36.8447273 C318.24976,39.0923075 315.546955,41.3105886 312.844151,43.5283063 C312.598204,43.7300194 312.256101,43.9706102 311.9539,43.9756812 C309.711593,44.013432 307.467977,43.9959652 305,43.9959652" id="Fill-16" fill="#000000" mask="url(#mask-2)"></path>
            <path d="M111.05941,66.6390907 C113.231294,66.7524493 115.401353,66.8942991 117.573237,67.0088701 C121.482749,67.2149766 125.39591,67.3628883 129.300557,67.6332516 C130.574736,67.72115 131.858039,67.6908402 133.12857,68 L136,68 C136.01144,65.8577045 135.159959,63.7111656 133.442401,61.9919947 C129.973834,58.5209182 126.493712,55.0607533 123.022712,51.5921016 C111.538064,40.1149989 100.054632,28.6366838 88.5712006,17.1583686 C83.7822306,12.3718476 79.0133313,7.56592824 74.2006416,2.803655 C72.3231269,0.94505906 70.1840861,0 68.0085533,0 L68.0085533,2.26414085 C68.0097697,2.26232226 68.0103779,2.26110987 68.0115943,2.25929129 C68.0115943,2.43266325 68.0103779,2.5939113 68.0085533,2.74909739 L68.0085533,2.75697794 L68.0079451,2.75697794 C68.0018631,3.30194785 67.9903073,3.74992645 68.0158517,4.19426789 C68.3150863,9.35602407 68.6179701,14.5183864 68.9348425,19.6795364 C69.0905418,22.2134344 69.2869905,24.7449075 69.4445145,27.2781992 C69.4797901,27.8522665 69.7206374,28.0929262 70.3032934,28.1244484 C76.0428806,28.429971 81.7836841,28.7227635 87.5196221,29.0895119 C89.3344921,29.2052953 91.1669999,29.1737731 93.1120247,29.5223356 C92.1024121,29.6120526 91.2418085,29.7102563 90.3775557,29.7611767 C83.8649459,30.1448986 77.3517278,30.5201337 70.8379016,30.8953688 C69.710298,30.9602318 69.6166352,31.0493425 69.6877946,32.1617116 C69.980339,36.7039358 70.2978196,41.2443414 70.5672524,45.787778 C70.912102,51.599376 71.2283662,57.4127925 71.53125,63.2268152 C71.5659174,63.9002986 71.749594,64.2367372 72.4855164,64.2791709 C77.1990695,64.5543838 81.9101898,64.8665745 86.6225265,65.1557299 C89.1964306,65.313947 91.771551,65.4467038 94.3460633,65.5964341 C98.2227327,65.8225451 102.099402,66.0438066 105.974855,66.2905282 C106.727807,66.3384177 107.041638,66.0547181 107.085429,65.3084912 C107.292825,61.7852819 107.541579,58.2644974 107.747151,54.740682 C107.966103,50.9998485 108.127276,47.255984 108.371164,43.516969 C108.433201,42.5731224 108.503752,41.6226075 108.608363,40.6757299 C108.764062,42.1942501 108.82549,43.7085269 108.914287,45.2215913 C109.144795,49.1473145 109.385035,53.0718253 109.62649,56.9969423 C109.807734,59.9327479 110.003574,62.8679474 110.175087,65.8043593 C110.209754,66.3947938 110.500474,66.6099933 111.05941,66.6390907" id="Fill-17" fill="#7FCFAF" mask="url(#mask-2)"></path>
            <path d="M64.9991142,31.0030181 C64.134185,31.0537113 63.0172638,31.1226777 61.9003425,31.1833917 C59.4175514,31.3189666 56.933543,31.4392156 54.4513606,31.5848113 C50.7293043,31.8029101 47.0084653,32.0475344 43.2858004,32.2620964 C39.8102581,32.4619221 36.334107,32.6417062 32.857956,32.8209009 C32.2060636,32.8544999 31.896856,33.1680906 31.8828564,33.7864301 C31.8700742,34.3593815 31.8682482,34.9329223 31.8329449,35.5041054 C31.5979959,39.3196551 31.3545253,43.1346154 31.1165328,46.9495757 C30.9759286,49.2030666 30.8462805,51.457147 30.6995895,53.7106379 C30.4743792,57.1642616 30.2436908,60.6184747 30.0050897,64.0715089 C29.9557869,64.7859298 30.2631685,65.106594 30.9929715,64.9686612 C32.3454505,64.7128373 33.7222765,64.7906455 35.0844944,64.6963325 C40.4785848,64.3232067 45.8805879,64.0632566 51.2795478,63.7579183 C55.4678502,63.5209569 59.6561526,63.2834061 63.8438463,63.0370134 C65.1111106,62.9627419 65.1999774,62.9020279 65.2742359,61.6730118 C65.4915334,58.066719 65.6735276,54.4586578 65.8725648,50.8517755 C66.005865,48.4467944 66.1349044,46.0418132 66.2840301,43.638011 C66.5092404,40.0028348 66.777058,36.3700165 66.9736605,32.7336614 C67.0680053,30.9882817 67.0120071,30.9853344 64.9991142,31.0030181" id="Fill-18" fill="#BBE6C9" mask="url(#mask-2)"></path>
            <path d="M62.3392725,2.0844765 C59.7407729,4.06396238 57.6209607,6.54480792 55.1963593,8.71834949 C52.7287508,10.9302303 50.4288076,13.3096243 48.0335009,15.5952345 C44.8447449,18.6364231 41.6335504,21.6563778 38.4366916,24.6898986 C38.2440947,24.8733372 37.9249698,25.0337723 38.0159703,25.3452052 C38.088272,25.5917561 38.3843352,25.5357218 38.5981239,25.5469287 C43.3974635,25.7946593 48.1968031,26.0347221 52.9955193,26.2877613 C54.4883009,26.3662093 55.9792126,26.4883052 57.4719942,26.5720617 C60.1091378,26.7207001 62.747528,26.8522333 65.3852949,26.9967428 C66.019805,27.0315431 66.2934296,26.7897108 66.3308271,26.163896 C66.4897663,23.5178967 66.7166441,20.8760262 66.8699737,18.2300269 C67.1554409,13.2972377 67.4060038,8.36267905 67.6752655,3.42871021 C67.6927176,3.09840267 67.6908477,2.75629843 68,2.29032887 L68,0 C66.0908601,0.0141560373 64.1561653,0.700134013 62.3392725,2.0844765" id="Fill-19" fill="#BBE6C9" mask="url(#mask-2)"></path>
            <path d="M25.4419324,57.2535697 C25.1685102,52.4086964 24.9143519,47.5626049 24.6483867,42.7171225 C24.635337,42.4777416 24.7279277,42.1591763 24.4594768,42.0379631 C24.1232919,41.8856852 23.9586171,42.228615 23.7721929,42.4113485 C16.5544692,49.4800881 9.32121014,56.5335999 2.14512116,63.6425408 C0.65559178,65.1184181 0.0341777705,66.9835177 0,68.9856673 L1.71323842,68.9856673 L1.71323842,68.9881038 C3.83785292,69.0563243 5.93761086,68.8138979 8.03799021,68.6987758 C13.5816246,68.3954382 19.1215305,68.0190073 24.6701362,67.7948543 C25.8489586,67.7473436 26.0521609,67.5737468 25.9900195,66.3804972 C25.8328018,63.3373759 25.6134426,60.296691 25.4419324,57.2535697" id="Fill-20" fill="#BBE6C9" mask="url(#mask-2)"></path>
            <path d="M68,133.468401 C67.6732646,129.665853 67.4200143,125.860882 67.1904493,122.054699 C66.92566,117.668775 66.6693731,113.282245 66.4404154,108.893898 C66.4021546,108.168766 66.0906021,107.906459 65.4061582,107.912517 C64.6300098,107.918575 63.8520395,107.905853 63.0771057,107.859813 C58.1851845,107.569033 53.290834,107.304303 48.403164,106.950521 C46.5344561,106.81543 44.6463142,106.882673 42.682258,106.519804 C44.960296,106.366539 47.1229442,106.208428 49.2868071,106.078183 C54.6439315,105.756508 60.0010559,105.437256 65.359395,105.145871 C66.0675241,105.107706 66.2788697,104.80784 66.2357503,104.160855 C66.1501189,102.894753 66.0984972,101.626833 66.0183316,100.360125 C65.6654817,94.7711002 65.293805,89.1832873 64.954316,83.5930512 C64.7350753,79.9789042 64.5528808,76.3629399 64.3694717,72.7469755 C64.3397133,72.1575412 64.1241165,71.8800891 63.4991895,71.7843742 C62.3537937,71.6099065 61.204754,71.6729087 60.0593582,71.6014254 C55.1680442,71.2967127 50.2755157,71.00351 45.3835945,70.7066726 C42.9992763,70.5618886 40.6149582,70.4177105 38.23064,70.2759555 C35.4133064,70.1087572 32.5947581,69.953069 29.7786391,69.7719376 C29.057149,69.7258976 28.7905378,70.0118307 28.7607793,70.7272695 C28.6696821,72.9529443 28.5202827,75.1768018 28.4024636,77.401265 C28.1394962,82.3766236 27.9044654,87.3537996 27.6044518,92.326735 C27.5394692,93.3977728 27.4556597,94.473657 27.336626,95.5483296 C27.2394556,95.0194744 27.2667848,94.4942539 27.2352044,93.9720624 C26.9479445,89.2468953 26.6473236,84.5229399 26.3564198,79.7983786 C26.1608644,76.6167661 25.9677383,73.4357595 25.7904023,70.2535412 C25.757,69.6574432 25.4557719,69.4563207 24.902508,69.426637 C22.7963401,69.3151715 20.6919941,69.1697817 18.5852188,69.061951 C14.4645875,68.8505301 10.3390976,68.711804 6.22393207,68.4264766 C4.70139371,68.321069 3.15274081,68.4355635 1.66239013,68 L0.00138397958,68 C-0.00347453933,68.3059243 0.0044205539,68.6142717 0.0256765741,68.9256481 C0.181756494,71.2052383 1.36237659,73.0159465 2.93471477,74.5934254 C5.5631735,77.2292205 8.20377853,79.8528998 10.8389177,82.4820312 C27.8583095,99.4665835 44.8777012,116.45053 61.8977003,133.433871 C62.7892385,134.323171 63.8289615,135.001051 65.0120109,135.423893 C66.0511266,135.795849 67.0465157,135.983038 68,136 L68,133.468401 Z" id="Fill-21" fill="#58C4DD" mask="url(#mask-2)"></path>
            <path d="M132.132642,68 C132.017158,68.0259564 131.902908,68.0670037 131.786188,68.07304 C126.682007,68.3362256 121.577826,68.5933748 116.473646,68.858975 C114.268318,68.9742696 112.064226,69.1143133 109.858899,69.2277969 C109.290121,69.2567715 108.965281,69.455368 109.002953,70.0656446 C109.133877,72.1590565 109.249979,74.2524684 109.378433,76.3458803 C109.743414,82.2862686 110.110866,88.2266569 110.483258,94.1670451 C110.501167,94.4573944 110.357275,94.8648491 110.729667,94.9843692 C111.02054,95.0773292 111.205192,94.7332563 111.399726,94.5431108 C113.745858,92.2553279 116.093843,89.9693559 118.427624,87.6701039 C123.098891,83.0685817 127.759042,78.4567977 132.427839,73.8540682 C134.12738,72.1783729 134.984561,70.091601 135,68 L132.132642,68 Z" id="Fill-22" fill="#59B3B6" mask="url(#mask-2)"></path>
            <path d="M103.556779,69.0111463 C103.464149,69.0152496 103.370914,69.0199391 103.278284,69.0252148 C98.5559761,69.3118605 93.8342739,69.6119885 89.11015,69.8804624 C84.3860262,70.1495225 79.6594806,70.3804804 74.9341458,70.6407476 C73.5144264,70.7187106 72.0977342,70.8494304 70.6780148,70.9314966 C70.0853046,70.9654955 69.8927798,71.2574169 69.8643248,71.7955371 C69.6845139,75.1754943 69.4865402,78.5542792 69.2915937,81.9330642 C69.1584004,84.2356088 69.0300505,86.5387396 68.8811162,88.8401118 C68.6008048,93.17321 68.3071742,97.505722 68.0117272,101.950782 C67.9862994,102.460765 67.9160702,103.058676 68.9150199,102.995368 C74.5932921,102.636035 80.2733806,102.297805 85.9540745,101.966609 C91.3260021,101.653585 96.6979297,101.34525 102.072279,101.06857 C102.876282,101.02695 103.131166,100.710995 103.162648,99.968882 C103.25891,97.6950606 103.413899,95.4229977 103.548908,93.1509349 C103.852226,88.0382073 104.151911,82.9260658 104.46552,77.8139244 C104.615665,75.3630743 104.773681,72.9122243 104.968022,70.4648914 C105.076999,69.0908678 104.975893,68.9513552 103.556779,69.0111463" id="Fill-23" fill="#59B3B6" mask="url(#mask-2)"></path>
            <path d="M97.2373871,109.449462 C93.9397317,109.260817 90.6408326,109.093985 87.3431772,108.907108 C84.6804277,108.755603 82.0195438,108.569316 79.3555507,108.427243 C76.4055078,108.270432 73.4529776,108.154298 70.5023129,108.002792 C69.8636759,107.970369 69.5396935,108.219144 69.5067356,108.811017 C69.4532568,109.773695 69.4221644,110.737552 69.3618452,111.699641 C69.0608712,116.53897 68.7561661,121.378299 68.4458644,126.217038 C68.3059488,128.400602 68.150487,130.583576 68.0018655,132.76714 C68.0012437,132.758887 68.0006218,132.751223 68,132.74297 L68,134.999044 C70.4556744,135.035594 72.6414671,134.022807 74.590336,132.167014 C80.2211619,126.803606 85.830845,121.419565 91.4535868,116.048493 C93.4696153,114.121958 95.500568,112.208982 97.518462,110.284215 C97.7124783,110.099108 98.0681749,109.934633 97.9885784,109.654024 C97.8946795,109.322127 97.4985629,109.4642 97.2373871,109.449462" id="Fill-24" fill="#59B3B6" mask="url(#mask-2)"></path>
        </g>
    </g>
</svg>