<?xml version="1.0" encoding="UTF-8"?>
<svg width="600px" height="250px" viewBox="0 0 600 250" version="1.1" xmlns="http://www.w3.org/2000/svg" xmlns:xlink="http://www.w3.org/1999/xlink">
    <!-- Generator: Sketch 50.1 (55044) - http://www.bohemiancoding.com/sketch -->
    <title>FLRY</title>
    <desc>Created with Sketch.</desc>
    <defs></defs>
    <g id="FLRY" stroke="none" stroke-width="1" fill="none" fill-rule="evenodd">
        <g id="Grid-Logo" opacity="0.400000006"></g>
        <g id="FLRY3" transform="translate(115.000000, 42.000000)">
            <path d="M69.0944532,54.2373458 C69.0944532,54.1658869 69.1656846,54.0944279 69.236916,54.0944279 C69.3081474,54.0944279 69.3793788,54.1658869 69.3793788,54.2373458 C71.7300148,73.6741812 66.530123,90.3241174 53.922166,97.6129307 L30.7719627,111.047214 L53.9933974,124.481497 C66.6013543,131.770311 71.8012462,148.420247 69.4506102,167.857082 C69.4506102,167.928541 69.3793788,168 69.3081474,168 C69.236916,168 69.1656846,167.928541 69.1656846,167.857082 C68.880759,159.853679 63.6096358,151.350064 54.7769428,146.276478 L16.0982953,123.909826 C14.958593,123.266695 13.8188906,122.480647 12.8216511,121.694598 C5.48481742,126.911102 1.13970232,134.485751 0.926008135,141.703105 C0.926008135,141.774564 0.85477674,141.846023 0.783545345,141.846023 C0.71231395,141.846023 0.641082555,141.774564 0.641082555,141.703105 C-0.783545345,130.055296 0.498619765,119.407912 4.48757789,111.190132 C1.4958593,105.116121 0,97.6843896 0,89.6095279 L0,78.53339 C0,63.0267971 5.41358602,50.2356444 16.0270639,44.0901744 L54.7057114,21.7235219 C63.5384044,16.5784772 68.8095276,8.07486176 69.0944532,0.142917907 C69.0944532,0.0714589536 69.1656846,0 69.236916,0 C69.3081474,0 69.3793788,0.0714589536 69.3793788,0.142917907 C71.7300148,19.5797533 66.530123,36.2296895 53.922166,43.5185028 L15.2435185,65.7422373 C11.895643,67.6716291 9.11761856,70.1012335 6.83821392,72.7452148 C4.20265231,75.9608677 2.63556162,79.7481923 2.63556162,83.8928116 C2.63556162,87.823054 4.06018952,91.5389196 6.55328834,94.6831136 C8.26284182,96.8268822 10.3285523,98.7562739 12.7504197,100.471289 C13.8188906,99.6137814 14.8873616,98.8991918 16.0270639,98.2560613 L54.7057114,75.8894088 C63.6096358,70.6729051 68.880759,62.1692897 69.0944532,54.2373458 Z" id="Shape" fill="#DB261B"></path>
            <path d="M131.558442,56.071746 L100,56.071746 L100,115.333968 L108.51577,115.333968 L108.51577,87.7834921 L131.558442,87.7834921 L131.558442,80.1066667 L108.51577,80.1066667 L108.51577,63.6768254 L131.558442,63.6768254 L131.558442,56.071746 Z M149.448715,56.071746 L140.932945,56.071746 L140.932945,115.333968 L176.141002,115.333968 L176.141002,107.657143 L149.448715,107.657143 L149.448715,56.071746 Z M214.855553,56.071746 L181.2934,56.071746 L181.2934,115.333968 L215.642725,115.333968 L215.642725,107.657143 L189.80917,107.657143 L189.80917,89.2184127 L213.99682,89.2184127 L213.99682,81.6133333 L189.80917,81.6133333 L189.80917,63.6768254 L214.855553,63.6768254 L214.855553,56.071746 Z M280.90644,56.071746 L280.90644,115.333968 L289.42221,115.333968 L289.42221,89.6488889 L293.000265,89.6488889 C297.365492,89.6488889 300.871985,91.0120635 308.672144,103.208889 L316.472303,115.405714 L326.633978,115.405714 C322.554996,109.737778 321.123774,107.728889 318.547575,103.711111 C314.039226,96.3212698 310.747416,90.8685714 305.380334,87.2812698 C311.67771,84.7701587 315.255765,79.6044444 315.255765,72.7885714 C315.255765,62.5288889 307.813411,56.2152381 295.862709,56.2152381 L280.90644,56.2152381 L280.90644,56.071746 Z M289.350649,63.3180952 L294.789292,63.3180952 C303.018818,63.3180952 306.310628,66.6901587 306.382189,72.2863492 C306.45375,77.2368254 303.877551,81.9003175 294.789292,81.9003175 L289.350649,81.9003175 L289.350649,63.3180952 Z M343.737079,76.447619 L327.850517,56 L317.617281,56 L339.514975,83.9092063 L339.514975,115.262222 L348.030745,115.262222 L348.030745,83.9809524 L369.928439,56 L359.766764,56 L343.737079,76.447619 Z M263.302412,56.071746 L263.302412,90.5815873 C263.302412,96.1060317 262.658362,100.48254 259.939041,103.495873 C257.505963,106.222222 253.283859,108.302857 247.415849,108.302857 C242.83594,108.302857 238.971641,106.652698 235.894514,103.280635 C233.461437,100.554286 232.674265,97.8279365 232.674265,91.0838095 L232.674265,56.071746 L224.301617,56.071746 L224.301617,92.8774603 C224.301617,109.020317 235.608269,116.051429 247.201166,116.051429 C263.588656,116.051429 271.603499,106.509206 271.603499,92.0165079 L271.603499,56.071746 L263.302412,56.071746 Z M100.071561,168.354286 L105.22396,168.354286 L105.22396,146.184762 L105.295521,146.184762 L110.233236,168.354286 L114.598463,168.354286 L119.536178,146.184762 L119.607739,146.184762 L119.607739,168.354286 L124.760138,168.354286 L124.760138,140.588571 L116.459051,140.588571 L112.45163,160.175238 L112.380069,160.175238 L108.444209,140.588571 L100.143122,140.588571 L100.143122,168.354286 L100.071561,168.354286 Z M143.652266,158.668571 L143.652266,157.448889 C143.652266,150.991746 142.221044,146.830476 135.995229,146.830476 C128.767559,146.830476 127.694143,152.067937 127.694143,157.664127 C127.694143,162.901587 127.980387,168.856508 135.780546,168.856508 C140.861384,168.856508 143.151338,166.130159 143.366022,161.251429 L138.571429,161.251429 C138.285184,163.834286 137.498012,165.19746 135.708985,165.19746 C133.705274,165.19746 133.061224,162.758095 133.061224,160.31873 L133.061224,158.668571 L143.652266,158.668571 Z M133.061224,155.511746 L133.061224,154.72254 C133.061224,152.785397 133.705274,150.56127 135.852107,150.56127 C138.070501,150.56127 138.428306,152.354921 138.571429,155.511746 L133.061224,155.511746 Z M151.309303,157.879365 C151.309303,153.359365 151.810231,150.991746 154.100186,150.991746 C156.461702,150.991746 156.962629,153.359365 156.962629,157.879365 C156.962629,162.399365 156.461702,164.766984 154.100186,164.766984 C151.810231,164.766984 151.309303,162.399365 151.309303,157.879365 Z M157.177312,168.354286 L162.329711,168.354286 L162.329711,140.588571 L156.962629,140.588571 L156.962629,149.413333 L156.891068,149.413333 C155.746091,147.763175 154.38643,146.902222 152.382719,146.902222 C148.017493,146.902222 145.942221,150.130794 145.942221,157.951111 C145.942221,165.771429 147.945932,169 152.382719,169 C154.457991,169 155.960774,168.210794 157.105751,166.201905 L157.177312,166.201905 L157.177312,168.354286 Z M166.050888,168.354286 L171.41797,168.354286 L171.41797,147.404444 L166.050888,147.404444 L166.050888,168.354286 Z M166.050888,144.821587 L171.41797,144.821587 L171.41797,140.229841 L166.050888,140.229841 L166.050888,144.821587 Z M190.381659,154.937778 C190.381659,149.987302 187.80546,146.830476 182.867745,146.830476 C177.930029,146.830476 174.423536,149.269841 174.423536,157.879365 C174.423536,166.273651 177.071296,168.928254 182.438378,168.928254 C188.091704,168.928254 190.381659,165.843175 190.381659,160.390476 L185.229261,160.390476 C185.229261,163.76254 184.442089,165.269206 182.653061,165.269206 C180.219984,165.269206 179.790618,163.116825 179.790618,157.951111 C179.790618,153.144127 180.219984,150.776508 182.867745,150.776508 C184.871455,150.776508 185.300822,152.928889 185.300822,155.009524 L190.381659,155.009524 L190.381659,154.937778 Z M193.387225,168.354286 L198.754307,168.354286 L198.754307,147.404444 L193.387225,147.404444 L193.387225,168.354286 Z M193.387225,144.821587 L198.754307,144.821587 L198.754307,140.229841 L193.387225,140.229841 L193.387225,144.821587 Z M202.475484,168.354286 L207.842566,168.354286 L207.842566,154.435556 C207.842566,152.067937 208.844421,150.991746 210.705009,150.991746 C212.279353,150.991746 212.994964,151.780952 212.994964,153.933333 L212.994964,168.354286 L218.362046,168.354286 L218.362046,152.857143 C218.362046,148.695873 216.358336,146.902222 213.066525,146.902222 C210.848131,146.902222 208.844421,147.834921 207.771005,149.915556 L207.699443,149.915556 L207.699443,147.47619 L202.547045,147.47619 L202.547045,168.354286 L202.475484,168.354286 Z M226.663133,153.789841 L226.663133,153.215873 C226.663133,151.565714 227.521866,150.489524 229.167771,150.489524 C230.956798,150.489524 231.672409,151.422222 231.672409,153.000635 C231.672409,154.36381 231.09992,155.009524 229.525576,155.44 L226.520011,156.229206 C222.798834,157.233651 221.22449,158.88381 221.22449,162.829841 C221.22449,165.627937 222.512589,168.856508 226.305327,168.856508 C228.881527,168.856508 230.38431,168.28254 231.600848,166.130159 L231.672409,166.130159 C231.815531,166.847619 231.958654,167.636825 232.316459,168.28254 L237.468858,168.28254 C236.896369,167.062857 236.824808,166.201905 236.824808,164.264762 L236.824808,153.215873 C236.824808,149.485079 235.608269,146.830476 229.239332,146.830476 C225.231911,146.830476 221.86854,148.480635 221.86854,153.287619 L221.86854,153.789841 L226.663133,153.789841 Z M231.672409,161.968889 C231.672409,164.264762 229.811821,165.19746 228.380599,165.19746 C226.949377,165.19746 226.376888,163.834286 226.376888,162.255873 C226.376888,160.390476 227.235622,159.314286 229.382454,158.88381 C230.026504,158.740317 230.956798,158.381587 231.672409,157.807619 L231.672409,161.968889 Z M265.091439,158.668571 L265.091439,157.448889 C265.091439,150.991746 263.660217,146.830476 257.434402,146.830476 C250.206732,146.830476 249.133316,152.067937 249.133316,157.664127 C249.133316,162.901587 249.41956,168.856508 257.219719,168.856508 C262.300557,168.856508 264.590512,166.130159 264.805195,161.251429 L260.010602,161.251429 C259.724357,163.834286 258.937185,165.19746 257.148158,165.19746 C255.144447,165.19746 254.500398,162.758095 254.500398,160.31873 L254.500398,158.668571 L265.091439,158.668571 Z M254.500398,155.511746 L254.500398,154.72254 C254.500398,152.785397 255.144447,150.56127 257.29128,150.56127 C259.509674,150.56127 259.867479,152.354921 260.010602,155.511746 L254.500398,155.511746 Z M276.25497,159.673016 L276.25497,160.820952 C276.25497,165.986667 278.759608,168.928254 285.056984,168.928254 C291.139677,168.928254 294.717731,166.273651 294.717731,160.390476 C294.717731,157.018413 293.644315,154.866032 289.42221,153.000635 L285.128545,151.135238 C282.767029,150.130794 282.266101,149.054603 282.266101,147.332698 C282.266101,145.68254 282.910151,144.104127 285.414789,144.104127 C287.561622,144.104127 288.420355,145.610794 288.420355,148.265397 L293.787437,148.265397 L293.787437,147.47619 C293.787437,142.166984 290.209382,140.014603 285.200106,140.014603 C279.904585,140.014603 276.612775,142.812698 276.612775,148.193651 C276.612775,152.857143 278.90273,154.866032 283.840445,156.587937 C287.561622,157.879365 288.778161,158.812063 288.778161,161.323175 C288.778161,163.690794 287.132255,164.766984 285.414789,164.766984 C282.480785,164.766984 281.693613,163.116825 281.693613,160.462222 L281.693613,159.673016 L276.25497,159.673016 Z M302.088524,153.789841 L302.088524,153.215873 C302.088524,151.565714 302.947257,150.489524 304.593162,150.489524 C306.382189,150.489524 307.0978,151.422222 307.0978,153.000635 C307.0978,154.36381 306.525311,155.009524 304.950967,155.44 L301.945402,156.229206 C298.224225,157.233651 296.649881,158.88381 296.649881,162.829841 C296.649881,165.627937 297.93798,168.856508 301.730718,168.856508 C304.306918,168.856508 305.809701,168.28254 307.026239,166.130159 L307.0978,166.130159 C307.240922,166.847619 307.384045,167.636825 307.74185,168.28254 L312.894249,168.28254 C312.32176,167.062857 312.250199,166.201905 312.250199,164.264762 L312.250199,153.215873 C312.250199,149.485079 311.03366,146.830476 304.664723,146.830476 C300.657302,146.830476 297.293931,148.480635 297.293931,153.287619 L297.293931,153.789841 L302.088524,153.789841 Z M307.0978,161.968889 C307.0978,164.264762 305.237212,165.19746 303.80599,165.19746 C302.374768,165.19746 301.802279,163.834286 301.802279,162.255873 C301.802279,160.390476 302.661012,159.314286 304.807845,158.88381 C305.451895,158.740317 306.382189,158.381587 307.0978,157.807619 L307.0978,161.968889 Z M321.410019,144.965079 L325.059634,144.965079 L328.852372,139.368889 L323.48529,139.368889 L321.410019,144.965079 Z M326.705539,168.354286 L331.857938,168.354286 L331.857938,147.404444 L326.490856,147.404444 L326.490856,161.251429 C326.490856,163.619048 325.489001,164.695238 323.628412,164.695238 C322.054068,164.695238 321.338457,163.906032 321.338457,161.753651 L321.338457,147.332698 L315.971376,147.332698 L315.971376,162.829841 C315.971376,166.991111 317.975086,168.784762 321.266896,168.784762 C323.48529,168.784762 325.489001,167.852063 326.562417,165.771429 L326.633978,165.771429 L326.633978,168.354286 L326.705539,168.354286 Z M340.302147,157.879365 C340.302147,153.359365 340.803074,150.991746 343.093029,150.991746 C345.454545,150.991746 345.955473,153.359365 345.955473,157.879365 C345.955473,162.399365 345.454545,164.766984 343.093029,164.766984 C340.731513,164.766984 340.302147,162.399365 340.302147,157.879365 Z M346.170156,168.354286 L351.322555,168.354286 L351.322555,140.588571 L345.955473,140.588571 L345.955473,149.413333 L345.883912,149.413333 C344.738935,147.763175 343.379274,146.902222 341.375563,146.902222 C337.010337,146.902222 334.935065,150.130794 334.935065,157.951111 C334.935065,165.771429 336.938776,169 341.375563,169 C343.450835,169 344.953618,168.210794 346.098595,166.201905 L346.170156,166.201905 L346.170156,168.354286 Z M370,158.668571 L370,157.448889 C370,150.991746 368.568778,146.830476 362.342963,146.830476 C355.115293,146.830476 354.041876,152.067937 354.041876,157.664127 C354.041876,162.901587 354.328121,168.856508 362.12828,168.856508 C367.209117,168.856508 369.499072,166.130159 369.713756,161.251429 L364.919162,161.251429 C364.632918,163.834286 363.845746,165.19746 362.056719,165.19746 C360.053008,165.19746 359.408958,162.758095 359.408958,160.31873 L359.408958,158.668571 L370,158.668571 Z M359.408958,155.511746 L359.408958,154.72254 C359.408958,152.785397 360.053008,150.56127 362.199841,150.56127 C364.418235,150.56127 364.77604,152.354921 364.919162,155.511746 L359.408958,155.511746 Z" id="Shape" fill="#000000" fill-rule="nonzero"></path>
        </g>
    </g>
</svg>