<?xml version="1.0" encoding="UTF-8"?>
<svg width="600px" height="250px" viewBox="0 0 600 250" version="1.1" xmlns="http://www.w3.org/2000/svg" xmlns:xlink="http://www.w3.org/1999/xlink">
    <!-- Generator: Sketch 50.1 (55044) - http://www.bohemiancoding.com/sketch -->
    <title>GGBR</title>
    <desc>Created with Sketch.</desc>
    <defs></defs>
    <g id="GGBR" stroke="none" stroke-width="1" fill="none" fill-rule="evenodd">
        <g id="Grid-Logo" opacity="0.400000006"></g>
        <g transform="translate(75.000000, 61.000000)" id="Shape">
            <polygon fill="#00406F" points="0 128 128 128 128 0 0 0"></polygon>
            <path d="M67,112.730539 L75.8733974,112.730539 L75.8733974,108.446108 C79.1714744,111.540419 83.8044872,114 90.2435897,114 C107.440705,114 116,99.7979042 116,87.5 C116,75.2814371 107.440705,61 90.4791667,61 C73.5176282,61 67.0785256,76.3128743 67.0785256,76.3128743 L74.7740385,80.994012 C74.7740385,80.994012 80.0352564,70.8383234 90.3221154,70.8383234 C100.608974,70.8383234 106.498397,79.8038922 106.498397,87.5 C106.498397,95.1961078 100.451923,104.082335 90.0865385,104.082335 C82.9407051,104.082335 78.8573718,99.6392216 76.9727564,96.9416168 L90.2435897,96.9416168 L90.2435897,87.5 L67,87.5 L67,112.730539 Z" fill="#FFFFFF"></path>
            <path d="M61,112.730539 L52.1266026,112.730539 L52.1266026,108.446108 C48.8285256,111.540419 44.1955128,114 37.7564103,114 C20.5592949,114 12,99.7979042 12,87.5 C12,75.2814371 20.5592949,61 37.5208333,61 C54.4823718,61 60.9214744,76.3128743 60.9214744,76.3128743 L53.2259615,80.994012 C53.2259615,80.994012 47.9647436,70.8383234 37.6778846,70.8383234 C27.3910256,70.8383234 21.5016026,79.8038922 21.5016026,87.5 C21.5016026,95.1961078 27.5480769,104.082335 37.9134615,104.082335 C45.0592949,104.082335 49.1426282,99.6392216 51.0272436,96.9416168 L37.7564103,96.9416168 L37.7564103,87.5 L61,87.5 L61,112.730539 Z" fill="#FFFFFF"></path>
            <path d="M194.381667,113.250352 L206.281962,113.250352 L206.281962,83.4586477 L180.577325,83.4586477 L180.577325,93.731649 L193.905655,93.8106721 C191.28759,98.4730342 187.876173,102.819304 181.767355,102.740281 C175.023854,103.056373 168.439024,97.4457341 168.201018,88.1210098 C167.883677,78.0060547 175.023854,72.6324848 181.291343,72.8695541 C185.178772,73.0276002 189.859555,75.0822005 191.208255,79.3494472 L203.425891,73.5807618 C198.269097,65.0462684 189.859555,60.6999987 181.767355,61.016091 C166.534977,60.9370679 154.555347,70.3408153 154,87.5678482 C154,104.083673 167.090324,113.329375 178.355937,113.961559 C185.416778,114.356675 191.12892,111.66989 194.381667,107.560689 L194.381667,113.250352 Z M215.167515,113.329375 L250.471723,113.329375 L250.471723,102.187119 L229.130528,102.187119 L229.130528,92.1511873 L247.139641,92.1511873 L247.139641,81.3250244 L229.209863,81.3250244 L229.209863,72.5534617 L250.471723,72.5534617 L250.471723,61.2531603 L215.167515,61.2531603 L215.167515,113.329375 Z M406.206915,61.3321834 L406.28625,93.8896952 C406.28625,106.454366 413.981774,113.645467 428.182793,113.329375 C441.9078,113.013282 448.809971,107.007528 450,93.9687183 L450,61.3321834 L436.195658,61.3321834 L436.195658,92.4672796 C436.512999,97.7618265 433.815599,101.001773 428.182793,101.159819 C422.946663,101.238842 419.45591,98.5520573 419.931922,92.4672796 L419.931922,61.3321834 L406.206915,61.3321834 Z M278.001072,85.7503172 C282.364514,85.3552018 284.268561,83.1425554 284.427231,79.1123779 C284.506567,75.3192698 282.76119,72.7115079 278.001072,72.3163924 C276.969713,72.2373694 275.859019,72.2373694 274.589654,72.3163924 L271.654248,72.3163924 L271.654248,85.6712941 L276.01769,85.7503172 C276.731707,85.8293403 277.445725,85.8293403 278.001072,85.7503172 Z M278.001072,61.3321834 C283.395872,61.4902295 287.759314,62.1224142 291.408738,64.8091992 C295.454838,67.9701227 297.596891,72.3163924 297.596891,77.7689854 C297.596891,85.9083634 293.39212,90.8077948 285.617261,92.6253258 L300.690968,113.329375 L283.792549,113.329375 L278.001072,104.399766 L271.654248,94.5218799 L271.654248,113.408398 L258.008577,113.408398 L258.008577,61.4112064 L274.192978,61.4112064 C275.462343,61.3321834 276.811043,61.3321834 278.001072,61.3321834 Z M328.140981,61.5692526 C332.663093,62.0433911 336.391852,63.3077605 339.644599,65.5994301 C345.832753,70.1827691 350.4342,77.2948469 350.751541,87.4888251 C350.4342,99.3422882 344.563388,106.849481 338.057893,110.484543 C335.281158,111.827936 332.107746,112.69719 328.140981,113.171328 C326.236934,113.408398 324.174216,113.487421 321.952828,113.487421 L306.403109,113.487421 L306.403109,61.4902295 L324.570893,61.4902295 C325.760922,61.3321834 326.950951,61.4112064 328.140981,61.5692526 Z M328.140981,100.764704 C333.059769,99.5793575 336.312517,95.7072262 336.074511,87.0937097 C335.836505,78.9543318 332.901099,75.2402467 328.140981,73.9758773 C327.030287,73.6597849 325.840257,73.5017388 324.729563,73.5017388 L320.286786,73.5017388 L320.286786,101.159819 L324.570893,101.159819 C325.760922,101.080796 326.950951,100.92275 328.140981,100.764704 Z M377.011525,61.3321834 L384.945055,61.3321834 L404.144197,113.329375 L389.149826,113.329375 L386.293755,103.767581 L367.64996,103.767581 L365.031895,113.329375 L350.275529,113.329375 L368.363977,61.3321834 L377.011525,61.3321834 Z M377.011525,93.0204412 L383.120343,93.0204412 L377.011525,74.6870851 L376.614849,73.4227157 L370.902707,93.0204412 L377.011525,93.0204412 Z" fill="#00406F"></path>
        </g>
    </g>
</svg>