<?xml version="1.0" encoding="UTF-8"?>
<svg width="600px" height="250px" viewBox="0 0 600 250" version="1.1" xmlns="http://www.w3.org/2000/svg" xmlns:xlink="http://www.w3.org/1999/xlink">
    <!-- Generator: Sketch 50.1 (55044) - http://www.bohemiancoding.com/sketch -->
    <title>GOLL</title>
    <desc>Created with Sketch.</desc>
    <defs></defs>
    <g id="GOLL" stroke="none" stroke-width="1" fill="none" fill-rule="evenodd">
        <g id="Grid-Logo" opacity="0.400000006" transform="translate(1.000000, 0.000000)"></g>
        <g id="GOLL4" transform="translate(175.000000, 57.000000)">
            <path d="M51.1444043,0 C60.6570397,0 69.5541516,2.59190372 77.2202166,7.1559081 L65.5812274,24.5103939 C61.2725632,22.2002188 56.3483755,20.8479212 51.1444043,20.8479212 C34.3574007,20.8479212 20.7039711,34.5399344 20.7039711,51.5 C20.7039711,68.4037199 34.301444,82.1520788 51.1444043,82.1520788 C59.2021661,82.1520788 66.532491,78.9967177 72.0162455,73.8129103 L72.0162455,62.4874179 L52.0397112,62.4874179 L52.0397112,41.6394967 L89.866426,41.6394967 L89.866426,42.5410284 L92.7202166,42.5410284 L92.7202166,80.630744 L92.6642599,80.630744 L93,81.1378556 C83.767148,94.3791028 68.4350181,103 51.1444043,103 C22.8862816,103 0,79.9545952 0,51.5 C0,23.0454048 22.8862816,0 51.1444043,0 Z" id="Shape" fill="#FF5A00"></path>
            <path d="M128.5,0 C156.954595,0 180,23.0454048 180,51.5 C180,79.9545952 156.954595,103 128.5,103 C100.045405,103 77,79.9545952 77,51.5 C77,23.0454048 100.045405,0 128.5,0 Z M128.5,20.8479212 C145.40372,20.8479212 159.152079,34.5399344 159.152079,51.5 C159.152079,68.4037199 145.460066,82.1520788 128.5,82.1520788 C111.59628,82.1520788 97.8479212,68.4600656 97.8479212,51.5 C97.8479212,34.5962801 111.539934,20.8479212 128.5,20.8479212 Z" id="Shape" fill="#FF5A00"></path>
            <path d="M159.5,0 C187.954595,0 211,23.0454048 211,51.5 C211,79.9545952 187.954595,103 159.5,103 C131.045405,103 108,79.9545952 108,51.5 C108,41.1323851 111.04267,31.5536105 116.282823,23.4398249 C120.057987,21.749453 124.283917,20.8479212 128.678884,20.8479212 C134.313457,20.8479212 139.553611,22.369256 144.117615,25.0175055 C134.989606,30.3140044 128.904267,40.1745077 128.904267,51.5 C128.904267,68.4037199 142.59628,82.1520788 159.556346,82.1520788 C176.460066,82.1520788 190.208425,68.4600656 190.208425,51.5 C190.208425,38.9912473 182.714442,28.2292123 171.952407,23.4398249 C165.416302,13.5229759 155.612144,5.9726477 144.061269,2.31017505 C148.963348,0.788840263 154.147155,0 159.5,0 Z" id="Shape" fill="#BABBBB"></path>
            <polygon id="Shape" fill="#FF5A00" points="194 0 215 0 215 103 194 103"></polygon>
            <polygon id="Shape" fill="#FF5A00" points="194 103 194 82 250 82 250 103"></polygon>
            <path d="M9.11214514,132.25266 L17.242668,132.25266 L17.242668,130.632979 L10.96254,130.632979 L10.9064674,116.893617 L9,116.893617 L9.11214514,132.25266 Z M171.946892,116 L173.292634,116 L173.797287,116 L175.199101,116 L175.255173,132.25266 L173.348706,132.25266 L173.292634,117.898936 L171.890819,117.898936 L171.890819,116 L171.946892,116 Z M136.957607,121.194149 L138.303349,121.194149 L138.808002,121.194149 L140.153744,121.194149 L140.209817,132.25266 L138.303349,132.25266 L138.303349,123.093085 L136.957607,123.093085 L136.957607,121.194149 Z M17.8033937,121.194149 L19.1491354,121.194149 L19.6537885,121.194149 L20.9995302,121.194149 L21.0556028,132.25266 L19.1491354,132.25266 L19.1491354,123.093085 L17.8033937,123.093085 L17.8033937,121.194149 Z M20.2145142,119.295213 C20.9995302,119.295213 21.3920382,118.792553 21.2798931,118.010638 C21.1677479,117.340426 20.6070222,116.837766 19.8780788,116.837766 C19.205208,116.837766 18.7566274,117.396277 18.8687725,118.12234 C19.0369902,118.792553 19.5416434,119.295213 20.2145142,119.295213 Z M26.3264245,132.25266 L26.2703519,126.890957 C26.2142793,124.154255 27.8403839,122.534574 29.1861256,122.534574 C30.4757948,122.534574 31.092593,123.37234 31.3168833,124.433511 C31.4290285,124.93617 31.4290285,125.43883 31.4290285,125.829787 L31.485101,132.25266 L33.3915685,132.25266 L33.3915685,125.773936 C33.3915685,125.159574 33.3354959,124.489362 33.2233507,123.986702 C32.7747702,121.696809 31.1486656,120.914894 29.8029239,120.914894 C28.1768193,120.914894 26.8310776,121.808511 26.1582068,123.316489 L26.1021342,123.316489 L25.9339165,121.138298 L24.2517394,121.138298 C24.3078119,122.031915 24.3638845,123.148936 24.3638845,124.37766 L24.4199571,132.196809 L26.3264245,132.196809 L26.3264245,132.25266 Z M38.6063176,132.25266 L38.550245,126.723404 C38.550245,124.265957 40.0642044,122.534574 41.5220913,122.534574 C42.7556878,122.534574 43.3724861,123.316489 43.5967764,124.321809 C43.7089215,124.93617 43.7649941,125.43883 43.7649941,125.829787 L43.7649941,132.25266 L45.6714615,132.25266 L45.6714615,125.773936 C45.6714615,125.215426 45.615389,124.489362 45.5032438,123.930851 C45.0546633,121.696809 43.4285587,120.970745 42.1949621,120.970745 C40.512785,120.970745 39.335261,121.808511 38.6623901,123.148936 L38.6063176,123.148936 L38.6063176,116.055851 L36.6998502,116.055851 L36.7559227,132.308511 L38.6063176,132.308511 L38.6063176,132.25266 Z M58.1195723,132.25266 C57.8392095,131.023936 57.6149192,129.069149 57.5588466,127.114362 L57.5588466,121.305851 C56.7177581,121.082447 55.5402341,120.914894 54.4748552,120.914894 C49.6526141,120.914894 47.577929,124.93617 48.3068724,128.845745 C48.6993804,130.968085 50.2133398,132.476064 52.2319524,132.476064 C53.8019844,132.476064 55.2037986,131.694149 55.9327421,129.348404 L55.9888146,129.348404 C56.1009598,130.465426 56.1570323,131.526596 56.2691775,132.196809 L58.1195723,132.196809 L58.1195723,132.25266 Z M55.7084518,125.941489 C55.7084518,128.901596 54.2505649,130.968085 52.6805329,130.968085 C51.2226461,130.968085 50.5497752,129.739362 50.3254849,128.510638 C49.7086867,125.43883 51.5030089,122.478723 54.4187826,122.478723 C55.0355809,122.478723 55.4841615,122.534574 55.7645243,122.646277 L55.7084518,125.941489 Z M60.3624752,131.694149 C60.9232009,132.085106 62.1007249,132.420213 63.2782489,132.476064 C65.6332969,132.476064 67.2594014,131.191489 66.8108209,128.845745 C66.5865306,127.617021 65.5772243,126.611702 64.17541,125.941489 C63.0539586,125.382979 62.4371603,124.880319 62.2689426,124.098404 C62.1007249,123.148936 62.7735957,122.422872 63.8950472,122.422872 C64.7361357,122.422872 65.4650792,122.702128 65.9136597,122.925532 L66.13795,121.473404 C65.6893694,121.194149 64.7361357,120.914894 63.7268295,120.914894 C61.3717815,120.914894 60.0260398,122.422872 60.3624752,124.321809 C60.5867655,125.43883 61.4839266,126.444149 62.8857409,127.170213 C64.17541,127.784574 64.6800632,128.343085 64.8482809,129.180851 C65.0164986,130.18617 64.3997003,130.968085 63.1100312,130.968085 C62.21287,130.968085 61.2035638,130.577128 60.5867655,130.297872 L60.3624752,131.694149 Z M82.8475762,132.25266 C82.5672134,131.023936 82.3429231,129.069149 82.2868505,127.114362 L82.2868505,121.305851 C81.4457619,121.082447 80.2682379,120.914894 79.2028591,120.914894 C74.380618,120.914894 72.3059328,124.93617 73.0348763,128.845745 C73.4273843,130.968085 74.9413437,132.476064 76.9599562,132.476064 C78.5299882,132.476064 79.9318025,131.694149 80.6607459,129.348404 L80.7168185,129.348404 C80.8289637,130.465426 80.8850362,131.526596 80.9971814,132.196809 L82.8475762,132.196809 L82.8475762,132.25266 Z M80.3803831,125.941489 C80.3803831,128.901596 78.9224962,130.968085 77.3524642,130.968085 C75.8945774,130.968085 75.2217065,129.739362 74.9974163,128.510638 C74.380618,125.43883 76.1749403,122.478723 79.090714,122.478723 C79.7075122,122.478723 80.1560928,122.534574 80.4364557,122.646277 L80.3803831,125.941489 Z M92.9967116,130.18617 C92.3799133,130.577128 91.4827522,130.968085 90.1370105,130.968085 C89.015559,130.968085 88.0062528,130.465426 87.3894545,129.460106 C86.9969465,128.845745 86.7726562,127.840426 86.7726562,127.337766 C90.9220265,127.393617 94.0060179,126.667553 93.4452922,123.763298 C93.1088567,122.143617 91.763115,120.914894 89.6323573,120.914894 C86.0437128,120.914894 84.3054631,124.712766 84.9783339,128.007979 C85.4269145,130.465426 87.1090916,132.476064 90.0809379,132.476064 C91.5948973,132.476064 92.8284939,132.085106 93.5574373,131.582447 L92.9967116,130.18617 Z M91.5948973,123.819149 C91.9313327,125.550532 89.6884299,125.941489 86.6605111,125.941489 C86.8287288,124.210106 87.8380351,122.422872 89.6323573,122.422872 C90.6416636,122.422872 91.4266796,122.925532 91.5948973,123.819149 Z M90.0248653,116.558511 L88.3987608,119.853723 L89.9127202,119.853723 L92.3238407,116.558511 L90.0248653,116.558511 Z M97.9310979,132.25266 L97.8750253,127.393617 C97.8750253,124.824468 98.9404041,122.81383 100.566509,122.81383 C100.790799,122.81383 100.959017,122.81383 101.127234,122.869681 L101.127234,120.970745 C100.959017,120.970745 100.734726,120.914894 100.566509,120.914894 C99.0525493,120.914894 98.0993156,122.031915 97.7068076,123.539894 L97.650735,123.539894 C97.5946624,122.702128 97.5385899,121.920213 97.4825173,121.138298 L95.8003402,121.138298 C95.9124853,122.143617 95.9685579,123.651596 96.0246304,125.047872 L96.080703,132.196809 L97.9310979,132.196809 L97.9310979,132.25266 Z M110.547426,130.18617 C109.930628,130.577128 109.033467,130.968085 107.687725,130.968085 C106.566274,130.968085 105.556968,130.465426 104.940169,129.460106 C104.547661,128.845745 104.323371,127.840426 104.323371,127.337766 C108.472741,127.393617 111.556733,126.667553 110.996007,123.763298 C110.659572,122.143617 109.31383,120.914894 107.183072,120.914894 C103.594428,120.914894 101.856178,124.712766 102.529049,128.007979 C103.033702,130.465426 104.659806,132.476064 107.631653,132.476064 C109.145612,132.476064 110.379209,132.085106 111.108152,131.582447 L110.547426,130.18617 Z M109.145612,123.819149 C109.482048,125.550532 107.239145,125.941489 104.211226,125.941489 C104.379444,124.210106 105.38875,122.422872 107.183072,122.422872 C108.192378,122.422872 108.977394,122.925532 109.145612,123.819149 Z M122.771247,132.25266 C122.490884,131.023936 122.266594,129.069149 122.210521,127.114362 L122.210521,121.305851 C121.369433,121.082447 120.191909,120.914894 119.12653,120.914894 C114.304289,120.914894 112.229604,124.93617 112.958547,128.845745 C113.351055,130.968085 114.865014,132.476064 116.883627,132.476064 C118.453659,132.476064 119.855473,131.694149 120.584417,129.348404 L120.640489,129.348404 C120.752634,130.465426 120.808707,131.526596 120.920852,132.196809 L122.771247,132.196809 L122.771247,132.25266 Z M120.360126,125.941489 C120.360126,128.901596 118.902239,130.968085 117.332207,130.968085 C115.874321,130.968085 115.20145,129.739362 114.977159,128.510638 C114.360361,125.43883 116.154683,122.478723 119.070457,122.478723 C119.687255,122.478723 120.135836,122.534574 120.416199,122.646277 L120.360126,125.941489 Z M125.070222,131.694149 C125.630948,132.085106 126.808472,132.420213 127.985996,132.476064 C130.341044,132.476064 131.967149,131.191489 131.518568,128.845745 C131.294278,127.617021 130.284971,126.611702 128.883157,125.941489 C127.761706,125.382979 127.144907,124.880319 126.97669,124.098404 C126.808472,123.148936 127.481343,122.422872 128.602794,122.422872 C129.443883,122.422872 130.172826,122.702128 130.621407,122.925532 L130.845697,121.473404 C130.397117,121.194149 129.443883,120.914894 128.434577,120.914894 C126.079529,120.914894 124.733787,122.422872 125.070222,124.321809 C125.294513,125.43883 126.191674,126.444149 127.593488,127.170213 C128.883157,127.784574 129.38781,128.343085 129.556028,129.180851 C129.724246,130.18617 129.107447,130.968085 127.817778,130.968085 C126.920617,130.968085 125.911311,130.577128 125.294513,130.297872 L125.070222,131.694149 Z M139.368728,119.295213 C140.153744,119.295213 140.546252,118.792553 140.434107,118.010638 C140.321962,117.340426 139.761236,116.837766 139.032293,116.837766 C138.359422,116.837766 137.910841,117.396277 138.022986,118.12234 C138.191204,118.792553 138.695857,119.295213 139.368728,119.295213 Z M145.480638,132.25266 L145.424566,126.890957 C145.368493,124.154255 146.994598,122.534574 148.340339,122.534574 C149.630008,122.534574 150.246807,123.37234 150.471097,124.433511 C150.583242,124.93617 150.583242,125.43883 150.583242,125.829787 L150.639315,132.25266 L152.545782,132.25266 L152.545782,125.773936 C152.545782,125.159574 152.48971,124.489362 152.377564,123.986702 C151.928984,121.696809 150.302879,120.914894 148.957138,120.914894 C147.331033,120.914894 145.985291,121.808511 145.31242,123.316489 L145.256348,123.316489 L145.08813,121.138298 L143.405953,121.138298 C143.462026,122.031915 143.518098,123.148936 143.518098,124.37766 L143.574171,132.196809 L145.480638,132.196809 L145.480638,132.25266 Z M156.190499,119.12766 L156.190499,121.194149 L154.620467,121.194149 L154.620467,122.702128 L156.190499,122.702128 L156.190499,128.287234 C156.190499,129.069149 156.190499,129.683511 156.358717,130.353723 C156.583007,131.470745 157.424096,132.476064 159.106273,132.476064 C159.666999,132.476064 160.227724,132.420213 160.508087,132.25266 L160.283797,130.744681 C160.059507,130.800532 159.723071,130.856383 159.386636,130.856383 C158.657692,130.856383 158.265184,130.465426 158.096967,129.795213 C157.984822,129.236702 157.984822,128.678191 157.984822,128.007979 L157.928749,122.646277 L160.56416,122.646277 L160.56416,121.138298 L157.928749,121.138298 L157.928749,118.513298 L156.190499,119.12766 Z M170.264715,130.18617 C169.647916,130.577128 168.750755,130.968085 167.405014,130.968085 C166.283562,130.968085 165.274256,130.465426 164.657458,129.460106 C164.26495,128.845745 164.040659,127.840426 164.040659,127.337766 C168.19003,127.393617 171.274021,126.667553 170.713295,123.763298 C170.37686,122.143617 169.031118,120.914894 166.90036,120.914894 C163.311716,120.914894 161.573466,124.712766 162.246337,128.007979 C162.75099,130.465426 164.377095,132.476064 167.348941,132.476064 C168.8629,132.476064 170.096497,132.085106 170.82544,131.582447 L170.264715,130.18617 Z M168.918973,123.819149 C169.255408,125.550532 167.012506,125.941489 163.984587,125.941489 C164.152804,124.210106 165.162111,122.422872 166.956433,122.422872 C167.909667,122.422872 168.694683,122.925532 168.918973,123.819149 Z M180.525995,132.25266 L180.469923,121.194149 L178.563455,121.194149 L178.563455,132.25266 L180.525995,132.25266 Z M179.628834,119.295213 C180.41385,119.295213 180.806358,118.792553 180.694213,118.010638 C180.582068,117.340426 180.021342,116.837766 179.292399,116.837766 C178.619528,116.837766 178.170947,117.396277 178.283092,118.12234 C178.45131,118.792553 178.955963,119.295213 179.628834,119.295213 Z M184.226785,136.218085 C185.011801,136.664894 186.357543,137 187.703284,137 C188.992953,137 190.394768,136.720745 191.348001,135.771277 C192.301235,134.765957 192.637671,133.146277 192.581598,130.800532 L192.525525,121.640957 C191.572292,121.25 190.058332,120.859043 188.768663,120.859043 C184.451075,120.859043 182.432463,124.601064 183.161406,128.343085 C183.553914,130.297872 185.067873,132.196809 187.310776,132.196809 C188.824736,132.196809 190.00226,131.414894 190.731203,129.851064 L190.787276,129.851064 L190.731203,131.526596 C190.675131,134.542553 189.385461,135.43617 187.478994,135.43617 C186.357543,135.43617 185.123946,135.156915 184.395003,134.710106 L184.226785,136.218085 Z M190.675131,126.5 C190.675131,128.62234 189.441534,130.68883 187.815429,130.68883 C186.133252,130.68883 185.404309,129.292553 185.180019,128.06383 C184.675365,125.327128 186.021107,122.422872 188.768663,122.422872 C189.553679,122.422872 190.282623,122.646277 190.675131,122.81383 L190.675131,126.5 Z M203.235386,130.18617 C202.618588,130.577128 201.721427,130.968085 200.375685,130.968085 C199.254234,130.968085 198.244928,130.465426 197.628129,129.460106 C197.235621,128.845745 197.011331,127.840426 197.011331,127.337766 C201.160701,127.393617 204.244693,126.667553 203.683967,123.763298 C203.347532,122.143617 202.00179,120.914894 199.871032,120.914894 C196.282388,120.914894 194.544138,124.712766 195.217009,128.007979 C195.721662,130.465426 197.347767,132.476064 200.319613,132.476064 C201.833572,132.476064 203.067169,132.085106 203.796112,131.582447 L203.235386,130.18617 Z M201.833572,123.819149 C202.170008,125.550532 199.927105,125.941489 196.899186,125.941489 C197.067404,124.210106 198.07671,122.422872 199.871032,122.422872 C200.880339,122.422872 201.665355,122.925532 201.833572,123.819149 Z M208.169773,132.25266 L208.1137,126.890957 C208.057628,124.154255 209.683732,122.534574 211.029474,122.534574 C212.319143,122.534574 212.935941,123.37234 213.160232,124.433511 C213.272377,124.93617 213.272377,125.43883 213.272377,125.829787 L213.328449,132.25266 L215.234917,132.25266 L215.234917,125.773936 C215.234917,125.159574 215.178844,124.489362 215.066699,123.986702 C214.618118,121.696809 212.992014,120.914894 211.646272,120.914894 C210.020168,120.914894 208.674426,121.808511 208.001555,123.316489 L207.945482,123.316489 L207.777265,121.138298 L206.095088,121.138298 C206.15116,122.031915 206.207233,123.148936 206.207233,124.37766 L206.263305,132.196809 L208.169773,132.196809 L208.169773,132.25266 Z M218.879634,119.12766 L218.879634,121.194149 L217.309602,121.194149 L217.309602,122.702128 L218.879634,122.702128 L218.879634,128.287234 C218.879634,129.069149 218.879634,129.683511 219.047852,130.353723 C219.272142,131.470745 220.11323,132.476064 221.795408,132.476064 C222.356133,132.476064 222.916859,132.420213 223.197222,132.25266 L222.972932,130.744681 C222.748641,130.800532 222.412206,130.856383 222.07577,130.856383 C221.346827,130.856383 220.954319,130.465426 220.786101,129.795213 C220.673956,129.236702 220.673956,128.678191 220.673956,128.007979 L220.617884,122.646277 L223.253294,122.646277 L223.253294,121.138298 L220.617884,121.138298 L220.617884,118.513298 L218.879634,119.12766 Z M232.953849,130.18617 C232.337051,130.577128 231.43989,130.968085 230.094148,130.968085 C228.972697,130.968085 227.96339,130.465426 227.346592,129.460106 C226.954084,128.845745 226.729794,127.840426 226.729794,127.337766 C230.879164,127.393617 233.963155,126.667553 233.40243,123.763298 C233.065994,122.143617 231.720253,120.914894 229.589495,120.914894 C226.00085,120.914894 224.262601,124.712766 224.935472,128.007979 C225.440125,130.465426 227.066229,132.476064 230.038076,132.476064 C231.552035,132.476064 232.785632,132.085106 233.514575,131.582447 L232.953849,130.18617 Z M231.608108,123.819149 C231.944543,125.550532 229.70164,125.941489 226.673721,125.941489 C226.841939,124.210106 227.851245,122.422872 229.645568,122.422872 C230.598801,122.422872 231.383817,122.925532 231.608108,123.819149 Z M235.477115,131.694149 C236.037841,132.085106 237.215365,132.420213 238.392889,132.476064 C240.747937,132.476064 242.374041,131.191489 241.925461,128.845745 C241.70117,127.617021 240.691864,126.611702 239.29005,125.941489 C238.168598,125.382979 237.5518,124.880319 237.383582,124.098404 C237.215365,123.148936 237.888235,122.422872 239.009687,122.422872 C239.850775,122.422872 240.579719,122.702128 241.028299,122.925532 L241.25259,121.473404 C240.804009,121.194149 239.850775,120.914894 238.841469,120.914894 C236.486421,120.914894 235.140679,122.422872 235.477115,124.321809 C235.701405,125.43883 236.598566,126.444149 238.000381,127.170213 C239.29005,127.784574 239.794703,128.343085 239.962921,129.180851 C240.131138,130.18617 239.51434,130.968085 238.224671,130.968085 C237.32751,130.968085 236.318203,130.577128 235.701405,130.297872 L235.477115,131.694149 Z" id="Shape" fill="#FF5A00"></path>
        </g>
    </g>
</svg>