<?xml version="1.0" encoding="UTF-8"?>
<svg width="600px" height="250px" viewBox="0 0 600 250" version="1.1" xmlns="http://www.w3.org/2000/svg" xmlns:xlink="http://www.w3.org/1999/xlink">
    <!-- Generator: Sketch 50.1 (55044) - http://www.bohemiancoding.com/sketch -->
    <title>HGTX</title>
    <desc>Created with Sketch.</desc>
    <defs></defs>
    <g id="HGTX" stroke="none" stroke-width="1" fill="none" fill-rule="evenodd">
        <g id="Grid-Logo" opacity="0.400000006" transform="translate(1.000000, 0.000000)"></g>
        <g id="HGTX3" transform="translate(96.000000, 71.000000)" fill="#000000" fill-rule="nonzero">
            <path d="M42.7695674,64.0337501 C31.8615534,72.2686616 19.1136334,77.235751 2.94874513,76.5821866 C-0.599644974,76.3207609 -0.993910541,78.2814541 2.02879214,80.2421473 C7.15424451,83.5099693 12.6739625,85.2092367 18.4565241,85.6013753 C20.6906957,85.7320882 21.0849612,86.5163655 20.6906957,88.3463458 C19.1136334,94.3591383 19.507899,100.371931 20.5592738,106.515436 C21.2163831,110.044684 23.3191328,109.521832 23.976242,106.776862 C27.5246322,92.6598709 36.0670528,82.0721276 48.9463946,74.2293548 C55.2546437,70.4386813 61.1686272,67.8244237 66.9511889,65.6023047 C72.7337505,67.8244237 78.647734,70.4386813 84.9559831,74.2293548 C97.7039031,82.0721276 106.377746,92.6598709 109.926136,106.776862 C110.714667,109.39112 112.685995,110.044684 113.343104,106.515436 C114.525901,100.371931 114.920166,94.3591383 113.211682,88.3463458 C112.817417,86.5163655 113.211682,85.7320882 115.445854,85.6013753 C121.228415,85.0785238 126.748133,83.3792564 131.873586,80.2421473 C135.02771,78.4121669 134.633445,76.4514737 130.953633,76.5821866 C114.788744,77.235751 102.040824,72.2686616 91.1328103,64.0337501 C88.8986388,62.3344827 86.9273109,60.6352153 84.9559831,58.8052349 C91.395654,56.0602645 98.0981687,52.4003038 105.457793,46.9103628 C114.525901,40.1132931 121.885525,32.6626589 127.536664,24.5584604 C129.902258,21.0292126 136.736194,11.0950337 132.530695,7.43507308 C128.719461,4.16725108 118.7314,7.43507308 114.263057,8.74220188 C102.697934,12.4021625 92.0527633,17.7613906 82.5903897,24.4277475 C76.4135625,28.8719854 71.419532,33.8390748 66.9511889,38.8061643 C62.4828458,33.8390748 57.4888153,28.8719854 51.311988,24.4277475 C41.8496144,17.6306777 31.2044441,12.2714496 19.6393208,8.74220188 C15.1709777,7.3043602 5.18291668,4.16725108 1.37168286,7.43507308 C-2.83381652,11.0950337 4.00011998,21.0292126 6.36571338,24.5584604 C11.8854313,32.6626589 19.3764771,40.1132931 28.4445851,46.9103628 C35.8042091,52.5310167 42.5067237,56.0602645 48.9463946,58.8052349 C46.9750668,60.6352153 44.8723171,62.3344827 42.7695674,64.0337501 Z M19.7707427,17.7613906 C22.0049142,17.7613906 23.8448202,19.5913709 23.8448202,21.8134899 C23.8448202,24.0356088 22.0049142,25.8655892 19.7707427,25.8655892 C17.5365711,25.8655892 15.6966651,24.0356088 15.6966651,21.8134899 C15.6966651,19.5913709 17.5365711,17.7613906 19.7707427,17.7613906 Z M114.000213,17.7613906 C116.234385,17.7613906 118.074291,19.5913709 118.074291,21.8134899 C118.074291,24.0356088 116.234385,25.8655892 114.000213,25.8655892 C111.766042,25.8655892 109.926136,24.0356088 109.926136,21.8134899 C110.057558,19.5913709 111.766042,17.7613906 114.000213,17.7613906 Z" id="Shape"></path>
            <path d="M210.022593,52.3745048 C210.675835,66.6946226 224.655206,72.1309636 237.328094,64.9709047 L240.594303,72.5287446 C229.227898,77.4347109 218.90668,78.230273 211.198428,73.9872751 C204.666012,70.4072457 200.746562,63.6449679 199.178782,56.2197216 C196.565815,43.7559154 199.178782,28.7728292 211.721022,23.0713008 C218.776031,19.8890525 227.660118,19.7564588 233.800589,24.5298314 C239.418468,28.9054229 241.639489,37.5240123 242.554028,47.9989133 L210.022593,52.3745048 Z M209.761297,46.6729764 L231.710216,43.2255407 C228.31336,20.5520209 208.585462,23.9994566 209.761297,46.6729764 Z M295.205305,0 C298.863458,0 301.737721,2.91706103 301.737721,6.62968415 C301.737721,10.3423073 298.863458,13.2593683 295.205305,13.2593683 C291.547151,13.2593683 288.672888,10.3423073 288.672888,6.62968415 C288.672888,2.91706103 291.547151,0 295.205305,0 Z M409,24.9276124 L409,84.1969887 C405.995088,98.6497002 382.609037,103.290479 368.760314,94.6718897 L372.941061,87.7770182 C384.438114,92.4177971 395.412574,91.2244539 396.849705,84.1969887 L396.849705,74.3850562 C384.176817,80.0865846 372.287819,73.5894941 367.715128,61.5234689 C363.795678,51.048568 365.494106,34.8721386 374.116896,27.181705 C383.392927,18.828303 399.070727,18.4305219 409,24.9276124 Z M396.849705,67.755372 L396.849705,29.0380166 C389.925344,26.783924 384.046169,28.6402355 380.779961,34.0765765 C376.860511,40.8388544 376.860511,57.0152837 380.910609,63.6449679 C384.307466,69.4790899 390.447937,70.5398394 396.849705,67.755372 Z M354.911591,33.5462018 L354.911591,75.9761804 L342.761297,75.9761804 L342.761297,34.8721386 C339.625737,28.7728292 333.87721,26.9165177 325.385069,30.0987661 L325.385069,75.9761804 L313.234774,75.9761804 L313.234774,24.7950187 C327.998035,17.7675535 350.600196,18.5631156 354.911591,33.5462018 Z M289.064833,20.8172082 L301.215128,20.8172082 L301.215128,75.9761804 L289.064833,75.9761804 L289.064833,20.8172082 Z M265.678782,30.2313597 L265.678782,75.9761804 L253.528487,75.9761804 L253.528487,24.7950187 C257.578585,20.9498019 267.507859,20.2868335 279.527505,20.8172082 L276.78389,29.1706103 C272.08055,28.9054229 268.030452,29.1706103 265.678782,30.2313597 Z M143,7.0274652 L155.150295,7.0274652 L155.150295,35.9328881 L177.229862,35.9328881 L177.229862,7.0274652 L189.380157,7.0274652 L189.380157,75.9761804 L177.229862,75.9761804 L177.229862,45.0818522 L155.150295,45.0818522 L155.150295,75.9761804 L143,75.9761804 L143,7.0274652 Z" id="Shape"></path>
        </g>
    </g>
</svg>