<?xml version="1.0" encoding="UTF-8"?>
<svg width="600px" height="250px" viewBox="0 0 600 250" version="1.1" xmlns="http://www.w3.org/2000/svg" xmlns:xlink="http://www.w3.org/1999/xlink">
    <!-- Generator: Sketch 50.1 (55044) - http://www.bohemiancoding.com/sketch -->
    <title>IGTA</title>
    <desc>Created with Sketch.</desc>
    <defs></defs>
    <g id="IGTA" stroke="none" stroke-width="1" fill="none" fill-rule="evenodd">
        <g id="Grid-Logo" opacity="0.400000006"></g>
        <g id="IGTA3" transform="translate(55.000000, 68.000000)">
            <path d="M55,0 C85.2886115,0 110,24.9621329 110,55.5 C110,86.1236476 85.2886115,111 55,111 C24.7113885,111 0,86.1236476 0,55.5 C0,24.8763524 24.7113885,0 55,0 Z" id="Shape" fill="#1D1D1B"></path>
            <path d="M52.5,4 C79.7841297,4 102,26.6908784 102,54.5 C102,82.3091216 79.7841297,105 52.5,105 C25.2158703,105 3,82.3091216 3,54.5 C3,26.6908784 25.2158703,4 52.5,4 Z" id="Shape" fill="#FFFFFF"></path>
            <polygon id="Shape" fill="#1D1D1B" points="10 65.3246073 10 49.3333333 34.0787402 49.3333333 28.4488189 40.6963351 40.3149606 33 54 57.2862129 40.3149606 82 28.4488189 75.1588133 34.6850394 65.3246073"></polygon>
            <polygon id="Shape" fill="#1D1D1B" points="44 81.5102041 57.8762475 58.5714286 88 58 88 70.3265306 75.3532934 70.3265306 88 90.0816327 74.3872255 98 61.0379242 78.5714286 55.6806387 87.3877551"></polygon>
            <polygon id="Shape" fill="#1D1D1B" points="44 27.3333333 57.1174089 52 84 52 84 38.75 73.4736842 38.75 83.3522267 18.9166667 71.4493927 12 60.0323887 30.6666667 54.5263158 20.75"></polygon>
            <path d="M204.999481,29 L204.999481,47.1386749 L203.718661,47.1386749 C202.181677,42.146379 199.961588,38.4021572 196.88762,35.8228043 C193.89904,33.2434515 190.568907,31.9121726 186.982611,31.9121726 C183.567091,31.9121726 180.663898,32.9938367 178.44381,35.1571649 C176.138334,37.3204931 174.515962,40.3158706 173.576693,44.2265023 C172.637425,48.1371341 172.125097,52.0477658 172.125097,56.1248074 C172.125097,61.0338983 172.637425,65.3605547 173.662081,69.1047766 C174.686738,72.8489985 176.394498,75.5947612 178.699974,77.3420647 C181.00545,79.0893683 183.737867,79.9214176 186.897223,79.9214176 C188.007267,79.9214176 189.117311,79.7550077 190.312743,79.5053929 C191.508175,79.2557781 192.703608,78.8397535 193.89904,78.3405239 L193.89904,67.6070878 C193.89904,65.6101695 193.813652,64.2788906 193.557488,63.6964561 C193.301324,63.1140216 192.788996,62.5315871 192.020504,62.1155624 C191.252011,61.6163328 190.312743,61.366718 189.202699,61.366718 L188.007267,61.366718 L188.007267,59.9522342 L210.293538,59.9522342 L210.293538,61.366718 C208.585777,61.5331279 207.390345,61.7827427 206.792629,62.1155624 C206.109525,62.5315871 205.597197,63.1972265 205.255645,64.1124807 C205.084869,64.6117103 204.914093,65.7765794 204.914093,67.6902928 L204.914093,78.4237288 C202.010901,79.9214176 198.936932,81.0030817 195.777576,81.751926 C192.61822,82.5007704 189.288087,82.9167951 185.957955,82.9167951 C181.603166,82.9167951 178.01687,82.2511556 175.113678,80.9198767 C172.210485,79.5885978 169.734233,77.8412943 167.514145,75.6779661 C165.294057,73.5146379 163.586296,71.1016949 162.390864,68.3559322 C160.85388,64.8613251 160,60.9506934 160,56.624037 C160,48.8859784 162.390864,42.3127889 167.257981,36.9876733 C172.125097,31.6625578 178.187646,29 185.531015,29 C187.836491,29 189.885803,29.1664099 191.678951,29.5824345 C192.703608,29.7488444 194.240592,30.4144838 196.46068,31.3297381 C198.680768,32.2449923 199.961588,32.7442219 200.388528,32.7442219 C200.986244,32.7442219 201.583961,32.4946071 202.181677,31.9953775 C202.694005,31.4961479 203.206333,30.4976888 203.633273,29.0832049 L204.999481,29.0832049 L204.999481,29 Z M212.684402,30.164869 L236.33688,30.164869 L236.33688,31.5793529 L235.141448,31.5793529 C233.3483,31.5793529 232.152868,31.7457627 231.469764,32.1617874 C230.78666,32.577812 230.35972,33.1602465 230.018168,33.9090909 C229.762004,34.6579353 229.591228,36.4884438 229.591228,39.4006163 L229.591228,64.6949153 C229.591228,69.2711864 229.93278,72.3497689 230.530496,73.8474576 C231.128212,75.3451464 232.152868,76.5932203 233.604464,77.5916795 C235.05606,78.5901387 236.849208,79.0893683 238.983909,79.0893683 C241.460161,79.0893683 243.594861,78.5069337 245.302621,77.1756549 C247.09577,75.9275809 248.37659,74.1802773 249.23047,72.0169492 C250.08435,69.853621 250.51129,65.9429892 250.51129,60.5346687 L250.51129,39.5670262 C250.51129,37.2372881 250.255126,35.5731895 249.828186,34.6579353 C249.401246,33.6594761 248.888918,32.9938367 248.205814,32.577812 C247.181158,31.9953775 245.729561,31.7457627 243.936413,31.7457627 L243.936413,30.3312789 L259.818583,30.3312789 L259.818583,31.7457627 L258.879315,31.7457627 C257.598495,31.7457627 256.488451,31.9953775 255.63457,32.577812 C254.78069,33.1602465 254.182974,33.9922958 253.756034,35.1571649 C253.49987,35.9892142 253.329094,37.403698 253.329094,39.4838213 L253.329094,59.03698 C253.329094,65.1109399 252.987542,69.4375963 252.304438,72.183359 C251.621334,74.8459168 249.828186,77.3420647 247.09577,79.5885978 C244.363353,81.835131 240.606281,83 235.824552,83 C231.896704,83 228.822736,82.4175655 226.602647,81.2526965 C223.699455,79.6718028 221.564755,77.5916795 220.369323,75.0123267 C219.17389,72.4329738 218.576174,69.1047766 218.576174,64.7781202 L218.576174,39.5670262 C218.576174,36.5716487 218.405398,34.7411402 218.149234,34.0755008 C217.89307,33.3266564 217.380742,32.7442219 216.61225,32.3281972 C215.929146,31.9121726 214.562938,31.6625578 212.599014,31.7457627 L212.599014,30.164869 L212.684402,30.164869 Z M289.875162,67.0246533 L273.65144,67.0246533 L271.687516,72.0169492 C271.0898,73.6810478 270.748248,75.0955316 270.748248,76.1771957 C270.748248,77.5916795 271.260576,78.6733436 272.285232,79.3389831 C272.882948,79.7550077 274.419933,80.0878274 276.810797,80.2542373 L276.810797,81.6687211 L261.526343,81.6687211 L261.526343,80.2542373 C263.148715,80.0046225 264.514923,79.1725732 265.53958,77.9244992 C266.564236,76.6764253 267.930444,74.0970724 269.467428,70.1864407 L285.861926,29.0832049 L286.54503,29.0832049 L303.110304,71.3513097 C304.732676,75.3451464 306.013496,77.8412943 307.038152,78.9229584 C307.806644,79.7550077 308.916688,80.1710324 310.282896,80.3374422 L310.282896,81.751926 L288.082014,81.751926 L288.082014,80.3374422 L289.021282,80.3374422 C290.81443,80.3374422 292.09525,80.0878274 292.778355,79.5053929 C293.290683,79.0893683 293.546847,78.5069337 293.546847,77.7580894 C293.546847,77.3420647 293.461459,76.8428351 293.376071,76.3436055 C293.290683,76.0939908 293.034519,75.1787365 292.351414,73.5146379 L289.875162,67.0246533 Z M288.765118,64.1956857 L281.934077,46.4730354 L274.932261,64.1956857 L288.765118,64.1956857 Z M349.646769,30.164869 L349.646769,44.1432974 L348.451337,44.1432974 C347.682845,40.8983051 346.914352,38.568567 346.060472,37.2372881 C345.206592,35.8228043 344.01116,34.7411402 342.474176,33.9090909 C341.620296,33.4098613 340.083312,33.2434515 337.948611,33.2434515 L334.533091,33.2434515 L334.533091,72.9322034 C334.533091,75.5947612 334.618479,77.1756549 334.874643,77.8412943 C335.130807,78.5069337 335.643135,79.0893683 336.411627,79.5885978 C337.180119,80.0878274 338.204775,80.3374422 339.485596,80.3374422 L341.02258,80.3374422 L341.02258,81.751926 L317.028549,81.751926 L317.028549,80.3374422 L318.565533,80.3374422 C319.931742,80.3374422 320.956398,80.0878274 321.810278,79.5053929 C322.407994,79.1725732 322.834934,78.5069337 323.176486,77.6748844 C323.43265,77.0924499 323.518038,75.5115562 323.518038,72.9322034 L323.518038,33.2434515 L320.187906,33.2434515 C317.113937,33.2434515 314.893849,33.9922958 313.442253,35.4067797 C311.478329,37.4869029 310.282896,40.3990755 309.68518,44.1432974 L308.40436,44.1432974 L308.40436,30.164869 L349.646769,30.164869 Z M370.993771,33.1602465 L370.993771,54.1278891 L371.933039,54.1278891 C374.836232,54.1278891 376.970932,53.1294299 378.251752,51.0493066 C379.532572,48.9691834 380.386452,45.9738059 380.728004,41.9799692 L382.008824,41.9799692 L382.008824,68.9383667 L380.728004,68.9383667 C380.47184,66.0261941 379.874124,63.6132512 379.020244,61.6995378 C378.166364,59.7858243 377.141708,58.5377504 375.946276,57.9553159 C374.836232,57.2896764 373.128471,56.9568567 370.908383,56.9568567 L370.908383,71.4345146 C370.908383,74.2634823 370.993771,76.0107858 371.249935,76.5932203 C371.420711,77.2588598 371.847651,77.7580894 372.445367,78.174114 C373.043083,78.5901387 373.982351,78.7565485 375.263172,78.7565485 L377.995588,78.7565485 C382.264988,78.7565485 385.680509,77.6748844 388.327537,75.4283513 C390.889177,73.1818182 392.767713,69.853621 393.877758,65.2773498 L395.158578,65.2773498 L393.109266,81.6687211 L353.489229,81.6687211 L353.489229,80.2542373 L355.026213,80.2542373 C356.392421,80.2542373 357.417078,80.0046225 358.270958,79.422188 C358.868674,79.0893683 359.295614,78.4237288 359.637166,77.5916795 C359.89333,77.009245 359.978718,75.4283513 359.978718,72.8489985 L359.978718,38.9845917 C359.978718,36.6548536 359.89333,35.2403698 359.807942,34.6579353 C359.551778,33.742681 359.124838,33.0770416 358.527122,32.577812 C357.673242,31.8289676 356.477809,31.4961479 355.026213,31.4961479 L353.489229,31.4961479 L353.489229,30.0816641 L391.828445,30.0816641 L391.828445,45.3081664 L390.547625,45.3081664 C389.864521,41.5639445 389.010641,38.9013867 387.815209,37.3204931 C386.619777,35.7395994 384.997405,34.4915254 382.777316,33.742681 C381.496496,33.2434515 379.19102,33.0770416 375.690112,33.0770416 L370.993771,33.0770416 L370.993771,33.1602465 Z M431.277706,64.1124807 L443.744355,30.164869 L462.444329,30.164869 L462.444329,31.5793529 L460.907345,31.5793529 C459.541137,31.5793529 458.431093,31.8289676 457.662601,32.3281972 C457.064885,32.6610169 456.637944,33.3266564 456.296392,34.0755008 C456.040228,34.6579353 455.95484,36.238829 455.95484,38.8181818 L455.95484,72.7657935 C455.95484,75.4283513 456.040228,77.009245 456.296392,77.6748844 C456.552556,78.3405239 457.064885,78.9229584 457.833377,79.422188 C458.601869,79.9214176 459.626525,80.1710324 460.907345,80.1710324 L462.358941,80.1710324 L462.358941,81.5855162 L438.450298,81.5855162 L438.450298,80.1710324 L439.901895,80.1710324 C441.268103,80.1710324 442.378147,79.9214176 443.146639,79.3389831 C443.658967,79.0061633 444.171295,78.3405239 444.512847,77.5084746 C444.769011,76.9260401 444.854399,75.3451464 444.854399,72.7657935 L444.854399,34.7411402 L427.264469,81.751926 L426.410589,81.751926 L408.564495,35.0739599 L408.564495,71.3513097 C408.564495,73.8474576 408.649883,75.4283513 408.735271,76.0107858 C408.991435,77.2588598 409.674539,78.3405239 410.613807,79.0893683 C411.553076,79.9214176 413.09006,80.2542373 415.22476,80.2542373 L415.22476,81.6687211 L399.513366,81.6687211 L399.513366,80.2542373 L400.025694,80.2542373 C401.05035,80.2542373 401.989618,80.0878274 402.843499,79.6718028 C403.697379,79.2557781 404.380483,78.7565485 404.807423,78.0909091 C405.234363,77.4252696 405.575915,76.5100154 405.832079,75.3451464 C405.917467,75.0955316 405.917467,73.7642527 405.917467,71.4345146 L405.917467,38.9013867 C405.917467,36.3220339 405.832079,34.6579353 405.575915,33.9922958 C405.319751,33.3266564 404.807423,32.7442219 404.038931,32.2449923 C403.270439,31.7457627 402.245783,31.4961479 400.964962,31.4961479 L399.513366,31.4961479 L399.513366,30.0816641 L418.21334,30.0816641 L431.277706,64.1124807 Z M489,80.2542373 L489,81.6687211 L465.005969,81.6687211 L465.005969,80.2542373 L466.542954,80.2542373 C467.909162,80.2542373 468.933818,80.0046225 469.787698,79.422188 C470.385414,79.0893683 470.812354,78.4237288 471.153906,77.5916795 C471.41007,77.009245 471.495458,75.4283513 471.495458,72.8489985 L471.495458,38.9845917 C471.495458,36.3220339 471.41007,34.7411402 471.153906,34.0755008 C470.897742,33.4098613 470.385414,32.8274268 469.616922,32.3281972 C468.84843,31.8289676 467.823774,31.5793529 466.542954,31.5793529 L465.005969,31.5793529 L465.005969,30.164869 L489,30.164869 L489,31.5793529 L487.463016,31.5793529 C486.096808,31.5793529 485.072152,31.8289676 484.218271,32.3281972 C483.620555,32.6610169 483.193615,33.3266564 482.852063,34.1587057 C482.595899,34.7411402 482.510511,36.3220339 482.510511,38.9013867 L482.510511,72.7657935 C482.510511,75.4283513 482.595899,77.009245 482.852063,77.6748844 C483.108227,78.3405239 483.620555,78.9229584 484.389047,79.422188 C485.15754,79.9214176 486.182196,80.1710324 487.463016,80.1710324 L489,80.1710324 L489,80.2542373 Z" id="Shape" fill="#1D1D1B"></path>
            <path d="M159,83.2408377 L159,85 L133,85 L133,83.2408377 L134.64557,83.2408377 C136.044304,83.2408377 137.278481,82.9057592 138.101266,82.2356021 C138.759494,81.8167539 139.253165,81.0628272 139.582278,79.973822 C139.829114,79.2198953 139.993671,77.2931937 139.993671,74.026178 L139.993671,31.973822 C139.993671,28.7068063 139.829114,26.6963351 139.582278,25.8586387 C139.335443,25.0209424 138.759494,24.3507853 137.936709,23.6806283 C137.113924,23.0942408 136.044304,22.7591623 134.64557,22.7591623 L133,22.7591623 L133,21 L159,21 L159,22.7591623 L157.35443,22.7591623 C155.955696,22.7591623 154.721519,23.0942408 153.898734,23.7643979 C153.240506,24.1832461 152.746835,24.9371728 152.417722,26.026178 C152.170886,26.7801047 152.006329,28.7905759 152.006329,31.973822 L152.006329,74.026178 C152.006329,77.2931937 152.170886,79.3036649 152.417722,80.1413613 C152.664557,80.9790576 153.240506,81.6492147 154.063291,82.3193717 C154.886076,82.9057592 155.955696,83.2408377 157.35443,83.2408377 L159,83.2408377 Z" id="Shape" fill="#1D1D1B"></path>
        </g>
    </g>
</svg>