<?xml version="1.0" encoding="UTF-8"?>
<svg width="600px" height="250px" viewBox="0 0 600 250" version="1.1" xmlns="http://www.w3.org/2000/svg" xmlns:xlink="http://www.w3.org/1999/xlink">
    <!-- Generator: Sketch 50.2 (55047) - http://www.bohemiancoding.com/sketch -->
    <title>IRBR3</title>
    <desc>Created with Sketch.</desc>
    <defs>
        <polygon id="path-1" points="0.0149435325 0.2576 345.934917 0.2576 345.934917 153.99888 0.0149435325 153.99888"></polygon>
    </defs>
    <g id="IRBR3" stroke="none" stroke-width="1" fill="none" fill-rule="evenodd">
        <g id="Grid-Logo" opacity="0.400000006"></g>
        <g id="IRBR" transform="translate(87.000000, 48.000000)">
            <polygon id="Fill-1" fill="#005A69" points="0 109 10 109 10 64 0 64"></polygon>
            <g id="Group-14" transform="translate(18.000000, 39.000000)">
                <path d="M20.8638089,44.2772304 C19.7850768,45.402474 18.2927375,45.9678811 16.3979696,45.9678811 L10.1072286,45.9678811 L10.1072286,34.0107753 L16.3979696,34.0107753 C18.2927375,34.0107753 19.7850768,34.5539003 20.8638089,35.6317946 C21.9425411,36.7069035 22.4874964,38.1747337 22.4874964,40.0157881 C22.4874964,41.7342913 21.9425411,43.1575574 20.8638089,44.2772304 M30.8462732,47.4134292 C32.1318089,45.2297881 32.7773714,42.675708 32.7773714,39.7484035 C32.7773714,37.8126503 32.4503982,35.9855221 31.7908625,34.2781599 C31.1341214,32.5652272 30.1476125,31.0751151 28.8145679,29.7855413 C27.4787286,28.5071087 25.8298893,27.4960606 23.8428982,26.7468266 C21.8587018,26.0059484 19.5587107,25.632724 16.942925,25.632724 L0.161094643,25.632724 L0.161094643,70.689817 L10.1072286,70.689817 L10.1072286,54.1398234 L15.7915321,54.1398234 L24.18105,70.689817 L35.4127196,70.689817 L25.3995143,52.6497112 C27.7386304,51.343426 29.5579429,49.605426 30.8462732,47.4134292" id="Fill-2" fill="#005A69"></path>
                <text id="005A69" font-family="DINPro-Medium, DIN Pro" font-size="14" font-weight="400" line-spacing="9" fill="#00BCD4">
                    <tspan x="259" y="47">005A69</tspan>
                </text>
                <polygon id="Fill-4" fill="#FEFEFE" points="97.9674464 0.0245195513 59.2700268 86.7184106 316.796366 86.7184106 350.153223 0.0245195513"></polygon>
                <path d="M268.2741,34.0121679 L261.980564,34.0121679 L261.980564,45.9692737 L268.2741,45.9692737 C270.171662,45.9692737 271.655618,45.4038667 272.739939,44.2786231 C273.824261,43.15895 274.363627,41.7328987 274.363627,40.0171808 C274.363627,38.1761263 273.824261,36.7082962 272.739939,35.6331872 C271.655618,34.5525077 270.171662,34.0121679 268.2741,34.0121679" id="Fill-6" fill="#004C69"></path>
                <path d="M164.777017,56.4273545 C162.071803,56.4273545 160.160267,56.8117199 159.025642,57.5776654 C157.896606,58.3491814 157.337678,59.4270756 157.337678,60.8308449 C157.337678,63.4350596 158.911062,64.7357744 162.071803,64.7357744 C162.83474,64.7357744 163.592088,64.6187936 164.338258,64.3681205 C165.078838,64.1230179 165.732785,63.7748609 166.300097,63.3180788 C166.864615,62.8780083 167.325731,62.3126013 167.689035,61.6385692 C168.049544,60.9589667 168.228401,60.1735244 168.228401,59.2711013 L168.228401,56.7114506 C168.004829,56.6585308 167.577249,56.6056109 166.940071,56.5331942 C166.311276,56.4635628 165.590258,56.4273545 164.777017,56.4273545" id="Fill-8" fill="#004C69"></path>
                <path d="M103.728603,43.3973679 C104.474772,43.213541 105.131513,42.9350154 105.690442,42.5534353 C106.249371,42.1690699 106.716076,41.6565827 107.076585,41.0048327 C107.437094,40.3530827 107.62154,39.5481436 107.62154,38.5983712 C107.62154,37.6123904 107.437094,36.7851692 107.076585,36.1334192 C106.716076,35.490025 106.240987,34.9691821 105.656906,34.5848167 C105.070031,34.2060218 104.399317,33.9330667 103.658737,33.7798776 C102.920951,33.6239032 102.180371,33.5403455 101.462147,33.5403455 L95.4368973,33.5403455 L95.4368973,43.6703231 L101.462147,43.6703231 C102.227879,43.6703231 102.985228,43.5839801 103.728603,43.3973679" id="Fill-10" fill="#004C69"></path>
                <path d="M107.077423,52.2101978 C106.311691,51.7840535 105.476093,51.4943869 104.576218,51.3356272 C103.670754,51.1796529 102.83795,51.0960952 102.069423,51.0960952 L95.4405304,51.0960952 L95.4405304,62.8443067 L102.069423,62.8443067 C102.793236,62.8443067 103.606477,62.7913869 104.506352,62.6799766 C105.409021,62.5713516 106.241825,62.3067522 107.004762,61.9056753 C107.773289,61.4990279 108.421646,60.914124 108.935861,60.1509638 C109.455664,59.382233 109.709977,58.3238356 109.709977,56.9785567 C109.709977,55.7586144 109.469637,54.7670631 108.972191,54.0011176 C108.474745,53.2296016 107.843155,52.6419125 107.077423,52.2101978" id="Fill-12" fill="#004C69"></path>
            </g>
            <polygon id="Fill-15" fill="#F8AF00" points="407.675105 0 339 153 356.327707 153 425 0"></polygon>
            <g id="Group-18" transform="translate(59.000000, 0.000000)">
                <mask id="mask-2" fill="white">
                    <use xlink:href="#path-1"></use>
                </mask>
                <g id="Clip-17"></g>
                <path d="M248.76987,109.59928 L248.76987,64.31208 L279.621505,64.31208 L279.621505,73.27768 L258.984829,73.27768 L258.984829,82.10048 L275.01695,82.10048 L275.01695,90.79168 L258.984829,90.79168 L258.984829,100.56088 L281.107927,100.56088 L281.107927,109.59928 L248.76987,109.59928 Z M235.752503,109.59928 L227.367631,92.96168 L221.681788,92.96168 L221.681788,109.59928 L211.732262,109.59928 L211.732262,64.31208 L228.513182,64.31208 C231.125596,64.31208 233.427873,64.68448 235.414426,65.42928 C237.398184,66.18248 239.052248,67.19328 240.384998,68.48408 C241.717748,69.78328 242.709628,71.27848 243.357842,73.00328 C244.011644,74.71968 244.344133,76.55648 244.344133,78.49968 C244.344133,81.44248 243.701507,84.00448 242.410667,86.20528 C241.131003,88.40328 239.314886,90.15328 236.962316,91.46648 L246.981693,109.59928 L235.752503,109.59928 Z M189.240353,109.59928 L198.974739,109.59928 L198.974739,64.30648 L189.240353,64.30648 L189.240353,109.59928 Z M173.6441,73.07048 L184.063022,73.07048 L184.063022,64.30928 L173.6441,64.30928 L173.6441,73.07048 Z M173.984971,109.59928 L183.724945,109.59928 L183.724945,77.75208 L173.984971,77.75208 L173.984971,109.59928 Z M167.991785,105.05208 C167.20387,106.31768 166.144934,107.36488 164.817772,108.21048 C163.482227,109.04208 161.976247,109.67208 160.280273,110.07808 C158.592682,110.48688 156.86318,110.68288 155.100149,110.68288 C152.261419,110.68288 149.57636,110.29648 147.047766,109.53208 C144.530349,108.76208 142.479534,107.58888 140.900909,106.00128 L145.698252,99.75168 C146.734835,100.70088 148.101114,101.49328 149.799882,102.12888 C151.479092,102.76168 153.116391,103.07808 154.700604,103.07808 C156.136733,103.07808 157.338164,102.90168 158.282545,102.53488 C159.232514,102.17368 159.699116,101.47088 159.699116,100.43208 C159.699116,100.02328 159.601325,99.65088 159.397361,99.31488 C159.193397,98.97328 158.82738,98.65688 158.282545,98.35728 C157.743298,98.07168 156.983323,97.76368 156.01659,97.44728 C155.049857,97.12808 153.820485,96.76408 152.328475,96.35248 C151.11028,96.04168 149.908849,95.62448 148.710212,95.10368 C147.522751,94.58008 146.455433,93.93608 145.533404,93.16888 C144.605788,92.39328 143.862577,91.46648 143.298184,90.38288 C142.73379,89.29648 142.451594,88.02808 142.451594,86.58328 C142.451594,85.08248 142.795259,83.73568 143.468619,82.54568 C144.147567,81.34448 145.080772,80.29728 146.276615,79.42088 C147.472458,78.53328 148.88903,77.85568 150.540299,77.37968 C152.18598,76.90368 153.954599,76.67128 155.848948,76.67128 C158.556359,76.67128 160.925693,76.97368 162.948568,77.57848 C164.982619,78.19448 166.849028,79.08488 168.561766,80.26648 L164.432196,86.71488 C163.4012,86.03448 162.222121,85.42688 160.886577,84.88088 C159.553827,84.34328 158.056229,84.06608 156.390989,84.06608 C154.896185,84.06608 153.820485,84.28448 153.147125,84.71288 C152.470971,85.14688 152.1301,85.72368 152.1301,86.44048 C152.1301,87.48488 152.825812,88.25208 154.225619,88.75048 C155.622632,89.24608 157.519776,89.82008 159.908668,90.45288 C163.155326,91.35448 165.507896,92.59768 166.980348,94.17968 C168.438829,95.76448 169.170864,97.87568 169.170864,100.50488 C169.170864,102.26608 168.776906,103.79208 167.991785,105.05208 Z M137.344114,109.59928 L128.216031,109.59928 L127.947805,106.61728 C126.866517,107.87728 125.500238,108.84888 123.854557,109.53208 C122.206081,110.20688 120.370406,110.54288 118.33915,110.54288 C117.210363,110.54288 116.025696,110.38608 114.793531,110.07808 C113.541807,109.75888 112.393462,109.22408 111.33732,108.48208 C110.275591,107.73728 109.403854,106.72088 108.702554,105.46088 C108.001253,104.19528 107.654794,102.60488 107.654794,100.70088 C107.654794,98.84728 108.023606,97.19808 108.764022,95.74768 C109.512821,94.30008 110.532641,93.08208 111.845833,92.11048 C113.156231,91.14448 114.698534,90.40528 116.481122,89.90408 C118.260917,89.40848 120.191589,89.16208 122.26755,89.16208 C123.390748,89.16208 124.530711,89.17888 125.679056,89.22648 C126.832988,89.27968 127.581787,89.33848 127.947805,89.43648 L127.947805,88.75048 C127.947805,87.93848 127.780163,87.24688 127.433704,86.68688 C127.101215,86.11848 126.648583,85.64248 126.089778,85.25888 C125.52259,84.87528 124.879964,84.60368 124.159106,84.44408 C123.438247,84.28448 122.675478,84.20048 121.862416,84.20048 C119.691458,84.20048 117.900487,84.46928 116.481122,85.02088 C115.064551,85.56688 113.84915,86.16888 112.857271,86.85208 L108.87299,80.87968 C109.54635,80.38128 110.306325,79.88008 111.175267,79.38728 C112.027445,78.88608 113.041676,78.42688 114.217961,78.02368 C115.385864,77.61488 116.704644,77.29288 118.171508,77.03808 C119.632784,76.79168 121.317581,76.67128 123.209137,76.67128 C128.037214,76.67128 131.594009,77.96488 133.896286,80.57448 C136.19577,83.17288 137.344114,86.66728 137.344114,91.06048 L137.344114,109.59928 Z M102.832305,85.90008 C100.52444,85.90008 98.6636186,86.59168 97.2498415,87.97208 C95.8276822,89.35248 95.1179996,91.30688 95.1179996,93.84928 L95.1179996,109.59928 L85.3752311,109.59928 L85.3752311,77.75208 L94.7100718,77.75208 L95.050943,81.75888 C95.8584165,80.66968 96.9788209,79.63088 98.3953921,78.63968 C99.8203454,77.64288 101.653226,77.14448 103.910799,77.14448 C104.765771,77.14448 105.5006,77.18648 106.106904,77.27328 C106.716001,77.36848 107.311129,77.52808 107.903462,77.75208 L106.341602,86.37608 C105.352517,86.06528 104.176232,85.90008 102.832305,85.90008 Z M78.5466316,102.60488 C77.7084238,104.23448 76.5405209,105.57288 75.0289529,106.61728 C73.5117968,107.66168 71.6649456,108.41208 69.4772233,108.88528 C67.292295,109.36408 64.8447282,109.59928 62.1429051,109.59928 L45.2306659,109.59928 L45.2306659,64.31208 L62.1429051,64.31208 C64.934137,64.31208 67.3062651,64.63688 69.2481131,65.29208 C71.1815791,65.95288 72.7629978,66.81808 73.9756051,67.90728 C75.1965944,68.99648 76.0711246,70.25088 76.6215477,71.68168 C77.1580007,73.10688 77.4262272,74.58808 77.4262272,76.12248 C77.4262272,77.57288 77.1663828,78.85248 76.6494879,79.95848 C76.1353872,81.07568 75.5262895,82.01648 74.827783,82.81448 C74.1292765,83.60128 73.3804776,84.22288 72.5953563,84.67928 C71.7990589,85.12728 71.1368747,85.42688 70.5920396,85.56688 C71.4106892,85.74328 72.3438939,86.07088 73.4056238,86.54688 C74.4645596,87.02008 75.470409,87.70328 76.4147898,88.58808 C77.3591705,89.45888 78.161056,90.57328 78.8204461,91.91168 C79.4714542,93.24168 79.7983552,94.82088 79.7983552,96.63528 C79.7983552,98.97888 79.3820454,100.96968 78.5466316,102.60488 Z M23.4596155,99.00968 C22.9371326,99.77688 22.2945066,100.36488 21.5289435,100.77368 C20.7661744,101.17968 19.9363487,101.44288 19.0282903,101.55488 C18.1258199,101.66688 17.3099643,101.71728 16.5974877,101.71728 L9.95608795,101.71728 L9.95608795,89.90408 L16.5974877,89.90408 C17.3546687,89.90408 18.1900825,89.98808 19.0981409,90.14768 C19.9922292,90.30448 20.824849,90.60128 21.5987942,91.02688 C22.3615633,91.46088 22.9958072,92.05448 23.4931438,92.82728 C23.9820983,93.59448 24.2335607,94.59408 24.2335607,95.81768 C24.2335607,97.17288 23.9737163,98.23408 23.4596155,99.00968 Z M9.95608795,72.25568 L15.9800079,72.25568 C16.6980726,72.25568 17.4384895,72.33968 18.1844944,72.49648 C18.9249113,72.65608 19.5954776,72.92488 20.182223,73.30568 C20.7661744,73.69488 21.2327768,74.21568 21.5987942,74.86248 C21.9564295,75.52048 22.1436292,76.35488 22.1436292,77.34328 C22.1436292,78.29248 21.9564295,79.10168 21.5987942,79.75968 C21.2327768,80.41488 20.7745565,80.93008 20.2129573,81.31928 C19.64577,81.70288 18.994762,81.98288 18.2515511,82.16208 C17.5055461,82.35248 16.7511591,82.43928 15.9800079,82.43928 L9.95608795,82.43928 L9.95608795,72.25568 Z M73.6347339,0.25648 L33.2526765,91.31248 C32.6659311,90.25688 32.0009529,89.32448 31.2074495,88.58808 C30.2546866,87.70328 29.2516313,87.02008 28.1954895,86.54688 C27.1393477,86.07088 26.200555,85.74328 25.3902874,85.56688 C25.9267404,85.42688 26.5917186,85.12728 27.3824279,84.67928 C28.1647552,84.22288 28.9135542,83.60128 29.6120607,82.81448 C30.3105672,82.01648 30.9224589,81.07568 31.4393537,79.95848 C31.9590425,78.85248 32.2160929,77.57288 32.2160929,76.12248 C32.2160929,74.58808 31.9506604,73.10688 31.4058254,71.68168 C30.8637843,70.25088 29.9892542,68.99648 28.7682648,67.90728 C27.5472755,66.81808 25.9714448,65.95288 24.0379789,65.29208 C22.0961308,64.63688 19.7267968,64.31208 16.9271828,64.31208 L0.0149435325,64.31208 L0.0149435325,109.59928 L16.9271828,109.59928 C19.6317999,109.59928 22.0905428,109.36408 24.267089,108.88528 C24.7616316,108.77328 25.1807355,108.60528 25.6417498,108.46528 L5.45211808,153.99888 L277.693627,153.99888 L345.934917,0.25648 L73.6347339,0.25648 Z" id="Fill-16" fill="#005A69" mask="url(#mask-2)"></path>
            </g>
        </g>
    </g>
</svg>