<?xml version="1.0" encoding="UTF-8"?>
<svg width="600px" height="250px" viewBox="0 0 600 250" version="1.1" xmlns="http://www.w3.org/2000/svg" xmlns:xlink="http://www.w3.org/1999/xlink">
    <!-- Generator: Sketch 50.1 (55044) - http://www.bohemiancoding.com/sketch -->
    <title>ITSA</title>
    <desc>Created with Sketch.</desc>
    <defs></defs>
    <g id="ITSA" stroke="none" stroke-width="1" fill="none" fill-rule="evenodd">
        <g id="Grid-Logo" opacity="0.400000006"></g>
        <g transform="translate(194.000000, 16.000000)">
            <polygon id="Fill-1" fill="#253D90" points="0 219 211 219 211 0 0 0"></polygon>
            <g id="Group-22" transform="translate(32.000000, 90.000000)">
                <path d="M80.7541295,7.31922222 C83.357101,6.26225926 85.9878819,5.26722222 88.5505295,4.12018519 C89.8019581,3.56003704 90.2622057,2.43692593 89.4265295,1.21107407 C88.6325676,0.0429259259 87.4798629,-0.10062963 86.4161486,0.846555556 C84.3123581,2.72403704 82.2641867,4.66907407 80.7541295,7.31922222 Z M7.58310095,37.0014444 C9.51447238,37.0014444 11.4444533,37.0225556 13.3744343,36.985963 C13.8986438,36.9761111 14.6912152,37.2716667 14.8233105,36.4412963 C14.9623581,35.579963 14.2101105,35.6165556 13.6316724,35.5644815 C12.0298438,35.4237407 11.2386629,34.5201852 11.1441105,32.9382593 C10.7519962,26.3009259 10.8284724,19.6635926 11.1023962,13.0248519 C11.17192,11.3627037 12.0089867,10.3690741 13.7206629,10.210037 C14.1850819,10.1664074 14.8233105,10.309963 14.8427771,9.56262963 C14.8594629,8.87862963 14.3102248,8.79559259 13.7929676,8.79559259 C9.7647581,8.78714815 5.73654857,8.78996296 1.70694857,8.79559259 C1.27729143,8.79559259 0.832339048,8.87722222 0.760034286,9.39796296 C0.65992,10.1185556 1.17856762,10.2001852 1.71251048,10.2015926 C4.18616762,10.2044074 4.76321524,11.6864074 4.7423581,13.8566296 C4.68673905,19.9141111 4.69230095,25.9744074 4.74096762,32.0318889 C4.75765333,34.0810741 4.24317714,35.5321111 1.87797714,35.5757407 C1.38018667,35.5855926 0.78784381,35.5729259 0.766986667,36.2794444 C0.73639619,37.2632222 1.54009143,36.9732963 2.04483429,36.9845556 C3.88999619,37.0225556 5.73654857,37.000037 7.58310095,37.0014444 Z M36.3993295,36.7790741 C36.5230819,36.5764074 36.6468343,36.3765556 36.7705867,36.1752963 C34.2677295,35.655963 32.490701,34.7087778 32.5546629,31.7954444 C32.695101,25.395963 32.6130629,18.9894444 32.5838629,12.5885556 C32.578301,11.3458148 32.9606819,10.8194444 34.3052724,10.7364074 C37.6966438,10.5281111 39.960339,11.8707778 41.0894057,15.1162593 C41.2646057,15.6215185 41.3814057,16.3984074 42.208739,16.1577407 C42.8580914,15.9691481 42.623101,15.3273704 42.6078057,14.8629259 C42.5702629,13.6004815 42.44512,12.3394444 42.4298248,11.0784074 C42.4075771,9.28396296 41.6428152,8.69285185 39.7893105,8.73366667 C33.9965867,8.86737037 28.198301,8.78292593 22.4027962,8.78292593 C16.892339,8.78292593 16.8784343,8.78292593 16.7505105,14.2394444 C16.7338248,14.9065556 16.2026629,15.9494444 17.2538629,16.1577407 C18.06312,16.3181852 18.118739,15.2893704 18.35512,14.7165556 C19.4800152,11.996037 21.4197295,10.7378148 24.4148152,10.7152963 C26.3684343,10.7012222 26.825901,11.3964815 26.7953105,13.2162593 C26.6993676,18.943 26.73552,24.6725556 26.7688914,30.4007037 C26.7855771,33.1747037 26.4643771,35.6517407 23.0146057,36.1077407 C22.9603771,36.1147778 22.9436914,36.3976667 22.8588724,36.7790741 L36.3993295,36.7790741 Z M125.89733,36.9901852 C125.392587,36.2625556 125.321672,36.0387778 125.204872,36.0106296 C123.199806,35.5152222 122.170853,34.4652963 122.690891,32.2162593 C123.21371,29.9489259 124.422034,29.0636667 126.77611,29.3732963 C128.507253,29.6012963 130.328777,29.6435185 132.046015,29.3634444 C134.472396,28.9665556 135.146777,30.4541852 135.615368,32.2190741 C136.077006,33.9628519 135.867044,35.4448519 133.585272,35.6531481 C133.161177,35.6925556 132.784358,35.9782593 132.855272,36.4947778 C132.93453,37.0802593 133.446225,36.9887778 133.831387,36.9901852 C137.270034,37.0028519 140.708682,37.0056667 144.14872,36.9901852 C144.604796,36.9873704 145.231901,37.1435926 145.294472,36.392037 C145.348701,35.731963 144.828663,35.5982593 144.330872,35.4504815 C142.790225,34.9944815 142.183977,33.7432963 141.615272,32.3795185 C138.611844,25.1764074 135.573653,17.985963 132.513215,10.8067778 C132.14752,9.94966667 132.073825,8.70974074 130.644415,8.79981481 C129.40411,8.87722222 129.358225,9.96374074 129.027291,10.7687778 C126.435444,17.0542593 123.849158,23.3411481 121.292072,29.6392963 C120.310396,32.0572222 119.537291,34.6046296 116.704891,35.5757407 C116.237691,35.7361852 116.112549,36.1218148 116.218225,36.5834444 C116.31973,37.031 116.710453,36.9817407 117.019139,36.9831481 C119.822339,36.9958148 122.622758,36.9901852 125.89733,36.9901852 Z M62.38872,36.9972222 C64.0656343,36.9972222 65.7425486,37.0084815 67.4194629,36.9915926 C67.8963962,36.985963 68.4970819,37.0774444 68.5888533,36.377963 C68.6528152,35.898037 68.3496914,35.6095185 67.8769295,35.5124074 C65.919139,35.1183333 65.3712914,33.4787037 64.7177676,31.9221111 C61.8283581,25.0370741 58.9598057,18.1421852 56.0064343,11.2838889 C55.5920724,10.3212222 55.6365676,8.75337037 53.9666057,8.81107407 C52.4676724,8.86314815 52.5149486,10.2832222 52.1311771,11.2008519 C49.4114057,17.7002593 46.7263962,24.2165556 44.1109105,30.7595926 C43.3086057,32.7707778 42.418701,34.6102593 40.2773676,35.4701852 C39.7517676,35.6812963 39.3958057,35.9852963 39.5779581,36.5876667 C39.7406438,37.1295185 40.2537295,36.985963 40.6361105,36.9887778 C42.8163771,37.0084815 44.9966438,37.0155185 47.1769105,36.9873704 C47.6357676,36.9817407 48.3059771,37.2336667 48.4978629,36.6228519 C48.7703962,35.7544815 47.9166438,35.7446296 47.4313676,35.5827778 C45.77392,35.0310741 45.5152914,33.8432222 45.9797105,32.3907778 C46.4413486,30.9467778 46.5122629,29.1861111 48.8746819,29.3789259 C51.1230819,29.5632963 53.421539,29.6195926 55.6574248,29.3648519 C58.2603962,29.0692963 58.5148533,30.9594444 58.9792724,32.5681111 C59.4409105,34.1683333 58.9125295,35.4012222 57.0006248,35.5982593 C56.5473295,35.6432963 56.1732914,35.9149259 56.2094438,36.4018889 C56.2636724,37.1435926 56.89912,36.9831481 57.3565867,36.9901852 C59.033501,37.0112963 60.7104152,36.9986296 62.38872,36.9972222 Z M96.403939,32.5188519 L96.4150629,32.5188519 C96.4150629,33.6968519 96.3997676,34.8762593 96.4192343,36.0556667 C96.4345295,37.0492963 97.2702057,37.3251481 97.7374057,36.803 C99.2238248,35.1366296 100.644891,36.1752963 102.077082,36.6847778 C104.08632,37.3997407 106.147006,37.7248519 108.26053,37.5390741 C111.82432,37.2266296 114.552434,35.4589259 115.849749,32.1458889 C117.062244,29.0524074 116.073615,26.2024074 113.825215,23.7971481 C112.252587,22.1152963 110.355977,20.9077407 108.334225,19.8423333 C106.340282,18.7924074 104.219806,17.8916667 102.782053,16.0198148 C101.142682,13.8847778 101.735025,11.5245556 104.168358,10.4549259 C106.194282,9.56262963 109.064225,10.3437407 111.03453,12.3661852 C112.162206,13.5244815 112.997882,14.8854444 113.552682,16.4054444 C113.743177,16.929 113.972606,17.3427778 114.585806,17.2625556 C115.126701,17.1921852 115.157291,16.7277407 115.158682,16.3083333 C115.165634,14.1184074 115.18232,11.9284815 115.148949,9.73996296 C115.135044,8.7772963 114.320225,8.46766667 113.802968,8.99122222 C112.342968,10.4746296 111.002549,9.45425926 109.648225,9.00811111 C107.79611,8.3972963 105.937044,7.96944444 103.972301,8.16507407 C100.767253,8.48314815 97.8361295,10.6294444 97.0505105,13.2542593 C96.0799581,16.4856667 97.1228152,19.4637407 100.163787,21.6241111 C101.801768,22.7866296 103.570453,23.7732222 105.322453,24.764037 C107.249653,25.8533704 108.959939,27.1805556 110.289234,28.9595185 C111.362682,30.3936667 111.365463,31.9544815 110.533958,33.4702593 C109.753901,34.8917407 108.563653,35.6475185 106.835291,35.5996667 C104.880282,35.5461852 103.249253,34.8101111 101.793425,33.6025556 C100.224968,32.2992963 98.8942819,30.791963 98.1642819,28.8427037 C97.9348533,28.2361111 97.6609295,27.7547778 96.9114629,27.9757407 C96.2440343,28.1727778 96.4247962,28.7695185 96.4136724,29.233963 C96.3858629,30.3289259 96.403939,31.4238889 96.403939,32.5188519 Z M68.8335771,20.9893704 C68.8822438,20.9893704 68.9336914,20.9907778 68.9823581,20.9907778 C68.9823581,22.925963 68.9823581,24.8611481 68.9823581,26.7963333 C68.9837486,33.5307778 71.262739,36.2386296 77.8772343,37.365963 C86.4870629,38.8338889 91.4830438,34.6693704 91.4830438,26.0222593 C91.4844343,21.8155185 91.4941676,17.6087778 91.4802629,13.4006296 C91.4733105,11.5273704 92.2074819,10.3352963 94.2125486,10.2086296 C94.7631771,10.1734444 95.527939,10.3352963 95.4264343,9.41062963 C95.3541295,8.75477778 94.7325867,8.79137037 94.2361867,8.78996296 C91.7208152,8.78151852 89.2026629,8.7772963 86.6872914,8.79137037 C86.125539,8.79418519 85.4024914,8.68159259 85.4024914,9.56403704 C85.4024914,10.3057407 86.0560152,10.2072222 86.5176533,10.2283333 C88.6089295,10.324037 89.1456533,11.6075926 89.1567771,13.4555185 C89.1818057,17.6594444 89.2596724,21.8633704 89.3528343,26.0658889 C89.3834248,27.4352963 89.1553867,28.7624815 88.7382438,30.0375926 C87.5938819,33.5321852 84.3526819,35.2112222 80.2452152,34.5258148 C76.4978819,33.9009259 75.0670819,32.1388519 75.0531771,28.0742593 C75.0392724,23.1933704 75.0698629,18.3138889 75.0406629,13.433 C75.029539,11.6709259 75.268701,10.1804815 77.4837295,10.1115185 C77.9564914,10.0974444 78.334701,9.937 78.2846438,9.40781481 C78.2345867,8.88566667 77.7854629,8.797 77.3516343,8.797 C73.65992,8.78996296 69.9695962,8.78714815 66.2778819,8.79137037 C65.7508914,8.79137037 65.2517105,8.88425926 65.2725676,9.58514815 C65.2878629,10.1706296 65.7481105,10.1889259 66.1596914,10.2184815 C68.5290629,10.3887778 68.9156152,11.9355185 68.8502629,13.9312222 C68.7751771,16.2815926 68.8335771,18.6361852 68.8335771,20.9893704 Z" id="Fill-2" fill="#FEFEFE"></path>
                <path d="M68.833299,20.9890889 C68.833299,18.6359037 68.774899,16.2813111 68.8513752,13.9309407 C68.9153371,11.935237 68.5287848,10.3884963 66.1594133,10.2182 C65.7492229,10.1886444 65.2889752,10.1703481 65.2722895,9.58486667 C65.2514324,8.88397778 65.7506133,8.79108889 66.2789943,8.79108889 C69.9693181,8.78686667 73.6610324,8.78968148 77.3513562,8.79671852 C77.7851848,8.79671852 78.2343086,8.88538519 78.2843657,9.40753333 C78.3344229,9.93671852 77.9576038,10.097163 77.4848419,10.111237 C75.2684229,10.1802 75.029261,11.6706444 75.0403848,13.4327185 C75.0695848,18.3136074 75.0389943,23.1930889 75.0542895,28.0739778 C75.0668038,32.1385704 76.4989943,33.9006444 80.2449371,34.5255333 C84.3524038,35.2109407 87.5936038,33.5319037 88.7379657,30.0373111 C89.1551086,28.7622 89.3831467,27.4350148 89.3525562,26.0656074 C89.2593943,21.8630889 89.1815276,17.659163 89.156499,13.455237 C89.1453752,11.6073111 88.6100419,10.3237556 86.5173752,10.2280519 C86.0571276,10.2069407 85.4022133,10.3054593 85.4022133,9.56375556 C85.4022133,8.68131111 86.1266514,8.7939037 86.6870133,8.79108889 C89.2023848,8.77701481 91.7205371,8.78123704 94.237299,8.79108889 C94.7323086,8.79108889 95.3538514,8.7544963 95.4261562,9.41034815 C95.527661,10.3350148 94.762899,10.173163 94.2122705,10.2083481 C92.2085943,10.3350148 91.4730324,11.5270889 91.4799848,13.4003481 C91.4938895,17.6084963 91.4841562,21.815237 91.4827657,26.0219778 C91.4827657,34.6690889 86.4867848,38.8336074 77.8769562,37.3656815 C71.2638514,36.2383481 68.9834705,33.5304963 68.98208,26.7960519 C68.98208,24.8608667 68.98208,22.9256815 68.98208,20.9904963 C68.9334133,20.9904963 68.8833562,20.9890889 68.833299,20.9890889" id="Fill-4" fill="#FEFEFE"></path>
                <path d="M96.4038,32.5191333 C96.4038,31.4241704 96.3857238,30.3278 96.4135333,29.2342444 C96.4246571,28.7698 96.2438952,28.1730593 96.9113238,27.9746148 C97.6607905,27.7536519 97.9361048,28.2363926 98.1641429,28.8429852 C98.8941429,30.790837 100.224829,32.2995778 101.793286,33.602837 C103.249114,34.8103926 104.880143,35.5450593 106.835152,35.5985407 C108.563514,35.6478 109.755152,34.8920222 110.533819,33.4705407 C111.365324,31.954763 111.362543,30.3925407 110.289095,28.9598 C108.9598,27.180837 107.249514,25.8536519 105.322314,24.7629111 C103.570314,23.7735037 101.801629,22.7869111 100.163648,21.6243926 C97.1240667,19.4640222 96.0812095,16.4845407 97.0503714,13.2545407 C97.8359905,10.6297259 100.767114,8.48202222 103.972162,8.16394815 C105.936905,7.96972593 107.795971,8.39757778 109.648086,9.00839259 C111.00241,9.45454074 112.342829,10.4735037 113.802829,8.9915037 C114.320086,8.46794815 115.134905,8.77757778 115.14881,9.73883704 C115.182181,11.928763 115.165495,14.1186889 115.158543,16.3072074 C115.157152,16.7280222 115.126562,17.1924667 114.585667,17.262837 C113.972467,17.3416519 113.743038,16.9292815 113.552543,16.4043185 C112.999133,14.8857259 112.162067,13.5233556 111.03439,12.3664667 C109.064086,10.3440222 106.194143,9.5615037 104.168219,10.4538 C101.734886,11.524837 101.142543,13.8850593 102.781914,16.0200963 C104.219667,17.8919481 106.340143,18.7926889 108.334086,19.8426148 C110.355838,20.9080222 112.252448,22.1141704 113.825076,23.7974296 C116.073476,26.2026889 117.062105,29.0526889 115.84961,32.144763 C114.552295,35.4592074 111.824181,37.2269111 108.26039,37.5379481 C106.146867,37.7237259 104.086181,37.4000222 102.076943,36.6850593 C100.644752,36.1755778 99.2236857,35.1355037 97.7372667,36.8032815 C97.2700667,37.3254296 96.4343905,37.0495778 96.4190952,36.0559481 C96.3996286,34.8765407 96.4149238,33.6971333 96.4149238,32.5191333 L96.4038,32.5191333 Z" id="Fill-6" fill="#FEFEFE"></path>
                <path d="M52.3593543,16.4831333 C51.0787257,19.7426889 50.1123448,22.4322444 48.9665924,25.0429852 C48.2463257,26.6798 48.898459,26.9176519 50.3153543,26.8515037 C51.7405924,26.7853556 53.1713924,26.7938 54.5966305,26.8500963 C55.912021,26.9021704 56.519659,26.6192815 55.8856019,25.1443185 C54.7259448,22.4505407 53.6664019,19.7117259 52.3593543,16.4831333 M62.3874686,36.9989111 C60.7105543,36.9989111 59.03364,37.0101704 57.3567257,36.9904667 C56.899259,36.9834296 56.2638114,37.1438741 56.2095829,36.4021704 C56.1734305,35.9152074 56.5474686,35.6435778 56.9993733,35.5985407 C58.9126686,35.4015037 59.4410495,34.1686148 58.9794114,32.5683926 C58.5149924,30.9597259 58.2605352,29.0695778 55.6575638,29.3651333 C53.4216781,29.6184667 51.123221,29.5621704 48.874821,29.3792074 C46.5124019,29.1863926 46.4414876,30.9470593 45.9798495,32.3910593 C45.5154305,33.8420963 45.774059,35.0313556 47.4315067,35.5830593 C47.9167829,35.7449111 48.7705352,35.754763 48.4980019,36.6231333 C48.3061162,37.2339481 47.6359067,36.9820222 47.175659,36.9876519 C44.9967829,37.0143926 42.8165162,37.0073556 40.6362495,36.9890593 C40.2538686,36.9862444 39.7407829,37.1283926 39.5780971,36.5879481 C39.3959448,35.9855778 39.7519067,35.6815778 40.2775067,35.4704667 C42.41884,34.6091333 43.3087448,32.7710593 44.1110495,30.7598741 C46.7265352,24.216837 49.4115448,17.7005407 52.1313162,11.2011333 C52.5150876,10.2835037 52.4678114,8.86202222 53.9667448,8.81135556 C55.6367067,8.75365185 55.5922114,10.3215037 56.0065733,11.2841704 C58.9599448,18.1424667 61.8284971,25.0373556 64.7179067,31.9223926 C65.3714305,33.4789852 65.9178876,35.1186148 67.8770686,35.5126889 C68.3498305,35.6083926 68.6529543,35.8969111 68.5889924,36.3782444 C68.497221,37.0763185 67.8965352,36.9862444 67.4196019,36.9918741 C65.7426876,37.0073556 64.0643829,36.9975037 62.3874686,36.9989111" id="Fill-8" fill="#FEFEFE"></path>
                <path d="M129.071787,16.5243704 C127.759177,19.8655556 126.666263,22.7296296 125.505215,25.5641481 C125.032453,26.7182222 125.587253,26.8533333 126.51053,26.8420741 C128.190225,26.8195556 129.87131,26.797037 131.551006,26.8462963 C132.709272,26.8814815 133.122244,26.4268889 132.687025,25.346 C131.56352,22.5593333 130.410815,19.7839259 129.071787,16.5243704 M125.89733,36.9908889 C122.622758,36.9908889 119.822339,36.9951111 117.019139,36.9838519 C116.710453,36.9824444 116.31973,37.0317037 116.218225,36.5827407 C116.112549,36.1211111 116.237691,35.7368889 116.704891,35.5764444 C119.537291,34.6039259 120.310396,32.0579259 121.292072,29.64 C123.849158,23.3404444 126.435444,17.0535556 129.027291,10.7694815 C129.358225,9.96444444 129.40411,8.87792593 130.644415,8.79911111 C132.073825,8.70903704 132.14752,9.95037037 132.513215,10.8060741 C135.573653,17.9852593 138.611844,25.1757037 141.615272,32.3788148 C142.183977,33.744 142.790225,34.9951852 144.330872,35.4511852 C144.828663,35.5975556 145.348701,35.7326667 145.294472,36.3927407 C145.231901,37.1442963 144.604796,36.9880741 144.14872,36.9908889 C140.708682,37.004963 137.270034,37.0021481 133.831387,36.9908889 C133.446225,36.9894815 132.93453,37.080963 132.855272,36.4954815 C132.784358,35.978963 133.161177,35.6932593 133.585272,35.6524444 C135.867044,35.4455556 136.077006,33.9621481 135.615368,32.2197778 C135.146777,30.4548889 134.472396,28.9658519 132.046015,29.3641481 C130.328777,29.6442222 128.507253,29.602 126.77611,29.3725926 C124.422034,29.0643704 123.21371,29.9496296 122.690891,32.216963 C122.170853,34.466 123.199806,35.5159259 125.204872,36.0099259 C125.321672,36.0394815 125.392587,36.2632593 125.89733,36.9908889" id="Fill-10" fill="#FEFEFE"></path>
                <path d="M36.3994686,36.7785111 L22.8590114,36.7785111 C22.9438305,36.3971037 22.9605162,36.1142148 23.0147448,36.1071778 C26.4631257,35.6511778 26.7857162,33.1741407 26.7690305,30.4015481 C26.735659,24.6719926 26.6995067,18.9438444 26.7954495,13.2156963 C26.82604,11.3973259 26.3685733,10.7006593 24.4149543,10.7147333 C21.4198686,10.7372519 19.4801543,11.9954741 18.355259,14.7174 C18.1188781,15.2888074 18.063259,16.3176222 17.2540019,16.1571778 C16.2028019,15.9488815 16.7339638,14.9059926 16.7506495,14.2388815 C16.8771829,8.78236296 16.8924781,8.78236296 22.4029352,8.78236296 C28.19844,8.78236296 33.9953352,8.86680741 39.7894495,8.73451111 C41.6429543,8.69228889 42.4077162,9.28480741 42.4285733,11.0778444 C42.445259,12.3402889 42.5690114,13.6013259 42.6079448,14.8637704 C42.62324,15.3282148 42.8582305,15.9685852 42.2088781,16.1571778 C41.3815448,16.3978444 41.2647448,15.622363 41.0895448,15.1156963 C39.9604781,11.8716222 37.6967829,10.5289556 34.3054114,10.7372519 C32.960821,10.8188815 32.5770495,11.3452519 32.5840019,12.5879926 C32.6132019,18.9902889 32.69524,25.3954 32.5548019,31.7948815 C32.49084,34.7082148 34.2678686,35.6554 36.7707257,36.1747333 C36.6469733,36.3759926 36.523221,36.5758444 36.3994686,36.7785111" id="Fill-12" fill="#FEFEFE"></path>
                <path d="M7.58310095,36.9997556 C5.73654857,36.9997556 3.88999619,37.0236815 2.04483429,36.9842741 C1.54009143,36.9730148 0.73639619,37.2629407 0.766986667,36.279163 C0.78784381,35.5726444 1.38018667,35.5853111 1.87797714,35.5754593 C4.24317714,35.5318296 4.75765333,34.0807926 4.74096762,32.0316074 C4.69230095,25.9741259 4.68673905,19.9138296 4.74374857,13.8563481 C4.76321524,11.6861259 4.18616762,10.2041259 1.71251048,10.2013111 C1.1799581,10.1999037 0.65992,10.1182741 0.760034286,9.39768148 C0.833729524,8.87694074 1.27729143,8.79531111 1.70694857,8.79531111 C5.73654857,8.78968148 9.7647581,8.78827407 13.7929676,8.79531111 C14.3102248,8.79531111 14.8594629,8.87834815 14.8427771,9.56234815 C14.824701,10.3110889 14.1850819,10.1675333 13.7206629,10.2097556 C12.0089867,10.3702 11.17192,11.3624222 11.1023962,13.0245704 C10.8284724,19.6633111 10.7519962,26.3006444 11.145501,32.9379778 C11.2386629,34.5199037 12.0298438,35.4234593 13.6316724,35.5642 C14.2101105,35.6176815 14.9623581,35.5796815 14.824701,36.4424222 C14.6912152,37.2713852 13.8986438,36.9758296 13.3744343,36.9856815 C11.4444533,37.0236815 9.51447238,37.001163 7.58310095,36.9997556" id="Fill-14" fill="#FEFEFE"></path>
                <path d="M80.7541295,7.31922222 C82.2641867,4.66907407 84.3123581,2.72403704 86.4161486,0.846555556 C87.4798629,-0.10062963 88.6325676,0.0429259259 89.4265295,1.21107407 C90.2622057,2.43692593 89.8019581,3.56003704 88.5505295,4.12018519 C85.9878819,5.26722222 83.357101,6.26225926 80.7541295,7.31922222" id="Fill-16" fill="#FEFEFE"></path>
                <path d="M52.3593543,16.4831333 C53.6664019,19.7117259 54.7259448,22.4505407 55.8856019,25.1443185 C56.519659,26.6192815 55.912021,26.9021704 54.5966305,26.8500963 C53.1713924,26.7938 51.7405924,26.7853556 50.3153543,26.8515037 C48.898459,26.9176519 48.2463257,26.6798 48.9665924,25.0429852 C50.1123448,22.4322444 51.0787257,19.7426889 52.3593543,16.4831333" id="Fill-18" fill="#253D90"></path>
                <path d="M129.071787,16.5243704 C130.410815,19.7839259 131.56352,22.5593333 132.687025,25.346 C133.122244,26.4268889 132.709272,26.8814815 131.551006,26.8462963 C129.87131,26.797037 128.190225,26.8195556 126.51053,26.8420741 C125.587253,26.8533333 125.032453,26.7182222 125.505215,25.5641481 C126.666263,22.7296296 127.759177,19.8655556 129.071787,16.5243704" id="Fill-20" fill="#253D90"></path>
            </g>
        </g>
    </g>
</svg>