<?xml version="1.0" encoding="UTF-8"?>
<svg width="600px" height="250px" viewBox="0 0 600 250" version="1.1" xmlns="http://www.w3.org/2000/svg" xmlns:xlink="http://www.w3.org/1999/xlink">
    <!-- Generator: Sketch 50.1 (55044) - http://www.bohemiancoding.com/sketch -->
    <title>ITUB</title>
    <desc>Created with Sketch.</desc>
    <defs></defs>
    <g id="ITUB" stroke="none" stroke-width="1" fill="none" fill-rule="evenodd">
        <g id="Grid-Logo" opacity="0.400000006" transform="translate(1.000000, 0.000000)"></g>
        <g transform="translate(96.000000, 51.000000)" id="Group">
            <g transform="translate(188.000000, 0.000000)" fill="#00527D" fill-rule="nonzero">
                <g transform="translate(0.000000, 116.142254)" id="Shape">
                    <path d="M96.3093633,11.9444131 C97.125812,11.5377465 98.3504849,9.91107981 98.3504849,8.28441315 C98.3504849,4.21774648 96.3093633,0.964413146 91.4106715,0.964413146 L76.3063718,0.964413146 L76.3063718,30.2444131 L93.0435688,30.2444131 C98.7587092,30.2444131 102.432728,26.5844131 102.432728,20.8910798 C102.432728,16.0110798 100.391607,13.1644131 96.3093633,11.9444131 Z M88.5531013,5.43774648 C90.1859986,5.43774648 91.4106715,6.65774648 91.4106715,8.28441315 C91.4106715,9.91107981 90.1859986,11.5377465 88.5531013,11.5377465 C88.144877,11.5377465 86.5119797,11.5377465 84.8790825,11.5377465 L84.8790825,5.84441315 L88.5531013,5.84441315 L88.5531013,5.43774648 Z M89.7777743,24.1444131 L85.2873068,24.1444131 L85.2873068,16.8244131 L89.7777743,16.8244131 C92.6353445,16.8244131 93.8600174,18.0444131 93.8600174,20.4844131 C93.8600174,22.5177465 92.6353445,24.1444131 89.7777743,24.1444131 Z"></path>
                    <path d="M50.1800156,0.557746479 L50.1800156,18.8577465 L43.2402022,6.25107981 C40.382632,0.964413146 39.5661833,0.964413146 33.4428186,0.964413146 L30.1770241,0.557746479 L30.1770241,29.8377465 L36.7086131,29.8377465 L36.7086131,11.5377465 L43.6484265,24.1444131 C46.5059967,29.4310798 47.3224454,29.4310798 53.4458101,29.4310798 L56.7116046,29.4310798 L56.7116046,0.557746479 L50.1800156,0.557746479 Z"></path>
                    <path d="M154.277216,0.557746479 L154.277216,18.8577465 L147.337403,6.25107981 C144.479833,0.964413146 144.071608,0.557746479 137.540019,0.557746479 L134.274225,0.557746479 L134.274225,26.9910798 L122.027495,6.25107981 C119.169925,1.37107981 116.312355,0.964413146 111.005439,0.964413146 L105.290298,0.964413146 L105.290298,30.2444131 L111.821887,30.2444131 L111.821887,24.1444131 L121.619271,24.1444131 L122.027495,24.9577465 L125.29329,30.2444131 L140.805814,30.2444131 L140.805814,11.9444131 L147.745627,24.5510798 C150.603197,29.8377465 151.419646,29.8377465 157.543011,29.8377465 L160.808805,29.8377465 L160.808805,0.557746479 L154.277216,0.557746479 Z M111.821887,18.4510798 L111.821887,6.65774648 C111.821887,6.65774648 117.537028,16.4177465 118.761701,18.4510798 L111.821887,18.4510798 Z"></path>
                    <path d="M24.8701079,0.557746479 L18.3385189,0.557746479 L18.3385189,23.7377465 C18.3385189,23.7377465 16.7056216,23.7377465 15.4809487,23.7377465 C10.5822569,23.7377465 9.76580824,22.5177465 9.76580824,17.2310798 C9.76580824,17.2310798 9.76580824,4.21774648 9.76580824,0.151079812 L0.784873272,0.151079812 C0.784873272,4.21774648 0.784873272,17.6377465 0.784873272,17.6377465 C0.784873272,27.3977465 3.64244349,29.4310798 12.6233785,29.4310798 C16.7056216,29.4310798 25.2783323,29.4310798 25.2783323,29.4310798 L25.2783323,0.557746479 L24.8701079,0.557746479 Z"></path>
                    <path d="M64.876091,0.557746479 C63.651418,0.557746479 62.0185208,0.557746479 62.0185208,0.557746479 L62.0185208,29.8377465 L70.9994557,29.8377465 L70.9994557,5.84441315 C70.9994557,2.18441315 69.3665584,0.557746479 64.876091,0.557746479 Z"></path>
                    <path d="M220.81778,12.7577465 C220.81778,12.3510798 220.81778,11.5377465 220.81778,11.1310798 C220.001331,4.21774648 216.735537,0.557746479 209.387499,0.151079812 C208.979275,0.151079812 208.979275,0.151079812 208.57105,0.151079812 L207.754602,0.151079812 C207.754602,0.151079812 207.754602,0.151079812 207.754602,0.151079812 C207.754602,0.151079812 206.938153,0.151079812 206.938153,0.151079812 C198.365442,0.151079812 194.691424,5.03107981 194.691424,13.5710798 C194.691424,13.5710798 194.691424,17.2310798 194.691424,17.2310798 C194.691424,26.1777465 198.365442,30.6510798 206.938153,30.6510798 C206.938153,30.6510798 207.754602,30.6510798 207.754602,30.6510798 C207.754602,30.6510798 207.754602,30.6510798 207.754602,30.6510798 L208.57105,30.6510798 C208.979275,30.6510798 208.979275,30.6510798 209.387499,30.6510798 C216.735537,30.2444131 220.001331,26.5844131 220.81778,19.6710798 C220.81778,18.8577465 220.81778,18.0444131 220.81778,17.2310798 C220.81778,17.2310798 220.81778,12.7577465 220.81778,12.7577465 Z M211.428621,19.6710798 C211.428621,22.9244131 210.612172,24.5510798 207.346377,24.5510798 C207.346377,24.5510798 207.346377,24.5510798 207.346377,24.5510798 C203.672359,24.5510798 203.264134,22.5177465 203.264134,18.8577465 L203.264134,11.9444131 C203.264134,8.28441315 203.672359,6.25107981 207.346377,6.25107981 C207.346377,6.25107981 207.346377,6.25107981 207.346377,6.25107981 C210.612172,6.25107981 211.020396,7.87774648 211.428621,11.1310798 C211.428621,11.5377465 211.428621,11.5377465 211.428621,11.9444131 L211.428621,18.8577465 C211.428621,19.2644131 211.428621,19.2644131 211.428621,19.6710798 Z"></path>
                    <path d="M190.60918,14.7910798 C190.60918,14.7910798 191.017405,13.1644131 191.017405,9.91107981 C191.017405,3.81107981 186.935162,0.151079812 179.1789,0.151079812 C179.1789,0.151079812 178.362451,0.151079812 178.362451,0.151079812 C178.362451,0.151079812 177.546002,0.151079812 177.546002,0.151079812 C167.748619,0.151079812 164.482824,5.84441315 164.482824,13.1644131 C164.482824,14.3844131 164.482824,16.0110798 164.482824,16.0110798 C164.482824,29.0244131 168.973292,30.6510798 179.587124,30.6510798 C184.077591,30.6510798 189.792732,30.6510798 189.792732,30.6510798 L189.792732,24.9577465 C189.792732,24.9577465 185.710489,24.9577465 182.444694,24.9577465 C174.280208,24.9577465 173.463759,24.1444131 173.463759,15.6044131 L173.463759,13.9777465 C173.463759,9.91107981 173.463759,6.65774648 177.137778,6.65774648 C177.137778,6.65774648 177.546002,6.65774648 177.546002,6.65774648 C177.546002,6.65774648 177.954227,6.65774648 177.954227,6.65774648 C180.403573,6.65774648 181.628245,7.87774648 181.628245,11.9444131 C181.628245,13.9777465 181.628245,15.1977465 181.628245,15.1977465 L190.60918,14.7910798 Z"></path>
                </g>
                <path d="M93.4517931,32.52 C90.1859986,33.3333333 86.9202041,34.5533333 84.0626338,36.18 C83.6544095,21.9466667 88.9613256,9.34 99.1669336,3.64666667 C103.249177,1.61333333 107.739644,0.393333333 112.230112,0.393333333 C116.720579,0.393333333 121.211047,1.61333333 125.29329,4.05333333 C136.315346,10.56 140.805814,24.3866667 138.764692,39.84 C137.948244,45.5333333 136.315346,51.2266667 133.866,56.92 C132.641328,59.7666667 131.00843,63.02 129.375533,65.8666667 C126.109738,71.56 122.027495,76.44 117.537028,80.5066667 C114.679458,76.44 112.230112,71.9666667 110.597214,66.2733333 C112.638336,64.6466667 115.087682,62.6133333 117.128803,60.9866667 C120.394598,58.14 122.843944,54.8866667 125.29329,51.6333333 C135.498898,37.8066667 138.356468,22.76 131.00843,15.0333333 C129.375533,13 126.926187,11.78 124.476841,10.9666667 C122.027495,10.1533333 119.169925,10.1533333 116.720579,10.56 C109.372541,12.1866667 104.065625,19.9133333 102.432728,30.4866667 C99.1669336,30.8933333 96.3093633,31.7066667 93.4517931,32.52 Z M94.2682418,75.22 C84.0626338,78.88 75.0816989,78.0666667 69.7747828,72.78 C68.1418855,70.7466667 66.9172125,68.7133333 66.1007639,66.2733333 C65.6925396,63.8333333 65.6925396,60.9866667 66.1007639,58.5466667 C68.9583341,48.38 83.6544095,43.0933333 100.799831,45.1266667 C104.882074,45.5333333 108.964317,46.3466667 113.04656,47.5666667 C115.904131,48.38 118.353476,49.1933333 121.211047,50.4133333 C124.885065,45.94 127.742636,41.4666667 129.783757,36.9933333 C124.068617,35.3666667 117.945252,34.1466667 111.413663,34.1466667 C108.147869,34.1466667 104.47385,34.1466667 101.208055,34.5533333 C95.0846904,35.3666667 89.36955,36.5866667 84.0626338,39.0266667 C69.7747828,45.1266667 59.5691749,55.7 59.5691749,68.3066667 C59.5691749,72.78 60.3856235,77.2533333 62.8349694,81.32 C65.2843153,85.3866667 68.1418855,88.64 72.2241287,91.08 C82.4297366,97.18 95.901139,95.5533333 108.147869,87.8266667 C105.290298,85.7933333 102.840952,83.76 100.391607,81.32 C97.9422606,79.2866667 95.901139,77.2533333 94.2682418,75.22 Z M136.723571,59.7666667 C144.888057,66.68 148.9703,74.8133333 146.520954,82.1333333 C145.704506,84.5733333 144.479833,86.6066667 142.438711,88.64 C140.39759,90.2666667 138.356468,91.8933333 135.907122,92.3 C125.29329,94.74 113.863009,84.98 106.923196,69.12 C105.290298,65.46 104.065625,61.3933333 102.840952,57.3266667 C102.024504,54.48 101.616279,51.6333333 101.208055,49.1933333 C95.4929147,47.9733333 90.1859986,47.9733333 85.2873068,48.38 C86.5119797,54.0733333 88.9613256,60.1733333 91.8188959,65.8666667 C93.4517931,68.7133333 95.4929147,71.56 97.125812,74.4066667 C100.799831,79.2866667 104.882074,83.76 109.372541,87.0133333 C121.619271,96.3666667 135.907122,99.62 147.337403,93.52 C151.419646,91.4866667 154.685441,88.2333333 157.134787,84.1666667 C159.584132,80.1 160.808805,76.0333333 160.808805,71.56 C161.21703,59.7666667 153.052543,48.7866667 139.989365,42.28 C139.581141,45.5333333 139.172917,48.7866667 138.356468,52.04 C138.764692,54.0733333 137.540019,56.92 136.723571,59.7666667 Z" id="Shape"></path>
            </g>
            <g>
                <path d="M24.7871248,0.393958665 L122.415187,0.393958665 C129.330508,0.393958665 135.025478,2.83783784 139.500098,7.31828299 C144.381501,12.2060413 146.822202,17.9084261 146.822202,24.8327504 L146.822202,122.587917 C146.822202,129.104928 144.381501,135.214626 139.500098,139.695072 C135.025478,144.175517 129.330508,146.619396 122.415187,146.619396 L24.7871248,146.619396 C17.8718037,146.619396 12.1768334,144.175517 7.29543032,139.695072 C2.82081081,134.807313 0.380109258,129.104928 0.380109258,122.587917 L0.380109258,24.8327504 C0.380109258,17.9084261 2.82081081,12.2060413 7.29543032,7.31828299 C12.1768334,2.83783784 17.8718037,0.393958665 24.7871248,0.393958665 Z" id="Shape" fill="#001D7E"></path>
                <path d="M112.245597,83.4858506 L119.974485,83.4858506 L129.737292,73.7103339 L119.160918,73.7103339 L112.245597,83.4858506 Z M109.398112,85.9297297 L98.0081714,85.9297297 L98.0081714,107.110016 C98.0081714,112.812401 99.6353057,116.885533 102.076007,119.736725 C104.516709,122.180604 107.770978,123.402544 111.838813,123.402544 C117.533784,123.402544 121.60162,121.365978 124.449105,116.885533 L124.449105,122.587917 L134.618695,122.587917 L134.618695,85.9297297 L123.228754,85.9297297 L123.228754,107.110016 C123.228754,107.924642 123.228754,108.739269 122.82197,109.146582 C121.60162,112.405087 119.160918,114.03434 115.906649,114.03434 C111.43203,114.03434 109.398112,110.775835 109.398112,105.07345 L109.398112,85.9297297 Z M80.1096933,98.1491256 C72.7875887,98.1491256 67.0926184,99.3710652 63.0247824,101.814944 C58.9569465,104.258824 56.9230286,107.924642 56.9230286,112.405087 C56.9230286,115.25628 58.1433793,118.107472 60.1772973,120.144038 C62.6179988,122.587917 65.8722676,123.402544 69.5333199,123.402544 C74.414723,123.402544 78.4825589,121.773291 80.9232605,118.922099 L81.3300441,118.922099 L81.3300441,122.587917 L91.9064175,122.587917 L91.9064175,101.000318 C91.9064175,96.1125596 90.6860667,92.4467409 88.2453652,89.5955485 C85.39788,86.3370429 80.9232605,84.7077901 75.2282902,84.7077901 C69.1265363,84.7077901 64.2451332,85.9297297 60.1772973,88.3736089 L62.2112153,95.7052464 C65.465484,93.6686804 69.1265363,92.8540541 73.1943722,92.8540541 C77.6689918,92.8540541 80.1096933,94.4833068 80.1096933,98.1491256 Z M52.448409,85.9297297 L45.533088,85.9297297 L45.533088,73.7103339 L34.549931,73.7103339 L34.549931,85.9297297 L29.2617443,85.9297297 L29.2617443,94.4833068 L34.549931,94.4833068 L34.549931,109.146582 C34.549931,114.03434 35.3634982,118.107472 37.8041997,120.144038 C39.8381177,122.587917 43.0923864,123.402544 46.7534388,123.402544 C49.1941403,123.402544 51.2280583,122.995231 52.8551926,122.587917 L52.8551926,114.03434 C52.448409,114.441653 51.6348419,114.441653 50.8212747,114.441653 C49.1941403,114.441653 47.5670059,113.627027 46.7534388,112.405087 C45.9398716,111.590461 45.9398716,109.961208 45.9398716,107.517329 L45.9398716,94.4833068 L52.8551926,94.4833068 L52.8551926,85.9297297 L52.448409,85.9297297 Z M67.499402,111.590461 C67.499402,107.110016 71.9740215,105.07345 80.5164769,105.480763 L80.5164769,109.553895 L80.5164769,111.590461 C80.1096933,112.812401 78.8893425,114.03434 77.6689918,114.848967 C76.448641,116.070906 74.8215066,116.478219 73.1943722,116.478219 C69.5333199,116.478219 67.499402,114.848967 67.499402,111.590461 Z M12.583617,73.7103339 L12.583617,122.587917 L23.9735576,122.587917 L23.9735576,73.7103339 L12.583617,73.7103339 Z" id="Shape" fill="#FEEE00"></path>
            </g>
        </g>
    </g>
</svg>