<?xml version="1.0" encoding="UTF-8"?>
<svg width="600px" height="250px" viewBox="0 0 600 250" version="1.1" xmlns="http://www.w3.org/2000/svg" xmlns:xlink="http://www.w3.org/1999/xlink">
    <!-- Generator: Sketch 50.1 (55044) - http://www.bohemiancoding.com/sketch -->
    <title>JBSS</title>
    <desc>Created with Sketch.</desc>
    <defs></defs>
    <g id="JBSS" stroke="none" stroke-width="1" fill="none" fill-rule="evenodd">
        <g id="Grid-Logo" opacity="0.400000006" transform="translate(1.000000, 0.000000)"></g>
        <g id="JBSS3" transform="translate(115.000000, 52.000000)">
            <g id="Group" transform="translate(8.000000, 0.000000)" fill="#FF0000">
                <path d="M118.705489,22.5923077 L118.705489,21.7461538 L80.397136,21.7461538 C80.397136,21.7461538 86.2778043,23.6076923 88.8821002,24.7923077 C90.5622912,25.5538462 90.8983294,26.0615385 91.150358,27.0769231 C91.8224344,29.2769231 92.074463,77.6769231 91.4863962,80.3846154 C90.6463007,84.2769231 86.8658711,86.8153846 81.9933174,86.0538462 C80.7331742,85.8846154 79.5570406,85.3769231 78.4649165,84.5307692 C76.2806683,82.8384615 74.5164678,79.9615385 72.1642005,78.4384615 C68.6357995,76.1538462 58.1346062,76.3230769 55.950358,79.2 C54.9422434,80.5538462 55.6143198,83.0076923 57.5465394,84.5307692 C65.1073986,90.5384615 85.1016706,88.1692308 91.5704057,86.3076923 C100.391408,83.8538462 107.784248,79.2 109.632458,71.4153846 C110.892601,66.0846154 110.052506,30.8 111.22864,27.1615385 C111.816706,25.4692308 113.244869,24.5384615 117.025298,23.4384615 C118.53747,23.0153846 118.705489,22.9307692 118.705489,22.5923077 Z" id="Shape" fill-rule="nonzero"></path>
                <path d="M146.932697,30.2076923 L146.932697,79.7923077 C146.932697,81.7384615 146.848687,82.0769231 146.512649,82.9230769 C146.260621,83.5153846 145.924582,83.9384615 145.420525,84.5307692 C144.328401,85.6307692 142.060143,87.2384615 142.060143,87.2384615 C142.060143,87.2384615 171.547494,88.5076923 186.081146,87.2384615 C195.574224,86.4769231 211.788067,83.0923077 213.468258,71.2461538 C214.476372,64.3076923 207.755609,57.0307692 200.866826,56.0153846 C197.590453,55.5923077 192.549881,54.4076923 192.213842,53.5615385 C192.045823,53.0538462 191.961814,52.3769231 191.961814,52.3769231 C191.961814,52.3769231 200.782816,49.0769231 204.815274,46.5384615 C211.620048,42.2230769 210.863962,33.0846154 204.059189,27.7538462 C203.051074,26.9076923 197.674463,23.9461538 194.818138,23.3538462 C193.137947,23.0153846 192.801909,22.9307692 191.037709,22.9307692 L139.959905,22.3384615 C139.959905,22.3384615 143.404296,23.5230769 144.832458,24.4538462 C145.336516,24.7923077 146.42864,26.0615385 146.764678,27.2461538 C146.932697,27.9230769 146.932697,28.2615385 146.932697,30.2076923 Z M165.834845,52.1230769 L165.834845,24.7923077 C165.834845,24.7923077 171.043437,24.5384615 174.907876,24.7923077 C184.652983,25.3846154 191.793795,32.8307692 188.853461,42.5615385 C187.17327,48.0615385 180.032458,51.7 172.135561,52.0384615 C169.363246,52.2076923 165.834845,52.1230769 165.834845,52.1230769 Z M165.834845,77.5923077 L165.834845,54.4923077 C165.834845,54.4923077 169.615274,54.4076923 172.555609,54.4923077 C182.636754,54.8307692 190.197613,58.6384615 192.045823,67.4384615 C194.4821,79.2846154 181.712649,87.0692308 170.203341,84.8692308 C168.271122,84.5307692 167.094988,83.6 166.254893,81.0615385 C165.834845,79.8769231 165.834845,79.5384615 165.834845,77.5923077 Z" id="Shape"></path>
                <path d="M252.280668,84.8692308 C251.020525,85.2076923 247.996181,85.7153846 247.996181,85.3769231 L247.996181,86.5615385 C248.24821,86.8153846 251.188544,86.6461538 252.784726,86.2230769 C253.204773,86.2230769 253.708831,86.0538462 254.212888,85.9692308 C260.429594,84.6153846 268.242482,80.8923077 268.998568,74.5461538 C269.670644,68.6230769 267.150358,65.7461538 263.201909,62.8692308 C260.933652,61.2615385 244.55179,54.9153846 244.383771,55.5923077 C244.299761,56.0153846 244.215752,56.4384615 244.383771,56.5230769 C246.31599,57.3692308 249.424344,58.1307692 252.196659,59.2307692 C258.833413,61.7692308 265.806205,67.2692308 264.210024,75.3923077 C263.453938,79.0307692 260.513604,81.9923077 256.901193,83.1769231 C255.977088,83.6 253.456802,84.1076923 252.280668,84.8692308 Z" id="Shape"></path>
                <path d="M239.091169,87.2384615 L239.091169,86.5615385 C239.091169,86.3076923 238.92315,86.2230769 237.242959,85.8846154 C232.622434,85.0384615 224.977566,82.6692308 223.129356,78.1 C222.457279,76.4076923 221.785203,74.1230769 220.945107,73.8692308 C220.273031,73.7 219.180907,73.8692308 219.180907,73.8692308 C219.180907,73.8692308 219.180907,76.0692308 219.180907,77.7615385 C219.348926,84.3615385 221.197136,84.9538462 227.329833,85.9692308 C231.782339,86.8153846 239.091169,87.2384615 239.091169,87.2384615 Z" id="Shape"></path>
                <path d="M281.852029,33.9307692 L283.028162,33.9307692 L283.028162,30.7153846 C283.028162,29.2769231 283.028162,28.9384615 282.776134,27.5 C282.356086,24.4538462 281.768019,23.9461538 279.8358,23.3538462 C277.90358,22.7615385 275.551313,22 271.854893,21.8307692 C269.754654,21.7461538 267.234368,21.8307692 267.234368,21.8307692 L267.234368,22.5076923 C267.234368,22.7615385 267.402387,22.8461538 269.082578,23.1846154 C273.535084,24.0307692 277.987589,26.8230769 280.423866,32.2384615 C281.179952,33.7615385 281.347971,33.9307692 281.852029,33.9307692 Z" id="Shape"></path>
                <path d="M240.099284,54.1538462 C232.622434,49.2461538 225.061575,47.5538462 223.885442,38.7538462 C223.465394,35.7923077 223.885442,32.4923077 225.733652,30.2923077 C226.237709,29.7 230.690215,26.0615385 229.6821,24.8769231 C229.010024,24.2 224.725537,27.1615385 223.885442,27.9230769 C219.180907,32.0692308 217.164678,37.9923077 220.189021,43.0692308 C221.449165,45.1846154 223.465394,46.9615385 226.489737,49.3307692 C228.673986,51.0230769 239.847255,55.8461538 240.099284,55.1692308 C240.267303,54.7461538 240.267303,54.2384615 240.099284,54.1538462 Z" id="Shape"></path>
                <path d="M253.708831,22 C253.288783,21.9153846 252.532697,22.0846154 251.272554,22.3384615 C243.207637,24.1153846 236.066826,26.7384615 233.798568,33.0846154 C232.286396,37.4 233.630549,39.9384615 236.906921,43.3230769 C237.494988,43.9153846 238.083055,44.5076923 238.755131,44.8461538 C239.679236,45.3538462 239.931265,45.5230769 241.527446,46.1153846 L267.822434,56.7769231 C269.418616,57.4538462 269.754654,57.6230769 271.098807,58.3846154 C274.963246,60.5846154 278.239618,65.7461538 278.743675,68.6230769 C279.415752,72.0076923 278.827685,76.4076923 276.895465,78.7769231 C274.879236,81.2307692 270.090692,84.4461538 270.846778,85.4615385 C271.350835,86.0538462 274.963246,84.7 277.651551,83.3461538 C286.136516,79.1153846 291.429117,70.9076923 284.708353,61.8538462 C284.036277,61.0076923 283.3642,60.1615385 282.524105,59.4846154 C281.431981,58.6384615 281.095943,58.4692308 279.499761,57.7923077 L249.004296,44.7615385 C247.408115,44.0846154 247.156086,43.9153846 246.147971,43.2384615 C243.123628,41.0384615 241.527446,36.1307692 241.947494,33.6769231 C242.871599,28.6 245.139857,26.8230769 249.760382,24.6230769 C250.684487,24.2 251.524582,23.7769231 252.532697,23.6923077 C253.288783,23.6076923 253.624821,23.5230769 253.79284,23.4384615 L257.069212,23.1 L257.069212,21.9153846 L253.708831,22 Z" id="Shape"></path>
                <path d="M301.594272,0.676923077 C326.12506,15.3153846 340.91074,34.3538462 340.91074,55.0846154 C340.91074,75.8153846 326.12506,94.8538462 301.594272,109.492308 C332.341766,95.4461538 351.243914,76.2384615 351.243914,55.0846154 C351.243914,33.9307692 332.341766,14.7230769 301.594272,0.676923077 Z" id="Shape"></path>
                <path d="M49.9856802,109.576923 C25.4548926,94.9384615 10.6692124,75.9 10.6692124,55.1692308 C10.6692124,34.4384615 25.4548926,15.4 49.9856802,0.761538462 C19.2381862,14.8076923 0.336038186,34.0153846 0.336038186,55.1692308 C0.336038186,76.3230769 19.2381862,95.4461538 49.9856802,109.576923 Z" id="Shape"></path>
            </g>
            <path d="M369.244212,60 C367.564685,104.461392 285.687699,140.198284 185,140.198284 C84.3123014,140.198284 2.43531548,104.461392 0.755787562,60 C0.251929187,62.4327931 0,64.8655863 0,67.3822688 C0,111.92755 82.8007263,148 185,148 C287.199274,148 370,111.92755 370,67.3822688 C370,64.9494757 369.748071,62.4327931 369.244212,60 Z" id="Shape" stroke="#7F7F7F" stroke-width="0.72" fill="#7F7F7F"></path>
        </g>
    </g>
</svg>