<?xml version="1.0" encoding="UTF-8"?>
<svg width="600px" height="250px" viewBox="0 0 600 250" version="1.1" xmlns="http://www.w3.org/2000/svg" xmlns:xlink="http://www.w3.org/1999/xlink">
    <!-- Generator: Sketch 50.1 (55044) - http://www.bohemiancoding.com/sketch -->
    <title>KLBN</title>
    <desc>Created with Sketch.</desc>
    <defs></defs>
    <g id="KLBN" stroke="none" stroke-width="1" fill="none" fill-rule="evenodd">
        <g id="Grid-Logo" opacity="0.400000006" transform="translate(1.000000, 0.000000)"></g>
        <g transform="translate(136.000000, 6.000000)" id="Shape">
            <polygon fill="#00904A" points="69 87 0 156 69 156 69 87"></polygon>
            <polygon fill="#00904A" points="134.01586 116.273671 173.03172 155 329 0 155.712485 0 95 60.3145999 95 155 136.204555 155 97.3790159 116.368357 136.204555 77.6420281 173.03172 77.6420281 134.01586 116.463042"></polygon>
            <path d="M95,192.853659 L104.456265,192.853659 L104.456265,208.263415 L115.425532,192.853659 L126.016548,192.853659 L112.966903,209.214634 L127.340426,228.429268 L115.614657,228.429268 L104.456265,211.878049 L104.456265,228.429268 L95,228.429268 L95,192.853659 Z M129.893617,190 L138.877069,190 L138.877069,228.52439 L129.893617,228.52439 L129.893617,190 Z M160.34279,216.539024 C157.695035,216.539024 155.803783,216.82439 154.669031,217.395122 C153.534279,217.965854 152.966903,218.917073 152.966903,220.153659 C152.966903,221.104878 153.250591,221.770732 153.91253,222.341463 C154.574468,222.912195 155.330969,223.197561 156.371158,223.197561 C157.978723,223.197561 159.3026,222.626829 160.34279,221.580488 C161.382979,220.439024 161.855792,219.012195 161.855792,217.3 L161.855792,216.539024 L160.34279,216.539024 Z M170.271868,214.731707 L170.271868,228.52439 L162.51773,228.52439 L162.328605,224.434146 C161.288416,225.956098 159.964539,227.097561 158.451537,227.763415 C156.938534,228.429268 155.141844,228.809756 152.966903,228.809756 C150.319149,228.809756 148.144208,228.04878 146.631206,226.526829 C145.023641,225.004878 144.267139,223.007317 144.267139,220.439024 C144.267139,217.490244 145.401891,215.397561 147.671395,213.970732 C149.940898,212.543902 153.534279,211.878049 158.262411,211.878049 L161.761229,211.878049 L161.761229,211.497561 C161.761229,210.070732 161.193853,208.929268 160.153664,208.168293 C159.018913,207.407317 157.50591,207.026829 155.330969,207.026829 C154.29078,207.026829 153.156028,207.217073 151.832151,207.597561 C150.508274,207.978049 149.089835,208.453659 147.576832,209.214634 L147.387707,203.221951 C148.806147,202.65122 150.413712,202.17561 152.115839,201.890244 C153.817967,201.604878 155.70922,201.414634 157.695035,201.414634 C161.950355,201.414634 165.165485,202.460976 167.1513,204.64878 C169.326241,206.741463 170.271868,210.070732 170.271868,214.731707 Z M191.359338,207.978049 C189.562648,207.978049 188.144208,208.643902 187.104019,209.880488 C186.06383,211.117073 185.496454,212.829268 185.496454,215.017073 C185.496454,217.204878 185.969267,219.012195 187.009456,220.24878 C188.049645,221.485366 189.373522,222.15122 191.07565,222.15122 C192.683215,222.15122 194.007092,221.580488 195.047281,220.343902 C195.992908,219.107317 196.560284,217.490244 196.560284,215.397561 C196.560284,213.209756 196.08747,211.402439 195.141844,210.070732 C194.196217,208.739024 192.87234,207.978049 191.359338,207.978049 Z M176.607565,190 L185.591017,190 L185.591017,205.790244 C186.631206,204.363415 187.86052,203.221951 189.27896,202.556098 C190.6974,201.795122 192.304965,201.509756 194.196217,201.509756 C197.695035,201.509756 200.531915,202.746341 202.612293,205.219512 C204.692671,207.692683 205.732861,210.926829 205.732861,215.112195 C205.732861,219.297561 204.692671,222.626829 202.51773,225.195122 C200.34279,227.763415 197.50591,229 194.101655,229 C192.021277,229 190.224586,228.52439 188.522459,227.573171 C186.914894,226.621951 185.591017,225.195122 184.550827,223.292683 L184.550827,228.619512 L176.513002,228.619512 L176.513002,190 L176.607565,190 Z M211.595745,202.080488 L220.579196,202.080488 L220.579196,228.429268 L211.595745,228.429268 L211.595745,202.080488 Z M211.595745,190 L220.579196,190 L220.579196,197.32439 L211.595745,197.32439 L211.595745,190 Z M255,213.019512 L255,228.429268 L246.111111,228.429268 L246.111111,214.826829 C246.111111,212.734146 245.732861,211.212195 244.976359,210.165854 C244.219858,209.119512 243.179669,208.643902 241.666667,208.643902 C240.153664,208.643902 238.829787,209.309756 237.884161,210.546341 C236.938534,211.782927 236.465721,213.495122 236.465721,215.682927 L236.465721,228.334146 L227.48227,228.334146 L227.48227,201.985366 L235.614657,201.985366 L235.614657,206.741463 C236.654846,204.934146 237.978723,203.602439 239.586288,202.65122 C241.193853,201.7 243.085106,201.22439 245.070922,201.22439 C248.286052,201.22439 250.744681,202.17561 252.352246,204.173171 C254.148936,206.360976 255,209.214634 255,213.019512 Z" fill="#1D1D1B"></path>
        </g>
    </g>
</svg>