<?xml version="1.0" encoding="UTF-8"?>
<svg width="600px" height="250px" viewBox="0 0 600 250" version="1.1" xmlns="http://www.w3.org/2000/svg" xmlns:xlink="http://www.w3.org/1999/xlink">
    <!-- Generator: Sketch 50.1 (55044) - http://www.bohemiancoding.com/sketch -->
    <title>KROT</title>
    <desc>Created with Sketch.</desc>
    <defs></defs>
    <g id="KROT" stroke="none" stroke-width="1" fill="none" fill-rule="evenodd">
        <g id="Grid-Logo" opacity="0.400000006" transform="translate(1.000000, 0.000000)"></g>
        <g id="KROT3" transform="translate(136.000000, 17.000000)" fill-rule="nonzero">
            <rect id="Rectangle-path" fill="#00629B" x="105" y="1" width="27" height="98"></rect>
            <path d="M132,38 C132,38 159,27.7488372 168.120401,0 L186,0 C185.909699,-1.56980372e-15 165.050167,35.5255814 132,38" id="Shape" fill="#00629B"></path>
            <path d="M132,49 C132,49 170.679487,38.7588126 187.551282,1 L216,1 C215.910256,1 183.871795,46.3283859 132,49" id="Shape" fill="#00629B"></path>
            <path d="M132,60 C132,60 159,70.2341472 168.120401,97.9998334 L186,98 C186,98.088826 165.050167,62.4917924 132,60" id="Shape" fill="#00629B"></path>
            <path d="M132,49 C132,49 170.679487,59.2089552 187.551282,97 L216,97 C216,97 183.871795,51.6865672 132,49" id="Shape" fill="#00629B"></path>
            <polygon id="Shape" fill="#00629B" points="27 155.224189 20.2727273 162.356932 20.2727273 179 0 179 0 117 20.2727273 117 20.2727273 138.855457 39.0909091 117 66 117 43.0909091 140.958702 68 179 41 179"></polygon>
            <path d="M70.0902935,132.256075 L87.3363431,132.256075 L87.3363431,141.228037 L87.51693,141.228037 C92.1218962,133.960748 97.9909707,131 104.130926,131 C106.027088,131 108.013544,131.179439 110,131.538318 L110,150.648598 C106.839729,149.751402 104.221219,148.943925 101.060948,148.943925 C94.7404063,148.943925 87.8781038,151.456075 87.8781038,161.504673 L87.8781038,179 L70,179 L70,132.256075 L70.0902935,132.256075 Z" id="Shape" fill="#00629B"></path>
            <path d="M141.5,130 C162.057812,130 171,137.932264 171,154.955437 C171,172.067736 162.057812,180 141.5,180 C120.942187,180 112,172.067736 112,154.955437 C112,137.932264 120.942187,130 141.5,130 M141.5,166.27451 C148.875,166.27451 151.917188,162.352941 151.917188,154.955437 C151.917188,147.647059 148.875,143.72549 141.5,143.72549 C134.217188,143.72549 131.082813,147.736185 131.082813,154.955437 C131.082813,162.352941 134.217188,166.27451 141.5,166.27451" id="Shape" fill="#00629B"></path>
            <path d="M173,130.094692 L181.238806,130.094692 L181.238806,115 L198.970149,115 L198.970149,130.094692 L208.552239,130.094692 L208.552239,143.472023 L198.970149,143.472023 L198.970149,160.012912 C198.970149,164.351506 200.492537,164.622669 204.253731,164.622669 C205.686567,164.622669 207.298507,164.532281 209,164.441894 L209,177.005739 C205.865672,177.548063 201.656716,178 196.104478,178 C185.358209,178 181.238806,175.469154 181.238806,162.724534 L181.238806,143.381636 L173,143.381636 L173,130.094692 Z" id="Shape" fill="#00629B"></path>
            <path d="M243.5,130 C264.057812,130 273,137.932264 273,154.955437 C273,172.067736 264.057812,180 243.5,180 C222.942187,180 214,172.067736 214,154.955437 C214,137.932264 222.942187,130 243.5,130 M243.5,166.27451 C250.875,166.27451 253.917188,162.352941 253.917188,154.955437 C253.917188,147.647059 250.875,143.72549 243.5,143.72549 C236.217187,143.72549 233.082812,147.736185 233.082812,154.955437 C233.082812,162.352941 236.217187,166.27451 243.5,166.27451" id="Shape" fill="#00629B"></path>
            <path d="M279.088652,132.260788 L296.021277,132.260788 L296.021277,138.114447 L296.198582,138.114447 C298.060284,135.142589 303.64539,131 312.067376,131 C321.730496,131 329,136.313321 329,149.281426 L329,179 L311.446809,179 L311.446809,154.774859 C311.446809,148.921201 308.875887,146.309568 304.70922,146.309568 C300.099291,146.309568 296.553191,149.641651 296.553191,157.386492 L296.553191,178.909944 L279,178.909944 L279,132.260788 L279.088652,132.260788 Z" id="Shape" fill="#00629B"></path>
            <polygon id="Shape" fill="#251F1A" points="0 186 18.8207547 186 18.8207547 187.496855 1.52358491 187.496855 1.52358491 198.679245 18.1037736 198.679245 18.1037736 200.264151 1.52358491 200.264151 1.52358491 212.415094 19 212.415094 19 214 0 214"></polygon>
            <path d="M52.4166667,209.929448 C51.4852941,212.331288 49.0637255,215 44.5,215 C38.2598039,215 35,209.929448 35,204.147239 C35,197.653374 39.004902,193.383436 44.5,193.383436 C48.877451,193.383436 51.2990196,196.141104 52.3235294,198.365031 L52.4166667,198.365031 L52.4166667,186 L54,186 L54,214.377301 L52.4166667,214.377301 L52.4166667,209.929448 Z M52.6029412,204.41411 C52.6029412,197.297546 48.1323529,194.984663 44.5,194.984663 C40.4019608,194.984663 36.5833333,197.920245 36.5833333,204.147239 C36.5833333,210.018405 39.8431373,213.398773 44.3137255,213.398773 C50.9264706,213.48773 52.6029412,208.06135 52.6029412,204.41411 Z" id="Shape" fill="#251F1A"></path>
            <path d="M85.9086022,212.377119 L84.3548387,212.377119 L84.3548387,208.283898 L84.2634409,208.283898 C83.1666667,210.686441 80.8817204,213 76.9516129,213 C69,213 69,207.038136 69,204.54661 L69,192 L70.5537634,192 L70.5537634,204.457627 C70.5537634,208.550847 71.9247312,211.398305 77.0430108,211.398305 C82.1612903,211.398305 84.4462366,207.661017 84.4462366,203.923729 L84.4462366,192.088983 L86,192.088983 L86,212.377119 L85.9086022,212.377119 Z" id="Shape" fill="#251F1A"></path>
            <path d="M120.256039,199.477366 C120.072464,196.73251 117.043478,193.703704 112.821256,193.703704 C107.31401,193.703704 104.560386,198.530864 104.560386,203.736626 C104.560386,207.238683 106.57971,213.296296 112.821256,213.296296 C116.309179,213.296296 119.705314,211.213992 120.439614,206.765432 L122,206.765432 C121.082126,212.444444 117.227053,215 112.821256,215 C107.130435,215 103,210.45679 103,203.736626 C103,196.164609 107.497585,192 112.821256,192 C118.144928,192 121.63285,195.786008 121.816425,199.477366 L120.256039,199.477366 Z" id="Shape" fill="#251F1A"></path>
            <path d="M138.747664,199.382716 C139.308411,193.893004 141.64486,192 147.065421,192 C152.205607,192 155.196262,193.514403 155.196262,198.341564 L155.196262,210.45679 C155.196262,212.065844 155.196262,213.012346 156.411215,213.012346 C156.971963,213.012346 157.439252,212.917695 158,212.633745 L158,214.337449 C157.53271,214.526749 156.878505,214.716049 156.037383,214.716049 C153.88785,214.716049 153.88785,212.823045 153.88785,209.983539 L153.794393,209.983539 C151.831776,214.432099 147.626168,215 145.28972,215 C143.794393,215 138,215 138,208.374486 C138,203.925926 141.084112,202.411523 144.728972,202.127572 L150.990654,201.654321 C152.859813,201.465021 153.700935,201.27572 153.700935,198.530864 C153.700935,195.596708 152.299065,193.609053 147.065421,193.609053 C142.392523,193.609053 140.897196,195.407407 140.429907,199.288066 L138.747664,199.288066 L138.747664,199.382716 Z M153.607477,202.316872 C153.140187,202.790123 152.205607,203.358025 150.71028,203.452675 L144.728972,203.925926 C141.738318,204.209877 139.588785,205.156379 139.588785,208.469136 C139.588785,212.823045 143.233645,213.390947 145.383178,213.390947 C148.934579,213.390947 153.607477,211.403292 153.607477,206.292181 L153.607477,202.316872 Z" id="Shape" fill="#251F1A"></path>
            <path d="M188.256039,199.477366 C188.072464,196.73251 185.043478,193.703704 180.821256,193.703704 C175.31401,193.703704 172.560386,198.530864 172.560386,203.736626 C172.560386,207.238683 174.57971,213.296296 180.821256,213.296296 C184.309179,213.296296 187.705314,211.213992 188.439614,206.765432 L190,206.765432 C189.082126,212.444444 185.227053,215 180.821256,215 C175.130435,215 171,210.45679 171,203.736626 C171,196.164609 175.497585,192 180.821256,192 C186.144928,192 189.63285,195.786008 189.816425,199.477366 L188.256039,199.477366 Z" id="Shape" fill="#251F1A"></path>
            <path d="M206,186 L207,186 L207,190.138365 L206,190.138365 L206,186 Z M206,193.924528 L207,193.924528 L207,214 L206,214 L206,193.924528 Z" id="Shape" fill="#251F1A"></path>
            <path d="M233.000877,192 C239.35546,192 243,197.417355 243,203.5 C243,209.582645 239.35546,215 233.000877,215 C226.646294,215 223.001754,209.582645 223.001754,203.5 C222.908304,197.417355 226.552844,192 233.000877,192 M233.000877,213.384298 C238.607862,213.384298 241.411354,208.53719 241.411354,203.5 C241.411354,198.557851 238.607862,193.615702 233.000877,193.615702 C227.393892,193.615702 224.5904,198.46281 224.5904,203.5 C224.49695,208.442149 227.300442,213.384298 233.000877,213.384298" id="Shape" fill="#251F1A"></path>
            <path d="M259.091398,192.622881 L260.645161,192.622881 L260.645161,196.716102 L260.736559,196.716102 C261.833333,194.313559 264.11828,192 268.048387,192 C276,192 276,197.961864 276,200.45339 L276,213 L274.446237,213 L274.446237,200.542373 C274.446237,196.449153 273.166667,193.601695 267.956989,193.601695 C262.83871,193.601695 260.553763,197.338983 260.553763,201.076271 L260.553763,212.911017 L259,212.911017 L259,192.622881 L259.091398,192.622881 Z" id="Shape" fill="#251F1A"></path>
            <path d="M292.841121,199.382716 C293.401869,193.893004 295.738318,192 301.065421,192 C306.205607,192 309.196262,193.514403 309.196262,198.341564 L309.196262,210.45679 C309.196262,212.065844 309.196262,213.012346 310.411215,213.012346 C310.971963,213.012346 311.439252,212.917695 312,212.633745 L312,214.337449 C311.53271,214.526749 310.878505,214.716049 310.037383,214.716049 C307.88785,214.716049 307.88785,212.823045 307.88785,209.983539 L307.794393,209.983539 C305.831776,214.432099 301.626168,215 299.28972,215 C297.794393,215 292,215 292,208.374486 C292,203.925926 295.084112,202.411523 298.728972,202.127572 L304.990654,201.654321 C306.859813,201.465021 307.700935,201.27572 307.700935,198.530864 C307.700935,195.596708 306.392523,193.609053 301.065421,193.609053 C296.392523,193.609053 294.897196,195.407407 294.429907,199.288066 L292.841121,199.288066 L292.841121,199.382716 Z M307.700935,202.316872 C307.233645,202.790123 306.299065,203.358025 304.803738,203.452675 L298.82243,203.925926 C295.831776,204.209877 293.682243,205.156379 293.682243,208.469136 C293.682243,212.823045 297.327103,213.390947 299.476636,213.390947 C303.028037,213.390947 307.700935,211.403292 307.700935,206.292181 L307.700935,202.316872 Z" id="Shape" fill="#251F1A"></path>
            <rect id="Rectangle-path" fill="#251F1A" x="327" y="186" width="1" height="28"></rect>
        </g>
    </g>
</svg>