<?xml version="1.0" encoding="UTF-8"?>
<svg width="600px" height="250px" viewBox="0 0 600 250" version="1.1" xmlns="http://www.w3.org/2000/svg" xmlns:xlink="http://www.w3.org/1999/xlink">
    <!-- Generator: Sketch 50.1 (55044) - http://www.bohemiancoding.com/sketch -->
    <title>LAME</title>
    <desc>Created with Sketch.</desc>
    <defs></defs>
    <g id="LAME" stroke="none" stroke-width="1" fill="none" fill-rule="evenodd">
        <g id="Grid-Logo" opacity="0.400000006"></g>
        <g transform="translate(45.000000, 85.000000)" fill="#E20613">
            <g id="Group" transform="translate(0.000000, 21.000000)">
                <g id="Shape">
                    <polygon points="0.177053412 1.82608696 7.96740353 1.82608696 7.96740353 31.9130435 26.6465385 31.9130435 26.6465385 38.6956522 0.177053412 38.6956522"></polygon>
                    <path d="M44.8830399,0.869565217 C56.302985,0.869565217 63.5621749,8.43478261 63.5621749,20.3478261 C63.5621749,32.2608696 56.302985,39.7391304 44.8830399,39.7391304 L44.8830399,33.1304348 C51.6110696,33.1304348 55.5947713,28.5217391 55.5947713,20.3478261 C55.5947713,12.173913 51.6110696,7.47826087 44.8830399,7.47826087 L44.8830399,0.869565217 Z M44.8830399,0.869565217 L44.8830399,7.47826087 C38.1550103,7.47826087 34.1713085,12.0869565 34.1713085,20.3478261 C34.1713085,28.5217391 38.1550103,33.1304348 44.8830399,33.1304348 L44.8830399,39.7391304 C33.3745681,39.7391304 26.203905,32.3478261 26.203905,20.3478261 C26.203905,8.34782609 33.3745681,0.869565217 44.8830399,0.869565217 Z"></path>
                    <path d="M72.5918989,25.0434783 L72.5918989,29.4782609 C72.5918989,32.0869565 74.1853796,33.3043478 77.1952876,33.3043478 C80.7363558,33.3043478 81.5330962,31.7391304 81.5330962,27.5652174 L81.5330962,1.82608696 L89.5004997,1.82608696 L89.5004997,28 C89.5004997,31.3043478 89.411973,33.7391304 87.5529122,36 C85.6053246,38.4347826 81.9757297,39.7391304 77.2838143,39.7391304 C72.9460057,39.7391304 69.5819909,38.6086957 67.4573499,36.3478261 C65.0671289,33.9130435 64.9786022,31.4782609 64.9786022,27.9130435 L64.9786022,25.1304348 L72.5918989,25.1304348 L72.5918989,25.0434783 Z"></path>
                    <path d="M113.66829,1.82608696 L127.478457,38.6956522 L119.245473,38.6956522 L116.678198,31.1304348 L109.241955,31.1304348 L109.241955,24.9565217 L114.465031,24.9565217 L109.241955,9.2173913 L109.241955,1.82608696 L113.66829,1.82608696 Z M109.153428,31.1304348 L101.805712,31.1304348 L99.3269641,38.6956522 L91.0054537,38.6956522 L104.638566,1.82608696 L109.241955,1.82608696 L109.241955,9.2173913 L103.841826,24.9565217 L109.241955,24.9565217 L109.241955,31.1304348 L109.153428,31.1304348 Z"></path>
                    <path d="M135.357333,27.3913043 C135.888494,31.5652174 138.809875,33.2173913 144.032951,33.2173913 C148.636339,33.2173913 150.938034,31.7391304 150.938034,28.6086957 C150.938034,25.2173913 147.751072,24.6086957 140.668936,23.0434783 C137.570501,22.3478261 134.737646,21.826087 132.258899,20.3478261 C129.603097,18.6956522 128.18667,15.826087 128.18667,12 C128.18667,4.86956522 133.232692,0.782608696 142.97063,0.782608696 C151.911827,0.782608696 157.134903,5.13043478 157.400483,12.5217391 L149.875713,12.5217391 C149.610133,8.86956522 147.042859,6.95652174 142.17389,6.95652174 C138.101661,6.95652174 135.799967,8.60869565 135.799967,11.4782609 C135.799967,14.9565217 138.809875,14.9565217 145.095271,16.4347826 C148.724866,17.3913043 151.734774,18 154.124995,19.3913043 C157.22343,21.0434783 158.728384,23.9130435 158.728384,27.6521739 C158.728384,35.2173913 153.239728,39.6521739 143.413264,39.6521739 C133.675326,39.6521739 128.098143,35.0434783 127.744037,27.3043478 L135.357333,27.3043478 L135.357333,27.3913043 Z"></path>
                </g>
                <g transform="translate(175.282878, 0.000000)">
                    <path d="M23.0169435,1.82608696 L36.738583,38.6956522 L28.5055993,38.6956522 L25.9383248,31.1304348 L18.5020815,31.1304348 L18.5020815,24.9565217 L23.9022106,24.9565217 L18.5020815,9.2173913 L18.5020815,1.82608696 L23.0169435,1.82608696 Z M18.4135548,31.1304348 L11.0658382,31.1304348 L8.58709047,38.6956522 L0.354106824,38.6956522 L13.9872195,1.82608696 L18.5020815,1.82608696 L18.5020815,9.2173913 L13.2790059,24.9565217 L18.5020815,24.9565217 L18.5020815,31.1304348 L18.4135548,31.1304348 Z" id="Shape"></path>
                    <polygon id="Shape" points="38.5976438 1.82608696 50.1946423 1.82608696 57.8964657 29.9130435 65.332709 1.82608696 77.0182342 1.82608696 77.0182342 38.6956522 69.6705176 38.6956522 69.6705176 8.95652174 61.8801674 38.6956522 53.8242372 38.6956522 46.0338871 8.95652174 46.0338871 38.6956522 38.5976438 38.6956522"></polygon>
                    <polygon id="Shape" points="81.6216229 1.82608696 109.330482 1.82608696 109.330482 8.26086957 89.3234463 8.26086957 89.3234463 16.0869565 107.648474 16.0869565 107.648474 22.4347826 89.3234463 22.4347826 89.3234463 31.9130435 110.304276 31.9130435 110.304276 38.6956522 81.6216229 38.6956522"></polygon>
                    <path d="M129.603097,1.82608696 L132.790059,1.82608696 C141.111569,1.82608696 145.006744,5.2173913 145.006744,12.3478261 C145.006744,16.8695652 142.97063,19.9130435 139.341035,21.1304348 C142.97063,22.3478261 143.944424,24.6956522 144.121477,29.1304348 L144.210004,33.4782609 C144.298531,35.6521739 144.298531,36.8695652 145.714958,37.6521739 L145.714958,38.7826087 L137.127867,38.7826087 C136.596707,37.7391304 136.2426,36.173913 136.154074,34.173913 L136.065547,30.3478261 C135.97702,26 134.737646,24.5217391 130.399838,24.5217391 L129.514571,24.5217391 L129.514571,18.0869565 L131.196578,18.0869565 C135.18028,18.0869565 137.039341,16.6086957 137.039341,13.2173913 C137.039341,10 135.18028,8.34782609 131.550685,8.34782609 L129.426044,8.34782609 L129.426044,1.82608696 L129.603097,1.82608696 Z M114.110924,1.82608696 L129.514571,1.82608696 L129.514571,8.26086957 L122.078327,8.26086957 L122.078327,18 L129.514571,18 L129.514571,24.4347826 L122.078327,24.4347826 L122.078327,38.6956522 L114.110924,38.6956522 L114.110924,1.82608696 Z" id="Shape"></path>
                    <rect id="Rectangle-path" x="149.256026" y="1.82608696" width="7.87887683" height="36.8695652"></rect>
                    <path d="M179.443633,39.7391304 C168.200741,39.7391304 161.561238,32.7826087 161.561238,20.3478261 C161.561238,7.73913043 168.200741,0.869565217 180.151847,0.869565217 C189.978311,0.869565217 195.821074,5.73913043 196.44076,14 L188.65041,14 C187.942197,9.82608696 185.109342,7.56521739 180.151847,7.56521739 C173.246764,7.56521739 169.617169,12 169.617169,20.2608696 C169.617169,28.3478261 173.33529,32.8695652 179.974793,32.8695652 C184.755235,32.8695652 187.85367,30.4347826 188.738937,26 L196.44076,26 C195.821074,34.3478261 189.358624,39.7391304 179.443633,39.7391304 Z" id="Shape"></path>
                    <path d="M218.306857,1.82608696 L232.028496,38.6956522 L223.795513,38.6956522 L221.228238,31.1304348 L213.791995,31.1304348 L213.791995,24.9565217 L219.192124,24.9565217 L213.791995,9.2173913 L213.791995,1.82608696 L218.306857,1.82608696 Z M213.703468,31.1304348 L206.355752,31.1304348 L203.877004,38.6956522 L195.555493,38.6956522 L209.277133,1.82608696 L213.791995,1.82608696 L213.791995,9.2173913 L208.568919,24.9565217 L213.791995,24.9565217 L213.791995,31.1304348 L213.703468,31.1304348 Z" id="Shape"></path>
                    <polygon id="Shape" points="233.79903 1.82608696 242.120541 1.82608696 257.612714 27.2173913 257.612714 1.82608696 265.403064 1.82608696 265.403064 38.6956522 257.258607 38.6956522 241.677907 13.3913043 241.677907 38.6956522 233.79903 38.6956522"></polygon>
                    <path d="M289.924962,1.82608696 L303.646601,38.6956522 L295.413618,38.6956522 L292.846343,31.1304348 L285.4101,31.1304348 L285.4101,24.9565217 L290.810229,24.9565217 L285.4101,9.2173913 L285.4101,1.82608696 L289.924962,1.82608696 Z M285.321573,31.1304348 L277.973857,31.1304348 L275.495109,38.6956522 L267.262125,38.6956522 L280.895238,1.82608696 L285.4101,1.82608696 L285.4101,9.2173913 L280.187024,24.9565217 L285.4101,24.9565217 L285.4101,31.1304348 L285.321573,31.1304348 Z" id="Shape"></path>
                    <path d="M310.374631,27.3913043 C310.905791,31.5652174 313.827173,33.2173913 319.050248,33.2173913 C323.742164,33.2173913 325.955331,31.7391304 325.955331,28.6086957 C325.955331,25.2173913 322.76837,24.6086957 315.77476,23.0434783 C312.676325,22.3478261 309.843471,21.826087 307.364723,20.3478261 C304.620395,18.6956522 303.115441,15.826087 303.115441,12 C303.115441,4.86956522 308.24999,0.782608696 317.899401,0.782608696 C326.929125,0.782608696 332.063674,5.13043478 332.329254,12.5217391 L324.804484,12.5217391 C324.538904,8.86956522 321.971629,6.95652174 317.279714,6.95652174 C313.207486,6.95652174 310.905791,8.60869565 310.905791,11.4782609 C310.905791,14.9565217 313.738646,14.9565217 320.112569,16.4347826 C323.742164,17.3913043 326.752072,18 329.142293,19.3913043 C332.329254,21.0434783 333.834208,23.9130435 333.834208,27.6521739 C333.834208,35.2173913 328.345552,39.6521739 318.519088,39.6521739 C308.78115,39.6521739 303.203968,35.0434783 302.761334,27.3043478 L310.374631,27.3043478 L310.374631,27.3913043 Z" id="Shape"></path>
                </g>
            </g>
            <rect id="Rectangle-path" x="0" y="69" width="509" height="11"></rect>
            <rect id="Rectangle-path" x="0" y="0" width="509" height="11"></rect>
        </g>
    </g>
</svg>