<?xml version="1.0" encoding="UTF-8"?>
<svg width="600px" height="250px" viewBox="0 0 600 250" version="1.1" xmlns="http://www.w3.org/2000/svg" xmlns:xlink="http://www.w3.org/1999/xlink">
    <!-- Generator: Sketch 50.1 (55044) - http://www.bohemiancoding.com/sketch -->
    <title>LREN</title>
    <desc>Created with Sketch.</desc>
    <defs></defs>
    <g id="LREN" stroke="none" stroke-width="1" fill="none" fill-rule="evenodd">
        <g id="Grid-Logo" opacity="0.400000006" transform="translate(1.000000, 0.000000)"></g>
        <g id="LREN3" transform="translate(75.000000, 72.000000)" fill="#D31217">
            <path d="M39.2795031,21.8781056 C50.8416149,18.9767081 52.4254658,26.0341615 52.0295031,29.7981366 C51.1583851,37.6397516 50.0496894,39.992236 48.3074534,47.5201863 C55.7515528,36.8555901 64.1459627,21.0939441 76.4208075,21.3291925 C79.2717391,21.2507764 82.1226708,22.5838509 82.1226708,22.5838509 C92.576087,29.3276398 82.9145963,43.2857143 74.9953416,41.9526398 C70.1645963,41.1684783 69.3726708,38.5023292 68.818323,33.8757764 C68.1055901,32.1506211 65.0962733,32.3858696 63.4332298,34.189441 C54.7220497,43.677795 48.6242236,57.0869565 48.6242236,57.0869565 C48.6242236,57.0869565 44.3478261,68.1436335 39.5170807,77.2399068 C39.5170807,77.2399068 38.1708075,79.0434783 34.8447205,79.435559 L23.757764,79.3571429 C20.1149068,79.0434783 20.9068323,76.5341615 20.9068323,76.5341615 C20.9068323,76.5341615 34.052795,37.4829193 33.9736025,35.3656832 C34.2111801,34.1110248 33.8944099,30.5822981 30.4099379,32.3074534 C25.8167702,34.5815217 25.6583851,37.7181677 20.7484472,41.4037267 C20.7484472,41.4037267 18.2142857,42.5799689 18.2142857,39.8354037 C19.9565217,35.2088509 29.697205,24.1521739 39.2795031,21.8781056 Z M0,50.5 C0,22.6622671 22.8074534,0 51,0 C79.113354,0 102,22.5838509 102,50.5 C102,78.3377329 79.1925466,101 51,101 C22.8074534,101 0,78.4161491 0,50.5 Z" id="Shape"></path>
            <path d="M404.620793,80 C405.96011,79.6910995 407.772127,79.6138743 409.111444,79.6138743 C410.056844,79.6138743 413.838444,80 413.838444,80 L413.838444,51.9672775 L415.886811,51.9672775 L422.819746,60.0759162 L432.667664,72.354712 C434.479681,74.7486911 436.134131,77.3743455 438.103715,80 C439.600598,80 441.727749,79.5366492 443.382199,79.5366492 C445.115433,79.5366492 448.1092,79.9227749 450,80 L438.576415,66.0222513 L426.68013,51.1950262 C434.164547,49.7277487 443.539766,44.6308901 443.539766,34.6688482 C443.539766,25.9424084 437.473448,21 423.922713,21 L404.77836,21 L404.77836,80 L404.620793,80 Z M413.759661,25.9424084 C417.383695,25.5562827 422.347046,25.6335079 425.340813,26.0968586 C431.40713,27.0235602 434.243331,30.4986911 434.243331,35.9044503 C434.243331,42.0052356 429.75268,45.8664921 423.922713,47.0248691 C419.825979,47.7971204 414.941411,47.4109948 413.838444,47.3337696 L413.838444,25.9424084 L413.759661,25.9424084 Z M134,80 C135.339317,79.6910995 137.151334,79.6138743 138.411867,79.6138743 C139.357268,79.6138743 143.138868,80 143.138868,80 L143.138868,51.9672775 L145.108452,51.9672775 L152.041386,60.0759162 L161.889304,72.354712 C163.780105,74.7486911 165.355772,77.3743455 167.325355,80 C168.822239,80 170.870606,79.5366492 172.603839,79.5366492 C174.337073,79.5366492 177.33084,79.9227749 179.22164,80 L167.798055,66.0222513 L155.822987,51.1950262 C163.307405,49.7277487 172.682623,44.6308901 172.682623,34.6688482 C172.682623,25.9424084 166.616305,21 153.144353,21 L134,21 L134,80 Z M143.138868,25.9424084 C146.762902,25.5562827 151.726253,25.6335079 154.72002,26.0968586 C160.786338,27.0235602 163.622538,30.4986911 163.622538,35.9044503 C163.622538,42.0052356 159.210671,45.8664921 153.30192,47.0248691 C149.205186,47.7971204 144.320618,47.4109948 143.217651,47.3337696 L143.217651,25.9424084 L143.138868,25.9424084 Z M370.743954,26.8691099 L382.561456,26.7918848 C385.397656,26.7146597 393.669908,27.9502618 393.669908,27.9502618 C393.591124,27.1007853 393.197208,25.3246073 393.197208,24.4751309 C393.197208,23.6256545 393.512341,22.158377 393.591124,21.2316754 L361.762653,21.2316754 L361.762653,79.8455497 L394.300175,79.8455497 C394.221391,78.9960733 393.985041,77.6060209 393.985041,76.7565445 C393.985041,75.9070681 394.221391,73.9764398 394.300175,72.9725131 C391.542757,73.4358639 383.743206,73.9764398 380.985789,74.0536649 C375.549738,74.2081152 376.337572,74.3625654 370.822737,74.2081152 L370.822737,51.2722513 L379.094989,51.2722513 C381.773623,51.2722513 389.100474,51.658377 391.779107,51.7356021 C391.700324,50.8089005 391.542757,49.9594241 391.463974,48.9554974 C391.385191,48.4149215 391.700324,46.3298429 391.779107,45.6348168 C389.100474,45.8664921 383.82199,46.0981675 381.064572,46.0981675 L370.822737,46.0981675 L370.822737,26.8691099 L370.743954,26.8691099 Z M347.739217,21 C346.8726,21.0772251 345.21815,21.3089005 344.351533,21.3089005 C343.484916,21.3089005 341.988033,21.0772251 341.121416,21 L341.121416,63.9371728 L300.94191,21.0772251 L296.451259,21.0772251 L296.451259,80 C297.239092,79.9227749 297.869359,79.7683246 298.735976,79.6138743 C300.23286,79.3049738 302.12366,79.9227749 302.990277,80 L302.911493,35.6727749 L340.097233,75.5209424 C341.988033,77.5287958 342.85465,78.5327225 343.878833,79.7683246 L347.660434,79.7683246 L347.660434,21 L347.739217,21 Z M195.293443,26.8691099 L207.110945,26.7918848 C209.947145,26.7146597 218.219397,27.9502618 218.219397,27.9502618 C218.140613,27.1007853 217.746697,25.3246073 217.746697,24.4751309 C217.746697,23.6256545 218.06183,22.158377 218.140613,21.2316754 L186.312142,21.2316754 L186.312142,79.8455497 L218.849663,79.8455497 C218.77088,78.9960733 218.53453,77.6060209 218.53453,76.7565445 C218.53453,75.9070681 218.77088,73.9764398 218.849663,72.9725131 C216.013463,73.4358639 208.292695,73.9764398 205.456495,74.0536649 C200.020444,74.2081152 200.808277,74.3625654 195.293443,74.2081152 L195.293443,51.2722513 L203.565694,51.2722513 C206.244328,51.2722513 213.571179,51.658377 216.249813,51.7356021 C216.17103,50.8089005 216.013463,49.9594241 215.93468,48.9554974 C215.855896,48.4149215 216.17103,46.3298429 216.249813,45.6348168 C213.571179,45.8664921 208.292695,46.0981675 205.535278,46.0981675 L195.293443,46.0981675 L195.293443,26.8691099 Z M281.246073,21 C280.379456,21.0772251 278.725006,21.3089005 277.858389,21.3089005 C276.991773,21.3089005 275.416106,21.0772251 274.628272,21 L274.628272,63.9371728 L234.369983,21.0772251 L229.879332,21.0772251 L229.879332,80 C230.667165,79.9227749 231.297432,79.7683246 232.164049,79.6138743 C233.660932,79.3049738 235.551733,79.9227749 236.41835,80 L236.339566,35.6727749 L273.525305,75.5209424 C275.416106,77.5287958 276.282723,78.5327225 277.306906,79.7683246 L281.088507,79.7683246 L281.088507,21 L281.246073,21 Z" id="Shape"></path>
        </g>
    </g>
</svg>