<?xml version="1.0" encoding="UTF-8"?>
<svg width="600px" height="250px" viewBox="0 0 600 250" version="1.1" xmlns="http://www.w3.org/2000/svg" xmlns:xlink="http://www.w3.org/1999/xlink">
    <!-- Generator: Sketch 50.1 (55044) - http://www.bohemiancoding.com/sketch -->
    <title>MDIA</title>
    <desc>Created with Sketch.</desc>
    <defs>
        <polygon id="path-1" points="0.00672851752 0.290037846 248.889077 0.290037846 248.889077 55.339328 0.00672851752 55.339328"></polygon>
        <polygon id="path-3" points="0 0.847770506 52.4556848 0.847770506 52.4556848 76.2317286 0 76.2317286"></polygon>
        <polygon id="path-5" points="0.18765625 0.4897 3.94234375 0.4897 3.94234375 1 0.18765625 1"></polygon>
    </defs>
    <g id="MDIA" stroke="none" stroke-width="1" fill="none" fill-rule="evenodd">
        <g id="Grid-Logo" opacity="0.400000006"></g>
        <g transform="translate(87.000000, 49.000000)">
            <g id="Group-5" transform="translate(175.000000, 80.000000)">
                <mask id="mask-2" fill="white">
                    <use xlink:href="#path-1"></use>
                </mask>
                <g id="Clip-4"></g>
                <path d="M106.699616,39.1010667 C106.608961,39.0279556 106.53262,38.9144 106.438785,38.9019556 C106.354492,38.8895111 106.190677,38.9750667 106.174772,39.0419556 C106.135012,39.2177333 106.184315,39.3981778 106.437194,39.3172889 C106.535801,39.2846222 106.608961,39.1772889 106.699616,39.1010667 Z M175.492272,31.4275111 C175.452511,31.1646222 175.368218,30.8208444 174.989695,30.8052889 C173.61715,30.7492889 172.064886,30.4304 171.096311,31.6281778 C170.019587,32.9628444 169.377051,34.5884 168.780638,36.1937333 C168.63909,36.5732889 168.499131,37.1550667 168.953996,37.3759556 C169.330929,37.5610667 169.793745,37.2857333 170.135689,36.9777333 C171.82473,35.4517333 173.738023,34.1466222 174.991285,32.1928444 C175.145557,31.9532889 175.51931,31.8521778 175.492272,31.4275111 Z M96.8118842,28.6010667 C92.5320248,28.1235111 92.5670144,28.1732889 90.6791686,31.6966222 C90.2608843,32.4790667 90.2338469,33.3812889 89.6867374,34.0532889 C89.3734218,34.4375111 89.2207401,34.6319556 89.6263009,35.0721778 C90.09866,35.5855111 90.3388156,35.2666222 90.7046155,35.0006222 C93.0823152,33.2708444 95.2818862,31.3839556 96.8118842,28.6010667 Z M39.8472897,22.6946222 C36.8684058,21.8779556 34.3746044,21.0286222 31.6772274,20.6661778 C28.1082923,20.1886222 28.272107,20.0517333 26.4955916,23.1846222 C25.5763205,24.8055111 26.401756,24.5426222 27.4721185,24.6001778 C30.6609397,24.7728444 33.7368402,23.8457333 36.8970336,23.7104 C37.7654109,23.6746222 38.6115221,23.1364 39.8472897,22.6946222 Z M51.1680029,31.2455111 C49.7016222,28.7192889 47.9648677,26.9661778 45.879808,25.6050667 C44.3450387,24.6048444 42.8516206,25.8555111 41.34866,26.0966222 C36.2020137,26.9195111 31.0649101,27.8061778 25.9262161,28.6695111 C34.2903114,28.7799556 42.5510285,29.9964 51.1680029,31.2455111 Z M30.6736632,4.01084444 C29.4140391,4.13528889 28.1560053,4.29395556 26.8932003,4.38106667 C22.5656279,4.67817778 18.6420258,6.20106667 14.9840263,8.34617778 C12.5522519,9.77573333 11.7824816,12.6690667 13.0373344,15.2684 C13.5780822,16.3899556 14.1824473,17.5752889 15.3371028,18.3079556 C16.5299287,19.0624 17.4921416,18.0326222 18.5720467,17.9237333 C18.8249258,17.8972889 19.0873475,17.9221778 19.330684,17.8630667 C21.9167306,17.2439556 24.5393571,16.8519556 25.7480874,13.8901778 C26.5051342,12.0312889 29.2629478,11.2146222 31.0776336,11.9472889 C31.7901483,12.2335111 32.2529647,12.7126222 31.748797,13.5355111 C31.4291196,14.0581778 31.0935379,14.5730667 30.7993075,15.1097333 C30.3333102,15.9575111 30.5989128,16.3324 31.5961153,16.3868444 C36.3880946,16.6450667 41.0242113,17.6452889 45.5346837,19.2397333 C46.5207531,19.5881778 47.3541408,19.2957333 48.0857407,18.5164 C51.8073576,14.5512889 50.5556856,10.5892889 46.4666784,8.28862222 C41.6079008,5.55862222 36.3292485,4.09173333 30.6736632,4.01084444 Z M35.7121599,34.2150667 C30.4255554,34.1155111 23.7202833,34.2524 17.1327034,35.7799556 C14.8202116,36.3166222 12.5188528,36.8999556 10.5610278,38.2921778 C7.75868214,40.2864 7.67120824,41.7781778 10.1793235,44.0648444 C13.2568144,46.8757333 17.2329008,47.8619556 21.127875,48.3146222 C28.9878026,49.2277333 36.7602563,48.5479556 43.87427,44.7057333 C47.6276956,42.6772889 51.4526907,40.6877333 53.0335826,36.2559556 C53.6458999,34.5417333 53.0144974,34.3068444 51.6101437,34.1948444 C46.7879461,33.8121778 41.9689294,33.8230667 35.7121599,34.2150667 Z M248.889236,31.3590667 C242.086948,31.2921778 235.265574,31.5270667 228.488732,31.0961778 C215.85273,30.2919556 203.205594,30.7181778 190.574363,30.2966222 C186.447185,30.1597333 183.520786,31.0775111 181.5232,34.8528444 C180.234948,37.2841778 178.003568,39.0839556 175.627459,40.6535111 C171.600479,43.3135111 167.536918,42.9121778 163.562423,40.7981778 C162.19942,40.0732889 161.025679,38.8226222 161.009775,36.9606222 C160.998642,35.4952889 160.279766,35.7224 159.315962,36.4021778 C156.60109,38.3124 153.867133,40.2257333 150.726025,41.4281778 C147.549927,42.6430667 144.345202,43.4488444 141.315424,41.0112889 C140.582234,40.4201778 136.547301,39.8275111 135.659839,40.2117333 C132.80819,41.4452889 129.832486,42.3179556 126.817023,43.0537333 C125.046869,43.4830667 123.25922,43.2901778 121.705366,42.3568444 C120.669993,41.7346222 120.243757,40.7592889 120.934005,39.5132889 C123.034969,35.7192889 126.118822,32.6221778 128.549006,29.0661778 C128.989556,28.4252889 130.257132,27.7284 129.455553,26.9988444 C128.712821,26.3221778 127.993944,27.5308444 127.311648,27.9866222 C122.185677,31.4259556 118.729663,36.4970667 114.378234,40.6924 C112.466532,42.5357333 110.368748,43.5717333 107.660238,42.4672889 C106.760052,42.1017333 105.937798,41.6677333 106.058671,40.5135111 C106.214533,38.9812889 105.314347,39.3421778 104.566843,39.7870667 C102.812594,40.8339556 100.947014,41.6770667 99.0146361,42.2744 C96.7180486,42.9852889 94.4930306,42.4175111 92.6656213,40.8992889 C91.6588763,40.0655111 90.9415903,40.0452889 89.8696374,40.7841778 C88.5591193,41.6879556 87.1897552,42.4968444 85.4466389,42.6337333 C83.2613818,42.8064 81.4244299,42.3708444 80.1536727,40.5757333 C79.1548798,39.1664 78.1242782,39.2099556 76.622908,39.8710667 C73.7489927,41.1341778 71.0054931,42.7737333 67.5892397,42.5528444 C64.2684123,42.3366222 63.0294638,40.4730667 64.3924662,37.4070667 C66.0465182,33.6892889 68.8281882,30.7757333 71.4046922,27.7097333 C71.9518017,27.0548444 72.6786303,26.5181778 72.8933389,25.5350667 C71.5398791,25.2021778 70.6190175,25.9395111 69.8285715,26.7701778 C67.2759241,29.4550667 64.7582662,32.1695111 62.2676457,34.9104 C61.6092058,35.6352889 61.1209424,36.5390667 61.0732293,37.5252889 C60.9046433,40.9708444 59.0692818,43.5312889 56.4657404,45.5690667 C52.017295,49.0519556 46.9931122,51.3837333 41.517246,53.0699556 C34.1137732,55.3488444 26.5814751,55.7128444 19.0348631,55.0315111 C13.9263873,54.5710667 8.83540634,53.2970667 4.64779215,49.9744 C-1.65509999,44.9748444 -1.59943478,37.4817333 5.19013033,32.8461778 C7.76186301,31.0915111 10.6962148,30.2157333 13.7880195,29.8190667 C14.1506386,29.7724 14.5736942,29.8455111 14.8202116,29.2684 C13.7100882,28.9355111 12.6938006,28.3770667 11.505746,28.3148444 C10.034594,28.2370667 8.9626411,27.4219556 8.47596813,26.1915111 C7.94794385,24.8506222 8.21513686,23.4272889 9.49384624,22.5141778 C11.1256321,21.3459556 10.7868695,20.7984 9.1375889,19.9335111 C5.17104512,17.8490667 4.3646948,12.8106222 7.14318397,8.9124 C9.25687149,5.94751111 12.3089154,4.27995556 15.612248,3.01217778 C21.0897046,0.910622222 26.8550299,0.163955556 32.6823821,0.307066667 C39.0679768,0.462622222 45.3835924,1.30573333 51.0614438,4.49928889 C54.7782893,6.59151111 57.5297411,9.39462222 57.1957499,14.0177333 C57.0144403,16.5564 55.5385171,18.4168444 53.7079269,20.0579556 C51.9266402,21.6539556 52.0268376,21.9821778 53.9528538,23.4708444 C55.5576023,24.7137333 57.0923716,26.0857333 58.1086593,27.8917333 C58.8975148,29.2901778 59.8406425,29.4970667 61.0191545,28.2666222 C62.7320526,26.4824 64.4624454,24.7324 65.6966226,22.5499556 C66.9578372,20.3239556 68.9331569,19.1884 71.6225817,19.3641778 C72.3430486,19.4124 73.0396589,19.6784 73.1016859,20.2866222 C73.3195754,22.3959556 74.5776091,21.5497333 75.686142,21.2930667 C77.8523139,20.7906222 79.9978101,20.4406222 82.1401254,21.5108444 C83.3679409,22.1237333 83.3345418,22.8844 82.8351453,23.9312889 C81.8665707,25.9659556 79.8085484,26.7950667 78.1258686,27.9990667 C75.6193438,29.7972889 73.5740449,31.9081778 72.2460321,34.6708444 C72.0710843,35.0395111 71.5080704,35.3459556 72.0551799,35.7488444 C72.370086,35.9806222 72.7279337,36.1797333 73.2670911,36.0444 C75.1056334,35.5855111 76.7676375,34.7237333 78.4757642,33.9786222 C78.8177077,33.8308444 79.2566676,33.4606222 79.4745571,33.6644 C81.2208543,35.3039556 81.7075272,33.3252889 82.2753124,32.5879556 C86.1066692,27.6039556 90.7841373,23.5968444 96.3283921,20.5541778 C100.035695,18.5195111 103.738227,18.9099556 107.272172,20.9508444 C108.463408,21.6368444 109.435163,22.7848444 109.048688,24.3186222 C108.721058,25.6159556 107.868585,26.5337333 106.424471,26.8728444 C104.603423,27.3006222 103.886137,28.8981778 102.938238,30.2390667 C101.778811,31.8770667 100.585985,33.4932889 99.4313299,35.1328444 C99.17527,35.4984 99.0162265,35.9837333 99.3772552,36.3321778 C99.7382838,36.6821778 100.027743,36.2170667 100.352192,36.0848444 C103.281772,34.8746222 106.119107,33.1526222 109.175922,32.6004 C114.486383,31.6406222 115.979801,27.0299556 119.036617,23.9157333 C119.986106,22.9497333 120.716116,21.7659556 121.713318,20.8559556 C123.570946,19.1572889 126.239695,20.0221778 126.673883,22.4752889 C126.906087,23.7881778 127.710847,23.1597333 128.19752,22.9979556 C129.792726,22.4706222 131.338628,21.7986222 132.909977,21.1997333 C133.261463,21.0659556 133.636806,20.9586222 134.007377,20.9228444 C135.422864,20.7890667 137.033974,20.6661778 137.856229,21.9168444 C138.584648,23.0259556 138.110698,24.3388444 137.450668,25.5941778 C135.806159,28.7286222 133.107191,31.0728444 131.157318,33.9661778 C130.793109,34.5059556 129.958131,34.9772889 130.570448,35.6337333 C131.022132,36.1159556 131.678981,35.5948444 132.276984,35.3661778 C134.287294,34.5946222 136.022458,33.1277333 138.365168,33.1541778 C139.079273,33.1635111 139.394179,32.4261778 139.680457,31.7479556 C141.678043,27.0346222 144.879588,23.2981778 149.409145,20.7237333 C153.027384,18.6657333 156.823751,18.9924 160.55332,20.2881778 C162.738577,21.0488444 163.656258,23.9997333 162.681322,26.3004 C161.221303,29.7444 157.809821,32.1524 154.562153,32.0264 C154.056395,32.0061778 153.584036,31.9766222 153.098954,31.7215111 C151.126815,30.6808444 150.982085,29.7195111 152.71884,28.2915111 C153.790793,27.4079556 154.765729,26.4575111 155.452797,25.2566222 C155.813825,24.6266222 155.972869,23.8239556 155.518005,23.3230667 C155.02497,22.7801778 154.500126,23.5159556 154.051624,23.7695111 C150.963,25.5086222 149.410736,28.4299556 148.104989,31.4741778 C147.656487,32.5226222 147.126872,33.5928444 147.130053,34.8092889 C147.131643,35.3055111 146.317341,35.8095111 146.934429,36.2948444 C147.506986,36.7490667 148.270394,36.6230667 148.944739,36.3741778 C151.452854,35.4424 154.010273,34.6164 156.445228,33.5290667 C160.325888,31.7977333 164.002973,29.7832889 166.387034,26.0592889 C167.234736,24.7370667 168.390982,23.5532889 169.59335,22.5141778 C171.430302,20.9244 173.631464,19.9304 176.14276,20.2212889 C178.436166,20.4872889 180.817047,20.5168444 182.925963,21.6337333 C184.260338,22.3415111 185.154162,23.4879556 185.418174,24.9206222 C185.597893,25.9006222 186.079795,26.1775111 186.94181,26.1541778 C192.783477,25.9846222 198.645818,26.4497333 204.465218,25.6175111 C204.65289,25.5895111 204.843742,25.5584 205.033004,25.5552889 C216.404611,25.3032889 227.71101,23.9452889 239.088979,23.7166222 C243.273412,23.6326222 246.045539,25.2192889 248.06062,28.5419556 C248.2801,28.9012889 248.435963,29.1626222 248.889236,29.1206222 L248.889236,31.3590667 Z" id="Fill-3" fill="#BC8C24" mask="url(#mask-2)"></path>
            </g>
            <g id="Group-8" transform="translate(0.000000, 78.000000)">
                <mask id="mask-4" fill="white">
                    <use xlink:href="#path-3"></use>
                </mask>
                <g id="Clip-7"></g>
                <path d="M-0.000321212121,41.5487286 C1.88519394,41.3774429 1.30058788,39.5923 1.71334545,38.6557286 C5.17761818,30.8017286 8.43310303,22.8581571 11.6709212,14.9114429 C12.3213758,13.3133 12.6939818,11.6067286 13.4279515,10.0243 C14.3032545,8.13544286 15.9687394,7.2853 17.8687091,6.89872857 C19.7526182,6.51687143 20.7756788,7.73315714 20.2617394,9.81215714 C19.5309818,12.7727286 19.2386788,15.8071571 18.6251636,18.7661571 C17.8847697,22.3411571 18.2268606,25.8784429 18.0421636,29.4283 C17.9602545,30.9887286 18.4870424,32.4580143 19.031497,33.7654429 C20.4078909,37.0654429 22.7816485,36.8281571 25.8299515,34.9644429 C29.2412242,32.8775857 31.2488,29.5980143 33.3880727,26.4677286 C37.2538606,20.8074429 40.1078303,14.6238714 42.7835273,8.35701429 C43.676497,6.26701429 44.7541636,4.25558571 46.487103,2.63072857 C47.4523455,1.72872857 48.6279818,1.37044286 49.7891636,0.947728571 C50.6901636,0.622442857 51.4434061,1.14258571 51.9798303,1.76644286 C52.5034061,2.37144286 52.6078,2.95601429 52.2287697,3.9193 C49.8855273,9.85615714 47.0331636,15.5777286 44.577497,21.4643 C42.3579212,26.7835857 40.2379212,32.1468714 38.1082848,37.5023 C36.3416182,41.9415857 34.562103,46.3761571 32.9078606,50.8563 C31.2070424,55.4605857 29.6812848,60.1245857 28.0222242,64.7461571 C26.8192848,68.0964429 25.5280121,71.4184429 24.2624364,74.7483 C23.9942242,75.4570143 23.5814667,76.0604429 22.7479212,76.2317286 C21.4855576,76.2207286 20.2248,76.2113 18.9640424,76.1987286 C17.5651636,75.3407286 17.0110727,74.0647286 17.5571333,72.5828714 C19.8345273,66.3977286 22.1681333,60.2330143 24.5386788,54.0824429 C26.1543758,49.8898714 27.8760727,45.7350143 29.5126485,41.5503 C29.6796788,41.1260143 30.0008909,40.5493 29.5608303,40.1485857 C29.1448606,39.7714429 28.6116485,39.9867286 28.1394667,40.2193 C25.4027394,41.5644429 22.4909515,42.4475857 19.457103,42.5811571 C16.2401636,42.7241571 13.3588909,41.9258714 11.6195273,38.8050143 C11.1473455,37.9580143 11.1120121,36.7024429 9.8448303,36.3001571 C9.22970909,37.7065857 8.57604242,39.0800143 8.02034545,40.4895857 C6.31631515,44.8047286 4.49504242,45.6580143 -0.000321212121,44.1887286 L-0.000321212121,41.5487286 Z" id="Fill-6" fill="#BC8C24" mask="url(#mask-4)"></path>
            </g>
            <g id="Group-11" transform="translate(19.000000, 155.000000)">
                <mask id="mask-6" fill="white">
                    <use xlink:href="#path-5"></use>
                </mask>
                <g id="Clip-10"></g>
                <path d="M0.18765625,0.9997 L0.26265625,0.4897 C1.48921875,0.4977 2.71578125,0.5047 3.94234375,0.5117 C3.94078125,0.6747 3.93921875,0.8377 3.93765625,0.9997 L0.18765625,0.9997 Z" id="Fill-9" fill="#BC8C24" mask="url(#mask-6)"></path>
            </g>
            <path d="M89.011554,115.014037 C81.761213,114.995082 74.4699719,114.492779 67.37222,116.543057 C65.6795823,117.031144 63.7305321,117.544503 63.2302916,119.48579 C62.6828586,121.616626 64.3550462,122.676516 65.9171179,123.696916 C69.3464395,125.939901 73.2272361,126.761276 77.1741021,127.118258 C81.8005401,127.536843 86.4065281,127.228828 90.8583539,125.636624 C95.8686242,123.843816 100.04988,120.929515 103.200766,116.60782 C103.460324,116.252417 104.05495,115.859105 103.774941,115.317313 C103.498078,114.784999 102.871991,115.026673 102.403212,115.025094 C97.9403749,115.006139 93.4759645,115.014037 89.011554,115.014037 M78.9815748,85.2707915 C75.3949449,85.2565754 71.9703425,85.6135575 69.0916,88.1945698 C66.4960126,90.5196923 66.2238692,93.9047042 68.0502189,96.7526634 C68.3837125,97.2723409 68.8540645,97.7193584 69.0994655,98.2722068 C69.5273441,99.2325835 70.6615372,100.219813 69.639033,101.306555 C68.6354059,102.375922 67.3454776,102.797666 65.7755404,102.364865 C61.2780952,101.129643 59.0899363,98.3559238 59.4485993,93.8857494 C59.6420886,91.4595347 61.1113484,89.5687931 62.8118514,88.0271357 C66.0303799,85.1096756 69.8309492,83.2631619 74.1191743,82.391241 C78.059748,81.5872414 82.0081871,80.8006171 86.0352804,81.04545 C94.5503804,81.5651275 102.216015,84.0782184 108.036424,90.8213896 C112.928713,96.4872962 114.87619,103.03934 113.6366,110.362212 C113.117483,113.426572 111.462599,116.186075 109.636249,118.787622 C104.844638,125.609771 98.2203838,129.988331 90.6695839,132.980031 C87.3173433,134.308446 83.7370057,135.044525 80.1220602,135.676351 C76.7084694,136.273428 73.4474677,135.97173 70.2525355,135.360438 C63.9397522,134.155228 58.6463268,131.08771 55.9563544,124.861057 C53.4598711,119.083001 55.9846699,112.974816 61.971825,111.169371 C64.6822475,110.354314 67.4414356,109.779352 70.2541086,109.798307 C71.9750618,109.810943 72.9566657,108.964295 73.6645532,107.683266 C75.8212505,103.788054 77.8725511,99.835978 79.9977867,95.9202316 C81.2971535,93.5287673 83.4160967,92.4878327 86.0620228,92.8574514 C87.7090411,93.0864886 88.0944465,93.7972937 87.518698,95.3515875 C85.8653874,99.810705 83.233619,103.759622 81.0124254,107.920202 C80.3721805,109.122252 80.5342081,109.523462 81.7313245,109.951525 C82.7176477,110.305348 83.7023979,110.272177 84.6981596,110.346416 C91.0722932,110.823446 97.4102459,111.621127 103.740333,112.493048 C105.042846,112.673118 105.840399,112.243476 106.318617,110.749206 C108.934654,102.581265 103.351782,95.3658036 97.8711593,91.4626938 C93.6222612,88.4362436 88.802334,86.8535175 83.8659985,85.5772275 C82.3149384,85.1760175 80.6144353,85.3576677 78.9815748,85.2707915" id="Fill-12" fill="#BC8C24"></path>
            <path d="M199.490817,71.7244729 C199.701685,71.7055817 199.910969,71.6882649 200.120252,71.6693737 C201.810372,71.557601 203.437074,71.2537683 204.821197,70.1879924 C205.025723,70.173824 205.23025,70.1596557 205.436362,70.1470616 C206.279837,70.227349 207.186731,70.4036664 207.064649,69.0608202 C207.153436,68.9962755 207.248565,68.9411763 207.346864,68.8939484 C209.035399,69.3174251 210.520993,68.5035312 211.987561,67.980876 C217.387701,66.0555526 222.873458,64.3427547 228.089683,61.9262613 C228.357629,61.8034688 228.709605,61.858568 229.021945,61.8318055 C229.270865,61.8129143 229.549909,61.8601422 229.765534,61.7656865 C235.741204,59.157133 241.759681,56.635164 247.671932,53.8865012 C255.983012,50.0264088 264.160911,45.8860976 272.1216,41.353795 C274.464938,40.0203945 277.090491,39.0349059 278.989894,36.9789187 L279.027946,36.9726217 C280.600741,36.7380565 281.818389,35.9210141 282.793458,34.7088318 L282.828339,34.7025347 C285.409498,33.8791953 287.480133,32.145932 289.764808,30.8062343 C293.856929,28.4086321 297.593903,25.4679092 301.749442,23.1395745 C302.970261,22.4563444 304.711117,21.9856399 305.207372,20.272842 L305.193102,20.2822875 C306.423434,20.4538822 307.155925,19.9013159 307.466679,18.7347872 L307.450824,18.7473813 C308.354547,18.9158274 308.858729,17.7445759 309.80526,18.0515571 C310.563119,19.3550467 311.695151,19.386532 313,18.775718 C312.850965,20.0146629 311.431961,20.0288312 311.311465,21.0583991 L311.308294,21.0599733 C310.404571,21.3559348 309.369254,21.4614104 309.048987,22.6011766 L309.056914,22.5948796 C308.559074,22.5618201 308.284786,22.7869396 308.249906,23.2859809 L308.218196,23.3032978 C307.067138,23.2151391 306.390139,23.8243788 305.973158,24.8145901 L305.957303,24.82561 C304.799904,24.7327285 304.099122,25.3167799 303.69641,26.3384765 L303.688483,26.3431993 C302.630969,26.3998728 301.835058,26.8485376 301.414906,27.8529173 L301.406979,27.8560658 C300.346294,27.9080165 299.551969,28.3598299 299.131817,29.3642096 L299.125475,29.3689324 C298.067961,29.4224573 297.27205,29.869548 296.843971,30.8692048 L296.834458,30.8755019 C295.683401,30.7826204 294.969935,31.349355 294.556125,32.367903 C294.556125,32.367903 294.537099,32.3789228 294.537099,32.3789228 C293.915592,32.4119824 293.173588,32.2388135 293.083215,33.200688 L293.095899,33.1928167 C292.144612,33.416362 291.141004,33.5564714 290.774758,34.6789208 L290.7811,34.6757723 C289.706146,34.7025347 288.911821,35.1574967 288.474229,36.1587278 L288.464716,36.1650249 C286.834843,36.3224512 285.667931,37.2370978 284.677007,38.4414089 L284.677007,38.4429831 C283.037622,38.5830925 281.872295,39.508759 280.868687,40.7020502 C280.868687,40.7020502 280.86393,40.7051988 280.86393,40.7051988 C280.237666,40.7335355 279.48932,40.5399012 279.384679,41.5127956 L279.395777,41.5049243 C278.29704,41.4765875 277.520156,41.964609 277.052439,42.946949 L277.031828,42.9563946 C276.41032,42.9784343 275.692099,42.8194337 275.550991,43.7388032 L275.552576,43.7372289 C273.94173,43.9135464 272.652736,44.6329844 271.72206,45.9616622 C271.72206,45.9616622 271.695107,45.9742564 271.695107,45.9742564 C271.078355,45.9994446 270.36489,45.8357212 270.211098,46.7409223 L270.203171,46.7456451 C269.576907,46.7661105 268.847587,46.5866446 268.704893,47.5233309 L268.70965,47.5201824 C268.065946,47.5343508 267.308087,47.3422907 267.193932,48.332502 C264.688876,50.1224388 261.885749,51.3849976 259.138114,52.729418 C253.587353,55.4418728 248.069887,58.2409121 242.392287,60.6652768 C238.626775,62.2725991 234.988102,64.2152394 230.981597,65.2951836 C229.334284,65.7407 227.959674,67.034744 226.152228,67.184299 C224.221115,67.2551408 222.69747,68.3744417 221.032717,69.2009296 C223.368127,69.424475 225.535477,68.8561661 227.634651,67.9194797 C229.743338,68.0517178 231.774336,66.7277628 233.909976,67.5416567 C235.384471,68.1036685 236.824086,68.753839 238.27797,69.3662272 C239.094492,70.8916879 240.423123,69.9990809 241.553569,70.0494573 C241.759681,70.047883 241.965794,70.0463088 242.17032,70.0447345 C241.604305,71.0711538 240.13298,71.2285801 239.798444,72.4785448 L239.807957,72.4722477 C236.773351,73.246785 234.198533,75.0792269 230.897566,75.5105749 C227.91211,75.8994178 224.985316,76.4126275 221.998274,76.0788838 C217.733336,75.6018822 213.489009,74.9485631 209.231999,74.3928483 C208.748427,74.3298778 208.207779,74.2480162 207.809824,74.6935325 C207.578344,74.6762156 207.343693,74.6588987 207.112213,74.6431561 C206.741211,73.5978456 205.972254,73.618311 205.11451,73.9126982 C202.49847,74.8053052 199.74925,75.2272076 197.082475,75.8978436 C195.844216,76.2111219 194.636081,76.9258372 193.294766,76.8959262 C191.593547,76.8565696 189.846349,77.338294 188.40832,77.8703949 C186.520015,78.5693675 184.558778,78.5614962 182.683156,79.0810029 C180.258959,79.7516389 177.631821,79.9594416 175.090298,80.3797697 C170.054818,81.2109805 164.967016,81.6769623 159.871287,81.8957848 C155.698307,82.0736765 151.511058,81.9823693 147.333321,81.9241216 C145.064501,81.891062 142.784582,81.788735 140.528446,81.7336358 C136.786716,81.6423285 133.154384,80.626929 129.41424,80.7670384 C129.18276,80.7434245 128.949694,80.7198105 128.716629,80.6946223 C128.236229,79.6745 127.518007,79.8948968 126.761734,80.3293933 C126.064123,80.5655328 125.529817,80.0743628 124.916236,79.9295306 C124.412054,78.7692989 123.384664,79.3848357 122.577655,79.2510233 C122.343004,79.2242609 122.108353,79.1943499 121.873703,79.1675874 C119.268761,77.5571166 116.346723,76.8628667 113.394562,76.2504784 C113.293091,76.2630725 113.199548,76.2394586 113.115518,76.1827851 C112.251432,75.0335733 110.998904,74.7848398 109.670272,74.7108494 L109.667101,74.7092752 C109.497455,73.7741631 108.768135,73.9662231 108.137114,73.9630746 L108.1387,73.9646489 C107.978566,73.024814 107.249246,73.2121512 106.61664,73.2058542 L106.61664,73.2074285 C106.464434,72.2660193 105.733528,72.4549308 105.104093,72.4454853 L105.100922,72.443911 C104.167075,71.1246788 102.782952,70.5610927 101.283089,70.1879924 L101.28626,70.1911409 C101.241867,69.4449404 100.720244,69.3961382 100.146301,69.4213264 L99.9655566,69.424475 L99.8085942,69.334742 C99.7594443,68.8482948 99.4899129,68.6294722 99,68.6782744 L99.003171,68.6798487 C99.0190257,67.7888159 99.7404186,67.987173 100.262041,67.8754004 C100.350828,67.8391923 100.42376,67.8596577 100.480837,67.9367966 C100.913673,68.9868299 101.711169,69.4591087 102.84003,69.4087323 L102.824175,69.400861 C102.922475,69.6181093 102.979552,69.988061 103.127001,70.0274176 C105.184953,70.5799838 106.863975,72.0314541 108.975833,72.4391882 C109.181945,72.4612279 109.388057,72.4816933 109.594169,72.503733 C110.374225,73.6167368 111.656877,73.6167368 112.798422,73.9300151 C113.00612,73.9504805 113.213817,73.9725202 113.423101,73.9914113 C113.754466,74.720295 114.361704,74.8147508 115.0609,74.6982553 C115.276525,74.7139979 115.49215,74.7328891 115.70619,74.7517803 C116.05341,75.486961 116.670161,75.5672484 117.375699,75.433436 C117.57864,75.4476044 117.783167,75.463347 117.989279,75.4775154 C118.623471,76.2552012 119.470117,76.3402114 120.384938,76.2079733 C120.602149,76.2205674 120.819359,76.2347358 121.03657,76.2489042 C121.686616,77.0234415 122.542775,77.0974318 123.462352,76.9463026 C123.668465,76.9588967 123.874577,76.9714908 124.080689,76.9840849 C125.138203,77.8546522 126.376462,77.8515037 127.64326,77.7066715 C127.977796,77.7255627 128.310746,77.7413053 128.645282,77.7601965 C129.797926,78.9157053 131.23754,78.4686147 132.597881,78.4575949 C133.309761,78.4796346 134.020056,78.5001 134.731936,78.5205654 C136.962704,79.7122823 139.36629,79.2195381 141.719141,79.2211123 C143.447312,79.236855 145.178655,79.2541718 146.909998,79.2714887 C148.709517,79.8996196 150.50745,79.8980453 152.306968,79.2714887 C154.039896,79.2557461 155.772825,79.2400035 157.505753,79.2242609 C160.115451,79.3187166 162.734662,79.5280936 165.241304,78.5111198 C165.710606,78.4985257 166.179907,78.4875059 166.649209,78.4749118 C168.504219,78.5489021 170.378255,78.7535563 172.08423,77.7428796 C172.296685,77.7302855 172.507553,77.7208399 172.720007,77.70982 C174.075592,77.7113943 175.51045,78.1490394 176.65358,76.9951047 C176.86762,76.9840849 177.083245,76.9730651 177.300456,76.9620452 C179.574032,77.242264 181.658937,76.0788838 183.902389,76.0820323 C184.024471,76.0820323 184.148139,75.7010607 184.27022,75.4979808 C184.598415,75.4775154 184.926609,75.4539015 185.254803,75.4302875 C186.285364,75.5625256 187.295314,75.612902 188.067442,74.7281663 C188.27514,74.7108494 188.481252,74.6951068 188.68895,74.6777899 C189.610113,74.8336419 190.45993,74.7423347 191.113147,73.9788172 C191.32243,73.9615003 191.530128,73.9426092 191.739411,73.9252923 C192.658989,74.0748473 193.508805,73.9866885 194.157266,73.2215968 C194.364964,73.2027057 194.571076,73.1853888 194.778774,73.1680719 C196.454625,73.024814 198.11145,72.8185855 199.490817,71.7244729" id="Fill-14" fill="#BC8C24"></path>
            <path d="M138.280636,109.558754 C135.786505,109.542858 133.472016,112.038582 133.119149,115.098625 C133.066219,115.55326 132.79836,116.224085 133.398235,116.445044 C133.863378,116.616724 134.277195,116.189113 134.69422,115.85688 C136.320618,114.566098 137.743316,113.075022 139.121102,111.545795 C139.486801,111.13726 140.293585,110.765286 139.911846,109.991135 C139.547751,109.261493 138.777859,109.697052 138.280636,109.558754 M143.626578,101.084422 C145.743782,100.936586 147.644454,101.553363 149.43285,102.626366 C150.664678,103.367134 151.455422,104.578435 151.251722,105.850141 C151.036793,107.193381 150.446542,108.66697 148.555494,108.79732 C147.517743,108.867264 146.888997,109.743152 146.396587,110.483921 C145.301094,112.13237 144.41251,113.914348 143.392402,115.616845 C143.108504,116.090556 142.908011,116.588111 143.215968,117.014132 C143.588083,117.530763 144.242492,117.24304 144.62423,117.034798 C145.700476,116.446634 146.919472,116.239981 147.318854,114.551791 C147.824096,112.424862 153.250234,111.200845 155.15251,112.443938 C156.052322,113.033692 156.191865,113.845994 156.16139,114.747316 C156.119688,115.971333 156.665028,116.960085 157.434921,117.80418 C157.802224,118.204767 158.313881,118.996405 159.001973,118.435264 C159.473532,118.052163 159.184822,117.429027 158.889697,116.880603 C157.887233,115.022323 156.939303,113.130659 155.996184,111.238996 C153.609517,106.452612 156.142143,101.672586 161.484876,101.206823 C164.384805,100.955661 167.32002,100.741061 170.218345,101.78227 C171.957019,102.406996 173.400567,103.287653 173.809572,104.983791 C174.369348,107.312603 173.703712,109.484042 171.69718,111.032344 C169.427601,112.78094 167.323228,113.006668 165.600593,111.765165 C164.755316,111.157925 164.40726,110.518893 165.206023,109.561934 C165.886095,108.746452 166.445871,107.827644 167.018479,106.929502 C167.42588,106.2857 168.192565,105.743636 167.371346,104.799394 C166.5389,103.837666 165.512377,104.026832 164.545199,104.179437 C163.691901,104.316145 163.210719,104.955178 163.079195,105.891471 C162.634903,109.085044 163.533111,112.016327 164.970244,114.766392 C165.756176,116.271774 166.397753,117.8471 166.771472,119.424016 C167.445128,122.258331 166.246982,123.269338 162.79209,123.849554 C159.550521,124.396387 156.562376,123.421942 153.925494,121.423774 C153.02889,120.741822 152.105019,119.986746 151.06406,119.619541 C149.190655,118.959843 147.435942,119.49237 146.003621,120.849917 C144.138235,122.617588 141.745153,123.30113 139.369714,123.814582 C137.563674,124.205631 135.906801,123.313847 134.64129,121.969018 C133.882625,121.161485 133.204158,120.970729 132.299534,121.727394 C131.075726,122.752707 129.535941,123.200984 128.084372,123.771662 C125.983207,124.60145 121.612463,122.706608 121.092786,120.539938 C120.667741,118.767498 121.784085,117.142893 122.794569,115.742426 C127.324104,109.476093 132.96517,104.51326 140.242258,101.545415 C140.53578,101.426193 140.826094,101.251333 141.132447,101.22272 C141.958477,101.141648 142.794131,101.125752 143.626578,101.084422" id="Fill-16" fill="#BC8C24"></path>
            <path d="M272.737395,50.4391856 C273.023195,50.387221 273.307424,50.3352564 273.593223,50.2832919 C274.222924,50.4454843 274.82436,50.54154 274.986103,49.6581423 C275.270332,49.6093271 275.557702,49.5605119 275.843502,49.5132714 C276.479484,49.6912107 277.077779,49.7888411 277.244234,48.8975699 C277.533174,48.8534788 277.820544,48.8078129 278.111054,48.7637218 C278.736044,48.932213 279.33905,49.0487396 279.513356,48.1621925 C279.810148,48.1086532 280.103799,48.0535393 280.400591,48 C280.914088,48.239352 281.104097,49.0172459 281.846862,48.877099 C282.760792,48.8629269 283.674723,48.8487547 284.588653,48.8330079 C285.77425,49.7778183 287.16556,49.7179803 288.564721,49.6959347 C289.119047,49.6864866 289.858671,49.4266637 290,50.3683248 L289.974875,50.382497 C288.274211,50.836006 287.145145,51.9902494 286.257911,53.4389587 L286.259481,53.437384 C285.777391,53.4184878 285.505724,53.6373689 285.475888,54.1333944 L285.435059,54.1554399 C284.819491,54.1790602 284.120696,54.0499361 284.004491,54.9616782 L284.010773,54.9569541 C282.41375,55.3144074 281.027151,56.0718304 279.822711,57.1709599 C279.736343,57.2244991 279.642123,57.2465447 279.541622,57.2370966 C278.902499,57.1536384 278.32933,57.3551979 277.718472,57.5378613 C276.173271,57.9992437 274.609225,58.5204641 273.020054,58.6858059 C269.413013,59.0590061 265.787128,59.2589909 262.153391,59.1519124 C260.934817,59.1156947 259.74765,59.3692188 258.072111,59.8636696 C261.101272,61.5895233 263.871329,61.9768956 266.788996,61.6997512 C266.881646,61.6588094 266.971154,61.6619588 267.059092,61.7139234 C266.924044,62.2319944 266.788996,62.7484908 266.652378,63.2665618 C264.705172,65.4301777 262.109422,66.6332363 259.512101,67.6489075 C255.148162,69.355865 250.569088,70.2219412 245.847115,69.9510956 C241.489458,69.7007208 237.175769,68.8299206 232.791416,68.9102294 C232.467929,68.9165282 232.149152,68.8456674 232.0408,68.4913635 C231.84922,67.8662139 232.373709,67.7670088 232.753728,67.6032417 C235.570895,66.3938843 238.314256,64.9373016 241.228783,64.0413064 C250.201632,61.2840346 258.920088,58.0008184 266.931896,52.9980472 C267.790865,52.4626546 268.717358,51.8453784 269.826009,51.7965632 C270.50439,52.0248924 270.93466,51.7398746 271.207896,51.1273225 C271.377492,51.1052769 271.547087,51.0816567 271.719823,51.0580364 C272.275719,51.2107808 272.646316,51.0564617 272.737395,50.4391856" id="Fill-18" fill="#BC8C24"></path>
            <path d="M230,60.3521118 C234.073272,54.2903337 237.490916,47.7045769 242.901796,42.7218673 C246.537982,39.3733162 250.817398,37.4624315 255.385105,36.1426603 C255.87179,36.001841 256.538269,35.8020742 256.894758,36.4586849 C257.220248,37.0645352 256.718064,37.3789224 256.373974,37.7489824 C255.025517,39.1915611 254.213342,41.0385859 253.543763,42.8414 C251.945763,47.1543993 248.895459,49.9822466 245.394118,52.3761741 C242.498809,54.3541936 239.626749,56.3862483 236.528396,58.0105821 C236.182756,58.1923372 236.122308,58.4543266 236.274204,58.8030999 C236.274204,58.8047373 236.303653,58.799825 236.303653,58.799825 C235.806118,58.5018121 235.313234,58.8342111 234.817249,58.8145619 C234.025224,59.3352657 232.923208,59.3418154 232.448923,60.3963225 C231.644499,59.7216999 230.788925,62.0828788 230,60.3521118" id="Fill-20" fill="#BC8C24"></path>
            <path d="M272.629786,37.8067159 C270.207113,40.2417797 267.2803,41.9461612 264.493526,43.8234274 C260.835399,46.286218 257.062128,48.572862 253.151931,50.598548 C252.487524,50.9443173 251.942929,51.1449287 251,50.8741848 C253.534704,47.5975317 255.415893,43.9979431 257.640956,40.6299546 C259.725979,37.4756255 261.952598,34.4615613 265.03501,32.2793005 C265.578049,32.3461709 265.909475,32.1455595 265.909475,31.5241534 L265.900139,31.5306774 C266.987774,31.5518802 267.762656,31.067477 268.167213,29.9877635 L268.165657,29.9877635 C270.65057,29.0711488 273.183718,28.2735961 275.587719,27.1645248 C276.343929,26.8154936 277.610503,27.4695194 277.895249,26.0636085 L278.497416,26 C278.853737,26.1630987 278.967324,26.4827722 279,26.8546373 L278.993776,26.8578992 C278.751042,26.8725781 278.626563,27.012843 278.614115,27.264015 C277.924812,27.9180409 277.246402,28.5818526 276.546207,29.2195686 C275.922256,29.7887831 275.71531,30.2780793 276.697138,30.6450514 C276.68469,30.9092713 276.675354,31.1734912 276.664462,31.4377111 C276.183662,31.5420943 275.693526,31.6269056 275.558155,32.2483117 C275.159822,32.3559569 274.909308,32.6185458 274.801945,33.0344475 C274.321145,33.1893913 274.17177,33.5596254 274.112642,34.0570765 C273.949264,35.4450465 273.529147,36.7335263 272.629786,37.8067159" id="Fill-22" fill="#BC8C24"></path>
            <path d="M208.740323,65.7649144 C213.151073,60.4441566 217.533378,55.1169746 224.091821,52.2919782 C227.175079,50.9637962 230.331033,50.1254517 233.67663,50.0210601 C234.109645,50.0066059 234.620097,49.9038203 234.893497,50.3326288 C235.219049,50.8449505 234.719659,51.1276107 234.446259,51.4520276 C232.974955,53.1849276 231.893997,55.1924577 230.642362,57.07793 C228.31767,60.5822746 224.570666,62.1304819 221.166597,64.1749506 C218.982556,65.4870723 216.616776,66.4426566 214.31737,67.404665 C212.885575,68.0053181 211.22621,68.5128217 209.607934,68.8163602 C208.884135,68.9512663 208.323111,69.3094096 207.836364,69.8313675 C207.739963,69.8795482 207.646722,69.935759 207.558223,70 C206.905539,69.7831867 206.148553,69.7044916 206.007902,68.803512 L206,68.8131482 C207.278501,68.137012 208.177719,67.1059446 208.740323,65.7649144" id="Fill-24" fill="#BC8C24"></path>
            <path d="M116.509172,122.981142 C116.051636,122.981142 115.5859,123.028418 115.134923,122.973263 C113.224422,122.736886 112.579935,121.618033 113.26706,119.870417 C115.456347,114.302943 118.337678,109.058518 121.358402,103.880278 C122.627696,101.697728 124.4972,100.684457 127.145663,101.086298 C128.846255,101.346314 129.398907,102.290247 128.713422,103.844034 C126.153514,109.647885 122.839245,115.116081 120.469568,121.005028 C119.907077,122.40123 118.539388,123.020538 116.509172,122.981142" id="Fill-26" fill="#BC8C24"></path>
            <path d="M289.458462,49 C289.315902,48.0598841 288.568254,48.3208527 288.010687,48.3287132 C286.597759,48.3522947 285.19592,48.4104624 284,47.4672023 C285.690127,45.6923012 288.007519,44.8983906 290.069886,43.7208875 C298.875339,38.6901669 307.71564,33.7207582 316.584453,28.8000845 C317.385957,28.3551802 318.196964,27.9212805 318.968372,27.4292132 C319.595636,27.0283276 320.389219,26.7264844 320.785219,27.3867665 C321.065587,27.8536802 320.509603,28.4589388 319.877588,28.807945 C316.917093,30.4429292 314.002534,32.1596627 311.048375,33.8025074 C305.363401,36.965573 299.661003,40.0940524 293.972861,43.2445412 C291.721997,44.4912166 289.482222,45.7567573 287.060287,47.1134798 C288.219775,47.9199672 289.246206,47.6401333 290.210862,47.1071914 C296.553196,43.5982637 302.882857,40.0626104 309.214103,36.5379617 C313.251718,34.2882863 317.289333,32.0386109 321.328531,29.7889356 C321.543955,29.6694559 321.751459,29.4462177 321.970051,29.4336409 C322.636915,29.3927663 323.487522,28.3583244 323.921538,29.4399293 C324.281106,30.3391706 323.329122,30.5907067 322.602067,30.9868759 C316.074405,34.5461108 309.584759,38.1760901 303.091945,41.7997811 C298.913355,44.1343499 294.752188,46.5019328 290.565678,48.827069 C290.26155,48.9984279 289.829118,48.9481207 289.458462,49" id="Fill-28" fill="#BC8C24"></path>
            <path d="M311.671927,22 C311.794383,20.932949 313.257319,20.9182872 313.409164,19.6361969 C312.06705,20.2699112 310.89964,20.2373295 310.120823,18.8884467 L310.117557,18.8917049 C310.424513,18.8705268 310.803309,18.875414 310.741265,18.4404482 C310.721672,18.3166377 310.35757,18.2416998 310.153478,18.1455837 C310.10123,18.0853076 310.050615,18.0266605 310,17.9647552 C310.055513,17.6275345 310.225318,17.4059789 310.525743,17.2072305 C314.986392,14.2748766 319.068245,10.834248 323.357457,7.67056399 C323.848912,7.30564884 324.291385,6.99123534 324.913459,7.0189298 C325.282459,8.49651034 325.997599,8.55841559 327.256443,7.82532711 C328.691623,6.98960626 329.741475,5.63583621 331.290947,5.15688508 C329.744741,3.84710034 328.410791,4.50687996 327.101332,5.50062211 C326.973979,5.59673816 326.725802,5.53483291 326.534771,5.54460742 C328.353645,3.44634531 330.67377,1.93618305 332.827356,0.233788712 C333.22248,-0.0789957029 333.748222,-0.0708502755 334.105793,0.215868772 C334.536836,0.561234896 334.340907,1.04018603 334.050279,1.42627929 C333.320444,2.39721425 332.962874,3.0993501 334.629903,3.60273751 C335.361371,3.82266406 334.882978,4.44497471 334.277231,4.93044219 C331.26319,7.35126324 328.410791,9.97571997 325.354299,12.3411521 C321.678999,15.1822772 317.845322,17.8213957 314.106344,20.5810665 C313.338956,21.1496174 312.623815,21.7670408 311.671927,22" id="Fill-30" fill="#BC8C24"></path>
            <path d="M130,81.7807133 C133.705051,81.645552 137.306397,82.6250922 141.013019,82.7131749 C143.250505,82.7648096 145.509989,82.8650416 147.756902,82.8954149 C151.898765,82.9516056 156.048485,83.041207 160.182492,82.8695976 C165.232548,82.6585029 170.274747,82.2089774 175.266667,81.4071212 C177.78541,81.0016371 180.389001,80.7996544 182.79147,80.1542209 C184.650281,79.6530608 186.593939,79.6606541 188.463749,78.986366 C189.89046,78.4730565 191.620426,78.0083444 193.307969,78.0463111 C194.637262,78.0751658 195.834568,77.3841723 197.061728,77.0834762 C199.704602,76.4350054 202.429181,76.0295213 205.021773,75.1684371 C205.871829,74.8844463 206.633895,74.8647036 207,75.8715799 C204.699663,75.5739212 202.641302,76.5124574 200.501235,77.0455095 C198.064198,77.6514577 195.62716,78.2680365 193.177553,78.8269059 C190.12615,79.5224554 187.081033,80.2666023 183.995062,80.7890237 C182.230527,81.0882012 180.47385,81.5665813 178.70303,81.677444 C176.086869,81.8399413 173.506846,82.3213588 170.93468,82.6585029 C166.541414,83.2340777 162.135578,83.5666657 157.734456,83.8263578 C153.171493,84.0936432 148.566105,84.0313779 143.998429,83.7823165 C139.595735,83.5408484 135.216611,82.8741536 130.828058,82.3972921 C130.413244,82.3517321 130.119416,82.1846787 130,81.7807133" id="Fill-32" fill="#BC8C24"></path>
            <path d="M273,36.9975157 C273.923555,35.9476892 274.354973,34.6872592 274.522747,33.3295048 C274.583465,32.8428831 274.736858,32.4807089 275.230592,32.3291382 L275.361615,32.4519902 C275.451095,32.8396921 274.46842,33.8687774 275.932046,33.4300201 C276.35228,33.3055726 276.778904,33.1189013 277.13043,32.8620289 C280.35648,30.4959305 283.555366,28.0931361 286.784612,25.7302287 C291.12436,22.5552214 295.520032,19.4552017 299.808649,16.2163752 C301.158829,15.1984583 302.943622,14.6320626 303.681826,12.8897973 L303.704196,12.869056 C305.687122,12.5276231 306.84556,10.8332222 308.496134,9.94773026 C308.881215,9.74191321 309.24073,9.48344528 309.609833,9.24890957 C310.010892,8.9936326 310.410353,8.83727546 310.795434,9.27603274 C311.33231,9.89029294 310.6724,10.3210728 310.410353,10.5460356 C309.518755,11.3102711 308.496134,11.9197448 307.535829,12.6058017 C300.708236,17.4863781 293.872654,22.3541908 287.062637,27.2586995 C283.079208,30.1257789 279.153302,33.0694414 275.16508,35.9301389 C274.524344,36.3912329 273.917163,37.0453801 273,36.9975157" id="Fill-34" fill="#BC8C24"></path>
            <path d="M279.503006,27 C279.470303,26.6264859 279.35662,26.308428 279,26.1453214 C283.527051,22.6434226 288.03853,19.1235822 292.581154,15.6461494 C298.389857,11.1982323 304.211019,6.77151914 310.053983,2.37742727 C310.899593,1.74294258 312.140756,0.297818084 312.857111,1.40531192 C313.508059,2.41167965 311.773235,3.29734851 310.904265,3.88453228 C308.604143,5.434045 306.481553,7.22658656 304.263967,8.88701178 C303.90579,9.15613767 303.723586,9.35675879 303.778092,9.78899129 L303.804566,9.76126317 C302.322023,9.5867391 301.88598,11.115048 300.895542,11.7071249 C296.352918,14.4228499 292.294612,17.859506 288.07279,21.0482401 C285.286793,23.1506842 282.412029,25.098177 279.503006,27" id="Fill-36" fill="#BC8C24"></path>
            <path d="M282.501774,47.9833334 C281.730505,48.1226922 281.533203,47.3491722 281,47.111166 C283.569812,44.8187909 286.834255,43.6068384 289.811714,41.9658486 C298.638104,37.1039463 307.550914,32.3845346 316.432744,27.6150164 C316.825716,27.4020635 317.225211,27.1703206 317.654056,27.0544492 C318.195413,26.9103929 318.722094,27.0387909 318.942223,27.6009239 C319.178659,28.2053343 318.638933,28.2742308 318.236177,28.4856179 C311.177349,32.2075958 304.133195,35.9561929 297.072736,39.6766051 C292.64079,42.0096918 288.174601,44.283277 283.760591,46.6445487 C283.253477,46.9154373 282.263708,46.9812021 282.501774,47.9833334" id="Fill-38" fill="#BC8C24"></path>
            <path d="M277,31.7721524 C277.010901,31.5103701 277.021802,31.2502037 277.032703,30.9884214 C277.224249,30.7460303 277.373748,30.4503133 277.610455,30.2725598 C279.901219,28.5321922 282.216899,26.8192955 284.510777,25.0805437 C288.422673,22.1185252 292.390631,19.2308399 296.205975,16.1411621 C298.678941,14.1390121 301.555243,12.6701224 303.638888,10.1541034 L303.612414,10.1815744 C305.453123,9.66447348 306.591497,8.03560568 308.15501,7.07573715 C308.463352,6.88667214 308.673585,6.49238271 308.994385,6.35825967 C309.61107,6.09970922 310.45356,5.70057197 310.877141,6.35987561 C311.316295,7.04665023 310.472247,7.42801213 310.008177,7.77382335 C307.946334,9.32189414 305.882933,10.866733 303.772815,12.3453184 C303.276041,12.6943615 302.861804,12.9739192 302.88672,13.6461503 C302.88672,13.6461503 302.864918,13.6655416 302.866476,13.6655416 C301.974152,14.087302 300.988392,14.3733234 300.206636,14.9518301 C295.575275,18.3808553 291.026451,21.9326921 286.376403,25.3342464 C283.32257,27.5690918 280.419794,30.0382485 277.179088,32 C277.118354,31.9240508 277.059177,31.8481016 277,31.7721524" id="Fill-40" fill="#BC8C24"></path>
            <path d="M229.510518,59.7243935 C230.318024,61.3982391 231.193747,59.1147146 232.017118,59.7671502 C232.502573,58.7473237 233.630543,58.7409894 234.441222,58.2374105 C234.985376,59.1242161 235.459726,59.1194654 235.962633,58.2231583 C235.962633,58.2231583 235.93249,58.227909 235.93249,58.2263255 C238.01392,58.5287895 239.551195,57.1051498 241.224906,56.3545322 C252.953572,51.089124 264.433165,45.3169697 275.519316,38.7862799 C276.633008,38.1290936 277.681655,37.2850447 279,37 C277.101013,39.0697409 274.473842,40.0610629 272.127474,41.4023564 C264.163467,45.9614873 255.980529,50.1247229 247.662743,54.0092481 C241.748436,56.7725977 235.726251,59.3110787 229.745313,61.9350732 C229.531142,62.030088 229.251925,61.9825806 229.002852,62 C229.508931,61.3174764 228.411104,60.2770634 229.510518,59.7243935" id="Fill-42" fill="#BC8C24"></path>
            <path d="M46.5480357,119.008769 C47.9442386,118.952105 49.2224088,119.146382 50.2707258,120.294238 C51.2243059,121.335241 51.1994569,122.606139 50.4477749,123.426961 C48.3169736,125.750195 43.9171484,125.476588 42.2445005,122.761561 C41.4508857,121.474473 42.6902293,119.502557 44.507312,119.126955 C45.1689165,118.99096 45.8662414,119.042768 46.5480357,119.008769" id="Fill-44" fill="#BC8C24"></path>
            <path d="M128.409614,99 C127.181362,98.9586334 125.959298,99.0047731 124.913582,98.1169825 C123.816818,97.1846433 123.682236,96.0168327 124.647513,95.1417703 C126.174319,93.7575807 130.057081,93.6000694 131.741673,94.8442491 C132.402206,95.331102 133.14318,95.9516008 132.976113,96.7662043 C132.754903,97.8449176 131.865426,98.573606 130.804241,98.8249875 C130.033877,99.0079551 129.210917,98.9506783 128.409614,99" id="Fill-46" fill="#BC8C24"></path>
            <path d="M208,76.4091568 C208.397978,75.9259595 208.938658,76.0164523 209.420672,76.0847487 C213.679516,76.6857574 217.924091,77.3943329 222.189278,77.9116784 C225.176494,78.2736495 228.103459,77.718741 231.089089,77.2970105 C234.390249,76.8274725 236.965217,74.8400462 240,74 C238.688733,75.869615 236.629075,76.3545197 234.785056,77.1962732 C230.36924,79.2110181 225.688633,79.193944 221.05718,78.7739209 C217.010802,78.4068276 213.054801,77.1450509 208.959271,77.0135803 C208.634229,77.0050432 208.3187,76.6191683 208,76.4091568" id="Fill-48" fill="#BC8C24"></path>
            <path d="M265.93227,60.9108323 C262.94251,61.2144888 260.104008,60.7900598 257,58.8991081 C258.71694,58.3573573 259.933441,58.0795806 261.182124,58.119263 C264.905647,58.2365848 268.621123,58.0174691 272.317291,57.608568 C273.945728,57.4274093 275.54842,56.8563281 277.131802,56.350809 C277.757753,56.1506718 278.345085,55.9298307 279,56.0212727 C278.66691,57.3376926 277.345816,57.1185769 276.636191,57.3049115 C274.941779,57.7517697 273.285986,58.4349967 271.466062,58.5229881 C268.028964,58.6886189 264.609567,59.2717774 261.149941,59.1441037 C260.919836,59.1337517 260.65433,59.1855114 260.549737,59.6116656 C262.20553,60.6589354 264.389116,59.377022 265.93227,60.9108323" id="Fill-50" fill="#BC8C24"></path>
            <path d="M305,21 C304.513674,22.7804931 302.800623,23.2698014 301.600397,23.9800349 C297.51495,26.3987563 293.841009,29.4573424 289.81947,31.9497054 C287.571773,33.3423522 285.537622,35.1441196 283,36 C285.063766,34.0525856 287.585801,32.8252237 289.85688,31.2018329 C293.923622,28.2987126 298.037126,25.4741436 302.133484,22.6184813 C303.040669,21.986799 303.860564,21.1783766 305,21" id="Fill-52" fill="#BC8C24"></path>
            <path d="M101,67.300246 C100.469165,67.3986489 99.7350305,67.2264438 99.7188957,68 C96.7081391,66.8916006 94.7638939,64.6543011 92,63.0607207 C93.5360344,62.6015072 97.9973109,64.818306 101,67.300246" id="Fill-54" fill="#BC8C24"></path>
            <path d="M326.5242,5.16068927 C326.703969,5.14886698 326.939052,5.21473403 327.058899,5.11508901 C328.289629,4.08317197 329.546479,3.40085694 331,4.75704251 C329.543406,5.25357869 328.553905,6.65705342 327.203329,7.5234584 C326.02023,8.28515166 325.345711,8.22097352 325,6.68914249 C325.003073,6.57260849 325.050704,6.49154136 325.147503,6.4425633 C325.253521,6.33109599 325.358003,6.21793979 325.465557,6.10816138 C325.502433,5.99669407 325.574648,5.93758262 325.680666,5.93420482 C326.238412,6.04060544 326.542638,5.81091523 326.533419,5.16237817 L326.5242,5.16068927 Z" id="Fill-56" fill="#BC8C24"></path>
            <path d="M278,26.1182994 C277.70734,27.5090001 276.405565,26.8604366 275.629938,27.2056918 C273.159124,28.3027643 270.553974,29.0916885 268,30 C269.815129,28.1672436 272.29074,27.6993744 274.571246,26.9104502 C275.649128,26.5377683 276.709419,25.6891504 278,26.1182994" id="Fill-58" fill="#BC8C24"></path>
            <path d="M114,77 C117.132922,77.4198597 120.235558,77.8958446 123,79 C119.798093,78.7053427 116.735838,78.1527253 114,77" id="Fill-60" fill="#BC8C24"></path>
            <path d="M228,69.7119616 C226.092219,70.6190647 224.122478,71.1694247 222,70.9529396 C223.512968,70.1525545 224.897695,69.0686044 226.652738,69 C226.755043,69.9711339 227.573487,69.426872 228,69.7119616" id="Fill-62" fill="#BC8C24"></path>
            <path d="M165,78.0565642 C162.732172,78.7025642 160.3625,78.5705642 158,78.5095642 C160.273566,77.9105642 162.634631,77.9645642 165,78.0565642" id="Fill-64" fill="#BC8C24"></path>
            <path d="M184,76 C183.894904,76.129 183.788444,76.37 183.683348,76.37 C181.752047,76.368 179.957234,77.107 178,76.93 C179.871247,76.176 181.966333,76.191 184,76" id="Fill-66" fill="#BC8C24"></path>
            <path d="M141,78.4888952 C138.980939,78.4878952 136.91695,78.8008952 135,78.0448952 C137.028591,77.9828952 139.061266,77.8928952 141,78.4888952" id="Fill-68" fill="#BC8C24"></path>
            <path d="M109,72 C106.93866,71.7316062 105.301031,70.7761658 103.295361,70.4124352 C103.151546,70.3865285 103.095876,70.1430052 103,70 C105.17268,70.4331606 107.186082,71.0829016 109,72" id="Fill-70" fill="#BC8C24"></path>
            <path d="M173,78.06723 C171.430572,78.70923 169.706534,78.57923 168,78.53223 C169.575263,77.91723 171.27888,77.95223 173,78.06723" id="Fill-72" fill="#BC8C24"></path>
            <path d="M152,80.1226253 C150.332844,80.5206253 148.665687,80.5216253 147,80.1226253 C148.664219,79.9596253 150.332844,79.9586253 152,80.1226253" id="Fill-74" fill="#BC8C24"></path>
            <path d="M205.883202,69.0007488 C205.983906,69.7635438 206.524765,69.8301694 206.992076,70.0137296 C207.079202,71.1749184 206.431982,71.0226313 205.830022,70.9519266 C205.85152,70.7602081 205.999747,70.557612 205.761,70.4012458 C205.501886,70.2326423 204.947449,70.4352384 205.004024,69.9906146 C205.058336,69.5568685 205.316319,68.9762741 205.883202,69.0007488" id="Fill-76" fill="#BC8C24"></path>
            <path d="M201,72 C199.536339,72.695 197.778264,72.826 196,72.917 C197.446837,72.186 199.245289,72.136 201,72" id="Fill-78" fill="#BC8C24"></path>
            <path d="M288,51 C288.953508,50.052035 290.169062,49.2967543 292,49 C291.053254,49.953117 289.668639,50.5826893 288,51" id="Fill-80" fill="#BC8C24"></path>
            <path d="M206,71 C204.527825,71.677 202.797639,71.87 201,71.941 C202.467116,71.257 204.212479,71.089 206,71" id="Fill-82" fill="#BC8C24"></path>
            <path d="M279,56 C280.151856,55.0071124 281.474691,54.3229018 283,54 C281.95913,55.1934566 280.618298,55.8463727 279,56" id="Fill-84" fill="#BC8C24"></path>
            <path d="M272,46 C272.97351,44.8053786 274.317881,44.158528 276,44 C274.884106,44.9865534 273.589404,45.7070064 272,46" id="Fill-86" fill="#BC8C24"></path>
            <path d="M281,40 C282.054561,38.9428969 283.27905,38.1239554 285,38 C283.870471,38.9512535 282.649313,39.775766 281,40" id="Fill-88" fill="#BC8C24"></path>
            <path d="M284,38 C285.044789,36.9405256 286.277103,36.1369295 288,36 C286.866471,36.9391425 285.652574,37.7704011 284,38" id="Fill-90" fill="#BC8C24"></path>
            <path d="M283,34 C281.964211,35.0709318 280.670737,35.7927677 279,36 C280.072842,34.9777469 281.524632,34.472879 283,34" id="Fill-92" fill="#BC8C24"></path>
            <path d="M102,71 C103.571429,71.3293789 105.021595,71.8304257 106,73 C104.363787,72.7599442 103.084718,72.0174459 102,71" id="Fill-94" fill="#BC8C24"></path>
            <path d="M133,78.505117 C131.623345,78.512117 130.166466,78.796117 129,78.062117 C130.402327,77.967117 131.796631,77.899117 133,78.505117" id="Fill-96" fill="#BC8C24"></path>
            <path d="M177,77.0635367 C175.837097,77.7965367 174.377419,77.5185367 173,77.5175367 C174.193548,76.8925367 175.593548,76.9685367 177,77.0635367" id="Fill-98" fill="#BC8C24"></path>
            <path d="M240,72.9947366 C240.217877,71.971542 241.176125,71.8426762 241.544761,71.002471 C241.93405,70.9689659 242.163286,71.2821098 241.860735,71.5823672 C241.297971,72.1429335 240.883901,73.0784994 240,72.9947366" id="Fill-100" fill="#BC8C24"></path>
            <path d="M109,76 C110.543278,76.047 111.998158,76.204 113,76.935 C111.392265,76.971 110.112339,76.59 109,76" id="Fill-102" fill="#BC8C24"></path>
            <path d="M208,66 C207.589389,66.8798736 206.933103,67.5563751 206,68 C206.425606,67.1317176 207.078431,66.4541623 208,66" id="Fill-104" fill="#BC8C24"></path>
            <path d="M129,77.5203217 C127.577659,77.6123217 126.189141,77.6143217 125,77.0613217 C126.434802,76.9383217 127.816199,76.9583217 129,77.5203217" id="Fill-106" fill="#BC8C24"></path>
            <path d="M243,70.4579422 C241.619555,70.4269422 239.997096,70.9929422 239,70.0239422 C240.359148,70.1069422 241.902227,69.7339422 243,70.4579422" id="Fill-108" fill="#BC8C24"></path>
            <path d="M187,75.0800169 C186.450649,75.6420169 185.732092,75.6090169 185,75.5260169 C185.552735,74.9760169 186.244219,74.9160169 187,75.0800169" id="Fill-110" fill="#BC8C24"></path>
            <path d="M111,74.906 C110.287481,74.707 109.487877,74.707 109,74 C109.748144,74.117 110.482434,74.269 111,74.906" id="Fill-112" fill="#BC8C24"></path>
            <path d="M307,20 C306.728033,20.7393647 306.083682,21.0885924 305,20.9808307 C305.433752,20.410093 306.119944,20.1037705 307,20" id="Fill-114" fill="#BC8C24"></path>
            <path d="M277,43.9167411 C277.398918,43.2927411 278.061528,42.9827411 279,43.0007411 C278.586207,43.6087411 277.869506,43.8537411 277,43.9167411" id="Fill-116" fill="#BC8C24"></path>
            <path d="M267,61 C267.087,60.6729243 267.173,60.3468428 267.259,60.0197672 C267.52,60.0048549 267.901,59.9163755 267.886,60.2891821 C267.865,60.7713453 267.485,60.9940351 267,61" id="Fill-118" fill="#BC8C24"></path>
            <path d="M309,22.979 C309.28331,22.254 310.199158,22.187 311,22 C310.570827,22.573 309.984572,22.982 309,22.979" id="Fill-120" fill="#BC8C24"></path>
            <path d="M289,34.942 C289.379381,34.306 290.068041,34.017 291,34 C290.609622,34.625 289.871478,34.858 289,34.942" id="Fill-122" fill="#BC8C24"></path>
            <path d="M292,33.944 C292.314208,33.231 293.180328,33.141 294,33 C293.556011,33.568 292.971311,33.974 292,33.944" id="Fill-124" fill="#BC8C24"></path>
            <path d="M301,27.958 C301.369596,27.32 302.069735,27.036 303,27 C302.615063,27.622 301.878661,27.866 301,27.958" id="Fill-126" fill="#BC8C24"></path>
            <path d="M300,28.958 C300.370474,28.32 301.068245,28.033 302,28 C301.612813,28.621 300.877437,28.865 300,28.958" id="Fill-128" fill="#BC8C24"></path>
            <path d="M298,29.953 C298.375522,29.318 299.072323,29.034 300,29 C299.614743,29.622 298.880389,29.866 298,29.953" id="Fill-130" fill="#BC8C24"></path>
            <path d="M295,31.9542778 C295.363257,31.3072778 295.989562,30.9472778 297,31.0062778 C296.620042,31.6352778 295.804454,31.7872778 295,31.9542778" id="Fill-132" fill="#BC8C24"></path>
            <path d="M269,29 C268.643102,29.663 267.959506,29.959 267,29.946 C267.42965,29.365 268.185999,29.151 269,29" id="Fill-134" fill="#BC8C24"></path>
            <path d="M304,26.9671081 C304.355992,26.3191081 304.975473,25.9471081 306,26.0061081 C305.621584,26.6321081 304.798879,26.7861081 304,26.9671081" id="Fill-136" fill="#BC8C24"></path>
            <path d="M306,23.9655306 C306.371469,23.3365306 306.973164,22.9485306 308,23.0055306 C307.608757,23.6115306 306.793785,23.7775306 306,23.9655306" id="Fill-138" fill="#BC8C24"></path>
            <path d="M309.972112,18.55655 C309.179283,18.3651439 308.756972,19.0954318 308,18.9894222 C308.361222,18.3887016 309.058433,18.1315303 309.873838,18 C309.915007,18.0372996 309.956175,18.0726362 310,18.1079727 C309.989376,18.2581528 309.978752,18.4093146 309.969456,18.5585131 L309.972112,18.55655 Z" id="Fill-140" fill="#BC8C24"></path>
            <path d="M102,69.936 C101.043011,69.968 100.366935,69.667 100,69 C100.740591,69.224 101.583333,69.328 102,69.936" id="Fill-142" fill="#BC8C24"></path>
            <path d="M194,74.0505891 C193.463255,74.5355891 192.761155,74.5925891 192,74.4975891 C192.507874,73.9385891 193.240157,73.9565891 194,74.0505891" id="Fill-144" fill="#BC8C24"></path>
            <path d="M192,75.0511468 C191.461086,75.5361468 190.759974,75.5941468 190,75.4951468 C190.506213,74.9301468 191.242642,74.9601468 192,75.0511468" id="Fill-146" fill="#BC8C24"></path>
            <path d="M123,80.029599 C123.690169,80.114599 124.568814,79.722599 125,80.460599 C124.290847,80.425599 123.444746,80.735599 123,80.029599" id="Fill-148" fill="#BC8C24"></path>
            <path d="M121,76.5053283 C120.236772,76.5893283 119.529101,76.5353283 119,76.0413283 C119.765873,75.9503283 120.488095,75.9713283 121,76.5053283" id="Fill-150" fill="#BC8C24"></path>
            <path d="M123,77.4903281 C122.24183,77.5863281 121.535948,77.5393281 121,77.0473281 C121.755556,76.9583281 122.484967,76.9413281 123,77.4903281" id="Fill-152" fill="#BC8C24"></path>
            <path d="M127,81.2309762 C127.775345,80.9559762 128.508516,80.8149762 129,81.4629762 C128.284672,81.5459762 127.59043,81.5589762 127,81.2309762" id="Fill-154" fill="#BC8C24"></path>
            <path d="M115,75.507506 C114.573088,75.581506 114.202323,75.522506 114,75.059506 C114.470474,74.882506 114.765731,75.120506 115,75.507506" id="Fill-156" fill="#BC8C24"></path>
            <path d="M117,75.4981388 C116.576996,75.5831388 116.208175,75.5311388 116,75.0641388 C116.455323,74.8961388 116.780418,75.0641388 117,75.4981388" id="Fill-158" fill="#BC8C24"></path>
            <path d="M294,32.522 C294.057,31.911 294.524,32.021 294.917,32 C294.826,32.551 294.395,32.504 294,32.522" id="Fill-160" fill="#BC8C24"></path>
            <path d="M279,42.513 C279.066,41.895 279.538,42.018 279.934,42 C279.843,42.573 279.392,42.488 279,42.513" id="Fill-162" fill="#BC8C24"></path>
            <path d="M284,53.512 C284.074,52.933 284.52,53.015 284.911,53 C284.81,53.532 284.388,53.491 284,53.512" id="Fill-164" fill="#BC8C24"></path>
            <path d="M105,74.0060857 C105.397,74.0120857 105.858,73.8920857 105.955,74.4900857 C105.571,74.4570857 105.112,74.5740857 105,74.0060857" id="Fill-166" fill="#BC8C24"></path>
            <path d="M107,74.0071784 C107.399,74.0111784 107.859,73.8921784 107.96,74.4881784 C107.579,74.4501784 107.109,74.5881784 107,74.0071784" id="Fill-168" fill="#BC8C24"></path>
            <path d="M268,48.5192125 C268.072,47.8902125 268.55,48.0132125 268.956,48.0042125 C268.87,48.6072125 268.38,48.4622125 268,48.5192125" id="Fill-170" fill="#BC8C24"></path>
            <path d="M108,75.0090382 C108.398,75.0110382 108.858,74.8890382 108.965,75.4840382 C108.581,75.4520382 108.115,75.5880382 108,75.0090382" id="Fill-172" fill="#BC8C24"></path>
            <path d="M270,48.4954446 C270.09,47.9004446 270.55,48.0134446 270.944,48.0014446 C270.846,48.5794446 270.387,48.4694446 270,48.4954446" id="Fill-174" fill="#BC8C24"></path>
            <path d="M271,47.487 C271.097,46.912 271.547,47.015 271.936,47 C271.821,47.542 271.392,47.479 271,47.487" id="Fill-176" fill="#BC8C24"></path>
            <path d="M276,44.497 C276.089,43.913 276.542,44.014 276.935,44 C276.827,44.55 276.391,44.48 276,44.497" id="Fill-178" fill="#BC8C24"></path>
            <path d="M278.894,48.03568 C278.783,48.59868 278.399,48.52468 278,48.41768 C278.152,47.94868 278.513,47.96868 278.894,48.03568" id="Fill-180" fill="#BC8C24"></path>
            <path d="M276.893,48.0296568 C276.787,48.5956568 276.406,48.5336568 276,48.4196568 C276.148,47.9456568 276.515,47.9746568 276.893,48.0296568" id="Fill-182" fill="#BC8C24"></path>
            <path d="M274.887,49.0306441 C274.784,49.5926441 274.402,49.5306441 274,49.4276441 C274.152,48.9736441 274.501,48.9626441 274.887,49.0306441" id="Fill-184" fill="#BC8C24"></path>
            <path d="M100,70.0030184 C100.362,69.9870184 100.691,70.0190184 100.719,70.4920184 C100.339,70.5360184 100.1,70.3720184 100,70.0030184" id="Fill-186" fill="#BC8C24"></path>
            <path d="M271.88,50.0146624 C271.705,50.4026624 271.432,50.5846624 271,50.4386624 C271.142,49.9836624 271.499,49.9756624 271.88,50.0146624" id="Fill-188" fill="#BC8C24"></path>
            <path d="M326.555,5.00879028 C326.561,5.39179028 326.364,5.52879028 326,5.46479028 C326.048,5.14679028 326.201,4.95579028 326.555,5.00879028" id="Fill-190" fill="#BC8C24"></path>
            <path d="M99,70.0042397 C99.309,69.9732397 99.479,70.1122397 99.51,70.4212397 C99.189,70.4662397 99.014,70.3352397 99,70.0042397" id="Fill-192" fill="#BC8C24"></path>
            <path d="M309,23.4410257 C309.022,23.1230257 309.195,22.9810257 309.51,23.0020257 C309.499,23.3320257 309.327,23.4770257 309,23.4410257" id="Fill-194" fill="#BC8C24"></path>
            <path d="M286,53.4418268 C286.019,53.1278268 286.191,52.9878268 286.499,53.0008268 C286.481,53.3158268 286.334,53.4838268 286,53.4418268" id="Fill-196" fill="#BC8C24"></path>
            <path d="M272.648,49.0264394 C272.59,49.4184394 272.354,49.5164394 272,49.4194394 C272.067,49.0434394 272.303,48.9454394 272.648,49.0264394" id="Fill-198" fill="#BC8C24"></path>
            <path d="M266.562,31.0102196 C266.562,31.3912196 266.349,31.5142196 266,31.4732196 C266.05,31.1532196 266.199,30.9512196 266.562,31.0102196" id="Fill-200" fill="#BC8C24"></path>
            <path d="M325.207,6 C325.138,6.066 325.069,6.132 325,6.199 C325.069,6.132 325.138,6.066 325.207,6" id="Fill-202" fill="#BC8C24"></path>
            <path d="M281.337705,120.128782 C281.280705,120.177782 281.234705,120.246782 281.172705,120.267782 C281.013705,120.319782 280.982705,120.203782 281.007705,120.090782 C281.017705,120.047782 281.120705,119.992782 281.173705,120.000782 C281.232705,120.008782 281.280705,120.081782 281.337705,120.128782" id="Fill-216" fill="#FDFDFD"></path>
            <path d="M234.959,58.0761426 C234.642,58.6421426 234.343,58.6451426 234,58.0851426 C234.319,58.0971426 234.638,57.8941426 234.959,58.0761426" id="Fill-222" fill="#FDFDFD"></path>
            <path d="M276,31.497 C276.088,31.116 276.403,31.064 276.712,31 C276.75,31.047 276.788,31.094 276.827,31.14 C276.677,31.455 276.404,31.562 276.079,31.58 L276,31.497 Z" id="Fill-226" fill="#BC8C24"></path>
            <path d="M276,32.482 C276.068,32.228 276.229,32.066 276.485,32 C276.484,32 276.563,32.083 276.563,32.083 C276.545,32.385 276.384,32.544 276.081,32.56 L276,32.482 Z" id="Fill-228" fill="#BC8C24"></path>
            <path d="M279.244,27 C279.162,27.083 279.081,27.166 279,27.25 C279.009,27.096 279.088,27.01 279.244,27" id="Fill-230" fill="#BC8C24"></path>
            <path d="M310,18.459 C310.007,18.306 310.015,18.153 310.022,18 C310.147,18.06 310.37,18.105 310.382,18.182 C310.42,18.449 310.188,18.445 310,18.459" id="Fill-232" fill="#BC8C24"></path>
        </g>
    </g>
</svg>