<?xml version="1.0" encoding="UTF-8"?>
<svg width="600px" height="250px" viewBox="0 0 600 250" version="1.1" xmlns="http://www.w3.org/2000/svg" xmlns:xlink="http://www.w3.org/1999/xlink">
    <!-- Generator: Sketch 50.1 (55044) - http://www.bohemiancoding.com/sketch -->
    <title>MGLU</title>
    <desc>Created with Sketch.</desc>
    <defs></defs>
    <g id="MGLU" stroke="none" stroke-width="1" fill="none" fill-rule="evenodd">
        <g id="Grid-Logo" opacity="0.400000006" transform="translate(1.000000, 0.000000)"></g>
        <g id="MGLU3" transform="translate(25.000000, 90.000000)" fill="#0086CD">
            <path d="M0,14.9779951 L13.7296898,14.9779951 L13.7296898,20.6503667 C15.745938,18.3031785 17.6661743,16.6405868 19.6824225,15.5647922 C21.6986706,14.5867971 24.1949778,14 26.9793205,14 C30.0516987,14 32.4519941,14.5867971 34.2762186,15.6625917 C36.1004431,16.7383863 37.4446086,18.400978 38.6927622,20.6503667 C40.9970458,18.1075795 43.1093058,16.4449878 44.9335303,15.4669927 C46.8537666,14.5867971 49.1580502,14.0977995 51.9423929,14.0977995 C55.9748892,14.0977995 59.3353028,15.2713936 61.5435746,17.8141809 C63.8478582,20.2591687 65,24.1711491 65,29.4523227 L65,53.9022005 L50.310192,53.9022005 L50.310192,31.603912 C50.310192,29.8435208 49.9261448,28.5721271 49.254062,27.7897311 C48.3899557,26.4205379 47.0457903,25.7359413 45.7016248,25.7359413 C43.8774003,25.7359413 42.5332349,26.3227384 41.4771049,27.6919315 C40.5169867,28.8655257 39.9409158,30.9193154 39.9409158,33.7555012 L39.9409158,53.9022005 L25.155096,53.9022005 L25.155096,32.4841076 C25.155096,30.7237164 25.0590842,29.5501222 24.8670606,28.9633252 C24.5790251,28.0831296 24.0029542,27.202934 23.1388479,26.6161369 C22.4667651,26.0293399 21.506647,25.7359413 20.450517,25.7359413 C18.7223043,25.7359413 17.3781388,26.3227384 16.4180207,27.6919315 C15.3618907,28.9633252 14.689808,31.1149144 14.689808,34.0488998 L14.689808,54 L0,54 L0,14.9779951 Z" id="Shape"></path>
            <path d="M86.4901961,27.2048193 L72.1764706,25.8554217 C72.6666667,23.3493976 73.4509804,21.4216867 74.5294118,20.0722892 C75.5098039,18.5301205 77.0784314,17.373494 78.8431373,16.4096386 C80.2156863,15.6385542 82.1764706,15.060241 84.5294118,14.5783133 C86.9803922,14.1927711 89.627451,14 92.372549,14 C96.8823529,14 100.509804,14.2891566 103.254902,14.7710843 C105.901961,15.253012 108.254902,16.313253 110.019608,17.8554217 C111.196078,18.8192771 112.27451,20.4578313 112.960784,22.4819277 C113.745098,24.5060241 114.039216,26.3373494 114.039216,28.1686747 L114.039216,45.1325301 C114.039216,46.9638554 114.137255,48.313253 114.431373,49.373494 C114.627451,50.3373494 115.117647,51.686747 116,53.2289157 L101.882353,53.2289157 C101.392157,52.2650602 101,51.3975904 100.803922,50.9156627 C100.705882,50.4337349 100.509804,49.6626506 100.313725,48.5060241 C98.3529412,50.3373494 96.4901961,51.686747 94.5294118,52.4578313 C91.8823529,53.4216867 88.745098,54 85.3137255,54 C80.6078431,54 77.0784314,53.0361446 74.627451,50.9156627 C72.1764706,48.6987952 71,46.0963855 71,43.0120482 C71,40.1204819 71.8823529,37.7108434 73.6470588,35.8795181 C75.4117647,33.9518072 78.6470588,32.6024096 83.254902,31.7349398 C88.9411765,30.6746988 92.4705882,29.8072289 94.2352941,29.4216867 C95.9019608,28.939759 97.6666667,28.3614458 99.5294118,27.5903614 C99.5294118,25.7590361 99.1372549,24.5060241 98.4509804,23.8313253 C97.6666667,23.060241 96.2941176,22.7710843 94.4313725,22.7710843 C91.9803922,22.7710843 90.2156863,23.1566265 88.9411765,23.8313253 C87.7647059,24.5060241 87.0784314,25.6626506 86.4901961,27.2048193 Z M99.4313725,35.0120482 C97.372549,35.686747 95.3137255,36.3614458 93.0588235,36.939759 C90.0196078,37.7108434 88.0588235,38.5783133 87.2745098,39.3493976 C86.3921569,40.1204819 86,41.0843373 86,42.0481928 C86,43.2048193 86.3921569,44.1686747 87.1764706,44.939759 C88.0588235,45.6144578 89.3333333,46 90.8039216,46 C92.5686275,46 94.0392157,45.6144578 95.5098039,44.8433735 C96.8823529,44.0722892 97.9607843,43.0120482 98.5490196,41.9518072 C99.1372549,40.7951807 99.4313725,39.253012 99.4313725,37.4216867 L99.4313725,35.0120482 Z" id="Shape"></path>
            <path d="M148.223235,14.9666081 L162,14.9666081 L162,51.2144112 L162,52.9543058 C162,55.4674868 161.52164,57.7873462 160.373576,59.8172232 C159.416856,62.0404218 158.077449,63.7803163 156.355353,65.2302285 C154.633257,66.486819 152.624146,67.5500879 150.041002,68.1300527 C147.362187,68.7100176 144.396355,69 141.143508,69 C133.394077,69 128.22779,67.8400703 125.261959,65.5202109 C122.3918,63.2003515 121.052392,60.1072056 121.052392,56.2407733 C121.052392,55.7574692 121.052392,55.1775044 121.148064,54.2108963 L135.307517,55.9507909 C135.690205,57.2073814 136.168565,58.1739895 137.029613,58.6572935 C137.986333,59.43058 139.421412,59.8172232 141.047836,59.8172232 C143.15262,59.8172232 144.683371,59.2372583 145.735763,58.0773286 C146.788155,56.9173989 147.362187,54.887522 147.362187,52.0843585 L147.362187,46.28471 C145.831435,48.0246046 144.492027,49.1845343 142.961276,49.9578207 C140.76082,51.1177504 138.273349,51.7943761 135.690205,51.7943761 C130.523918,51.7943761 126.505695,49.5711775 123.348519,45.1247803 C121.148064,41.9349736 120,37.6818981 120,32.4622144 C120,26.4692443 121.530752,21.9261863 124.400911,18.7363796 C127.271071,15.6432337 131.002278,14 135.690205,14 C138.656036,14 141.047836,14.483304 143.056948,15.5465729 C144.970387,16.513181 146.788155,18.2530756 148.414579,20.6695958 L148.414579,14.9666081 L148.223235,14.9666081 Z M134.637813,33.6221441 C134.637813,36.4253076 135.211845,38.5518453 136.359909,39.8084359 C137.507973,41.1616872 139.134396,41.8383128 141.047836,41.8383128 C142.961276,41.8383128 144.396355,41.258348 145.640091,39.8084359 C146.883827,38.4551845 147.553531,36.3286467 147.553531,33.5254833 C147.553531,30.7223199 146.979499,28.4991213 145.544419,27.0492091 C144.300683,25.6959578 142.67426,24.8260105 140.856492,24.8260105 C138.943052,24.8260105 137.507973,25.5026362 136.264237,26.9525483 C135.116173,28.2091388 134.637813,30.5289982 134.637813,33.6221441 Z" id="Shape"></path>
            <path d="M180.229258,27.2048193 L165.982533,25.8554217 C166.572052,23.3493976 167.259825,21.4216867 168.340611,20.0722892 C169.323144,18.5301205 170.895197,17.373494 172.860262,16.4096386 C174.137555,15.6385542 176.10262,15.060241 178.558952,14.5783133 C180.917031,14.1927711 183.569869,14 186.320961,14 C190.938865,14 194.475983,14.2891566 197.227074,14.7710843 C199.978166,15.253012 202.237991,16.313253 204.00655,17.8554217 C205.283843,18.8192771 206.364629,20.4578313 207.052402,22.4819277 C207.740175,24.5060241 208.133188,26.3373494 208.133188,28.1686747 L208.133188,45.1325301 C208.133188,46.9638554 208.231441,48.313253 208.427948,49.373494 C208.624454,50.3373494 209.115721,51.686747 210,53.2289157 L195.949782,53.2289157 C195.360262,52.2650602 195.065502,51.3975904 194.868996,50.9156627 C194.672489,50.4337349 194.475983,49.6626506 194.377729,48.5060241 C192.31441,50.3373494 190.447598,51.686747 188.482533,52.4578313 C185.829694,53.4216867 182.783843,54 179.246725,54 C174.530568,54 170.99345,53.0361446 168.537118,50.9156627 C166.179039,48.6987952 165,46.0963855 165,43.0120482 C165,40.1204819 165.786026,37.7108434 167.652838,35.8795181 C169.421397,33.9518072 172.565502,32.6024096 177.281659,31.7349398 C182.882096,30.6746988 186.517467,29.8072289 188.187773,29.4216867 C189.956332,28.939759 191.626638,28.3614458 193.49345,27.5903614 C193.49345,25.7590361 193.19869,24.5060241 192.412664,23.8313253 C191.724891,23.060241 190.349345,22.7710843 188.482533,22.7710843 C186.026201,22.7710843 184.159389,23.1566265 182.882096,23.8313253 C181.703057,24.5060241 180.917031,25.6626506 180.229258,27.2048193 Z M193.296943,35.0120482 C191.233624,35.686747 189.170306,36.3614458 186.91048,36.939759 C183.864629,37.7108434 181.899563,38.5783133 181.113537,39.3493976 C180.327511,40.1204819 179.934498,41.0843373 179.934498,42.0481928 C179.934498,43.2048193 180.327511,44.1686747 181.113537,44.939759 C181.899563,45.6144578 183.176856,46 184.748908,46 C186.419214,46 187.893013,45.6144578 189.366812,44.8433735 C190.938865,44.0722892 191.921397,43.0120482 192.412664,41.9518072 C193.002183,40.7951807 193.296943,39.253012 193.296943,37.4216867 L193.296943,35.0120482 Z" id="Shape"></path>
            <polygon id="Shape" points="213.343434 15 248.752525 15 248.752525 23.4974874 229.560606 43.0703518 250 43.0703518 250 53 212 53 212 43.5477387 230.232323 25.0251256 213.343434 25.0251256"></polygon>
            <path d="M255,0 L270,0 L270,9.83272727 L255,9.83272727 L255,0 Z M255,14.3709091 L270,14.3709091 L270,52 L255,52 L255,14.3709091 Z" id="Shape"></path>
            <path d="M278,14.9336609 L291.828979,14.9336609 L291.828979,20.9090909 C293.971496,18.4815725 296.016627,16.8009828 298.159145,15.6805897 C300.301663,14.6535627 302.833729,14 305.852732,14 C309.942993,14 313.254157,15.1203931 315.494062,17.5479115 C317.831354,19.8820639 319,23.4299754 319,28.3783784 L319,52 L304.099762,52 L304.099762,31.5528256 C304.099762,29.2186732 303.612827,27.6314496 302.736342,26.6044226 C301.859857,25.6707617 300.593824,25.1105651 299.035629,25.1105651 C297.185273,25.1105651 295.724466,25.6707617 294.555819,27.0712531 C293.387173,28.4717445 292.80285,30.7125307 292.80285,34.1670762 L292.80285,52 L278,52 L278,14.9336609 Z" id="Shape"></path>
            <path d="M369,37.6538462 L339.227766,37.6538462 C339.422993,40.0576923 340.106291,41.6923077 341.180043,42.9423077 C342.546638,44.5769231 344.498915,45.4423077 346.841649,45.4423077 C348.208243,45.4423077 349.672451,45.0576923 350.941432,44.3846154 C351.722343,43.9038462 352.698482,43.1346154 353.577007,41.9807692 L368.219089,43.2307692 C365.97397,47.0769231 363.240781,49.8653846 360.117137,51.5 C356.895879,53.2307692 352.308026,54 346.353579,54 C341.180043,54 337.177874,53.3269231 334.249458,51.8846154 C331.321041,50.5384615 328.880694,48.2307692 326.830803,45.1538462 C324.878525,41.9807692 324,38.3269231 324,34.0961538 C324,28.1346154 325.952278,23.2307692 329.759219,19.5769231 C333.663774,15.9230769 339.032538,14 345.86551,14 C351.429501,14 355.822126,14.7692308 359.140998,16.5 C362.264642,18.2307692 364.802603,20.5384615 366.364425,23.8076923 C368.121475,26.8846154 368.902386,30.9230769 368.902386,36.0192308 L368.902386,37.6538462 L369,37.6538462 Z M353.869848,30.6346154 C353.577007,27.8461538 352.893709,25.7307692 351.527115,24.5769231 C350.355748,23.4230769 348.696312,22.6538462 346.548807,22.6538462 C344.206074,22.6538462 342.35141,23.6153846 340.887202,25.4423077 C340.008677,26.5961538 339.32538,28.3269231 339.130152,30.6346154 L353.869848,30.6346154 Z" id="Shape"></path>
            <polygon id="Shape" points="374 0 389 0 389 52 374 52"></polygon>
            <path d="M438,52.1576355 L424.073634,52.1576355 L424.073634,46.0738916 C422.028504,48.6009852 419.983373,50.3793103 417.840855,51.408867 C415.698337,52.4384236 413.068884,53 410.049881,53 C405.95962,53 402.84323,51.8768473 400.408551,49.5369458 C398.071259,47.1970443 397,43.546798 397,38.679803 L397,15 L411.900238,15 L411.900238,35.4039409 C411.900238,37.8374384 412.387173,39.4285714 413.263658,40.4581281 C414.140143,41.3940887 415.406176,41.955665 416.964371,41.955665 C418.814727,41.955665 420.178147,41.3004926 421.249406,39.9901478 C422.418052,38.679803 423.002375,36.3399015 423.002375,32.8768473 L423.002375,15 L437.902613,15 L437.902613,52.1576355 L438,52.1576355 Z" id="Shape"></path>
            <path d="M445,0 L460,0 L460,9.83272727 L445,9.83272727 L445,0 Z M445,14.3709091 L460,14.3709091 L460,52 L445,52 L445,14.3709091 Z" id="Shape"></path>
            <polygon id="Shape" points="466.531486 15 501.851385 15 501.851385 23.4974874 482.612091 43.0703518 503 43.0703518 503 53 465 53 465 43.5477387 483.377834 25.0251256 466.531486 25.0251256"></polygon>
            <path d="M520.490196,27.2048193 L506.176471,25.8554217 C506.666667,23.3493976 507.45098,21.4216867 508.529412,20.0722892 C509.509804,18.5301205 510.980392,17.373494 512.843137,16.4096386 C514.215686,15.6385542 516.078431,15.060241 518.529412,14.5783133 C520.980392,14.1927711 523.529412,14 526.372549,14 C530.882353,14 534.509804,14.2891566 537.254902,14.7710843 C539.901961,15.253012 542.254902,16.313253 544.019608,17.8554217 C545.196078,18.8192771 546.27451,20.4578313 546.960784,22.4819277 C547.745098,24.5060241 548.039216,26.3373494 548.039216,28.1686747 L548.039216,45.1325301 C548.039216,46.9638554 548.137255,48.313253 548.431373,49.373494 C548.627451,50.3373494 549.117647,51.686747 550,53.2289157 L535.882353,53.2289157 C535.392157,52.2650602 535,51.3975904 534.803922,50.9156627 C534.705882,50.4337349 534.509804,49.6626506 534.313725,48.5060241 C532.352941,50.3373494 530.490196,51.686747 528.529412,52.4578313 C525.882353,53.4216867 522.745098,54 519.313725,54 C514.607843,54 511.078431,53.0361446 508.627451,50.9156627 C506.176471,48.6987952 505,46.0963855 505,43.0120482 C505,40.1204819 505.882353,37.7108434 507.647059,35.8795181 C509.411765,33.9518072 512.647059,32.6024096 517.254902,31.7349398 C522.843137,30.6746988 526.470588,29.8072289 528.235294,29.4216867 C529.901961,28.939759 531.666667,28.3614458 533.529412,27.5903614 C533.529412,25.7590361 533.137255,24.5060241 532.45098,23.8313253 C531.666667,23.060241 530.294118,22.7710843 528.431373,22.7710843 C525.980392,22.7710843 524.215686,23.1566265 522.941176,23.8313253 C521.764706,24.5060241 521.078431,25.6626506 520.490196,27.2048193 Z M533.431373,35.0120482 C531.372549,35.686747 529.313725,36.3614458 527.058824,36.939759 C524.019608,37.7108434 522.058824,38.5783133 521.27451,39.3493976 C520.392157,40.1204819 520,41.0843373 520,42.0481928 C520,43.2048193 520.392157,44.1686747 521.176471,44.939759 C521.960784,45.6144578 523.235294,46 524.803922,46 C526.568627,46 528.039216,45.6144578 529.509804,44.8433735 C530.882353,44.0722892 531.960784,43.0120482 532.54902,41.9518072 C533.137255,40.7951807 533.431373,39.253012 533.431373,37.4216867 L533.431373,35.0120482 Z" id="Shape"></path>
        </g>
    </g>
</svg>