<?xml version="1.0" encoding="UTF-8"?>
<svg width="600px" height="250px" viewBox="0 0 600 250" version="1.1" xmlns="http://www.w3.org/2000/svg" xmlns:xlink="http://www.w3.org/1999/xlink">
    <!-- Generator: Sketch 50.1 (55044) - http://www.bohemiancoding.com/sketch -->
    <title>MOVI</title>
    <desc>Created with Sketch.</desc>
    <defs>
        <polygon id="path-1" points="0.0199283763 0.541666667 24.2541537 0.541666667 24.2541537 24.6977386 0.0199283763 24.6977386"></polygon>
        <polygon id="path-3" points="0.0738600807 0.776384248 59.442 0.776384248 59.442 63.2906938 0.0738600807 63.2906938"></polygon>
        <polygon id="path-5" points="0.0199283763 0.541666667 24.2541537 0.541666667 24.2541537 24.6977386 0.0199283763 24.6977386"></polygon>
    </defs>
    <g id="MOVI" stroke="none" stroke-width="1" fill="none" fill-rule="evenodd">
        <g id="Grid-Logo" opacity="0.400000006"></g>
        <g id="Group" transform="translate(101.000000, 48.000000)">
            <path d="M54.8178216,53.0280735 C51.0690586,45.9351206 45.0574567,43.146144 37.5898888,43.166398 C30.3000725,43.186652 24.2245599,46.0161367 19.3793287,52.4062755 C19.1236858,50.1378269 18.8261015,48.576243 18.8041322,47.0106084 C18.7801657,45.2221796 18.079145,44.6368389 16.3216003,44.6996263 C12.8144996,44.8252011 9.29741295,44.7360835 5.78631789,44.7360835 C-0.0635099839,44.7360835 -0.0255629953,44.7360835 0.00439515361,50.654304 C0.0862807606,67.4712051 0.174157997,84.2881062 0.152188688,101.105007 C0.150191478,103.225602 0.529661365,104.068168 2.84043325,103.993229 C8.29880798,103.814993 13.769166,103.810943 19.2275407,103.995254 C21.5463014,104.072219 21.9317629,103.2175 21.9097936,101.109058 C21.8079359,91.2170016 21.8738439,81.3229198 21.855869,71.4288379 C21.8518746,69.4236913 22.0436067,67.4691797 22.9902842,65.680751 C24.4961805,62.8350632 26.7290612,61.1863871 30.0604074,61.4152574 C33.1161385,61.6238736 35.2711281,63.4285055 36.3376382,66.7501625 C36.9487844,68.6520137 37.0885891,70.6166522 37.0845947,72.607621 C37.0666198,82.1047244 37.1365221,91.6038531 37.03067,101.100957 C37.0067035,103.2175 37.3981566,104.066143 39.7149201,103.993229 C45.2711582,103.814993 50.8373822,103.8474 56.3936202,103.981076 C58.4667242,104.031711 59.0339318,103.361304 59.0139597,101.299446 C58.9180936,91.5066339 58.960035,81.7097713 58.9820043,71.9169594 C58.9859987,70.5356362 59.0099653,69.1320336 59.2516277,67.7810914 C59.9007209,64.1414466 62.6109347,61.6421022 65.9802279,61.4172828 C69.6231388,61.1722093 72.0217879,62.9687396 73.3079911,66.8757373 C74.0609393,69.1664654 74.1088723,71.5402349 74.1148639,73.9099536 C74.1368332,83.1113485 74.1568053,92.3127434 74.0948918,101.512113 C74.0849058,103.203322 74.4064566,104.013483 76.3257753,103.975 C82.1756032,103.863603 88.0314227,103.914238 93.885245,103.950695 C95.1634594,103.958797 95.8904438,103.683342 95.86448,102.164292 C95.6427897,89.3110997 96.549523,76.4214503 95.417105,63.6047154 C94.0050776,47.6303809 80.7456009,39.2675019 65.9942084,44.6105087 C61.4665335,46.2490577 57.9554384,49.2912094 54.8178216,53.0280735" id="Fill-1" fill="#FDFDFD"></path>
            <path d="M201.099508,81.8355493 C200.584076,81.0712197 200.33338,80.858109 200.289257,80.6081138 C198.151318,68.8993215 194.138169,57.7130603 191.113767,46.2522141 C190.867082,45.3116583 190.919227,44.0391417 189.278669,44.0514365 C181.581286,44.1067634 173.879891,44.0760262 166,44.0760262 C166.166462,44.7727342 166.216602,45.162071 166.350975,45.5186216 C173.378498,64.3522774 180.428082,83.1756876 187.411482,102.025737 C188.015159,103.652755 188.931705,104.015453 190.494046,103.994961 C196.661178,103.915045 202.830316,103.908897 208.997449,103.999059 C210.688146,104.023649 211.602686,103.572838 212.260514,101.85156 C219.320126,83.3498646 226.431882,64.868661 233.63389,46.4263911 C234.528375,44.1354513 233.724141,44.0206994 231.870993,44.04324 C225.605587,44.1149599 219.33617,44.2010238 213.076781,44.0043063 C210.700179,43.9284881 209.96614,44.8506016 209.452714,47.0267894 C206.751209,58.4671442 203.287587,69.7148797 201.099508,81.8355493" id="Fill-3" fill="#FDFDFD"></path>
            <path d="M235,74.6525243 C235.059742,91.9797394 239.635961,107.918008 248.963642,122.426597 C249.999166,124.039568 250.761869,124.503908 252.562088,123.389899 C256.459243,120.982663 260.50376,118.811669 264.548278,116.661042 C266.007968,115.885105 266.284772,115.30468 265.241282,113.820014 C258.159892,103.757276 253.958054,92.5296157 253.30886,80.1329587 C252.428665,63.2985957 254.700843,47.1953646 265.378688,33.4627116 C266.533696,31.9760088 265.936278,31.5829491 264.747417,30.9516095 C261.82007,29.3976997 258.918612,27.7969485 256.019145,26.1941607 C250.098736,22.9234147 250.120641,22.9295244 246.504273,28.8233844 C237.90345,42.8513413 235.318623,58.4515374 235,74.6525243" id="Fill-5" fill="#FDFDFD"></path>
            <g id="Group-9" transform="translate(255.000000, 0.000000)">
                <mask id="mask-2" fill="white">
                    <use xlink:href="#path-1"></use>
                </mask>
                <g id="Clip-8"></g>
                <path d="M12.0977083,0.541458333 C5.289375,0.553958333 -0.0502083333,5.97895833 0.020625,12.8102083 C0.089375,19.4477083 5.470625,24.7122917 12.170625,24.6977083 C18.8539583,24.6810417 24.220625,19.370625 24.2539583,12.739375 C24.2914583,5.91020833 18.926875,0.528958333 12.0977083,0.541458333" id="Fill-7" fill="#FDFDFD" mask="url(#mask-2)"></path>
            </g>
            <path d="M76.9440461,138.719298 C76.9440461,136.810953 76.8036213,134.890231 76.9791523,132.998391 C77.2021798,130.592845 75.5914253,131.123055 74.2677155,131.067352 C72.7973858,131.003397 71.4571555,130.87136 71.6430118,133.124238 C71.826803,135.418378 71.680183,137.7414 71.6781179,140.052044 C71.6781179,141.568405 70.99871,142.684528 69.4478425,142.721664 C67.8102421,142.762925 67.2857144,141.533332 67.2629986,140.070612 C67.2175671,137.55985 67.1390944,135.05115 67.1597451,132.542451 C67.1783307,130.423673 65.6109427,131.106551 64.5887331,131.114803 C63.5747838,131.125118 61.9495739,130.390664 62.0012006,132.511505 C62.0755431,135.717524 61.8401252,138.96893 62.2965056,142.119246 C62.930482,146.474397 66.7157551,148.166119 70.616672,146.164936 C71.4013986,145.762636 71.6843132,145.050876 72.8861838,146.185567 C74.6910549,147.889667 76.9357858,146.418694 76.941981,143.841914 C76.9481762,142.13575 76.9440461,140.427524 76.9440461,138.719298" id="Fill-10" fill="#FDFDFD"></path>
            <path d="M40.9614274,139.231484 C40.9614274,137.149463 40.8524858,135.061336 40.9907579,132.987455 C41.1374101,130.714124 39.5074754,131.359286 38.3258776,131.322652 C37.0772387,131.283983 35.6044314,130.878976 35.8034594,133.101427 C36.0066775,135.364582 35.8537402,137.658266 35.8453601,139.937703 C35.839075,141.517027 35.1833301,142.697449 33.4402637,142.79514 C31.6301563,142.894865 31.276096,141.439689 31.1985798,140.167682 C31.0540226,137.79666 31.1629643,135.411392 31.1231587,133.03223 C31.1105885,132.409455 31.3850376,131.693061 30.3961827,131.326723 C27.8297688,130.378314 26.0259466,131.538385 26.0238515,134.23911 C26.0196615,136.518547 25.9651907,138.802055 26.0364217,141.079456 C26.1914541,146.02095 30.1741093,148.351267 34.6993777,146.193943 C35.4158786,145.852027 35.6819476,144.950429 36.8928759,146.232612 C38.4452944,147.881133 40.9760927,146.320126 40.9635225,143.989809 C40.9551423,142.404379 40.9614274,140.816914 40.9614274,139.231484" id="Fill-12" fill="#FDFDFD"></path>
            <path d="M226.78414,131.002643 C223.088865,130.925535 220.530899,132.540743 220.167429,135.196908 C219.731656,138.405003 221.765914,139.774683 224.259394,140.712153 C224.527111,140.811581 224.777241,140.961739 225.044957,141.053051 C225.69764,141.278287 226.430441,141.558311 226.303422,142.394323 C226.156862,143.345997 225.302904,143.516446 224.527111,143.455571 C223.876383,143.406871 223.23738,143.16946 222.592514,143.005099 C221.597858,142.747396 220.462504,141.834276 220.126392,143.86749 C219.895804,145.273695 219.788326,146.22131 221.578317,146.614966 C223.688786,147.077614 225.705456,147.227771 227.73776,146.468867 C229.572695,145.785042 230.782307,144.571607 230.975766,142.420702 C231.169226,140.259651 230.192157,138.82098 228.482286,137.842926 C227.659594,137.370133 226.7177,137.128664 225.873512,136.686308 C225.392794,136.434692 224.681488,136.118144 224.830002,135.444464 C224.996104,134.689619 225.717181,134.488732 226.426533,134.551636 C226.989325,134.602365 227.62442,134.569898 228.095367,134.831659 C229.353832,135.52766 229.650861,134.961525 229.97134,133.752149 C231.020712,129.781091 227.698677,131.873151 226.78414,131.002643" id="Fill-14" fill="#FDFDFD"></path>
            <path d="M156.901783,131.000031 C155.094932,131.040481 152.224654,132.13668 150.825613,135.538537 C149.615843,138.487353 149.609989,141.561564 151.654891,144.166553 C153.867601,146.989973 156.964223,147.356047 160.207188,146.751317 C161.143784,146.577381 162.431605,146.516706 161.857939,144.775328 C161.510618,143.721601 161.754523,142.334161 159.891087,142.849901 C157.225689,143.590138 155.050054,141.84067 154.995419,139.021295 C154.956394,136.901707 156.019821,134.304808 159.978893,135.063248 C160.970124,135.253364 161.436471,135.043023 161.680376,133.833564 C162.174041,131.38633 161.824768,130.995986 156.901783,131.000031" id="Fill-16" fill="#FDFDFD"></path>
            <path d="M98.9673843,135.699143 C98.9673843,132.425151 98.8837844,129.149058 98.9963227,125.881366 C99.0702765,123.680504 98.0156317,123.997613 97.017256,124.039614 C96.0880111,124.077415 94.9770971,123.493599 95.0108586,125.799464 C95.1057124,132.240345 95.1201816,138.687527 95.0012125,145.126309 C94.9594125,147.421674 96.0060189,146.970161 96.9593792,146.94286 C97.8725473,146.917659 99.0734919,147.539277 98.994715,145.208211 C98.8837844,142.043422 98.9673843,138.868132 98.9673843,135.699143" id="Fill-18" fill="#FDFDFD"></path>
            <path d="M21.9609992,135.383319 C21.9609992,132.212293 21.8644463,129.037067 21.9947927,125.874442 C22.0832996,123.648424 21.0276543,124.007527 20.039596,124.041127 C19.0933774,124.070527 17.9781911,123.547623 18.007157,125.811441 C18.0843993,132.254294 18.0956638,138.699246 18.0007201,145.139998 C17.9685358,147.382816 19.0209627,146.977513 19.9881012,146.948113 C20.9101816,146.922913 22.078472,147.523518 21.9931835,145.198799 C21.8676647,141.935372 21.9609992,138.657246 21.9609992,135.383319" id="Fill-20" fill="#FDFDFD"></path>
            <path d="M180.085195,139.051454 C180.085195,140.740206 180.233661,142.445315 180.047556,144.115666 C179.804993,146.280786 180.455313,146.95138 182.809848,146.998404 C185.429948,147.049516 185.559593,145.869843 185.436221,143.960285 C185.325395,142.279711 185.423674,140.584825 185.413219,138.896072 C185.400673,137.154163 186.151364,136.078759 188.022863,135.878399 C188.721278,135.804797 189.842087,136.31592 189.827449,134.986999 C189.810721,133.721457 190.410855,132.196264 189.465696,131.272153 C188.878108,130.69765 187.539828,131.129038 186.613488,131.676963 C185.74988,132.186042 185.310757,133.046774 183.83865,131.793499 C181.990152,130.223327 180.083104,131.68923 180.085195,134.283693 L180.085195,139.051454 Z" id="Fill-22" fill="#FDFDFD"></path>
            <path d="M192.145805,139.144538 C192.178718,139.144538 192.209573,139.144538 192.242485,139.144538 C192.242485,140.840344 192.357678,142.544331 192.209573,144.225817 C192.042954,146.148685 192.407047,146.9792 194.702682,146.999656 C197.132023,147.022157 197.226646,145.940033 197.111453,144.148085 C197.002431,142.460462 197.002431,140.756474 197.115567,139.068851 C197.224589,137.4876 197.849923,136.18455 199.684786,135.894074 C200.54462,135.759065 201.931052,136.38911 201.838486,134.685123 C201.774718,133.533448 202.457649,132.040157 201.416797,131.311923 C200.404743,130.602098 199.05328,131.223962 198.084424,131.978789 C197.265729,132.612926 196.745303,133.70937 196.035631,131.772183 C195.881355,131.363063 193.719426,131.383519 192.629205,131.704678 C191.584239,132.011519 192.158147,133.232744 192.149919,134.073487 C192.13552,135.763156 192.145805,137.45487 192.145805,139.144538" id="Fill-24" fill="#FDFDFD"></path>
            <g id="Group-28" transform="translate(336.000000, 43.000000)">
                <mask id="mask-4" fill="white">
                    <use xlink:href="#path-3"></use>
                </mask>
                <g id="Clip-27"></g>
                <path d="M33.6762,35.1412842 C29.2042,35.4709684 26.5642,36.2463368 24.7222,37.5772842 C22.5302,39.1626175 21.9182,41.3686526 22.5222,43.8657053 C23.0742,46.1531439 24.8582,47.0119509 27.0402,47.4800211 C31.5262,48.4426175 37.3462,44.3419158 36.8322,38.4645825 C36.6042,35.8454246 36.4962,34.0972842 33.6762,35.1412842 Z M59.4422,62.1774246 C54.5022,61.3654246 49.5322,61.9576351 44.5762,61.8497754 C39.4582,61.7358105 39.4562,61.8233193 37.8282,56.8800912 C35.2642,58.8561614 32.8222,60.9054947 29.7242,61.8497754 C24.0582,63.5714596 18.3582,63.9174246 12.7442,61.9657754 C6.0662,59.6437404 1.5622,54.9508281 0.4122,47.7628982 C-0.8578,39.8423368 1.4002,33.0125825 7.9882,28.105986 C13.5202,23.9869684 19.9682,22.5074596 26.6102,21.7219158 C29.2202,21.4125825 31.8582,21.261986 34.4862,21.2090737 C36.5042,21.1683719 36.3622,20.1854246 35.5562,18.9826877 C34.0842,16.7807228 31.7002,16.4184772 29.3622,16.1986877 C22.6982,15.5657754 16.3442,16.9150386 10.3242,19.7682316 C8.6222,20.5761614 8.0262,20.3604421 7.5942,18.4963018 C6.7922,15.0285123 5.8422,11.589214 4.7902,8.19061754 C4.3902,6.90444211 4.4542,6.21047719 5.7662,5.67321404 C17.8702,0.703529825 30.2942,-0.9164 42.9442,2.84444211 C52.1062,5.56738947 57.6182,13.3638105 58.2322,23.2278807 C58.8022,32.3593193 58.2982,41.5050035 58.5562,50.6405123 C58.6342,53.2901965 58.1162,56.0701263 59.4422,58.5977053 L59.4422,62.1774246 Z" id="Fill-26" fill="#2C2B29" mask="url(#mask-4)"></path>
            </g>
            <path d="M53.69685,138.941886 C53.72808,136.989426 53.6364718,134.913419 51.1713784,134.917469 C48.7083669,134.919495 48.1483077,137.082593 48.1462257,138.986444 C48.1420617,140.823457 48.8915834,142.788069 51.1505583,142.771866 C53.6052418,142.751612 53.711424,140.695859 53.69685,138.941886 Z M46.2328635,153 C45.4104717,152.222257 43.8593782,152.025796 44.673442,150.140173 C45.2772234,148.74064 45.4354557,148.165435 47.2738658,148.74064 C51.450367,150.051057 53.2054969,148.983685 53.4365994,145.542576 C49.7243852,147.102114 47.0552553,146.771978 44.9399386,144.491408 C42.7788178,142.156153 42.3603349,137.819829 44.0030365,134.747338 C45.4187997,132.096125 48.1045856,130.664186 51.0235561,131.067235 C52.6725037,131.294077 54.0570368,132.327017 56.0286951,131.549274 C58.0690596,130.745201 59.2079162,131.71738 58.9684856,134.228843 C58.670759,137.366145 58.8373193,140.552057 58.9122715,143.71569 C59.0122077,147.867705 57.769251,151.229824 53.5573557,153 L46.2328635,153 Z" id="Fill-29" fill="#2C2B29"></path>
            <path d="M54.8178216,53.0280735 C57.9554384,49.2912094 61.4665335,46.2490577 65.9942084,44.6105087 C80.7456009,39.2675019 94.0050776,47.6303809 95.417105,63.6047154 C96.549523,76.4214503 95.6427897,89.3110997 95.86448,102.164292 C95.8904438,103.683342 95.1634594,103.958797 93.885245,103.950695 C88.0314227,103.914238 82.1756032,103.863603 76.3257753,103.975 C74.4064566,104.013483 74.0849058,103.203322 74.0948918,101.512113 C74.1568053,92.3127434 74.1368332,83.1113485 74.1148639,73.9099536 C74.1088723,71.5402349 74.0609393,69.1664654 73.3079911,66.8757373 C72.0217879,62.9687396 69.6231388,61.1722093 65.9802279,61.4172828 C62.6109347,61.6421022 59.9007209,64.1414466 59.2516277,67.7810914 C59.0099653,69.1320336 58.9859987,70.5356362 58.9820043,71.9169594 C58.960035,81.7097713 58.9180936,91.5066339 59.0139597,101.299446 C59.0339318,103.361304 58.4667242,104.031711 56.3936202,103.981076 C50.8373822,103.8474 45.2711582,103.814993 39.7149201,103.993229 C37.3981566,104.066143 37.0067035,103.2175 37.03067,101.100957 C37.1365221,91.6038531 37.0666198,82.1047244 37.0845947,72.607621 C37.0885891,70.6166522 36.9487844,68.6520137 36.3376382,66.7501625 C35.2711281,63.4285055 33.1161385,61.6238736 30.0604074,61.4152574 C26.7290612,61.1863871 24.4961805,62.8350632 22.9902842,65.680751 C22.0436067,67.4691797 21.8518746,69.4236913 21.855869,71.4288379 C21.8738439,81.3229198 21.8079359,91.2170016 21.9097936,101.109058 C21.9317629,103.2175 21.5463014,104.072219 19.2275407,103.995254 C13.769166,103.810943 8.29880798,103.814993 2.84043325,103.993229 C0.529661365,104.068168 0.150191478,103.225602 0.152188688,101.105007 C0.174157997,84.2881062 0.0862807606,67.4712051 0.00439515361,50.654304 C-0.0255629953,44.7360835 -0.0635099839,44.7360835 5.78631789,44.7360835 C9.29741295,44.7360835 12.8144996,44.8252011 16.3216003,44.6996263 C18.079145,44.6368389 18.7801657,45.2221796 18.8041322,47.0106084 C18.8261015,48.576243 19.1236858,50.1378269 19.3793287,52.4062755 C24.2245599,46.0161367 30.3000725,43.186652 37.5898888,43.166398 C45.0574567,43.146144 51.0690586,45.9351206 54.8178216,53.0280735" id="Fill-31" fill="#ED760B"></path>
            <path d="M307.168886,73.9235242 L307.01586,73.915415 C307.01586,72.7274065 307.116535,71.5292615 306.997739,70.3554442 C306.532619,65.6743666 303.425781,61.9542377 299.247759,60.9730157 C294.614684,59.8823185 289.544679,61.8751723 287.291568,65.9987375 C284.406215,71.277874 284.255203,76.7881248 286.933164,82.1970097 C289.065465,86.5010062 293.696526,88.6013078 298.577262,87.7924079 C303.019053,87.0585187 306.061459,83.8127823 306.762158,78.9411367 C306.999752,77.2827904 307.040022,75.5960617 307.168886,73.9235242 M308.987081,96.1490134 C301.760613,105.423994 292.719976,107.577006 282.529629,104.977984 C271.666771,102.208667 265.376582,94.5677052 263.020782,83.8188642 C261.208627,75.5494334 261.673747,67.2962211 265.5135,59.515374 C271.914432,46.5405376 287.287541,40.4342553 300.810238,45.4295673 C303.015026,46.2445492 304.89564,47.5400055 307.05613,49.703154 C307.05613,41.1316527 307.01586,33.3589149 307.084319,25.586177 C307.104454,23.2466518 306.035283,20.2016199 307.553466,18.7520874 C309.047486,17.3268827 312.043581,18.3729789 314.379247,18.3304052 C318.210946,18.2594491 322.058754,18.4986726 325.874345,18.2493125 C328.725468,18.0627992 329.637586,18.7216776 329.615437,21.8599662 C329.45637,45.013967 329.512749,68.1720226 329.548992,91.3280508 C329.555032,95.0785894 329.716112,98.83521 329.983909,102.575612 C330.098678,104.191385 329.613424,104.60293 328.079133,104.58063 C322.672873,104.503592 317.266613,104.493455 311.862366,104.586712 C310.183103,104.615094 309.611268,103.996762 309.56093,102.380989 C309.504552,100.517884 309.228702,98.6608606 308.987081,96.1490134" id="Fill-33" fill="#2C2B29"></path>
            <path d="M124.65527,74.1344567 C124.510608,77.3916636 125.030987,80.6791045 126.592124,83.7085488 C128.458658,87.3366258 131.402114,89.257491 135.597293,89.0942275 C139.585526,88.9370109 142.249705,86.8831162 143.674218,83.3074447 C146.143507,77.1135111 146.099304,70.8288755 143.54563,64.6813006 C142.026686,61.0250052 139.193735,58.9267673 135.101024,58.9570013 C131.072608,58.9872353 128.277831,61.0088804 126.517785,64.5603647 C125.041033,67.5333722 124.552801,70.7079396 124.65527,74.1344567 M168.999998,73.7293215 C168.99598,89.8339521 158.345289,102.02026 142.117099,104.392619 C131.146947,105.997035 120.705211,104.654647 111.766346,97.5617561 C101.838962,89.6827822 99.4540586,78.9517367 101.875127,67.0697846 C104.256011,55.3833455 111.860778,48.1836282 123.080068,44.888125 C131.020369,42.5580933 139.113367,42.2940499 147.154127,44.6039256 C161.148102,48.6250443 169.004017,59.134374 168.999998,73.7293215" id="Fill-35" fill="#ED760B"></path>
            <path d="M201.099508,81.8355493 C203.287587,69.7148797 206.751209,58.4671442 209.452714,47.0267894 C209.96614,44.8506016 210.700179,43.9284881 213.076781,44.0043063 C219.33617,44.2010238 225.605587,44.1149599 231.870993,44.04324 C233.724141,44.0206994 234.528375,44.1354513 233.63389,46.4263911 C226.431882,64.868661 219.320126,83.3498646 212.260514,101.85156 C211.602686,103.572838 210.688146,104.023649 208.997449,103.999059 C202.830316,103.908897 196.661178,103.915045 190.494046,103.994961 C188.931705,104.015453 188.015159,103.652755 187.411482,102.025737 C180.428082,83.1756876 173.378498,64.3522774 166.350975,45.5186216 C166.216602,45.162071 166.166462,44.7727342 166,44.0760262 C173.879891,44.0760262 181.581286,44.1067634 189.278669,44.0514365 C190.919227,44.0391417 190.867082,45.3116583 191.113767,46.2522141 C194.138169,57.7130603 198.151318,68.8993215 200.289257,80.6081138 C200.33338,80.858109 200.584076,81.0712197 201.099508,81.8355493" id="Fill-37" fill="#ED760B"></path>
            <path d="M235,74.6504877 C235.316652,58.4515374 237.901645,42.8513413 246.50302,28.8233844 C250.119621,22.9295244 250.097714,22.9234147 256.018504,26.1941607 C258.918157,27.7969485 261.819802,29.3976997 264.747337,30.949573 C265.936274,31.5829491 266.53373,31.9760088 265.378648,33.4627116 C254.700117,47.1953646 252.427793,63.2985957 253.308045,80.1329587 C253.95728,92.5296157 258.159388,103.757276 265.241234,113.820014 C266.28479,115.30468 266.007969,115.885105 264.548185,116.661042 C260.503407,118.811669 256.45863,120.982663 252.561225,123.389899 C250.760891,124.503908 249.998138,124.039568 248.962548,122.426597 C239.634267,107.918008 235.057754,91.9797394 235,74.6504877" id="Fill-39" fill="#ED760B"></path>
            <g id="Group-43" transform="translate(255.000000, 0.000000)">
                <mask id="mask-6" fill="white">
                    <use xlink:href="#path-5"></use>
                </mask>
                <g id="Clip-42"></g>
                <path d="M12.0977083,0.541458333 C18.926875,0.528958333 24.2914583,5.91020833 24.2539583,12.739375 C24.220625,19.370625 18.8539583,24.6810417 12.170625,24.6977083 C5.470625,24.7122917 0.089375,19.4477083 0.020625,12.8102083 C-0.0502083333,5.97895833 5.289375,0.553958333 12.0977083,0.541458333" id="Fill-41" fill="#ED760B" mask="url(#mask-6)"></path>
            </g>
            <path d="M120.862442,139.029019 C120.901009,137.046063 120.903039,134.873073 118.314977,134.755335 C115.866974,134.641728 115.272227,136.601963 115.24178,138.669608 C115.213362,140.714532 115.663989,142.68716 118.114021,142.79457 C120.570143,142.901981 120.823875,140.954139 120.862442,139.029019 M120.868531,131.677622 C120.868531,129.806207 121.014681,128.383023 120.836054,127.005281 C120.519397,124.569963 121.465308,123.888322 123.78137,124.014322 C125.455998,124.105208 125.9797,124.55757 125.963462,126.263738 C125.900536,132.51005 125.993909,138.756363 125.999999,145.002675 C126.002029,146.560122 123.146026,147.625961 121.802264,146.246154 C120.8868,145.308381 120.677725,145.632677 119.892172,146.066448 C116.143034,148.138224 112.229478,146.667532 110.747686,142.588012 C109.501356,139.159151 109.712461,135.817043 112.148284,132.956216 C114.484645,130.213126 117.427931,130.157355 120.868531,131.677622" id="Fill-44" fill="#2C2B29"></path>
            <path d="M76.9440461,138.719298 C76.9440461,140.427524 76.9481762,142.13575 76.941981,143.841914 C76.9357858,146.418694 74.6910549,147.889667 72.8861838,146.185567 C71.6843132,145.050876 71.4013986,145.762636 70.616672,146.164936 C66.7157551,148.166119 62.930482,146.474397 62.2965056,142.119246 C61.8401252,138.96893 62.0755431,135.717524 62.0012006,132.511505 C61.9495739,130.390664 63.5747838,131.125118 64.5887331,131.114803 C65.6109427,131.106551 67.1783307,130.423673 67.1597451,132.542451 C67.1390944,135.05115 67.2175671,137.55985 67.2629986,140.070612 C67.2857144,141.533332 67.8102421,142.762925 69.4478425,142.721664 C70.99871,142.684528 71.6781179,141.568405 71.6781179,140.052044 C71.680183,137.7414 71.826803,135.418378 71.6430118,133.124238 C71.4571555,130.87136 72.7973858,131.003397 74.2677155,131.067352 C75.5914253,131.123055 77.2021798,130.592845 76.9791523,132.998391 C76.8036213,134.890231 76.9440461,136.810953 76.9440461,138.719298" id="Fill-46" fill="#2C2B29"></path>
            <path d="M169.374567,143.458304 C170.364404,143.086332 171.314872,142.483899 171.312998,140.94547 C171.311123,140.312713 171.496718,139.409063 170.461888,139.605157 C169.254586,139.833596 167.803575,139.87605 167.683595,141.70963 C167.617981,142.712338 168.22913,143.286469 169.374567,143.458304 M171.251133,136.061313 C170.036333,133.782983 168.268499,134.444042 166.680635,134.929223 C165.508953,135.289066 164.820941,135.622628 164.339145,133.863846 C163.829229,131.987813 164.873432,131.967597 165.904513,131.561257 C167.408015,130.968932 168.950886,130.944673 170.501256,131.045752 C173.676984,131.255998 175.540427,133.204809 175.741019,136.635444 C175.905992,139.477797 175.937862,142.328236 175.999727,145.176654 C176.029722,146.49473 173.583249,147.535848 172.197852,146.363326 C171.299875,145.607252 171.048666,145.952944 170.381276,146.292571 C167.321779,147.847172 164.350393,146.765622 163.30619,143.773672 C162.316353,140.939405 163.780487,138.080879 166.916846,136.997308 C168.261,136.532343 169.700763,136.384767 171.251133,136.061313" id="Fill-48" fill="#2C2B29"></path>
            <path d="M132.907577,137.126627 C134.048545,137.126627 134.958848,137.227288 135.834139,137.094415 C136.554968,136.987715 137.916303,137.726567 137.838042,136.242822 C137.770078,134.994624 136.746502,134.46112 135.465487,134.527557 C134.050605,134.604059 133.35655,135.43552 132.907577,137.126627 M132.833435,140.530986 C134.132985,143.490423 136.505539,143.101871 138.756583,143.003224 C140.043776,142.946853 141.530742,142.15767 141.860263,144.450731 C142.193904,146.776003 140.410369,146.482072 139.224091,146.69346 C135.525213,147.353797 131.954024,147.164555 129.422888,143.921253 C127.515782,141.479214 127.561091,137.255473 129.346686,134.463133 C131.185827,131.590265 134.9918,130.283683 138.295253,131.392969 C141.225934,132.375422 143.207182,135.612684 142.982696,138.876117 C142.898256,140.10217 142.422509,140.58937 141.131197,140.553132 C138.453835,140.482669 135.774414,140.530986 132.833435,140.530986" id="Fill-50" fill="#2C2B29"></path>
            <path d="M212.901766,138.763668 C212.415359,137.170124 212.578841,134.645157 209.920759,134.67553 C207.351482,134.705902 207.040666,137.133677 207.028556,139.047145 C207.016447,140.889743 207.498817,143.17578 209.819845,143.248674 C212.39114,143.329667 212.584895,140.99301 212.901766,138.763668 M202.001008,139.249628 C201.936423,134.215893 204.979997,131.047029 209.922777,131.000457 C214.683912,130.955911 217.989863,134.169321 217.999955,138.854786 C218.014083,143.499753 214.730333,146.881225 210.094331,146.99664 C205.274666,147.116105 202.059538,144.040384 202.001008,139.249628" id="Fill-52" fill="#2C2B29"></path>
            <path d="M83.2611357,136.970378 L88.2765792,136.970378 C87.7828203,135.507406 87.2378415,134.437771 85.625442,134.540119 C84.146214,134.634439 83.3103067,135.397031 83.2611357,136.970378 Z M82.8780116,140.534491 C84.3121662,143.474483 86.6354966,143.09118 88.8809729,142.998867 C90.0262478,142.95271 91.4358169,142.115866 91.8496729,144.237075 C92.2717241,146.390393 90.8109353,146.426516 89.4730739,146.669341 C85.7791014,147.339619 82.1363488,147.229244 79.6573101,144.048434 C77.4773951,141.248919 77.5716396,138.029979 79.2188686,134.921415 C80.8783903,131.792782 84.6829976,130.29168 88.1618468,131.323186 C91.2739623,132.244316 93.3227546,135.812443 92.9580696,139.262167 C92.8146541,140.622791 92.0647961,140.534491 91.1551324,140.534491 L82.8780116,140.534491 Z" id="Fill-54" fill="#2C2B29"></path>
            <path d="M8.42830152,141.051855 C8.4094632,139.992198 8.33787755,139.346313 7.34321377,139.616777 C6.10176789,139.953849 4.62107524,140.04064 4.6248429,141.901598 C4.62861057,142.882537 5.38402756,143.558699 6.32406018,143.397228 C7.64274321,143.173186 8.40757936,142.254817 8.42830152,141.051855 M8.16268109,136.211748 C7.070058,133.670591 5.25215926,134.599052 3.67350729,134.938142 C2.72028784,135.141999 1.83300254,135.854492 1.39030181,134.197391 C1.0116514,132.786534 1.286691,132.015508 2.69579801,131.61183 C4.77554953,131.012367 6.86283639,130.73181 8.93882024,131.339346 C11.4386665,132.072023 12.7441627,133.97335 12.8232837,136.744604 C12.8911017,139.104105 12.5859207,141.51003 12.9250107,143.815035 C13.405388,147.084832 11.4876462,146.977857 9.74510072,146.515645 C8.56958899,146.202794 7.69172286,146.134169 6.55577162,146.596381 C3.87696124,147.684295 1.19626702,146.487388 0.33535539,144.033022 C-0.629167055,141.275896 0.535041677,138.526845 3.20820056,137.263331 C4.73222138,136.544783 6.382459,136.443863 8.16268109,136.211748" id="Fill-56" fill="#2C2B29"></path>
            <path d="M40.9614274,139.231484 C40.9614274,140.816914 40.9551423,142.404379 40.9635225,143.989809 C40.9760927,146.320126 38.4452944,147.881133 36.8928759,146.232612 C35.6819476,144.950429 35.4158786,145.852027 34.6993777,146.193943 C30.1741093,148.351267 26.1914541,146.02095 26.0364217,141.079456 C25.9651907,138.802055 26.0196615,136.518547 26.0238515,134.23911 C26.0259466,131.538385 27.8297688,130.378314 30.3961827,131.326723 C31.3850376,131.693061 31.1105885,132.409455 31.1231587,133.03223 C31.1629643,135.411392 31.0540226,137.79666 31.1985798,140.167682 C31.276096,141.439689 31.6301563,142.894865 33.4402637,142.79514 C35.1833301,142.697449 35.839075,141.517027 35.8453601,139.937703 C35.8537402,137.658266 36.0066775,135.364582 35.8034594,133.101427 C35.6044314,130.878976 37.0772387,131.283983 38.3258776,131.322652 C39.5074754,131.359286 41.1374101,130.714124 40.9907579,132.987455 C40.8524858,135.061336 40.9614274,137.149463 40.9614274,139.231484" id="Fill-58" fill="#2C2B29"></path>
            <path d="M226.78414,131.002643 C227.698677,131.873151 231.020712,129.781091 229.97134,133.752149 C229.650861,134.961525 229.353832,135.52766 228.095367,134.831659 C227.62442,134.569898 226.989325,134.602365 226.426533,134.551636 C225.717181,134.488732 224.996104,134.689619 224.830002,135.444464 C224.681488,136.118144 225.392794,136.434692 225.873512,136.686308 C226.7177,137.128664 227.659594,137.370133 228.482286,137.842926 C230.192157,138.82098 231.169226,140.259651 230.975766,142.420702 C230.782307,144.571607 229.572695,145.785042 227.73776,146.468867 C225.705456,147.227771 223.688786,147.077614 221.578317,146.614966 C219.788326,146.22131 219.895804,145.273695 220.126392,143.86749 C220.462504,141.834276 221.597858,142.747396 222.592514,143.005099 C223.23738,143.16946 223.876383,143.406871 224.527111,143.455571 C225.302904,143.516446 226.156862,143.345997 226.303422,142.394323 C226.430441,141.558311 225.69764,141.278287 225.044957,141.053051 C224.777241,140.961739 224.527111,140.811581 224.259394,140.712153 C221.765914,139.774683 219.731656,138.405003 220.167429,135.196908 C220.530899,132.540743 223.088865,130.925535 226.78414,131.002643" id="Fill-60" fill="#2C2B29"></path>
            <path d="M156.901783,131.000031 C161.824768,130.995986 162.174041,131.38633 161.680376,133.833564 C161.436471,135.043023 160.970124,135.253364 159.978893,135.063248 C156.019821,134.304808 154.956394,136.901707 154.995419,139.021295 C155.050054,141.84067 157.225689,143.590138 159.891087,142.849901 C161.754523,142.334161 161.510618,143.721601 161.857939,144.775328 C162.431605,146.516706 161.143784,146.577381 160.207188,146.751317 C156.964223,147.356047 153.867601,146.989973 151.654891,144.166553 C149.609989,141.561564 149.615843,138.487353 150.825613,135.538537 C152.224654,132.13668 155.094932,131.040481 156.901783,131.000031" id="Fill-62" fill="#2C2B29"></path>
            <path d="M98.9673843,135.699143 C98.9673843,138.868132 98.8837844,142.043422 98.994715,145.208211 C99.0734919,147.539277 97.8725473,146.917659 96.9593792,146.94286 C96.0060189,146.970161 94.9594125,147.421674 95.0012125,145.126309 C95.1201816,138.687527 95.1057124,132.240345 95.0108586,125.799464 C94.9770971,123.493599 96.0880111,124.077415 97.017256,124.039614 C98.0156317,123.997613 99.0702765,123.680504 98.9963227,125.881366 C98.8837844,129.149058 98.9673843,132.425151 98.9673843,135.699143" id="Fill-64" fill="#2C2B29"></path>
            <path d="M21.9609992,135.383319 C21.9609992,138.657246 21.8676647,141.935372 21.9931835,145.198799 C22.078472,147.523518 20.9101816,146.922913 19.9881012,146.948113 C19.0209627,146.977513 17.9685358,147.382816 18.0007201,145.139998 C18.0956638,138.699246 18.0843993,132.254294 18.007157,125.811441 C17.9781911,123.547623 19.0933774,124.070527 20.039596,124.041127 C21.0276543,124.007527 22.0832996,123.648424 21.9947927,125.874442 C21.8644463,129.037067 21.9609992,132.212293 21.9609992,135.383319" id="Fill-66" fill="#2C2B29"></path>
            <path d="M180.085195,139.051454 L180.085195,134.283693 C180.083104,131.68923 181.990152,130.223327 183.83865,131.793499 C185.310757,133.046774 185.74988,132.186042 186.613488,131.676963 C187.539828,131.129038 188.878108,130.69765 189.465696,131.272153 C190.410855,132.196264 189.810721,133.721457 189.827449,134.986999 C189.842087,136.31592 188.721278,135.804797 188.022863,135.878399 C186.151364,136.078759 185.400673,137.154163 185.413219,138.896072 C185.423674,140.584825 185.325395,142.279711 185.436221,143.960285 C185.559593,145.869843 185.429948,147.049516 182.809848,146.998404 C180.455313,146.95138 179.804993,146.280786 180.047556,144.115666 C180.233661,142.445315 180.085195,140.740206 180.085195,139.051454" id="Fill-68" fill="#2C2B29"></path>
            <path d="M192.145805,139.144538 C192.145805,137.45487 192.13552,135.763156 192.149919,134.073487 C192.158147,133.232744 191.584239,132.011519 192.629205,131.704678 C193.719426,131.383519 195.881355,131.363063 196.035631,131.772183 C196.745303,133.70937 197.265729,132.612926 198.084424,131.978789 C199.05328,131.223962 200.404743,130.602098 201.416797,131.311923 C202.457649,132.040157 201.774718,133.533448 201.838486,134.685123 C201.931052,136.38911 200.54462,135.759065 199.684786,135.894074 C197.849923,136.18455 197.224589,137.4876 197.115567,139.068851 C197.002431,140.756474 197.002431,142.460462 197.111453,144.148085 C197.226646,145.940033 197.132023,147.022157 194.702682,146.999656 C192.407047,146.9792 192.042954,146.148685 192.209573,144.225817 C192.357678,142.544331 192.242485,140.840344 192.242485,139.144538 C192.209573,139.144538 192.178718,139.144538 192.145805,139.144538" id="Fill-70" fill="#2C2B29"></path>
        </g>
    </g>
</svg>