<?xml version="1.0" encoding="UTF-8"?>
<svg width="600px" height="250px" viewBox="0 0 600 250" version="1.1" xmlns="http://www.w3.org/2000/svg" xmlns:xlink="http://www.w3.org/1999/xlink">
    <!-- Generator: Sketch 50.1 (55044) - http://www.bohemiancoding.com/sketch -->
    <title>MRFG</title>
    <desc>Created with Sketch.</desc>
    <defs>
        <polygon id="path-1" points="0 218.123767 291.339736 218.123767 291.339736 0.494551058 0 0.494551058"></polygon>
        <path d="M45.5575015,0.568051305 C47.4832405,0.349043573 49.4076054,0.240908505 51.3230389,0.240908505 C67.2881913,0.241592904 82.6054765,7.73371053 92.2987519,20.5839892 C93.6439524,22.3675334 94.8840376,24.2598971 95.9860302,26.2049595 L95.8135862,26.3048818 C87.6640623,13.2602338 73.3010588,4.41779659 56.7299478,3.99141591 C56.535519,3.98594072 56.3417771,3.98594072 56.1473483,3.98320312 C53.6087805,3.86001128 51.0447927,3.93803278 48.4787438,4.23027122 C40.1066228,5.18432365 32.0993136,8.36814856 25.3252194,13.4409151 C15.1517115,21.053487 8.56586281,32.1585478 6.77546832,44.7076909 C4.98713492,57.2568339 8.21066943,69.7491718 15.8545409,79.8817014 C25.9669033,93.2904498 42.6520609,100.435577 59.3969898,98.5267878 C61.0644063,98.3372092 62.7167082,98.0545524 64.3483993,97.690452 C74.8894671,95.7104853 84.2302973,90.2435048 91.0833997,82.5166382 L91.4839369,82.8430966 C88.7852917,86.2274505 85.6400783,89.2778175 82.1314273,91.9059103 C74.8585508,97.3489369 66.2638328,100.768195 57.276135,101.791372 C39.2993651,103.840463 21.38855,96.1697171 10.5341975,81.7754339 C2.32971132,70.8975936 -1.13084779,57.4874764 0.789394961,44.0164477 C2.71032473,30.5467878 9.78052799,18.627292 20.7008351,10.4535128 C27.9757727,5.01117067 36.5704906,1.59259685 45.5575015,0.568051305 Z" id="path-3"></path>
    </defs>
    <g id="MRFG" stroke="none" stroke-width="1" fill="none" fill-rule="evenodd">
        <g id="Grid-Logo" opacity="0.400000006"></g>
        <g id="MRFG3" transform="translate(154.000000, 17.000000)">
            <g id="Group-38">
                <path d="M23.3694814,209.864422 C23.3694814,209.864422 20.8919473,145.163974 43.5161073,84.1489942 C53.814432,56.373196 68.1004461,40.5996924 92.5563049,35.832522 C119.835976,30.512497 154.992776,33.5387928 165.145444,33.8275667 C195.033877,34.6568486 224.024324,34.5601333 276.176211,24.4221796 L282.34119,21.8273299 C282.34119,21.8273299 284.819411,86.5298357 262.195251,147.543443 C251.895552,175.313754 237.614347,191.093431 213.157114,195.858544 C185.874696,201.181998 150.717208,198.151587 140.565227,197.864185 C112.05847,197.079488 87.5071096,197.218731 39.6527755,205.414148 C31.0047661,206.891628 23.3694814,209.864422 23.3694814,209.864422 Z" id="Fill-1" fill="#98C93E"></path>
                <path d="M23.3694814,209.864422 C23.3694814,209.864422 31.0047661,206.891628 39.6527755,205.414148 C87.5071096,197.218731 112.05847,197.079488 140.565227,197.864185 C150.717208,198.151587 185.874696,201.181998 213.157114,195.858544 C237.614347,191.093431 251.895552,175.313754 262.195251,147.543443 C284.819411,86.5298357 282.34119,21.8273299 282.34119,21.8273299 C282.34119,21.8273299 274.704531,24.8008095 266.059957,26.281719 C218.204936,34.4757647 193.652888,34.6150072 165.14407,33.8296245 C154.992776,33.5429083 119.835976,30.512497 92.5549308,35.832522 C68.0970108,40.6024361 53.8123708,56.3779975 43.5154202,84.1489942 C20.8871379,145.163974 23.3694814,209.864422 23.3694814,209.864422" id="Fill-3" fill="#9ACA3C"></path>
                <path d="M272.064232,8.67508404 C271.990717,8.70320691 264.551931,11.573798 256.277682,12.9909166 C216.147263,19.8618152 193.444778,20.8097619 174.891442,20.8097619 C167.968637,20.8097619 161.394171,20.6547432 155.873654,20.5038399 C154.300976,20.4585689 152.123687,20.3467634 149.468891,20.2130082 C142.985804,19.881707 133.191781,19.3844123 122.472289,19.3844123 C106.875367,19.3844123 93.4997054,20.4503379 82.7176913,22.5533802 C58.536656,27.2684204 42.8208725,42.6715252 31.7612866,72.4968637 C9.22094776,133.288232 11.4332772,198.547708 11.4580113,199.200022 L11.5967972,202.79975 L14.9578889,201.491007 C15.0320913,201.462884 22.4708772,198.592979 30.7437525,197.178604 C70.8803548,190.304962 93.5697854,189.356329 112.114877,189.356329 C117.630585,189.356329 123.322181,189.450301 131.150529,189.664995 C132.725955,189.710952 134.905305,189.822071 137.566284,189.955141 C144.044562,190.28507 153.833776,190.781679 164.541588,190.781679 C180.144694,190.781679 193.519668,189.716439 204.306491,187.613397 C228.48684,182.899043 244.200562,167.495252 255.260148,137.669913 C277.805296,76.8819746 275.59228,11.6211267 275.566171,10.9667554 L275.428072,7.36977105 L272.064232,8.67508404 Z" id="Fill-5" fill="#1C75BC"></path>
                <path d="M257.150315,18.0462435 C262.472273,17.1339649 267.374438,15.6935249 270.492311,14.6673829 C270.599492,28.9037313 269.656847,84.075326 250.444621,135.887952 C239.936056,164.222092 225.843793,178.186129 203.319944,182.578785 C192.862221,184.620094 179.814287,185.653095 164.541656,185.653095 C153.961638,185.653095 144.253496,185.157858 137.828122,184.833416 C135.117675,184.696231 132.89504,184.583054 131.29488,184.537783 C123.415002,184.319659 117.680809,184.22706 112.114946,184.22706 C93.3438118,184.22706 70.3905506,185.183237 29.8753788,192.121357 C24.5527341,193.030892 19.6464471,194.474075 16.5299482,195.499531 C16.42208,181.266613 17.35648,126.123141 36.5796988,74.2782764 C47.0875765,45.9441362 61.1812141,31.9807855 83.7023153,27.5881295 C94.1614118,25.548878 107.205911,24.5131331 122.472358,24.5131331 C133.062682,24.5131331 142.777694,25.009056 149.209252,25.3362417 C151.913515,25.4734264 154.127219,25.5859179 155.731501,25.6318748 C161.284998,25.7827781 167.908932,25.9405405 174.892198,25.9405405 C193.671576,25.9405405 216.637205,24.9843628 257.150315,18.0462435" id="Fill-7" fill="#00447C"></path>
                <path d="M123.189922,77.6295629 L117.315569,77.6295629 C117.127315,77.6295629 116.952802,77.7180471 116.840124,77.8607192 L108.600228,88.4740181 L100.3514,77.8607192 C100.236661,77.7153034 100.062148,77.6295629 99.8738936,77.6295629 L94.0070984,77.6295629 C93.6711266,77.6295629 93.4038607,77.9005028 93.4038607,78.2311181 L93.4038607,108.499563 C93.4038607,108.836352 93.6711266,109.104548 94.0070984,109.104548 L100.76707,109.104548 C101.098232,109.104548 101.370308,108.836352 101.370308,108.499563 L101.370308,91.3816491 L107.612924,99.465947 C107.72835,99.6154784 107.904924,99.699847 108.091117,99.699847 L109.107964,99.699847 C109.294157,99.699847 109.470044,99.6154784 109.583409,99.465947 L115.823964,91.3816491 L115.823964,108.499563 C115.823964,108.836352 116.097414,109.104548 116.430637,109.104548 L123.189922,109.104548 C123.520397,109.104548 123.791098,108.836352 123.791098,108.499563 L123.791098,78.2311181 C123.791098,77.9005028 123.520397,77.6295629 123.189922,77.6295629" id="Fill-9" fill="#FFFFFF"></path>
                <path d="M139.676036,100.053372 L134.782116,100.053372 L137.109871,93.1927623 L139.676036,100.053372 Z M140.307443,86.3945716 C140.240798,86.2258343 140.077278,86.1147146 139.895895,86.1147146 L134.150709,86.1147146 C133.963142,86.1147146 133.798248,86.2313217 133.73229,86.4062323 L125.699198,108.615759 C125.646982,108.7502 125.667593,108.901789 125.753476,109.019768 C125.835236,109.137747 125.969899,109.208397 126.113495,109.208397 L131.362624,109.208397 C131.555,109.208397 131.720582,109.085617 131.783104,108.907962 L133.170276,104.823972 L141.454144,104.823972 L142.984224,108.919623 C143.050182,109.092476 143.217824,109.208397 143.401956,109.208397 L148.732845,109.208397 C148.740403,109.206339 148.744525,109.208397 148.751396,109.208397 C148.996676,109.208397 149.197297,109.011537 149.197297,108.763918 C149.197297,108.658286 149.160883,108.564315 149.097673,108.488177 L140.307443,86.3945716 Z" id="Fill-11" fill="#FFFFFF"></path>
                <path d="M156.426392,91.0743553 L158.491004,91.0743553 C160.144068,91.0743553 160.882656,91.7108925 160.882656,93.1410437 C160.882656,93.8303971 160.688218,94.3379807 160.292472,94.6946611 C159.886421,95.0616303 159.334025,95.2413423 158.601621,95.2413423 L156.426392,95.2413423 L156.426392,91.0743553 Z M166.266449,102.307043 C165.501065,100.418695 164.70339,99.1339599 163.842505,98.412368 C165.852152,97.1578134 166.869,95.3202236 166.869,92.9469272 C166.869,91.0640664 166.216294,89.4411707 164.934242,88.1180237 C163.644632,86.7893893 161.954468,86.1144403 159.91459,86.1144403 L151.02611,86.1144403 C150.780143,86.1144403 150.582957,86.3140441 150.582957,86.5554893 L150.582957,108.76433 C150.582957,109.011263 150.780143,109.208123 151.02611,109.208123 L155.985301,109.208123 C156.227145,109.208123 156.426392,109.011263 156.426392,108.76433 L156.426392,100.19577 L157.404764,100.19577 C157.943418,100.19577 158.444971,100.436529 158.935531,100.937254 C159.466628,101.47639 160.131701,102.756323 160.9122,104.74756 C161.720868,106.805332 162.293188,108.216963 162.611983,108.941298 C162.681376,109.104548 162.843522,109.208123 163.018722,109.208123 L168.458854,109.208123 C168.607258,109.208123 168.746731,109.134043 168.827804,109.011263 C168.908877,108.887796 168.922618,108.73072 168.866967,108.594221 C168.03219,106.622876 167.165122,104.531494 166.266449,102.307043 Z" id="Fill-13" fill="#FFFFFF"></path>
                <path d="M184.473714,86.1145089 L170.770326,86.1145089 C170.523672,86.1145089 170.325799,86.3141127 170.325799,86.5569297 L170.325799,108.764399 C170.325799,109.011331 170.523672,109.207505 170.770326,109.207505 L175.726081,109.207505 C175.972048,109.207505 176.16786,109.011331 176.16786,108.764399 L176.16786,100.099809 L184.473714,100.099809 C184.71762,100.099809 184.915493,99.9008913 184.915493,99.6580742 L184.915493,95.5871165 C184.915493,95.3429276 184.71762,95.1453816 184.473714,95.1453816 L176.16786,95.1453816 L176.16786,91.0737379 L184.473714,91.0737379 C184.71762,91.0737379 184.915493,90.8741341 184.915493,90.6299452 L184.915493,86.5569297 C184.915493,86.3141127 184.71762,86.1145089 184.473714,86.1145089" id="Fill-15" fill="#FFFFFF"></path>
                <path d="M193.790644,91.0743553 L195.85182,91.0743553 C197.506258,91.0743553 198.243472,91.7108925 198.243472,93.1410437 C198.243472,93.8303971 198.05247,94.3379807 197.659472,94.6946611 C197.251359,95.0616303 196.698277,95.2413423 195.965872,95.2413423 L193.790644,95.2413423 L193.790644,91.0743553 Z M203.629326,102.307043 C202.863943,100.418695 202.064893,99.1339599 201.205383,98.412368 C203.21503,97.1578134 204.228441,95.3202236 204.228441,92.9469272 C204.228441,91.0661242 203.579171,89.4439144 202.296432,88.1180237 C201.00751,86.7893893 199.322154,86.1144403 197.279528,86.1144403 L188.390361,86.1144403 C188.145768,86.1144403 187.945834,86.3140441 187.945834,86.5554893 L187.945834,108.76433 C187.945834,109.011263 188.145768,109.208123 188.390361,109.208123 L193.346117,109.208123 C193.59071,109.208123 193.790644,109.011263 193.790644,108.76433 L193.790644,100.19577 L194.771077,100.19577 C195.306296,100.19577 195.80991,100.436529 196.30047,100.937254 C196.830192,101.47639 197.495265,102.756323 198.273016,104.74756 C199.147641,106.967896 199.673928,108.262234 199.976921,108.9461 C200.04975,109.104548 200.207086,109.208123 200.38366,109.208123 L205.821044,109.208123 C205.968761,109.208123 206.110296,109.134043 206.189994,109.011263 C206.271067,108.887796 206.287557,108.73072 206.231905,108.594221 C205.397816,106.622876 204.529373,104.531494 203.629326,102.307043 Z" id="Fill-17" fill="#FFFFFF"></path>
                <path d="M213.25873,86.1145089 L208.301601,86.1145089 C208.057008,86.1145089 207.856387,86.3141127 207.856387,86.5569297 L207.856387,108.764399 C207.856387,109.011331 208.057008,109.207505 208.301601,109.207505 L213.25873,109.207505 C213.50401,109.207505 213.699822,109.011331 213.699822,108.764399 L213.70257,86.5569297 C213.70257,86.4396368 213.657224,86.3271452 213.572716,86.2441485 C213.488208,86.1632095 213.378966,86.1145089 213.25873,86.1145089" id="Fill-19" fill="#FFFFFF"></path>
                <path d="M237.243748,96.5439802 L229.397536,96.5439802 C229.152943,96.5439802 228.952322,96.74427 228.952322,96.987087 L228.952322,101.060788 C228.952322,101.30292 229.152943,101.49978 229.397536,101.49978 L231.831098,101.49978 L231.831098,103.366178 C230.880209,103.783906 229.923823,103.999972 228.984614,103.999972 C227.054665,103.999972 225.481301,103.432027 224.307804,102.312599 C223.139117,101.194544 222.548247,99.7033452 222.551682,97.8925064 C222.551682,95.9602591 223.13156,94.4155587 224.321545,93.1767803 C225.486797,91.9585796 227.196887,91.3419341 229.397536,91.3419341 C231.73491,91.3419341 234.162976,92.0155113 236.626082,93.3379724 C236.761432,93.4113662 236.928388,93.4086225 237.062364,93.3283694 C237.194967,93.2488023 237.27604,93.1040724 237.27604,92.9476817 L237.27604,88.1036879 C237.27604,87.940438 237.187409,87.787477 237.043814,87.7127113 C234.683767,86.4650159 231.975381,85.8319083 228.984614,85.8319083 C225.342515,85.8319083 222.327014,86.9451626 220.022618,89.1394328 C217.718223,91.3398764 216.546101,94.2214422 216.551597,97.7011337 C216.546101,101.108803 217.714788,103.956073 220.022618,106.167491 C222.324952,108.376166 225.29923,109.495593 228.865752,109.495593 C230.483776,109.495593 232.145771,109.206133 233.796087,108.634073 C235.47251,108.056525 236.742882,107.289662 237.578345,106.355434 C237.649112,106.273809 237.688962,106.169549 237.688962,106.059801 L237.688962,96.987087 C237.688962,96.74427 237.490402,96.5439802 237.243748,96.5439802" id="Fill-21" fill="#FFFFFF"></path>
                <path d="M124.133322,115.878183 C121.679835,115.878183 119.65576,116.69649 118.113313,118.314584 C116.570866,119.931993 115.78968,122.056299 115.78968,124.631256 C115.78968,127.147911 116.570866,129.24478 118.113313,130.868362 C119.65576,132.493315 121.655788,133.317109 124.052936,133.317109 C125.147421,133.317109 126.267327,133.100358 127.385172,132.678514 C128.475534,132.262845 129.302066,131.724394 129.844842,131.076196 L129.844842,124.197753 L124.550367,124.197753 L124.550367,127.107441 L126.582687,127.107441 L126.582687,129.320917 L126.516042,129.355214 C125.723176,129.772941 124.920005,129.984892 124.133322,129.984892 C122.648588,129.984892 121.435242,129.497886 120.522828,128.541022 C119.610414,127.580043 119.149398,126.315199 119.149398,124.7753 C119.149398,123.172982 119.609727,121.834745 120.518019,120.797628 C121.431807,119.751595 122.745464,119.22069 124.426696,119.22069 C126.088692,119.22069 127.811148,119.726215 129.552842,120.721491 L129.552842,117.244543 C127.962988,116.338438 126.140221,115.878183 124.133322,115.878183" id="Fill-23" fill="#FFFFFF"></path>
                <mask id="mask-2" fill="white">
                    <use xlink:href="#path-1"></use>
                </mask>
                <g id="Clip-26"></g>
                <polygon id="Fill-25" fill="#FFFFFF" mask="url(#mask-2)" points="132.868245 133.09391 135.608235 133.09391 135.608235 116.102206 132.868245 116.102206"></polygon>
                <path d="M143.166295,131.393848 C141.63484,131.393848 140.857777,130.041206 140.857777,127.376392 C140.857777,126.095772 141.053589,125.136851 141.454144,124.446126 C141.860196,123.74031 142.434577,123.381572 143.166295,123.381572 C144.670266,123.381572 145.433589,124.700603 145.433589,127.300255 C145.433589,130.015827 144.670266,131.393848 143.166295,131.393848 M143.166295,121.444523 C141.676064,121.444523 140.415311,121.988461 139.42045,123.059874 C138.424902,124.135402 137.917852,125.586817 137.917852,127.376392 C137.917852,129.132357 138.414596,130.577598 139.392968,131.671647 C140.363095,132.765009 141.63484,133.317178 143.166295,133.317178 C144.580949,133.317178 145.815593,132.797248 146.840685,131.771106 C147.86509,130.747022 148.384506,129.274343 148.384506,127.399713 C148.384506,125.528513 147.872648,124.054463 146.864732,123.013231 C145.858191,121.972684 144.615302,121.444523 143.166295,121.444523" id="Fill-27" fill="#FFFFFF" mask="url(#mask-2)"></path>
                <path d="M155.22878,131.108503 C154.617985,131.108503 153.992761,130.762798 153.366851,130.08099 L153.335246,130.044636 L153.335246,124.536668 L153.375783,124.498942 C154.006503,123.937856 154.615924,123.652512 155.188244,123.652512 C155.925458,123.652512 156.52526,123.980383 156.975971,124.624466 C157.414314,125.258259 157.63486,126.155448 157.63486,127.294081 C157.63486,128.464953 157.42462,129.401239 157.007576,130.069329 C156.579538,130.757996 155.98111,131.108503 155.22878,131.108503 Z M153.335246,132.053706 L153.540677,132.237534 C154.343848,132.953638 155.210917,133.317178 156.113712,133.317178 C157.360037,133.317178 158.398183,132.760208 159.195858,131.662044 C160.007274,130.54879 160.418136,129.097375 160.418136,127.350327 C160.418136,125.606709 159.990098,124.169012 159.148451,123.076336 C158.315048,121.994634 157.221938,121.444523 155.903472,121.444523 C155.08862,121.444523 154.293693,121.736041 153.533119,122.307415 L153.335246,122.457633 L153.335246,116.101177 L150.593881,116.101177 L150.593881,133.094253 L153.335246,133.094253 L153.335246,132.053706 Z" id="Fill-28" fill="#FFFFFF" mask="url(#mask-2)"></path>
                <path d="M165.960708,131.393848 C165.652905,131.393848 165.390449,131.253919 165.176087,130.978864 C164.974091,130.713411 164.871032,130.394457 164.871032,130.030917 C164.871032,129.466402 165.073028,128.997916 165.468774,128.631633 C165.853527,128.279068 166.53715,127.893579 167.562242,127.450472 L167.736755,127.376392 L167.736755,130.436298 L167.702402,130.471966 C167.145197,131.083124 166.559136,131.393848 165.960708,131.393848 Z M167.834317,131.902117 L167.874854,132.109266 C168.037687,132.922086 168.544049,133.317178 169.421423,133.317178 C170.247268,133.317178 171.145254,132.979018 172.094082,132.316415 L172.094082,130.607779 C171.663296,130.952799 171.335569,131.122222 171.093037,131.122222 C170.809969,131.122222 170.474684,130.959658 170.474684,130.180449 L170.474684,124.865911 C170.474684,122.563951 169.20019,121.444523 166.576312,121.444523 C165.136237,121.444523 163.795098,121.90272 162.584501,122.803338 L162.584501,125.388585 C163.611654,124.235547 164.747362,123.652512 165.960708,123.652512 C166.544708,123.652512 166.990609,123.812332 167.290854,124.127171 C167.62339,124.474248 167.772482,125.0175 167.736755,125.734976 L167.731258,125.815915 L167.654308,125.844038 C164.993329,126.808447 163.382176,127.605491 162.862072,128.211161 C162.350901,128.807915 162.09188,129.607016 162.09188,130.585144 C162.09188,131.308107 162.341282,131.950818 162.835277,132.497499 C163.332021,133.048296 163.918769,133.317178 164.625065,133.317178 C165.633668,133.317178 166.659447,132.887104 167.673545,132.037244 L167.834317,131.902117 Z" id="Fill-29" fill="#FFFFFF" mask="url(#mask-2)"></path>
                <polygon id="Fill-30" fill="#FFFFFF" mask="url(#mask-2)" points="173.640376 133.09391 176.381054 133.09391 176.381054 116.102206 173.640376 116.102206"></polygon>
                <polygon id="Fill-31" fill="#FFFFFF" mask="url(#mask-2)" points="182.613846 133.09391 185.865695 133.09391 185.865695 126.022036 192.040293 126.022036 192.040293 123.112347 185.865695 123.112347 185.865695 119.013266 192.040293 119.013266 192.040293 116.102206 182.613846 116.102206"></polygon>
                <path d="M198.887864,131.393848 C197.357784,131.393848 196.580034,130.041206 196.580034,127.376392 C196.580034,126.095772 196.775846,125.136851 197.173653,124.446126 C197.580392,123.74031 198.158208,123.381572 198.887864,123.381572 C200.391149,123.381572 201.155846,124.700603 201.155846,127.300255 C201.155846,130.015827 200.391149,131.393848 198.887864,131.393848 M198.887864,121.444523 C197.394886,121.444523 196.135507,121.988461 195.141333,123.059874 C194.145097,124.135402 193.639422,125.586817 193.639422,127.376392 C193.639422,129.130299 194.133417,130.574855 195.111789,131.671647 C196.085352,132.765009 197.355723,133.317178 198.887864,133.317178 C200.301144,133.317178 201.537163,132.797248 202.563629,131.771106 C203.585973,130.747022 204.103328,129.274343 204.103328,127.399713 C204.103328,125.531257 203.59353,124.055149 202.584241,123.013231 C201.579074,121.972684 200.333436,121.444523 198.887864,121.444523" id="Fill-32" fill="#FFFFFF" mask="url(#mask-2)"></path>
                <path d="M211.130428,131.393848 C209.598287,131.393848 208.821224,130.041206 208.821224,127.376392 C208.821224,126.11635 209.022532,125.131363 209.416216,124.446126 C209.820894,123.74031 210.397336,123.381572 211.130428,123.381572 C212.6344,123.381572 213.396348,124.700603 213.396348,127.300255 C213.396348,130.015827 212.6344,131.393848 211.130428,131.393848 M211.130428,121.444523 C209.639511,121.444523 208.380132,121.988461 207.382522,123.059874 C206.3856,124.135402 205.882673,125.586817 205.882673,127.376392 C205.882673,129.130299 206.378042,130.574855 207.353666,131.671647 C208.327228,132.765009 209.598287,133.317178 211.130428,133.317178 C212.543708,133.317178 213.77904,132.797248 214.804132,131.771106 C215.826475,130.747022 216.346579,129.275715 216.346579,127.399713 C216.346579,125.528513 215.834033,124.054463 214.828179,123.013231 C213.822325,121.972684 212.577374,121.444523 211.130428,121.444523" id="Fill-33" fill="#FFFFFF" mask="url(#mask-2)"></path>
                <path d="M223.271376,131.108503 C222.538971,131.108503 221.946727,130.762798 221.507696,130.083733 C221.079658,129.418387 220.863922,128.530802 220.863922,127.443613 C220.863922,126.263824 221.081032,125.330967 221.513192,124.671109 C221.954971,123.995474 222.581569,123.652512 223.373748,123.652512 C223.970802,123.652512 224.558237,123.891899 225.123687,124.362443 L225.167658,124.396053 L225.167658,130.069329 L225.135367,130.104997 C224.542435,130.771715 223.915837,131.108503 223.271376,131.108503 M222.567141,121.444523 C221.2686,121.444523 220.186482,121.997378 219.351018,123.090054 C218.51212,124.18959 218.084082,125.631402 218.084082,127.376392 C218.084082,129.077483 218.504562,130.51175 219.333155,131.636665 C220.154877,132.751977 221.189588,133.317178 222.406369,133.317178 C223.357945,133.317178 224.215395,132.93992 224.955357,132.193635 L225.167658,131.978941 L225.167658,133.094253 L227.906275,133.094253 L227.906275,116.101177 L225.167658,116.101177 L225.167658,122.282722 L224.979404,122.167487 C224.187912,121.68734 223.377183,121.444523 222.567141,121.444523" id="Fill-34" fill="#FFFFFF" mask="url(#mask-2)"></path>
                <path d="M230.335577,132.515813 C231.291276,133.046032 232.394006,133.316972 233.612848,133.316972 C234.814514,133.316972 235.750288,132.997332 236.394062,132.364224 C237.036462,131.731116 237.362815,130.818838 237.362815,129.647966 C237.362815,128.91197 237.158072,128.222616 236.75889,127.601855 C236.355587,126.982466 235.656161,126.422752 234.675728,125.944663 C233.653384,125.446683 233.074881,125.12567 232.906552,124.956247 C232.732039,124.780651 232.644095,124.596823 232.644095,124.406136 C232.644095,123.940394 232.851587,123.382052 233.845074,123.382052 C234.784283,123.382052 235.807314,123.7744 236.889432,124.544693 L236.889432,122.255079 C236.016867,121.718687 235.026128,121.444317 233.944697,121.444317 C232.800057,121.444317 231.871841,121.770131 231.177224,122.412156 C230.486043,123.054866 230.135643,123.897181 230.135643,124.916464 C230.135643,125.603073 230.317714,126.238925 230.679794,126.800696 C231.042561,127.363154 231.730307,127.889943 232.721733,128.36666 C233.758504,128.866699 234.359681,129.211032 234.553432,129.420925 C234.752679,129.642479 234.853676,129.883238 234.853676,130.136344 C234.853676,130.790715 234.324641,131.122016 233.280312,131.122016 C232.484697,131.122016 231.495333,130.817466 230.335577,130.215225 L230.335577,132.515813 Z" id="Fill-35" fill="#FFFFFF" mask="url(#mask-2)"></path>
                <path d="M115.536361,161.227486 C84.0924273,162.384639 57.6653967,137.872467 56.512512,106.482536 C55.3520696,75.0912333 79.9048038,48.7071745 111.346677,47.5513929 C115.366658,47.4039192 119.305566,47.676231 123.11943,48.3285445 C129.474724,49.4164197 135.484427,51.5606175 140.954103,54.5786822 C131.422536,48.8244674 120.161641,45.6836224 108.200634,46.1226136 C75.5399191,47.3236662 50.0349214,74.7297515 51.2386485,107.338569 C52.4375661,139.944642 79.8896885,165.405448 112.552465,164.208511 C129.875966,163.571288 145.184324,155.562441 155.562347,143.315272 C157.765745,140.714935 157.450385,140.668978 155.073161,143.20964 C145.156841,153.811278 131.204051,160.653368 115.536361,161.227486" id="Fill-36" fill="#FFFFFF" mask="url(#mask-2)"></path>
                <path d="M107.395676,54.0709614 C98.4068856,55.0977893 89.8117798,58.5239787 82.5372009,63.9791306 C71.6164009,72.1711185 64.5451915,84.1171674 62.6241751,97.6161477 C60.7038456,111.117872 64.165248,124.557177 72.3701045,135.459249 C83.2249468,149.886285 101.13657,157.572747 119.114152,155.520463 C128.102255,154.495007 136.697361,151.068131 143.971253,145.612979 C147.479375,142.978346 150.62473,139.922556 153.32281,136.529291 L152.922942,136.201419 C146.068156,143.946871 136.727592,149.424658 126.186735,151.410407 C124.55497,151.775319 122.902594,152.058605 121.235102,152.248606 C104.490104,154.160276 87.8035068,147.000603 77.690688,133.561984 C70.0464715,123.406197 66.8234786,110.886029 68.6112056,98.3089307 C70.4009939,85.731832 76.9885139,74.6034043 87.1617939,66.973188 C93.9368809,61.8904926 101.943864,58.6988892 110.316363,57.7420255 C112.881841,57.4484501 115.445944,57.3709408 117.986001,57.494407 C118.179752,57.4964648 118.373502,57.4964648 118.56794,57.5019522 C135.139799,57.9292827 149.504137,66.7921041 157.653342,79.8658117 L157.825794,79.7649809 C156.723752,77.8162714 155.48361,75.9190061 154.138349,74.1321747 C144.444636,61.2518976 129.125973,53.7437757 113.161474,53.7437757 C111.245267,53.7437757 109.321502,53.8514657 107.395676,54.0709614" id="Fill-37" fill="#FFFFFF" mask="url(#mask-2)"></path>
            </g>
            <g id="Group-41" transform="translate(62.000000, 54.000000)">
                <mask id="mask-4" fill="white">
                    <use xlink:href="#path-3"></use>
                </mask>
                <g id="Clip-40"></g>
                <polygon id="Fill-39" fill="#FFFFFF" mask="url(#mask-4)" points="0.106764123 -10.6112668 107.65135 1.56145669 94.7482809 114.691269 -12.7963053 102.517862"></polygon>
            </g>
        </g>
    </g>
</svg>