<?xml version="1.0" encoding="UTF-8"?>
<svg width="600px" height="250px" viewBox="0 0 600 250" version="1.1" xmlns="http://www.w3.org/2000/svg" xmlns:xlink="http://www.w3.org/1999/xlink">
    <!-- Generator: Sketch 50.1 (55044) - http://www.bohemiancoding.com/sketch -->
    <title>MRVE</title>
    <desc>Created with Sketch.</desc>
    <defs></defs>
    <g id="MRVE" stroke="none" stroke-width="1" fill="none" fill-rule="evenodd">
        <g id="Grid-Logo" opacity="0.400000006" transform="translate(1.000000, 0.000000)"></g>
        <g id="mrv-engenharia" transform="translate(135.000000, 61.000000)">
            <path d="M10.3279264,91.4785536 L9.5914654,98.2360837 L24.4360032,98.2360837 L23.7991347,104.089345 L8.95459699,104.089345 L8.13339492,111.630458 L23.9275568,111.630458 L23.2225461,118.109012 L0,118.109012 L3.60455289,85 L26.6925616,85 L25.9875509,91.4785536 L10.3279264,91.4785536 Z M38.7808307,94.494824 L44.8743248,94.494824 L44.5641899,96.3925644 C46.0956444,94.9583274 48.2202864,94.2412089 50.9372421,94.2412089 C51.4954848,94.2412089 52.0327606,94.2700685 52.5464487,94.3260388 C53.5345121,94.4336065 54.4072577,94.6478676 55.1664328,94.9679473 C55.9509428,95.299396 56.6087781,95.741036 57.1416858,96.2954911 C58.4713343,97.677256 58.9911377,99.7000549 58.7010961,102.362139 L56.9870552,118.109012 L50.2558192,118.109012 L51.8868662,103.130855 L51.9340417,101.64502 C51.9069595,101.063455 51.6903019,100.633184 51.2866898,100.355081 C50.8027048,100.023633 50.0461505,99.8574712 49.0152799,99.8574712 C45.8667562,99.8574712 44.1326221,101.342431 43.8102566,104.312351 L42.3085051,118.109012 L35.5781427,118.109012 L38.1483304,94.494824 L38.7808307,94.494824 Z M93.9656095,95.2766581 L91.5037505,117.8965 C91.2993237,119.772377 90.9350244,121.360532 90.4108529,122.66184 C89.8648409,124.014745 89.1458523,125.065061 88.2512662,125.813663 C87.3671636,126.556143 86.1772942,127.108849 84.6842789,127.471781 C83.2384391,127.823344 81.5077995,128 79.4941072,128 C77.5546725,128 75.9341088,127.867071 74.6350371,127.602087 C73.2686966,127.32311 72.2448149,126.886717 71.5651391,126.293783 C70.861002,125.678985 70.3866268,124.788708 70.1446343,123.624703 C69.9183669,122.541154 69.8921583,121.208363 70.0642613,119.625455 L70.1332772,118.993166 L76.6967784,118.993166 L76.6111637,119.775001 C76.5404006,120.429153 76.5421478,120.952999 76.6146582,121.346539 C76.6688226,121.640383 76.7535637,121.83453 76.8680078,121.927231 L76.8732495,121.932478 C77.0217648,122.056662 77.3318996,122.159857 77.8019067,122.241189 C78.3522868,122.337387 79.0782644,122.385487 79.9754713,122.385487 C81.467613,122.385487 82.5980762,122.093392 83.3668611,121.509203 C84.1024485,120.95125 84.5331428,120.090708 84.6598176,118.928451 L84.9489856,116.266367 C84.5174177,116.663406 84.0308118,117.001851 83.4900415,117.281702 C82.240766,117.927983 80.7136796,118.251561 78.9087823,118.251561 C77.1484396,118.251561 75.6772648,118.032927 74.4943844,117.596534 C73.2451089,117.135655 72.3138308,116.431654 71.7040446,115.487157 C71.1152252,114.578515 70.7439371,113.306067 70.5901801,111.670687 C70.4434121,110.10527 70.4923347,108.190913 70.7386953,105.930241 C70.9710781,103.793752 71.3275147,101.980842 71.8071317,100.490634 C72.3033474,98.9488295 72.9341004,97.7437206 73.6976436,96.8753076 C74.4804065,95.9850312 75.5112771,95.3186357 76.7893821,94.8787447 C78.0220588,94.4545954 79.4862446,94.2412089 81.178445,94.2412089 C83.0715779,94.2412089 84.6170103,94.6023918 85.8164894,95.3247575 C86.3476499,95.6448372 86.8071736,96.0322561 87.1950606,96.4861396 L87.2745599,94.494824 L94.0503506,94.494824 L93.9656095,95.2766581 Z M82.3683144,99.8574712 C81.412575,99.8574712 80.6315594,99.9492973 80.0252676,100.134699 C79.4888654,100.299111 79.0983576,100.532612 78.8546179,100.835201 L78.851997,100.837825 C78.5829223,101.171022 78.3356881,101.762208 78.1129152,102.610507 C77.8735435,103.519148 77.6752319,104.691025 77.5188541,106.127011 C77.3528665,107.656572 77.287345,108.90191 77.3231634,109.862149 C77.3554873,110.748927 77.4655633,111.360227 77.6525178,111.698672 L77.6533915,111.698672 C77.8071484,111.973276 78.1199041,112.19016 78.5907849,112.349326 C79.1577638,112.539974 79.9265487,112.636173 80.8945188,112.636173 C81.8729723,112.636173 82.6749547,112.537351 83.3004661,112.338831 L83.3004661,112.336208 C83.8656977,112.156054 84.2824141,111.899815 84.548868,111.564868 L84.5514888,111.562245 C84.8458985,111.195814 85.1114787,110.568773 85.3473559,109.680246 C85.6007055,108.727877 85.8077532,107.507027 85.9702464,106.017694 C86.1257506,104.592202 86.1781678,103.427322 86.1292451,102.521304 C86.0838169,101.696618 85.9606366,101.121174 85.7597042,100.793223 L85.7605778,100.793223 C85.5884748,100.517745 85.2538787,100.299986 84.7559157,100.14082 C84.1653491,99.9519209 83.369482,99.8574712 82.3683144,99.8574712 Z M120.587408,109.593667 L126.708858,109.593667 L126.530639,111.230796 C126.269427,113.62877 125.171288,115.427688 123.236221,116.631048 C121.379781,117.785434 118.762417,118.362627 115.383258,118.362627 C113.120584,118.362627 111.258028,118.165857 109.79559,117.774939 C108.246663,117.36041 107.124062,116.715878 106.426914,115.843967 L106.424293,115.843967 C105.740249,114.984299 105.307808,113.691737 105.126095,111.962781 C104.953118,110.323029 105.001167,108.265248 105.271116,105.787691 C105.512235,103.57162 105.899248,101.713234 106.430409,100.211658 C106.983409,98.6523623 107.69803,97.4612459 108.575144,96.6391832 C109.451384,95.8153715 110.663967,95.2023226 112.2094,94.8000366 C113.700668,94.4117432 115.505565,94.2175965 117.621471,94.2175965 C119.662245,94.2175965 121.358814,94.4073705 122.711176,94.7869186 C124.141291,95.1892046 125.200117,95.8101243 125.886782,96.6496776 L125.885909,96.6514267 C126.565584,97.4804857 127.005015,98.6733511 127.203326,100.230023 C127.392028,101.71061 127.36844,103.535764 127.132563,105.707234 L126.887076,107.963534 L111.847721,107.963534 L111.846848,107.974028 C111.821513,108.138441 111.804914,108.253005 111.797925,108.313348 L111.797051,108.312473 C111.686102,109.344424 111.670377,110.198845 111.752497,110.87486 C111.82326,111.464297 111.963913,111.886697 112.173581,112.140312 L112.176202,112.146434 C112.377135,112.393927 112.731824,112.588948 113.239397,112.731497 C113.824722,112.895035 114.589138,112.977242 115.5309,112.977242 C116.472661,112.977242 117.244067,112.927393 117.84337,112.829445 C118.388508,112.740243 118.778143,112.617808 119.011399,112.462141 L119.011399,112.463015 C119.213205,112.326588 119.385308,112.093087 119.527708,111.762513 C119.698937,111.366349 119.817749,110.853871 119.885892,110.225955 L119.954908,109.593667 L120.587408,109.593667 Z M120.668655,103.300515 L120.687001,103.072261 L120.690495,103.053021 C120.779604,102.229209 120.783972,101.561065 120.703599,101.051211 C120.638078,100.634933 120.525381,100.350709 120.365509,100.200289 L120.360267,100.196791 C120.181175,100.025382 119.835222,99.8872054 119.322407,99.7831357 C118.727473,99.6624499 117.939468,99.602107 116.960141,99.602107 C116.016632,99.602107 115.244353,99.6746934 114.644176,99.8189916 C114.107774,99.9466737 113.719887,100.125953 113.480516,100.355956 C113.233281,100.59208 113.01575,101.001363 112.827922,101.582054 C112.674165,102.054303 112.54749,102.627123 112.447024,103.300515 L120.668655,103.300515 Z M141.451182,94.494824 L147.544676,94.494824 L147.233668,96.3925644 C148.765996,94.9583274 150.890638,94.2412089 153.607594,94.2412089 C154.165836,94.2412089 154.702238,94.2700685 155.2168,94.3260388 C156.204863,94.4336065 157.077609,94.6478676 157.836784,94.9679473 C158.620421,95.299396 159.27913,95.741036 159.812037,96.2954911 C161.141686,97.677256 161.661489,99.7000549 161.370574,102.362139 L159.657407,118.109012 L152.926171,118.109012 L154.557218,103.130855 L154.604393,101.64502 C154.576437,101.063455 154.360653,100.633184 153.956168,100.355081 C153.473056,100.023633 152.716502,99.8574712 151.685631,99.8574712 C148.537108,99.8574712 146.802973,101.342431 146.479734,104.312351 L144.977983,118.109012 L138.248494,118.109012 L140.818682,94.494824 L141.451182,94.494824 Z M183.149027,85.7818341 L181.984493,96.4826415 C182.449258,96.0252598 182.975177,95.6360918 183.562249,95.3168867 C184.87792,94.5997681 186.483632,94.2412089 188.377638,94.2412089 C188.92103,94.2412089 189.445201,94.269194 189.947532,94.3234152 C190.932101,94.4309829 191.800479,94.6461185 192.552665,94.9670727 C193.327565,95.2985214 193.981032,95.7454087 194.512193,96.30686 C195.823495,97.6929976 196.333689,99.7201692 196.043647,102.385751 L194.331353,118.109012 L187.600991,118.109012 L189.170011,103.69493 L189.248637,102.974313 C189.273098,102.757428 189.284455,102.543167 189.284455,102.332405 C189.284455,101.566312 189.108858,100.989119 188.758536,100.6017 C188.405594,100.210783 187.843857,99.9737843 187.073325,99.889829 C186.875013,99.8679656 186.653114,99.8574712 186.407627,99.8574712 C184.782695,99.8574712 183.535167,100.263255 182.665042,101.076573 C181.787929,101.896886 181.256768,103.159714 181.070687,104.866806 L179.630089,118.109012 L172.899727,118.109012 L176.50428,85 L183.234642,85 L183.149027,85.7818341 Z M215.617959,102.345523 L209.408274,102.345523 L209.493889,101.563689 C209.647646,100.156562 209.943802,98.972442 210.381486,98.0104537 C210.842757,96.9994915 211.461279,96.2325246 212.237927,95.7113018 C212.985745,95.2084443 214.034961,94.8358925 215.385577,94.5927719 C216.687269,94.3592711 218.269394,94.2412089 220.13195,94.2412089 C222.16923,94.2412089 223.874535,94.3837581 225.24699,94.6697309 C226.684094,94.9688218 227.769129,95.4323252 228.501222,96.0619903 C229.263891,96.7126441 229.781948,97.6387765 230.054517,98.8403872 C230.310487,99.9650389 230.3498,101.339808 230.173329,102.964693 L228.523936,118.109012 L221.724558,118.109012 L222.021588,116.568082 C221.573421,116.91877 221.070217,117.21961 220.511974,117.467978 C219.177084,118.064411 217.537301,118.362627 215.592624,118.362627 C212.72628,118.362627 210.615616,117.727715 209.259759,116.457016 C207.868957,115.154833 207.311588,113.246598 207.585031,110.732311 C207.8576,108.226769 208.822949,106.336025 210.479331,105.060953 C212.106884,103.807745 214.372178,103.181578 217.272594,103.181578 C219.194556,103.181578 220.733,103.408082 221.886177,103.86284 C222.424327,104.075352 222.881229,104.336838 223.257759,104.647298 L223.464807,102.74431 C223.553043,101.939738 223.557411,101.277716 223.478785,100.759991 C223.414137,100.333218 223.298819,100.033253 223.132832,99.8609693 C222.958982,99.6799406 222.635742,99.5338933 222.165735,99.4237019 C221.616229,99.2951453 220.899861,99.2304297 220.018379,99.2304297 C217.732991,99.2304297 216.499441,100.05774 216.319476,101.712359 L216.25046,102.345523 L215.617959,102.345523 Z M218.539342,108.170799 C215.960418,108.170799 214.576605,108.998109 214.395766,110.652728 C214.325876,111.292888 214.334613,111.812361 214.421975,112.212024 C214.490117,112.520735 214.599319,112.734996 214.750455,112.854807 L214.753076,112.854807 C214.941778,113.005227 215.297341,113.125913 215.818018,113.217739 C216.413826,113.321808 217.188727,113.373406 218.143592,113.373406 C219.625251,113.373406 220.740862,113.136407 221.491301,112.664158 C222.165735,112.240009 222.550128,111.595477 222.644479,110.732311 C222.655836,110.619496 222.661951,110.503183 222.661951,110.382497 C222.661951,109.779068 222.460145,109.311192 222.054786,108.978869 C221.586526,108.593199 220.843949,108.344831 219.828804,108.233765 C219.445285,108.191788 219.015464,108.170799 218.539342,108.170799 Z M245.197832,94.494824 L251.383056,94.494824 L251.060691,96.0060201 C251.466924,95.6588298 251.900239,95.3588643 252.359763,95.1069983 C253.527792,94.4668389 254.850451,94.1467591 256.328615,94.1467591 C256.650107,94.1467591 256.967231,94.1642498 257.279113,94.1974822 C258.902297,94.3750127 260.129732,95.0169212 260.963165,96.1249568 C261.768642,97.1962619 262.17138,98.6759747 262.17138,100.563221 C262.17138,101.101934 262.137309,101.686123 262.068293,102.314914 L261.829795,104.501251 L255.311722,104.501251 L255.496056,103.645081 C255.564198,103.327625 255.613121,103.090626 255.643697,102.928837 C255.678642,102.745185 255.700483,102.611381 255.710092,102.5283 C255.820168,101.512965 255.726691,100.78098 255.42704,100.333218 C255.171943,99.9519209 254.708051,99.7612723 254.035364,99.7612723 C252.936351,99.7612723 252.081078,100.118083 251.470418,100.830828 C250.811709,101.59867 250.39412,102.788912 250.218522,104.39893 L248.727254,118.109012 L241.996018,118.109012 L244.566206,94.494824 L245.197832,94.494824 Z M281.577084,85.7818341 L281.024957,90.8532612 L274.295468,90.8532612 L274.932336,85 L281.662699,85 L281.577084,85.7818341 Z M280.542719,95.2766581 L278.058146,118.109012 L271.327783,118.109012 L273.897971,94.494824 L280.628333,94.494824 L280.542719,95.2766581 Z M299.336889,102.345523 L293.127204,102.345523 L293.211945,101.563689 C293.365702,100.156562 293.661859,98.972442 294.100415,98.0104537 C294.560813,96.9994915 295.179335,96.2325246 295.955983,95.7113018 C296.703801,95.2084443 297.753017,94.8358925 299.103633,94.5927719 C300.405325,94.3592711 301.98745,94.2412089 303.850006,94.2412089 C305.888159,94.2412089 307.593464,94.3837581 308.965046,94.6697309 C310.40215,94.9688218 311.488059,95.4323252 312.219278,96.0619903 C312.981948,96.7126441 313.500004,97.6387765 313.773447,98.8403872 C314.028543,99.9650389 314.06873,101.339808 313.891385,102.964693 L312.242866,118.109012 L305.442614,118.109012 L305.739644,116.568082 C305.291478,116.91877 304.788273,117.21961 304.23003,117.467978 C302.89514,118.064411 301.255357,118.362627 299.311554,118.362627 C296.444336,118.362627 294.333672,117.727715 292.977815,116.457016 C291.587887,115.154833 291.029644,113.246598 291.303087,110.732311 C291.575656,108.226769 292.541005,106.336025 294.197387,105.060953 C295.82494,103.807745 298.090234,103.181578 300.991524,103.181578 C302.913486,103.181578 304.451056,103.408082 305.604233,103.86284 C306.142383,104.075352 306.599286,104.336838 306.975815,104.647298 L307.182863,102.74431 C307.271099,101.939738 307.275467,101.277716 307.196841,100.759991 C307.132193,100.333218 307.016876,100.033253 306.850888,99.8609693 C306.677038,99.6799406 306.353799,99.5338933 305.883791,99.4237019 C305.334285,99.2951453 304.618791,99.2304297 303.736435,99.2304297 C301.451047,99.2304297 300.217497,100.05774 300.037532,101.712359 L299.968516,102.345523 L299.336889,102.345523 Z M302.257398,108.170799 C299.678474,108.170799 298.294661,108.998109 298.114696,110.652728 C298.044806,111.292888 298.053542,111.812361 298.140031,112.212024 C298.208173,112.520735 298.317375,112.734996 298.468511,112.854807 L298.471132,112.854807 C298.660708,113.005227 299.015397,113.125913 299.536948,113.217739 C300.131882,113.321808 300.907656,113.373406 301.861649,113.373406 C303.343307,113.373406 304.459792,113.136407 305.209357,112.664158 C305.883791,112.240009 306.268184,111.595477 306.362535,110.732311 C306.374765,110.619496 306.380881,110.503183 306.380881,110.382497 C306.380881,109.779068 306.178201,109.311192 305.773715,108.978869 C305.304582,108.593199 304.562879,108.344831 303.54686,108.233765 C303.163341,108.191788 302.73352,108.170799 302.257398,108.170799 Z" id="Fill-2" fill="#006633"></path>
            <polyline id="Fill-3" fill="#FF9933" points="260 0 294 0 273.834936 37 260 0"></polyline>
            <path d="M124.800154,79.2710737 L138.40735,79.2710737 C145.889779,79.2710737 152.791726,73.1333815 153.746372,65.6300045 L159.159527,23.1009341 L193.896563,23.1009341 C203.633598,23.1009341 203.054866,37.8578676 193.182327,37.933252 L163.267476,38.1769365 L189.481764,69.8839635 C193.750568,75.0460414 201.45767,79.2710737 206.605938,79.2710737 L228.093331,79.2710737 L205.135504,51.5033196 C233.57555,40.483173 227.263699,0 196.946708,0 L134.88775,0 L124.800154,79.2710737 Z M5,79.2710737 L18.6071966,79.2710737 C26.090499,79.2710737 32.9924468,73.1333815 33.9470924,65.6300045 L37.9754869,33.978201 L46.3723467,79.2710737 L71.9353429,79.2710737 L90.844669,35.4823826 L87.0767913,65.0926716 C86.0836801,72.8905736 91.6349617,79.2710737 99.4120013,79.2710737 L112.483302,79.2710737 L122.571773,0 C112.729832,0 102.887016,0 93.0450747,0 C85.5635206,0 77.1456796,6.14207503 74.3446865,13.6410692 L62.2997168,45.869651 L58.1978879,13.6410692 C57.2432423,6.14119847 50.3412945,0 42.8579921,0 L15.0884708,0 L5,79.2710737 Z M330,0 L302.472637,0 L272.862888,54.0830437 L256.594573,11.4198592 C254.199217,5.13841071 247.152149,0 240.930342,0 L224.713606,0 L250.853586,68.5524647 C257.107739,84.9573361 284.761863,82.6300621 292.468091,68.5524647 L330,0 Z" id="Fill-4" fill="#006633"></path>
            <g id="Group-7" transform="translate(6.000000, 1.000000)"></g>
            <path d="M249,60 C254.330291,64.5794508 262.581094,70.5074308 269.578599,70.5074308 C277.331103,70.5074308 288.378066,65.9338652 296,60.6036434 L291.870601,67.7220957 C289.631364,71.5869269 285.555259,74.4739902 280.816532,76.1873959 C277.300903,77.4577373 273.433534,78.0849212 269.679858,77.9907595 C265.960823,77.8982793 262.352818,77.0945424 259.315058,75.5173349 C256.141399,73.8686653 253.584174,71.3532042 252.187871,67.891923 L249,60" id="Fill-8" fill="#006633"></path>
            <path d="M182,59 C183.743207,60.6706253 190.975078,66.853484 202.468713,66.853484 L216.307029,66.853484 L225,77 L206.246993,77 C203.873925,77 200.855914,76.0307626 197.908873,74.4734583 C194.914815,72.8903992 192.028099,70.7055373 189.975284,68.3103448 L182,59" id="Fill-9" fill="#006633"></path>
            <path d="M128.400734,65.8576369 L140.911967,65.8576369 C140.911967,65.8576369 147.616755,65.3121037 153,59 L152.274514,64.7700288 C151.853016,68.121902 150.108273,71.1798271 147.639746,73.4034582 C145.17718,75.621902 141.994236,77 138.694635,77 L127,77 L128.400734,65.8576369" id="Fill-10" fill="#006633"></path>
            <path d="M88.7854985,60 L88.0966767,65.4665308 C88.0319379,65.9807916 88,66.5203725 88,67.0765425 C88,69.9054133 88.9693569,72.4400466 90.6145878,74.346915 C92.2641347,76.2546566 94.6050928,77.5555879 97.347432,77.9074505 C97.8195943,77.967695 98.340095,78 98.8968494,78 L110.580924,78 L112,66.7473807 L99.4734571,66.7473807 C93.8679327,66.7473807 90.6698317,63.6958673 88.7854985,60" id="Fill-11" fill="#006633"></path>
            <path d="M43,51 L47.9853106,78 L71.3799328,78 L78,62.6047706 C74.1719158,66.0381191 70.4370721,66.6917977 70.4370721,66.6917977 C70.4370721,66.6917977 67.1727873,66.6917977 55.0524088,66.6917977 C48.2824599,66.6917977 45.2935392,56.8813532 43,51" id="Fill-12" fill="#006633"></path>
            <path d="M6,78 L18.0527565,78 C21.4545248,78 24.7351775,76.5907524 27.273339,74.3221643 C29.817644,72.0482716 31.6159472,68.9212271 32.0503836,65.4935903 L33,58 C27.388311,66.4590222 20.4171434,65.1859252 20.4171434,65.1859252 L7.62189572,65.1859252 L6,78" id="Fill-13" fill="#006633"></path>
            <path d="M183,60 C184.728424,61.5767185 191.665979,67.3799891 202.653314,67.3799891 C207.190869,67.3799891 211.730191,67.3799891 216.266863,67.3799891 C219.180265,70.5511705 222.090133,73.721507 225,76.8909986 C219.102504,76.9281773 213.205007,76.9636662 207.30486,77 C204.758174,77 201.598233,76.0916547 198.506333,74.6315423 C195.55405,73.1477708 192.672459,71.0547741 190.584389,68.7353248 C188.057143,65.8227049 185.529013,62.9117749 183,60" id="Fill-14" fill="#036936"></path>
            <path d="M184,61 C185.669099,62.5779288 192.153172,68.3392653 202.378982,68.3392653 C206.733751,68.3392653 211.088521,68.3392653 215.442432,68.3392653 C218.295527,71.4836567 221.147763,74.6280481 224,77.7724396 C218.588306,77.847411 213.175753,77.9250285 207.764059,78 C205.109299,78 201.891302,77.0985784 198.733408,75.6503061 C195.894909,74.1799834 193.088177,72.0543219 191.018975,69.6755214 C188.680175,66.784269 186.339658,63.8921345 184,61" id="Fill-15" fill="#056B38"></path>
            <path d="M184,61 C185.651521,62.4831217 191.848358,67.8650819 201.577212,67.8650819 C205.855105,67.8650819 210.135562,67.8650819 214.412601,67.8650819 C217.275637,70.7983284 220.137818,73.7307066 223,76.6622164 C217.932657,76.7759687 212.86446,76.8879844 207.795408,77 C204.9768,77 201.625058,76.1603169 198.332267,74.8091827 C195.535019,73.4372083 192.736916,71.4035602 190.635989,69.1015956 C188.424847,66.4001954 186.211996,63.7005319 184,61" id="Fill-16" fill="#086E3B"></path>
            <path d="M185,62 C186.677523,63.390785 192.743821,68.394198 202.220122,68.394198 C206.533004,68.394198 210.846758,68.394198 215.158767,68.394198 C218.106426,71.1151877 221.052341,73.8370307 224,76.5571672 C219.14888,76.7047782 214.299506,76.8523891 209.446641,77 C206.388194,77 202.815063,76.2201365 199.297761,74.9675768 C196.469613,73.693686 193.607444,71.7517065 191.419599,69.5298635 C189.280605,67.0204778 187.140739,64.5102389 185,62" id="Fill-17" fill="#0A703D"></path>
            <path d="M186,63 C187.66097,64.2985119 193.437463,68.923624 202.416076,68.923624 C206.652287,68.923624 210.891103,68.923624 215.126445,68.923624 C218.085454,71.4353075 221.041859,73.946991 224,76.4578378 C219.494631,76.6393952 214.990998,76.8192793 210.483892,77 C207.256592,77 203.550884,76.2804638 199.896404,75.1233491 C197.110177,73.9486643 194.25449,72.1012968 192.036101,69.9619315 C190.025225,67.6410088 188.012613,65.3209227 186,63" id="Fill-18" fill="#0D7340"></path>
            <path d="M187,64 C188.643331,65.2981241 194.132332,69.8737253 202.614235,69.8737253 C206.77613,69.8737253 210.936297,69.8737253 215.096465,69.8737253 C218.06431,72.3536447 221.033019,74.8344454 224,77.3143648 C219.838105,77.5426161 215.674482,77.77263 211.511722,78 C208.121381,78 204.282622,77.2888078 200.492247,76.1475513 C197.750771,74.9869067 194.902158,73.1009694 192.654026,70.8871963 C190.770503,68.5923455 188.884387,66.2957321 187,64" id="Fill-19" fill="#0F7542"></path>
            <path d="M187,64 C188.625385,65.2050003 193.829883,69.4043487 201.818423,69.4043487 C205.902944,69.4043487 209.987465,69.4043487 214.071986,69.4043487 C217.048564,71.6743135 220.025141,73.9451426 223,76.214243 C219.180216,76.4770264 215.357854,76.7389454 211.534632,77 C207.983884,77 204.01626,76.3499568 200.092472,75.304874 C197.392665,74.2416384 194.553614,72.4496975 192.27498,70.3189042 C190.518086,68.2123146 188.759473,66.107454 187,64" id="Fill-20" fill="#127845"></path>
            <path d="M188,65 C189.608783,66.1102812 194.526597,69.9358044 202.025132,69.9358044 C206.033411,69.9358044 210.039981,69.9358044 214.047406,69.9358044 C217.032459,71.9982383 220.015802,74.0615179 223,76.1222606 C219.516584,76.4148404 216.034022,76.7074202 212.549751,77 C208.838951,77 204.744334,76.4097668 200.691603,75.4584596 C198.033949,74.4944683 195.205329,72.7990276 192.898154,70.7535057 C191.266291,68.8348249 189.633573,66.9169896 188,65" id="Fill-21" fill="#127845"></path>
            <path d="M189,66 C190.636209,67.1105283 195.40834,70.8764331 202.625159,70.8764331 C206.671058,70.8764331 210.716957,70.8764331 214.761981,70.8764331 C217.841904,72.900562 220.920952,74.9255901 224,76.949719 C220.759956,77.3004121 217.519037,77.6511053 214.278118,78 C210.298718,78 205.955326,77.4200075 201.651309,76.4875234 C198.962501,75.5406519 196.059324,73.7979768 193.655759,71.6650431 C192.105297,69.7766954 190.552211,67.8892469 189,66" id="Fill-22" fill="#177D4A"></path>
            <path d="M189,67 C190.619006,68.0183229 195.10522,71.4095055 201.829318,71.4095055 C205.799365,71.4095055 209.768542,71.4095055 213.736847,71.4095055 C216.824275,73.225236 219.911702,75.0418467 223,76.8584574 C220.099716,77.2386782 217.199432,77.6206593 214.297407,78 C210.158496,78 205.687079,77.4798368 201.25048,76.643703 C198.603492,75.793487 195.710171,74.1467435 193.27731,72.0995359 C191.85241,70.399984 190.42664,68.6995519 189,67" id="Fill-23" fill="#177D4A"></path>
            <path d="M190,67 C191.600698,67.9260213 195.80372,70.9452455 202.038563,70.9452455 C205.930796,70.9452455 209.823894,70.9452455 213.71526,70.9452455 C216.811039,72.5552695 219.905952,74.1652935 223,75.7744593 C220.437498,76.1838311 217.874997,76.5923447 215.311629,77 C211.012513,77 206.415593,76.5399931 201.850704,75.7967731 C199.245783,75.0432544 196.361237,73.4967388 193.900889,71.5408514 C192.602324,70.0278064 191.301162,68.5147614 190,67" id="Fill-24" fill="#1C824F"></path>
            <path d="M191,68 C192.582786,68.8321918 196.503174,71.4837097 202.251641,71.4837097 C206.067025,71.4837097 209.881549,71.4837097 213.696073,71.4837097 C216.797956,72.8906886 219.898117,74.2976675 223,75.7029804 C220.770845,76.1353203 218.54341,76.5676601 216.313394,77 C211.861108,77 207.142012,76.597649 202.450457,75.9495557 C199.88908,75.2906331 197.015277,73.844502 194.527918,71.9851907 C193.353093,70.6565161 192.176547,69.3278415 191,68" id="Fill-25" fill="#1C824F"></path>
            <path d="M192,69 C193.563859,69.8341199 197.204024,72.4060649 202.469643,72.4060649 C206.20648,72.4060649 209.944172,72.4060649 213.680152,72.4060649 C216.787339,73.7625264 219.893669,75.1189879 223,76.4754493 C221.10335,76.9842354 219.205845,77.4930214 217.307484,78 C212.704879,78 207.864444,77.6114068 203.048819,76.9878502 C200.533641,76.3516417 197.670273,74.8442615 195.157661,72.8678582 C194.105392,71.5800783 193.053124,70.2913947 192,69" id="Fill-26" fill="#218754"></path>
            <path d="M192,69 C193.545218,69.738448 196.905938,71.9458896 201.693733,71.9458896 C205.352788,71.9458896 209.011843,71.9458896 212.668348,71.9458896 C215.779182,73.0987817 218.889166,74.2525519 222,75.405444 C220.430134,75.93667 218.861967,76.468774 217.292101,77 C212.540005,77 207.584769,76.6698496 202.650782,76.1377456 C200.178264,75.5986171 197.328366,74.1937219 194.790401,72.3146746 C193.861401,71.2100757 192.9307,70.1054769 192,69" id="Fill-27" fill="#218754"></path>
            <path d="M193,70 C194.577936,70.6446811 197.769611,72.4906208 202.231844,72.4906208 C205.935235,72.4906208 209.638626,72.4906208 213.340271,72.4906208 C216.560763,73.4445117 219.779508,74.3984025 223,75.3505991 C221.711978,75.9012465 220.425702,76.4510468 219.135934,77 C214.073788,77 208.830883,76.7280649 203.605443,76.2875469 C201.094892,75.8410989 198.160821,74.542418 195.511425,72.7693332 C194.674865,71.8459397 193.837433,70.9233934 193,70" id="Fill-28" fill="#248A57"></path>
            <path d="M194,71 C195.558748,71.5533234 198.471419,73.0434138 202.451607,73.0434138 C206.077692,73.0434138 209.700305,73.0434138 213.325522,73.0434138 C216.54977,73.8022111 219.775753,74.5610085 223,75.3198059 C222.042707,75.8804099 221.083678,76.4418228 220.125516,77 C214.914647,77 209.551894,76.7832008 204.204764,76.4337333 C201.739929,76.0777943 198.816843,74.89187 196.142844,73.2359445 C195.429431,72.4917082 194.715149,71.7450452 194,71" id="Fill-29" fill="#268C59"></path>
            <path d="M194,72 C195.539987,72.5525114 198.174175,73.9296804 201.678379,73.9296804 C205.224833,73.9296804 208.770425,73.9296804 212.315154,73.9296804 C215.544298,74.6146119 218.77258,75.3004566 222,75.9853881 C221.369692,76.6575342 220.737659,77.3296804 220.105626,78 C214.747575,78 209.270532,77.803653 203.806424,77.4876712 C201.385212,77.1671233 198.475965,75.8913242 195.777107,74.0639269 C195.1856,73.3753425 194.593231,72.6885845 194,72" id="Fill-30" fill="#298F5C"></path>
            <path d="M195,72 C196.520693,72.4603424 198.881362,73.4849755 201.911616,73.4849755 C205.379412,73.4849755 208.844639,73.4849755 212.310722,73.4849755 C215.540481,73.9767645 218.770241,74.4685535 222,74.9603424 C221.691751,75.6399371 221.382647,76.3204053 221.07183,77 C215.573875,77 209.986871,76.8593641 204.408429,76.6331237 C202.031491,76.4025157 199.13738,75.2398672 196.415374,73.5330189 C195.944439,73.0228861 195.472648,72.5118798 195,72" id="Fill-31" fill="#2B915E"></path>
            <path d="M196,73 C197.498596,73.3658737 199.584743,74.0541427 202.146365,74.0541427 C205.52988,74.0541427 208.912547,74.0541427 212.295213,74.0541427 C215.5225,74.3625923 218.74809,74.6702215 221.974528,74.9770304 C221.983868,75.6521739 221.994057,76.3264971 222,77 C216.372412,77 210.684541,76.9130435 205.002613,76.7711239 C202.673633,76.6259229 199.797858,75.5898277 197.057932,74.02379 C196.70642,73.683347 196.35321,73.3420837 196,73" id="Fill-32" fill="#2E9461"></path>
            <path d="M197,74 C198.53697,74.2739454 200.429031,74.6483871 202.614808,74.6483871 C206.053483,74.6483871 209.489528,74.6483871 212.927326,74.6483871 C216.282708,74.7883375 219.638967,74.9282878 222.996103,75.0674938 C223.331028,75.7121588 223.665952,76.3575682 224,77 C218.004676,77 211.979542,76.9605459 205.955285,76.8957816 C203.58188,76.830273 200.605261,75.939206 197.73473,74.5545906 C197.490989,74.3707196 197.245494,74.1853598 197,74" id="Fill-33" fill="#309663"></path>
            <path d="M197,75 C198.519665,75.273327 200.138724,75.4316682 201.856303,75.4316682 L222.029579,75.4316682 L224,78 L205.569588,78 C203.237342,78 200.271248,76.9359095 197.374903,75.2262017 L197,75" id="Fill-34" fill="#339966"></path>
            <path d="M128.384507,66.4188615 C132.555444,66.4188615 136.727251,66.4188615 140.899059,66.4188615 C141.007033,66.4188615 147.646572,65.9073917 153,60 C152.764895,61.8011895 152.783181,63.5811385 152.787535,65.1724724 C152.336481,68.3908241 150.58016,71.324554 148.107204,73.4655905 C145.588968,75.6457094 142.33407,77 138.959007,77 C134.973542,77 130.987207,77 127,77 C127.462373,73.4723874 127.923005,69.9447749 128.384507,66.4188615" id="Fill-35" fill="#036936"></path>
            <path d="M128.350729,67.3549664 C132.471554,67.3549664 136.591498,67.3549664 140.712323,67.3549664 C140.934951,67.3549664 147.424612,66.8502526 152.679697,61 C152.454429,62.783322 152.740414,64.5241419 153,65.8727017 C152.523945,69.1462576 150.776356,72.1329236 148.330084,74.3164748 C145.785257,76.5885723 142.495989,78 139.085288,78 C135.057739,78 131.029309,78 127,78 C127.449656,74.4510652 127.900193,70.9039012 128.350729,67.3549664" id="Fill-36" fill="#056B38"></path>
            <path d="M128.254283,66.9154838 C132.135011,66.9154838 136.014892,66.9154838 139.895621,66.9154838 C140.21534,66.9154838 146.259473,66.4455866 151.175684,61 C150.969605,62.6594333 151.50558,64.2570838 152,65.2769348 C151.522541,68.4174145 149.86543,71.2785664 147.557007,73.3800511 C145.104413,75.6129331 141.93436,77 138.647274,77 C134.765698,77 130.883273,77 127,77 C127.418942,73.6393648 127.837037,70.2769892 128.254283,66.9154838" id="Fill-37" fill="#086E3B"></path>
            <path d="M128.210431,67.4804574 C132.00918,67.4804574 135.806229,67.4804574 139.604978,67.4804574 C140.032539,67.4804574 145.878991,67.0443762 150.656965,62 C150.46316,63.5378051 151.258781,64.9936849 152,65.6968766 C151.501887,68.6990954 149.867295,71.4333504 147.604536,73.4499061 C145.146272,75.6396996 141.968889,77 138.674204,77 C134.783652,77 130.892251,77 127,77 C127.40291,73.8271036 127.807521,70.6533538 128.210431,67.4804574" id="Fill-38" fill="#0A703D"></path>
            <path d="M128.166377,68.0474146 C131.881062,68.0474146 135.596599,68.0474146 139.312136,68.0474146 C139.848039,68.0474146 145.495041,67.6449574 150.135842,63 C149.951811,64.41695 151.010837,65.7337031 152,66.1286456 C151.481989,68.9900996 149.870872,71.5968867 147.652285,73.5265104 C145.188324,75.6690523 142.003578,77 138.701258,77 C134.80169,77 130.901271,77 127,77 C127.388508,74.0158049 127.777869,71.0307747 128.166377,68.0474146" id="Fill-39" fill="#0D7340"></path>
            <path d="M128.122118,68.9714214 C131.75491,68.9714214 135.385995,68.9714214 139.018787,68.9714214 C139.663535,68.9714214 145.11187,68.5765856 149.611443,64 C149.438941,65.3950865 150.760888,66.6664578 152,66.7726247 C151.461144,69.7023063 149.874466,72.3687641 147.700256,74.3499624 C145.230572,76.6014039 142.038429,78 138.728437,78 C134.819812,78 130.910333,78 127,78 C127.374893,74.9904738 127.747225,71.981825 128.122118,68.9714214" id="Fill-40" fill="#0F7542"></path>
            <path d="M128.077653,68.5384971 C131.625603,68.5384971 135.17441,68.5384971 138.724073,68.5384971 C139.477317,68.5384971 144.724347,68.1779583 149.085459,64 C148.925395,65.2730454 150.511487,66.4044506 152,66.2087295 C151.441059,68.9986133 149.876365,71.5352615 147.748451,73.4289488 C145.273017,75.6316693 142.073441,77 138.755743,77 C134.838018,77 130.919437,77 127,77 C127.358647,74.1800713 127.719006,71.3592842 128.077653,68.5384971" id="Fill-41" fill="#127845"></path>
            <path d="M128.031264,69.1113437 C131.496551,69.1113437 134.961838,69.1113437 138.427125,69.1113437 C139.291088,69.1113437 144.335873,68.7831729 148.55702,65 C148.406877,66.1536208 150.260064,67.1490163 152,66.6642947 C151.420021,69.3089159 149.879989,71.7141063 147.79687,73.5173713 C145.315659,75.6655504 142.108617,77 138.783177,77 C134.856309,77 130.928584,77 127,77 C127.344041,74.3704479 127.688939,71.7408958 128.031264,69.1113437" id="Fill-42" fill="#127845"></path>
            <path d="M127.986378,70.0215928 C131.367755,70.0215928 134.748271,70.0215928 138.129648,70.0215928 C139.103127,70.0215928 143.946441,69.7030245 148.026108,66 C147.886794,67.1278562 150.006605,68.0693633 152,67.2441026 C151.399745,69.9683502 149.88277,72.4441322 147.845516,74.3085114 C145.358502,76.585521 142.143958,78 138.810739,78 C134.874686,78 130.937773,78 127,78 C127.330226,75.3405309 127.657872,72.6810619 127.986378,70.0215928" id="Fill-43" fill="#177D4A"></path>
            <path d="M127.941282,69.5951388 C131.237493,69.5951388 134.533703,69.5951388 137.830776,69.5951388 C138.915147,69.5951388 143.554322,69.3096043 147.492708,66 C147.365997,67.0088885 149.752819,67.8153072 152,66.7069142 C151.378513,69.2862424 149.885564,71.6276253 147.89439,73.4005349 C145.401545,75.6207819 142.179464,77 138.838431,77 C134.893149,77 130.947005,77 127,77 C127.313761,74.5314245 127.627521,72.0645796 127.941282,69.5951388" id="Fill-44" fill="#177D4A"></path>
            <path d="M127.895974,70.1736829 C131.107482,70.1736829 134.318991,70.1736829 137.528771,70.1736829 C138.725419,70.1736829 143.161223,69.920763 146.958528,67 C146.841023,67.8898412 149.498704,68.5628939 152,67.1941013 C151.35718,69.6216284 149.88837,71.8264852 147.943494,73.5044954 C145.44479,75.6606168 142.215137,77 138.866252,77 C134.911699,77 130.956281,77 127,77 C127.298946,74.7254012 127.598756,72.4482817 127.895974,70.1736829" id="Fill-45" fill="#1C824F"></path>
            <path d="M127.850423,70.2800349 C130.975856,70.2800349 134.102155,70.2800349 137.226722,70.2800349 C138.535264,70.2800349 142.763995,70.0432503 146.419426,67.3093054 C146.313773,68.1437309 149.241756,68.7300131 152,67 C151.33577,69.4464832 149.889532,71.6649192 147.992102,73.365225 C145.487599,75.6072521 142.25045,77 138.893792,77 C134.930061,77 130.965463,77 127,77 C127.283186,74.7605941 127.567237,72.5203145 127.850423,70.2800349" id="Fill-46" fill="#1C824F"></path>
            <path d="M127.804715,71.530303 C130.844752,71.530303 133.884788,71.530303 136.924824,71.530303 C138.344144,71.530303 142.368589,71.3172906 145.87826,68.8377897 C145.784506,69.5926916 148.98427,70.0775401 152,68 C151.31508,70.416221 149.894024,72.6060606 148.042397,74.2923351 C145.531893,76.5793226 142.286989,78 138.922289,78 C134.949061,78 130.974964,78 127,78 C127.268238,75.8440285 127.536477,73.6871658 127.804715,71.530303" id="Fill-47" fill="#218754"></path>
            <path d="M127.757892,71.4133697 C130.712018,71.4133697 133.666145,71.4133697 136.618531,71.4133697 C138.152588,71.4133697 141.968153,71.2406548 145.334726,69.2482947 C145.252062,69.8556617 148.725662,70.1953615 152,68 C151.294316,70.1446112 149.897741,72.0878581 148.0922,73.5948158 C145.575754,75.6952251 142.32317,77 138.950506,77 C134.967874,77 130.984372,77 127,77 C127.253211,75.1377899 127.505551,73.2755798 127.757892,71.4133697" id="Fill-48" fill="#218754"></path>
            <path d="M127.711694,71.6584958 C130.577658,71.6584958 133.446239,71.6584958 136.312203,71.6584958 C137.958868,71.6584958 141.566181,71.5072423 144.787992,69.7649025 C144.717346,70.2963788 148.46595,70.5328691 152,68 C151.271735,70.1150418 149.898932,72.0286908 148.141502,73.5236769 C145.619174,75.6679666 142.358987,77 138.97844,77 C134.986499,77 130.993685,77 127,77 C127.237231,75.2200557 127.475335,73.4384401 127.711694,71.6584958" id="Fill-49" fill="#248A57"></path>
            <path d="M127.665303,71.9137114 C130.445412,71.9137114 133.224647,71.9137114 136.004756,71.9137114 C137.765492,71.9137114 141.163694,71.7865541 144.239299,70.3024844 C144.17985,70.7539351 148.204015,70.8870662 152,68 C151.249895,70.0848663 149.902679,71.9691826 148.191775,73.4498388 C145.663449,75.6396738 142.39551,77 139.006924,77 C135.00549,77 131.003182,77 127,77 C127.222059,75.3051394 127.444118,73.6102788 127.665303,71.9137114" id="Fill-50" fill="#268C59"></path>
            <path d="M127.61869,72.1804089 C130.309906,72.1804089 133.002874,72.1804089 135.694966,72.1804089 C137.570317,72.1804089 140.757536,72.0766399 143.687991,70.863676 C143.639792,71.2334076 147.941706,71.2552078 152,68 C151.228828,70.0509641 149.906443,71.9039822 148.242288,73.3724445 C145.707936,75.6100184 142.432207,77 139.035544,77 C135.024572,77 131.012724,77 127,77 C127.206814,75.3937603 127.412752,73.7875206 127.61869,72.1804089" id="Fill-51" fill="#298F5C"></path>
            <path d="M127.571855,73.4589855 C130.175509,73.4589855 132.780042,73.4589855 135.384575,73.4589855 C137.375088,73.4589855 140.352073,73.3778482 143.134048,72.4478898 C143.098032,72.7323162 147.678145,72.6395879 152,69 C151.206781,71.0159501 149.908468,72.835744 148.293043,74.2908659 C145.752635,76.5787597 142.469079,78 139.064301,78 C135.043746,78 131.022312,78 127,78 C127.190618,76.4860313 127.381237,74.9729542 127.571855,73.4589855" id="Fill-52" fill="#2B915E"></path>
            <path d="M127.523035,73.7507599 C130.039589,73.7507599 132.556143,73.7507599 135.072697,73.7507599 C137.178043,73.7507599 139.942026,73.6951368 142.577451,73.06231 C142.552797,73.2556231 147.414201,73.0413374 152,69 C151.18551,70.981459 149.912264,72.7659574 148.344041,74.2066869 C145.797549,76.5465046 142.506128,78 139.093195,78 C135.063011,78 131.031946,78 127,78 C127.175225,76.5848024 127.350451,75.1668693 127.523035,73.7507599" id="Fill-53" fill="#2E9461"></path>
            <path d="M127.456715,73.4931052 C129.787742,73.4931052 132.117921,73.4931052 134.448101,73.4931052 C136.581698,73.4931052 139.031352,73.4690513 141.416608,73.1812338 C141.40644,73.2683256 146.341336,72.9672369 151,69 C150.196724,70.7269051 148.99774,72.2829445 147.539472,73.5495075 C145.08897,75.6778642 141.921621,77 138.637339,77 C134.759074,77 130.87996,77 127,77 C127.152521,75.832141 127.305889,74.6634526 127.456715,73.4931052" id="Fill-54" fill="#309663"></path>
            <path d="M127.410264,73.7779193 L140.877615,73.7779193 C140.877615,73.7779193 146.084481,73.3600849 151,69 C150.176075,70.692569 149.001345,72.2144374 147.588781,73.4670913 C145.132295,75.6462845 141.957211,77 138.665758,77 L127,77 L127.410264,73.7779193" id="Fill-55" fill="#339966"></path>
            <path d="M88.6849896,60 C88.4690242,61.7782491 88.2530588,63.5556104 88.0370933,65.3329716 C87.9767251,65.9686313 87.9920297,66.6140567 88.0685529,67.2443896 C88.1459263,70.0764488 89.1653852,72.5942293 90.8386921,74.4577065 C92.4065671,76.3087546 94.6274399,77.5694205 97.2266773,77.9103329 C97.8524669,77.9689273 98.5241704,78 99.2281837,78 C102.889393,77.9476202 106.548051,77.8943527 110.20841,77.8393095 C110.47199,74.2082367 110.73642,70.5745006 111,66.9434279 C106.932368,66.9434279 102.901296,66.8945993 98.8974335,66.8182491 C93.5527143,66.7436745 90.4926373,63.6852281 88.6849896,60" id="Fill-56" fill="#036936"></path>
            <path d="M88.6551524,60 C88.443026,61.6373213 88.2326456,63.2720843 88.0213922,64.9085528 C87.9629047,65.6257336 88.0266299,66.3377978 88.1846334,67.0072235 C88.3443829,69.6840732 89.4556456,72.0453975 91.225984,73.7628794 C92.7807042,75.4556308 94.9735493,76.6068723 97.5365244,76.9172812 C98.3431283,76.9710058 99.1942525,77 100.079422,77 C103.657635,76.8985202 107.234103,76.7944821 110.808824,76.6930023 C110.87255,73.3782794 110.936275,70.061851 111,66.7479809 C106.868338,66.7479809 102.814367,66.6541761 98.816266,66.5092049 C93.5096157,66.3642338 90.4621545,63.4716328 88.6551524,60" id="Fill-57" fill="#056B38"></path>
            <path d="M88.6199035,60 C88.4176074,61.5912014 88.216191,63.1832704 88.0138949,64.7744718 C87.9584834,65.6134531 88.0710656,66.4333469 88.3111821,67.1768909 C88.5504192,69.856946 89.7378088,72.2012351 91.5751844,73.8748597 C93.0827295,75.5085741 95.2041991,76.6217209 97.681006,76.9201796 C98.6599428,76.9722364 99.681098,77 100.733917,77 C104.157117,76.8429621 107.578559,76.6876595 111,76.529754 C110.853115,73.3352047 110.70799,70.1406553 110.561106,66.9452383 C106.44746,66.9452383 102.446397,66.8020823 98.5315288,66.5808411 C93.3668235,66.3604675 90.3913129,63.4609064 88.6199035,60" id="Fill-58" fill="#086E3B"></path>
            <path d="M88.5828431,61 C88.391266,62.5451335 88.1988101,64.090267 88.0098694,65.6354004 C87.9571418,66.6013296 88.1179611,67.5310585 88.4378421,68.3548354 C88.7577231,71.0371871 90.0100046,73.3628337 91.8976542,74.9909629 C93.3485431,76.5652332 95.3803149,77.6362314 97.7469072,77.9249507 C98.8910971,77.973512 100.07659,78 101.290205,78 C104.528561,77.787213 107.763402,77.575309 111,77.3616391 C110.644967,74.2916797 110.290813,71.2208372 109.93578,68.1508777 C105.870479,68.1508777 101.957209,67.9566324 98.1590616,67.656435 C93.1824511,67.3553547 90.3044006,64.4505038 88.5828431,61" id="Fill-59" fill="#0A703D"></path>
            <path d="M88.5470516,61 C88.3653139,62.408555 88.1844541,63.8171099 88.0071062,65.2273568 C87.9579404,66.2602972 88.166017,67.2424787 88.5654887,68.0935335 C88.9640826,70.6213187 90.2819005,72.7929467 92.222192,74.2810236 C93.6137586,75.7048062 95.5549281,76.6717602 97.8147971,76.9323217 C99.1238354,76.9754666 100.469748,77 101.844633,77 C104.898178,76.7462063 107.949967,76.4915666 111,76.235235 C110.43635,73.4671919 109.873577,70.6974568 109.309927,67.9294136 C105.294138,67.9294136 101.469744,67.6967694 97.7893362,67.3372284 C92.9991866,66.9768413 90.2169315,64.2358695 88.5470516,61" id="Fill-60" fill="#0D7340"></path>
            <path d="M88.513178,61 C88.3412752,62.3628385 88.1728806,63.7239541 88.005363,65.0876541 C87.9588791,66.2471868 88.2167333,67.342971 88.6947285,68.2716309 C89.1744778,70.8034782 90.5558399,72.9562806 92.5476326,74.3992354 C93.8807567,75.7612125 95.7313435,76.6864265 97.8827603,76.9345286 C99.3570903,76.9784634 100.864748,77 102.399595,77 C105.266689,76.6898724 108.133783,76.3771604 111,76.0670328 C110.229068,73.423195 109.45726,70.7784957 108.686328,68.1355193 C104.719407,68.1355193 100.984028,67.8512357 97.418798,67.4118882 C92.8168886,66.9716793 90.1330993,64.22705 88.513178,61" id="Fill-61" fill="#0F7542"></path>
            <path d="M88.4790056,62 C88.3186733,63.3128565 88.1600933,64.625713 88.0041416,65.9420799 C87.960335,67.2338745 88.2661053,68.4440544 88.8233258,69.4567793 C89.3814224,71.9921018 90.82967,74.1254936 92.8701834,75.5208425 C94.1458328,76.8196577 95.9077359,77.7025011 97.9508776,77.937692 C99.5874938,77.9789381 101.258279,78 102.951844,78 C105.636315,77.6296621 108.317281,77.2610794 111,76.8907416 C110.020483,74.3764809 109.040967,71.8639754 108.060574,69.3497148 C104.146889,69.3497148 100.498672,69.0127249 97.0510892,68.4896885 C92.6353798,67.9675296 90.0472834,65.2154454 88.4790056,62" id="Fill-62" fill="#127845"></path>
            <path d="M88.4452343,62 C88.2946883,63.1822247 88.1476434,64.3678032 88.0032242,65.5525433 C87.9620867,66.8940749 88.31657,68.1416993 88.9537646,69.1696478 C89.5892088,71.5500279 91.1025461,73.5329793 93.1944352,74.794019 C94.4128074,75.95109 96.0828176,76.735886 98.0197844,76.9446618 C99.8202095,76.9815539 101.651269,77 103.50596,77 C106.003974,76.5967021 108.502862,76.1917272 111,75.7875908 C109.814013,73.558133 108.628025,71.3286752 107.439412,69.0992174 C103.575107,69.0992174 100.015394,68.7302963 96.6850016,68.1593069 C92.453959,67.5899944 89.9629479,65.0025154 88.4452343,62" id="Fill-63" fill="#127845"></path>
            <path d="M88.412382,62 C88.2724881,63.1349781 88.1360916,64.2699561 88.002318,65.4074981 C87.9655959,66.8809185 88.3669165,68.2475073 89.0829984,69.3568458 C89.7982059,71.7404706 91.3746352,73.7036066 93.5193835,74.9172127 C94.6770055,76.0103128 96.2578065,76.7512962 98.0877935,76.9478662 C100.052428,76.9820523 102.044168,77 104.056017,77 C106.371261,76.5367785 108.686505,76.0744117 111,75.6111902 C109.607181,73.5130192 108.214363,71.4139935 106.819796,69.3158225 C103.00419,69.3158225 99.5339467,68.8927696 96.3172614,68.2389607 C92.2743278,67.5851518 89.8803936,64.9929919 88.412382,62" id="Fill-64" fill="#177D4A"></path>
            <path d="M88.3791281,62 C88.2489875,63.0833818 88.1240875,64.1667635 88.0018078,65.2545032 C87.9677442,66.8669378 88.4166854,68.353864 89.2106301,69.5514236 C90.0045747,71.9378268 91.6466165,73.8814643 93.8406637,75.045032 C94.9420545,76.0726322 96.4347403,76.768158 98.1562639,76.9511912 C100.282184,76.9834399 102.436054,77 104.607392,77 C106.738552,76.4761766 108.869713,75.9497385 111,75.4259152 C109.400756,73.464846 107.801512,71.5020337 106.200522,69.5409646 C102.434307,69.5409646 99.0523994,69.0615921 95.9526089,68.3198722 C92.0946842,67.5798954 89.7958258,64.9808251 88.3791281,62" id="Fill-65" fill="#177D4A"></path>
            <path d="M88.3460312,63 C88.2273738,64.0296384 88.1113338,65.0610551 88.0014012,66.0951393 C87.9699919,67.8538826 88.4681786,69.4676941 89.3389146,70.7551867 C90.2122681,73.1434499 91.9188409,75.0666864 94.162862,76.1799052 C95.2054767,77.1357439 96.6084262,77.7848251 98.222516,77.9555424 C100.512779,77.9848844 102.824853,78 105.15525,78 C107.1035,77.410492 109.052622,76.8227623 111,76.2323651 C109.193964,74.4131595 107.387056,72.5957321 105.581021,70.7765264 C101.866869,70.7765264 98.5697634,70.2385892 95.5867509,69.4072318 C91.9144785,68.574096 89.7132089,65.9688797 88.3460312,63" id="Fill-66" fill="#1C824F"></path>
            <path d="M88.3130417,63 C88.2040955,63.9088269 88.0995071,64.8193478 88.0010197,65.7332567 C87.9731295,67.5161837 88.5187321,69.1449573 89.4669999,70.4340855 C90.418754,72.6667675 92.1897835,74.4429185 94.4828833,75.4305161 C95.4703718,76.2563373 96.7838272,76.8153548 98.2907712,76.9618852 C100.742497,76.9864481 103.21514,77 105.703471,77 C107.469271,76.3876218 109.235071,75.7752435 111,75.1628653 C108.988417,73.6043923 106.975963,72.0450723 104.96438,70.4857523 C101.29943,70.4857523 98.0903102,69.9267348 95.222846,69.0627987 C91.7356957,68.1980156 89.6291119,65.7578196 88.3130417,63" id="Fill-67" fill="#1C824F"></path>
            <path d="M88.2802044,63 C88.1818202,63.8561369 88.0886599,64.7122738 88.0007235,65.5735994 C87.9763451,67.5012045 88.5692625,69.2593119 89.5957672,70.6386435 C90.6266251,72.8749768 92.4602289,74.6296251 94.8049083,75.5653221 C95.7330287,76.3220088 96.9589138,76.8322318 98.359801,76.9654086 C100.973513,76.987893 103.60551,77 106.249695,77 C107.834291,76.3228736 109.417145,75.6466119 111,74.9694855 C108.783307,73.5538328 106.566614,72.1381802 104.350792,70.7225276 C100.734083,70.7225276 97.6136479,70.1042066 94.8597597,69.1494842 C91.5582282,68.1921675 89.5478811,65.7474211 88.2802044,63" id="Fill-68" fill="#218754"></path>
            <path d="M88.2475434,64 C88.1596994,64.7985866 88.0779437,65.6007067 88.0005366,66.405477 C87.978793,68.4867491 88.6189233,70.3789753 89.7252354,71.8515901 C90.8324173,74.0927562 92.7301948,75.8250883 95.1254649,76.7058304 C95.9960769,77.3904594 97.1319602,77.8507067 98.4278761,77.9690813 C101.203224,77.9885159 103.992487,78 106.796536,78 C108.197691,77.2561837 109.600585,76.5097173 111,75.7659011 C108.578638,74.5008834 106.158145,73.2349823 103.736783,71.9708481 C100.1691,71.9708481 97.1363089,71.290636 94.4983808,70.2385159 C91.3794851,69.1872792 89.4651825,66.7332155 88.2475434,64" id="Fill-69" fill="#218754"></path>
            <path d="M88.214947,64 C88.1376242,64.685799 88.0663829,65.37579 88.0003543,66.0691345 C87.9821096,68.1508448 88.6693275,70.0372114 89.8526281,71.4976783 C91.0367976,73.5819038 93.0002773,75.1698052 95.4442014,75.9344125 C96.2573948,76.4986457 97.306032,76.8784342 98.4945454,76.9748484 C101.430208,76.9907778 104.379772,77 107.339761,77 C108.56042,76.2420998 109.78021,75.4858764 111,74.7279763 C108.373629,73.6984393 105.748995,72.6705791 103.122624,71.6410422 C99.6066047,71.6410422 96.6596475,70.9493744 94.1366629,69.879595 C91.2010001,68.8106539 89.3817405,66.5243777 88.214947,64" id="Fill-70" fill="#248A57"></path>
            <path d="M88.1833604,64 C88.1165359,64.6308433 88.0557864,65.2634008 88.0002441,65.9011011 C87.9846228,68.1356234 88.7196916,70.1584361 89.9806773,71.7141162 C91.2442667,73.8037845 93.2698282,75.368893 95.7640285,76.0768774 C96.5207936,76.5680095 97.4788998,76.896288 98.5628442,76.9785719 C101.659332,76.993143 104.767103,77 107.883551,77 C108.922368,76.1737324 109.961184,75.3474649 111,74.5229116 C108.171677,73.6452166 105.341619,72.7692358 102.511561,71.8915408 C99.0445009,71.8915408 96.1849357,71.1372717 93.7766525,69.971583 C91.0247007,68.8050373 89.3011509,66.5139447 88.1833604,64" id="Fill-71" fill="#268C59"></path>
            <path d="M88.1510124,65 C88.0937924,65.5699831 88.0443751,66.142597 88.0001597,66.7213491 C87.9871551,69.1196627 88.7691618,71.2847218 90.1077631,72.9394266 C91.4480983,75.033457 93.5374954,76.5750422 96.0829186,77.2256998 C96.7808292,77.6404722 97.6521338,77.914941 98.6309427,77.9815852 C101.888148,77.9947386 105.153156,78 108.425967,78 C109.284267,77.1029342 110.143434,76.2049916 111,75.3070489 C107.969074,74.5888702 104.935547,73.8715683 101.90202,73.1533895 C98.4835578,73.1533895 95.7109886,72.3343676 93.4169866,71.0663744 C90.8481553,69.799258 89.2182522,67.4991568 88.1510124,65" id="Fill-72" fill="#298F5C"></path>
            <path d="M88.1187313,65 C88.071098,65.5079387 88.0321254,66.0194671 88.0000812,66.5354825 C87.9905546,69.1038934 88.8193727,71.4156427 90.2345125,73.178172 C91.6531165,75.2745409 93.8052722,76.7929725 96.3991177,77.3816789 C97.0425993,77.7155184 97.8255163,77.9353859 98.6967712,77.9874361 C102.114239,77.9964103 105.538634,78 108.96736,78 C109.645484,77.0280961 110.323608,76.0534999 111,75.081596 C107.765271,74.5305813 104.529676,73.9795665 101.294081,73.4294491 C97.9233809,73.4294491 95.2368671,72.5410051 93.0569975,71.1679553 C90.671006,69.7931106 89.1372162,67.484951 88.1187313,65" id="Fill-73" fill="#2B915E"></path>
            <path d="M88.0865523,65 C88.0502174,65.4080594 88.0208035,65.8212089 88.0000407,66.2369035 C87.9931198,68.7709438 88.8686166,71.0504772 90.3618059,72.7777306 C91.8567254,74.7170732 94.0731512,76.0948038 96.7160789,76.5800636 C97.3008969,76.8099682 97.9964497,76.9592789 98.7638071,76.9923648 C102.341059,76.9974549 105.921772,77 109.505946,77 C110.004252,76.028632 110.502559,75.0589608 111,74.0867444 C107.562031,73.7397667 104.124062,73.3944857 100.684363,73.0466596 C97.3657806,73.0466596 94.7643784,72.1609756 92.6993478,70.7900318 C90.4950337,69.419088 89.0546165,67.2795334 88.0865523,65" id="Fill-74" fill="#2E9461"></path>
            <path d="M88.0553168,65 C88.0293916,65.3459616 88.0103798,65.694531 88.0000097,66.0491851 C87.996553,68.7551612 88.9194908,71.1838464 90.4888307,73.0188338 C92.0616274,74.9616081 94.33959,76.3159 97.0323561,76.7392249 C97.5620947,76.8861282 98.169609,76.979138 98.8307021,76.996523 C102.56739,76.9991307 106.304943,77 110.045088,77 C110.363968,75.9525534 110.682848,74.9051068 111,73.8593988 C107.360099,73.6812025 103.720198,73.5038754 100.079433,73.3248099 C96.808535,73.3248099 94.2937887,72.3686346 92.3407555,70.8909091 C90.3194526,69.4123144 88.9756621,67.2670047 88.0553168,65" id="Fill-75" fill="#309663"></path>
            <path d="M88.0241715,66 C88.0069061,66.2789661 88,66.5614973 88,66.8493761 C88,69.7370766 88.9694479,72.3244207 90.6148332,74.2709447 C92.2645348,76.2183601 94.6057126,77.5463458 97.3483091,77.9055258 C97.8205157,77.9670232 98.3410652,78 98.8978719,78 L110.583042,78 L111,74.6185383 L99.4745336,74.6185383 C93.0293886,74.6185383 89.7619262,70.5 88.0241715,66" id="Fill-76" fill="#339966"></path>
            <path d="M43,51 C44.5882575,59.6684021 46.176515,68.3350687 47.7647725,77 C48.5063014,77 49.2478304,77 49.9893593,77 C55.4460544,77 60.9036048,77 66.3602999,77 C67.8151334,77 69.2708223,77 70.7256559,77 C72.8176741,72.0991857 74.9096924,67.1992391 77,62.2984248 C73.3445275,65.5670805 69.8002415,66.1935656 69.8002415,66.1935656 C69.8002415,66.1935656 66.5963575,66.1935656 54.7011043,66.1935656 C48.1658994,66.1935656 45.2399819,56.7546389 43,51" id="Fill-77" fill="#036936"></path>
            <path d="M43,52 C44.561639,60.3336192 46.1232779,68.6680959 47.6849169,77 C48.4341925,77 49.183468,77 49.9327436,77 C55.446444,77 60.9610086,77 66.474709,77 C67.944741,77 69.4156372,77 70.8856693,77 C72.9243557,72.3298117 74.9639063,67.6596234 77,62.9885775 C73.409181,66.0937468 69.9505872,66.6905979 69.9505872,66.6905979 C69.9505872,66.6905979 66.7132327,66.6905979 54.6937116,66.6905979 C48.1999898,66.6905979 45.2521478,57.6246355 43,52" id="Fill-78" fill="#056B38"></path>
            <path d="M43,53 C44.5336638,61.0008467 46.0682011,69.0008467 47.6027383,77 C48.359963,77 49.1171877,77 49.8744124,77 C55.4466079,77 61.0196768,77 66.5918724,77 C68.0775001,77 69.5640011,77 71.0496288,77 C73.0339593,72.5588484 75.0182897,68.1168501 77,63.6756986 C73.475892,66.618967 70.1046264,67.1871296 70.1046264,67.1871296 C70.1046264,67.1871296 66.8329266,67.1871296 54.6858897,67.1871296 C48.235069,67.1871296 45.264687,58.491956 43,53" id="Fill-79" fill="#086E3B"></path>
            <path d="M43,54 C44.4624211,62.0011621 45.9239856,70.0014526 47.3864067,78 C48.129183,78 48.8719593,78 49.6147356,78 C55.0806096,78 60.5473403,78 66.0132143,78 C67.4704951,78 68.9286326,78 70.3859134,78 C72.2587035,73.6045904 74.1289234,69.2074375 76,64.8102847 C72.6433708,67.7135386 69.4589423,68.277455 69.4589423,68.277455 C69.4589423,68.277455 66.249669,68.277455 54.3344064,68.277455 C48.1163322,68.277455 45.2103378,59.591226 43,54" id="Fill-80" fill="#0A703D"></path>
            <path d="M43,54 C44.4341049,61.6683878 45.8682097,69.3350544 47.3031806,77 C48.0540072,77 48.8048339,77 49.5556605,77 C55.0807747,77 60.6067548,77 66.131869,77 C67.6049441,77 69.0788852,77 70.5519603,77 C72.3688396,72.8332024 74.1848528,68.6655442 76,64.4970255 C72.7109117,67.2370262 69.6149425,67.7731507 69.6149425,67.7731507 C69.6149425,67.7731507 66.3708865,67.7731507 54.326484,67.7731507 C48.1518658,67.7731507 45.2221697,59.4593482 43,54" id="Fill-81" fill="#0D7340"></path>
            <path d="M43,55 C44.4059317,62.3327674 45.8118633,69.6680815 47.2186704,77 C47.9776634,77 48.7366564,77 49.4956494,77 C55.0808574,77 60.6669408,77 66.2521488,77 C67.7412458,77 69.2312182,77 70.7203152,77 C72.4807937,73.0594228 74.2412723,69.1205433 76,65.1791171 C72.778438,67.7580645 69.7731059,68.2648557 69.7731059,68.2648557 C69.7731059,68.2648557 66.4937659,68.2648557 54.3183627,68.2648557 C48.1886407,68.2648557 45.235834,60.3234295 43,55" id="Fill-82" fill="#0F7542"></path>
            <path d="M44,56 C45.3363731,63.3347937 46.671888,70.667835 48.0074028,78 C48.751549,78 49.4956951,78 50.2398412,78 C55.7157954,78 61.1926079,78 66.6685621,78 C68.1285304,78 69.5893571,78 71.0493254,78 C72.7006947,74.1096065 74.3512056,70.2183368 76,66.3279433 C72.9444519,68.8619563 70.1206448,69.3631512 70.1206448,69.3631512 C70.1206448,69.3631512 66.9054529,69.3631512 54.9682161,69.3631512 C49.0674034,69.3631512 46.1817987,61.430779 44,56" id="Fill-83" fill="#127845"></path>
            <path d="M44,56 C45.3070789,63.0002881 46.6141579,70.0014404 47.9212368,77 C48.6737185,77 49.4262002,77 50.1786819,77 C55.715975,77 61.2541362,77 66.7914293,77 C68.2677516,77 69.7449417,77 71.2212639,77 C72.8147545,73.3365159 74.4082452,69.6730318 76,66.0086835 C73.0143748,68.3827318 70.2821806,68.8563315 70.2821806,68.8563315 C70.2821806,68.8563315 67.0309737,68.8563315 54.9600217,68.8563315 C49.104204,68.8563315 46.1940873,61.2951562 44,56" id="Fill-84" fill="#127845"></path>
            <path d="M44,57 C45.2379594,63.6669505 46.4759188,70.3347524 47.7138782,77 C48.4510422,77 49.1882063,77 49.9253703,77 C55.3499451,77 60.7753703,77 66.1999451,77 C67.646215,77 69.0933352,77 70.539605,77 C72.0266868,73.5617949 73.5146188,70.1235898 75,66.6845332 C72.17548,68.8991869 69.619638,69.3445017 69.619638,69.3445017 C69.619638,69.3445017 66.4346133,69.3445017 54.6093801,69.3445017 C48.9815963,69.3445017 46.1392211,62.1556048 44,57" id="Fill-85" fill="#177D4A"></path>
            <path d="M44,58 C45.2082836,64.6666667 46.4174272,71.335097 47.6265709,78 C48.3721808,78 49.1177907,78 49.8634006,78 C55.3501262,78 60.8377119,78 66.3244375,78 C67.7872777,78 69.2509779,78 70.7138181,78 C72.1431187,74.617284 73.5724193,71.2336861 75,67.8492063 C72.2454573,70.0141093 69.7833107,70.4532628 69.7833107,70.4532628 C69.7833107,70.4532628 66.5617943,70.4532628 54.6010764,70.4532628 C49.018892,70.4532628 46.1516908,63.2760141 44,58" id="Fill-86" fill="#177D4A"></path>
            <path d="M44,58 C45.1795606,64.3339125 46.3582513,70.667825 47.5378118,77 C48.2919999,77 49.046188,77 49.800376,77 C55.3502259,77 60.9009456,77 66.4507955,77 C67.9304655,77 69.4110054,77 70.8906754,77 C72.2616101,73.8412967 73.6308051,70.6825934 75,67.5238901 C72.314673,69.530657 69.9494626,69.9424352 69.9494626,69.9424352 C69.9494626,69.9424352 66.6908831,69.9424352 54.5925583,69.9424352 C49.0557567,69.9424352 46.1668771,63.134196 44,58" id="Fill-87" fill="#1C824F"></path>
            <path d="M44,59 C45.1114581,65.0002849 46.2229162,71.0014244 47.335226,77 C48.073643,77 48.81206,77 49.5504769,77 C54.9842721,77 60.4189189,77 65.8527141,77 C67.3014422,77 68.751022,77 70.1997502,77 C71.4679196,74.065236 72.733534,71.1296173 74,68.1931441 C71.4730298,70.0433957 69.2782194,70.4271199 69.2782194,70.4271199 C69.2782194,70.4271199 66.0877811,70.4271199 54.2424483,70.4271199 C48.9304452,70.4271199 46.1104928,63.9901244 44,59" id="Fill-88" fill="#1C824F"></path>
            <path d="M44,60 C45.0814925,65.6669465 46.1629851,71.3347324 47.2453394,77 C47.9924741,77 48.7396088,77 49.4867435,77 C54.9846896,77 60.4834975,77 65.9814437,77 C67.4472754,77 68.9139689,77 70.3798006,77 C71.5871083,74.2861446 72.7944159,71.5722892 74,68.8567549 C71.5457444,70.550711 69.4473903,70.9066265 69.4473903,70.9066265 C69.4473903,70.9066265 66.2192859,70.9066265 54.2341079,70.9066265 C48.9696952,70.9066265 46.1242065,64.8401146 44,60" id="Fill-89" fill="#218754"></path>
            <path d="M45,61 C46.0508721,66.6666667 47.1017442,72.335082 48.1526163,78 C48.9087209,78 49.6648256,78 50.4209302,78 C55.9848837,78 61.5497093,78 67.1136628,78 C68.597093,78 70.0813953,78 71.5648256,78 C72.7107558,75.3489688 73.855814,72.6979376 75,70.0451576 C72.6200581,71.6828164 70.6212209,72.0325567 70.6212209,72.0325567 C70.6212209,72.0325567 67.3543605,72.0325567 55.2252907,72.0325567 C50.0084302,72.0325567 47.1375,65.979427 45,61" id="Fill-90" fill="#218754"></path>
            <path d="M45,61 C45.9854949,66.3344781 46.9709898,71.6672391 47.9564846,77 C48.6962457,77 49.4360068,77 50.1757679,77 C55.6194539,77 61.0639932,77 66.5076792,77 C67.9590444,77 69.4112628,77 70.862628,77 C71.9087031,74.5701637 72.9556314,72.1386101 74,69.7070566 C71.7738908,71.1898578 69.9394198,71.5118326 69.9394198,71.5118326 C69.9394198,71.5118326 66.7431741,71.5118326 54.8762799,71.5118326 C49.8813993,71.5118326 47.081058,65.8279045 45,61" id="Fill-91" fill="#248A57"></path>
            <path d="M45,62 C45.9543735,66.9997195 46.9087471,72.0002805 47.8631206,77 C48.6119367,77 49.3607529,77 50.1095691,77 C55.6198886,77 61.1310719,77 66.6413914,77 C68.1105221,77 69.5805164,77 71.0496471,77 C72.0333859,74.7866921 73.0188522,72.5733842 74,70.3600763 C71.8494207,71.6897442 70.1151383,71.9842908 70.1151383,71.9842908 C70.1151383,71.9842908 66.8797689,71.9842908 54.8676177,71.9842908 C49.9221491,71.9842908 47.0953033,66.6698272 45,62" id="Fill-92" fill="#268C59"></path>
            <path d="M45,63 C45.9216343,68.0002939 46.8441429,73.0005877 47.7666516,78 C48.5247701,78 49.2828886,78 50.0410071,78 C55.6197799,78 61.1994271,78 66.7781999,78 C68.2655812,78 69.7538369,78 71.2412182,78 C72.1611036,75.8586541 73.0818634,73.7181898 74,71.576844 C71.9258857,72.8410226 70.2951003,73.1275345 70.2951003,73.1275345 C70.2951003,73.1275345 67.0195387,73.1275345 54.8581637,73.1275345 C49.9631841,73.1275345 47.1099653,67.8292683 45,63" id="Fill-93" fill="#298F5C"></path>
            <path d="M45,63 C45.8591317,67.6672425 46.7174086,72.3353489 47.5765403,77 C48.3177017,77 49.058863,77 49.8000244,77 C55.2540148,77 60.70886,77 66.1628503,77 C67.6169628,77 69.0719301,77 70.5260426,77 C71.3518349,75.0762633 72.1759174,73.1525267 73,71.2270624 C71.0740062,72.3405319 69.6010869,72.600543 69.6010869,72.600543 C69.6010869,72.600543 66.398791,72.600543 54.509434,72.600543 C49.832509,72.600543 47.0516578,67.6706978 45,63" id="Fill-94" fill="#2B915E"></path>
            <path d="M45,64 C45.8259485,68.334459 46.651897,72.6672295 47.4787112,77 C48.2293374,77 48.9799635,77 49.7305897,77 C55.2542284,77 60.7787329,77 66.3023716,77 C67.7750533,77 69.2486008,77 70.7212826,77 C71.482298,75.2895181 72.2407161,73.578192 73,71.8668658 C71.1533039,72.8327055 69.784515,73.0657228 69.784515,73.0657228 C69.784515,73.0657228 66.5413253,73.0657228 54.5001391,73.0657228 C49.8743082,73.0657228 47.0666028,68.5041564 45,64" id="Fill-95" fill="#2E9461"></path>
            <path d="M45,65 C45.7927093,69.3327392 46.5854186,73.6672608 47.3790047,78 C48.139269,78 48.8995334,78 49.6597977,78 C55.254361,78 60.8498011,78 66.4443644,78 C67.9359557,78 69.4284238,78 70.920015,78 C71.6136357,76.3745544 72.3072563,74.7473266 73,73.1200987 C71.233065,74.0094598 69.9712192,74.2322457 69.9712192,74.2322457 C69.9712192,74.2322457 66.6863863,74.2322457 54.4905891,74.2322457 C49.9176036,74.2322457 47.0817387,69.6891966 45,65" id="Fill-96" fill="#309663"></path>
            <path d="M45,65 L47.1947459,77 L70.1933181,77 L72,72.7561507 C70.3757853,73.4981494 69.2664192,73.6958415 69.2664192,73.6958415 C69.2664192,73.6958415 66.0573958,73.6958415 54.1422045,73.6958415 C49.7844089,73.6958415 47.0225585,69.5207925 45,65" id="Fill-97" fill="#339966"></path>
            <path d="M6,77 C9.95764909,77 13.9144339,77 17.8703544,77 C21.2203976,77 24.4511668,75.6108614 26.9507347,73.3746445 C29.4252377,71.1619576 31.1806396,68.1257224 31.624892,64.7949271 C31.6758859,62.7408495 31.7035436,60.3460233 32,58 C26.6292135,65.9409229 19.9827139,64.7469957 19.8738116,64.7469957 C15.7666379,64.7469957 11.6594641,64.7469957 7.5505618,64.7469957 C7.03284356,68.829878 6.51685393,72.9153747 6,77" id="Fill-98" fill="#036936"></path>
            <path d="M6,77 C10.0199217,77 14.0389654,77 18.0571313,77 C21.4598865,77 24.7414911,75.6325422 27.280389,73.4312268 C29.7604673,71.2805262 31.5285656,68.3362882 32,65.1072348 C31.7857915,63.4841293 31.5232982,61.1944524 31.8094949,59 C26.5122231,66.4266514 19.9823744,65.3079783 19.7637763,65.3079783 C15.6841572,65.3079783 11.6062939,65.3079783 7.52667477,65.3079783 C7.01661264,69.2061767 6.50830632,73.1026594 6,77" id="Fill-99" fill="#056B38"></path>
            <path d="M6,77 C10.024542,77 14.048205,77 18.0709891,77 C21.4776553,77 24.7630316,75.6559865 27.3048475,73.4924115 C29.7570144,71.4064081 31.5113245,68.5564924 32,65.4300169 C31.5201136,64.2284992 30.9681563,62.0421585 31.2397404,60 C26.0928267,66.9148398 19.7795957,65.8743676 19.4500034,65.8743676 C15.4606179,65.8743676 11.4703536,65.8743676 7.48008924,65.8743676 C6.98614022,69.5826307 6.49307011,73.2917369 6,77" id="Fill-100" fill="#086E3B"></path>
            <path d="M6,78 C10.0289002,78 14.0569205,78 18.0840609,78 C21.4944162,78 24.7833503,76.5990073 27.3279188,74.343708 C29.7501861,72.1973943 31.4905584,69.2741185 32,66.064316 C31.2512352,65.2214352 30.4083249,63.0109606 30.6661252,61 C25.6720135,67.8072071 19.5745516,66.7841485 19.1354992,66.7841485 C15.2350592,66.7841485 11.3337394,66.7841485 7.43153976,66.7841485 C6.95465313,70.5221797 6.47688663,74.2610899 6,78" id="Fill-101" fill="#0A703D"></path>
            <path d="M6,77 C9.87840493,77 13.7559629,77 17.6326738,77 C20.915639,77 24.0817184,75.6229685 26.5312373,73.4062416 C28.8325315,71.3242805 30.4926481,68.4967874 31,65.3902597 C30.023411,64.9643648 28.9341713,62.8590789 29.1670958,61 C24.5111465,67.2977161 18.8557393,66.3500351 18.3272124,66.3500351 C14.662251,66.3500351 10.9981366,66.3500351 7.33148123,66.3500351 C6.88765415,69.8988716 6.44382708,73.4494358 6,77" id="Fill-102" fill="#0D7340"></path>
            <path d="M6,77 C9.88274599,77 13.764644,77 17.6456941,77 C20.9323339,77 24.1019571,75.6492289 26.5542177,73.4747754 C28.8267137,71.4587876 30.4734254,68.7309757 31,65.7319925 C29.7662382,65.7091125 28.3942611,63.7100729 28.6121833,62 C24.1053488,67.7911982 18.6589899,66.9192136 18.0230302,66.9192136 C14.4446969,66.9192136 10.8663637,66.9192136 7.2863345,66.9192136 C6.85727368,70.2800407 6.42906081,73.6391729 6,77" id="Fill-103" fill="#0F7542"></path>
            <path d="M6,78 C9.88722877,78 13.7736086,78 17.6591395,78 C20.9495738,78 24.1228565,76.5836147 26.5779483,74.3035365 C28.8225067,72.2180558 30.4566878,69.4057224 31,66.3099342 C29.5075894,66.7009063 27.8555808,64.6740714 28.0593229,63 C23.6992428,68.6673183 18.4613739,67.8142883 17.7194132,67.8142883 C14.2260858,67.8142883 10.7344562,67.8142883 7.24112873,67.8142883 C6.82770213,71.2095255 6.4134266,74.6056513 6,78" id="Fill-104" fill="#127845"></path>
            <path d="M6,77 C9.89158961,77 13.7823293,77 17.6722192,77 C20.9663448,77 24.1431874,75.6105473 26.6010335,73.3738248 C28.8183642,71.3558932 30.4390808,68.6423635 31,65.655999 C29.2484022,66.4439948 27.3140808,64.5236909 27.5036035,63 C23.29161,68.1629413 18.2628841,67.3862773 17.4138564,67.3862773 C14.0083968,67.3862773 10.6020873,67.3862773 7.19577781,67.3862773 C6.79718521,70.590561 6.3985926,73.7957163 6,77" id="Fill-105" fill="#127845"></path>
            <path d="M6,77 C9.89596025,77 13.7910697,77 17.6853283,77 C20.9831535,77 24.163564,75.6403779 26.6241704,73.4516764 C28.8116598,71.5052162 30.4197325,68.8951512 31,66.019815 C28.9894837,67.1900794 26.7722152,65.3766813 26.9474866,64 C22.8830616,68.6631455 18.0656502,67.9611574 17.1076132,67.9611574 C13.789368,67.9611574 10.4702719,67.9611574 7.15032502,67.9611574 C6.76659973,70.9738206 6.38372528,73.9873368 6,77" id="Fill-106" fill="#177D4A"></path>
            <path d="M6,77 C9.90047361,77 13.8000954,77 17.6988654,77 C21.0005111,77 24.1846059,75.673601 26.648063,73.5383815 C28.8082729,71.6661119 30.4020239,69.1639276 31,66.4062825 C28.7299056,67.9357187 26.2289686,66.2315373 26.3899622,65 C22.4741558,69.1697524 17.8658217,68.5423341 16.8019013,68.5423341 C13.5701046,68.5423341 10.3374561,68.5423341 7.10480766,68.5423341 C6.73597056,71.3623882 6.36798528,74.180778 6,77" id="Fill-107" fill="#177D4A"></path>
            <path d="M6,78 C9.90473104,78 13.8086093,78 17.7116349,78 C21.0168844,78 24.2044548,76.5936328 26.6706007,74.3296816 C28.8016168,72.373649 30.381758,69.7664878 31,66.8919932 C28.4673398,68.9239027 25.6839718,67.1875597 25.8306443,66 C22.0623529,70.0197044 17.6664393,69.4153371 16.4939114,69.4153371 C13.3489784,69.4153371 10.2040454,69.4153371 7.05825971,69.4153371 C6.70607497,72.2765973 6.35303749,75.1387398 6,78" id="Fill-108" fill="#1C824F"></path>
            <path d="M6,77 C9.90926476,77 13.8176758,77 17.7252331,77 C21.0343203,77 24.2255916,75.6281199 26.694601,73.4196855 C28.7973568,71.5391597 30.3648192,69.041546 31,66.2865973 C28.2065704,68.6697442 25.1382372,67.0422502 25.2705665,66 C21.6507188,69.5286754 17.4656968,68.9985134 16.1867978,68.9985134 C13.1278558,68.9985134 10.0706212,68.9985134 7.01253287,68.9985134 C6.67530649,71.6656756 6.33722638,74.3328378 6,77" id="Fill-109" fill="#1C824F"></path>
            <path d="M6,78 C9.91354142,78 13.8262282,78 17.7380602,78 C21.0507675,78 24.2455301,76.5752824 26.7172404,74.2817909 C28.7906738,72.3574389 30.3444669,69.8118957 31,67 C27.9445489,69.8923377 24.5908174,68.2718778 24.7079074,67.3092549 C21.2387953,70.5662631 17.2654268,70.0764606 15.8774401,70.0764606 C12.9066015,70.0764606 9.93747222,70.0764606 6.96663362,70.0764606 C6.64442241,72.7176404 6.32221121,75.3588202 6,78" id="Fill-110" fill="#218754"></path>
            <path d="M6,78 C9.91809563,78 13.8353356,78 17.7517199,78 C21.0682822,78 24.2667625,76.5586519 26.7413492,74.2383888 C28.7863915,72.3214139 30.3274463,69.7922729 31,67 C27.6817264,70.346568 24.0417223,68.7768187 24.1461136,67.9259351 C20.825273,70.8104398 17.0654756,70.3755035 15.5680597,70.3755035 C12.6861759,70.3755035 9.80343636,70.3755035 6.92069685,70.3755035 C6.61351268,72.918208 6.30718417,75.4581998 6,78" id="Fill-111" fill="#218754"></path>
            <path d="M6,77 C9.92266045,77 13.8444642,77 17.7654114,77 C21.0858376,77 24.2880444,75.674318 26.7655142,73.5402528 C28.7829558,71.8037259 30.3095295,69.5224551 31,67 C27.4191481,70.4664005 23.4939177,69.0874917 23.582154,68.416334 C20.4125004,70.6901198 16.8633451,70.3483034 15.2588151,70.3483034 C12.4635233,70.3483034 9.66908817,70.3483034 6.87465305,70.3483034 C6.58338759,72.5655356 6.29126546,74.7835995 6,77" id="Fill-112" fill="#248A57"></path>
            <path d="M6,77 C9.9271012,77 13.8533448,77 17.7787307,77 C21.102916,77 24.3087479,75.658475 26.7890223,73.4989059 C28.7761578,71.7677159 30.2898799,69.5046289 31,67 C27.1560892,70.9000168 22.941681,69.5702744 23.0154374,69.0038714 C19.9965695,70.9210571 16.6620926,70.6323851 14.9476844,70.6323851 C12.2409949,70.6323851 9.53430532,70.6323851 6.82847341,70.6323851 C6.55231561,72.755765 6.2761578,74.8783033 6,77" id="Fill-113" fill="#268C59"></path>
            <path d="M6,77 C9.93168704,77 13.8625155,77 17.7924852,77 C21.1205523,77 24.3301278,75.6423644 26.8132985,73.4568606 C28.7727023,71.7321353 30.2727366,69.4870113 31,67 C26.8922929,71.3437527 22.3913312,70.0653266 22.4488597,69.6062516 C19.5810207,71.1589302 16.4607432,70.9247083 14.6361451,70.9247083 C12.0181687,70.9247083 9.40019233,70.9247083 6.78221596,70.9247083 C6.5211911,72.9500894 6.26102487,74.9754706 6,77" id="Fill-114" fill="#298F5C"></path>
            <path d="M6,77 C9.93601293,77 13.8711663,77 17.80546,77 C21.1371888,77 24.3502957,75.6257436 26.8361986,73.4134839 C28.7659538,71.6952323 30.2521661,69.4683162 31,67 C26.6256017,71.7986895 21.8360267,70.5718596 21.8807248,70.2226916 C19.1635951,71.4012415 16.2564984,71.2245021 14.3241645,71.2245021 C11.7935635,71.2245021 9.26468161,71.2245021 6.73408059,71.2245021 C6.48910054,73.1496681 6.24498006,75.074834 6,77" id="Fill-115" fill="#2B915E"></path>
            <path d="M6,77 C9.94061962,77 13.8803787,77 17.8192771,77 C21.1549053,77 24.3717728,75.6088323 26.8605852,73.3693489 C28.7616179,71.6587537 30.2340792,69.4506895 31,67 C26.3605852,72.2653168 21.2822719,71.089719 21.3115318,70.8549485 C18.7461274,71.6500262 16.0542169,71.5313318 14.0111876,71.5313318 C11.570568,71.5313318 9.12908778,71.5313318 6.68760757,71.5313318 C6.4595525,73.3536394 6.22977625,75.1776924 6,77" id="Fill-116" fill="#2E9461"></path>
            <path d="M6,78 C9.94496519,78 13.8890689,78 17.832311,78 C21.1716176,78 24.3920325,76.591375 26.8835895,74.3237893 C28.7548418,72.6200071 30.2134193,70.4301873 31,68 C26.0944242,73.7423118 20.7253429,72.6217745 20.7408505,72.5024744 C18.3268316,72.9063273 15.8490592,72.844468 13.6978083,72.844468 C11.3458198,72.844468 8.99296988,72.844468 6.64098146,72.844468 C6.42818251,74.5641569 6.21279895,76.2820785 6,78" id="Fill-117" fill="#309663"></path>
            <path d="M6,78 L17.8457372,78 C21.1890764,78 24.4133803,76.5736018 26.907946,74.2774049 C28.751268,72.5807606 30.1960805,70.4116331 31,68 C25.8280026,74.2326622 20.1695132,73.1677852 20.1695132,73.1677852 L6.59345133,73.1677852 L6,78" id="Fill-118" fill="#339966"></path>
            <path d="M249,60 C254.131694,64.5703146 262.027217,70.4661769 268.744513,70.5096374 C276.172081,70.553098 286.701493,66.0775275 294,60.8292279 C292.836699,63.1665379 291.694469,65.4821176 290.557507,67.7829207 C288.605795,71.5544298 284.934153,74.3480759 280.626866,75.9787168 C277.211589,77.3338177 273.43547,78.033533 269.751536,77.9987646 C266.08604,77.9709498 262.506585,77.2103896 259.471466,75.6518933 C256.307287,74.0238599 253.731343,71.5074923 252.273047,68.0219538 C251.164179,65.3734661 250.069359,62.698902 249,60" id="Fill-119" fill="#036936"></path>
            <path d="M249,61 C254.048875,65.3054787 261.761916,70.8383034 268.347367,70.9232409 C275.615937,71.0073289 285.862731,66.882767 293,62.0099061 C292.023228,64.1792083 291.089039,66.3068911 290.16461,68.4090927 C288.461247,71.8736908 285.107751,74.4167177 281.137672,75.8708466 C277.747802,77.2391888 273.978224,77.9738976 270.283168,77.9985295 C266.588999,78.0359019 262.960481,77.3614987 259.858053,75.9107672 C256.636745,74.3954833 253.98145,72.0180845 252.43068,68.7029762 C251.249859,66.1820331 250.098314,63.6160731 249,61" id="Fill-120" fill="#056B38"></path>
            <path d="M249,61 C253.851242,65.2908561 261.20915,70.7828002 267.512172,70.9146912 C274.453908,71.0465823 284.187934,67.0318182 291,62.2529651 C290.233369,64.3808077 289.528068,66.4462218 288.837662,68.466793 C287.417423,71.8264982 284.461293,74.2656037 280.914638,75.6275988 C277.6282,77.0871932 273.951874,77.9005215 270.32987,77.9884489 C266.692096,78.094841 263.094624,77.4679188 259.99831,76.0399782 C256.789849,74.5478505 254.12022,72.172932 252.511609,68.8352087 C251.284999,66.2967453 250.103073,63.6853022 249,61" id="Fill-121" fill="#086E3B"></path>
            <path d="M250,62 C254.651123,66.0208661 261.652441,71.1468275 267.676167,71.3174356 C274.291117,71.4889011 283.512112,67.8238259 290,63.424021 C289.438166,65.3838718 288.955853,67.2614191 288.495149,69.0832401 C287.353329,72.1353261 284.787043,74.3249406 281.658923,75.5149112 C278.477213,76.980084 274.897033,77.8236943 271.349699,77.96944 C267.76779,78.1400481 264.208354,77.5990745 261.119995,76.2770754 C257.93137,74.8993501 255.246667,72.6660118 253.584502,69.5033306 C252.314757,67.0959549 251.105517,64.5968451 250,62" id="Fill-122" fill="#0A703D"></path>
            <path d="M250,62 C254.569725,66.0005055 261.390224,71.073797 267.27982,71.2968867 C273.736698,71.5181988 282.673361,67.9789825 289,63.6851718 C288.628513,65.5969886 288.35842,67.4021489 288.113676,69.1362049 C287.222108,72.0701459 284.980949,74.1446138 282.193487,75.2333983 C279.034538,76.7976928 275.460397,77.7247151 271.900242,77.9389168 C268.287642,78.1842266 264.675916,77.6944957 261.520463,76.4003976 C258.267986,75.0494159 255.505872,72.8211851 253.74721,69.6366014 C252.403738,67.2128337 251.137187,64.6690775 250,62" id="Fill-123" fill="#0D7340"></path>
            <path d="M250,63 C254.368343,66.7272228 260.832146,71.4311992 266.441574,71.68965 C272.572067,71.9481007 280.996113,68.7576603 287,64.8428662 C286.826024,66.5845995 286.773487,68.205319 286.751955,69.7404646 C286.132705,72.3716488 284.270647,74.1989561 281.894413,75.1160672 C278.842086,76.6806018 275.365154,77.6340171 271.883915,77.9028405 C268.333776,78.2071036 264.763827,77.8017076 261.619344,76.6166374 C258.392179,75.3788399 255.620624,73.2948106 253.811103,70.2902127 C252.429632,68.0013245 251.137733,65.5749992 250,63" id="Fill-124" fill="#0F7542"></path>
            <path d="M250,63 C254.240926,66.4522506 260.458708,70.7847331 265.878675,71.0778645 C271.786818,71.3701584 279.840868,68.522596 285.621361,64.9824059 C285.642924,66.5586155 285.803349,67.9966345 286,69.3383389 C285.638611,71.66999 284.124919,73.2562497 282.114425,74.0091787 C279.116366,75.5652878 275.680155,76.5393217 272.220657,76.8592537 C268.675771,77.2193866 265.08776,76.8944294 261.90685,75.8148683 C258.647452,74.6900811 255.823618,72.7520637 253.938187,69.9304644 C252.494358,67.7805547 251.157479,65.4731917 250,63" id="Fill-125" fill="#127845"></path>
            <path d="M250,64 C254.085964,67.4224156 260.012498,71.6897753 265.205719,72.0378471 C270.850936,72.3850487 278.482528,69.6805311 283.999093,66.2642068 C284.212654,67.7844102 284.586601,69.1410199 285,70.3827659 C284.897079,72.5799689 283.73836,74.0366492 282.107062,74.6771012 C279.186679,76.3374035 275.814301,77.4016329 272.400755,77.7958242 C268.885145,78.2378753 265.304352,77.9689899 262.108655,76.9221641 C258.843487,75.8300889 255.987429,73.900031 254.035361,71.0615058 C252.542149,68.8973697 251.168153,66.5470151 250,64" id="Fill-126" fill="#127845"></path>
            <path d="M251,64 C254.926801,67.1454126 260.563057,71.040213 265.529506,71.4182674 C270.909258,71.7963218 278.113506,69.4288611 283.367989,66.3851032 C283.770214,67.739378 284.352246,68.9163874 284.981148,69.9682187 C285.135391,71.8736129 284.329238,73.0951486 283.073138,73.5756978 C280.229446,75.2214946 276.924729,76.2993697 273.557803,76.7379128 C270.074983,77.2285434 266.506945,77.038676 263.297671,76.0977407 C260.027893,75.1164795 257.143297,73.3354232 255.127914,70.6840017 C253.585485,68.6618308 252.178552,66.4388709 251,64" id="Fill-127" fill="#177D4A"></path>
            <path d="M251,65 C254.870127,68.1076736 260.360267,71.9269215 265.228128,72.362258 C270.481002,72.7993429 277.444276,70.59119 282.569392,67.6880721 C283.175158,68.9800951 283.985165,70.0666881 284.845579,71.0090432 C285.264488,72.7643761 284.793433,73.8431016 283.886956,74.2023854 C281.046719,75.9568442 277.721521,77.1308542 274.314627,77.6492369 C270.772152,78.2279373 267.120171,78.1003085 263.814093,77.1937945 C260.455869,76.2514394 257.462669,74.4821198 255.331622,71.8167761 C253.699442,69.7834571 252.220224,67.5167348 251,65" id="Fill-128" fill="#177D4A"></path>
            <path d="M251,65 C254.681564,67.8292155 259.8337,71.2745377 264.432017,71.7368278 C269.377006,72.1974369 275.855052,70.320539 280.673356,67.782146 C281.46428,68.9118149 282.471767,69.8237872 283.538317,70.5827836 C284.206836,72.0520256 284.090423,72.9043205 283.564852,73.1127713 C280.82572,74.8434174 277.596969,76.0209964 274.268924,76.5782661 C270.786803,77.1994159 267.178853,77.1447817 263.890183,76.34544 C260.556146,75.5124773 257.561932,73.8944619 255.387747,71.4199489 C253.719444,69.5312837 252.221482,67.3971844 251,65" id="Fill-129" fill="#1C824F"></path>
            <path d="M251,66 C254.572382,68.782655 259.501855,72.1400649 263.93502,72.6648792 C268.681824,73.1888174 274.821047,71.4873325 279.439466,69.1059546 C280.429497,70.1660971 281.658203,70.9782889 282.948948,71.6170028 C283.881248,72.9207152 284.113031,73.6172551 283.953626,73.6917279 C281.257538,75.5386539 278.051356,76.8187102 274.72799,77.4618049 C271.232294,78.1776201 267.587535,78.1916385 264.244351,77.4302634 C260.864978,76.6399754 257.800105,75.0383717 255.536563,72.5527319 C253.798624,70.6549892 252.247662,68.4768783 251,66" id="Fill-130" fill="#1C824F"></path>
            <path d="M251,66 C254.424715,68.5037388 259.081125,71.4892882 263.301506,72.0322677 C267.799984,72.5760851 273.535308,71.1926605 277.906755,69.1690563 C279.084376,70.0698325 280.521211,70.7142017 282.025854,71.1784157 C283.212916,72.2099091 283.790569,72.6908817 284,72.626361 C281.371811,74.4346168 278.225193,75.7082725 274.940385,76.3819693 C271.467605,77.130242 267.826592,77.2123592 264.461961,76.5554211 C261.069004,75.872507 257.969595,74.4220479 255.638385,72.1344953 C253.848779,70.3857326 252.26002,68.3487215 251,66" id="Fill-131" fill="#218754"></path>
            <path d="M252,67 C255.276263,69.4488016 259.653152,72.3325762 263.656903,72.944339 C267.902298,73.5561018 273.232095,72.3649585 277.350264,70.5147917 C278.713025,71.3392274 280.355853,71.8722225 282.069551,72.2047974 C283.505744,73.0563642 284.426206,73.366184 285,73.1552615 C282.446957,75.0876968 279.360252,76.4705083 276.118143,77.2363058 C272.67367,78.085247 269.038786,78.2410321 265.659206,77.6301445 C262.260841,76.993001 259.128027,75.5629288 256.732949,73.2672867 C254.895441,71.5116413 253.270544,69.4304225 252,67" id="Fill-132" fill="#218754"></path>
            <path d="M252,67 C255.221467,69.169809 259.448494,71.6872532 263.352587,72.3101689 C267.469344,72.9322529 272.544402,72.043205 276.529884,70.5370632 C278.125302,71.2082153 280.025277,71.5849587 282.002265,71.7554496 C283.738584,72.3475937 285.036448,72.4590366 286,72.1238764 C283.441905,74.00094 280.325457,75.3648675 277.029601,76.1516208 C273.509704,77.0232037 269.771017,77.2386044 266.274749,76.7263 C262.763604,76.1948672 259.503629,74.9166011 256.974414,72.823305 C255.028932,71.2231852 253.320618,69.2887369 252,67" id="Fill-133" fill="#248A57"></path>
            <path d="M252,68 C255.069856,70.1060826 259.015569,72.5071908 262.701833,73.2008056 C266.563095,73.896161 271.226211,73.2190815 274.95949,71.9058259 C276.740807,72.4906554 278.846,72.7482589 281.035645,72.7743674 C283.024173,73.1703457 284.666189,73.0955015 286,72.6029218 C283.516081,74.6097923 280.460156,76.0892718 277.208338,76.9734783 C273.716225,77.9516754 269.985558,78.2493119 266.471679,77.7863218 C262.955188,77.3076667 259.663321,76.0527199 257.069702,73.9553402 C255.075079,72.3496697 253.33207,70.3732592 252,68" id="Fill-134" fill="#268C59"></path>
            <path d="M252,68 C254.921462,69.8300087 258.588664,71.8733817 262.057521,72.570098 C265.667558,73.2651731 269.922863,72.8671667 273.403847,71.8758436 C275.370832,72.3165228 277.680805,72.4289494 280.079124,72.3107784 C282.316342,72.4716222 284.301516,72.2205089 286,71.6222684 C283.586957,73.5556767 280.593606,74.9999886 277.385454,75.8920152 C273.920927,76.8784146 270.197427,77.2239005 266.669673,76.8570782 C263.144517,76.4779463 259.822035,75.3750173 257.163877,73.4842818 C255.121539,72.0366874 253.34337,70.2165263 252,68" id="Fill-135" fill="#298F5C"></path>
            <path d="M253,69 C255.772151,70.7565431 259.16474,72.6697206 262.420316,73.4425651 C265.781022,74.214549 269.632046,74.0475871 272.864355,73.2678575 C275.015207,73.6146909 277.527119,73.5966176 280.132097,73.3237984 C282.617295,73.2678575 284.940491,72.8160275 287,72.0492073 C284.660432,74.1198799 281.728001,75.6845028 278.562044,76.6802501 C275.12206,77.7809942 271.406326,78.2138904 267.862936,77.9006216 C264.333333,77.5796071 260.976936,76.5064031 258.25735,74.615602 C256.166819,73.1654427 254.354623,71.3039029 253,69" id="Fill-136" fill="#2B915E"></path>
            <path d="M253,69 C255.625145,70.6734187 258.746684,72.439002 261.790206,73.2946865 C264.902315,74.1530816 268.356498,74.2389211 271.340864,73.6940661 C273.674517,73.9362239 276.386252,73.7762913 279.195723,73.3299258 C281.924605,73.0380715 284.584044,72.3640054 287,71.4125421 C284.731504,73.6308159 281.859448,75.3277276 278.736194,76.4373163 C275.32402,77.663466 271.614353,78.1911531 268.05729,77.9381524 C264.518231,77.6797303 261.131777,76.6406204 258.351455,74.7521511 C256.212416,73.301915 254.36487,71.3953742 253,69" id="Fill-137" fill="#2E9461"></path>
            <path d="M253,70 C255.480482,71.403627 258.331159,72.827523 261.164777,73.6703749 C264.033367,74.5132268 267.092173,74.8409086 269.833668,74.5850127 C272.34571,74.6990258 275.25439,74.4144155 278.266282,73.8519512 C281.239789,73.3604284 284.229503,72.5446018 287,71.515951 C284.801856,73.6332151 281.98871,75.2699354 278.907727,76.365305 C275.522228,77.5755322 271.820271,78.1371519 268.247115,77.9716219 C264.70296,77.8052473 261.283342,76.9159457 258.4429,75.241221 C256.255845,73.9532961 254.375866,72.21692 253,70" id="Fill-138" fill="#309663"></path>
            <path d="M253,70 C257.808547,72.6174896 263.645375,75.0358899 268.791149,75.0358899 C274.32919,75.0358899 281.576082,73.2734173 288,70.8203541 C285.808023,73.092104 282.973042,74.8679084 279.844516,76.0837745 C276.386626,77.4267378 272.582772,78.0897759 268.890744,77.9902313 C265.232789,77.8924643 261.68404,77.04278 258.696171,75.3754081 C256.396735,74.0911051 254.427537,72.3117454 253,70" id="Fill-139" fill="#339966"></path>
            <polyline id="Fill-140" fill="#FF9933" points="266.734727 0 277.001283 4.17357454 287.266984 0 293 0 279.926396 23.4228794 277.001283 26 267.879448 17.9649972 261 0 266.734727 0"></polyline>
            <polyline id="Fill-141" fill="#FF9E3B" points="265.477074 0 277.001283 4.77107732 288.523782 0 293 0 279.585889 24.6817211 277.001283 27 268.08649 19.0039469 261 0 265.477074 0"></polyline>
            <polyline id="Fill-142" fill="#FFA340" points="264.200599 0 277.001283 5.19835531 289.801968 0 293 0 279.252226 25.0189748 277.001283 27 268.289255 19.3359465 261 0 264.200599 0"></polyline>
            <polyline id="Fill-143" fill="#FFA647" points="262.899313 0 277.001283 5.61723745 291.102398 0 293 0 278.92284 25.3412357 277.001283 27 268.492019 19.65734 261 0 262.899313 0"></polyline>
            <polyline id="Fill-144" fill="#FFAB4F" points="261.575783 0 277.001283 6.24969469 292.425928 0 293 0 278.597733 26.5980272 277.001283 28 268.692217 20.7078127 261 0 261.575783 0"></polyline>
            <polyline id="Fill-145" fill="#FFB057" points="261 1 277.04152 7.38724459 293 1.03339506 278.333838 27.8839019 277.04152 29 268.842137 21.926399 261 1"></polyline>
            <polyline id="Fill-146" fill="#FFB55E" points="261 1 276.610232 7.08805871 292 1.08577147 277.573268 27.1851711 276.610232 28 268.706847 21.3226913 261 1"></polyline>
            <polyline id="Fill-147" fill="#FFB866" points="261 2 276.681276 8.01678565 292 2.13891569 277.34799 28.4443373 276.681276 29 268.821029 22.4648852 261 2"></polyline>
            <polyline id="Fill-148" fill="#FFBD6B" points="261 2 276.247411 7.94286551 291 2.19162028 276.59852 28.7020217 276.247411 29 268.680503 22.6079695 261 2"></polyline>
            <polyline id="Fill-149" fill="#FFC273" points="262 3 277.321447 8.65571339 292 3.2382255 277.371509 28.9588675 277.321447 29 269.796417 22.9826637 262 3"></polyline>
            <polyline id="Fill-150" fill="#FFC47A" points="262 4 276.884864 9.6018878 291 4.28892757 276.789515 30 269.651333 24.1779355 262 4"></polyline>
            <polyline id="Fill-151" fill="#FFC982" points="262 4 276.444913 9.33861696 290 4.32909283 276.238911 29 269.500687 23.6044083 262 4"></polyline>
            <polyline id="Fill-152" fill="#FFCF87" points="262 5 276.522271 10.2900404 290 5.38026757 276.196507 30 269.619214 24.8084834 262 5"></polyline>
            <polyline id="Fill-153" fill="#FFD48F" points="263 6 277.080145 11.2409152 290 6.43051943 276.644606 31 270.465283 26.0147607 263 6"></polyline>
            <polyline id="Fill-154" fill="#FFD696" points="263 6 277.159202 10.9848858 290 6.46392968 276.595932 30 270.583904 25.4147283 263 6"></polyline>
            <polyline id="Fill-155" fill="#FFDB9E" points="263 7 276.715238 11.9367392 289 7.51451619 276.044215 31 270.425475 26.6178918 263 7"></polyline>
            <polyline id="Fill-156" fill="#FFE0A6" points="263 7 276.267813 11.6849963 288 7.54227642 275.493175 30 270.259248 25.9949741 263 7"></polyline>
            <polyline id="Fill-157" fill="#FFE3AB" points="264 8 277.348997 12.6390768 289 8.59133965 276.435364 31 271.380686 27.1960607 264 8"></polyline>
            <polyline id="Fill-158" fill="#FFE8B3" points="264 9 276.89883 13.5919085 288 9.63940193 275.882761 32 271.211251 28.3948989 264 9"></polyline>
            <polyline id="Fill-159" fill="#FFEDBA" points="264 9 276.984963 13.3476129 288 9.65997432 275.823957 31 271.33749 27.7463523 264 9"></polyline>
            <polyline id="Fill-160" fill="#FFF2C2" points="264 10 276.530516 14.3013937 287 10.706446 275.270372 32 271.160418 28.9442509 264 10"></polyline>
            <polyline id="Fill-161" fill="#FFF5C7" points="265 10 277.071908 14.0630692 287 10.7210446 275.715686 31 271.976314 28.2723866 265 10"></polyline>
            <polyline id="Fill-162" fill="#FFF5C7" points="265 12 276.736993 15.9861995 286 12.8390629 274.883012 33 272.196896 31.0242542 265 12"></polyline>
            <polyline id="Fill-163" fill="#FCEDBF" points="265 12 276.269734 15.9368918 285 12.8864642 274.350781 33 271.975095 31.2023002 265 12"></polyline>
            <polyline id="Fill-164" fill="#FCE6B8" points="265 13 276.365314 16.706504 285 13.8901108 274.284133 33 272.100499 31.4586305 265 13"></polyline>
            <polyline id="Fill-165" fill="#FADEB0" points="266 14 276.893039 17.659787 285 14.9351036 274.752971 34 272.870119 32.630209 266 14"></polyline>
            <polyline id="Fill-166" fill="#FAD4A8" points="266 14 276.993788 17.4336224 285 14.9325049 274.67857 33 273.001611 31.8645181 266 14"></polyline>
            <polyline id="Fill-167" fill="#F7CCA1" points="266 15 276.516365 18.3878119 284 15.9758701 274.147899 34 272.763021 33.0319299 266 15"></polyline>
            <polyline id="Fill-168" fill="#F7C499" points="266 15 276.62155 18.3428465 284 16.0225802 274.067234 34 272.899295 33.2038736 266 15"></polyline>
            <polyline id="Fill-169" fill="#F5BA91" points="267 16 277.138166 19.1251901 284 17.0086502 274.535994 34 273.652286 33.4088403 267 16"></polyline>
            <polyline id="Fill-170" fill="#F5B38A" points="267 16 277.250405 19.0813959 284 17.0518856 274.44887 34 273.796628 33.5736543 267 16"></polyline>
            <polyline id="Fill-171" fill="#F5AB82" points="267 17 276.759827 19.8697139 283 18.0349512 273.920086 34 273.539957 33.7581181 267 17"></polyline>
            <polyline id="Fill-172" fill="#F2A378" points="267 18 276.260957 20.8277364 282 19.0746087 273.39479 35 273.271523 34.9181989 267 18"></polyline>
            <polyline id="Fill-173" fill="#F29970" points="267 18 276.380216 20.8026357 282 19.1228253 273.351704 35 267 18"></polyline>
            <polyline id="Fill-174" fill="#F09169" points="268 19 276.873654 21.6315676 282 20.1116625 273.940465 35 268 19"></polyline>
            <polyline id="Fill-175" fill="#F08A61" points="268 19 277.001812 21.4628118 282 20.095515 273.954264 34 268 19"></polyline>
            <polyline id="Fill-176" fill="#ED8259" points="268 20 276.485536 22.4590735 281 21.1494253 273.541247 35 268 20"></polyline>
            <polyline id="Fill-177" fill="#ED7852" points="268 20 276.623518 22.2940573 281 21.1292911 273.555578 34 268 20"></polyline>
            <polyline id="Fill-178" fill="#ED704A" points="269 21 277.096416 23.292156 281 22.186083 274.141161 35 269 21"></polyline>
            <polyline id="Fill-179" fill="#EB6942" points="269 22 277.244126 24.1302128 281 23.16 274.155017 35 269 22"></polyline>
            <polyline id="Fill-180" fill="#E85E3B" points="269 22 276.705022 24.13275 280 23.2209994 273.739457 35 269 22"></polyline>
            <polyline id="Fill-181" fill="#E85733" points="269 23 276.865947 24.9741188 280 24.1873883 273.754222 35 269 23"></polyline>
            <polyline id="Fill-182" fill="#E84F29" points="269 23 276.311534 24.9802158 279 24.2526978 273.337061 35 269 23"></polyline>
            <polyline id="Fill-183" fill="#E64521" points="270 24 277.488975 25.8240989 280 25.2128915 274.353344 35 270 24"></polyline>
        </g>
    </g>
</svg>