<?xml version="1.0" encoding="UTF-8"?>
<svg width="600px" height="250px" viewBox="0 0 600 250" version="1.1" xmlns="http://www.w3.org/2000/svg" xmlns:xlink="http://www.w3.org/1999/xlink">
    <!-- Generator: Sketch 50.1 (55044) - http://www.bohemiancoding.com/sketch -->
    <title>MULT</title>
    <desc>Created with Sketch.</desc>
    <defs></defs>
    <g id="MULT" stroke="none" stroke-width="1" fill="none" fill-rule="evenodd">
        <g id="Grid-Logo" opacity="0.400000006" transform="translate(1.000000, 0.000000)"></g>
        <g id="MULT3" transform="translate(56.000000, 74.000000)" fill-rule="nonzero">
            <g id="Group" fill="#951914">
                <path d="M16.5566038,26.5273585 C16.5566038,32.7084906 21.6509434,37.6877358 28.0188679,37.6877358 C28.1886792,37.6877358 28.2735849,37.6877358 28.4433962,37.6877358 L39.4811321,37.6877358 L39.4811321,26.9566038 C39.4811321,26.7849057 39.4811321,26.6132075 39.4811321,26.5273585 C39.4811321,20.3462264 34.3867925,15.2811321 28.0188679,15.2811321 C21.7358491,15.2811321 16.5566038,20.2603774 16.5566038,26.5273585 Z M39.4811321,45.4141509 L39.4811321,42.8386792 L28.7830189,42.8386792 C28.5283019,42.8386792 28.2735849,42.8386792 28.0188679,42.8386792 C18.7641509,42.8386792 11.2924528,35.4556604 11.2924528,26.5273585 C11.2924528,17.5132075 18.7641509,10.1301887 28.0188679,10.1301887 C37.1886792,10.1301887 44.6603774,17.4273585 44.6603774,26.5273585 C44.6603774,26.7849057 44.6603774,27.0424528 44.6603774,27.3 L44.6603774,45.4141509 L44.6603774,63.5283019 C44.6603774,63.7858491 44.6603774,64.0433962 44.6603774,64.3009434 C44.6603774,73.3150943 37.1886792,80.6981132 28.0188679,80.6981132 C18.7641509,80.6981132 11.2924528,73.4009434 11.2924528,64.3009434 C11.2924528,55.2867925 18.7641509,47.9896226 28.0188679,47.9896226 C28.2735849,47.9896226 28.5283019,47.9896226 28.7830189,47.9896226 L39.4811321,47.9896226 L39.4811321,45.4141509 Z M16.5566038,64.3009434 C16.5566038,70.4820755 21.6509434,75.5471698 28.0188679,75.5471698 C34.3018868,75.5471698 39.4811321,70.5679245 39.4811321,64.3009434 C39.4811321,64.1292453 39.4811321,64.0433962 39.4811321,63.8716981 L39.4811321,53.140566 L28.4433962,53.140566 C28.2735849,53.140566 28.1886792,53.140566 28.0188679,53.140566 C21.7358491,53.140566 16.5566038,58.1198113 16.5566038,64.3009434 Z" id="Shape"></path>
                <path d="M16.6415094,45.4141509 C10.1037736,49.1915094 5.68867925,56.2311321 5.68867925,64.2150943 C5.68867925,76.2339623 15.6226415,86.0207547 27.7641509,86.0207547 C34.2169811,86.0207547 40.0754717,83.2735849 44.0660377,78.895283 C44.0660377,85.0764151 37.1886792,90.8283019 27.7641509,90.8283019 C12.4811321,90.8283019 0.169811321,79.3245283 0.169811321,64.2150943 C0.169811321,56.9179245 3.05660377,50.3075472 7.81132075,45.4141509 C3.05660377,40.5207547 0.169811321,33.9103774 0.169811321,26.6132075 C0.169811321,11.5896226 12.4811321,0 27.7641509,0 C37.2735849,0.0858490566 44.1509434,5.83773585 44.1509434,12.0188679 C40.0754717,7.64056604 34.3018868,4.89339623 27.8490566,4.89339623 C15.6226415,4.89339623 5.77358491,14.6801887 5.77358491,26.6990566 C5.68867925,34.5971698 10.1037736,41.6367925 16.6415094,45.4141509 Z" id="Shape"></path>
            </g>
            <g id="Group" transform="translate(51.000000, 0.000000)" fill="#951914">
                <path d="M28.5283019,64.3009434 C28.5283019,58.1198113 23.4339623,53.140566 17.0660377,53.140566 C16.8962264,53.140566 16.8113208,53.140566 16.6415094,53.140566 L5.60377358,53.140566 L5.60377358,63.8716981 C5.60377358,64.0433962 5.60377358,64.2150943 5.60377358,64.3009434 C5.60377358,70.4820755 10.6981132,75.5471698 17.0660377,75.5471698 C23.3490566,75.5471698 28.5283019,70.4820755 28.5283019,64.3009434 Z M5.60377358,45.4141509 L5.60377358,47.9896226 L16.3018868,47.9896226 C16.5566038,47.9896226 16.8113208,47.9896226 17.0660377,47.9896226 C26.3207547,47.9896226 33.7924528,55.3726415 33.7924528,64.3009434 C33.7924528,73.3150943 26.3207547,80.6981132 17.0660377,80.6981132 C7.89622642,80.6981132 0.424528302,73.4009434 0.424528302,64.3009434 C0.424528302,64.0433962 0.424528302,63.7858491 0.424528302,63.5283019 L0.424528302,45.4141509 L0.424528302,27.3 C0.424528302,27.0424528 0.424528302,26.7849057 0.424528302,26.5273585 C0.424528302,17.5132075 7.89622642,10.1301887 17.0660377,10.1301887 C26.3207547,10.1301887 33.7924528,17.4273585 33.7924528,26.5273585 C33.7924528,35.5415094 26.3207547,42.8386792 17.0660377,42.8386792 C16.8113208,42.8386792 16.5566038,42.8386792 16.3018868,42.8386792 L5.60377358,42.8386792 L5.60377358,45.4141509 Z M28.5283019,26.5273585 C28.5283019,20.3462264 23.4339623,15.2811321 17.0660377,15.2811321 C10.7830189,15.2811321 5.60377358,20.2603774 5.60377358,26.5273585 C5.60377358,26.6990566 5.60377358,26.7849057 5.60377358,26.9566038 L5.60377358,37.6877358 L16.6415094,37.6877358 C16.8113208,37.6877358 16.8962264,37.6877358 17.0660377,37.6877358 C23.3490566,37.6877358 28.5283019,32.7084906 28.5283019,26.5273585 Z" id="Shape"></path>
                <path d="M37.2735849,45.4141509 C42.0283019,50.3075472 44.9150943,56.9179245 44.9150943,64.2150943 C44.9150943,79.2386792 32.6037736,90.8283019 17.3207547,90.8283019 C7.89622642,90.8283019 1.01886792,85.0764151 1.01886792,78.895283 C5.09433962,83.2735849 10.8679245,86.0207547 17.3207547,86.0207547 C29.5471698,86.0207547 39.3962264,76.2339623 39.3962264,64.2150943 C39.3962264,56.2311321 34.9811321,49.1915094 28.4433962,45.4141509 C34.9811321,41.6367925 39.3962264,34.5971698 39.3962264,26.6132075 C39.3962264,14.5943396 29.4622642,4.80754717 17.3207547,4.80754717 C10.8679245,4.80754717 5.00943396,7.55471698 1.01886792,11.9330189 C1.01886792,5.75188679 7.89622642,-1.42108547e-14 17.3207547,-1.42108547e-14 C32.6037736,-1.42108547e-14 44.9150943,11.5037736 44.9150943,26.6132075 C44.9150943,33.9103774 41.9433962,40.5207547 37.2735849,45.4141509 Z" id="Shape"></path>
            </g>
            <g id="Group" transform="translate(118.000000, 12.000000)" fill="#1D1D1B">
                <path d="M112.246868,56.8557692 C112.246868,60.8365385 112.505104,66.0288462 113.538051,68.4519231 L107.770766,72.1730769 L104.930162,69.8365385 L103.725058,69.5769231 C101.22877,69.8365385 97.3552204,72.5192308 88.8334107,72.5192308 C81.2584687,72.5192308 72.7366589,67.0673077 72.7366589,59.8846154 L72.7366589,19.3846154 L83.4104408,19.3846154 L83.4104408,58.1538462 C83.4104408,59.7115385 83.8408353,65.5961538 91.7600928,65.5961538 C96.3222738,65.5961538 99.4211137,65.25 101.917401,62.7403846 L101.917401,19.3846154 L112.332947,19.3846154 L112.332947,56.8557692 L112.246868,56.8557692 Z" id="Shape"></path>
                <path d="M126.363805,10.7307692 C126.363805,8.13461538 125.072622,4.06730769 125.072622,4.06730769 L137.037587,1.73076923 L137.037587,71.0480769 L126.363805,71.0480769 C126.363805,71.0480769 126.363805,13.3269231 126.363805,10.7307692 Z" id="Shape"></path>
                <path d="M262.970998,10.7307692 C262.970998,8.13461538 261.679814,4.06730769 261.679814,4.06730769 L273.64478,1.73076923 L273.64478,71.0480769 L262.970998,71.0480769 C262.970998,71.0480769 262.970998,13.3269231 262.970998,10.7307692 Z" id="Shape"></path>
                <path d="M164.066357,5.10576923 L164.066357,20.1634615 L175.945244,20.1634615 L175.514849,26.3076923 L164.066357,26.3076923 L164.066357,56.25 C164.066357,61.9615385 164.66891,66.5480769 169.317169,66.5480769 C171.55522,66.5480769 174.740139,65.7692308 176.031323,65.4230769 L175.514849,69.75 C173.87935,70.7019231 168.800696,72.6923077 165.615777,72.6923077 C156.1471,72.6923077 153.220418,65.0769231 153.220418,59.7115385 L153.220418,26.3942308 L146.248028,26.3942308 L146.248028,20.25 L148.227842,20.25 C151.929234,20.25 154.253364,18.5192308 158.729466,6.66346154 C159.24594,5.27884615 164.066357,5.10576923 164.066357,5.10576923 Z" id="Shape"></path>
                <g transform="translate(183.348028, 0.000000)" id="Shape">
                    <path d="M9.55475638,13.9326923 C5.76728538,13.9326923 3.18491879,10.9038462 3.18491879,7.26923077 C3.18491879,3.63461538 5.85336427,0.778846154 9.81299304,0.778846154 C13.7726218,0.778846154 16.2689095,3.72115385 16.2689095,7.26923077 C16.2689095,10.9038462 13.6865429,13.9326923 9.64083527,13.9326923 L9.55475638,13.9326923 Z"></path>
                    <path d="M4.56218097,71.0480769 C4.56218097,71.0480769 4.56218097,35.9134615 4.56218097,31.7596154 C4.56218097,27.5192308 0.344315545,25.9615385 0.344315545,25.9615385 L1.37726218,19.4711538 L15.7524362,18.7788462 L15.7524362,71.0480769 L4.56218097,71.0480769 Z"></path>
                </g>
                <path d="M224.579814,64.9038462 C225.612761,65.25 226.990023,65.5096154 228.109049,65.5096154 C236.889095,65.5096154 241.967749,57.2019231 241.967749,45 C241.967749,34.3557692 237.233411,25.2692308 228.453364,25.2692308 C225.784919,25.2692308 223.202552,25.875 221.05058,27.7788462 L221.05058,89.3942308 L210.20464,89.3942308 L210.20464,40.1538462 C210.20464,36.1730769 210.20464,32.5384615 210.032483,28.2115385 C209.946404,25.4423077 209.946404,24.4903846 209.085615,23.3653846 L215.197216,19.4711538 L218.468213,21.8076923 C222.341763,18.3461538 227.24826,18.2596154 234.564965,18.2596154 C245.669142,18.2596154 253.588399,29.1634615 253.588399,43.0096154 C253.588399,59.4519231 243.517169,71.6538462 232.843387,71.6538462 C229.658469,71.6538462 226.903944,71.0480769 224.493735,69.8365385 L224.493735,64.9038462 L224.579814,64.9038462 Z" id="Shape"></path>
                <path d="M359.895824,32.9711538 C359.895824,30.6346154 359.637587,24.75 350.857541,24.75 C348.189095,24.75 344.057309,26.3942308 341.905336,28.2115385 L341.905336,70.9615385 L331.059397,70.9615385 L331.059397,40.1538462 C331.059397,36.1730769 331.059397,32.5384615 330.887239,28.2115385 C330.80116,25.4423077 330.80116,24.4903846 329.940371,23.3653846 L336.051972,19.4711538 L340.183759,22.2403846 C343.19652,20.6826923 347.414385,18.1730769 352.751276,18.1730769 C363.855452,18.1730769 370.655684,23.625 370.655684,34.5288462 L370.655684,71.0480769 L359.895824,71.0480769 L359.895824,32.9711538 Z" id="Shape"></path>
                <path d="M309.97007,61.9615385 L309.97007,37.0384615 C309.97007,32.7980769 310.142227,25.0096154 300.157077,25.0961538 C295.508817,25.0961538 292.237819,26.0480769 288.794664,28.4711538 L285.95406,22.1538462 C289.999768,19.4711538 294.992343,18.0865385 301.103944,18.0865385 C316.081671,18.0865385 319.18051,26.6538462 319.696984,32.2788462 L319.696984,58.5 C319.696984,63.9519231 320.127378,66.4615385 320.902088,68.1923077 L315.220882,71.4807692 L312.982831,68.4519231 C308.076334,70.9615385 305.924362,72 298.951972,72 C289.138979,72 281.736195,64.6442308 281.736195,57.2019231 C281.736195,45.5192308 291.549188,40.3269231 306.612993,41.3653846 L306.612993,46.7307692 C299.89884,46.9038462 293.356845,49.5 293.356845,56.5961538 C293.356845,63 298.091183,64.4711538 301.190023,64.4711538 C306.010441,64.5576923 308.162413,63.7788462 309.97007,61.9615385 Z" id="Shape"></path>
                <polygon id="Shape" points="0.774709977 71.0480769 0.774709977 6.57692308 16.2689095 6.57692308 31.3327146 51.4903846 46.9990719 6.57692308 61.1160093 6.57692308 61.1160093 71.0480769 50.0118329 71.0480769 50.0118329 18.9519231 31.763109 71.0480769 24.7046404 71.0480769 7.31670534 18.9519231 7.31670534 71.0480769"></polygon>
            </g>
        </g>
    </g>
</svg>