<?xml version="1.0" encoding="UTF-8"?>
<svg width="600px" height="250px" viewBox="0 0 600 250" version="1.1" xmlns="http://www.w3.org/2000/svg" xmlns:xlink="http://www.w3.org/1999/xlink">
    <!-- Generator: Sketch 50.1 (55044) - http://www.bohemiancoding.com/sketch -->
    <title>NATU</title>
    <desc>Created with Sketch.</desc>
    <defs></defs>
    <g id="NATU" stroke="none" stroke-width="1" fill="none" fill-rule="evenodd">
        <g id="Grid-Logo" opacity="0.400000006"></g>
        <g id="NATU3" transform="translate(176.000000, 34.000000)">
            <path d="M120.674354,47.1186581 C118.806595,59.6261188 108.767391,60.4968913 102.774998,48.6227198 C79.116719,5.63821889 43.9405932,31.5239128 81.3735943,67.3839108 C87.9885737,72.7668686 86.8990477,76.9624092 78.8054258,76.4874423 C38.6486097,61.6051473 46.5087617,86.4617464 87.6772805,96.752695 C93.8253202,95.8819225 98.3390709,99.7608185 93.2027339,103.639715 C87.8329271,111.872473 119.117889,117.492915 127.67845,104.906293 C161.920696,113.376535 180.442639,95.644439 160.675524,94.9319887 C152.348432,93.6654105 155.38354,87.1741967 161.76505,86.4617464 C203.011392,72.2127406 202.622276,38.8858992 162.621106,63.8216594 C152.815372,70.3128731 145.655629,67.0672662 149.93591,58.3595405 C176.395828,17.6707127 130.869205,-6.55259721 120.674354,47.1186581 Z M131.569614,109.5768 C122.152997,119.076138 79.0388957,116.226336 82.3074737,99.9983019 C33.1231563,83.6119452 29.7767549,49.6518147 67.754519,65.4048822 C29.0763453,16.720779 77.3267834,-14.6270338 110.012564,39.2025437 C117.25013,-20.4057973 186.979795,-8.5316258 165.889684,51.1558764 C206.0465,26.2992773 221.377688,61.0510193 172.037724,89.2323864 C196.318589,89.8656756 160.052938,118.680332 131.569614,109.5768 Z" id="Shape" fill="#EF7D00"></path>
            <path d="M173.475142,144.627124 L164.266834,144.627124 L164.266834,167.653548 C160.677155,184.963067 141.089994,181.787008 139.763373,167.653548 L139.6073,144.38892 L129.540592,144.38892 L129.696665,166.780132 C130.398993,186.471695 168.949025,190.918176 173.553178,168.923972 L173.553178,144.627124 L173.475142,144.627124 Z M0,182.263417 L9.75456262,182.263417 L9.75456262,159.316395 C10.2227816,143.118497 34.4921334,143.515504 33.7898049,160.428015 L33.7898049,182.581023 L44.0125865,182.581023 L44.0125865,159.554599 C39.3303965,138.036803 6.08684707,138.036803 0.156073002,156.934351 L0,182.263417 Z M84.591567,182.97803 L94.1900566,182.97803 L94.1900566,161.142628 C92.5512901,133.669723 38.0818125,139.704234 53.5330396,174.640877 C59.3077407,184.169052 73.7444934,186.074687 81.938326,180.119578 L81.938326,176.46711 C73.1982379,178.452147 66.6431718,180.595986 61.8829452,170.114993 C53.3769666,144.94473 84.74764,139.704234 84.279421,161.22203 L84.591567,182.97803 Z M238.40151,184.486658 L248,184.486658 L248,162.651256 C246.361233,135.178351 191.891756,141.212862 207.342983,176.149505 C213.117684,185.67768 227.554437,187.424512 235.748269,181.628205 L235.748269,178.134541 C227.008181,180.119578 220.453115,182.263417 215.692889,171.782424 C207.18691,146.612161 238.557583,141.371664 238.089364,162.889461 L238.40151,184.486658 Z M203.909377,145.182935 C203.909377,146.294555 203.909377,147.406176 203.909377,148.597197 C196.495909,147.961986 192.594084,151.138044 192.125865,157.96657 L191.501573,183.772045 L182.527376,183.772045 C182.527376,174.720278 182.527376,166.462526 182.527376,157.569563 C184.946507,146.294555 193.062303,142.483285 203.909377,145.182935 Z M113.387036,143.991913 L122.361233,143.991913 L122.127124,150.502833 L113.855255,150.502833 C113.855255,159.157592 113.855255,167.891753 113.855255,176.546512 C114.323474,183.53384 118.537445,185.598278 124.312146,185.201271 C124.312146,186.312892 124.312146,187.583315 124.312146,188.694935 C113.230963,190.04476 105.115167,187.186308 103.398364,174.640877 L103.398364,127 L113.387036,127 L113.387036,143.991913 Z" id="Shape" fill="#000000" fill-rule="nonzero"></path>
        </g>
    </g>
</svg>