<?xml version="1.0" encoding="UTF-8"?>
<svg width="600px" height="250px" viewBox="0 0 600 250" version="1.1" xmlns="http://www.w3.org/2000/svg" xmlns:xlink="http://www.w3.org/1999/xlink">
    <!-- Generator: Sketch 50.1 (55044) - http://www.bohemiancoding.com/sketch -->
    <title>OIBR</title>
    <desc>Created with Sketch.</desc>
    <defs></defs>
    <g id="OIBR" stroke="none" stroke-width="1" fill="none" fill-rule="evenodd">
        <g id="Grid-Logo" opacity="0.400000006" transform="translate(1.000000, 0.000000)"></g>
        <g transform="translate(216.000000, 39.000000)" fill-rule="nonzero" id="Shape">
            <path d="M161.476834,140.760403 C144.760601,176.167306 108.923744,169.56409 93.4669531,166.262481 C25.9150509,151.917562 1.87115346,112.412111 0.153732221,86.1130926 C-2.47964702,46.7214897 29.3498934,19.0562887 47.2110743,10.2899494 C131.937189,-31.4924734 123.006598,66.6449883 144.98959,79.1683302 C176.819131,97.497949 170.979899,120.609207 161.476834,140.760403" fill="#E1B300"></path>
            <path d="M120,127 C120,140.812785 116.26,152 111.5,152 C106.853333,152 103,140.812785 103,127 C103,113.187215 106.74,102 111.5,102 C116.146667,102.114155 120,113.30137 120,127" fill="#FFFFFF"></path>
            <path d="M120,88.5 C120,93.1575342 116.157534,97 111.5,97 C106.842466,97 103,93.1575342 103,88.5 C103,83.8424658 106.842466,80 111.5,80 C116.157534,80 120,83.8424658 120,88.5" fill="#FFFFFF"></path>
            <path d="M73.5,140.242009 C67.0490196,140.242009 63.4779412,133.621005 63.4779412,127 C63.4779412,120.26484 67.0490196,113.872146 73.5,113.872146 C79.9509804,113.872146 83.5220588,120.26484 83.5220588,127 C83.5220588,133.621005 79.9509804,140.242009 73.5,140.242009 M73.5,102 C59.3308824,102 50,113.073059 50,127 C50,140.926941 59.3308824,152 73.5,152 C87.5539216,152 97,140.926941 97,127 C97,113.073059 87.5539216,102 73.5,102" fill="#FFFFFF"></path>
        </g>
    </g>
</svg>