<?xml version="1.0" encoding="UTF-8"?>
<svg width="600px" height="250px" viewBox="0 0 600 250" version="1.1" xmlns="http://www.w3.org/2000/svg" xmlns:xlink="http://www.w3.org/1999/xlink">
    <!-- Generator: Sketch 50.1 (55044) - http://www.bohemiancoding.com/sketch -->
    <title>PCAR</title>
    <desc>Created with Sketch.</desc>
    <defs></defs>
    <g id="PCAR" stroke="none" stroke-width="1" fill="none" fill-rule="evenodd">
        <g id="Grid-Logo" opacity="0.400000006"></g>
        <g transform="translate(15.000000, 57.000000)" fill="#103F6B" fill-rule="nonzero" id="Shape">
            <path d="M166.893204,55.2875445 C167.281553,56.4576512 168.15534,58.4078292 168.252427,58.602847 L168.446602,58.7003559 C169.223301,58.2128114 170.38835,56.9451957 170.582524,55.775089 C170.582524,55.2875445 170.38835,54.6049822 170.097087,53.7274021 C166.407767,38.711032 151.941748,13.0661922 126.893204,13.0661922 C124.368932,13.0661922 121.747573,13.3587189 119.126214,13.8462633 C114.368932,8.19074733 103.495146,0 90.0970874,0 C37.2815534,0 10.5825243,84.6377224 0.776699029,129.979359 C0.388349515,131.832028 0.0970873786,132.904626 0,133.782206 C0.194174757,134.854804 1.74757282,136.609964 2.42718447,137 L2.62135922,136.902491 C2.62135922,136.804982 3.10679612,135.147331 3.39805825,133.879715 C17.2815534,77.3245552 45.4368932,8.28825623 90.0970874,8.28825623 C100.679612,8.28825623 107.281553,11.9935943 111.747573,15.7964413 C89.6116505,23.8896797 66.5048544,50.0220641 53.2038835,99.2640569 L53.0097087,99.9466192 L52.9126214,100.239146 C52.6213592,101.409253 52.3300971,102.384342 52.3300971,103.066904 C52.5242718,104.139502 53.7864078,105.602135 54.5631068,106.08968 L54.7572816,105.992171 C54.7572816,105.894662 55.2427184,104.33452 55.631068,103.164413 C67.184466,65.0384342 92.9126214,21.2569395 126.893204,21.2569395 C145.339806,21.3544484 159.029126,35.5907473 166.893204,55.2875445 Z M434.563107,108.137367 C432.815534,101.506762 429.417476,86.5879004 427.281553,77.6170819 C427.087379,76.9345196 426.796117,76.6419929 426.213592,76.6419929 C424.951456,76.6419929 423.106796,77.1295374 422.23301,77.6170819 L422.427184,78.5921708 C419.902913,83.4676157 397.669903,122.276157 397.572816,122.471174 L397.669903,122.763701 C398.737864,123.153737 400.485437,123.73879 401.359223,123.73879 C402.135922,123.73879 402.524272,123.446263 402.912621,122.763701 C404.368932,120.130961 407.378641,114.962989 411.262136,108.039858 L422.427184,108.039858 C424.174757,108.039858 425.825243,106.187189 425.825243,104.041993 L413.300971,104.041993 C416.893204,97.4113879 420.291262,91.2683274 423.592233,84.8327402 C424.368932,88.2455516 431.067961,117.498221 432.038835,121.593594 C432.524272,123.348754 432.815534,123.641281 433.592233,123.641281 C434.466019,123.641281 436.990291,123.251246 438.252427,122.958719 L438.349515,122.763701 C437.378641,119.935943 436.213592,115.060498 434.563107,108.137367 Z M378.543689,107.747331 C378.446602,108.527402 379.126214,109.990036 380.873786,110.087544 C385.92233,110.087544 392.524272,104.724555 392.718447,99.5565836 C392.815534,96.7288256 390.970874,94.0960854 386.796117,94.0960854 L386.699029,94.0960854 C376.796117,94.0960854 371.262136,104.822064 370.873786,113.695374 C370.679612,119.838434 373.009709,124.128826 378.932039,124.128826 C383.300971,124.128826 386.893204,122.471174 389.320388,119.643416 C390,118.863345 390.38835,117.985765 390.38835,117.108185 C390.38835,116.328114 390.097087,115.645552 389.61165,115.450534 C387.281553,118.083274 384.368932,120.22847 380.38835,120.22847 C376.893204,120.22847 375.533981,117.400712 375.631068,113.207829 C375.631068,112.037722 375.631068,110.380071 376.407767,107.259786 C377.475728,102.871886 380.970874,96.9238434 385.436893,96.9238434 L385.533981,96.9238434 C387.378641,96.9238434 388.349515,98.0939502 388.349515,99.9466192 C388.349515,102.481851 384.951456,107.84484 378.543689,107.747331 Z M372.038835,78.8846975 C372.427184,77.0320285 372.23301,76.544484 371.84466,76.544484 C370.873786,76.544484 368.543689,77.0320285 367.669903,77.4220641 C367.281553,80.347331 363.592233,100.141637 363.398058,100.824199 C361.262136,111.550178 354.174757,120.033452 349.514563,120.033452 L349.417476,120.033452 C347.281553,120.033452 346.407767,117.498221 346.504854,114.377936 C346.893204,105.602135 351.359223,97.313879 358.834951,97.313879 C359.417476,97.313879 360,97.4113879 360.679612,97.6064057 L360.776699,97.5088968 C360.873786,97.0213523 361.262136,94.1935943 358.252427,94.0960854 C348.834951,93.3160142 341.84466,105.114591 341.456311,114.670463 C341.165049,120.911032 343.398058,124.031317 347.087379,124.031317 L347.184466,124.031317 C352.815534,124.031317 357.378641,119.545907 361.359223,112.915302 C361.262136,113.402847 360.970874,115.060498 360.873786,115.938078 C360.291262,120.130961 360.194175,124.128826 360.582524,124.128826 C361.456311,124.128826 363.68932,123.836299 364.854369,123.251246 C364.854369,120.813523 364.951456,118.960854 365.631068,114.475445 C366.601942,107.747331 370.194175,88.4405694 372.038835,78.8846975 Z M458.737864,93.8035587 C448.932039,93.8035587 442.038835,103.651957 441.650485,113.890391 C441.456311,119.935943 443.786408,122.958719 447.281553,123.933808 L446.213592,125.786477 L446.31068,125.981495 C448.446602,125.786477 450.291262,126.274021 450.485437,127.541637 C450.679612,128.516726 449.320388,129.394306 446.990291,129.784342 L446.796117,130.174377 C446.893204,130.661922 447.961165,131.637011 448.640777,131.637011 C450.776699,131.539502 453.883495,130.076868 454.271845,127.736655 C454.563107,126.079004 453.592233,124.61637 451.84466,124.226335 L452.524272,124.128826 C455.728155,123.446263 458.252427,122.081139 460.291262,119.935943 C461.165049,118.960854 461.262136,118.278292 461.262136,117.59573 C461.262136,116.913167 460.970874,116.133096 460.582524,115.840569 C458.640777,117.693238 455.436893,120.325979 451.650485,120.325979 C448.349515,120.325979 446.504854,117.985765 446.699029,113.11032 C447.087379,103.944484 452.135922,97.313879 458.15534,97.313879 C459.902913,97.313879 461.067961,97.8014235 461.747573,98.0939502 C462.427184,98.1914591 463.592233,97.0213523 463.786408,95.6562278 C463.203883,94.6811388 461.067961,93.8035587 458.737864,93.8035587 Z M492.038835,95.7537367 C489.902913,95.5587189 487.475728,96.5338078 486.990291,98.7765125 C483.106796,116.133096 475.825243,120.22847 473.106796,120.22847 C471.553398,120.22847 470.194175,119.253381 470.970874,114.962989 C472.038835,108.72242 473.786408,100.531673 474.660194,95.9487544 C474.951456,94.3886121 474.854369,93.8035587 474.368932,93.8035587 C473.592233,93.8035587 470.582524,94.486121 469.902913,94.9736655 C469.708738,96.33879 469.320388,98.8740214 468.349515,104.041993 C467.864078,106.96726 467.087379,110.282562 466.31068,113.9879 C465.145631,120.130961 466.116505,124.421352 470.776699,124.421352 C476.796117,124.421352 481.165049,119.643416 484.466019,114.085409 L484.563107,114.182918 C483.592233,121.301068 483.495146,124.421352 483.786408,124.421352 C484.660194,124.421352 486.699029,124.128826 488.058252,123.446263 C488.058252,121.203559 488.543689,116.425623 488.834951,114.085409 C490,105.992171 490.970874,101.019217 492.23301,96.1437722 L492.038835,95.7537367 Z M567.669903,93.7060498 C565.533981,93.7060498 561.359223,95.8512456 556.893204,104.822064 L556.796117,104.822064 C558.543689,95.5587189 558.058252,93.7060498 557.475728,93.7060498 C556.601942,93.7060498 554.174757,94.2911032 553.300971,94.8761566 C553.495146,95.9487544 553.300971,99.0690391 552.815534,101.799288 C551.747573,108.234875 549.902913,118.863345 548.640777,124.031317 C549.902913,123.933808 552.330097,123.641281 553.009709,123.348754 C553.495146,123.056228 553.786408,122.568683 554.174757,120.813523 C557.76699,103.45694 563.980583,98.8740214 566.019417,98.8740214 C566.699029,98.8740214 567.475728,99.166548 568.058252,99.3615658 C568.834951,98.3864769 570,96.1437722 570,94.8761566 C569.514563,94.1935943 568.737864,93.7060498 567.669903,93.7060498 Z M328.446602,104.041993 C328.058252,114.085409 323.106796,121.10605 318.15534,121.10605 C315.242718,121.10605 313.106796,118.765836 313.300971,113.695374 C313.68932,104.822064 318.15534,96.8263345 323.592233,96.8263345 L323.68932,96.8263345 C327.475728,96.8263345 328.543689,100.824199 328.446602,104.041993 Z M324.174757,93.7060498 C313.980583,93.7060498 308.349515,103.944484 307.961165,113.207829 C307.669903,121.10605 311.359223,124.323843 317.475728,124.323843 C326.116505,124.323843 333.106796,116.133096 333.592233,105.114591 C333.883495,98.7765125 331.359223,93.7060498 324.174757,93.7060498 Z M546.019417,94.9736655 C542.621359,94.7786477 541.359223,97.0213523 541.165049,98.0939502 C540.970874,98.7765125 540.679612,100.044128 540.582524,100.72669 C538.543689,110.185053 531.456311,120.22847 526.019417,120.22847 L525.92233,120.22847 C524.271845,120.22847 523.300971,118.278292 523.398058,115.353025 C523.495146,111.745196 524.757282,106.187189 528.15534,101.994306 C530.679612,98.8740214 533.203883,97.2163701 536.796117,97.2163701 L538.349515,97.4113879 C538.932039,96.4362989 538.640777,93.9010676 535.436893,93.9010676 C531.84466,94.0960854 528.543689,95.8512456 525.728155,98.6790036 C520.582524,103.651957 518.640777,111.062633 518.446602,115.645552 L518.446602,115.74306 C518.15534,121.593594 520.485437,124.323843 523.495146,124.323843 C527.864078,124.323843 533.68932,121.301068 538.349515,112.622776 C538.252427,113.11032 537.961165,115.353025 537.76699,116.133096 C536.990291,121.203559 536.893204,124.323843 537.281553,124.323843 C538.058252,124.323843 540.291262,124.031317 541.553398,123.348754 C541.553398,120.813523 542.135922,117.010676 542.524272,114.572954 C543.68932,107.162278 545.533981,97.8014235 546.213592,95.2661922 L546.019417,94.9736655 Z M511.650485,93.7060498 C501.456311,93.7060498 494.951456,104.041993 494.563107,113.792883 C494.271845,121.301068 498.058252,124.226335 502.815534,124.226335 C506.990291,124.226335 510.582524,122.373665 512.912621,119.935943 C513.786408,118.960854 513.980583,118.180783 514.07767,117.59573 C514.07767,116.913167 513.68932,116.035587 513.398058,115.840569 C511.553398,117.693238 508.252427,120.22847 504.563107,120.22847 C501.262136,120.22847 499.417476,117.888256 499.61165,113.012811 C500,103.846975 504.951456,97.2163701 511.067961,97.2163701 C512.718447,97.2163701 513.980583,97.7039146 514.660194,97.9964413 C515.339806,98.0939502 516.407767,96.8263345 516.601942,95.46121 C516.116505,94.5836299 513.883495,93.7060498 511.650485,93.7060498 Z M306.31068,94.9736655 C302.912621,94.7786477 301.650485,97.0213523 301.456311,98.0939502 C301.359223,98.7765125 300.970874,100.044128 300.873786,100.72669 C298.834951,110.185053 291.747573,120.22847 286.31068,120.22847 L286.213592,120.22847 C284.563107,120.22847 283.592233,118.278292 283.68932,115.353025 C283.883495,111.745196 285.048544,106.187189 288.446602,101.994306 C290.970874,98.8740214 293.495146,97.2163701 297.087379,97.2163701 L298.640777,97.4113879 C299.126214,96.4362989 298.932039,93.9010676 295.728155,93.9010676 C292.135922,94.0960854 288.932039,95.8512456 286.019417,98.6790036 C280.873786,103.651957 278.932039,111.062633 278.737864,115.645552 L278.737864,115.74306 C278.543689,121.593594 280.776699,124.323843 283.883495,124.323843 C288.252427,124.323843 293.980583,121.301068 298.737864,112.622776 C298.640777,113.11032 298.349515,115.353025 298.15534,116.133096 C297.378641,121.203559 297.281553,124.323843 297.669903,124.323843 C298.446602,124.323843 300.582524,124.031317 301.941748,123.348754 C301.941748,120.813523 302.524272,117.010676 302.912621,114.572954 C304.07767,107.162278 305.92233,97.8014235 306.601942,95.2661922 L306.31068,94.9736655 Z M266.601942,76.544484 C263.398058,76.544484 258.15534,77.3245552 256.504854,77.9096085 C255.631068,78.5921708 254.757282,80.2498221 254.660194,81.1274021 L254.757282,81.224911 C254.854369,81.224911 257.087379,80.9323843 258.058252,80.8348754 C255.533981,94.5836299 253.106796,109.404982 250.582524,122.471174 C250.38835,123.446263 250.679612,123.73879 251.456311,123.73879 C252.621359,123.73879 255.242718,123.641281 256.213592,123.251246 C258.640777,109.014947 261.165049,94.6811388 263.592233,80.347331 C264.07767,80.2498221 265.533981,80.2498221 266.213592,80.2498221 C272.912621,80.2498221 276.504854,84.2476868 276.213592,90.2932384 C275.92233,98.7765125 271.456311,101.994306 265.145631,101.994306 C264.271845,101.994306 262.815534,101.799288 262.038835,101.506762 L261.84466,101.60427 C261.747573,102.676868 262.038835,103.944484 263.009709,104.822064 C263.980583,105.699644 265.825243,105.797153 266.893204,105.797153 C273.203883,105.797153 281.941748,101.60427 282.330097,90.4882562 C282.524272,82.7850534 278.446602,76.544484 266.601942,76.544484 Z M306.601942,86.5879004 L305.048544,86.002847 C304.07767,85.8078292 303.980583,86.6854093 303.883495,87.0754448 C303.592233,88.5380783 303.398058,88.4405694 302.815534,88.4405694 C302.330097,88.4405694 301.650485,88.0505338 300.873786,87.2704626 C299.805825,86.1003559 298.543689,85.2227758 297.087379,85.2227758 L296.990291,85.2227758 C294.174757,85.1252669 292.815534,87.3679715 292.524272,90.0007117 L292.718447,90.3907473 L294.660194,90.7807829 L295.533981,90.0982206 C295.825243,88.830605 296.504854,88.7330961 297.087379,88.6355872 C297.76699,88.5380783 298.15534,89.0256228 299.126214,89.9032028 C300.485437,91.1708185 301.456311,91.8533808 303.009709,91.8533808 C305.145631,91.9508897 306.699029,90.5857651 306.990291,87.0754448 L306.601942,86.5879004 Z M483.883495,95.9487544 C485.145631,94.5836299 487.76699,92.633452 490.38835,91.4633452 L490.776699,90.2932384 C490.485437,89.7081851 489.320388,88.1480427 488.252427,88.0505338 C486.893204,87.9530249 483.68932,91.4633452 483.009709,92.8284698 C482.621359,93.6085409 482.621359,94.1935943 482.815534,94.5836299 L483.883495,95.9487544 Z M125.436893,76.7395018 C105.339806,76.6419929 97.3786408,91.9508897 96.8932039,102.384342 C96.2135922,115.938078 104.174757,123.836299 118.15534,123.836299 C122.621359,123.836299 126.601942,123.251246 130.873786,121.98363 C132.427184,113.597865 133.68932,106.284698 134.368932,102.676868 C134.466019,101.799288 134.368932,101.311744 133.398058,101.311744 C133.009709,101.311744 132.330097,101.311744 131.747573,101.409253 L131.650485,101.409253 L130.485437,101.60427 C128.15534,101.896797 126.116505,102.384342 125.048544,102.676868 C123.883495,103.554448 122.815534,105.699644 122.718447,106.869751 L122.912621,107.064769 C123.106796,107.064769 125.825243,106.772242 127.087379,106.577224 L127.76699,106.479715 C127.281553,109.404982 126.796117,113.500356 125.436893,119.545907 C124.563107,119.935943 122.427184,120.325979 119.902913,120.325979 C108.349515,120.22847 102.815534,112.720285 103.300971,102.384342 C103.883495,90.3907473 112.330097,80.4448399 125.533981,80.5423488 C129.029126,80.5423488 132.23301,81.7124555 133.883495,82.3950178 C136.019417,83.2725979 137.281553,81.5174377 137.669903,79.8597865 C135.728155,78.2996441 130.873786,76.7395018 125.436893,76.7395018 Z M209.417476,93.9985765 C204.563107,93.9985765 199.514563,98.4839858 196.116505,103.749466 L195.92233,103.749466 C196.504854,100.531673 197.378641,95.9487544 197.76699,93.2185053 C196.504854,93.1209964 193.592233,93.9985765 192.718447,94.6811388 C192.621359,95.9487544 191.84466,100.531673 190.970874,105.797153 C189.126214,116.328114 186.990291,126.956584 184.951456,137 C186.601942,136.902491 187.864078,136.707473 188.834951,136.317438 C189.61165,136.024911 189.902913,135.24484 190.194175,133.684698 C190.679612,131.149466 193.786408,116.230605 193.883495,116.035587 C196.019417,104.724555 203.398058,98.1914591 207.475728,98.1914591 L207.572816,98.1914591 C209.708738,98.1914591 210.776699,100.434164 210.679612,103.45694 C210.38835,111.160142 206.31068,119.935943 199.223301,119.935943 C198.349515,119.935943 197.281553,119.740925 196.407767,119.35089 L196.213592,119.448399 C196.019417,120.130961 195.533981,123.348754 199.029126,123.73879 L199.223301,123.73879 L199.417476,123.73879 C209.805825,123.73879 215.242718,112.817794 215.631068,102.969395 C215.728155,99.3615658 214.660194,93.9985765 209.417476,93.9985765 Z M239.126214,104.041993 C238.737864,113.890391 233.883495,120.716014 229.029126,120.716014 C226.213592,120.716014 224.07767,118.47331 224.271845,113.500356 C224.563107,104.822064 229.029126,97.0213523 234.368932,97.0213523 L234.466019,97.0213523 C238.15534,97.0213523 239.223301,100.921708 239.126214,104.041993 Z M234.951456,93.9985765 C225.048544,93.9985765 219.514563,104.041993 219.126214,113.012811 C218.834951,120.716014 222.427184,123.836299 228.446602,123.836299 C236.893204,123.836299 243.786408,115.840569 244.174757,105.114591 C244.368932,98.8740214 241.941748,93.9985765 234.951456,93.9985765 Z M181.84466,94.6811388 C181.165049,94.9736655 180.873786,95.5587189 180.38835,97.8014235 C176.893204,115.548043 169.126214,119.838434 166.504854,119.838434 C164.951456,119.838434 163.68932,118.960854 164.368932,114.670463 C165.339806,108.527402 167.087379,100.531673 167.961165,96.1437722 C168.252427,94.6811388 168.15534,93.9985765 167.669903,93.9985765 C166.893204,93.9985765 163.980583,94.6811388 163.300971,95.0711744 C163.106796,96.33879 162.718447,98.8740214 161.84466,103.846975 C161.359223,106.674733 160.582524,109.990036 159.902913,113.597865 C158.737864,119.545907 159.708738,123.836299 164.271845,123.836299 C170.097087,123.836299 174.466019,119.155872 177.572816,113.695374 L177.669903,113.792883 C176.699029,120.716014 176.601942,123.836299 176.990291,123.836299 C177.76699,123.836299 179.902913,123.543772 181.165049,122.958719 C181.165049,120.716014 181.650485,116.718149 182.038835,114.377936 C182.912621,108.137367 184.660194,98.8740214 186.019417,93.9985765 C184.854369,93.9010676 183.106796,94.1935943 181.84466,94.6811388 Z M156.601942,93.9985765 C154.466019,93.9985765 150.38835,96.0462633 146.019417,104.919573 L145.92233,104.919573 C147.572816,95.9487544 147.087379,93.9985765 146.504854,93.9985765 C145.631068,93.9985765 143.300971,94.5836299 142.427184,95.0711744 C142.621359,96.1437722 142.427184,99.2640569 141.941748,101.896797 C140.970874,108.137367 139.029126,118.570819 137.864078,123.641281 C139.126214,123.543772 141.553398,123.251246 142.135922,122.958719 C142.621359,122.666192 142.912621,122.178648 143.203883,120.520996 C146.796117,103.651957 152.718447,99.0690391 154.854369,99.0690391 C155.533981,99.0690391 156.213592,99.3615658 156.893204,99.5565836 C157.669903,98.6790036 158.834951,96.33879 158.834951,95.1686833 C158.446602,94.3886121 157.572816,93.9985765 156.601942,93.9985765 Z"></path>
        </g>
    </g>
</svg>