<?xml version="1.0" encoding="UTF-8"?>
<svg width="600px" height="250px" viewBox="0 0 600 250" version="1.1" xmlns="http://www.w3.org/2000/svg" xmlns:xlink="http://www.w3.org/1999/xlink">
    <!-- Generator: Sketch 50.1 (55044) - http://www.bohemiancoding.com/sketch -->
    <title>PDGR</title>
    <desc>Created with Sketch.</desc>
    <defs></defs>
    <g id="PDGR" stroke="none" stroke-width="1" fill="none" fill-rule="evenodd">
        <g id="Grid-Logo" opacity="0.400000006"></g>
        <g transform="translate(135.000000, 71.000000)" fill-rule="nonzero" id="Group">
            <g>
                <rect id="Rectangle-path" fill="#F8AF00" x="0.539010989" y="0.539010989" width="27.0703297" height="27.0703297"></rect>
                <rect id="Rectangle-path" fill="#70767D" x="27.6093407" y="27.6093407" width="27.0703297" height="27.0703297"></rect>
                <rect id="Rectangle-path" fill="#70767D" x="54.7395604" y="0.539010989" width="27.0703297" height="27.0703297"></rect>
                <rect id="Rectangle-path" fill="#70767D" x="81.8098901" y="27.6093407" width="27.0703297" height="27.0703297"></rect>
                <rect id="Rectangle-path" fill="#362B77" x="54.7395604" y="54.7395604" width="27.0703297" height="27.0703297"></rect>
                <rect id="Rectangle-path" fill="#362B77" x="81.8098901" y="81.8098901" width="27.0703297" height="27.0703297"></rect>
                <rect id="Rectangle-path" fill="#362B77" x="27.6093407" y="81.8098901" width="27.0703297" height="27.0703297"></rect>
                <rect id="Rectangle-path" fill="#362B77" x="0.539010989" y="54.7395604" width="27.0703297" height="27.0703297"></rect>
            </g>
            <g transform="translate(136.000000, 39.000000)" fill="#362B77">
                <path d="M0.4221875,1.91452991 L27.74375,1.91452991 C31.3625,1.91452991 34.619375,2.39316239 37.514375,3.35042735 C40.409375,4.30769231 42.9425,5.68376068 44.993125,7.53846154 C47.04375,9.39316239 48.6721875,11.6666667 49.818125,14.4188034 C50.9640625,17.1709402 51.506875,20.3418803 51.506875,23.9316239 C51.506875,27.3418803 50.90375,30.3931624 49.7578125,33.1452991 C48.611875,35.8974359 46.9834375,38.2307692 44.9328125,40.2051282 C42.8821875,42.1794872 40.4696875,43.6752137 37.635,44.6923077 C34.8003125,45.7094017 31.6640625,46.2478632 28.22625,46.2478632 L17.7921875,46.2478632 L17.7921875,68.3247863 L0.4221875,68.3247863 L0.4221875,1.91452991 Z M26.2359375,32.3675214 C28.6484375,32.3675214 30.5784375,31.5897436 31.965625,30.0940171 C33.3528125,28.5982906 34.0765625,26.6239316 34.0765625,24.2307692 C34.0765625,21.7179487 33.413125,19.6837607 32.08625,18.1880342 C30.759375,16.6324786 28.7690625,15.9145299 26.175625,15.9145299 L17.8525,15.9145299 L17.8525,32.4273504 L26.2359375,32.4273504 L26.2359375,32.3675214 Z" id="Shape"></path>
                <path d="M60.3125,1.91452991 L86.005625,1.91452991 C91.1321875,1.91452991 95.896875,2.57264957 100.299688,3.88888889 C104.7025,5.20512821 108.502188,7.23931624 111.69875,9.99145299 C114.895313,12.6837607 117.428438,16.2136752 119.237813,20.4615385 C121.047188,24.7094017 121.951875,29.7350427 121.951875,35.4786325 C121.951875,40.982906 121.047188,45.7692308 119.1775,49.8376068 C117.307813,53.9059829 114.835,57.3162393 111.578125,60.0683761 C108.381563,62.8205128 104.581875,64.8547009 100.11875,66.2307692 C95.7159375,67.6068376 90.95125,68.2649573 85.885,68.2649573 L60.3125,68.2649573 L60.3125,1.91452991 Z M85.3421875,52.7692308 C91.1925,52.7692308 95.655625,51.1538462 98.8521875,47.8632479 C102.04875,44.5726496 103.616875,40.3247863 103.616875,35.0598291 C103.616875,32.4273504 103.255,29.974359 102.53125,27.8205128 C101.8075,25.6666667 100.661562,23.8119658 99.15375,22.2564103 C97.6459375,20.7008547 95.77625,19.5042735 93.484375,18.6068376 C91.1925,17.7692308 88.4784375,17.2905983 85.3421875,17.2905983 L78.1046875,17.2905983 L78.1046875,52.7094017 L85.3421875,52.7094017 L85.3421875,52.7692308 Z" id="Shape"></path>
                <path d="M165.4975,30.3931624 L193,30.3931624 L193,60.3675214 C188.959063,63.7777778 184.375313,66.1709402 179.188438,67.6666667 C174.001563,69.1623932 168.814688,69.8803419 163.5675,69.8803419 C158.139375,69.8803419 153.254063,69.042735 148.971875,67.4273504 C144.629375,65.8119658 141.010625,63.4786325 137.995,60.4871795 C134.979375,57.4957265 132.6875,53.7863248 131.119375,49.4786325 C129.55125,45.1709402 128.767188,40.3247863 128.767188,34.9401709 C128.767188,29.9145299 129.611563,25.2478632 131.300313,20.9401709 C132.989063,16.6324786 135.401563,12.982906 138.4775,9.87179487 C141.553438,6.76068376 145.2325,4.36752137 149.454375,2.63247863 C153.67625,0.897435897 158.380625,0.0598290598 163.5675,0.0598290598 C169.11625,0.0598290598 174.303125,0.957264957 179.188438,2.81196581 C184.013438,4.66666667 188.114688,7.65811966 191.371563,11.9059829 L179.851875,23.4529915 C177.80125,21.4188034 175.569688,19.6837607 173.157188,18.3675214 C170.805,17.0512821 168.030625,16.3931624 164.894375,16.3931624 C161.999375,16.3931624 159.46625,16.8717949 157.295,17.8888889 C155.063438,18.9059829 153.254063,20.2222222 151.74625,21.8974359 C150.238438,23.5726496 149.0925,25.6068376 148.308438,27.8803419 C147.524375,30.1538462 147.102188,32.6068376 147.102188,35.1794872 C147.102188,38.0512821 147.524375,40.6239316 148.429063,42.8974359 C149.273438,45.1709402 150.479688,47.1452991 152.047813,48.7606838 C153.615938,50.3760684 155.485625,51.6324786 157.656875,52.5299145 C159.888438,53.4273504 162.36125,53.8461538 165.075313,53.8461538 C167.306875,53.8461538 169.417813,53.6068376 171.408125,53.0683761 C173.398438,52.5299145 175.328438,51.6324786 177.198125,50.2564103 L177.198125,43.9145299 L165.557813,43.9145299 L165.557813,30.3931624 L165.4975,30.3931624 Z" id="Shape"></path>
            </g>
        </g>
    </g>
</svg>