<?xml version="1.0" encoding="UTF-8"?>
<svg width="600px" height="250px" viewBox="0 0 600 250" version="1.1" xmlns="http://www.w3.org/2000/svg" xmlns:xlink="http://www.w3.org/1999/xlink">
    <!-- Generator: Sketch 50.1 (55044) - http://www.bohemiancoding.com/sketch -->
    <title>PETR</title>
    <desc>Created with Sketch.</desc>
    <defs></defs>
    <g id="PETR" stroke="none" stroke-width="1" fill="none" fill-rule="evenodd">
        <g id="Grid-Logo" opacity="0.400000006"></g>
        <g transform="translate(45.000000, 75.000000)" fill-rule="nonzero" id="Group">
            <g>
                <rect id="Rectangle-path" fill="#FFFFFF" x="0.36036036" y="0" width="99.4594595" height="99.9185692"></rect>
                <g transform="translate(0.000000, 36.301024)" id="Shape">
                    <path d="M27.9279279,7.44170997 L36.2162162,7.44170997 C37.8378378,7.44170997 39.3693694,8.5307407 39.3693694,10.2550393 C39.3693694,12.6146059 37.4774775,14.248152 34.8648649,14.248152 L26.036036,14.248152 L27.9279279,7.44170997 Z" fill="#017F50"></path>
                    <path d="M68.7387387,7.53246253 L76.5765766,7.53246253 C80.2702703,7.53246253 80.4504505,10.0735342 80.4504505,10.7995547 C80.4504505,12.5238534 79.009009,15.7909455 74.5045045,15.7909455 L66.4864865,15.7909455 C66.4864865,15.7909455 68.7387387,7.71396765 68.7387387,7.53246253" fill="#017F50"></path>
                    <path d="M24.0540541,21.4176043 L31.2612613,21.4176043 C34.7747748,21.4176043 34.954955,22.4158825 35.4954955,23.2326555 C35.9459459,24.0494286 35.7657658,25.7737272 35.4054054,26.4089951 C34.954955,27.1350156 34.2342342,29.4945822 29.8198198,29.4945822 L21.8918919,29.4945822 C21.7117117,29.4038296 24.0540541,21.4176043 24.0540541,21.4176043" fill="#017F50"></path>
                    <path d="M99.8198198,0.0907525606 L99.8198198,63.5267924 L0.36036036,63.5267924 L0.36036036,0.0907525606 L19.4594595,0.0907525606 L8.82882883,37.0270447 L30.6306306,37.0270447 C40,37.0270447 41.7117117,34.8489833 43.6036036,33.2154372 C46.1261261,31.0373757 47.4774775,25.9552323 46.3963964,22.4158825 C45.5855856,19.8748108 43.2432432,18.3320172 42.972973,18.3320172 C45.9459459,16.9707288 47.6576577,13.9758943 47.8378378,13.5221315 C48.9189189,11.2533175 49.8198198,7.07869973 47.027027,3.81160755 C44.7747748,1.08903073 40.3603604,0.272257682 37.2072072,0.181505121 L60.3603604,0.181505121 L49.7297297,37.2085499 L60.5405405,37.2085499 L64.5045045,23.141903 L70.6306306,23.141903 C75.1351351,23.141903 74.6846847,25.9552323 74.7747748,27.1350156 L75.1351351,37.4808075 L85.1351351,37.4808075 C85.1351351,37.4808075 84.6846847,25.8644798 84.6846847,25.0477067 C84.5045045,22.0528722 82.6126126,20.6915838 80.9009009,20.6915838 C84.1441441,19.7840582 86.8468468,16.8799763 88.018018,14.9741725 C89.2792793,12.796111 90.2702703,9.34751374 89.009009,5.89891644 C87.2072072,0.907525606 82.4324324,0.0907525606 79.0990991,1.42108547e-14 L99.8198198,1.42108547e-14 L99.8198198,0.0907525606 Z" fill="#006241"></path>
                </g>
                <rect id="Rectangle-path" fill="#F8BA16" x="0.36036036" y="0" width="99.4594595" height="24.2309337"></rect>
            </g>
            <g transform="translate(135.000000, 37.000000)" fill="#006241">
                <polygon id="Shape" points="71.8402878 38.5454545 41.2565947 38.5454545 51.6604317 1.45454545 81.4369305 1.45454545 79.0153477 10.0909091 61.2570743 10.0909091 59.7323741 15.4545455 74.8 15.4545455 72.3784173 24.0909091 57.3107914 24.0909091 55.6067146 29.9090909 74.2618705 29.9090909"></polygon>
                <path d="M28.6105516,1.45454545 L11.0316547,1.45454545 L0.627817746,38.4545455 L12.6460432,38.4545455 L15.8748201,26.9090909 L21.8839329,26.9090909 C22.5117506,26.9090909 23.2292566,26.9090909 23.8570743,26.8181818 C33.1846523,26.1818182 38.6556355,21.3636364 40.7184652,13.8181818 C42.8709832,6.36363636 39.193765,1.45454545 28.6105516,1.45454545 Z M29.3280576,14 C28.4311751,17 26.3683453,18.1818182 23.8570743,18.3636364 L18.2964029,18.3636364 L20.6282974,10.0909091 L24.0364508,10.0909091 C26.5477218,10.0909091 30.22494,10.5454545 29.3280576,14 Z" id="Shape"></path>
                <polygon id="Shape" points="89.0604317 1.45454545 86.3697842 11.1818182 97.1323741 11.1818182 89.4191847 38.5454545 101.347722 38.5454545 109.060911 11.1818182 119.823501 11.1818182 121.258513 6.36363636 122.603837 1.45454545"></polygon>
                <path d="M147.447482,1.45454545 L130.227338,1.45454545 L121.258513,33.6363636 L119.913189,38.5454545 L131.841727,38.5454545 L135.429257,25.6363636 L139.016787,25.6363636 C141.258993,25.6363636 142.604317,25.9090909 143.411511,26.4545455 C144.667146,27.3636364 144.48777,29.0909091 143.590887,32.0909091 C143.501199,32.3636364 143.411511,32.5454545 143.411511,32.7272727 C142.694005,35.6363636 142.335252,37.8181818 142.42494,38.5454545 L154.622542,38.5454545 L154.981295,37.4545455 C153.546283,37.4545455 154.174101,35.8181818 155.519424,31 C157.582254,23.5454545 155.519424,22.6363636 152.111271,21.1818182 C156.685372,20 159.555396,16.3636364 160.811031,12.0909091 C162.694484,4.81818182 159.645084,1.45454545 147.447482,1.45454545 Z M149.061871,14 C148.434053,16.3636364 146.460911,17.3636364 143.411511,17.5454545 L137.671463,17.5454545 L139.734293,10.1818182 L145.294964,10.1818182 C148.0753,10.0909091 149.779376,11.3636364 149.061871,14 Z" id="Shape"></path>
                <path d="M191.035971,0.454545455 C189.152518,0.454545455 187.358753,0.636363636 185.564988,1.09090909 C176.596163,3.09090909 169.241727,9.90909091 166.461391,19.6363636 C162.963549,32.2727273 168.613909,39.4545455 180.094005,39.4545455 C181.977458,39.4545455 183.860911,39.2727273 185.654676,38.8181818 C194.354436,36.8181818 201.977938,30.1818182 204.93765,19.7272727 C207.538609,10 204.130456,0.454545455 191.035971,0.454545455 Z M192.829736,19.8181818 C191.484412,24.6363636 189.152518,28.5454545 185.564988,29.9090909 C184.668106,30.2727273 183.681535,30.4545455 182.605276,30.4545455 C176.865228,30.4545455 177.044604,24.5454545 178.479616,19.8181818 C179.555875,16 181.798082,11.6363636 185.564988,10.0909091 C186.372182,9.72727273 187.358753,9.54545455 188.345324,9.54545455 C193.726619,9.45454545 194.264748,14.7272727 192.829736,19.8181818 Z" id="Shape"></path>
                <path d="M236.059472,1.45454545 L218.480576,1.45454545 L208.076739,38.4545455 L226.014388,38.4545455 C226.821583,38.4545455 227.628777,38.4545455 228.346283,38.3636364 C236.597602,37.9090909 242.696403,34.9090909 244.848921,27.2727273 C245.92518,23.1818182 244.848921,19.7272727 241.171703,18.7272727 C243.952038,17.2727273 247.180815,14.4545455 248.167386,10.6363636 C250.319904,3.45454545 244.310791,1.45454545 236.059472,1.45454545 Z M233.996643,26.4545455 C233.279137,29.0909091 231.126619,29.8181818 228.435971,29.8181818 L222.695923,29.8181818 L224.579376,23 L228.435971,23 C232.113189,23.0909091 234.893525,23.2727273 233.996643,26.4545455 Z M236.418225,13.0909091 C235.790408,15.1818182 233.817266,16.2727273 231.395683,16.2727273 L226.46283,16.2727273 L228.166906,10.0909091 L232.382254,10.0909091 C234.893525,10.0909091 237.22542,10.1818182 236.418225,13.0909091 Z" id="Shape"></path>
                <polygon id="Shape" points="290.858993 37.3636364 290.141487 38.5454545 290.858993 38.5454545"></polygon>
                <path d="M290.858993,5.27272727 C289.244604,2.63636364 285.298321,1.45454545 277.854197,1.45454545 L260.544365,1.45454545 L250.140528,38.4545455 L262.069065,38.4545455 L265.746283,25.5454545 L269.333813,25.5454545 C271.576019,25.5454545 272.921343,25.8181818 273.728537,26.3636364 C274.984173,27.2727273 274.804796,29 273.907914,32 C273.818225,32.2727273 273.818225,32.4545455 273.728537,32.6363636 C272.921343,35.5454545 272.652278,37.7272727 272.741966,38.4545455 L284.939568,38.4545455 L285.208633,37.3636364 C283.863309,37.3636364 284.401439,35.7272727 285.836451,30.9090909 C287.899281,23.4545455 285.836451,22.5454545 282.428297,21.0909091 C286.733333,20 289.603357,16.7272727 290.858993,12.7272727 C290.948681,12.4545455 291.038369,12.2727273 291.128058,12 C291.845564,9.18181818 291.845564,7 290.858993,5.27272727 Z M279.468585,14 C278.840767,16.3636364 276.957314,17.3636364 273.818225,17.5454545 L268.078177,17.5454545 L270.141007,10.1818182 L275.701679,10.1818182 C278.482014,10.0909091 280.186091,11.3636364 279.468585,14 Z" id="Shape"></path>
                <path d="M373.461871,12.1818182 C374.358753,5.72727273 371.219664,0.454545455 361.084892,0.454545455 C351.847002,0.454545455 344.044125,4.36363636 341.891607,12.2727273 C337.855635,26.3636364 360.008633,22.5454545 358.483933,28.1818182 C358.035492,29.9090909 355.703597,30.9090909 352.743885,30.9090909 C351.577938,30.9090909 350.41199,30.5454545 349.604796,30 C348.797602,29.3636364 348.259472,28.3636364 348.438849,27.0909091 L336.958753,27.0909091 C335.344365,33.7272727 340.008153,39.4545455 349.694484,39.4545455 C359.739568,39.4545455 367.990887,35.2727273 370.41247,26.6363636 C374.179376,13.1818182 352.205755,16.5454545 353.820144,11.0909091 C354.178897,9.72727273 355.524221,9 358.214868,9 C359.291127,9 360.367386,9.18181818 361.084892,9.63636364 C361.802398,10.0909091 362.250839,10.9090909 362.071463,12.1818182 L373.461871,12.1818182 Z" id="Shape"></path>
                <path d="M328.528058,38.5454545 L325.83741,1.54545455 L313.639808,1.54545455 L312.832614,2.72727273 L290.858993,37.4545455 L290.858993,38.5454545 L301.890647,38.5454545 L304.670983,33.6363636 L316.59952,33.6363636 L316.59952,38.5454545 L328.528058,38.5454545 Z M309.065707,25.9090909 L312.832614,19.0909091 L316.509832,12.5454545 L316.59952,25.9090909 L309.065707,25.9090909 Z" id="Shape"></path>
            </g>
        </g>
    </g>
</svg>