<?xml version="1.0" encoding="UTF-8"?>
<svg width="600px" height="250px" viewBox="0 0 600 250" version="1.1" xmlns="http://www.w3.org/2000/svg" xmlns:xlink="http://www.w3.org/1999/xlink">
    <!-- Generator: Sketch 50.1 (55044) - http://www.bohemiancoding.com/sketch -->
    <title>POMO</title>
    <desc>Created with Sketch.</desc>
    <defs></defs>
    <g id="POMO" stroke="none" stroke-width="1" fill="none" fill-rule="evenodd">
        <g id="Grid-Logo" opacity="0.400000006"></g>
        <g transform="translate(55.000000, 81.000000)" fill-rule="nonzero" id="Shape">
            <polygon fill="#1D1D1B" points="165.057325 71 151.696815 71 161.629299 37.1780105 145.631847 58.9842932 136.666242 58.9842932 133.414013 37.1780105 123.481529 71 111 71 125.854777 20 141.236943 20 145.543949 45.0994764 164.529936 20 180 20"></polygon>
            <path d="M196.788593,66.8078603 C195.758079,67.5240175 194.813441,68.150655 194.040556,68.6877729 C193.26767,69.2248908 192.15128,69.7620087 190.949013,70.2991266 C189.746747,70.8362445 188.54448,71.2838428 187.42809,71.5524017 C186.3117,71.8209607 184.851805,72 183.048405,72 C179.613358,72 177.122949,70.8362445 175.491301,68.5087336 C173.859654,66.1812227 173.602025,63.3165939 174.546663,59.8253275 C175.405425,56.9606987 176.607691,54.6331878 178.239339,52.8427948 C179.870986,51.0524017 181.932015,49.6200873 184.422424,48.6353712 C186.912833,47.5611354 189.746747,46.8449782 192.924165,46.3973799 C196.101584,45.9497817 199.450755,45.6812227 202.971678,45.4126638 L203.057555,45.2336245 C203.658688,43.0851528 203.315183,41.5633188 201.941164,40.6681223 C200.567145,39.8624454 198.334365,39.4148472 195.242822,39.4148472 C193.782927,39.4148472 192.065404,39.6834061 190.004375,40.220524 C187.943347,40.7576419 185.882319,41.4737991 183.82129,42.279476 L182.790776,42.279476 L185.452938,32.9694323 C186.741081,32.6113537 188.802109,32.2532751 191.636023,31.7161572 C194.469937,31.268559 197.217974,31 199.966012,31 C206.664354,31 211.215792,32.0742358 213.620325,34.3122271 C216.024858,36.5502183 216.625991,39.9519651 215.337848,44.5174672 L207.866621,70.8362445 L195.758079,70.8362445 L196.788593,66.8078603 Z M198.506117,60.8100437 L200.824774,52.6637555 C198.677869,52.8427948 196.960346,53.0218341 195.672203,53.2008734 C194.38406,53.3799127 193.010042,53.6484716 191.636023,54.0960699 C190.433756,54.4541485 189.489118,54.9912664 188.716233,55.7969432 C187.943347,56.5131004 187.342214,57.5873362 186.998709,58.7510917 C186.483452,60.5414847 186.655204,61.7947598 187.42809,62.510917 C188.200976,63.2270742 189.574994,63.4956332 191.46427,63.4956332 C192.494785,63.4956332 193.697051,63.2270742 194.899318,62.779476 C196.101584,62.3318777 197.303851,61.7052402 198.506117,60.8100437 Z" fill="#1D1D1B"></path>
            <path d="M250.902326,43.3210162 L249.869767,43.3210162 C249.439535,43.1454965 248.837209,42.9699769 247.976744,42.8822171 C247.116279,42.7944573 246.169767,42.7944573 245.137209,42.7944573 C243.846512,42.7944573 242.469767,42.9699769 241.006977,43.3210162 C239.544186,43.6720554 237.995349,44.1108545 236.532558,44.6374134 L229.132558,70 L217,70 L228.013953,32 L240.146512,32 L238.511628,37.5288684 C239.2,37.0023095 240.146512,36.3879908 241.351163,35.6859122 C242.555814,34.8960739 243.588372,34.369515 244.534884,33.8429561 C245.567442,33.3163972 246.686047,32.8775982 247.976744,32.5265589 C249.267442,32.1755196 250.386047,32 251.418605,32 C251.848837,32 252.27907,32 252.709302,32 C253.225581,32 253.655814,32.0877598 254,32.0877598 L250.902326,43.3210162 Z" fill="#1D1D1B"></path>
            <path d="M267.44329,72 C264.22706,72 261.358531,71.5514223 258.837702,70.833698 C256.403799,70.0262582 254.404521,68.7702407 252.926794,67.0656455 C251.449066,65.3610503 250.49289,63.297593 250.145189,60.6958425 C249.797489,58.1838074 250.058264,55.1334792 251.101366,51.7242888 C252.144467,48.0459519 253.622195,44.9059081 255.621473,42.214442 C257.533825,39.6126915 259.793879,37.4595186 262.314707,35.7549234 C264.748611,34.1400438 267.356365,32.9737418 270.224894,32.166302 C273.093423,31.3588621 275.961953,31 278.830482,31 C281.00361,31 283.089813,31.2691466 285.089091,31.7177243 C287.088369,32.2560175 289.087647,32.9737418 291,34.0503282 L288.044546,44.4573304 L286.479893,44.4573304 C286.132193,44.0087527 285.697567,43.4704595 285.089091,42.9321663 C284.56754,42.3938731 283.872139,41.8555799 283.176738,41.4070022 C282.394412,40.9584245 281.525161,40.5098468 280.568985,40.1509847 C279.525883,39.7921225 278.395856,39.6126915 277.005054,39.6126915 C273.87575,39.6126915 271.181071,40.6892779 268.834092,42.8424508 C266.487114,44.9956236 264.835536,47.8665208 263.792435,51.5448578 C262.662408,55.4026258 262.749333,58.3632385 264.05321,60.2472648 C265.357087,62.131291 267.44329,63.1181619 270.48567,63.1181619 C272.050322,63.1181619 273.441124,62.9387309 274.658076,62.5798687 C275.875028,62.2210066 277.005054,61.8621444 278.048156,61.3238512 C279.004332,60.8752735 279.873584,60.3369803 280.568985,59.7986871 C281.264386,59.2603939 281.959787,58.8118162 282.481337,58.3632385 L284.04599,58.3632385 L281.090535,68.7702407 C280.308209,69.0393873 279.352033,69.3982495 278.395856,69.7571116 C277.352755,70.1159737 276.309653,70.4748359 275.266552,70.7439825 C273.962675,71.1028446 272.832648,71.2822757 271.702621,71.4617068 C270.572595,71.9102845 269.181793,72 267.44329,72 Z" fill="#1D1D1B"></path>
            <path d="M329.843122,51.5 C328.017165,57.8282609 324.800001,62.8195652 320.191632,66.473913 C315.583263,70.1282609 310.01844,72 303.584113,72 C297.149786,72 292.715318,70.1282609 290.193758,66.473913 C287.672197,62.8195652 287.324396,57.8282609 289.150353,51.5 C290.976311,45.0826087 294.280425,40.0913043 298.888794,36.4369565 C303.497163,32.7826087 309.061986,31 315.496313,31 C321.930639,31 326.452058,32.8717391 328.886668,36.526087 C331.321278,40.0913043 331.66908,45.0826087 329.843122,51.5 Z M317.148369,51.5 C317.843972,49.1826087 318.191774,47.3108696 318.191774,45.7956522 C318.278724,44.2804348 318.104823,43.0326087 317.670072,42.1413043 C317.23532,41.1608696 316.626667,40.5369565 315.844114,40.0913043 C315.061561,39.7347826 314.105107,39.5565217 312.887802,39.5565217 C311.844397,39.5565217 310.800993,39.7347826 309.757589,40.0913043 C308.801135,40.4478261 307.757731,41.0717391 306.801277,41.9630435 C305.844823,42.8543478 304.975319,44.1021739 304.105815,45.6173913 C303.236312,47.1326087 302.453758,49.0934783 301.758156,51.5 C301.062553,53.8173913 300.714751,55.7782609 300.714751,57.2043478 C300.714751,58.6304348 300.888652,59.7891304 301.236453,60.6804348 C301.584255,61.5717391 302.279858,62.1956522 303.062411,62.6413043 C303.931915,63.0869565 304.888369,63.2652174 306.105674,63.2652174 C307.062128,63.2652174 308.105532,63.0869565 309.235887,62.6413043 C310.366241,62.1956522 311.322695,61.5717391 312.192199,60.7695652 C313.148653,59.7891304 314.105107,58.6304348 314.80071,57.2043478 C315.670213,55.8673913 316.452767,53.9956522 317.148369,51.5 Z" fill="#1D1D1B"></path>
            <path d="M377.506041,50.5448505 C375.731631,56.6196013 372.626413,61.5498339 368.190388,65.2475083 C363.843083,68.9451827 359.229617,70.8820598 354.43871,70.8820598 C352.398138,70.8820598 350.712449,70.7059801 349.381641,70.2657807 C348.050834,69.8255814 346.631306,69.2093023 345.211778,68.2408638 L340.509591,84 L328,84 L343.526088,31.9684385 L356.035679,31.9684385 L354.793592,36.0182724 C357.100325,34.5215947 359.318338,33.2890365 361.53635,32.4086379 C363.754363,31.4401993 366.061096,31 368.633991,31 C373.336177,31 376.352674,32.7607973 377.949643,36.282392 C379.457892,39.8039867 379.369171,44.5581395 377.506041,50.5448505 Z M364.552847,50.7209302 C365.617493,47.0232558 365.883655,44.3820598 365.173891,42.7093023 C364.464127,41.0365449 362.867158,40.244186 360.294263,40.244186 C359.140897,40.244186 357.98753,40.4202658 356.834164,40.7724252 C355.592077,41.1245847 354.349989,41.6528239 353.107902,42.269103 L347.42979,61.2857143 C348.050834,61.5498339 348.671877,61.7259136 349.470362,61.9019934 C350.268846,61.9900332 351.156051,62.0780731 352.220697,62.0780731 C355.237195,62.0780731 357.810089,61.1096346 359.850661,59.2607973 C361.802512,57.3239203 363.399481,54.5066445 364.552847,50.7209302 Z" fill="#1D1D1B"></path>
            <path d="M419.843122,51.5 C418.017165,57.8282609 414.800001,62.8195652 410.191632,66.473913 C405.583263,70.1282609 400.01844,72 393.584113,72 C387.149786,72 382.715318,70.1282609 380.193758,66.473913 C377.672197,62.8195652 377.324396,57.8282609 379.150353,51.5 C380.976311,45.0826087 384.280425,40.0913043 388.888794,36.4369565 C393.497163,32.7826087 399.061986,31 405.496313,31 C411.930639,31 416.452058,32.8717391 418.886668,36.526087 C421.321278,40.0913043 421.66908,45.0826087 419.843122,51.5 Z M407.148369,51.5 C407.843972,49.1826087 408.191774,47.3108696 408.191774,45.7956522 C408.278724,44.2804348 408.104823,43.0326087 407.670072,42.1413043 C407.23532,41.1608696 406.626667,40.5369565 405.844114,40.0913043 C405.061561,39.7347826 404.105107,39.5565217 402.887802,39.5565217 C401.757447,39.5565217 400.800993,39.7347826 399.757589,40.0913043 C398.801135,40.4478261 397.757731,41.0717391 396.801277,41.9630435 C395.844823,42.8543478 394.975319,44.1021739 394.105815,45.6173913 C393.236312,47.1326087 392.453758,49.0934783 391.758156,51.5 C391.062553,53.8173913 390.714751,55.7782609 390.714751,57.2043478 C390.714751,58.6304348 390.888652,59.7891304 391.236453,60.6804348 C391.584255,61.5717391 392.279858,62.1956522 393.062411,62.6413043 C393.931915,63.0869565 394.888369,63.2652174 396.105674,63.2652174 C397.062128,63.2652174 398.105532,63.0869565 399.235887,62.6413043 C400.366241,62.1956522 401.322695,61.5717391 402.192199,60.7695652 C403.235603,59.7891304 404.105107,58.6304348 404.88766,57.2043478 C405.670213,55.8673913 406.365816,53.9956522 407.148369,51.5 Z" fill="#1D1D1B"></path>
            <polygon fill="#1D1D1B" points="434.909091 71 422 71 438.181818 18 451 18"></polygon>
            <path d="M487.843122,51.5 C486.017165,57.8282609 482.800001,62.8195652 478.191632,66.473913 C473.583263,70.1282609 468.01844,72 461.584113,72 C455.149786,72 450.715318,70.1282609 448.193758,66.473913 C445.672197,62.8195652 445.324396,57.8282609 447.150353,51.5 C448.976311,45.0826087 452.280425,40.0913043 456.888794,36.4369565 C461.497163,32.7826087 467.061986,31 473.496313,31 C479.930639,31 484.452058,32.8717391 486.886668,36.526087 C489.321278,40.0913043 489.66908,45.0826087 487.843122,51.5 Z M475.148369,51.5 C475.843972,49.1826087 476.191774,47.3108696 476.191774,45.7956522 C476.278724,44.2804348 476.104823,43.0326087 475.670072,42.1413043 C475.23532,41.1608696 474.626667,40.5369565 473.844114,40.0913043 C473.061561,39.7347826 472.105107,39.5565217 470.887802,39.5565217 C469.844397,39.5565217 468.800993,39.7347826 467.757589,40.0913043 C466.801135,40.4478261 465.757731,41.0717391 464.801277,41.9630435 C463.844823,42.8543478 462.975319,44.1021739 462.105815,45.6173913 C461.236312,47.1326087 460.453758,49.0934783 459.758156,51.5 C459.062553,53.8173913 458.714751,55.7782609 458.714751,57.2043478 C458.714751,58.6304348 458.888652,59.7891304 459.236453,60.6804348 C459.584255,61.5717391 460.279858,62.1956522 461.062411,62.6413043 C461.931915,63.0869565 462.888369,63.2652174 464.105674,63.2652174 C465.062128,63.2652174 466.105532,63.0869565 467.235887,62.6413043 C468.366241,62.1956522 469.322695,61.5717391 470.192199,60.7695652 C471.235603,59.7891304 472.105107,58.6304348 472.88766,57.2043478 C473.670213,55.8673913 474.452767,53.9956522 475.148369,51.5 Z" fill="#1D1D1B"></path>
            <path d="M63,44 C63,54.5069124 54.5069124,63 44,63 C33.4930876,63 25,54.5069124 25,44 C25,33.4930876 33.4930876,25 44,25 C54.5069124,25 63,33.4930876 63,44 Z" fill="#EE7D00"></path>
            <path d="M83.3396226,25 C74.9150943,28.1764706 69,35.6764706 69,44.5 C69,53.3235294 74.9150943,60.8235294 83.4292453,64 C86.3867925,58.0882353 88,51.5588235 88,44.5 C88,37.5294118 86.2971698,30.9117647 83.3396226,25 Z" fill="#1D1D1B"></path>
            <path d="M66.6690141,27 C72.1408451,27 77.0915493,25.0331126 81,21.7251656 C73.5305164,8.85099338 59.9812207,0.268211921 44.3474178,0 C44.1737089,1.25165563 44,2.41390728 44,3.75496689 C44.0868545,16.5397351 54.1619718,27 66.6690141,27 Z" fill="#1D1D1B"></path>
            <path d="M42,3.67766312 C42,2.42187571 41.913253,1.16608831 41.653012,0 C26.3855422,0.717592804 13.2,9.59780376 6,22.4247751 C9.73012048,25.2951463 14.3277108,26.9994293 19.3590361,26.9994293 C31.9373494,27.0891284 42,16.5943336 42,3.67766312 Z" fill="#1D1D1B"></path>
            <path d="M19,44.6328294 C19,35.3347732 13.1064815,27.2764579 4.75,24 C1.75925926,30.0215983 0,36.7516199 0,43.924406 C0,51.5399568 1.93518519,58.712743 5.27777778,65 C13.3703704,61.5464363 19,53.7537797 19,44.6328294 Z" fill="#1D1D1B"></path>
            <path d="M20.5676766,62 C15.3825773,62 10.7159879,63.9724138 7,67.2 C14.4319757,79.3034483 27.2218875,87.462069 41.826584,88 C41.9130023,87.0137931 41.9994207,86.0275862 41.9994207,84.9517241 C42.085839,72.2206897 32.4934052,62 20.5676766,62 Z" fill="#1D1D1B"></path>
            <path d="M45,84.4864865 C45,85.7162162 45.0875912,86.8581081 45.2627737,88 C60.4160584,87.3851351 73.6423358,79.0405405 81,66.7432432 C77.2335766,63.7567568 72.4160584,62 67.2481752,62 C54.9854015,62.0878378 45,72.1013514 45,84.4864865 Z" fill="#1D1D1B"></path>
        </g>
    </g>
</svg>