<?xml version="1.0" encoding="UTF-8"?>
<svg width="600px" height="250px" viewBox="0 0 600 250" version="1.1" xmlns="http://www.w3.org/2000/svg" xmlns:xlink="http://www.w3.org/1999/xlink">
    <!-- Generator: Sketch 50.1 (55044) - http://www.bohemiancoding.com/sketch -->
    <title>PRIO</title>
    <desc>Created with Sketch.</desc>
    <defs>
        <polygon id="path-1" points="0.321384045 0.387822485 3.16745146 0.387822485 3.16745146 2.83703354 0.321384045 2.83703354"></polygon>
        <polygon id="path-3" points="0.251281989 0.310093044 59.8935596 0.310093044 59.8935596 76.2289161 0.251281989 76.2289161"></polygon>
        <path d="M34.7111667,0.57848366 C35.3373333,6.30917647 5.2955,55.6968627 5.2955,55.6968627 C5.30683333,55.7025621 5.31533333,55.7082614 5.32383333,55.7139608 C1.96916667,61.0086536 0.00283333333,67.2807843 0.00283333333,74.0259608 C0.00283333333,92.8907974 15.2093333,108.187843 33.966,108.187843 C52.7255,108.187843 67.932,92.8907974 67.932,74.0259608 C67.932,66.4686275 65.4641667,59.5097255 61.3331667,53.8502745 L51.4646667,37.1483399 C35.6688333,6.28352941 34.7111667,0.57848366 34.7111667,0.57848366 Z" id="path-5"></path>
        <radialGradient cx="50%" cy="51.7611994%" fx="50%" fy="51.7611994%" r="76.4170486%" gradientTransform="translate(0.500000,0.517612),scale(1.000000,0.631257),rotate(90.000000),translate(-0.500000,-0.517612)" id="radialGradient-7">
            <stop stop-color="#FFEC36" offset="0%"></stop>
            <stop stop-color="#429321" offset="100%"></stop>
        </radialGradient>
    </defs>
    <g id="PRIO" stroke="none" stroke-width="1" fill="none" fill-rule="evenodd">
        <g id="Grid-Logo" opacity="0.400000006" transform="translate(-4.000000, 0.000000)"></g>
        <g transform="translate(19.000000, 63.000000)">
            <g id="Group-21" transform="translate(79.000000, 31.000000)">
                <path d="M71.7485688,72.1073303 C66.904562,68.5525273 65.4018384,63.2444375 65.3363789,57.8058442 C65.171307,43.8731725 64.200798,29.8894342 65.9027463,16.0049921 C66.7309519,9.26987444 70.7296766,4.67388011 77.4606261,2.48936429 C85.2645429,-0.0441066604 93.1823025,0.673662825 101.119984,1.10205489 C101.45582,1.11907709 101.791656,1.21837326 102.130338,1.2722769 C111.838274,2.76455654 112.14565,3.24117818 111.021453,13.2190251 C110.748231,15.6276666 109.251199,15.7893775 107.435408,15.7893775 C101.401745,15.7865405 95.3680822,15.7695183 89.3372654,15.7950516 C84.3111103,15.8177479 82.8994609,17.1738499 82.5807013,22.1556808 C82.0001036,31.2824177 82.0001036,31.2824177 91.0762126,31.2824177 C96.4268193,31.2824177 101.777426,31.3873879 107.125187,31.2341881 C109.507345,31.1660993 110.457932,32.153387 110.4807,34.3379028 C110.506315,36.721011 110.463624,39.1041191 110.486392,41.4872273 C110.517699,44.083113 109.202816,45.1186302 106.672662,45.098771 C99.8421002,45.0477044 93.0115384,45.1952301 86.1838227,45.0335192 C83.3406013,44.9654304 82.2534036,45.8988145 82.5351643,48.735848 C82.8254631,51.6608296 82.3046328,54.6170185 82.8880766,57.5533482 C83.494289,60.6059963 85.3015418,61.9450761 88.3610643,61.9280539 C94.7362553,61.8911725 101.111446,62.0415353 107.483791,61.8628022 C110.224554,61.7833652 111.206447,62.7678159 111.027145,65.3807238 C110.910456,67.0744328 111.004377,68.782327 111.004377,70.4845471 C110.998684,75.5685112 110.714078,75.8663997 105.696461,76.1330809 C104.899562,76.1756364 104.108355,76.2550733 103.317149,76.314651 C96.0027553,77.2622202 88.688362,77.9601305 81.3796609,76.2891177 L81.4508126,76.1188957 C79.4215665,75.3387115 77.1731733,75.2536005 75.2435396,74.1670166 L75.2549238,74.201061 C74.1307272,73.4293879 72.8471508,72.9243959 71.7485688,72.1073303" id="Fill-1" fill="#1D488D"></path>
                <path d="M136.918959,45.577946 C136.916113,36.8512308 136.833577,28.1216786 136.973034,19.3978005 C137.010033,16.8387962 136.181827,16.0160565 133.65452,16.1323749 C129.798098,16.3082709 125.9246,16.1493971 122.059641,16.1692563 C119.805556,16.1806044 118.732588,15.1933168 118.81797,12.8669493 C118.91189,10.2625525 118.891968,7.65248162 118.826508,5.04808484 C118.769587,2.77845801 119.757172,1.72308153 122.062487,1.7287556 C137.866699,1.75145187 153.670912,1.7542889 169.472278,1.7202445 C171.965433,1.71457043 172.94448,2.86640605 172.873329,5.26086235 C172.799331,7.7517778 172.787947,10.2512043 172.876175,12.7392828 C172.967249,15.2358723 171.777593,16.2174859 169.378358,16.1862785 C165.627241,16.1380489 161.867586,16.3281302 158.125007,16.1267008 C155.543624,15.9876862 154.85203,16.8671666 154.86626,19.3949634 C154.968718,36.5051127 154.920335,53.618099 154.917489,70.7339223 C154.917489,75.7214273 154.524732,76.1015898 149.450194,76.1044268 C146.606972,76.1044268 143.755213,75.9597381 140.926222,76.1413083 C137.863853,76.3399006 136.893344,74.8561321 136.904729,72.0985355 C136.941727,63.258339 136.918959,54.4181425 136.918959,45.577946" id="Fill-3" fill="#1D488D"></path>
                <path d="M219.366117,28.4879396 C219.135585,29.3418867 218.893669,30.1929968 218.657446,31.0469439 C217.92316,31.7959207 217.208798,32.5647568 216.40336,33.2399708 C216.28098,33.2201116 216.169983,33.2484819 216.067524,33.3165707 C211.419896,35.1578055 206.60435,35.203198 201.717653,34.7549467 C199.893323,34.5875617 199.170422,33.8527701 199.215959,31.9689798 C199.32411,27.338941 199.278573,22.7032282 199.233036,18.0731895 C199.218805,16.7511319 199.543257,15.7610072 200.991905,15.7326368 C205.608227,15.6446888 210.278623,15.0120303 214.727027,16.8986576 C219.169738,19.4576619 220.740767,23.3897904 219.366117,28.4879396 M239.20036,72.762685 C234.584039,65.6247086 231.026455,57.9079774 226.950886,50.4749496 C224.637033,46.2506066 224.810644,46.1626586 228.843521,43.1724252 C229.56073,42.6419 230.223864,42.0432859 230.912612,41.4730421 C231.646898,40.7666208 232.26734,39.9552292 232.987395,39.2346227 C236.641746,33.7421257 237.800095,27.6169703 236.977582,21.2166227 C236.044072,13.9197724 233.10693,7.74922447 225.747,4.68239121 C224.130433,3.88518479 222.291874,3.63836287 220.729383,2.71065291 L220.809073,2.5914975 C217.433637,1.1871659 213.787824,1.28362504 210.270085,0.685010959 C201.968107,0.639618422 193.68605,0.835373736 185.503607,2.48936429 C183.144217,2.96598592 181.903331,4.26251025 181.903331,6.63994436 C181.889101,28.7574578 181.897639,50.8721342 181.874871,72.9868107 C181.872024,75.3614077 183.092987,76.1586142 185.295844,76.1188957 C188.480593,76.059318 191.679573,75.9231404 194.850092,76.1529401 C198.142992,76.394088 199.30988,75.1401191 199.235882,71.8860417 C199.073656,65.0828352 199.167576,58.2767918 199.204575,51.4735854 C199.210267,50.5260162 198.794741,49.3685065 200.032781,48.7698924 C202.318173,47.6606123 207.404095,49.5983062 208.644981,51.9445329 C212.529863,59.2612424 216.457436,66.5552556 220.385009,73.8492689 C220.905839,74.8166973 221.238829,76.1103846 222.678939,76.056481 C228.20031,75.8408664 233.755833,76.7629023 239.243051,75.5656742 C239.943184,74.620942 239.800881,73.687558 239.20036,72.762685" id="Fill-5" fill="#1D488D"></path>
                <g id="Group-9" transform="translate(318.759551, 74.462919)">
                    <mask id="mask-2" fill="white">
                        <use xlink:href="#path-1"></use>
                    </mask>
                    <g id="Clip-8"></g>
                    <path d="M0.341306517,0.421866887 C0.335614382,0.410518753 0.335614382,0.399170619 0.329922247,0.387822485 C0.32707618,0.387822485 0.324230112,0.387822485 0.321384045,0.387822485 L0.341306517,0.421866887 Z" id="Fill-7" fill="#2684C6" mask="url(#mask-2)"></path>
                </g>
                <path d="M355.276935,31.0480787 C354.571111,31.7857074 353.819749,32.4807806 353.128154,33.2325945 L353.239151,33.2325945 C352.029572,34.1376082 350.578078,34.1432823 349.172121,34.3362006 C345.51777,35.4653399 341.766653,34.883748 338.055381,34.9716961 C336.504275,35.0085775 335.861063,34.0808675 335.861063,32.597099 C335.866756,27.6408014 335.883832,22.6816668 335.849679,17.7253692 C335.841141,16.4458671 336.438815,15.7451198 337.614241,15.7366087 C342.213486,15.6912162 346.883883,14.9110319 351.318056,16.862911 C355.846149,18.8630197 357.437101,22.3213635 355.276935,31.0480787 M375.845465,72.7042421 C373.813372,69.1097206 371.784126,65.5151991 369.752034,61.9235147 C368.804294,60.6496866 368.215158,59.1914514 367.574793,57.7587495 C367.247495,56.1529885 365.998071,55.0749157 365.263786,53.7074656 C363.957441,51.2647797 361.851351,48.7199606 361.896888,46.2517414 C361.933887,44.2204254 365.568315,43.4856337 367.341415,41.8288061 C367.423951,41.7522062 367.497949,41.6670952 367.574793,41.5848213 C368.237926,40.798963 369.043363,40.1407712 369.649576,39.3038463 C369.715035,39.196039 369.729266,39.0797206 369.695113,38.9577282 C370.349708,37.7406408 371.032765,36.5377386 371.732897,35.3461845 L371.718667,35.38874 C372.820095,33.2269205 372.928246,30.7813975 373.665377,28.5146077 C373.947138,23.2433994 374.095133,17.9863763 371.644669,13.0697972 C371.214913,12.0938576 370.31271,11.4697103 369.769111,10.5788817 C366.837661,6.09920576 362.616943,3.62247548 357.411486,2.66923222 C354.46296,1.88904799 351.471743,1.49753736 348.415067,1.24787841 C342.742854,0.785441946 337.101949,1.58832244 331.449659,1.32731535 C328.219372,1.88053689 324.880935,1.61952981 321.710416,2.61816561 C320.358534,2.65504705 319.365257,3.15152792 319.14611,4.62678536 C318.554128,5.44101398 318.798889,6.38007208 318.796043,7.26522655 C318.781813,28.9174665 318.784659,50.5725435 318.796043,72.2247835 C318.796043,73.1042639 318.602511,74.0206257 319.089188,74.8518765 C324.553638,76.5540966 330.009549,76.4094079 335.454076,74.7440692 C336.043212,67.1606786 335.539458,59.5602658 335.741529,51.971201 C335.769989,50.9271727 335.217852,49.6448335 336.595349,48.9412492 C338.872203,47.7752284 344.017893,49.6448335 345.298623,51.9258085 C349.416883,59.2538661 352.732551,67.0159899 357.380179,74.0546701 C358.000622,74.7100248 358.618219,75.4533276 359.597266,75.4391425 C364.962103,75.3511944 370.344016,76.0405936 375.688931,75.0703281 C376.48583,74.3298624 376.266683,73.5241448 375.845465,72.7042421" id="Fill-10" fill="#2684C6"></path>
                <path d="M289.631252,49.630081 C288.956734,61.6278958 278.582818,63.7812043 271.328192,59.951209 C269.26764,58.8617881 268.376821,56.9638127 267.258316,55.1736445 C266.395958,53.6529945 266.612259,51.8458042 265.949125,50.2712505 C265.932049,43.1276001 265.627519,35.9697645 265.994662,28.8431362 C266.2565,23.8215869 267.631151,18.9702595 273.183828,16.8736917 C276.462498,15.54596 279.729783,15.7275302 282.991377,16.9332694 C287.695926,19.2567999 289.45195,23.4868169 289.636944,28.2615444 C289.915859,35.3768245 290.029701,42.528986 289.631252,49.630081 M306.551123,23.2087876 C305.398466,15.3048122 301.391203,8.70019811 293.977197,4.70849192 C292.648083,3.78645602 291.05144,3.4375009 289.62556,2.71973141 C279.869241,-0.591086726 270.406067,0.0273865848 261.253114,4.81062513 C260.25699,5.21632093 259.608087,6.08445319 258.765651,6.6944154 C253.810648,10.2662406 251.032886,15.2565826 249.379321,20.9817163 C248.17828,22.9165732 248.519808,25.1209482 248.297815,27.2231901 C247.315922,36.520149 247.344382,45.8057598 248.827183,55.0630002 C249.518778,56.146747 250.344137,57.1794272 250.159143,58.5894329 C250.392521,59.8150314 250.913351,60.9243115 251.516717,61.9995472 C255.41583,70.4283738 262.192316,74.9165609 271.225734,76.3180555 C275.602986,77.5294688 279.980237,77.5237947 284.357489,76.3237295 C294.873708,75.1520347 303.670903,67.4665108 306.007524,56.909909 C308.480757,45.7490191 308.187612,34.403722 306.551123,23.2087876" id="Fill-12" fill="#1D488D"></path>
                <g id="Group-16" transform="translate(415.525843, 0.700047)">
                    <mask id="mask-4" fill="white">
                        <use xlink:href="#path-3"></use>
                    </mask>
                    <g id="Clip-15"></g>
                    <path d="M42.2041121,46.7455179 C41.3275234,49.4775812 41.8881987,52.5529256 40.2061728,55.0977446 C39.7735706,56.5190984 38.8514447,57.5744749 37.6874031,58.4539553 C37.2434166,59.4923096 35.993993,58.8823474 35.3820885,59.5717465 C31.2296762,61.5179515 27.1427234,61.3250333 23.1126919,59.2057692 C22.9106211,59.1263323 22.7000121,59.0951249 22.483711,59.1093101 C21.4762031,57.8156228 20.1897807,56.7120167 19.6831807,55.0722113 L19.697411,55.1062557 C18.0637683,52.5529256 18.4223728,49.5286478 17.7051638,46.7597031 C18.1064593,39.9111041 17.0420301,33.0086015 18.4394492,26.199721 C18.8236683,24.338627 19.3331144,22.5030663 19.7856391,20.6561575 C20.3918515,19.8305807 21.1261369,19.1128112 21.7721942,18.3212789 C21.7693481,18.3241159 21.766502,18.326953 21.763656,18.326953 L21.7778863,18.3156048 C21.7778863,18.3184419 21.7750402,18.3184419 21.7721942,18.3212789 C22.6317065,17.5240725 23.5965234,16.8772288 24.6040312,16.2871258 C28.184384,15.538149 31.7618908,15.5835415 35.3393975,16.3069851 C36.3469054,16.9453176 37.4027964,17.5297465 38.1940031,18.4517824 C41.3161391,22.2448963 41.9081211,26.8494017 42.1101919,31.4652553 C42.3350312,36.5520564 42.1898818,41.6530427 42.2041121,46.7455179 M53.8331436,10.295311 C53.2866987,9.41015654 52.6007964,8.64132045 51.8124357,7.96610647 C49.6124256,6.06245697 47.5091818,3.99993359 44.5321953,3.2991863 C43.4136908,2.59276495 41.9308897,2.85660907 40.8863829,1.94875834 L40.9404582,1.94308427 C33.5719897,-0.18185385 26.2006751,-0.281150024 18.8322065,1.9288991 C18.4764481,1.9459213 18.1235357,1.96010647 17.7706234,1.97712867 C16.2650537,2.53035021 14.799329,3.17435683 13.4218324,3.99993359 C12.2919436,4.26661474 11.631656,5.1092137 10.9799065,5.96883486 C9.99232112,6.62135257 9.07019528,7.36181833 8.21352899,8.17604695 C4.20057393,12.3493233 1.74441775,17.2517172 1.21504921,23.0506138 C0.765370562,24.1598939 0.586068315,25.3117295 0.591760449,26.5004466 C0.512070562,28.4579997 0.799523371,30.4325751 0.270154831,32.3645949 C0.241694157,36.3619752 0.25023236,40.3621924 0.264462697,44.3624097 C0.697064944,45.8717116 0.56899191,47.4178949 0.588914382,48.955567 C0.591760449,50.2804617 0.577530112,51.6053564 0.603144719,52.930251 C0.605990787,53.7075982 0.830830112,54.4196936 1.19512674,55.0977446 C2.13717506,58.6241773 3.67120539,61.9037881 5.43292112,65.0869397 C6.11313124,65.8188944 6.80757169,66.5395009 7.37963124,67.3679147 L7.39670764,67.3338703 C8.10537843,68.0034102 8.79697281,68.6899723 9.46295258,69.3963937 L9.42879978,69.4105788 C10.2513133,69.9836596 10.9884447,70.6560366 11.6971155,71.3596209 C11.8337267,71.4106875 11.9760301,71.4277097 12.1211796,71.4163615 C12.9693076,71.961072 13.8402043,72.4575529 14.8334818,72.7015377 C17.710856,73.992388 20.8216076,74.5342614 23.8014402,75.5016898 L23.7559031,75.5527564 C27.888393,76.5627404 32.0151908,76.3414518 36.1448346,75.5442453 L36.1049897,75.4903417 C38.4017661,74.6051872 40.8920751,74.417943 43.1831593,73.5186034 C43.5189953,73.4760479 43.8548312,73.4334924 44.1906672,73.3909369 C44.9192604,72.8150191 45.7759267,72.468901 46.6012863,72.0773904 C48.9663683,71.0503842 50.853311,69.4190899 52.4812616,67.4615368 C53.1614717,66.8941301 53.2098548,65.8869832 53.9583706,65.367806 L53.8815267,65.3451098 C54.6670413,64.2074593 55.4440178,63.0669718 56.1270739,61.8640696 C58.8222998,56.4141282 59.9578807,50.6350909 59.8895751,44.5836983 C59.8411919,40.5040441 59.8383458,36.4215529 59.8895751,32.3418986 C59.9891874,24.4095529 58.281547,16.9821991 53.8331436,10.295311" id="Fill-14" fill="#2684C6" mask="url(#mask-4)"></path>
                </g>
                <path d="M36.9815784,31.3791605 C36.3611357,32.0401893 35.9883009,32.9622252 35.0263301,33.2742989 C33.796829,34.3013051 32.1859548,34.5396159 30.8169964,35.2744076 L30.9052245,35.4105852 C27.0174964,36.667391 23.0386942,35.8701846 19.0997369,35.907066 C17.8246987,35.9184142 17.542938,34.8800599 17.5486301,33.7197132 C17.5742447,28.3946012 17.5600144,23.0666522 17.5571683,17.7415403 C17.5571683,16.6407713 17.8303908,15.3924765 19.0172009,15.4265209 C24.1600447,15.5797207 29.490729,14.0250264 34.3660425,16.9046154 C35.2625537,17.7954439 36.1533728,18.6862725 37.047038,19.577101 C38.9026739,23.5205776 38.8514447,27.4555431 36.9815784,31.3791605 M52.8512503,12.8817018 C52.1311953,12.2887618 51.9831998,11.3241704 51.3826796,10.6546305 C48.3800784,6.34517657 44.0227492,4.08689787 39.1445897,2.61447747 C36.2159863,1.28958281 32.9743155,1.46831592 29.9290234,0.693805763 C21.5217402,0.617205857 13.1343796,0.801613037 4.81532449,2.25701124 C1.6789582,2.80739575 0.332768315,4.66281568 0.329922247,7.6161676 C0.30430764,29.2542224 0.312845843,50.8922772 0.31569191,72.530332 C0.31569191,75.0411067 1.51104022,76.2128015 4.11234584,76.1276905 C7.40239978,76.0227203 10.7123762,75.9744907 13.996738,76.1418757 C16.8911885,76.2922385 17.8246987,74.9418105 17.799084,72.2976952 C17.7393166,66.4080136 17.7791616,60.5154949 17.7791616,54.6258133 C17.7820076,49.519153 17.7734694,49.6723528 23.030156,49.9418709 C29.152047,50.2567817 35.2653998,50.0893967 41.0400706,47.5672739 C42.4175672,46.7899267 43.9430593,46.3274902 45.323402,45.550143 C47.053811,44.9203216 48.3345413,43.683375 49.5811189,42.3981988 C56.4799863,35.2658965 57.8062537,23.2567335 52.8512503,12.8817018" id="Fill-17" fill="#1D488D"></path>
                <path d="M387.342439,74.1840388 C387.368053,51.7345924 387.487588,29.2851461 387.328208,6.8385367 C387.299748,3.24685224 388.389791,2.34183855 391.742459,2.60568266 C395.473653,2.89789712 399.244692,2.71348994 402.995809,2.73618621 C403.052731,13.715506 403.129574,24.6919888 403.155189,35.6713085 C403.18365,47.6719604 403.123882,59.6754493 403.195034,71.6761012 C403.209264,73.8379207 402.796585,74.7457715 400.289199,75.040823 C395.860718,75.5656742 391.577387,75.721711 387.342439,74.1840388" id="Fill-19" fill="#2684C6"></path>
            </g>
            <g id="Group-24">
                <mask id="mask-6" fill="white">
                    <use xlink:href="#path-5"></use>
                </mask>
                <g id="Clip-23"></g>
                <path d="M34.7111667,0.57848366 C35.3373333,6.30917647 5.2955,55.6968627 5.2955,55.6968627 C5.30683333,55.7025621 5.31533333,55.7082614 5.32383333,55.7139608 C1.96916667,61.0086536 0.00283333333,67.2807843 0.00283333333,74.0259608 C0.00283333333,92.8907974 15.2093333,108.187843 33.966,108.187843 C52.7255,108.187843 67.932,92.8907974 67.932,74.0259608 C67.932,66.4686275 65.4641667,59.5097255 61.3331667,53.8502745 L51.4646667,37.1483399 C35.6688333,6.28352941 34.7111667,0.57848366 34.7111667,0.57848366 Z" id="Fill-22" fill="url(#radialGradient-7)" mask="url(#mask-6)"></path>
            </g>
        </g>
    </g>
</svg>