<?xml version="1.0" encoding="UTF-8"?>
<svg width="600px" height="250px" viewBox="0 0 600 250" version="1.1" xmlns="http://www.w3.org/2000/svg" xmlns:xlink="http://www.w3.org/1999/xlink">
    <!-- Generator: Sketch 50.1 (55044) - http://www.bohemiancoding.com/sketch -->
    <title>PSSA</title>
    <desc>Created with Sketch.</desc>
    <defs></defs>
    <g id="PSSA" stroke="none" stroke-width="1" fill="none" fill-rule="evenodd">
        <g id="Grid-Logo" opacity="0.400000006" transform="translate(1.000000, 0.000000)"></g>
        <g id="PSSA3" transform="translate(95.000000, 61.000000)">
            <g id="Group" transform="translate(0.000000, 6.000000)" fill="#1D1D1B">
                <path d="M2.54722222,1.62608696 L30.2755556,1.92173913 C38.5722222,1.99565217 45.3405556,7.9826087 45.7772222,17.5913043 C46.2138889,27.126087 41.265,37.6217391 25.6905556,38.1391304 L16.375,38.1391304 L16.2294444,57.0608696 L2.76555556,57.0608696 L2.54722222,1.62608696 Z M16.375,12.2695652 L16.4477778,27.6434783 C18.7038889,27.7913043 24.5261111,27.5695652 26.3455556,27.5695652 C35.37,27.4956522 35.5883333,12.4913043 26.7094444,12.2695652 L16.375,12.2695652 Z" id="Shape"></path>
                <path d="M76.9988889,1.25652174 C93.5194444,1.25652174 106.910556,14.4130435 106.910556,30.673913 C106.910556,46.8608696 93.5194444,60.0173913 76.9988889,60.0173913 C60.4783333,60.0173913 47.0872222,46.8608696 47.0872222,30.673913 C47.0872222,14.4130435 60.4783333,1.25652174 76.9988889,1.25652174 Z M77.0716667,12.2695652 C87.4788889,12.2695652 93.01,20.473913 93.01,30.6 C93.01,40.726087 87.77,48.7086957 77.0716667,48.9304348 C66.3733333,49.226087 60.9877778,40.726087 60.9877778,30.6 C60.9877778,20.5478261 66.6644444,12.2695652 77.0716667,12.2695652 Z" id="Shape"></path>
                <path d="M231.433333,0 C247.953889,0 261.345,13.1565217 261.345,29.3434783 C261.345,45.6043478 247.953889,58.6869565 231.433333,58.6869565 C214.912778,58.6869565 201.521667,45.5304348 201.521667,29.3434783 C201.521667,13.1565217 214.912778,0 231.433333,0 Z M231.506111,11.0130435 C241.913333,11.0130435 247.444444,19.2173913 247.444444,29.3434783 C247.444444,39.4695652 242.204444,47.4521739 231.506111,47.673913 C220.807778,47.9695652 215.422222,39.4695652 215.422222,29.3434783 C215.422222,19.2173913 221.098889,11.0130435 231.506111,11.0130435 Z" id="Shape"></path>
                <path d="M110.403889,1.55217391 L138.132222,1.84782609 C146.428889,1.92173913 153.197222,7.9826087 153.633889,17.5173913 C153.925,24.2434783 151.596111,30.7478261 144.682222,34.2217391 L144.755,34.2956522 L162.731111,57.2086957 L144.900556,57.0608696 L130.345,36.7347826 L124.231667,36.8086957 L124.086111,57.0608696 L110.622222,57.0608696 L110.403889,1.55217391 Z M124.304444,12.0478261 L124.304444,27.4956522 C126.560556,27.6434783 132.382778,27.5695652 134.202222,27.5695652 C143.226667,27.4956522 143.517778,12.2695652 134.638889,11.973913 L124.304444,11.973913 L124.304444,12.0478261 Z" id="Shape"></path>
                <polygon id="Shape" points="155.962778 1.62608696 203.850556 1.62608696 203.850556 13.526087 186.820556 13.526087 186.820556 57.1347826 173.065556 57.1347826 173.065556 13.526087 155.962778 13.526087"></polygon>
                <path d="M233.398333,68.6652174 C247.298889,68.6652174 258.579444,79.7521739 258.579444,93.426087 C258.579444,107.1 247.298889,118.186957 233.398333,118.186957 C219.497778,118.186957 208.217222,107.1 208.217222,93.426087 C208.217222,79.7521739 219.497778,68.6652174 233.398333,68.6652174 Z M233.471111,77.9782609 C242.277222,77.9782609 246.862222,84.926087 246.862222,93.426087 C246.862222,101.926087 242.422778,108.652174 233.471111,108.873913 C224.446667,109.095652 219.934444,101.926087 219.934444,93.426087 C219.934444,84.8521739 224.737778,77.9782609 233.471111,77.9782609 Z" id="Shape"></path>
                <path d="M168.043889,68.9608696 L192.424444,69.1826087 C199.702222,69.2565217 205.67,74.5043478 206.033889,82.9304348 C206.325,88.8434783 204.214444,94.6086957 198.173889,97.6391304 L198.246667,97.6391304 L214.039444,117.743478 L198.392222,117.595652 L185.583333,99.7826087 L180.197778,99.8565217 L180.052222,117.669565 L168.189444,117.669565 L168.043889,68.9608696 Z M180.197778,78.2 L180.197778,91.8 C182.162778,91.9478261 187.33,91.873913 188.931111,91.873913 C196.863889,91.8 197.082222,78.4217391 189.295,78.2 L180.197778,78.2 Z" id="Shape"></path>
                <path d="M31.3672222,82.0434783 L35.8066667,72.6565217 C35.8066667,72.6565217 24.8172222,66.373913 13.9733333,69.3304348 C3.12944444,72.2869565 -1.01888889,86.8478261 8.15111111,93.2782609 C17.3211111,99.7086957 24.6716667,98.3043478 24.0894444,103.921739 C23.2888889,111.978261 9.825,106.730435 3.78444444,103.995652 L0.291111111,113.752174 C0.291111111,113.752174 5.74944444,117.226087 15.7927778,118.26087 C25.8361111,119.221739 35.4427778,113.678261 35.8066667,103.7 C36.3888889,86.9956522 10.8438889,90.6173913 15.5016667,80.9347826 C17.6122222,76.6478261 25.3994444,79.0869565 31.3672222,82.0434783 Z" id="Shape"></path>
                <polygon id="Shape" points="71.2494444 70.1434783 71.2494444 80.3434783 52.4727778 80.3434783 52.4727778 87.8086957 69.5755556 87.8086957 69.5755556 98.0826087 52.4727778 98.0826087 52.4727778 106.434783 72.6322222 106.434783 72.6322222 116.634783 40.4644444 116.708696 40.4644444 70.1434783"></polygon>
                <path d="M111.932222,81.7478261 C96.2122222,75.0956522 86.1688889,83.7434783 85.2227778,92.7608696 C84.2766667,101.26087 91.4088889,110.056522 106.401111,106.952174 L106.328333,90.5434783 L118.045556,90.5434783 L117.972778,112.643478 C98.6866667,124.986957 73.2144444,113.973913 73.7966667,93.7956522 C74.67,66.5217391 104.508889,65.6347826 116.226111,72.5086957 L111.932222,81.7478261 Z" id="Shape"></path>
                <path d="M133.474444,69.1086957 L121.757222,68.9608696 L121.757222,97.7869565 C121.538889,111.313043 132.382778,117.891304 143.226667,117.817391 C154.143333,117.817391 165.06,111.165217 164.841667,97.7869565 L164.841667,68.9608696 L153.124444,69.1086957 L153.051667,97.1956522 C153.197222,104.069565 149.703889,107.247826 143.299444,107.247826 C136.895,107.247826 133.328889,104.069565 133.547222,97.1956522 L133.474444,69.1086957 Z" id="Shape"></path>
            </g>
            <g id="Group" transform="translate(281.000000, 0.000000)">
                <path d="M5.5505618,0.44137931 L124.668539,0.44137931 C127.370787,0.44137931 129.561798,2.64827586 129.561798,5.37011494 L129.561798,122.703448 C129.561798,125.425287 127.370787,127.632184 124.668539,127.632184 L5.5505618,127.632184 C2.84831461,127.632184 0.657303371,125.425287 0.657303371,122.703448 L0.657303371,5.37011494 C0.657303371,2.64827586 2.92134831,0.44137931 5.5505618,0.44137931 Z" id="Shape" fill="#00ABE2"></path>
                <path d="M7.81460674,8.68045977 C12.3426966,8.45977011 67.0449438,6.47356322 98.4494382,37.6643678 C98.4494382,37.6643678 73.5449438,18.8321839 17.3089888,27.1448276 C14.5337079,19.7885057 11.247191,13.6827586 7.81460674,8.68045977 Z" id="Shape" fill="#FFFFFF"></path>
                <path d="M113.05618,58.3356322 C96.0393258,38.9885057 41.0449438,48.4781609 24.1011236,53.1862069 C23.005618,46.491954 21.6179775,40.3862069 19.9382022,34.7954023 C32.1348315,32.8827586 102.174157,23.6873563 113.05618,58.3356322 Z" id="Shape" fill="#FFFFFF"></path>
                <path d="M25.1966292,61.9402299 C38.5617978,58.262069 113.932584,38.9885057 121.455056,75.2551724 C97.7191011,59.2183908 40.9719101,77.1678161 26,82.7586207 C26.1460674,78.1977011 26.0730337,73.3425287 25.7078652,68.1195402 C25.6348315,65.9862069 25.4157303,63.9264368 25.1966292,61.9402299 Z" id="Shape" fill="#FFFFFF"></path>
                <path d="M25.3426966,92.8367816 C57.4775281,79.3747126 157.606742,54.1425287 113.786517,110.124138 C123.207865,92.4689655 117.803371,90.1885057 104.949438,90.8505747 C80.4101124,92.1747126 29.7977528,113.875862 17.3089888,120.055172 C21.0337079,113.14023 23.9550562,104.165517 25.3426966,92.8367816 Z" id="Shape" fill="#FFFFFF"></path>
            </g>
        </g>
    </g>
</svg>