<?xml version="1.0" encoding="UTF-8"?>
<svg width="600px" height="250px" viewBox="0 0 600 250" version="1.1" xmlns="http://www.w3.org/2000/svg" xmlns:xlink="http://www.w3.org/1999/xlink">
    <!-- Generator: Sketch 50.1 (55044) - http://www.bohemiancoding.com/sketch -->
    <title>QGEP</title>
    <desc>Created with Sketch.</desc>
    <defs></defs>
    <g id="QGEP" stroke="none" stroke-width="1" fill="none" fill-rule="evenodd">
        <g id="Grid-Logo" opacity="0.400000006"></g>
        <g id="QGEP3" transform="translate(45.000000, 61.000000)" fill-rule="nonzero">
            <path d="M0,130 L53.68561,129.99936 C53.68561,129.99936 98.969024,130.43883 125.325386,108.289534 C127.890267,106.092184 136.64624,98.709085 144.517771,77.5266237 L162.825713,18.6376234 C162.825713,18.1102592 166.275036,6.15667113 142.483555,1.49828752 C135.142689,0.0919830395 123.468059,-0.523275172 108.609438,0.531453191 C95.8734782,1.49828752 83.7566271,2.81669798 81.4570788,3.1682741 C67.3060119,5.36562486 55.277605,8.17823382 53.5971658,8.79349204 C50.2362875,10.0240085 25.9141412,15.0339682 10.0826352,28.2180727 C4.33376423,33.0522444 -2.03421587,40.0837668 1.32666252,49.31264 C1.76888336,50.4552624 3.18399005,55.5531161 8.75597264,58.8051953 C12.5590719,61.002546 18.1310544,61.7935923 21.4919328,62.1451684 C23.172372,62.3209565 26.1794737,62.3209565 26.1794737,62.3209565 L51.1207291,62.3209565 L62.618471,53.9710236 L36.0852206,53.9710236 C36.0852206,53.9710236 34.1394489,53.8831296 33.697228,53.8831296 C15.2123969,51.7736728 10.8786327,35.7769593 27.3292479,24.7902055 C38.1194364,17.5828951 48.2905158,13.5397697 65.0949077,9.76032637 C65.0949077,9.76032637 83.9335155,4.83826067 113.208535,3.51985022 C113.208535,3.51985022 123.114282,3.08038007 131.516478,3.69563828 C139.476453,4.31089649 143.367996,5.71720098 145.755989,6.9477174 C155.307959,11.9576771 149.647532,21.2744443 149.559088,21.5381264 C149.559088,21.5381264 123.025838,74.8019088 113.7392,85.7007685 C108.786327,91.5017745 104.098786,97.7422507 92.6010439,102.927998 C81.1917463,107.937958 72.5242178,108.992687 49.5287341,110.311097 L0,110.311097 L0,130 Z" id="Shape" fill="#F58220"></path>
            <path d="M0,102 L44.0491169,101.912285 C54.5960886,101.736854 66.7384005,100.859701 74.4492117,98.579102 C82.1600229,96.2985033 92.0865844,93.8424739 106.533277,75.246823 C113.357788,66.3875742 143.403362,21.6527537 143.403362,21.6527537 C143.403362,21.6527537 148.721163,15.0741036 139.946792,10.6006216 C139.946792,10.6006216 135.869811,7.96916154 127.98174,7.44286953 C127.98174,7.44286953 117.257508,6.39028552 104.406156,7.53058487 C104.406156,7.53058487 87.5664537,8.14459221 67.9792207,12.9689356 C66.4725104,13.4075123 51.8485581,16.740695 42.4537767,22.266761 C28.8933845,31.1260098 27.8298244,40.4238353 35.0088555,44.9850327 C38.110906,47.3533467 44.758157,49.019938 53.6211584,49.3707994 L69.8404509,49.3707994 L78.7920824,42.8798646 L63.4590899,42.8798646 C63.4590899,42.8798646 56.8118389,42.8798646 51.6712981,41.0378426 C48.8351377,40.0729739 46.2648673,37.8800906 44.935417,35.0731999 C43.6059668,32.1785938 45.6444572,29.1085571 47.1511674,27.3542504 C47.8602075,26.5648124 50.784998,23.9333524 53.2666384,22.6176224 C57.520879,20.2493084 64.3453901,17.1792717 73.1197615,15.0741036 C79.0579724,13.6706583 86.7687836,12.2672129 94.3023348,11.5654902 C105.558347,10.5129062 116.193948,10.7760522 118.232439,11.0391982 C120.270929,11.2146289 125.05695,11.4777749 128.86804,13.6706583 C128.86804,13.6706583 136.490221,17.1792717 130.46338,23.3193451 C130.46338,23.3193451 88.8072739,70.3347643 81.1850927,75.8608304 C81.1850927,75.8608304 74.1833216,83.7552104 61.6864897,85.8603785 C61.6864897,85.8603785 53.0893783,88.0532618 40.7698064,88.0532618 C39.7948762,88.0532618 0.265890042,88.2286925 0.265890042,88.2286925 L0,102 Z" id="Shape" fill="#F58220"></path>
            <path d="M1,79.993753 L45.8119806,79.993753 C53.9516568,79.993753 65.4172221,80.6989815 78.8083023,67.1233331 L121.869815,23.2228598 C122.482479,22.6057849 127.033695,15.5535 112.154718,14.4956573 C112.154718,14.4956573 102.614667,13.1733538 89.3111102,14.8482715 C81.0839106,15.8179607 73.0317579,17.6691854 69.5308219,18.9033353 C69.5308219,18.9033353 55.4395546,22.5176313 53.6015632,29.1291484 C53.6015632,29.1291484 50.8883378,36.622201 62.0913329,38.1208116 C62.0913329,38.1208116 64.0168477,38.2971187 66.2049327,38.2971187 C66.8175965,38.2971187 67.4302603,38.3852723 68.0429241,38.2971187 L84.234753,38.2971187 L91.0615782,33.4486728 L73.0317579,33.4486728 C73.0317579,33.4486728 67.7803539,33.62498 66.2924561,30.3632982 C66.2924561,30.3632982 64.8920817,27.4542307 70.0559623,24.1043954 C70.0559623,24.1043954 76.6202173,18.6388746 96.2254588,17.9336461 C96.2254588,17.9336461 103.139807,17.757339 107.165884,18.6388746 C111.279484,19.4322567 112.329764,22.4294777 108.741305,24.8096239 L53.6890866,68.2693294 L1,68.2693294 L1,79.993753 Z" id="Shape" fill="#F58220"></path>
            <path d="M469.676533,49.013468 C468.705533,52.1649832 467.293168,56.979798 463.320894,56.979798 C462.614711,56.979798 462.173347,56.8047138 461.908529,56.4545455 C461.731984,56.1919192 461.643711,55.7542088 461.643711,55.3164983 C461.643711,54.5286195 461.908529,53.6531987 462.173347,52.8653199 C463.585712,48.4006734 465.969077,48.4006734 469.411715,48.2255892 C469.411715,48.2255892 469.676533,48.2255892 469.941352,48.2255892 C469.853079,48.6632997 469.676533,49.013468 469.676533,49.013468 Z M471.706807,32.5555556 C468.352442,32.5555556 465.615986,33.1683502 463.497439,34.3939394 C461.467165,35.5319865 459.878255,37.3703704 458.818982,39.9090909 L458.642436,40.3468013 L467.02835,40.3468013 L467.116623,40.1717172 C467.911078,38.3333333 468.970351,37.5454545 470.647534,37.5454545 C471.618535,37.5454545 472.236444,37.7205387 472.501262,38.1582492 C472.677808,38.4208754 472.766081,38.6835017 472.766081,39.03367 C472.766081,39.6464646 472.589535,40.4343434 472.236444,41.3097643 C472.236444,41.3097643 471.706807,42.7979798 471.618535,43.3232323 C463.938803,43.2356902 456.788708,43.9360269 453.787434,53.1279461 C452.72816,56.3670034 452.72816,58.993266 453.963979,60.5690236 C454.93498,61.7946128 456.52389,62.4949495 458.730709,62.4949495 C461.908529,62.4949495 464.644985,61.1818182 467.204896,58.6430976 C466.940077,59.6060606 466.410441,61.969697 466.410441,61.969697 L474.354991,61.969697 L474.619809,60.7441077 L475.679082,56.5420875 L480.269267,42.4478114 C481.063722,39.996633 481.681631,37.1952862 480.269267,35.2693603 C478.945175,33.4309764 476.208719,32.5555556 471.706807,32.5555556 Z M399.32313,49.013468 C398.352129,52.1649832 396.939765,56.979798 392.96749,56.979798 C392.261308,56.979798 391.819944,56.8047138 391.555125,56.4545455 C391.37858,56.1919192 391.290307,55.7542088 391.290307,55.3164983 C391.290307,54.4410774 391.643398,53.3030303 391.819944,52.8653199 C393.232308,48.4006734 395.615673,48.4006734 399.058311,48.2255892 C399.058311,48.2255892 399.32313,48.2255892 399.587948,48.2255892 C399.411403,48.6632997 399.32313,49.013468 399.32313,49.013468 Z M409.82759,35.1818182 C408.503499,33.4309764 405.767043,32.5555556 401.265131,32.5555556 C397.910765,32.5555556 395.174309,33.1683502 393.055763,34.3939394 C391.025489,35.5319865 389.436579,37.3703704 388.377305,39.9090909 L388.20076,40.3468013 L396.586674,40.3468013 L396.674946,40.1717172 C397.469401,38.3333333 398.528675,37.5454545 400.205858,37.5454545 C401.176858,37.5454545 401.794768,37.7205387 402.059586,38.1582492 C402.236131,38.4208754 402.324404,38.6835017 402.324404,39.03367 C402.324404,39.6464646 402.147859,40.4343434 401.794768,41.3097643 C401.794768,41.3097643 401.265131,42.7979798 401.176858,43.3232323 C393.497126,43.2356902 386.347031,43.9360269 383.345757,53.1279461 C382.286484,56.3670034 382.286484,58.993266 383.522303,60.5690236 C384.493303,61.7946128 386.082213,62.4949495 388.289033,62.4949495 C391.466853,62.4949495 394.203309,61.1818182 396.763219,58.6430976 C396.498401,59.6060606 395.968764,61.969697 395.968764,61.969697 L403.913314,61.969697 L404.178133,60.7441077 L405.237406,56.5420875 L409.82759,42.4478114 C410.622045,39.9090909 411.239955,37.1077441 409.82759,35.1818182 Z M245.81677,44.023569 C245.81677,44.023569 245.81677,44.1111111 245.81677,44.023569 L239.196311,44.023569 C239.990766,41.6599327 241.314858,37.983165 244.580951,37.983165 C245.463678,37.983165 246.081588,38.2457912 246.434679,38.6835017 C246.699497,39.03367 246.78777,39.4713805 246.78777,39.996633 C246.699497,41.2222222 246.169861,42.7979798 245.81677,44.023569 Z M253.937865,35.3569024 C252.613773,33.4309764 250.053863,32.5555556 246.081588,32.5555556 C235.224036,32.5555556 231.957944,39.7340067 229.574579,47.0875421 C227.72085,52.7777778 226.838122,57.1548822 228.780124,59.7811448 C230.104215,61.6195286 232.664126,62.4949495 236.459855,62.4949495 C240.079039,62.4949495 243.345132,61.5319865 245.905042,59.6936027 C248.023589,58.2053872 249.700772,56.1043771 250.936591,53.4781145 L251.113136,53.040404 L242.462404,53.040404 L242.374131,53.2154882 C241.314858,55.5791246 239.902494,56.8047138 238.137038,56.8047138 C237.430856,56.8047138 236.989492,56.6296296 236.724674,56.1919192 C236.459855,55.7542088 236.28331,55.2289562 236.28331,54.5286195 C236.28331,52.8653199 236.989492,50.5016835 237.519129,49.013468 L252.702046,49.013468 L252.790319,48.8383838 C254.114411,45.0740741 255.085411,41.8350168 255.085411,39.2962963 C254.997138,37.8080808 254.73232,36.4074074 253.937865,35.3569024 Z M371.164114,47.3501684 C369.222113,53.3905724 367.898021,56.1043771 365.249838,56.1043771 C364.543655,56.1043771 364.014019,55.9292929 363.7492,55.4915825 C362.7782,54.1784512 363.837473,51.2020202 364.543655,49.1885522 L364.808474,48.4882155 C367.633203,39.8215488 368.780749,37.983165 371.517205,37.983165 C372.135114,37.983165 372.576478,38.1582492 372.753024,38.5084175 C373.547479,39.7340067 372.488205,43.2356902 371.164114,47.3501684 Z M376.195662,33.1683502 C376.195662,33.1683502 375.577753,35.0942761 375.312934,35.969697 C374.783298,33.8686869 372.929569,32.6430976 370.10484,32.6430976 C361.542381,32.6430976 358.805925,40.8720539 356.863924,46.9124579 L356.599105,47.7003367 C355.186741,51.989899 353.597831,56.8922559 355.539832,59.6060606 C356.510833,60.9191919 358.276288,61.6195286 360.836199,61.6195286 C363.307837,61.6195286 365.691202,60.5690236 367.456657,58.9057239 C367.015293,60.2188552 365.95602,63.3703704 365.95602,63.3703704 C365.161565,65.8215488 363.837473,67.047138 361.807199,67.047138 L360.836199,67.1346801 L358.717652,67.2222222 L357.217015,67.3973064 L357.217015,67.5723906 L355.451559,73 L360.394835,73 C367.721475,73 372.488205,69.6734007 374.606752,63.1952862 C374.606752,63.1077441 384.316758,33.4309764 384.316758,33.4309764 L376.195662,33.4309764 L376.195662,33.1683502 Z M481.240267,25.3771044 L472.41299,25.3771044 C467.469714,25.3771044 466.145622,29.9292929 466.145622,29.9292929 L466.05735,30.2794613 L479.033448,30.2794613 C479.033448,30.2794613 481.240267,25.7272727 481.240267,25.7272727 L481.240267,25.3771044 Z M499.954096,46.6498316 C497.041095,55.4915825 495.805276,56.8922559 493.157092,56.8922559 C492.274365,56.8922559 491.744728,56.7171717 491.47991,56.3670034 C490.685455,55.2289562 491.568182,51.9023569 493.157092,46.8249158 C495.099093,40.8720539 496.334912,38.1582492 499.42446,38.1582492 C500.307187,38.1582492 500.836824,38.3333333 501.189915,38.7710438 C502.072643,39.9090909 501.189915,42.8855219 499.954096,46.6498316 Z M508.869647,35.2693603 C507.545555,33.4309764 504.985645,32.5555556 501.101642,32.5555556 C490.244091,32.5555556 486.977998,39.7340067 484.594633,47.0875421 C482.740905,52.7777778 481.858177,57.1548822 483.800178,59.7811448 C485.12427,61.6195286 487.68418,62.4949495 491.47991,62.4949495 C502.425734,62.4949495 505.603554,55.3164983 508.251737,47.2626263 C510.017193,41.9225589 510.811648,37.8956229 508.869647,35.2693603 Z M449.197249,33.1683502 C449.197249,33.1683502 439.752062,51.1144781 438.692789,53.3030303 C439.04588,50.9393939 441.429245,33.1683502 441.429245,33.1683502 L432.778512,33.1683502 L431.10133,61.969697 L440.281699,61.969697 L457.671436,33.1683502 L449.197249,33.1683502 Z M432.160603,21 L424.480871,21 L410.710318,61.8821549 L419.272778,61.8821549 L432.601967,21 L432.160603,21 Z M326.144997,33.1683502 L324.291269,38.7710438 L334.795729,38.7710438 C333.913002,39.7340067 318.376993,55.8417508 318.376993,55.8417508 C318.28872,55.9292929 316.523264,61.5319865 316.523264,61.5319865 L316.434992,61.8821549 L336.384639,61.8821549 L338.238368,56.2794613 L327.027725,56.2794613 C327.910453,55.3164983 343.623007,39.1212121 343.623007,39.1212121 L345.565008,33.0808081 L326.144997,33.0808081 L326.144997,33.1683502 Z M309.108351,46.6498316 C306.195349,55.4915825 304.959531,56.8922559 302.311347,56.8922559 C301.428619,56.8922559 300.898983,56.7171717 300.634164,56.3670034 C299.839709,55.2289562 300.722437,51.9023569 302.311347,46.8249158 C304.253348,40.8720539 305.489167,38.1582492 308.578714,38.1582492 C309.461442,38.1582492 309.991079,38.3333333 310.34417,38.7710438 C311.226898,39.9090909 310.34417,42.8855219 309.108351,46.6498316 Z M318.023902,35.2693603 C316.69981,33.4309764 314.139899,32.5555556 310.255897,32.5555556 C299.398346,32.5555556 296.132253,39.7340067 293.748888,47.0875421 C291.895159,52.7777778 291.012432,57.1548822 292.954433,59.7811448 C294.278524,61.6195286 296.838435,62.4949495 300.634164,62.4949495 C311.579989,62.4949495 314.757809,55.3164983 317.405992,47.2626263 C319.171448,41.9225589 319.965903,37.8956229 318.023902,35.2693603 Z M292.954433,40.1717172 L295.426071,32.5555556 L295.072979,32.5555556 C291.630341,32.5555556 288.982158,33.6936027 286.863611,36.0572391 C287.216702,35.006734 287.834612,33.0808081 287.834612,33.0808081 L279.713516,33.0808081 L270.268329,61.8821549 L278.830788,61.8821549 L283.95061,46.2996633 C284.833337,43.6734007 286.069156,39.6464646 292.777887,40.1717172 L292.954433,40.1717172 Z M276.623969,21 L268.06151,21 L265.85469,27.7407407 L274.41715,27.7407407 L276.623969,21 Z M264.177507,33.1683502 L254.73232,61.969697 L263.29478,61.969697 L272.651694,33.1683502 L264.177507,33.1683502 Z M219.952846,33.1683502 L213.508933,52.8653199 C212.714478,55.4040404 211.655205,56.979798 209.360112,56.979798 C208.565657,56.979798 208.036021,56.8047138 207.771202,56.4545455 C207.241566,55.7542088 207.594657,54.2659933 208.036021,53.040404 L214.568206,33.0808081 L206.005747,33.0808081 L198.590834,55.9292929 C198.061197,57.6801347 198.14947,59.2558923 199.032198,60.3939394 C200.003198,61.7070707 201.768654,62.4074074 203.975473,62.4074074 C206.888475,62.4074074 209.183567,61.4444444 211.302114,59.5185185 C211.037295,60.3939394 210.507659,61.8821549 210.507659,61.8821549 L219.334936,61.8821549 L219.423209,61.6195286 C219.952846,59.5185185 220.39421,57.7676768 220.923846,56.1043771 L228.427032,33.0808081 L219.952846,33.0808081 L219.952846,33.1683502 Z M186.850554,46.9124579 L186.762281,47.1750842 C184.555462,54.003367 183.143098,56.979798 180.583187,56.979798 C179.877005,56.979798 179.435641,56.8047138 179.259095,56.4545455 C178.46464,55.3164983 179.259095,52.0774411 180.848005,47.3501684 L180.936278,47.0875421 C182.701734,41.5723906 183.937553,37.983165 187.0271,37.983165 C187.733282,37.983165 188.174646,38.1582492 188.439464,38.5084175 C189.145646,39.7340067 188.086373,42.8855219 186.850554,46.9124579 Z M191.705557,33.1683502 C191.705557,33.1683502 191.087648,35.0942761 190.822829,35.8821549 C190.116647,33.6936027 188.439464,32.6430976 185.261644,32.6430976 C177.052276,32.6430976 174.227547,41.3973064 172.373819,47.1750842 L172.020728,48.1380471 C170.696636,52.2525253 168.842908,57.8552189 170.961454,60.6565657 C171.844182,61.8821549 173.344819,62.4949495 175.551639,62.4949495 C178.376368,62.4949495 180.494914,61.6195286 182.701734,59.6936027 C182.26037,61.1818182 178.729459,72.9124579 178.729459,72.9124579 L187.556736,72.9124579 L199.914925,33.1683502 L191.705557,33.1683502 Z" id="Shape" fill="#000000"></path>
        </g>
    </g>
</svg>