<?xml version="1.0" encoding="UTF-8"?>
<svg width="600px" height="250px" viewBox="0 0 600 250" version="1.1" xmlns="http://www.w3.org/2000/svg" xmlns:xlink="http://www.w3.org/1999/xlink">
    <!-- Generator: Sketch 50.1 (55044) - http://www.bohemiancoding.com/sketch -->
    <title>QUAL</title>
    <desc>Created with Sketch.</desc>
    <defs>
        <polygon id="path-1" points="0.23165 0.437956579 43.509 0.437956579 43.509 61.2464961 0.23165 61.2464961"></polygon>
    </defs>
    <g id="QUAL" stroke="none" stroke-width="1" fill="none" fill-rule="evenodd">
        <g id="Grid-Logo" opacity="0.400000006" transform="translate(-4.000000, 0.000000)"></g>
        <g transform="translate(24.000000, 50.000000)">
            <path d="M78.5215446,34.9464587 C67.4432978,34.9464587 58.0800033,38.8095006 50.3067022,46.5355845 C42.5247832,54.2275576 38.6381326,63.5440549 38.6381326,74.446702 C38.6381326,85.349349 42.5247832,94.6701102 50.3497914,102.353556 C58.1704907,110.083903 67.5337853,113.946945 78.5215446,113.946945 C89.6471896,113.946945 99.0535734,110.126542 106.783785,102.438832 C114.518306,94.755387 118.361867,85.4388897 118.361867,74.446702 C118.361867,63.4587781 114.518306,54.1380169 106.783785,46.4503076 C99.0535734,38.7668622 89.6471896,34.9464587 78.5215446,34.9464587 M79.82284,0 C100.975354,0 119.141783,7.31249106 134.274728,21.9289455 C149.411983,36.5496638 157,54.0783231 157,74.446702 C157,95.1689798 149.373202,112.770124 134.128225,127.279983 C118.878938,141.759994 100.303162,149 78.5172357,149 C56.8045614,149 38.3020364,141.725884 22.9838072,127.173387 C7.65696015,112.591043 0,95.028273 0,74.446702 C0,53.6519388 7.7345208,36.0507941 23.169091,21.6091572 C38.6036612,7.20589498 57.4767538,0 79.82284,0" id="Fill-1" fill="#00406F"></path>
            <path d="M99.534643,79.4050979 L114.555869,96.551863 C115.213859,97.3081495 115.13161,98.4447155 114.369727,99.0941818 C114.066705,99.3505501 113.707407,99.4958254 113.339452,99.5257351 L111.36981,99.7735577 C100.231593,101.187856 95.1884441,101.828777 86.94625,101.999689 C86.2449709,102.012507 85.6259406,101.627955 85.3099321,101.059672 L80.5654758,95.9237607 L80.5611469,95.9237607 L61.5313754,77.0806922 C60.8214385,76.3756794 60.8214385,75.2348405 61.5400331,74.5341006 C61.916646,74.1666394 62.4144676,73.9914544 62.9036314,74.0128184 C66.9727818,74.0128184 70.4229019,74.0085456 73.8080888,74.0085456 C77.9984479,74.0085456 82.0935717,74.0042728 87.1410498,74 C90.0067706,74 92.1582257,74.2905507 94.1018943,75.1280204 C96.0628785,75.969763 97.7035253,77.3114236 99.534643,79.4050979" id="Fill-3" fill="#00406F"></path>
            <path d="M98.0872668,81.7025145 L113,98.5710047 C100.563408,100.1301 95.4907575,100.819296 86.9188376,101 C86.8844467,100.932761 86.8500559,100.865523 86.815665,100.806689 L81.9579572,95.5998979 L63,77.0126204 C72.0920815,77.0084179 78.0588943,77.0042155 87.1509758,77.0000131 C92.3396956,76.9958107 94.8115381,78.0001877 98.0872668,81.7025145" id="Fill-5" fill="#FEFEFE"></path>
            <path d="M97.8698846,81.7755898 L112.690226,98.9062099 C111.100959,99.5847771 111.118048,101.65462 111.912682,103.045896 C114.851971,108.197032 116.52241,107.67637 120,110.207127 L118.103133,134.294128 C117.842527,134.900144 117.646005,135.301309 117.338405,135.557372 C117.111977,135.740884 116.838555,135.873183 116.471144,135.911593 C114.843427,136.065231 113.044821,136.04816 112.476615,135.621388 C111.395743,134.938553 111.438465,133.534474 111.314571,130.632426 C111.233398,128.635134 110.895893,129.723402 110.716459,130.51293 C110.229426,132.616915 109.400615,135.548837 108.742692,135.689672 C107.725903,135.821971 105.764953,135.668333 105.047219,135.557372 C104.158597,135.254364 103.697197,131.942615 103.440863,129.787418 C103.210163,127.83707 103.026458,128.758898 102.782941,129.813024 C102.270274,132.053576 101.385924,134.729435 100.830535,134.87027 C99.3993404,135.156207 97.7758957,135.186081 96.1225453,134.524585 C95.6013341,134.362411 95.579973,131.101875 95.387723,129.002157 C95.2552841,127.529795 94.9989507,128.32359 94.7981562,129.074709 C94.3367561,130.820205 93.6104782,133.368033 92.8457503,133.833214 C91.9913057,134.362411 88.0565882,134.136222 87.7831659,132.330977 C87.6336381,130.879953 87.7190826,129.697795 87.7788937,128.980819 C88.9067606,120.897761 87.3473992,109.502954 86.7706491,101.372951 C86.7364713,101.304667 86.7022935,101.236384 86.6681157,101.176636 L81.8405037,95.8889333 L63,77.0128165 C72.0357518,77.0085488 77.9655974,77.004281 87.0013491,77.0000133 C92.1579224,76.9957456 94.6144506,78.0157302 97.8698846,81.7755898" id="Fill-7" fill="#FEFEFE"></path>
            <path d="M86.1054699,109.833823 L86.1054699,109.8382 L86.1054699,109.833823 Z M84.1237697,108.336789 C83.7085971,107.780874 83.4988708,107.089262 83.5288317,106.454555 L83.5331118,106.428291 L83.7085971,102.458089 L83.7085971,102.444958 L83.7085971,102.436203 C83.7214375,102.239225 83.7556786,102.046624 83.8070401,101.862778 C83.8584017,101.670177 83.9311639,101.499463 84.0124864,101.34188 C84.4576199,100.510195 85.3436068,99.9586569 86.3280367,100.00243 L86.3323168,100.006807 L86.3323168,100.00243 L89.8463035,100.168767 L92.6583489,100.304463 L92.6711892,100.304463 L92.6797495,100.304463 C92.8809156,100.317595 93.0649612,100.343858 93.2361664,100.396386 C93.4116517,100.444536 93.5828569,100.51895 93.749782,100.61525 C94.5630067,101.070489 95.1023031,101.976588 95.0552216,102.983364 L94.8754562,106.988584 C94.8626158,107.33439 94.7770132,107.627669 94.640049,107.881551 C95.4661141,108.31928 96.0482118,109.010892 95.9968502,110.179628 L95.8128046,114.276772 C95.7828437,114.981515 95.5474366,115.50679 95.1836255,115.891992 C95.6159186,116.268438 95.8812867,116.780581 95.8470457,117.472193 L95.6672802,121.473036 L95.6672802,121.477413 C95.6587199,121.713787 95.6159186,121.941406 95.5431564,122.16027 C95.4703942,122.379135 95.3762314,122.584868 95.2606679,122.759959 C95.1451044,122.939428 94.9995799,123.105765 94.8412151,123.254593 C94.704251,123.381534 94.5544464,123.490967 94.3960816,123.578512 C94.4945246,123.880545 94.5458862,124.200087 94.5330458,124.532761 L94.3490002,128.542359 L94.3490002,128.555491 L94.3490002,128.564245 C94.3404399,128.761223 94.3061989,128.949447 94.2548373,129.13767 C94.1991956,129.321516 94.1307136,129.500985 94.0493911,129.658568 C93.5999774,130.485875 92.7225508,131.037414 91.7338408,130.998018 L91.7252805,130.998018 L89.8249028,130.901718 L89.8120624,130.901718 L85.3992485,130.691608 L85.3949683,130.691608 L85.3864081,130.691608 L85.3821279,130.691608 C85.1809618,130.682854 84.9969162,130.647835 84.8214309,130.599685 C84.6545058,130.547158 84.4833007,130.472744 84.3163756,130.380821 C83.4988708,129.925582 82.9595744,129.028238 83.0023757,128.017084 L83.0023757,128.00833 L83.1821411,124.003109 L83.1864213,123.989978 L83.1821411,123.989978 L83.1864213,123.9856 C83.1949815,123.797377 83.2292226,123.604776 83.276304,123.42093 C83.3319457,123.228329 83.3918675,123.04886 83.4689099,122.895655 C83.5373919,122.751205 83.6187144,122.615509 83.7128773,122.48419 C83.4261086,121.993933 83.2677437,121.420508 83.2891444,120.890856 L83.2891444,120.886479 L83.4689099,116.876882 L83.4689099,116.872504 C83.4689099,116.837486 83.47319,116.802468 83.4774701,116.74994 C83.4945906,116.561717 83.5331118,116.373493 83.5930336,116.194025 C83.6529554,116.001424 83.7342779,115.830709 83.8198805,115.681882 C83.8669619,115.60309 83.9183235,115.524299 83.9739652,115.449885 C83.670076,114.907101 83.4988708,114.272394 83.5202714,113.74712 L83.704317,109.733145 C83.7085971,109.654354 83.704317,109.667486 83.704317,109.645599 C83.7085971,109.62809 83.7085971,109.614958 83.7128773,109.597449 C83.7257176,109.435489 83.7599587,109.269152 83.8070401,109.102815 C83.8498414,108.936478 83.9097632,108.765764 83.9868056,108.603804 C84.0296069,108.511881 84.0724082,108.424335 84.1237697,108.336789 Z M86.2595546,106.988584 L86.2638347,106.988584 C86.8758933,107.049866 87.3509877,107.579518 87.3467076,108.22298 C87.3424275,108.90146 86.798851,109.444244 86.1354308,109.439866 C86.0583885,109.439866 86.2124731,109.536167 86.1653917,109.645599 C86.1482712,109.680617 86.1354308,109.715636 86.1225904,109.755031 C86.1183103,109.776918 86.1140302,109.798804 86.10975,109.816313 L86.10975,109.8382 C86.1054699,109.868841 86.1054699,109.851332 86.1054699,109.8382 L86.1054699,109.842577 L85.9257044,113.852175 C85.9171442,114.036021 86.0327077,114.285526 86.2039129,114.438731 C86.7945708,114.517523 87.2482646,115.029665 87.2439845,115.659995 C87.2439845,116.338475 86.700408,116.885636 86.0369878,116.881259 C85.9685057,116.881259 85.9085839,116.907523 85.8829031,116.951296 C85.8743429,116.968805 85.878623,116.955673 85.8743429,116.964428 C85.8743429,116.964428 85.8743429,116.968805 85.8700628,116.977559 L85.8700628,116.981937 L85.8700628,116.986314 L85.6902973,120.991534 C85.6860172,121.118475 85.7544992,121.262926 85.8615025,121.363604 C85.8700628,121.367981 85.8829031,121.376736 85.8914634,121.38549 C86.5120822,121.451149 86.9871767,122.007065 86.9614959,122.650527 C86.9400952,123.333384 86.3836783,123.863036 85.7202582,123.836772 C85.7074178,123.836772 85.6688966,123.911186 85.6260953,123.994355 C85.6089748,124.03375 85.6004146,124.055637 85.5961344,124.064391 C85.5918543,124.077523 85.5918543,124.090655 85.5875742,124.108164 L85.5875742,124.121296 L85.4035286,128.117762 C85.4035286,128.161535 85.4292094,128.205308 85.4634504,128.222817 C85.4677305,128.222817 85.4720107,128.222817 85.4848511,128.227194 L85.5062517,128.235949 L89.9147856,128.446058 L89.9404663,128.446058 L91.8365639,128.537982 C91.8793652,128.533604 91.9136062,128.507341 91.9350069,128.472322 C91.9435672,128.454813 91.9478473,128.450436 91.9478473,128.450436 L91.9478473,128.428549 L91.9478473,128.419795 L91.9521274,128.419795 L92.1276127,124.427707 C92.1276127,124.401443 92.1233326,124.375179 92.1104922,124.353293 L92.101932,124.348915 C92.101932,124.344538 92.101932,124.348915 92.0933717,124.340161 L92.0890916,124.335783 C91.9221665,124.186956 90.6680884,124.073146 89.9319061,124.007487 C89.6494175,123.981223 89.4097302,123.959337 89.2085641,123.919941 C88.8875544,123.867413 88.5879453,123.687945 88.3910593,123.394666 C88.018688,122.834373 88.1599323,122.068347 88.7077889,121.683146 C89.0031179,121.473036 89.961867,121.438018 90.9762578,121.446772 C91.7937626,121.455527 92.6754694,121.473036 93.0949221,121.473036 L93.0949221,121.468659 L93.0992022,121.468659 L93.0992022,121.473036 C93.1548439,121.473036 93.2062055,121.451149 93.2361664,121.420508 C93.2404465,121.420508 93.2447267,121.416131 93.2532869,121.402999 C93.257567,121.389867 93.2618472,121.389867 93.2618472,121.389867 C93.2618472,121.38549 93.2661273,121.376736 93.2661273,121.363604 L93.4458928,117.362761 C93.4501729,117.262083 92.0077691,117.28397 91.1774239,117.183292 C90.6894891,117.12201 90.3171178,117.07386 90.0517497,116.964428 C89.9747074,116.933786 89.897665,116.894391 89.8249028,116.846241 C89.6451374,116.732431 89.4953328,116.561717 89.3968898,116.355984 C89.1015609,115.743164 89.3455283,115.007779 89.9447465,114.705746 C90.2443556,114.552541 90.5696454,114.548164 91.0318995,114.548164 C91.7894825,114.548164 93.3945312,114.543786 93.4116517,114.171717 L93.5956973,110.074573 C93.6042576,109.851332 92.1318929,109.667486 91.1688636,109.540544 C90.7237301,109.488017 90.3470787,109.439866 90.0303491,109.352321 L90.0260689,109.347943 C89.5081732,109.203493 89.1315218,108.708859 89.1443622,108.135434 C89.1614827,107.461332 89.7136194,106.922925 90.3727595,106.936057 L90.3941601,106.936057 C90.6852089,106.944811 92.465743,106.984207 92.4743033,106.883529 L92.6540687,102.878309 C92.6583489,102.830159 92.6326681,102.790763 92.598427,102.773254 C92.598427,102.773254 92.5941469,102.773254 92.5770264,102.768877 L92.5556257,102.760122 L92.5470655,102.760122 L89.7393002,102.624426 L86.2253135,102.458089 C86.1825122,102.458089 86.1482712,102.484353 86.1268706,102.523749 L86.1140302,102.545635 L86.1140302,102.563144 L86.10975,102.576276 L85.9342647,106.542101 L85.9342647,106.572742 C85.9257044,106.708438 85.9984667,106.857266 86.1268706,106.940434 C86.1397109,106.953566 86.1611116,106.962321 86.1867924,106.975452 C86.208193,106.984207 86.2338738,106.984207 86.2595546,106.984207 L86.2595546,106.988584 Z" id="Fill-9" fill="#FEFEFE"></path>
            <path d="M86.0151779,107.603768 C85.0683709,107.520929 84.512733,106.696674 84.5438487,105.99668 L84.7349881,102.206767 C84.770549,101.506772 85.4061988,100.968315 86.1529761,101.001451 L89.802406,101.154704 L92.7272841,101.283106 C93.4785065,101.316241 94.05637,101.908545 94.0208091,102.608539 L93.8341148,106.398452 C93.7718834,107.64933 90.7669935,107.56649 90.3758244,107.558207 C91.349302,107.815009 95.0787438,107.75288 94.9987319,109.417956 L94.8075924,113.290708 C94.7186904,115.138031 90.789219,114.661704 90.5091775,114.794247 C90.8470053,114.997204 94.9098298,114.993062 94.8431533,116.314354 L94.6564589,120.104266 C94.6208981,120.804261 93.9808032,121.309583 93.2384709,121.309583 C92.3983464,121.313725 89.4734684,121.259879 89.3801212,121.313725 C89.5623704,121.404848 92.336115,121.442126 93.0073256,121.980584 C93.3095926,122.224961 93.4918418,122.593597 93.4785065,122.999511 L93.2873671,126.793566 C93.2562514,127.489418 92.6161565,128.027876 91.864934,127.998882 L89.8957532,127.9119 L85.2906261,127.713085 C84.5482938,127.679949 83.9659853,127.087646 84.0015461,126.391793 L84.1882404,122.593597 C84.2238013,121.901886 84.8727864,121.201891 85.6195637,121.222601 C84.8727864,121.189465 84.2593621,120.344501 84.2949229,119.644507 L84.4860624,115.850452 C84.5216232,115.154599 85.1528279,114.640994 85.9084954,114.649278 C85.1350475,114.603716 84.5038428,113.584789 84.5349585,112.888936 L84.7260979,109.094881 C84.7572137,108.399029 85.3973086,107.603768 86.0151779,107.603768" id="Fill-11" fill="#00406F"></path>
            <path d="M119.825648,133.078943 L128.610555,143.094669 C128.619223,143.103318 128.62789,143.116292 128.636558,143.124941 C132.415759,147.665749 135.761564,147.994417 140.823612,147.994417 C141.309014,147.994417 141.807418,147.994417 142.318823,147.990093 C142.8649,147.985768 143.428313,147.981444 144.009062,147.981444 L160.90278,147.981444 L128.705901,115.335194 C128.064478,114.76435 127.778437,113.7351 126.876977,109.817031 C126.47392,108.065576 126.018855,106.093568 125.542121,104.502123 C125.438107,104.156157 125.360096,103.849111 125.290753,103.576663 C124.996044,102.422 124.944037,102.214421 123.435824,101.630602 C119.556943,100.129973 116.427835,99.2304608 114.395214,99.0272055 C113.745123,98.9580123 113.294392,99.0574776 113.142704,99.3083032 C112.930341,99.6542695 112.943343,100.47594 113.342066,101.250039 C114.468891,103.468549 116.336822,104.727001 118.70749,106.322771 C119.470264,106.833071 120.254708,107.36067 121.086826,107.970436 C121.507218,108.277481 121.741252,108.774807 121.697912,109.302406 L119.825648,133.078943 Z M140.823612,151 C135.237157,151 130.924881,150.571867 126.335233,145.062353 L117.142936,134.579572 C116.878565,134.276852 116.744213,133.870341 116.77455,133.47248 L118.633813,109.912172 C118.083402,109.527284 117.545993,109.164019 117.025919,108.813729 C114.399548,107.044976 112.137229,105.518399 110.65502,102.607957 C110.013596,101.349505 109.610539,99.3083032 110.577009,97.7384809 C110.975732,97.0941186 111.955203,96 114.035497,96 C114.24786,96 114.468891,96.0129737 114.694257,96.0389212 C117.030253,96.2681239 120.332719,97.2065576 124.523644,98.8282749 C127.2757,99.8921214 127.769769,101.107328 128.207498,102.841485 C128.272507,103.09231 128.337516,103.356109 128.419861,103.628558 C128.931267,105.315144 129.394999,107.347696 129.811057,109.142397 C130.175109,110.733842 130.630173,112.692876 130.877208,113.255072 L165.570439,148.4312 C165.995166,148.863658 166.116516,149.503696 165.882483,150.065891 C165.64845,150.623762 165.102373,150.982702 164.495621,150.982702 L144.009062,150.982702 C143.436981,150.982702 142.877902,150.987026 142.340493,150.991351 C141.82042,150.995675 141.313348,151 140.823612,151 Z" id="Fill-13" fill="#FEFEFE"></path>
            <path d="M127.978462,143.684162 L118.776176,133.393562 L120.696389,109.4571 C117.176721,106.937472 114.190204,105.605548 112.495388,102.339364 C111.554787,100.515391 111.723835,97.7030798 115.044114,98.0254564 C117.826906,98.3011732 121.728016,99.6288558 124.480466,100.67658 C127.154894,101.686127 126.912158,102.593872 127.484321,104.434812 C128.65032,108.222737 129.608259,113.927954 130.236771,114.411519 L165,148.986408 L144.514836,148.986408 C137.423484,148.986408 132.937207,149.5336 127.978462,143.684162" id="Fill-15" fill="#00406F"></path>
            <path d="M207.167382,51.6170273 C193.536481,51.6170273 189.922747,67.3900911 189.922747,78.3667426 C189.922747,89.9840547 191.407725,107.328872 206.699571,107.328872 C221.72103,107.328872 225.060086,90.7229499 225.060086,78.7340547 C225.060086,66.8348519 222.090129,51.6170273 207.167382,51.6170273 Z M235.716738,120.987756 C232.751073,121.816344 229.600858,122 226.540773,122 C219.862661,122 209.480687,115.819761 204.476395,111.66828 C185.660944,111.66828 180,95.6175968 180,79.6566059 C180,62.2220957 191.218884,47 209.575107,47 C228.48927,47 234.974249,60.4709567 234.974249,77.542426 C234.974249,91.5558087 229.042918,106.316629 214.2103,110.006834 C218.660944,113.047836 229.042918,119.599658 234.793991,119.599658 C234.974249,119.599658 235.811159,119.599658 236,119.509966 L235.716738,120.987756 Z" id="Fill-17" fill="#1D1D1B"></path>
            <path d="M273.792376,111.163014 L273.326174,103.376895 C270.186797,109.21863 263.262204,112 256.885077,112 C247.830497,112 246.260809,104.952146 246.260809,97.3505936 L246.260809,71.6744292 C246.260809,69.0819178 243.121432,68.3393607 241.085542,68.3393607 L241,66.7641096 C245.61497,66.3906849 250.144398,65.4635616 254.763645,65 L254.763645,98.5567123 C254.763645,103.00347 256.239238,106.900822 261.320409,106.900822 C266.585495,106.900822 273.142259,101.98621 273.142259,96.4234703 L273.142259,71.399726 C273.142259,69.356621 270.648722,68.4252055 268.989214,68.3393607 L268.989214,66.7641096 C273.236355,66.2962557 277.303859,65.3734247 281.551,65 L281.551,103.282466 C281.551,107.269954 282.936774,109.21863 287,109.308767 L287,111.163014 L273.792376,111.163014 Z" id="Fill-19" fill="#1D1D1B"></path>
            <path d="M317.398086,90.2520051 C315.813397,89.7893729 314.233014,89.6951331 312.652632,89.6951331 C305.861722,89.6951331 300.9311,92.5694495 300.9311,99.8773241 C300.9311,105.518866 305.116746,108.110463 310.327273,108.110463 C312.743062,108.110463 315.167464,107.742071 317.398086,106.816806 L317.398086,90.2520051 Z M328,109.866752 C321.958373,111.070452 315.813397,112 309.677033,112 C300.9311,112 292,110.055231 292,99.5046482 C292,89.1468283 301.766507,85.8098797 310.697608,85.8098797 C312.932536,85.8098797 315.167464,85.9983595 317.398086,86.5552315 L317.398086,79.431553 C317.398086,73.6058148 315.908134,68.8852534 309.022488,68.8852534 C304.091866,68.8852534 299.90622,72.8647466 298.511005,77.3111557 C296.835885,76.1031717 294.605263,73.7942946 294.605263,71.5668064 C294.605263,67.0347248 305.766986,65 309.207656,65 C318.978469,65 325.769378,67.0347248 325.769378,78.1421801 L325.769378,103.115749 C325.769378,105.244714 325.954545,107.832027 328,109.035727 L328,109.866752 Z" id="Fill-21" fill="#1D1D1B"></path>
            <path d="M353.34385,111.699738 C351.088608,112.629727 348.464009,113 346.021916,113 C337.105233,113 336.262233,109.559903 336.262233,101.840135 L336.262233,52.7444777 C336.262233,49.3991015 334.480635,47.2549607 331,47.2549607 L331,45.6748409 C335.697336,45.3045676 340.294729,44.3745788 344.992065,44 L344.992065,101.840135 C344.992065,107.979783 348.272813,109.559903 354,109.280045 L353.34385,111.699738 Z" id="Fill-23" fill="#1D1D1B"></path>
            <path d="M369.713404,55.6803565 C366.759259,55.6803565 363.999118,53.2894227 363.999118,50.3401782 C363.999118,47.4846959 366.759259,45 369.713404,45 C372.570547,45 375.42769,47.2119334 375.42769,50.1611778 C375.42769,53.1018985 372.760141,55.6803565 369.713404,55.6803565 Z M380,111 L360,111 L360,109.342115 C362.857143,108.975591 365.617284,107.871755 365.617284,104.649748 L365.617284,73.3545138 C365.617284,69.7659822 363.046737,69.3099574 360,68.9391709 L360,67.0937621 L374.382716,65.0736149 L374.382716,104.649748 C374.382716,107.688493 377.142857,109.158853 380,109.342115 L380,111 Z" id="Fill-25" fill="#1D1D1B"></path>
            <path d="M412.442488,76.5625741 C411.792645,72.4027892 408.539124,68.8856075 404.076291,68.8856075 C395.06025,68.8856075 393.201095,80.538146 393.201095,87.3882964 C393.201095,95.6179017 395.989828,107.835931 406.305556,107.835931 C409.098592,107.835931 412.072379,107.741683 414.766432,106.537873 C414.581377,107.93018 414.211268,109.686628 413.096635,110.701941 C412.072379,111.537326 406.305556,112 404.730438,112 C389.947574,112 384,101.7312 384,88.1251481 C384,76.1941482 391.897105,65 404.631455,65 C408.818858,65 417,65.3684258 417,71.1047307 C417,73.6965637 414.581377,75.6372254 412.442488,76.5625741" id="Fill-27" fill="#1D1D1B"></path>
            <path d="M441.01896,68.8778313 C431.543057,68.8778313 429.102426,80.1436369 429.102426,87.5273356 C429.102426,94.5433458 429.762525,108.028109 439.703103,108.028109 C450.486177,108.028109 451.802034,95.5609024 451.802034,87.5273356 C451.802034,80.3232057 450.772799,68.8778313 441.01896,68.8778313 M438.296049,112 C423.943226,112 420,100.272446 420,88.1729282 C420,74.9746202 428.915687,65 442.612753,65 C456.305476,65 461,74.5128718 461,86.6978987 C461,100.64441 453.491367,112 438.296049,112" id="Fill-29" fill="#1D1D1B"></path>
            <path d="M491.917605,75.1750761 C491.060698,73.2486855 488.406482,71.2331888 486.12579,71.2331888 C481.190882,71.2331888 478.536666,76.8256618 478.536666,80.9415183 L478.536666,104.4019 C478.536666,107.151462 481.384235,109.166959 484.038451,109.260308 L484.038451,111 L464.092282,111 L464.092282,109.442764 C466.750893,109.077853 469.699533,107.338161 469.699533,104.4019 L469.699533,73.8894013 C469.699533,70.0366202 467.414447,69.3067983 464,68.6660825 L464,67.0154967 L477.490799,65.1824555 L477.965394,73.1553362 C480.246086,68.2969283 485.554518,65 491.060698,65 C492.488877,65 496,65.2758048 496,67.2021954 C496,69.8584079 493.81159,73.4353842 491.917605,75.1750761" id="Fill-31" fill="#1D1D1B"></path>
            <g id="Group-35" transform="translate(500.000000, 65.000000)">
                <mask id="mask-2" fill="white">
                    <use xlink:href="#path-1"></use>
                </mask>
                <g id="Clip-34"></g>
                <path d="M25.77365,4.89733377 C19.54725,4.89733377 14.06905,10.6338294 14.06905,16.5431364 L14.06905,40.5765662 C16.29645,41.9464127 18.98825,42.220382 21.59405,42.220382 C32.46015,42.220382 34.41235,30.6546627 34.41235,22.279632 C34.41235,16.4546232 34.03825,4.89733377 25.77365,4.89733377 M21.21995,46.498518 C18.80765,46.498518 16.29645,46.1360355 14.16365,45.0401583 L14.16365,55.5100004 C14.16365,58.2412636 16.95005,59.6996232 19.45265,59.8808645 L19.36665,61.2464961 L0.23165,61.2464961 L0.23165,59.7923513 C2.82885,59.7923513 5.52065,57.9672943 5.52065,55.2402461 L5.52065,10.3598601 C5.52065,7.08065833 3.85225,3.98269781 0.23165,3.89418465 L0.23165,2.52855307 L13.51005,0.437956579 C13.60035,3.35046096 13.78955,6.35569342 13.78955,9.35671096 C15.83635,3.07649167 23.17215,0.437956579 29.29965,0.437956579 C41.00425,0.437956579 43.51115,11.181768 43.51115,20.551518 C43.51115,34.2078338 36.54515,46.498518 21.21995,46.498518" id="Fill-33" fill="#1D1D1B" mask="url(#mask-2)"></path>
            </g>
        </g>
    </g>
</svg>