<?xml version="1.0" encoding="UTF-8"?>
<svg width="600px" height="250px" viewBox="0 0 600 250" version="1.1" xmlns="http://www.w3.org/2000/svg" xmlns:xlink="http://www.w3.org/1999/xlink">
    <!-- Generator: Sketch 50.1 (55044) - http://www.bohemiancoding.com/sketch -->
    <title>RADL</title>
    <desc>Created with Sketch.</desc>
    <defs>
        <polygon id="path-1" points="0.541958945 0.4875 13.8845084 0.4875 13.8845084 33.8039577 0.541958945 33.8039577"></polygon>
        <polygon id="path-3" points="0.527767822 0.0998433271 14.3493857 0.0998433271 14.3493857 21 0.527767822 21"></polygon>
        <polygon id="path-5" points="0.841976768 0.905616598 7.299 0.905616598 7.299 7.3647 0.841976768 7.3647"></polygon>
    </defs>
    <g id="RADL" stroke="none" stroke-width="1" fill="none" fill-rule="evenodd">
        <g id="Grid-Logo" opacity="0.400000006" transform="translate(-4.000000, 0.000000)"></g>
        <g transform="translate(78.000000, 46.000000)">
            <path d="M82.3941994,66.36472 C92.7749924,70.0915587 101.548225,76.6196045 110.757523,82.4495193 C123.635313,90.6030642 137.968387,94.3750556 153.107836,94.0885093 C167.079252,93.8245394 177.672887,87.1436688 183.81761,74.4123296 C189.668162,62.2888159 188.700857,50.283394 180.650941,39.4623635 C174.158403,30.7374626 165.198285,26.005107 154.147819,25.9130648 C146.66548,25.8505456 139.177951,26.0415765 131.700803,25.8349158 C128.926939,25.7585035 128.3957,26.6650318 128.423387,29.2647883 C128.56009,41.8433028 128.497795,54.4252906 128.47876,67.0072784 C128.468378,73.7715079 123.545331,76.7081734 117.7813,73.1741022 C112.956888,70.216597 108.404151,66.8127743 103.685294,63.6781313 C102.690302,63.0164699 102.666076,62.1794073 102.666076,61.1982033 C102.676459,43.4566453 102.64012,25.7133507 102.704146,7.97179279 C102.719719,3.64407525 105.242673,1.28397567 109.606793,1.27702909 C125.426298,1.24924278 141.283872,0.578898093 157.060117,1.42985379 C179.998572,2.66808116 196.956694,14.2306588 206.61244,35.2041117 C222.077209,68.7925487 202.829741,108.367199 166.999653,117.140725 C152.882882,120.598384 138.757458,118.802694 124.851799,115.273833 C112.622916,112.17045 101.392487,106.837215 91.008233,99.616248 C77.4521182,90.1914795 62.3334336,85.5737424 45.8875165,85.2733029 C40.865836,85.1795241 38.5470724,82.8107414 38.512464,77.6511712 C38.4882381,74.1014703 38.500351,70.553506 38.5211161,67.0055418 C38.5539941,61.6462575 40.7360544,59.4424559 46.0882453,59.3261008 C57.9485479,59.0690774 67.161307,48.6144789 65.2007405,37.6354137 C63.9669507,30.711413 58.32751,25.9477977 51.1947164,25.9061183 C43.7123778,25.8609655 36.224848,26.0085803 28.7459702,25.8435991 C26.2801209,25.7897631 25.778299,26.5747263 25.7852206,28.9278793 C25.8717417,55.8111327 25.8371333,82.6943862 25.8440549,109.575903 C25.8440549,115.345035 23.7052551,117.512367 17.9187287,117.534944 C14.2848455,117.548837 10.6475014,117.621776 7.01534864,117.545364 C2.52317682,117.449848 0.0175278257,114.99597 0.0140669846,110.505008 C-0.0118893241,76.4181538 -0.00150680062,42.3312999 0.0417537138,8.24444594 C0.0486753961,3.69270129 2.52317682,1.28397567 7.01707906,1.27702909 C22.4126309,1.24924278 37.8064524,1.13462426 53.1985434,1.30134211 C72.641549,1.50973943 89.6810004,18.8275562 89.983824,38.4238502 C90.1672486,50.3945392 89.8021299,51.7543317 82.3941994,66.36472" id="Fill-1" fill="#2C7650"></path>
            <path d="M276.036243,103.701938 C276.036243,100.703897 275.938722,97.7023967 276.063618,94.709546 C276.197068,91.4848791 277.665024,90.5351247 280.645419,91.6405765 C281.34689,91.9018022 281.937151,92.3100755 282.720746,91.9934907 C286.341019,90.5351247 289.726898,90.7392614 292.753487,93.4708864 C293.653423,94.285703 294.257372,93.5418152 294.93489,93.0332036 C298.245489,90.5316648 301.858919,90.4105668 305.366272,92.2737461 C308.772682,94.0798364 310.002822,97.3442926 309.990846,101.14158 C309.98058,105.103215 310.019931,109.06658 309.985713,113.026484 C309.968604,115.076501 309.633267,117.036558 306.976233,116.991579 C304.413298,116.9466 304.356839,115.028061 304.35855,113.112983 C304.361971,109.151348 304.3979,105.187983 304.319199,101.228079 C304.250763,97.8373345 302.945343,96.3530189 300.211318,96.2993898 C297.253165,96.2405708 295.985385,97.6539575 295.923792,101.312847 C295.857067,105.274482 295.942612,109.237847 295.889574,113.197751 C295.863911,115.0938 295.622673,117.019259 293.085402,116.982929 C290.625122,116.94833 290.301762,115.223548 290.320581,113.201211 C290.35651,109.239577 290.351378,105.277942 290.291496,101.316307 C290.240169,97.9722723 288.929616,96.4135679 286.231521,96.2976598 C283.461567,96.1800218 281.950839,97.50345 281.752374,100.906304 C281.507715,105.068615 281.620634,109.251686 281.610369,113.427838 C281.605236,115.254688 281.521402,116.93622 279.07652,116.998499 C276.76851,117.055588 276.161139,115.476124 276.096125,113.657924 C275.979783,110.343299 276.063618,107.021753 276.063618,103.701938 L276.036243,103.701938 Z" id="Fill-3" fill="#92948B"></path>
            <path d="M225,18.0041981 C225.093982,4.90591506 234.903975,-2.17036952 246.002374,2.38191222 C247.253187,2.89509122 248.507417,3.59503945 249.513877,4.49572096 C250.686086,5.54651606 251.280735,7.00226873 250.130739,8.51213212 C249.08156,9.89108249 247.670124,9.74969644 246.446652,8.91359868 C242.193547,6.01082087 237.907976,4.32117028 233.624114,8.66922773 C230.056222,12.2894088 229.565808,19.6833757 232.340835,24.7104352 C234.017129,27.7476171 236.64862,29.1300585 239.948236,28.9363072 C243.531506,28.7251009 245.971616,26.5083073 247.01396,22.9946021 C247.659872,20.8127186 247.446277,19.384894 244.681502,19.6868667 C243.868132,19.7758875 243.012043,19.5367531 242.185003,19.3936215 C240.982036,19.1876517 240.330998,18.4440658 240.315619,17.1768279 C240.298532,15.8223146 240.90685,14.8535583 242.2038,14.5585677 C243.117986,14.3525979 244.083436,14.3351428 245.028381,14.3246698 C252.777609,14.2356489 254.132656,16.0160659 252.234223,23.748661 C250.535715,30.6608679 245.518795,34.384034 238.459906,33.9686033 C231.503542,33.5601547 225.960323,28.0548263 225.145245,20.7149702 C225.02734,19.6449745 225.029049,18.5610148 225,18.0041981" id="Fill-5" fill="#92948B"></path>
            <path d="M319.653267,63.0849591 C319.25806,61.2794407 319.298639,59.4090008 318.33885,57.7456078 C316.128159,53.9117325 311.461537,53.7889081 309.095586,57.5297878 C307.325974,60.3266744 307.548279,66.0309896 309.529608,68.675223 C311.477416,71.273836 315.203656,71.437017 317.476098,69.0682611 C319.1028,67.3732846 319.210423,65.1764828 319.653267,63.0849591 M319.178665,51.3341751 C319.178665,47.9196573 319.20513,45.1017151 319.171608,42.2855275 C319.146908,40.3554301 319.944379,39.0412092 321.946881,39.0008526 C323.910567,38.9622507 324.963865,40.2378696 324.970922,42.1205919 C325.004445,52.3343165 325.027381,62.5462864 324.932107,72.7582564 C324.909171,75.3428323 323.070752,76.595641 320.722444,75.5954996 C319.272174,74.9761138 318.180061,75.0568269 316.74567,75.4954854 C311.877916,76.9816605 307.027805,75.1077113 304.196074,70.8843073 C300.143434,64.8395931 301.404922,52.3571267 310.461168,49.9795976 C313.351122,49.2215958 316.038179,49.8251899 319.178665,51.3341751" id="Fill-7" fill="#92948B"></path>
            <path d="M230.364255,94.3740275 C230.462435,95.6146523 229.411733,98.1647298 233.132253,97.8704901 C236.334313,97.6192679 238.12223,96.4457504 238.184238,93.8819073 C238.24797,91.2354705 236.613352,90.2064919 233.19943,89.9036486 C229.823401,89.6025261 230.269519,91.6811318 230.364255,94.3740275 Z M233.354451,112.228012 C238.203185,112.210805 240.364877,110.631202 240.395881,107.315413 C240.428608,103.880896 238.134287,102.304734 233.047853,102.432066 C227.944194,102.559398 230.980897,106.470549 230.407317,108.597335 C229.76656,110.97018 230.464158,112.935219 233.354451,112.228012 Z M225.016006,100.761266 C225.016006,96.6109376 225.048733,92.4623297 225.000504,88.3120011 C224.972945,86.0165871 226.075321,85.0030948 228.299021,85.0203018 C230.529611,85.0375088 232.765369,84.9514738 234.992514,85.0426709 C242.235472,85.3386313 245.759632,91.8772917 242.044279,98.1630091 C241.50687,99.0749802 241.050417,99.5550555 242.250974,100.384433 C245.87676,102.88461 246.712154,106.42237 245.444421,110.493546 C244.323098,114.086368 240.616357,116.715598 236.406656,116.91864 C233.755785,117.045972 231.094579,116.935847 228.440263,116.997792 C226.02537,117.056296 224.966055,115.953327 225.005672,113.528861 C225.07457,109.27357 225.022896,105.016558 225.022896,100.761266 L225.016006,100.761266 Z" id="Fill-9" fill="#92948B"></path>
            <path d="M340.323523,60.8507047 C340.858727,60.8507047 341.419913,60.9582551 341.920477,60.8298885 C343.222981,60.4950944 345.317035,61.827332 345.713675,59.7561188 C346.094727,57.7733745 344.431955,56.4151165 342.781308,55.5581824 C340.546958,54.3994132 337.243931,55.3083878 335.911981,57.336234 C335.338671,58.2122496 334.567907,59.2305094 335.1187,60.2886669 C335.655637,61.3173348 336.854218,60.7396849 337.761815,60.8264191 C338.608789,60.9062146 339.46962,60.843766 340.323523,60.8507047 M342.511107,65.4892509 C340.690718,65.4909856 338.865133,65.588128 337.055137,65.4684347 C334.387773,65.2897622 334.761897,66.5595513 335.712795,68.1138285 C337.585145,71.179016 341.884104,71.7653393 345.74312,69.5328004 C347.459586,68.5405609 349.44452,66.0790437 351.027617,69.1147415 C352.418457,71.7826862 349.912174,73.0993117 347.906456,74.1730813 C342.223586,77.2139832 335.125628,76.3657225 331.976754,72.3204383 C327.93414,67.1285278 328.020742,58.5262275 332.165548,53.762784 C335.305762,50.1529056 340.682058,48.9785243 345.046834,50.9491258 C349.224549,52.8347278 352.470418,58.3874528 351.943874,62.7224292 C351.699654,64.7173164 350.400614,65.433741 348.607938,65.4771081 C346.576238,65.5239446 344.544539,65.4875163 342.511107,65.4892509" id="Fill-11" fill="#92948B"></path>
            <path d="M376.41109,60.8427625 C376.946708,60.8427625 377.496194,60.925645 378.012746,60.8272221 C379.283324,60.5837548 381.261127,61.6733141 381.708343,60.0519255 C382.230095,58.1490819 380.702974,56.6433834 379.057983,55.7178624 C376.575762,54.3157671 373.12284,55.2844561 371.741325,57.6880481 C371.275042,58.4961523 370.607685,59.4009527 371.174505,60.367915 C371.706657,61.2830757 372.725893,60.7546999 373.524988,60.8185885 C374.481822,60.8945641 375.449056,60.8375824 376.41109,60.8427625 M378.676636,65.4479205 C376.747368,65.4461938 374.819833,65.4910884 372.894032,65.4341067 C370.529682,65.3633113 370.703022,66.4891317 371.607854,67.9965568 C373.235511,70.6988711 376.924174,71.6088517 380.468966,70.1256006 C381.346064,69.7595363 382.176359,69.2397941 382.949453,68.6837907 C384.287634,67.7185552 385.637948,67.1072968 386.885992,68.6544365 C388.109769,70.172222 387.28294,71.4914348 386.119832,72.5861743 C382.503971,75.9843561 378.023146,76.5524464 373.511121,75.5630368 C369.23137,74.6219753 366.518607,71.5501433 365.530573,67.2247137 C364.731478,63.7298357 364.729744,60.2522249 366.258598,56.8764904 C368.631615,51.6341734 373.949669,48.9767538 379.43933,50.3650354 C384.346569,51.6030925 388.274441,57.0698829 387.984964,62.2189571 C387.868827,64.2633917 386.814923,65.3753983 384.778185,65.4358335 C382.746646,65.4962686 380.709908,65.4479205 378.676636,65.4479205" id="Fill-13" fill="#92948B"></path>
            <path d="M333.42506,18.8586399 C333.954463,18.8586399 334.506358,18.9591176 335.00635,18.8395838 C336.302177,18.5294888 338.444012,19.761207 338.751966,17.8486657 C339.06338,15.906674 337.623956,14.2539888 335.641288,13.5489125 C333.530594,12.7953296 331.466613,12.8975397 329.729616,14.5259716 C328.70368,15.4874394 327.720997,16.72089 328.153516,18.1171837 C328.613716,19.6052933 330.160405,18.650755 331.210561,18.8361191 C331.928543,18.9643148 332.686317,18.8603723 333.42506,18.8586399 Z M335.655129,23.4754176 C333.627479,23.4754176 331.599829,23.5273889 329.577369,23.4580939 C327.940716,23.4026579 327.821341,24.0921429 328.338634,25.4139446 C329.537577,28.483712 333.523674,29.7691337 337.407696,28.220391 C338.286575,27.8704514 339.106632,27.345542 339.892086,26.8085059 C341.225976,25.897277 342.630798,25.2303129 343.857422,26.7305491 C345.175741,28.3433896 344.219008,29.7258244 342.988924,30.9194303 C339.464758,34.3339402 331.774566,35.0442137 327.400932,32.3728924 C323.148404,29.7760632 320.952936,22.9764938 322.490975,17.1557159 C323.975381,11.5324287 328.276351,8.02783535 333.729553,8.00011736 C339.912847,7.96893462 345.533867,14.1569759 344.959481,20.3640733 C344.777823,22.3337829 343.928355,23.5533745 341.731158,23.4788824 C339.708698,23.407855 337.681048,23.463291 335.655129,23.463291 L335.655129,23.4754176 Z" id="Fill-15" fill="#92948B"></path>
            <path d="M343.303494,101.844199 L343.303494,101.863196 C344.469691,101.863196 345.639339,101.790663 346.79691,101.878739 C349.410503,102.077339 349.384626,100.808021 348.458224,99.0016165 C346.582992,95.3456337 341.15914,94.9536129 338.963031,98.3367354 C338.392009,99.217487 337.764056,100.312382 338.178091,101.289844 C338.626628,102.346746 339.873907,101.735401 340.764082,101.82693 C341.604227,101.911551 342.458173,101.844199 343.303494,101.844199 Z M345.844631,106.361937 C343.929721,106.361937 342.011361,106.437923 340.101626,106.34294 C337.44318,106.208237 337.87274,107.550088 338.774991,109.045639 C340.605369,112.076461 345.061415,112.67399 348.739422,110.508378 C350.412812,109.524008 352.365675,106.933562 354.014913,109.936753 C355.558916,112.749977 352.860791,114.091828 350.832022,115.172907 C343.717528,118.958412 336.090667,116.67882 333.270056,110.024828 C329.999183,102.312206 333.275232,93.5858574 340.467357,91.5307702 C349.624421,88.9161468 354.972367,96.4508907 354.99997,103.426098 C355.00687,105.294673 353.833772,106.336033 351.906787,106.346394 C349.884918,106.358483 347.866499,106.349848 345.844631,106.349848 L345.844631,106.361937 Z" id="Fill-17" fill="#92948B"></path>
            <path d="M254.919029,62.8501838 C254.847162,67.4966277 256.892731,70.51855 260.212617,70.7872809 C265.055724,71.1791079 266.47728,66.9470296 266.463257,62.5242392 C266.449234,58.1118512 264.266944,55.4453472 261.155647,55.213025 C257.334447,54.9286903 254.997907,57.7893741 254.919029,62.8501838 Z M271.968939,63.0911747 C271.968939,66.3107442 272.053076,69.5337813 271.944399,72.7498833 C271.839229,75.7995456 269.63941,76.8727354 267.166148,75.067904 C266.493056,74.5755197 266.221365,74.2825163 265.350201,74.7090183 C257.187208,78.717443 250.754272,72.6735984 249.388807,66.4061004 C247.411599,57.3351322 253.202995,49.4223075 261.59561,50.0724629 C264.089907,50.2666427 266.340558,51.742062 269.131085,50.2146303 C270.684105,49.3668276 271.961928,51.1751265 271.958422,53.109989 C271.954916,56.4370509 271.956669,59.7641128 271.956669,63.0911747 L271.968939,63.0911747 Z" id="Fill-19" fill="#92948B"></path>
            <path d="M260.390981,101.868954 C261.567399,101.868954 262.747298,101.801522 263.916756,101.884515 C266.213904,102.047045 266.497567,101.097805 265.606552,99.2252622 C263.908054,95.6565376 259.242406,94.8525371 256.487568,97.7140872 C255.565228,98.6719716 254.797772,99.8650045 255.279825,101.147947 C255.758398,102.4136 257.150609,101.746193 258.14604,101.856851 C258.885652,101.939844 259.640927,101.872412 260.390981,101.868954 Z M263.060546,106.374815 C261.125372,106.374815 259.190198,106.416312 257.255025,106.364441 C254.780369,106.297008 254.796032,107.462377 255.812346,109.139539 C257.286349,111.567102 260.97919,112.556109 264.191717,111.359618 C264.884342,111.100263 265.533461,110.699127 266.165177,110.304907 C267.745337,109.321087 269.523886,107.360364 271.051838,109.815591 C272.395322,111.975153 270.703785,113.607361 268.839963,114.769271 C262.721194,118.595622 254.670733,117.368008 251.261555,112.094457 C247.217182,105.833627 248.769497,96.7233511 254.543693,92.8468585 C257.968533,90.5472443 263.210208,90.3363022 266.427957,92.5460067 C270.355733,95.2432986 272.177789,99.059275 271.98636,103.814116 C271.915009,105.588105 270.712487,106.22266 269.188015,106.290092 C267.150166,106.381731 265.103616,106.31257 263.060546,106.31257 L263.060546,106.374815 Z" id="Fill-21" fill="#92948B"></path>
            <path d="M268.558662,18.8406326 L268.558662,18.8509517 C269.633398,18.8509517 270.716857,18.7666792 271.782869,18.8681502 C274.516814,19.1244075 274.303961,17.7915255 273.429866,16.035561 C271.850912,12.8641618 267.164647,12.1091486 264.67147,14.6648423 C263.76946,15.5901204 262.804641,16.7269397 263.212901,18.0305843 C263.692693,19.5612488 265.243732,18.6290913 266.306254,18.8165547 C267.035539,18.9455433 267.806697,18.8406326 268.558662,18.8406326 Z M270.744772,23.4481047 C268.804665,23.4481047 266.861069,23.5186184 264.926196,23.4291863 C262.783704,23.3294352 262.876173,24.2701919 263.614182,25.7441014 C264.976793,28.4717799 268.459215,29.6085992 272.049808,28.3101142 C273.248417,27.8767126 274.36328,27.1801742 275.455463,26.5077138 C276.811095,25.6735876 278.135323,25.4001318 279.122823,26.8706016 C280.026578,28.222402 279.620062,29.5088481 278.388304,30.5459162 C274.473197,33.8359849 269.928252,34.7268661 265.091943,33.4266612 C260.721469,32.2520052 258.418464,28.9464579 257.453645,24.7242317 C255.860733,17.7622881 258.542338,11.6121126 264.247508,9.07017766 C268.112019,7.35032994 271.854401,7.67710101 275.211205,10.241394 C278.684903,12.8933992 280.251644,16.5033595 279.967258,20.8528544 C279.843384,22.7395274 278.574987,23.3672718 276.884372,23.3965092 C274.839584,23.432626 272.791305,23.4051085 270.744772,23.4051085 L270.744772,23.4481047 Z" id="Fill-23" fill="#92948B"></path>
            <path d="M398.866807,104.658904 C398.849134,105.440841 398.979918,106.686403 399.485381,107.904286 C400.404406,110.130729 401.775873,111.715362 404.446347,111.77764 C407.214025,111.843378 408.937196,110.466339 409.847383,108.023653 C410.978491,104.987594 410.900727,101.953266 409.414381,99.0504129 C407.956314,96.2029186 404.529412,95.2358777 401.980887,96.8845181 C399.299809,98.6179259 398.845599,101.294155 398.866807,104.658904 M415.978338,104.14511 C415.973036,107.354163 416.034893,110.563216 415.955362,113.77054 C415.881133,116.785839 414.074896,117.792669 411.489256,116.182087 C410.65153,115.659643 410.172577,115.407071 409.22174,115.856857 C400.591746,119.939534 391.691346,112.587255 393.160018,101.728372 C394.269917,93.5128496 401.742294,88.7278136 409.242948,92.0821826 C410.193785,92.5077498 410.639158,92.3382149 411.492791,91.8053909 C414.062525,90.2017292 415.911178,91.2362381 415.967734,94.1996389 C416.031358,97.5142191 415.981872,100.830529 415.978338,104.14511" id="Fill-25" fill="#92948B"></path>
            <path d="M232.819954,75.993583 C230.3948,76.0648312 228.110766,75.5452408 226.028827,74.3114308 C224.389409,73.3417604 223.384155,71.958503 224.422511,70.0400154 C225.47132,68.1006746 227.098543,68.5820343 228.560255,69.5047851 C230.567279,70.7733503 232.711937,71.261661 235.00991,70.80463 C237.386282,70.3302214 238.762626,68.7280062 239.048348,66.3733406 C239.320133,64.1229407 238.015219,62.7622742 236.018648,61.9907085 C234.417559,61.3720658 232.809501,60.7725384 231.196216,60.1851753 C226.088062,58.3257715 223.905075,55.3941695 224.361534,50.9906842 C224.76921,47.0755097 228.323315,43.7372717 232.978495,43.1221045 C235.802614,42.748486 238.565757,43.2159435 241.020528,44.7503861 C242.515342,45.6835635 243.433486,47.0025238 242.337637,48.7993682 C241.292312,50.5075868 239.8306,50.1756745 238.422895,49.3276474 C236.90369,48.4118476 235.323507,47.8175335 233.536002,48.1233793 C231.825153,48.4153231 230.50456,49.2390216 230.18922,51.1001632 C229.882591,52.9091719 230.917463,53.9153352 232.433184,54.5496178 C234.609202,55.4584666 236.85665,56.2143925 238.975175,57.2396712 C243.771474,59.563057 245.581629,62.7292568 244.839448,67.1518573 C244.062423,71.7725626 240.443857,75.2359194 235.71202,75.8354468 C234.75729,75.9570901 233.785137,75.9449257 232.819954,75.993583" id="Fill-27" fill="#92948B"></path>
            <path d="M284.028645,21.1912546 C284.028645,17.9813774 283.951184,14.7663063 284.051022,11.5581604 C284.152582,8.21323989 286.013364,7.09826637 288.836383,8.83132303 C290.010346,9.55155437 290.743642,9.17931942 291.735141,8.81920375 C298.439811,6.38669166 303.560835,9.48057003 304.614303,16.6499882 C305.302844,21.3314919 304.886277,26.0424281 304.753733,30.7395138 C304.705535,32.5158535 304.008387,33.9736295 301.996125,33.9995994 C299.792794,34.0290319 299.111138,32.4327499 299.06294,30.5577246 C298.966545,26.6016462 298.983758,22.6403739 298.933839,18.6808328 C298.889084,14.8944243 297.360522,13.0921147 294.301678,13.1717556 C291.463168,13.2444713 289.85026,15.1593171 289.817554,18.6098485 C289.779684,22.5693895 289.788291,26.5289306 289.810669,30.4902029 C289.822718,32.5141222 289.034339,33.848974 286.896418,33.8801379 C284.694808,33.9113018 284.011431,32.5020029 284.032087,30.5040535 C284.06135,27.3997872 284.038973,24.2955209 284.038973,21.1912546 L284.028645,21.1912546 Z" id="Fill-29" fill="#92948B"></path>
            <path d="M277.020509,60.0049007 C277.020509,57.7434772 276.963539,55.4803142 277.039499,53.2223699 C277.098195,51.4671573 277.685157,50.0337628 279.793042,50.0007112 C282.030403,49.9641805 282.77619,51.3384302 282.788275,53.3145664 C282.81417,57.5138558 282.746842,61.7131452 282.815896,65.910695 C282.874592,69.3445796 284.272943,70.7727555 287.378663,70.805807 C290.596596,70.8405982 291.815406,69.6594393 291.915535,66.0133289 C292.024295,62.0349631 291.894818,58.0478996 291.953514,54.0677943 C291.984589,52.0377319 292.309144,50.0337628 294.974643,50.0076694 C297.503759,49.9850552 297.88701,51.9403167 297.878379,53.8120795 C297.855936,58.4323416 298.304789,63.0647806 297.60734,67.6728658 C296.751066,73.312508 293.234473,76.0766633 286.990232,75.9983832 C281.4866,75.9322801 277.72659,72.7558499 277.179334,67.4258488 C276.925559,64.9765532 277.134449,62.4802896 277.134449,60.0049007 L277.020509,60.0049007 Z" id="Fill-31" fill="#92948B"></path>
            <path d="M366.766635,116.99813 C363.628183,117.025845 360.732096,116.261954 358.362889,114.160819 C357.172139,113.107653 356.408162,111.777339 357.593644,110.209716 C358.754537,108.676736 360.233315,108.872473 361.619011,109.75242 C363.659795,111.049823 365.681261,112.224241 368.254194,111.799857 C369.406306,111.609317 370.384548,111.117378 370.739314,110.008783 C371.153794,108.714844 370.150964,107.9804 369.193798,107.50405 C367.072225,106.442224 364.854058,105.570937 362.716679,104.538557 C359.788979,103.123366 357.706045,101.10884 358.21185,97.5301558 C358.694824,94.1056353 361.00783,92.2071656 364.1375,91.4553994 C367.825665,90.5702552 371.510316,90.875119 374.654037,93.2637956 C375.976507,94.2684602 377.042562,95.6888481 375.753461,97.4123675 C374.615399,98.9401506 373.075151,98.5642674 371.689455,97.7709288 C369.971825,96.7870504 368.271757,95.8880488 366.192335,96.3176295 C365.194774,96.523759 364.253414,96.8494089 364.114669,98.0186306 C363.989974,99.059671 364.822445,99.5810573 365.575884,99.9378864 C367.0371,100.630759 368.570322,101.178128 370.080713,101.770533 C375.309125,103.826631 377.527292,106.478599 376.895036,109.930835 C376.053783,114.498594 372.355081,117.079543 366.766635,116.99813" id="Fill-33" fill="#92948B"></path>
            <g id="Group-37" transform="translate(307.000000, 0.000000)">
                <mask id="mask-2" fill="white">
                    <use xlink:href="#path-1"></use>
                </mask>
                <g id="Clip-36"></g>
                <path d="M4.22755556,22.797025 C4.22577778,20.851025 4.24888889,18.905025 4.21866667,16.960775 C4.19022222,15.041025 4.73244444,13.135275 1.80977778,12.251525 C0.199111111,11.763275 0.0284444444,9.022775 1.84711111,8.401525 C4.51022222,7.489775 4.19911111,5.762525 4.25066667,3.869025 C4.28622222,2.500525 4.71644444,1.340275 6.12088889,0.724275 C7.28,0.216775 8.31111111,0.587775 9.20355556,1.221275 C10.3306667,2.022775 10.1617778,3.323025 10.1511111,4.504275 C10.1368889,6.128275 9.86311111,7.776775 12.288,8.093525 C13.3048889,8.226525 13.8915556,9.189025 13.8844444,10.288025 C13.8755556,11.483275 13.3777778,12.550775 12.1351111,12.687275 C10.0533333,12.916525 10.1671111,14.239525 10.1742222,15.711275 C10.2008889,20.466025 10.1493333,25.222525 10.1671111,29.979025 C10.176,32.037025 9.62311111,33.857025 7.22666667,33.802775 C4.944,33.752025 4.19022222,32.033525 4.22222222,29.930025 C4.256,27.553525 4.22933333,25.173525 4.22755556,22.797025" id="Fill-35" fill="#92948B" mask="url(#mask-2)"></path>
            </g>
            <path d="M382.859343,106.142097 C382.859343,104.204143 382.880169,102.26619 382.854136,100.329975 C382.829839,98.4111574 383.44074,96.4453694 380.424419,95.7338585 C378.444199,95.2676362 378.550065,92.1937003 380.608383,91.5726505 C382.654553,90.9550799 383.005126,89.9443517 382.895789,88.1333912 C382.776038,86.1241122 382.873227,84.0069759 385.651783,84.0000173 C388.392157,83.9930588 388.532734,86.082361 388.515379,88.105557 C388.501495,89.6607911 388.426868,91.0681562 390.492128,91.4995858 C391.639301,91.7379158 392.097477,92.7956142 391.982933,94.0377139 C391.880538,95.1267257 391.399801,96.0243776 390.335931,96.1252764 C388.46852,96.3009796 388.511908,97.4908903 388.524056,98.8547645 C388.557031,103.160362 388.550089,107.46422 388.530998,111.769818 C388.527527,112.733576 388.463313,113.706032 388.314059,114.657613 C388.058939,116.271995 387.128704,117.15225 385.426166,116.978287 C383.784371,116.809542 382.907937,115.854482 382.885376,114.214006 C382.845459,111.524529 382.874963,108.833313 382.874963,106.142097 L382.859343,106.142097 Z" id="Fill-38" fill="#92948B"></path>
            <g id="Group-42" transform="translate(100.000000, 135.000000)">
                <mask id="mask-4" fill="white">
                    <use xlink:href="#path-3"></use>
                </mask>
                <g id="Clip-41"></g>
                <path d="M10.39867,7.7539 C9.89887,6.03015 9.76967,3.9214 7.28087,4.01765 C5.01307,4.1069 4.56767,6.06515 4.56937,7.71365 C4.56937,9.54065 5.19157,11.5689 7.58007,11.47965 C9.74757,11.39915 10.06377,9.5074 10.39867,7.7539 M10.08247,15.0689 C5.29697,16.00865 3.07167,15.1634 1.46687,12.0974 C-0.13283,9.04365 0.36187,4.63365 2.56507,2.0804 C3.75337,0.7049 5.19667,-0.05285 6.99867,0.12565 C8.77687,0.30065 10.41567,1.14065 12.37577,0.36015 C13.50967,-0.09135 14.32737,1.2684 14.32397,2.6684 C14.30867,6.6619 14.42767,10.66415 14.25257,14.65065 C14.12507,17.4559 12.67327,19.5524 9.99407,20.4729 C7.16017,21.4459 4.41297,21.04165 1.85107,19.51565 C0.86507,18.92765 0.79027,17.8549 1.31387,16.9589 C1.90887,15.9404 2.96967,16.1259 3.84687,16.52665 C6.09427,17.5539 8.16487,17.92665 10.08247,15.0689" id="Fill-40" fill="#92948B" mask="url(#mask-4)"></path>
            </g>
            <path d="M60.1859921,140.361804 C60.1859921,141.324155 60.309118,142.305649 60.1623789,143.243636 C59.7558946,145.864433 61.056307,146.275129 63.179808,146.092404 C65.8211127,145.864433 66.9865925,144.143339 67.4740364,141.797499 C68.0103933,139.23065 67.4723497,136.877849 65.3286089,135.233325 C63.9927766,134.208326 62.26058,134.088249 60.8724614,134.669488 C59.5197626,135.235065 60.368151,136.931797 60.2096053,138.120378 C60.1100925,138.853018 60.1910521,139.613502 60.1859921,140.361804 M56.013203,140.300896 C56.013203,139.549113 56.0115164,138.799071 56.013203,138.047289 C56.0199497,130.513802 58.4841553,128.669151 65.6035339,130.86359 C69.9837818,132.212274 72.5255737,136.59071 71.9082573,141.722669 C71.2858809,146.896394 68.1706257,149.929627 63.2186011,149.955731 C55.4768461,149.997496 55.9912765,150.860654 56.0148897,142.554503 C56.018263,141.80446 56.0148897,141.050938 56.013203,140.300896" id="Fill-43" fill="#92948B"></path>
            <path d="M4.20731454,136.21149 C3.83676964,137.696094 4.57429651,138.34423 6.30409988,138.254306 C7.81834587,138.176258 9.20254486,138.035433 9.29161815,136.18604 C9.39138024,134.153404 7.98580367,133.936227 6.29519255,133.831033 C4.46919003,133.717354 3.98997571,134.533463 4.20731454,136.21149 M4.85754959,142.725086 C3.9953201,144.248715 4.62061463,145.76386 4.20197014,147.144966 C3.8599287,148.269872 3.30589281,149.02999 1.92703822,148.950245 C0.53215044,148.867107 0.0101809386,148.074753 0.0083994727,146.870102 C-0.000507856682,141.939518 -0.0111966519,137.007238 0.0279955973,132.076654 C0.0369029267,131.06882 0.473362066,130.144123 1.72038818,130.12546 C4.45850123,130.081346 7.21264747,129.752188 9.92225707,130.379963 C12.2221295,130.912724 13.4549039,132.444836 13.81476,134.577577 C14.1835234,136.762914 13.9073962,138.944859 11.6128682,140.035831 C9.35396946,141.111533 9.57843416,142.044713 11.2458862,143.369829 C11.8266441,143.833025 12.2363812,144.487948 12.7672581,145.015619 C13.8450449,146.093018 14.6876783,147.338389 13.1930284,148.505712 C11.7518225,149.632315 10.5243925,148.626177 9.53567898,147.548778 C8.0517179,145.931832 6.84210257,144.063775 4.85754959,142.725086" id="Fill-45" fill="#92948B"></path>
            <path d="M421.026657,103.991461 C421.02331,100.877041 420.959716,97.7608855 421.041719,94.6499378 C421.130416,91.2351866 422.964604,90.0338608 425.615474,91.8289054 C426.745106,92.5927542 427.369332,92.4191522 428.336632,91.8636258 C429.036167,91.4608692 429.867911,91.1935221 430.666185,91.1067211 C432.267752,90.9348552 433.596534,91.5355181 433.932914,93.3114664 C434.230802,94.8877725 433.529593,96.1220827 431.969864,96.4467184 C427.131691,97.455346 426.202883,100.903082 426.494077,105.352501 C426.676491,108.131868 426.527547,110.935541 426.532568,113.727061 C426.535915,115.577658 425.866503,116.969946 423.921862,116.999458 C421.87681,117.030707 421.014942,115.707859 421.026657,113.65762 C421.043392,110.435567 421.031678,107.213514 421.026657,103.991461" id="Fill-47" fill="#92948B"></path>
            <path d="M197.810477,135.109575 C196.525274,136.336718 196.482905,137.858308 195.940931,139.148426 C195.640815,139.859862 194.945252,140.84362 196.060977,141.279332 C196.880118,141.601011 198.034682,141.585693 198.873241,141.284438 C199.946597,140.899786 199.399327,139.878584 199.171592,139.126299 C198.784972,137.844692 198.315378,136.58521 197.810477,135.109575 M197.676308,145.207553 C195.517238,145.037353 193.534706,144.967571 192.953894,147.735026 C192.704974,148.917918 191.414475,149.244702 190.27933,148.826009 C189.098285,148.388595 188.73285,147.420156 189.191851,146.238966 C191.022559,141.514208 192.837378,136.784345 194.703394,132.074905 C195.199468,130.820529 196.092754,129.986548 197.646296,130.000164 C199.364019,130.015482 200.147852,131.00775 200.668641,132.403391 C202.287502,136.752007 203.954029,141.085304 205.548175,145.442429 C206.017768,146.730845 206.579162,148.250733 204.617815,148.853241 C203.030731,149.341716 202.165691,148.398807 201.858513,146.958913 C201.32007,144.428036 199.235146,145.391369 197.676308,145.207553" id="Fill-49" fill="#92948B"></path>
            <path d="M172.640796,149.99387 C171.175542,150.031117 169.745574,149.914055 168.394583,149.211681 C167.317486,148.652975 166.78818,147.778556 167.078878,146.560045 C167.401503,145.220924 168.453395,145.011631 169.552335,145.206735 C170.57062,145.387649 171.550257,145.822198 172.568542,145.95345 C173.769983,146.109533 174.915973,145.843482 175.223475,144.330542 C175.522575,142.872586 174.467323,142.446905 173.475924,142.062018 C172.504689,141.684227 171.503207,141.391571 170.526931,141.031516 C168.624789,140.329143 167.272117,139.064516 167.048632,136.836787 C166.808344,134.438785 167.698923,132.509033 169.596024,131.214254 C171.975382,129.59312 174.521094,129.733239 177.036559,130.824046 C178.071647,131.274559 178.703454,132.138336 178.389231,133.443757 C178.043082,134.883977 176.997912,134.903487 175.919135,134.727894 C174.374905,134.474259 172.202228,133.080154 171.693086,135.508308 C171.259558,137.57286 173.769983,137.454024 175.09745,137.947104 C178.794193,139.319925 180.451006,141.584901 179.894814,144.860869 C179.32686,148.197142 176.727377,150.038212 172.640796,149.99387" id="Fill-51" fill="#92948B"></path>
            <path d="M18.9629246,142.634483 C19.3023738,144.359773 19.6712651,146.177054 21.8794168,146.182261 C24.2607569,146.187468 24.8166915,144.446558 24.7526118,142.443556 C24.6954597,140.621067 24.2313149,138.907928 21.9989168,138.883628 C19.5777433,138.857593 19.2521492,140.768602 18.9629246,142.634483 Z M28.993995,142.492156 C28.993995,143.776576 29.009582,145.059261 28.9905313,146.341946 C28.9541617,148.740688 28.6770603,150.898167 25.3951407,149.329092 C24.5465177,148.924673 24.0096337,149.601597 23.3220759,149.747396 C20.52162,150.341007 18.0363668,150.019901 16.3027513,147.352125 C14.5570125,144.668728 14.5241067,140.296491 16.4568889,137.644336 C18.2182146,135.228237 20.5995547,134.424606 23.484873,135.412221 C23.7879526,135.514628 24.0615902,135.740269 24.3664018,135.783662 C28.9905313,136.441493 28.9905313,136.436286 28.9784081,141.530576 C28.9766762,141.849945 28.9784081,142.17105 28.9784081,142.492156 L28.993995,142.492156 Z" id="Fill-53" fill="#92948B"></path>
            <path d="M126.7801,142.571414 C126.673239,140.782516 126.418151,138.920602 123.951729,138.880617 C121.7042,138.845847 121.128529,140.593021 121.054416,142.348888 C120.971684,144.278604 121.604233,146.088363 123.941388,146.154426 C126.163064,146.215273 126.688751,144.574146 126.7801,142.571414 Z M130.978706,142.687892 C130.978706,143.87006 131.03386,145.053967 130.966641,146.232657 C130.832203,148.610901 130.868398,151.286425 127.242016,149.135923 C126.516395,148.706517 126.13721,149.544466 125.568434,149.68876 C122.77281,150.396322 120.287429,149.987779 118.443214,147.522611 C116.478349,144.897503 116.523162,140.405265 118.556969,137.531554 C120.252958,135.134188 122.565982,134.544842 125.299557,135.321944 C125.901082,135.492315 126.642215,135.959967 127.088618,135.76178 C131.402703,133.840757 130.780496,137.084765 130.942511,139.468224 C131.013177,140.53739 130.954576,141.615249 130.954576,142.687892 L130.978706,142.687892 Z" id="Fill-55" fill="#92948B"></path>
            <path d="M48.933367,142.427239 C48.6892377,140.6693 48.329191,138.828146 45.840478,138.946036 C43.5906251,139.051789 43.184914,140.821863 43.1129046,142.553796 C43.0303573,144.559649 43.773283,146.234371 46.1513476,146.14422 C48.3467543,146.061004 48.8086679,144.370679 48.933367,142.427239 Z M52.9237382,142.718495 C52.9237382,144.006609 52.9132003,145.294724 52.9254946,146.582838 C52.9535958,149.009972 52.5531536,150.878865 49.4146001,149.308162 C48.5733203,148.886881 48.0112961,149.654896 47.2964717,149.793589 C44.3985348,150.355297 41.9115781,149.857735 40.1974045,147.213893 C38.4867436,144.571785 38.60793,139.913422 40.5679892,137.479353 C42.4736022,135.118099 44.8920623,134.381291 47.7952681,135.537646 C48.0955998,135.659003 48.4538901,135.979731 48.6769435,135.901716 C55.0646989,133.696492 52.3090243,138.753598 52.8938807,141.114853 C53.0203361,141.621084 52.9132003,142.182792 52.9132003,142.718495 L52.9237382,142.718495 Z" id="Fill-57" fill="#92948B"></path>
            <path d="M87.9131381,142.713483 C88.3579185,144.423136 88.68547,146.204243 90.9679865,146.181587 C93.4349662,146.157188 93.9452569,144.283715 93.8969862,142.420698 C93.8504394,140.674446 93.1815448,138.872426 90.9835021,138.884626 C88.5751368,138.896825 88.3596424,140.941089 87.9131381,142.713483 M90.9783302,149.999987 C86.8839369,150.006958 84.0738901,147.138365 84.001484,142.873817 C83.923906,138.332169 86.8960046,135 91.026601,135 C94.9830779,135 98.0017232,138.290342 97.9999993,142.603688 C97.9982753,147.082597 95.2364993,149.991273 90.9783302,149.999987" id="Fill-59" fill="#92948B"></path>
            <path d="M138.66041,150 C137.074128,149.951886 135.729351,149.654609 134.487082,148.960389 C133.47068,148.389892 132.673196,147.616628 133.133617,146.401744 C133.600988,145.173113 134.693837,145.164521 135.847496,145.417121 C137.143626,145.702369 138.889752,147.632093 139.619476,145.561463 C140.121596,144.142094 137.649221,144.09398 136.500773,143.509736 C134.631289,142.55948 133.2535,141.40302 133.455043,139.131342 C133.635737,137.095079 134.808508,135.715232 136.764864,135.302825 C138.985311,134.835429 141.275255,134.67734 143.057868,136.584725 C143.612111,137.175842 143.829291,137.866625 143.427942,138.627861 C142.957096,139.524847 142.187411,139.727614 141.254406,139.449239 C140.542056,139.236162 139.845343,138.93373 139.117356,138.816881 C138.768131,138.761893 138.194776,138.93373 138.019295,139.19664 C137.661383,139.734488 138.062731,140.219067 138.542264,140.48885 C139.09477,140.801592 139.706348,141.02498 140.30229,141.253522 C142.701693,142.169411 144.539903,143.502862 143.855352,146.437829 C143.203813,149.233609 141.019852,149.917518 138.66041,150" id="Fill-61" fill="#92948B"></path>
            <path d="M157.984144,139.495406 L157.984144,147.614301 C157.982382,148.955439 157.575412,150.025889 156.005671,149.999523 C154.485259,149.973157 154.000771,148.943135 154.000771,147.591451 C153.999009,142.181198 153.999009,136.769187 154.014865,131.357177 C154.018389,130.016038 154.47645,129.008867 156.04443,129.000078 C157.665263,128.989532 158,130.049435 158,131.376511 L158,139.495406 L157.984144,139.495406 Z" id="Fill-63" fill="#92948B"></path>
            <path d="M75.039225,142.71063 C75.039225,141.38594 75.0320454,140.06125 75.0410199,138.736561 C75.0446098,138.184904 75.0787131,137.633248 75.1002521,137.083377 C75.1487148,135.921149 76.1807903,134.703577 76.8215746,135.119551 C79.0580375,136.572782 81.947849,133.39317 83.7050698,136.215723 C84.2076457,137.022677 84.1466186,138.393784 82.9009483,138.70264 C79.402661,139.573865 79.0759866,142.010794 79.1370137,145.03687 C79.1747069,146.857872 80.3539654,150.005349 77.1213253,149.999993 C73.8850953,149.994637 75.4089773,146.857872 75.0733284,145.024373 C74.9333251,144.276334 75.0499945,143.483663 75.0499945,142.71063 L75.039225,142.71063 Z" id="Fill-65" fill="#92948B"></path>
            <path d="M320.828747,105.981771 C319.380334,105.983469 317.928548,105.99196 316.478449,105.981771 C315.011488,105.973279 314.104332,105.260011 314.006535,103.751959 C313.917168,102.383164 314.753505,101.459312 315.955738,101.297977 C319.349983,100.837749 322.776265,100.978705 326.177254,101.264012 C327.534615,101.377795 328.001682,102.603937 327.999995,103.816493 C327.998309,105.180193 327.091154,105.901953 325.80124,105.959693 C324.147115,106.036115 322.486245,105.980072 320.828747,105.981771" id="Fill-67" fill="#92948B"></path>
            <path d="M349.181521,40 C347.013004,39.818733 345.613961,38.8946265 346.094658,36.8420438 C346.803148,33.8173723 348.474825,31.1747832 350.374294,28.7347867 C351.138387,27.7538121 352.322193,27.8835425 353.428871,28.3793611 C354.45663,28.8431915 355.20458,29.8259432 354.949882,30.7056215 C354.029742,33.8706861 352.654017,36.872255 350.480119,39.4206563 C350.168025,39.7849675 349.513345,39.861384 349.181521,40" id="Fill-69" fill="#92948B"></path>
            <path d="M35.9353869,142.386842 C35.9353869,144.243664 36.0033542,146.105796 35.9105208,147.957308 C35.8508421,149.168048 35.2341628,150.003529 33.9577028,149.999989 C32.6630077,149.996449 32.0844564,149.136186 32.0595903,147.920136 C31.9916229,144.424213 31.9916229,140.92475 32.0115158,137.428827 C32.0198045,136.057009 32.6514035,135.05691 34.0008041,135.002037 C35.5126631,134.940084 35.8160296,136.303051 35.9221249,137.476619 C36.0713215,139.09802 35.960253,140.747741 35.960253,142.386842 L35.9353869,142.386842 Z" id="Fill-71" fill="#92948B"></path>
            <path d="M289.86728,41 C291.675219,41.0438171 292.537819,41.7814046 292.903984,43.1306057 C293.266628,44.4688524 292.557184,45.3871854 291.529105,45.8764762 C289.26698,46.9536461 286.969647,47.9815219 284.615981,48.8140464 C283.109072,49.3471543 281.753557,48.7209351 281.184946,47.1033545 C280.663865,45.6153994 281.269445,44.4232096 282.679532,43.8115962 C285.166989,42.7307748 287.566426,41.3779223 289.86728,41" id="Fill-73" fill="#92948B"></path>
            <path d="M149.98557,142.583978 C149.98557,144.328794 150.026003,146.075378 149.971506,147.818426 C149.934588,149.004618 149.516188,149.95039 148.09222,149.99812 C146.712201,150.044083 146.049441,149.243271 146.030103,148.012884 C145.977363,144.305813 145.998459,140.595206 146.058231,136.888134 C146.074053,135.760279 146.796584,135.040786 147.907631,135.001894 C149.203266,134.955932 149.920524,135.749673 149.9592,137.022487 C150.017213,138.875139 149.973264,140.729558 149.973264,142.583978 L149.98557,142.583978 Z" id="Fill-75" fill="#92948B"></path>
            <g id="Group-79" transform="translate(429.000000, 110.000000)">
                <mask id="mask-6" fill="white">
                    <use xlink:href="#path-5"></use>
                </mask>
                <g id="Clip-78"></g>
                <path d="M4.13622,7.3647 C2.01222,7.1793 0.82242,6.2685 0.84222,4.2129 C0.86202,2.0493 2.09862,0.8433 4.14522,0.9081 C5.97762,0.9657 7.33662,2.1303 7.29882,4.0833 C7.25562,6.0993 6.11262,7.3503 4.13622,7.3647" id="Fill-77" fill="#92948B" mask="url(#mask-6)"></path>
            </g>
            <path d="M148.04468,129 C149.242501,129.212675 150.038974,129.905032 149.998528,131.100357 C149.956526,132.26774 149.262723,133.076524 147.954454,132.994249 C146.719298,132.91663 145.975716,132.159074 146.000606,130.969958 C146.02394,129.766871 146.851525,129.12419 148.04468,129" id="Fill-80" fill="#92948B"></path>
            <path d="M34.4445075,133 C32.978165,132.945209 32.1030393,132.458353 32.007883,131.152765 C31.9142867,129.867528 32.6614974,129.084802 33.8579705,129.006529 C35.0248047,128.928257 35.9124099,129.554438 35.9935267,130.847502 C36.0715237,132.090472 35.4381885,132.832497 34.4445075,133" id="Fill-82" fill="#92948B"></path>
            <path d="M210.329218,148.999379 C208.85538,149.022158 207.976248,148.418525 208.000489,147.102247 C208.023113,145.888473 208.781041,144.988718 210.051257,145.000107 C211.116235,145.011496 211.950117,145.615129 211.996983,146.833785 C212.045464,148.101251 211.510551,148.931043 210.329218,148.999379" id="Fill-84" fill="#92948B"></path>
            <path d="M186,147.005542 C185.793506,148.372388 185.115492,149.09985 183.761089,148.988937 C182.548143,148.889441 181.962807,148.139144 182.001829,146.969659 C182.040851,145.798543 182.749759,145.030304 183.883034,145.000944 C185.165896,144.968323 185.866673,145.783863 186,147.005542" id="Fill-86" fill="#92948B"></path>
        </g>
    </g>
</svg>