<?xml version="1.0" encoding="UTF-8"?>
<svg width="600px" height="250px" viewBox="0 0 600 250" version="1.1" xmlns="http://www.w3.org/2000/svg" xmlns:xlink="http://www.w3.org/1999/xlink">
    <!-- Generator: Sketch 50.1 (55044) - http://www.bohemiancoding.com/sketch -->
    <title>RAPT</title>
    <desc>Created with Sketch.</desc>
    <defs></defs>
    <g id="RAPT" stroke="none" stroke-width="1" fill="none" fill-rule="evenodd">
        <g id="Grid-Logo" opacity="0.400000006" transform="translate(1.000000, 0.000000)"></g>
        <g transform="translate(75.000000, 69.000000)" fill-rule="nonzero" id="Shape">
            <path d="M0,0 C143.307058,0 286.692942,0 430,0 C430,37.2952889 430,74.5905777 430,111.964882 C368.751604,112.043897 307.582035,111.964882 246.333639,111.964882 C164.19615,111.964882 82.0586618,111.964882 1.82031801e-14,111.964882 C0,74.6695932 0,37.2952889 0,0 Z M6.70027498,6.8743435 C6.70027498,39.5077213 6.70027498,72.141099 6.70027498,104.853492 C145.593034,104.853492 284.406966,104.853492 423.299725,104.853492 C423.299725,72.2201144 423.299725,39.5077213 423.299725,6.8743435 C284.406966,6.8743435 145.514207,6.8743435 6.70027498,6.8743435 Z" fill="#1F191A"></path>
            <path d="M442.155579,0.382528602 C444.481674,-0.410673516 447.25798,0.0219821843 449.058827,1.75260499 C451.835133,4.34853919 451.610028,9.46829832 448.53358,11.7036861 C445.607203,13.9390739 440.879979,13.2179811 439.004096,10.0451726 C436.828073,6.65603626 438.328779,1.53627714 442.155579,0.382528602 Z M442.905932,1.82471427 C439.304238,2.97846281 438.854026,8.38665906 441.705367,10.5499376 C443.281109,11.6315768 445.532168,11.8479047 447.107909,10.6941561 C449.283933,9.17986118 449.734145,5.86283414 448.308474,3.62744636 C447.25798,1.82471427 444.85685,1.10362144 442.905932,1.82471427 Z" fill="#1F191A"></path>
            <path d="M13,13 C147.359601,13 281.640399,13 416,13 C416,40.6290879 416,68.336224 416,95.9653119 C281.640399,96.0433602 147.359601,95.9653119 13,95.9653119 C13,68.336224 13.0788033,40.6290879 13,13 Z M307.645483,25.956013 C302.759679,26.1121095 297.795072,27.4389301 293.854908,30.4047644 C289.678334,33.2145021 286.605006,37.4291088 284.79253,42.1900533 C283.295268,46.1705151 282.901251,50.46317 282.980055,54.5997283 C282.901251,58.814335 283.374071,63.1069899 284.79253,67.0874517 C286.841416,72.2386376 290.466367,76.8434855 295.273367,79.6532233 C298.898318,82.0727197 303.232499,82.9312507 307.487876,83.1653955 C310.640008,83.3995403 313.792139,83.2434437 316.944271,82.6971058 C323.248533,81.6824783 329.079977,77.7800648 332.704928,72.3947341 C335.699452,68.1801275 337.117912,62.9508933 337.275518,57.7997074 C337.433125,52.8826664 337.433125,47.7314805 335.778256,43.0485843 C333.808174,36.8827709 329.39519,31.731585 323.87896,28.7657507 C318.993156,26.1121095 313.161713,25.6438199 307.645483,25.956013 Z M26.4753618,26.8145439 C26.4753618,45.2339358 26.4753618,63.731376 26.4753618,82.1507679 C31.0459523,82.1507679 35.6953461,82.1507679 40.2659366,82.1507679 C40.2659366,73.4093616 40.2659366,64.6679553 40.2659366,56.0045972 C47.279429,64.7460036 54.3717247,73.4093616 61.3852171,82.1507679 C67.1378569,82.1507679 72.8904967,82.1507679 78.6431365,82.1507679 C73.520923,75.4386167 68.4775127,68.7264654 63.3552992,62.0143141 C66.0346109,60.9216383 68.6351193,59.4387211 70.6052014,57.1753213 C74.3877591,53.2729077 76.2002346,47.4973357 75.4122018,42.0339567 C74.5453657,34.3071779 68.2411029,27.126737 60.4395776,26.8145439 C49.1707079,26.8145439 37.8230348,26.8145439 26.4753618,26.8145439 Z M108.115565,26.8145439 C100.944466,45.2339358 93.7733672,63.6533278 86.6022683,82.1507679 C91.8032851,82.1507679 97.0043019,82.1507679 102.205319,82.1507679 C103.229761,79.2629819 104.175401,76.4532442 105.199844,73.5654582 C112.292139,73.5654582 119.384435,73.5654582 126.476731,73.5654582 C127.343567,76.4532442 128.289206,79.2629819 129.234846,82.1507679 C134.593469,82.1507679 139.873289,82.1507679 145.231912,82.1507679 C137.98201,63.731376 130.732108,45.3119841 123.482206,26.8145439 C118.359992,26.8145439 113.237779,26.8145439 108.115565,26.8145439 Z M153.900274,26.8145439 C153.900274,45.2339358 153.900274,63.6533278 153.900274,82.1507679 C158.628471,82.1507679 163.356668,82.1507679 168.084865,82.1507679 C168.084865,70.2093825 168.084865,58.2679971 168.084865,46.3266116 C174.310325,58.2679971 180.693391,70.2093825 186.91885,82.1507679 C193.853539,82.1507679 200.867032,82.2288162 207.801721,82.0727197 C207.722917,63.6533278 207.801721,45.2339358 207.801721,26.8145439 C203.23113,26.8145439 198.66054,26.8145439 194.168752,26.8145439 C194.168752,38.6778811 194.168752,50.5412183 194.168752,62.4045554 C187.470473,50.5412183 180.772194,38.6778811 174.073915,26.8145439 C167.296832,26.8145439 160.598553,26.8145439 153.900274,26.8145439 Z M221.355886,27.0486887 C221.355886,45.3900324 221.355886,63.731376 221.355886,82.1507679 C227.502542,82.1507679 233.728002,82.1507679 239.874658,82.1507679 C246.021314,82.3068645 252.246774,81.5263818 258.078217,79.575175 C263.20043,77.9361613 267.613414,74.3459409 270.213923,69.5069481 C273.76007,63.1069899 273.76007,55.3802111 272.972038,48.2778184 C272.184005,40.4729913 266.982988,33.2925504 259.890692,30.3267161 C253.11361,27.8291715 245.863707,26.9706405 238.692609,27.0486887 C232.939969,27.0486887 227.108526,27.0486887 221.355886,27.0486887 Z M348.859601,27.0486887 C348.859601,45.3900324 348.859601,63.8094243 348.859601,82.1507679 C353.508995,82.1507679 358.158389,82.1507679 362.807783,82.1507679 C362.807783,70.2874308 362.807783,58.4240936 362.807783,46.5607565 C369.190849,58.4240936 375.652718,70.2874308 381.956981,82.1507679 C388.89167,82.1507679 395.747556,82.2288162 402.682245,82.1507679 C402.603442,63.8094243 402.682245,45.4680807 402.682245,27.126737 C398.032851,27.126737 393.383457,27.126737 388.734063,27.126737 C388.734063,38.9120259 388.734063,50.6973148 388.734063,62.4826037 C382.114587,50.6973148 375.495111,38.9120259 368.875636,27.126737 C362.25616,27.0486887 355.55788,27.126737 348.859601,27.0486887 Z" fill="#1F191A"></path>
            <path d="M308.965585,37.208944 C312.104851,36.7479512 315.646587,36.9016155 318.061407,39.2065795 C321.683637,42.1262005 322.327589,46.966625 322.891047,51.2692244 C323.052035,54.5730062 323.132529,57.8767879 322.408083,61.1037375 C321.925119,65.1758406 319.751781,69.3247758 315.968563,71.168747 C313.875719,71.9370683 311.460899,72.2443969 309.207067,71.7834041 C305.423849,71.2455791 302.687053,67.9417974 301.479643,64.5611835 C299.869763,59.643927 299.708775,54.3425098 300.352727,49.1947568 C300.916185,45.814143 301.801619,42.2030327 304.377427,39.7444044 C305.584837,38.5150903 307.194717,37.5162725 308.965585,37.208944 Z" fill="#1F191A"></path>
            <path d="M236.079701,40.0137332 C241.499344,40.2476327 247.237789,39.234068 252.258929,41.7289967 C255.128152,42.976461 257.35977,45.3934232 258.475579,48.2781845 C260.468095,53.5019415 260.547795,59.4273972 258.475579,64.6511541 C257.200369,68.0037146 254.410847,70.6545763 251.06342,71.8240742 C246.281382,73.6173042 241.02114,72.7596724 236,72.993572 C236.079701,61.9223259 236.079701,51.0070128 236.079701,40.0137332 Z" fill="#1F191A"></path>
            <path d="M41.0810909,40.0205761 C46.5952724,40.0205761 52.1094539,39.9382716 57.6236354,40.1028807 C61.8403624,40.2674897 65.0029077,45.2880658 63.7054532,49.4855967 C62.9756351,52.3662551 60.5429079,54.9176955 57.6236354,54.9176955 C52.1094539,55 46.5952724,54.9176955 41,55 C41.0810909,49.9794239 41.0810909,44.9588477 41.0810909,40.0205761 Z" fill="#1F191A"></path>
            <path d="M111,64.9204545 C113.154286,57.9204545 115.16,50.9204545 117.388571,44 C119.617143,51 121.771429,58 124,65 C119.691429,64.9204545 115.382857,64.9204545 111,64.9204545 Z" fill="#1F191A"></path>
            <path d="M441,10.8350515 L441,3 L444.337209,3 C445.151163,3 445.802326,3.08247423 446.127907,3.24742268 C446.534884,3.41237113 446.77907,3.65979381 447.023256,3.98969072 C447.267442,4.31958763 447.348837,4.73195876 447.348837,5.22680412 C447.348837,5.80412371 447.186047,6.29896907 446.860465,6.71134021 C446.534884,7.12371134 445.965116,7.37113402 445.313953,7.45360825 C445.639535,7.6185567 445.965116,7.86597938 446.127907,8.11340206 C446.372093,8.36082474 446.616279,8.77319588 447.023256,9.43298969 L448,11 L446.127907,11 L444.988372,9.26804124 C444.581395,8.69072165 444.337209,8.27835052 444.174419,8.11340206 C444.011628,7.94845361 443.848837,7.86597938 443.686047,7.78350515 C443.523256,7.70103093 443.27907,7.70103093 442.872093,7.70103093 L442.546512,7.70103093 L442.546512,11 L441,11 L441,10.8350515 Z M442.546512,6.29896907 L443.686047,6.29896907 C444.418605,6.29896907 444.906977,6.29896907 445.069767,6.21649485 C445.232558,6.13402062 445.395349,6.05154639 445.476744,5.88659794 C445.55814,5.72164948 445.639535,5.55670103 445.639535,5.30927835 C445.639535,5.06185567 445.55814,4.81443299 445.395349,4.64948454 C445.232558,4.48453608 445.069767,4.40206186 444.825581,4.31958763 C444.662791,4.31958763 444.337209,4.31958763 443.686047,4.31958763 L442.465116,4.31958763 L442.465116,6.29896907 L442.546512,6.29896907 Z" fill="#1E191A"></path>
        </g>
    </g>
</svg>