<?xml version="1.0" encoding="UTF-8"?>
<svg width="600px" height="250px" viewBox="0 0 600 250" version="1.1" xmlns="http://www.w3.org/2000/svg" xmlns:xlink="http://www.w3.org/1999/xlink">
    <!-- Generator: Sketch 50.1 (55044) - http://www.bohemiancoding.com/sketch -->
    <title>RENT</title>
    <desc>Created with Sketch.</desc>
    <defs></defs>
    <g id="RENT" stroke="none" stroke-width="1" fill="none" fill-rule="evenodd">
        <g id="Grid-Logo" opacity="0.400000006" transform="translate(1.000000, 0.000000)"></g>
        <g id="RENT3" transform="translate(56.000000, 75.000000)" fill-rule="nonzero">
            <path d="M51.0207701,5.67896194 C44.3767477,6.90532965 37.907568,8.48208815 31.7880736,11.5480074 C28.9031692,12.9495705 26.1931074,14.7015244 23.9201524,17.0666622 C18.4126075,22.6729146 17.3635513,30.3815117 21.297512,37.3017295 C23.832731,41.6816142 27.4170063,45.1855219 31.0887029,48.601832 C36.5962477,53.770096 42.5408994,58.5003714 47.8736016,63.7562331 C51.8949835,67.6981293 55.7415228,71.7276232 58.7138486,76.6330941 C64.0465508,85.3928635 63.4346014,93.9774375 57.1402644,101.598437 C56.8780003,101.948828 56.7031576,102.386816 56.2660509,103 C55.1295734,100.459667 54.3427813,98.3573222 53.3811464,96.3425753 C49.4471858,88.1959897 43.1528488,81.9765534 36.5962477,76.1075079 C29.9522254,70.3260601 23.0459389,64.8074054 16.4019165,58.9383599 C11.1566357,54.3832798 6.43588291,49.3902113 3.11387171,43.2583727 C-2.83077991,32.2210632 -0.120718143,19.9573861 10.0201582,12.5991798 C17.538394,7.16812273 26.1056861,4.89058269 34.9352421,3.3138242 C48.6603937,0.948686459 62.6478093,1.38667493 76.4603821,1.03628415 C80.3069214,0.948686459 84.1534607,1.03628415 88,1.12388185 C78.6459158,2.96343342 69.4666744,5.06577808 60.6371183,8.65728353 C56.3534723,10.4092374 52.1572476,12.4239844 48.6603937,15.4899037 C42.6283207,20.6581676 42.1037926,26.6148108 47.0868094,32.7466494 C50.758506,37.3017295 55.4792588,40.6304419 59.8503261,44.309545 C63.6968654,47.6382574 67.4559834,50.9669697 70.5157305,55.0840614 C77.1597529,64.0190262 74.1874271,76.1951056 69.6415171,81.9765534 C67.106298,70.2384624 58.9761127,62.5298654 50.0591352,55.3468544 C45.1635398,51.3173605 39.9182589,47.7258551 35.1100848,43.5211658 C30.8264388,39.7544649 26.8050568,35.724971 25.3188939,29.8559255 C24.1824164,25.12565 25.1440512,21.0085584 28.4660624,17.4170529 C32.2251804,13.387559 36.9459331,11.110019 41.9289499,9.1828697 C44.8138544,8.04409968 47.8736016,7.16812273 50.9333487,6.46734118 C53.3811464,5.94175502 55.8289442,5.50376655 58.2767419,4.97818038 C55.9163655,4.62778961 53.4685678,5.06577808 51.0207701,5.67896194" id="Shape" fill="#C8D433"></path>
            <path d="M205.966289,39.1531591 C205.704306,30.4335988 200.11533,23.9159476 191.644538,22.2424967 C182.387797,20.392893 172.9564,20.5690457 163.874315,23.035184 C157.586717,24.7967113 152.871019,28.8482242 150.076531,34.7493408 C145.44816,44.7019702 143.177639,55.447287 143.002983,66.3687565 C142.828328,77.6425314 150.338514,85.1290226 161.429138,85.9217099 C164.136298,86.0978626 166.930786,85.9217099 169.637946,85.9217099 C169.637946,85.9217099 169.637946,85.8336335 169.637946,85.8336335 C172.345106,85.8336335 175.139594,86.0097863 177.846754,85.8336335 C186.754185,85.0409462 194.439026,81.6940443 198.54343,73.3267894 C203.957751,62.669549 206.3156,51.0434686 205.966289,39.1531591 Z M188.85005,48.3131013 C188.151428,53.2453778 187.365479,58.089578 185.793579,62.8457018 C182.125814,73.7671713 175.750888,74.1194767 165.795525,72.0937203 C161.429138,71.2129566 159.857238,66.8091383 160.119222,62.669549 C160.468533,55.447287 161.691121,48.3131013 164.660264,41.6192974 C167.018114,36.3347154 171.209846,33.8685771 176.187527,34.8374171 C186.404874,34.7493408 190.072639,38.88893 188.85005,48.3131013 Z" id="Shape" fill="#00984B"></path>
            <path d="M291.205715,85.8246612 C284.923757,85.8246612 278.641798,86 272.536797,84.334281 C264.13136,82.0548761 260.238315,76.4440332 261.123098,67.85243 C262.273316,56.3677359 270.147883,48.1268104 282.623321,45.2337195 C287.84354,44.0063476 293.063759,43.9186782 298.372456,43.8310088 C299.788108,43.8310088 301.911587,44.8830418 302.530935,42.2529592 C303.238762,39.0968601 302.442457,36.4667774 300.142022,35.2394056 C298.726369,34.4503808 297.13376,34.4503808 295.541151,34.4503808 C289.524627,34.4503808 283.596582,34.3627114 277.580059,34.4503808 C275.102667,34.4503808 274.040928,33.7490254 274.837232,31.1189428 C275.45658,28.8395379 275.810493,26.4724635 276.341363,24.1930586 C276.695276,22.4396702 277.668537,21.1246289 279.526581,21.2122983 C288.462888,21.2999677 297.487673,20.3356041 306.335502,21.9136537 C316.598983,23.7547115 321.288332,30.5052569 319.695723,40.762579 C318.633983,47.425455 317.041374,54.088331 315.625721,60.7512069 C314.298547,66.8880663 312.971373,73.1125952 311.55572,79.2494546 C310.493981,84.0712728 308.282024,85.9123306 303.238762,86 C299.16876,85.9123306 295.187238,85.8246612 291.205715,85.8246612 M289.878541,72.4112398 C291.382671,72.4112398 292.886802,72.3235704 294.302455,72.4112398 C295.364194,72.4989093 295.983542,72.235901 296.160499,71.0961985 C297.222238,66.0990416 298.283978,61.1018846 299.345717,56.1047276 C299.522674,55.140364 299.345717,54.6143475 298.195499,54.7020169 C293.860063,54.7020169 289.436149,54.4390086 285.27767,55.9293888 C280.942234,57.5074384 278.464842,60.4881987 277.933972,65.0470085 C277.580059,68.5537853 279.08419,70.6578514 282.446365,71.7098845 C284.835278,72.4112398 287.401149,72.4112398 289.878541,72.4112398" id="Shape" fill="#00984B"></path>
            <path d="M460.418626,85.9781195 C454.049786,85.9781195 447.680945,86.1531633 441.489016,84.402726 C432.73186,81.9521138 428.751335,75.5630178 430.343545,66.6357878 C432.466492,54.6452926 441.223648,46.8558468 454.757435,44.6678002 C459.445609,43.9676253 464.045327,43.8801035 468.733502,44.0551472 C470.856449,44.1426691 471.475641,43.2674504 471.74101,41.4294913 C472.271746,37.2284419 470.1488,34.6903079 465.637537,34.602786 C459.445609,34.5152641 453.25368,34.602786 447.150208,34.5152641 C443.523507,34.5152641 443.169683,34.0776548 443.965788,30.4892584 C444.408068,28.3012119 444.938805,26.1131653 445.469542,23.8375969 C445.823366,22.1746815 446.973296,21.211941 448.653962,21.211941 C457.499574,21.2994628 466.433642,20.3367223 475.190798,21.9121159 C486.070901,23.8375969 490.67062,30.9268678 488.459217,42.3047099 C485.982445,54.9953801 483.151849,67.5110065 480.321253,80.1141547 C479.436692,83.9651167 477.048377,85.7155539 472.714027,85.8905977 C468.556589,86.0656414 464.487608,85.9781195 460.418626,85.9781195 M459.091784,72.5872745 C460.507082,72.5872745 461.833924,72.5872745 463.249222,72.5872745 C464.399152,72.6747964 465.018345,72.4122308 465.283713,71.0994028 C466.168274,66.2857004 467.229748,61.4719979 468.291221,56.7458173 C468.556589,55.6080331 468.556589,54.9078582 467.052835,54.9078582 C463.514591,54.9953801 459.88789,54.7328145 456.349645,55.5205112 C451.396102,56.7458173 447.946313,59.3714732 447.061752,64.622785 C446.442559,68.2111814 447.946313,70.8368372 451.396102,71.8870996 C453.961329,72.6747964 456.526557,72.5872745 459.091784,72.5872745" id="Shape" fill="#00984B"></path>
            <path d="M395.812834,74.5789474 C404.109064,74.5789474 411.610975,74.5789474 419.112885,74.5789474 C423.525773,74.5789474 423.878804,75.0175439 422.907969,79.1403509 C420.436751,89.4035088 422.290165,87.9122807 411.699232,87.9122807 C399.872692,88 388.046151,87.9122807 376.307867,88 C374.277939,88 373.748392,87.8245614 374.101423,85.4561404 C375.072259,77.9122807 378.690827,72.122807 383.986293,66.7719298 C393.60639,57.122807 402.785198,46.9473684 412.052263,37.122807 C411.434459,36.0701754 410.463624,36.4210526 409.757562,36.4210526 C402.608682,36.4210526 395.459803,36.4210526 388.310924,36.4210526 C385.221902,36.4210526 384.868871,35.9824561 385.486675,32.9122807 C385.839706,31.1578947 386.192737,29.4035088 386.634026,27.7368421 C387.604862,23.4385965 388.046151,23.0877193 392.370781,23.0877193 C405.697704,23.0877193 418.936369,23.1754386 432.263292,23 C434.999283,23 435.175799,23.7894737 434.911025,26.245614 C434.381479,31.9473684 431.998519,36.3333333 427.938662,40.4561404 C417.789018,50.8070175 408.080664,61.4210526 398.195794,71.9473684 C397.57799,72.5614035 396.960185,73.3508772 395.812834,74.5789474" id="Shape" fill="#00984B"></path>
            <path d="M123.000149,84.9438193 C118.144031,84.684332 112.228397,85.4627941 106.22447,84.5113404 C97.7483378,83.2139035 93.1570994,77.7646686 94.1283229,69.4610725 C95.2761325,58.9085859 98.278096,48.7020824 100.397129,38.3225874 C102.781041,26.818647 105.518126,15.3147067 107.902038,3.81076631 C108.520089,0.956405168 109.844485,-0.0815443375 112.758156,0.00495145468 C116.024998,0.177943039 119.291841,0.0914472468 122.558684,0.00495145468 C125.030889,-0.0815443375 125.64894,1.04290096 125.119182,3.29179156 C120.881116,22.7533448 116.731343,42.3013938 112.493276,61.762947 C111.080588,68.2501315 113.376207,71.1044926 120.263064,71.2774842 C124.76601,71.36398 129.180662,71.2774842 133.683607,71.2774842 C134.831417,71.2774842 135.714347,71.36398 136.244106,72.6614169 C137.480208,75.948257 139.334362,78.9756097 141.276809,81.9164666 C142.601205,83.9923656 142.15974,84.8573235 139.510948,84.9438193 C134.478245,85.0303151 129.268955,84.9438193 123.000149,84.9438193" id="Shape" fill="#00984B"></path>
            <path d="M251.745668,23.0043397 C255.668588,23.0043397 259.591509,23.0043397 263.51443,23.0043397 C265.69383,23.0043397 266.304062,23.9710165 265.868182,25.9922497 C265.25795,28.4528814 264.734894,31.0013928 264.211838,33.5499043 C263.775958,35.6590172 262.729845,36.5378142 260.550445,36.5378142 C255.232708,36.4499345 249.914971,36.6256939 244.684411,36.4499345 C239.366674,36.2741751 235.792457,38.6469271 233.700233,43.3045514 C230.736248,49.983409 229.428608,57.101665 229.16708,64.3078008 C228.905552,70.8987786 232.915649,74.5018465 239.45385,74.5018465 C243.638298,74.5018465 247.909923,74.5897262 252.094372,74.5018465 C254.709652,74.4139668 255.40706,75.4685232 254.796828,77.9291549 C251.832844,90.1444338 254.709652,87.6838021 243.028066,87.9474412 C239.105146,88.0353209 235.182225,88.0353209 231.259305,87.7716818 C218.793135,86.9807645 211.121645,78.4564332 212.080582,65.9775152 C212.77799,57.1895447 214.52151,48.5773337 217.57267,40.2287618 C221.321239,29.8589567 228.992728,24.5861744 239.715378,23.531618 C243.638298,22.91646 247.648395,23.0043397 251.745668,23.0043397" id="Shape" fill="#00984B"></path>
            <path d="M344.810703,1 C352.771421,1 352.771421,1 351.145038,8.86816975 C345.923491,33.7696301 340.701945,58.6710904 335.480398,83.5725507 C335.138002,85.3018188 334.624407,86.0799894 332.741226,85.993526 C329.745257,85.8205992 326.749288,85.993526 323.753318,85.9070626 C319.558961,85.8205992 318.360573,84.3507213 319.302164,79.9410877 C321.185344,70.9488937 323.154124,61.8702363 325.122904,52.8780423 C328.546869,37.1417028 331.885235,21.4053633 335.3092,5.66902381 C336.25079,1.17292681 336.336389,1.0864634 340.701945,1.0864634 C342.15713,1 343.441117,1 344.810703,1" id="Shape" fill="#00984B"></path>
            <path d="M368.947202,23.0877851 C370.794981,23.0877851 372.73075,23.0877851 374.578529,23.0877851 C376.690277,23.0877851 377.306203,24.0534214 376.866256,26.1602641 C372.73075,45.2096339 368.683234,64.3467887 364.547728,83.3961585 C363.843812,86.7319928 362.34799,87.9609844 359.00439,87.9609844 C355.5728,88.0487695 352.05322,87.9609844 348.62163,87.9609844 C347.125809,87.9609844 346.773851,87.6098439 347.125809,86.117497 C351.437294,66.102491 355.660789,45.9996999 359.884285,25.8969088 C360.324232,23.8778511 361.380106,23 363.403864,23 C365.163654,23.0877851 367.011433,23.0877851 368.947202,23.0877851" id="Shape" fill="#00984B"></path>
            <path d="M370.175747,18.9090909 C359.819439,18.9090909 361.605009,19.5454545 363.301301,10.3636364 C363.747693,8.18181818 364.283365,6 364.729757,3.81818182 C365.086871,1.90909091 366.158213,1 368.033062,1 C371.961317,1 375.800294,1 379.728548,1 C381.603397,1 382.317626,1.90909091 381.871233,3.72727273 C380.978448,8 380.085663,12.2727273 379.192877,16.5454545 C378.835763,18.2727273 377.496585,19 375.800294,19 C373.925445,18.9090909 372.050596,18.9090909 370.175747,18.9090909" id="Shape" fill="#00984B"></path>
        </g>
    </g>
</svg>