<?xml version="1.0" encoding="UTF-8"?>
<svg width="600px" height="250px" viewBox="0 0 600 250" version="1.1" xmlns="http://www.w3.org/2000/svg" xmlns:xlink="http://www.w3.org/1999/xlink">
    <!-- Generator: Sketch 50.1 (55044) - http://www.bohemiancoding.com/sketch -->
    <title>SANB</title>
    <desc>Created with Sketch.</desc>
    <defs></defs>
    <g id="SANB" stroke="none" stroke-width="1" fill="none" fill-rule="evenodd">
        <g id="Grid-Logo" opacity="0.400000006" transform="translate(1.000000, 0.000000)"></g>
        <g id="SANB11" transform="translate(25.000000, 74.000000)" fill="#E51E36" fill-rule="nonzero">
            <path d="M56.6432337,4.79386385 C56.6432337,17.0661553 77.4253076,30.6807287 77.4253076,44.7746884 C77.4253076,44.7746884 77.4253076,46.1169703 76.8453427,47.5551294 C96.2741652,51.5819751 110,61.1697028 110,72.3873442 C110,87.4400767 85.4481547,100 55.0966608,100 C24.0685413,100 0,87.7277085 0,72.9626079 C0,61.7449664 14.8857645,52.6366251 32.8646749,47.8427613 C32.8646749,54.0747843 53.3567663,73.6337488 53.8400703,81.5915628 C53.9367311,82.4544583 54.0333919,83.3173538 53.8400703,84.1802493 C58.2864675,81.8791946 58.2864675,74.5925216 58.2864675,74.5925216 C58.2864675,57.3346117 38.3743409,49.7603068 38.3743409,32.7900288 C38.3743409,26.1744966 41.4674868,21.3806328 44.2706503,20.0383509 L44.2706503,24.7363375 C44.2706503,37.008629 65.8260105,50.7190796 65.8260105,62.0325983 L65.8260105,65.6759348 C70.8523726,63.7583893 70.8523726,54.5541707 70.8523726,54.5541707 C70.8523726,39.1179291 50.8435852,30.4889741 50.8435852,12.7516779 C50.8435852,6.13614573 53.9367311,1.34228188 56.7398946,0 L56.7398946,4.79386385 L56.6432337,4.79386385 Z" id="Shape"></path>
            <path d="M154.809524,94 C144.52381,94 137,91.0897959 137,91.0897959 L137,73.1591837 L139.571429,73.1591837 C140.904762,82.6408163 148.047619,89.7755102 156.333333,89.7755102 C164.619048,89.7755102 170.333333,85.2693878 170.333333,78.0408163 C170.333333,70.3428571 162.619048,66.8693878 157.571429,64.3346939 L150.142857,60.6734694 C143.095238,57.2 137.47619,51.4734694 137.47619,43.4938776 C137.47619,33.5428571 144.904762,25 159,25 C168.619048,25 176.619048,28.1918367 176.619048,28.1918367 L176.619048,44.1510204 L174.047619,44.1510204 C172.52381,35.6081633 167.761905,28.9428571 158.142857,28.9428571 C150.904762,28.9428571 146.714286,33.8244898 146.714286,38.8938776 C146.714286,45.4653061 151.285714,48.3755102 156.52381,51.0040816 L163.952381,54.6653061 C170.714286,58.044898 179,63.7714286 179,73.4408163 C178.904762,85.8326531 170.428571,94 154.809524,94" id="Shape"></path>
            <path d="M201.80285,73.2564103 C199.75772,74.0833333 196.154394,75.6452991 196.154394,80.1474359 C196.154394,82.5363248 197.615202,86.4871795 202.679335,86.4871795 C205.114014,86.4871795 208.522565,85.2008547 210.957245,83.3632479 L210.957245,69.6730769 L201.80285,73.2564103 Z M197.809976,92 C191.187648,92 187,87.8653846 187,81.6175214 C187,77.207265 190.408551,73.715812 197.809976,71.1431624 L210.859857,66.6410256 L210.859857,62.7820513 C210.859857,56.9935897 208.035629,53.3183761 203.750594,53.3183761 C200.828979,53.3183761 197.907363,54.6965812 196.446556,56.9017094 C195.862233,57.7286325 195.764846,58.9230769 195.764846,59.8418803 C195.764846,61.4038462 196.836105,63.241453 196.836105,63.241453 L190.408551,65.9978632 C189.629454,64.7115385 188.655582,62.7820513 188.655582,60.8525641 C188.655582,60.4850427 188.752969,60.1175214 188.752969,59.8418803 C189.239905,56.534188 192.258907,54.2371795 196.349169,51.9401709 C200.342043,49.6431624 203.750594,49 206.087886,49 C218.261283,49 220.4038,58.2799145 220.4038,61.3119658 L220.4038,80.5149573 C220.4038,83.5470085 220.695962,85.4764957 223.325416,85.4764957 C224.104513,85.4764957 224.591449,85.4764957 225.662708,85.1089744 L228,84.3739316 L228,87.1303419 L214.463183,91.9081197 C212.418052,90.5299145 211.444181,88.0491453 211.054632,85.8440171 C207.938242,88.508547 202.484561,92 197.809976,92 Z" id="Shape"></path>
            <path d="M229,92 L229,89.7417943 L232.211832,89.1772429 C234.158397,88.8008753 235.520992,87.3894967 235.520992,85.5076586 L235.520992,60.1969365 C235.520992,58.0328228 234.450382,56.9037199 232.503817,56.9037199 C231.822519,56.9037199 231.043893,56.9978118 230.265267,57.2800875 L229,57.750547 L229,54.9277899 L242.917939,49 L244.961832,49 L244.961832,56.0568928 C249.244275,51.3522976 254.208015,49 258.685115,49 C268.515267,49 273.284351,55.9628009 273.284351,63.9606127 L273.284351,85.5076586 C273.284351,87.3894967 274.744275,88.8949672 276.69084,89.1772429 L280,89.7417943 L280,92 L256.933206,92 L256.933206,89.7417943 L260.145038,89.1772429 C262.091603,88.8008753 263.648855,87.3894967 263.648855,85.5076586 L263.648855,64.0547046 C263.648855,61.2319475 262.870229,54.833698 255.083969,54.833698 C250.801527,54.833698 247.200382,57.3741794 245.156489,59.2560175 L245.156489,85.4135667 C245.156489,87.2954048 246.71374,88.7067834 248.660305,89.083151 L251.872137,89.6477024 L251.872137,91.9059081 L229,91.9059081 L229,92 Z" id="Shape"></path>
            <path d="M314.194529,56.1433566 L300.25228,56.1433566 L300.25228,79.7447552 C300.25228,84.9370629 303.161094,87.8636364 307.37386,87.8636364 C309.079027,87.8636364 311.787234,87.3916084 314.294833,86.0699301 L315.398176,88.3356643 L306.370821,93.7167832 C306.370821,93.7167832 304.56535,94 303.662614,94 C294.93617,94 290.322188,89.1853147 290.322188,78.8951049 L290.322188,56.1433566 L283,56.1433566 L283,53.7832168 C283,53.7832168 293.933131,49.8181818 298.246201,40 L300.25228,40 L300.25228,52.0839161 L316,52.0839161 L314.194529,56.1433566 Z" id="Shape"></path>
            <path d="M335.740476,73.2564103 C333.690476,74.0833333 330.078571,75.6452991 330.078571,80.1474359 C330.078571,82.5363248 331.542857,86.4871795 336.619048,86.4871795 C339.059524,86.4871795 342.47619,85.2008547 344.819048,83.3632479 L344.819048,69.6730769 L335.740476,73.2564103 Z M331.835714,92 C325.197619,92 321,87.8653846 321,81.6175214 C321,77.207265 324.416667,73.715812 331.835714,71.1431624 L344.916667,66.6410256 L344.916667,62.7820513 C344.916667,56.9935897 342.085714,53.3183761 337.790476,53.3183761 C334.861905,53.3183761 331.933333,54.6965812 330.469048,56.9017094 C329.883333,57.7286325 329.785714,58.9230769 329.785714,59.8418803 C329.785714,61.4038462 330.859524,63.241453 330.859524,63.241453 L324.416667,65.9978632 C323.635714,64.7115385 322.659524,62.7820513 322.659524,60.8525641 C322.659524,60.4850427 322.757143,60.1175214 322.757143,59.8418803 C323.245238,56.534188 326.271429,54.2371795 330.27381,51.9401709 C334.27619,49.6431624 337.692857,49 340.035714,49 C352.238095,49 354.385714,58.2799145 354.385714,61.3119658 L354.385714,80.5149573 C354.385714,83.5470085 354.678571,85.4764957 357.314286,85.4764957 C358.095238,85.4764957 358.583333,85.4764957 359.657143,85.1089744 L362,84.3739316 L362,87.1303419 L348.430952,91.9081197 C346.380952,90.5299145 345.404762,88.0491453 345.014286,85.8440171 C341.988095,88.508547 336.42381,92 331.835714,92 Z" id="Shape"></path>
            <path d="M362,92 L362,89.7417943 L365.211832,89.1772429 C367.158397,88.8008753 368.520992,87.3894967 368.520992,85.5076586 L368.520992,60.1969365 C368.520992,58.0328228 367.450382,56.9037199 365.503817,56.9037199 C364.822519,56.9037199 364.043893,56.9978118 363.265267,57.2800875 L362,57.750547 L362,54.9277899 L375.917939,49 L377.961832,49 L377.961832,56.0568928 C382.244275,51.3522976 387.208015,49 391.685115,49 C401.515267,49 406.284351,55.9628009 406.284351,63.9606127 L406.284351,85.5076586 C406.284351,87.3894967 407.744275,88.8949672 409.69084,89.1772429 L413,89.7417943 L413,92 L390.030534,92 L390.030534,89.7417943 L393.242366,89.1772429 C395.188931,88.8008753 396.746183,87.3894967 396.746183,85.5076586 L396.746183,64.0547046 C396.746183,61.2319475 395.967557,54.833698 388.278626,54.833698 C383.996183,54.833698 380.395038,57.3741794 378.351145,59.2560175 L378.351145,85.4135667 C378.351145,87.2954048 379.908397,88.7067834 381.854962,89.083151 L385.066794,89.6477024 L385.066794,91.9059081 L362,91.9059081 L362,92 Z" id="Shape"></path>
            <path d="M443.522989,52.7675879 C436.488506,52.7675879 429.356322,57.1017588 429.356322,69.821608 C429.356322,80.468593 434.827586,86.9698492 443.327586,86.9698492 C448.505747,86.9698492 451.729885,84.048995 452.413793,82.5414573 L452.413793,57.8555276 C451.143678,54.6520101 447.528736,52.7675879 443.522989,52.7675879 M439.126437,92.9057789 C430.04023,92.9057789 419,86.2160804 419,71.8002513 C419,59.1746231 428.965517,48.8103015 442.448276,48.8103015 C446.942529,48.8103015 450.166667,49.6582915 452.413793,50.6005025 L452.413793,28.8354271 C452.413793,26.5741206 451.143678,25.9145729 449.58046,25.9145729 C448.701149,25.9145729 447.724138,26.1030151 446.844828,26.3856784 L444.890805,27.0452261 L444.890805,24.218593 L460.034483,18 L462.086207,18 L462.086207,80.6570352 C462.086207,84.2374372 462.672414,86.4045226 465.310345,86.4045226 C466.091954,86.4045226 466.58046,86.4045226 467.655172,86.0276382 L470,85.2738693 L470,88.1005025 L456.41954,93 C454.270115,91.5866834 453.195402,88.9484925 452.706897,86.6871859 C450.166667,89.2311558 445.672414,92.9057789 439.126437,92.9057789" id="Shape"></path>
            <path d="M501.902913,63.3333333 L501.902913,63.1495726 C501.902913,56.1666667 497.825243,52.8589744 493.067961,52.8589744 C487.631068,52.8589744 483.650485,56.258547 482.485437,63.3333333 L501.902913,63.3333333 Z M482.097087,67.1004274 L482.097087,67.5598291 C482,79.8717949 489.378641,86.1196581 498.504854,86.1196581 C503.165049,86.1196581 507.339806,84.465812 510.737864,81.9850427 L510.737864,85.6602564 C506.854369,89.0598291 501.029126,92 493.747573,92 C478.699029,92 472,81.1581197 472,70.8675214 C472,58.8311966 481.514563,49 493.941748,49 C504.038835,49 512,55.8910256 512,65.9978632 L512,67.1923077 L482.097087,67.1923077 L482.097087,67.1004274 Z" id="Shape"></path>
            <path d="M517,92 L517,89.751634 L520.212389,89.1895425 C522.061947,88.8148148 523.522124,87.4095861 523.522124,85.5359477 L523.522124,60.335512 C523.522124,58.1808279 522.451327,57.0566449 520.504425,57.0566449 C519.823009,57.0566449 519.044248,57.1503268 518.265487,57.4313725 L517,57.8997821 L517,55.0893246 L530.725664,49.1873638 L532.769912,49.1873638 L532.769912,58.3681917 C536.274336,51.7167756 540.460177,49 545.132743,49 C549.026549,49 550,49.9368192 550,49.9368192 L550,59.9607843 L548.053097,59.9607843 C547.566372,57.3376906 545.716814,56.0261438 542.79646,56.0261438 C539.681416,56.0261438 535.787611,56.869281 533.159292,62.3028322 L533.159292,85.5359477 C533.159292,87.4095861 535.106195,88.9084967 536.955752,89.1895425 L541.628319,89.751634 L541.628319,92 L517,92 Z" id="Shape"></path>
        </g>
    </g>
</svg>