<?xml version="1.0" encoding="UTF-8"?>
<svg width="600px" height="250px" viewBox="0 0 600 250" version="1.1" xmlns="http://www.w3.org/2000/svg" xmlns:xlink="http://www.w3.org/1999/xlink">
    <!-- Generator: Sketch 50.1 (55044) - http://www.bohemiancoding.com/sketch -->
    <title>SBSP</title>
    <desc>Created with Sketch.</desc>
    <defs></defs>
    <g id="SBSP" stroke="none" stroke-width="1" fill="none" fill-rule="evenodd">
        <g id="Grid-Logo" opacity="0.400000006"></g>
        <g id="SBSP3" transform="translate(215.000000, 7.000000)">
            <path d="M22.944,207.693305 L17.952,207.693305 C17.744,206.272138 17.224,205.155508 16.288,204.444924 C15.352,203.734341 14.104,203.226782 12.232,203.226782 C10.776,203.226782 9.32,203.734341 8.384,204.140389 C7.448,204.850972 6.928,205.561555 6.928,206.475162 C6.928,208.099352 9.32,209.317495 13.688,210.231102 L13.896,210.231102 C17.744,211.144708 20.344,211.855292 21.592,213.073434 C22.84,213.987041 23.568,215.408207 23.568,217.539957 C23.568,220.077754 22.632,222.006479 20.968,223.427646 C18.992,224.848812 16.392,225.559395 13.064,225.559395 C9.424,225.559395 6.616,224.848812 4.64,223.427646 C2.456,222.006479 1.52,219.87473 1,217.133909 L6.512,217.133909 C6.512,218.555076 7.032,219.671706 8.176,220.686825 C9.424,221.600432 11.088,221.904968 12.96,221.904968 C14.624,221.904968 15.872,221.701944 16.808,221.194384 C17.744,220.483801 18.264,219.570194 18.264,218.656587 C18.264,217.235421 16.288,216.11879 12.752,215.408207 C12.024,215.205184 11.816,215.205184 11.504,214.900648 C7.656,214.190065 5.056,213.276458 3.808,212.058315 C2.56,211.144708 2.144,209.520518 2.144,207.388769 C2.144,205.053996 2.872,203.12527 4.744,201.704104 C6.408,200.485961 9.112,199.775378 12.232,199.775378 C15.56,199.775378 18.264,200.485961 20.136,201.907127 C22.008,203.226782 22.944,205.155508 22.944,207.693305 Z M45.304,211.043197 C44.368,211.956803 42.392,212.667387 39.792,213.174946 C39.064,213.37797 38.544,213.37797 38.336,213.37797 C36.36,213.885529 35.216,214.291577 34.28,215.00216 C33.552,215.712743 33.344,216.62635 33.344,217.844492 C33.344,219.062635 33.552,219.976242 34.592,220.686825 C35.528,221.600432 36.568,221.904968 37.92,221.904968 C40.312,221.904968 42.288,221.194384 43.432,219.773218 C44.68,218.352052 45.408,216.017279 45.408,213.174946 C45.408,212.667387 45.408,212.261339 45.408,211.24622 L45.408,211.043197 L45.304,211.043197 Z M50.608,209.62203 L50.608,218.352052 C50.608,219.570194 50.816,220.686825 50.816,221.904968 C51.024,222.818575 51.336,223.833693 51.752,224.7473 L46.032,224.7473 C45.824,224.036717 45.512,223.529158 45.512,222.818575 C45.512,222.311015 45.304,221.600432 45.304,220.889849 C44.056,222.514039 42.704,223.732181 41.248,224.442765 C39.792,225.153348 38.128,225.660907 36.152,225.660907 C33.552,225.660907 31.576,224.950324 29.912,223.529158 C28.248,222.107991 27.52,220.280778 27.52,217.844492 C27.52,216.62635 27.728,215.915767 28.04,215.00216 C28.248,214.291577 28.768,213.37797 29.496,212.87041 C30.952,211.449244 34.072,210.535637 38.856,210.028078 C39.376,210.028078 39.792,210.028078 40.312,210.028078 C41.976,209.825054 43.224,209.317495 44.16,208.809935 C44.888,208.302376 45.096,207.591793 45.096,206.678186 C45.096,205.460043 44.576,204.74946 43.64,204.140389 C42.912,203.632829 41.456,203.226782 40,203.226782 C38.336,203.226782 36.88,203.734341 35.944,204.444924 C35.008,205.155508 34.28,206.069114 33.968,207.287257 L28.456,207.287257 C28.976,204.74946 30.12,202.820734 32.096,201.602592 C34.072,200.384449 36.672,199.673866 39.792,199.673866 C43.64,199.673866 46.552,200.384449 48.216,202.008639 C49.88,203.531317 50.608,206.069114 50.608,209.62203 Z M70.888,203.734341 C68.704,203.734341 67.248,204.444924 66.104,206.069114 C64.856,207.693305 64.128,209.825054 64.128,212.362851 C64.128,214.900648 64.856,217.336933 66.104,218.656587 C67.352,220.280778 68.704,221.194384 70.888,221.194384 C72.864,221.194384 74.216,220.280778 75.672,218.656587 C76.92,217.032397 77.648,214.900648 77.648,212.362851 C77.648,209.825054 76.92,207.693305 75.672,206.069114 C74.528,204.444924 72.76,203.734341 70.888,203.734341 Z M58.616,188 L64.128,188 L64.128,204.241901 C65.064,202.617711 66.312,201.704104 67.768,200.688985 C69.224,199.978402 70.888,199.775378 72.864,199.775378 C75.776,199.775378 78.376,200.993521 80.56,203.328294 C82.536,205.866091 83.472,209.012959 83.472,212.768898 C83.472,216.524838 82.536,219.570194 80.352,221.904968 C78.376,224.442765 75.776,225.660907 72.656,225.660907 C70.68,225.660907 69.016,225.153348 67.56,224.239741 C66.104,223.529158 64.96,222.107991 64.232,220.280778 L64.232,224.7473 L58.72,224.7473 L58.72,188 L58.616,188 Z M113.008,213.784017 L93.04,213.784017 C93.04,216.321814 93.768,218.25054 95.224,219.468683 C96.68,220.889849 98.552,221.600432 100.736,221.600432 C102.192,221.600432 103.648,221.397408 104.584,220.686825 C105.832,219.976242 106.56,219.265659 107.184,218.149028 L112.696,218.149028 C111.76,220.483801 110.304,222.412527 108.328,223.529158 C106.144,224.950324 103.752,225.660907 100.84,225.660907 C96.784,225.660907 93.352,224.442765 90.96,222.107991 C88.568,219.773218 87.112,216.727862 87.112,212.667387 C87.112,208.911447 88.36,205.663067 90.752,203.226782 C93.144,200.892009 96.264,199.673866 100.424,199.673866 C104.272,199.673866 107.392,200.892009 109.576,203.226782 C111.76,205.358531 112.904,208.606911 112.904,212.87041 L112.904,213.784017 L113.008,213.784017 Z M107.184,210.028078 C106.976,207.896328 106.248,206.272138 105,205.053996 C103.544,203.835853 102.088,203.12527 99.904,203.12527 C97.928,203.12527 96.576,203.835853 95.12,205.053996 C93.872,206.272138 93.144,207.896328 92.728,210.028078 L107.184,210.028078 Z M138.8,207.693305 L133.496,207.693305 C133.496,206.272138 132.976,205.155508 132.04,204.444924 C131.104,203.734341 129.648,203.226782 127.984,203.226782 C126.32,203.226782 125.072,203.734341 124.136,204.140389 C123.2,204.850972 122.68,205.561555 122.68,206.475162 C122.68,208.099352 125.072,209.317495 129.44,210.231102 L129.648,210.231102 C133.496,211.144708 136.096,211.855292 137.344,213.073434 C138.592,213.987041 139.32,215.408207 139.32,217.539957 C139.32,220.077754 138.384,222.006479 136.408,223.427646 C134.744,224.848812 132.04,225.559395 128.712,225.559395 C125.072,225.559395 122.264,224.848812 120.08,223.427646 C118.104,222.006479 116.96,219.87473 116.752,217.133909 L122.264,217.133909 C122.264,218.555076 122.784,219.671706 123.928,220.686825 C125.176,221.600432 126.528,221.904968 128.712,221.904968 C130.376,221.904968 131.624,221.701944 132.56,221.194384 C133.496,220.483801 134.016,219.570194 134.016,218.656587 C134.016,217.235421 132.04,216.11879 128.192,215.408207 C127.672,215.205184 127.464,215.205184 126.944,214.900648 C123.304,214.190065 120.704,213.276458 119.456,212.058315 C118.208,211.144708 117.792,209.520518 117.792,207.388769 C117.792,205.053996 118.52,203.12527 120.392,201.704104 C122.056,200.485961 124.448,199.775378 127.88,199.775378 C131.208,199.775378 133.912,200.485961 135.784,201.907127 C137.76,203.226782 138.8,205.155508 138.8,207.693305 Z M150.76,221.092873 L150.76,235 L145.248,235 L145.248,200.688985 L150.76,200.688985 L150.76,204.952484 C151.488,203.328294 152.736,201.907127 154.088,200.993521 C155.544,200.282937 157.208,199.775378 159.184,199.775378 C162.304,199.775378 165.008,200.993521 166.88,203.531317 C169.064,205.866091 170,208.911447 170,212.667387 C170,216.423326 169.064,219.468683 166.88,222.107991 C164.904,224.442765 162.304,225.660907 159.184,225.660907 C157.208,225.660907 155.856,225.457883 154.4,224.442765 C152.944,223.732181 151.8,222.514039 150.76,221.092873 Z M157.312,203.937365 C155.336,203.937365 153.672,204.647948 152.528,206.272138 C151.28,207.896328 150.864,210.028078 150.864,212.565875 C150.864,215.408207 151.384,217.539957 152.528,219.164147 C153.984,220.585313 155.44,221.49892 157.312,221.49892 C159.496,221.49892 160.952,220.585313 162.408,219.164147 C163.656,217.539957 164.072,215.408207 164.072,212.87041 C164.072,210.332613 163.552,208.200864 162.096,206.576674 C160.848,204.952484 159.184,203.937365 157.312,203.937365 Z" id="Shape" fill="#0B0C0B"></path>
            <path d="M85,88.1515513 L170,88.1515513 L170,88.6676611 C170,135.01432 131.807082,173 85,173 C38.4004884,173 0.207570208,135.01432 0.207570208,88.6676611 L0,73.3908115 L0,0 L56.978022,0 L56.978022,88.1515513 L96.1050061,104.667064 C106.483516,109.002387 113.644689,119.22136 113.644689,130.678998 C113.644689,146.162291 100.879121,158.858592 85.3113553,158.858592 C69.7435897,158.858592 56.978022,146.162291 56.978022,130.678998 L56.978022,130.472554 L56.978022,88.1515513 L85,88.1515513 Z" id="Shape" fill="#007EC3"></path>
            <path d="M170,39.7840491 L170,4.74110429 C160.877064,1.85521472 151.23578,0 141.698165,0 C94.9431193,0 57,37.7226994 57,84 L170,84 L131.123853,68.2306748 C120.549541,63.9018405 113.39633,53.6981595 113.39633,41.9484663 C113.39633,26.4883436 126.147706,13.8110429 141.698165,13.8110429 C157.248624,13.8110429 170,26.4883436 170,41.9484663 L170,39.7840491 Z" id="Shape" fill="#007EC3"></path>
        </g>
    </g>
</svg>