<?xml version="1.0" encoding="UTF-8"?>
<svg width="600px" height="250px" viewBox="0 0 600 250" version="1.1" xmlns="http://www.w3.org/2000/svg" xmlns:xlink="http://www.w3.org/1999/xlink">
    <!-- Generator: Sketch 50.1 (55044) - http://www.bohemiancoding.com/sketch -->
    <title>SEER</title>
    <desc>Created with Sketch.</desc>
    <defs></defs>
    <g id="SEER" stroke="none" stroke-width="1" fill="none" fill-rule="evenodd">
        <g id="Grid-Logo" opacity="0.400000006" transform="translate(1.000000, 0.000000)"></g>
        <g id="SEER3" transform="translate(95.000000, 46.000000)">
            <path d="M53.7814236,85.6864813 C77.1277366,97.1409827 100.312483,98.3509653 123.335664,89.4777599 C124.143495,93.2690386 124.708977,97.1409827 125.032109,101.174258 C125.597591,103.271561 126.405421,104.884871 127.294035,106.014188 L119.377293,111.096115 C114.287958,113.838742 114.287958,118.517341 116.388318,124.083261 C120.831388,132.956466 125.274458,141.749006 129.717528,150.622211 C132.868069,156.268796 129.313613,160.221406 123.981929,155.946134 C115.580487,148.524908 107.098263,141.103682 98.6968216,133.682456 C95.9501966,130.536501 92.1533913,130.617166 87.4679721,133.682456 C79.2280969,141.426344 70.9882218,149.250898 62.6675635,156.994786 C58.5476259,161.270058 53.6198574,158.124103 55.7202178,153.042176 C60.5672032,143.28165 65.4949716,133.60179 70.341957,123.841264 C73.007799,118.678672 71.8768358,114.484066 67.8376813,111.17678 C59.6785892,105.368864 55.3163023,104.078216 47.0764271,98.2702998 C41.5023939,96.0923312 39.8867321,81.8145372 53.7814236,85.6864813 Z M139.411499,83.0245197 C146.358845,82.5405267 149.670951,89.3164289 144.420051,94.9630141 L139.492282,98.1896343 C139.815414,92.059056 139.411499,88.1064464 139.411499,83.0245197 Z" id="Shape" fill="#3D4A71"></path>
            <path d="M125.156112,101.671174 C122.811689,75.3342441 111.412944,54.6180002 90.9598762,39.5224427 C94.5169315,36.3909174 98.3973553,33.4199832 102.601148,30.6096401 C103.40957,30.0475714 104.056307,29.4052073 104.622202,28.7628431 L112.948945,32.7776191 C117.880317,35.6682577 121.922425,33.2593922 125.641165,28.6825476 C130.895905,20.3318136 136.150646,11.9810797 141.486229,3.6303457 C144.719915,-1.91004511 149.974656,-1.0267944 149.00455,5.71802919 C146.983496,16.7185153 145.043284,27.7190014 143.02223,38.7194875 C141.809597,42.6539679 143.830652,45.8657887 148.842866,48.2746542 C159.756558,51.3258839 170.751092,54.2968181 181.664784,57.3480479 C187.48542,58.6327762 187.323736,64.494349 181.907311,65.2973042 C171.074461,66.1805549 160.160769,67.0638056 149.327919,67.8667608 C143.507283,68.2682384 140.516123,71.3997637 139.788543,76.4583814 C139.060964,86.4150257 140.192754,90.7509837 139.465175,100.707628 C140.435281,106.729792 129.036536,115.401708 125.156112,101.671174 Z M77.4592348,28.120479 C75.5998651,23.0618613 79.5611311,18.4047212 86.1901886,19.769745 L89.6664016,21.4559509 L77.4592348,28.120479 Z" id="Shape" fill="#D2DBF0"></path>
            <path d="M63.5073442,90.2081709 C67.0527285,65.0608648 80.0256123,45.1192111 102.264842,30.463297 C111.047726,23.8961661 106.535418,14.6060785 97.5108035,16.8485134 C88.8084963,21.5736442 80.1061892,26.3788619 71.3233052,31.1039927 C66.569267,34.2273843 62.3792673,32.0650363 58.5115753,27.5801664 C52.871191,19.4913832 47.2308068,11.4826869 41.5904225,3.39390375 C38.1256151,-1.97192273 32.9686923,-0.850705259 34.1773461,5.87659958 C36.6752306,16.7684265 39.173115,27.5801664 41.6709995,38.4719933 C43.121384,42.3962544 41.2681149,45.5997329 36.3529229,48.2426027 C25.6361928,51.766429 14.8388858,55.2902554 4.12215578,58.8140817 C-1.59880538,60.335734 -1.19592079,66.1820822 4.28330962,66.742691 C15.1611935,67.0630388 25.9585005,67.4634736 36.8363844,67.7838215 C42.6379225,67.9439954 45.7804223,70.8271261 46.7473453,75.9526916 C47.2308068,79.7968658 47.3919606,82.7600834 47.3919606,85.5631271 C49.003499,85.2427793 51.0179219,85.3228662 53.5158064,86.0436489 C56.9000369,87.5653012 60.2036905,89.0068665 63.5073442,90.2081709 Z M48.1977298,99.4982586 L48.2783067,100.138954 C47.7948452,104.864085 55.0467678,110.950694 59.720229,106.385737 C56.0136908,104.223389 52.7100372,102.541563 48.1977298,99.4982586 Z" id="Shape" fill="#8792C8"></path>
            <circle id="Oval" fill="#3D4A71" cx="93" cy="72" r="15"></circle>
            <path d="M367,102.837941 L367,41.9037178 C367,41.7416587 367,41.4985701 367,41.2554814 C367,34.448999 370.178926,28.7769304 375.069583,24.6444233 C379.878728,20.5929457 386.399602,18.2430887 393.001988,18 C393.16501,18 393.491054,18 393.980119,18 L408,18 L408,35.3403241 L393.980119,35.3403241 C393.898608,35.3403241 393.980119,35.3403241 393.735586,35.3403241 C392.105368,35.4213537 390.475149,35.9885605 389.252485,37.0419447 C388.029821,38.0142993 387.296223,39.4728313 387.296223,41.336511 C387.296223,41.336511 387.296223,41.4175405 387.296223,41.6606292 L387.296223,41.9847474 L387.296223,103 L367,103 L367,102.837941 Z" id="Shape" fill="#3D4A71"></path>
            <path d="M355.74404,93.7140331 C339.202008,103.548521 312.782936,107.417828 295.919699,96.0517393 C289.335006,91.6181585 284.918444,85.4111454 282.429109,77.5919212 C280.662484,71.949182 279.859473,65.5809478 280.020075,58.4872185 L280.020075,58.0841657 C281.385194,34.3040507 299.452949,16.489117 323.141782,18.1013282 C354.218319,20.1165922 358.393977,42.7681594 360,68.7247596 L300.657465,68.7247596 C300.898369,69.6114758 301.139272,70.4981919 301.380176,71.3849081 C305.074028,92.263043 333.340025,94.8425809 348.838143,79.7684063 L355.74404,93.7140331 Z M340.968632,53.1669216 C340.165621,41.3171693 332.777917,32.9336712 321.937265,32.2081761 C308.125471,31.9663444 301.70138,41.9620538 300.095358,53.1669216 L340.968632,53.1669216 Z" id="Shape" fill="#3D4A71"></path>
            <path d="M272.189189,36.3402841 C266.351351,33.4640429 247.135135,24.0363633 241.945946,36.6598665 C239.108108,46.3272329 250.783784,49.2833697 255.72973,50.5616992 C266.189189,54.4765831 275.432432,61.6671862 276.891892,73.2520467 C277.540541,78.4452601 276.405405,83.5585779 273.72973,88.1126265 C271.297297,92.2671972 267.486486,95.8624987 262.621622,98.5789488 C251.675676,104.571118 234.72973,105.529865 216,94.7439605 L224.432432,80.6823366 C231.324324,84.6771161 255.567568,96.4217678 259.297297,77.8060954 C259.864865,65.1026965 231.081081,69.6567452 225.567568,46.4870241 C224.351351,41.4536019 224.675676,36.2603885 226.459459,31.6264443 C228.324324,26.7528133 231.810811,22.5183471 236.918919,19.6421058 C245.918919,14.528788 260.108108,13.9695189 279,23.3971985 L272.189189,36.3402841 Z" id="Shape" fill="#3D4A71"></path>
            <path d="M224.501669,122.185542 C223.772955,122.185542 223.125209,122.339759 222.558431,122.648193 C221.991653,122.956627 221.424875,123.342169 220.939065,123.881928 C220.453255,124.421687 220.129382,125.038554 219.805509,125.73253 C219.562604,126.426506 219.319699,127.19759 219.319699,127.968675 L228.873957,127.968675 C228.873957,127.120482 228.792988,126.426506 228.550083,125.73253 C228.388147,125.038554 228.064274,124.421687 227.659432,123.881928 C227.254591,123.342169 226.84975,122.956627 226.282972,122.648193 C225.797162,122.339759 225.230384,122.185542 224.501669,122.185542 Z M226.040067,137.992771 C227.011686,137.992771 227.983306,137.915663 228.792988,137.761446 C229.602671,137.607229 230.493322,137.298795 231.303005,136.990361 L231.303005,139.766265 C230.655259,140.151807 229.764608,140.383133 228.792988,140.614458 C227.821369,140.845783 226.768781,140.922892 225.635225,140.922892 C224.258765,140.922892 223.04424,140.768675 221.829716,140.383133 C220.615192,139.99759 219.643573,139.380723 218.752922,138.53253 C217.86227,137.684337 217.214524,136.604819 216.728715,135.293976 C216.242905,133.983133 216,132.363855 216,130.436145 C216,128.585542 216.242905,126.966265 216.728715,125.578313 C217.214524,124.190361 217.86227,123.033735 218.590985,122.108434 C219.400668,121.183133 220.291319,120.489157 221.343907,120.026506 C222.396494,119.563855 223.449082,119.33253 224.582638,119.33253 C225.635225,119.33253 226.606845,119.486747 227.497496,119.872289 C228.388147,120.257831 229.19783,120.874699 229.845576,121.645783 C230.493322,122.493976 231.0601,123.496386 231.464942,124.807229 C231.869783,126.118072 232.03172,127.660241 232.03172,129.510843 C232.03172,129.66506 232.03172,129.819277 232.03172,129.973494 C232.03172,130.127711 232.03172,130.359036 232.03172,130.821687 L219.076795,130.821687 C219.076795,132.13253 219.238731,133.212048 219.643573,134.137349 C219.967446,135.062651 220.534224,135.756627 221.101002,136.373494 C221.748748,136.913253 222.477462,137.375904 223.287145,137.607229 C224.177796,137.838554 225.068447,137.992771 226.040067,137.992771 Z M239.399833,130.359036 C239.399833,131.515663 239.480801,132.595181 239.723706,133.59759 C239.966611,134.522892 240.290484,135.371084 240.776294,136.06506 C241.262104,136.759036 241.828881,137.221687 242.476628,137.607229 C243.124374,137.992771 243.934057,138.146988 244.824708,138.146988 C245.472454,138.146988 246.039232,138.06988 246.60601,137.838554 C247.09182,137.684337 247.577629,137.375904 247.982471,137.144578 C248.387312,136.836145 248.792154,136.527711 249.035058,136.219277 C249.358932,135.910843 249.601836,135.60241 249.763773,135.293976 L249.763773,124.575904 C249.116027,123.881928 248.387312,123.342169 247.577629,122.879518 C246.767947,122.493976 245.877295,122.262651 244.905676,122.262651 C244.338898,122.262651 243.691152,122.416867 243.043406,122.648193 C242.395659,122.879518 241.828881,123.342169 241.262104,123.959036 C240.695326,124.575904 240.290484,125.424096 239.885643,126.426506 C239.56177,127.351807 239.399833,128.739759 239.399833,130.359036 Z M236.161102,130.359036 C236.161102,128.971084 236.323038,127.660241 236.565943,126.580723 C236.808848,125.501205 237.132721,124.498795 237.618531,123.727711 C238.023372,122.879518 238.509182,122.185542 239.07596,121.645783 C239.642738,121.106024 240.209516,120.643373 240.857262,120.257831 C241.42404,119.872289 242.071786,119.640964 242.719533,119.486747 C243.367279,119.33253 243.934057,119.255422 244.500835,119.255422 C245.634391,119.255422 246.60601,119.486747 247.496661,119.872289 C248.306344,120.257831 249.116027,120.874699 249.763773,121.722892 L249.844741,121.722892 L249.844741,109 L252.921536,109 L252.921536,140.306024 L250.573456,140.306024 L249.92571,137.992771 L249.844741,137.992771 C249.601836,138.301205 249.358932,138.686747 249.035058,138.995181 C248.711185,139.303614 248.306344,139.612048 247.901503,139.920482 C247.496661,140.228916 247.010851,140.383133 246.444073,140.614458 C245.877295,140.768675 245.229549,140.845783 244.500835,140.845783 C243.448247,140.845783 242.476628,140.691566 241.505008,140.306024 C240.533389,139.920482 239.642738,139.303614 238.833055,138.455422 C238.104341,137.607229 237.456594,136.527711 236.970785,135.216867 C236.404007,133.906024 236.161102,132.286747 236.161102,130.359036 Z M266.281302,140.922892 C265.309683,140.922892 264.419032,140.768675 263.690317,140.614458 C262.880634,140.383133 262.232888,140.074699 261.66611,139.612048 C261.099332,139.226506 260.613523,138.686747 260.208681,138.146988 C259.80384,137.53012 259.479967,136.913253 259.237062,136.219277 C259.075125,135.679518 258.913189,135.139759 258.83222,134.522892 C258.751252,133.906024 258.751252,133.212048 258.751252,132.518072 L258.751252,119.949398 L261.828047,119.949398 L261.828047,132.518072 C261.828047,133.674699 261.989983,134.6 262.232888,135.371084 C262.556761,136.219277 263.042571,136.913253 263.771285,137.453012 C264.5,137.915663 265.390651,138.224096 266.443239,138.224096 C267.576795,138.224096 268.548414,137.915663 269.19616,137.375904 C269.924875,136.836145 270.410684,136.06506 270.734558,135.139759 C270.977462,134.445783 271.058431,133.59759 271.058431,132.518072 L271.058431,119.949398 L274.135225,119.949398 L274.135225,132.595181 C274.135225,133.289157 274.135225,133.906024 274.054257,134.522892 C273.973289,135.139759 273.892321,135.679518 273.730384,136.142169 C273.487479,136.836145 273.163606,137.53012 272.758765,138.06988 C272.353923,138.686747 271.868114,139.149398 271.220367,139.612048 C270.653589,140.074699 269.924875,140.383133 269.115192,140.614458 C268.224541,140.845783 267.33389,140.922892 266.281302,140.922892 Z M287.737896,119.33253 C288.628548,119.33253 289.519199,119.409639 290.328881,119.640964 C291.138564,119.872289 291.867279,120.103614 292.434057,120.489157 L292.434057,123.26506 C291.624374,122.956627 290.814691,122.648193 290.166945,122.493976 C289.43823,122.339759 288.790484,122.262651 288.06177,122.262651 C287.333055,122.262651 286.523372,122.416867 285.794658,122.648193 C285.065943,122.956627 284.337229,123.342169 283.770451,124.036145 C283.203673,124.653012 282.717863,125.501205 282.313022,126.503614 C281.989149,127.506024 281.746244,128.816867 281.746244,130.359036 C281.746244,131.438554 281.90818,132.518072 282.151085,133.443373 C282.39399,134.368675 282.798831,135.216867 283.365609,135.910843 C283.932387,136.604819 284.580134,137.144578 285.389816,137.53012 C286.199499,137.915663 287.09015,138.06988 288.142738,138.06988 C288.871452,138.06988 289.681135,137.992771 290.40985,137.838554 C291.219533,137.684337 291.948247,137.375904 292.676962,137.06747 L292.676962,139.843373 C292.434057,139.99759 292.191152,140.151807 291.786311,140.306024 C291.462437,140.460241 291.057596,140.537349 290.571786,140.691566 C290.166945,140.768675 289.681135,140.845783 289.195326,140.922892 C288.709516,141 288.223706,141 287.737896,141 C286.442404,141 285.308848,140.768675 284.175292,140.383133 C283.041736,139.99759 282.070117,139.303614 281.260434,138.455422 C280.450751,137.607229 279.722037,136.527711 279.236227,135.139759 C278.750417,133.828916 278.507513,132.209639 278.507513,130.436145 C278.507513,129.048193 278.669449,127.891566 278.912354,126.812048 C279.155259,125.73253 279.479132,124.807229 279.964942,123.959036 C280.369783,123.110843 280.936561,122.416867 281.503339,121.877108 C282.070117,121.337349 282.717863,120.79759 283.446578,120.489157 C284.094324,120.103614 284.823038,119.872289 285.551753,119.718072 C286.361436,119.409639 287.09015,119.33253 287.737896,119.33253 Z M308.384808,138.146988 C308.060935,138.455422 307.737062,138.840964 307.33222,139.149398 C306.927379,139.457831 306.522538,139.766265 306.036728,140.074699 C305.550918,140.383133 304.98414,140.537349 304.417362,140.691566 C303.850584,140.845783 303.202838,140.922892 302.555092,140.922892 C301.664441,140.922892 300.77379,140.768675 300.045075,140.460241 C299.316361,140.151807 298.668614,139.766265 298.101836,139.149398 C297.535058,138.609639 297.130217,137.915663 296.806344,137.06747 C296.482471,136.219277 296.320534,135.293976 296.320534,134.291566 C296.320534,133.289157 296.482471,132.363855 296.806344,131.515663 C297.130217,130.744578 297.616027,130.050602 298.182805,129.433735 C298.749583,128.893976 299.478297,128.431325 300.368948,128.122892 C301.178631,127.814458 302.15025,127.660241 303.202838,127.660241 C304.174457,127.660241 305.065109,127.737349 305.874791,127.968675 C306.684474,128.122892 307.413189,128.354217 308.060935,128.585542 L308.141903,128.585542 L308.141903,127.19759 C308.141903,126.657831 308.141903,126.118072 308.060935,125.73253 C307.979967,125.26988 307.898998,124.884337 307.737062,124.575904 C307.413189,123.881928 306.846411,123.342169 306.117696,122.879518 C305.388982,122.416867 304.336394,122.185542 303.12187,122.185542 C302.15025,122.185542 301.259599,122.262651 300.449917,122.493976 C299.640234,122.648193 298.749583,122.956627 297.9399,123.26506 L297.9399,120.489157 C298.263773,120.33494 298.587646,120.180723 299.073456,120.026506 C299.478297,119.872289 299.964107,119.718072 300.449917,119.640964 C300.935726,119.563855 301.421536,119.486747 301.988314,119.409639 C302.474124,119.33253 303.040902,119.33253 303.526711,119.33253 C305.388982,119.33253 306.927379,119.718072 308.141903,120.412048 C309.356427,121.183133 310.247078,122.108434 310.732888,123.342169 C310.894825,123.804819 311.056761,124.344578 311.13773,124.884337 C311.218698,125.424096 311.299666,126.040964 311.299666,126.73494 L311.299666,140.460241 L308.708681,140.460241 L308.384808,138.146988 Z M308.222871,131.361446 C307.656093,131.207229 307.008347,131.053012 306.198664,130.821687 C305.388982,130.66747 304.579299,130.590361 303.607679,130.590361 C302.312187,130.590361 301.259599,130.898795 300.530885,131.515663 C299.80217,132.13253 299.397329,133.057831 299.397329,134.291566 C299.397329,134.908434 299.478297,135.448193 299.640234,135.987952 C299.80217,136.450602 300.045075,136.836145 300.368948,137.144578 C300.692821,137.453012 301.097663,137.684337 301.502504,137.838554 C301.907346,137.992771 302.393155,138.06988 302.878965,138.06988 C303.526711,138.06988 304.174457,137.992771 304.741235,137.761446 C305.308013,137.53012 305.793823,137.298795 306.279633,136.990361 C306.684474,136.681928 307.089316,136.450602 307.413189,136.142169 C307.737062,135.833735 307.979967,135.60241 308.060935,135.448193 L308.060935,131.361446 L308.222871,131.361446 Z M325.22621,119.33253 C326.116861,119.33253 327.007513,119.409639 327.817195,119.640964 C328.626878,119.872289 329.355593,120.103614 329.922371,120.489157 L329.922371,123.26506 C329.112688,122.956627 328.303005,122.648193 327.655259,122.493976 C326.926544,122.339759 326.278798,122.262651 325.550083,122.262651 C324.821369,122.262651 324.011686,122.416867 323.282972,122.648193 C322.554257,122.956627 321.825543,123.342169 321.258765,124.036145 C320.691987,124.653012 320.206177,125.501205 319.801336,126.503614 C319.477462,127.506024 319.234558,128.816867 319.234558,130.359036 C319.234558,131.438554 319.396494,132.518072 319.639399,133.443373 C319.882304,134.368675 320.287145,135.216867 320.853923,135.910843 C321.420701,136.604819 322.068447,137.144578 322.87813,137.53012 C323.687813,137.915663 324.578464,138.06988 325.631052,138.06988 C326.359766,138.06988 327.169449,137.992771 327.898164,137.838554 C328.707846,137.684337 329.436561,137.375904 330.165275,137.06747 L330.165275,139.843373 C329.922371,139.99759 329.679466,140.151807 329.274624,140.306024 C328.950751,140.460241 328.54591,140.537349 328.0601,140.691566 C327.655259,140.768675 327.169449,140.845783 326.683639,140.922892 C326.19783,141 325.71202,141 325.22621,141 C323.930718,141 322.797162,140.768675 321.663606,140.383133 C320.53005,139.99759 319.558431,139.303614 318.748748,138.455422 C317.939065,137.607229 317.210351,136.527711 316.724541,135.139759 C316.238731,133.828916 315.995826,132.209639 315.995826,130.436145 C315.995826,129.048193 316.157763,127.891566 316.400668,126.812048 C316.643573,125.73253 316.967446,124.807229 317.453255,123.959036 C317.858097,123.110843 318.424875,122.416867 318.991653,121.877108 C319.558431,121.337349 320.206177,120.79759 320.934891,120.489157 C321.582638,120.103614 322.311352,119.872289 323.040067,119.718072 C323.84975,119.409639 324.497496,119.33253 325.22621,119.33253 Z M335.104341,140.383133 L335.104341,119.872289 L338.181135,119.872289 L338.181135,140.383133 L335.104341,140.383133 Z M335.023372,115.091566 L335.023372,111.390361 L338.100167,111.390361 L338.100167,115.091566 L335.023372,115.091566 Z M357.775459,130.127711 C357.775459,128.893976 357.613523,127.737349 357.370618,126.73494 C357.127713,125.73253 356.722871,124.884337 356.156093,124.190361 C355.670284,123.496386 355.022538,122.956627 354.374791,122.648193 C353.646077,122.262651 352.917362,122.108434 352.107679,122.108434 C351.297997,122.108434 350.488314,122.262651 349.840568,122.648193 C349.111853,123.033735 348.545075,123.496386 348.059265,124.190361 C347.573456,124.884337 347.168614,125.73253 346.844741,126.73494 C346.601836,127.737349 346.4399,128.816867 346.4399,130.127711 C346.4399,131.361446 346.601836,132.518072 346.844741,133.520482 C347.087646,134.522892 347.492487,135.371084 348.059265,135.987952 C348.545075,136.681928 349.192821,137.221687 349.840568,137.53012 C350.569282,137.915663 351.297997,138.06988 352.107679,138.06988 C352.917362,138.06988 353.727045,137.915663 354.374791,137.53012 C355.103506,137.144578 355.670284,136.681928 356.156093,135.987952 C356.641903,135.293976 357.046745,134.445783 357.370618,133.520482 C357.613523,132.518072 357.775459,131.438554 357.775459,130.127711 Z M360.933222,130.127711 C360.933222,131.746988 360.690317,133.212048 360.285476,134.522892 C359.880634,135.833735 359.232888,136.990361 358.504174,137.915663 C357.694491,138.840964 356.80384,139.612048 355.751252,140.151807 C354.617696,140.691566 353.403172,140.922892 352.107679,140.922892 C350.731219,140.922892 349.435726,140.691566 348.383139,140.151807 C347.249583,139.612048 346.358932,138.918072 345.549249,137.915663 C344.820534,136.990361 344.172788,135.833735 343.767947,134.522892 C343.363105,133.212048 343.1202,131.746988 343.1202,130.127711 C343.1202,128.508434 343.363105,127.043373 343.767947,125.73253 C344.172788,124.421687 344.820534,123.26506 345.549249,122.339759 C346.358932,121.414458 347.249583,120.643373 348.383139,120.103614 C349.516694,119.563855 350.731219,119.33253 352.026711,119.33253 C353.403172,119.33253 354.617696,119.563855 355.751252,120.103614 C356.884808,120.643373 357.775459,121.337349 358.585142,122.339759 C359.313856,123.26506 359.961603,124.421687 360.366444,125.73253 C360.690317,127.043373 360.933222,128.508434 360.933222,130.127711 Z M368.706177,122.725301 C369.111018,122.262651 369.51586,121.8 369.920701,121.414458 C370.325543,121.028916 370.811352,120.643373 371.297162,120.33494 C371.782972,120.026506 372.34975,119.795181 372.997496,119.640964 C373.645242,119.486747 374.292988,119.409639 375.021703,119.409639 C375.912354,119.409639 376.641068,119.563855 377.450751,119.795181 C378.179466,120.026506 378.827212,120.489157 379.39399,121.028916 C379.960768,121.568675 380.365609,122.339759 380.689482,123.26506 C381.013356,124.190361 381.175292,125.346988 381.175292,126.657831 L381.175292,140.383133 L378.098497,140.383133 L378.098497,127.19759 C378.098497,125.424096 377.774624,124.190361 377.126878,123.342169 C376.479132,122.571084 375.588481,122.185542 374.373957,122.185542 C373.321369,122.185542 372.34975,122.493976 371.297162,123.110843 C370.325543,123.727711 369.434891,124.653012 368.787145,125.73253 L368.787145,140.306024 L365.710351,140.306024 L365.710351,119.795181 L368.058431,119.795181 L368.706177,122.725301 Z M398.016694,138.146988 C397.692821,138.455422 397.368948,138.840964 396.964107,139.149398 C396.559265,139.457831 396.154424,139.766265 395.668614,140.074699 C395.182805,140.383133 394.616027,140.537349 394.049249,140.691566 C393.482471,140.845783 392.834725,140.922892 392.186978,140.922892 C391.296327,140.922892 390.405676,140.768675 389.676962,140.460241 C388.948247,140.151807 388.300501,139.766265 387.733723,139.149398 C387.166945,138.609639 386.762104,137.915663 386.43823,137.06747 C386.114357,136.219277 385.952421,135.293976 385.952421,134.291566 C385.952421,133.289157 386.114357,132.363855 386.43823,131.515663 C386.762104,130.744578 387.247913,130.050602 387.814691,129.433735 C388.381469,128.893976 389.110184,128.431325 390.000835,128.122892 C390.810518,127.814458 391.782137,127.660241 392.834725,127.660241 C393.806344,127.660241 394.696995,127.737349 395.506678,127.968675 C396.316361,128.122892 397.045075,128.354217 397.692821,128.585542 L397.77379,128.585542 L397.77379,127.19759 C397.77379,126.657831 397.77379,126.118072 397.692821,125.73253 C397.611853,125.26988 397.530885,124.884337 397.368948,124.575904 C397.045075,123.881928 396.478297,123.342169 395.749583,122.879518 C395.020868,122.416867 393.96828,122.185542 392.753756,122.185542 C391.782137,122.185542 390.891486,122.262651 390.081803,122.493976 C389.27212,122.648193 388.381469,122.956627 387.571786,123.26506 L387.571786,120.489157 C387.895659,120.33494 388.219533,120.180723 388.705342,120.026506 C389.110184,119.872289 389.595993,119.718072 390.081803,119.640964 C390.567613,119.563855 391.053422,119.486747 391.6202,119.409639 C392.10601,119.33253 392.672788,119.33253 393.158598,119.33253 C395.020868,119.33253 396.559265,119.718072 397.77379,120.412048 C398.988314,121.183133 399.878965,122.108434 400.364775,123.342169 C400.526711,123.804819 400.688648,124.344578 400.769616,124.884337 C400.850584,125.424096 400.931553,126.040964 400.931553,126.73494 L400.931553,140.460241 L398.340568,140.460241 L398.016694,138.146988 Z M397.854758,131.361446 C397.28798,131.207229 396.640234,131.053012 395.830551,130.821687 C395.020868,130.66747 394.211185,130.590361 393.239566,130.590361 C391.944073,130.590361 390.891486,130.898795 390.162771,131.515663 C389.434057,132.13253 389.029215,133.057831 389.029215,134.291566 C389.029215,134.908434 389.110184,135.448193 389.27212,135.987952 C389.434057,136.450602 389.676962,136.836145 390.000835,137.144578 C390.324708,137.453012 390.729549,137.684337 391.134391,137.838554 C391.539232,137.992771 392.025042,138.06988 392.510851,138.06988 C393.158598,138.06988 393.806344,137.992771 394.373122,137.761446 C394.9399,137.53012 395.42571,137.298795 395.911519,136.990361 C396.316361,136.681928 396.721202,136.450602 397.045075,136.142169 C397.368948,135.833735 397.611853,135.60241 397.692821,135.448193 L397.692821,131.361446 L397.854758,131.361446 Z M406.923205,140.383133 L406.923205,109.077108 L410,109.077108 L410,140.383133 L406.923205,140.383133 Z" id="Shape" fill="#D2DBF0"></path>
        </g>
    </g>
</svg>