<?xml version="1.0" encoding="UTF-8"?>
<svg width="600px" height="250px" viewBox="0 0 600 250" version="1.1" xmlns="http://www.w3.org/2000/svg" xmlns:xlink="http://www.w3.org/1999/xlink">
    <!-- Generator: Sketch 50.1 (55044) - http://www.bohemiancoding.com/sketch -->
    <title>SLED</title>
    <desc>Created with Sketch.</desc>
    <defs></defs>
    <g id="SLED" stroke="none" stroke-width="1" fill="none" fill-rule="evenodd">
        <g id="Grid-Logo" opacity="0.400000006" transform="translate(1.000000, 0.000000)"></g>
        <g id="SLED4" transform="translate(56.000000, 83.000000)" fill="#000000" fill-rule="nonzero">
            <path d="M206.193193,9.55681818 C200.179632,8.27840909 193.488485,7.51136364 187.305527,7.51136364 C174.346725,7.51136364 158,10.3238636 158,26.0909091 C158,48.5056818 187.983112,41.4318182 187.983112,49.1875 C187.983112,52.0852273 183.409417,53.1079545 178.242835,53.1079545 C171.721085,53.1079545 164.52175,51.8295455 158.677584,49.3579545 L158.677584,64.2727273 C166.893296,66.1477273 173.838536,67 182.138946,67 C194.843654,67 209.919908,63.0795455 209.919908,47.7386364 C209.919908,25.5795455 180.021494,32.5681818 180.021494,25.1534091 C180.021494,21.4034091 185.950358,21.3181818 189.33828,21.3181818 C195.521238,21.3181818 201.365404,22.5113636 206.277892,24.2159091 L206.277892,9.55681818 L206.193193,9.55681818 Z M218.050921,36.5738636 C222.116428,34.5284091 227.367707,32.9090909 232.280194,32.9090909 C237.446776,32.9090909 243.036847,33.5909091 243.121546,39.1306818 C241.258188,38.9602273 237.954964,38.5340909 235.159928,38.5340909 C224.996162,38.5340909 213.138434,41.2613636 213.138434,54.3863636 C213.138434,63.3352273 220.761259,67 228.722876,67 C234.567042,67 239.818321,64.6136364 242.698055,59.7556818 L242.867451,59.7556818 L242.867451,65.9772727 L262.009212,65.9772727 L262.009212,39.8125 C262.009212,24.1306818 247.779939,22 236.006909,22 C227.960594,22 224.318577,22.7670455 218.220317,24.4715909 L218.220317,36.5738636 L218.050921,36.5738636 Z M243.121546,48.5056818 C243.121546,52.1704545 241.004094,56.1761364 236.769191,56.1761364 C233.550665,56.1761364 231.856704,54.9829545 231.856704,52 C231.856704,47.5681818 236.853889,47.1420455 241.004094,47.1420455 L243.036847,47.1420455 L243.036847,48.5056818 L243.121546,48.5056818 Z M268.954452,23.0227273 L268.954452,65.9772727 L289.53608,65.9772727 L289.53608,50.3806818 C289.53608,44.0738636 294.363869,39.0454545 300.038639,39.0454545 C301.901996,39.0454545 303.680655,39.2159091 304.697032,39.7272727 L304.697032,22.4261364 C303.850051,22.1704545 302.57958,22 301.30911,22 C294.872057,22 290.721853,26.6022727 288.265609,32.7386364 L288.180911,32.7386364 L288.180911,23.0227273 L268.954452,23.0227273 Z M311.811668,36.5738636 C315.961873,34.5284091 321.128454,32.9090909 326.040942,32.9090909 C331.207523,32.9090909 336.882293,33.5909091 336.882293,39.1306818 C335.018936,38.9602273 331.715711,38.5340909 328.920676,38.5340909 C318.672211,38.5340909 306.899181,41.2613636 306.899181,54.3863636 C306.899181,63.3352273 314.606704,67 322.483623,67 C328.243091,67 333.579069,64.6136364 336.289406,59.7556818 L336.458802,59.7556818 L336.458802,65.9772727 L355.600563,65.9772727 L355.600563,39.8125 C355.600563,24.1306818 341.286592,22 329.513562,22 C321.467247,22 317.82523,22.7670455 311.642272,24.4715909 L311.642272,36.5738636 L311.811668,36.5738636 Z M336.966991,48.5056818 C336.966991,52.1704545 334.849539,56.1761364 330.529939,56.1761364 C327.311412,56.1761364 325.702149,54.9829545 325.702149,52 C325.702149,47.5681818 330.529939,47.1420455 334.849539,47.1420455 L336.966991,47.1420455 L336.966991,48.5056818 Z M362.7152,66.0625 L383.296827,66.0625 L383.296827,23.1079545 L362.7152,23.1079545 L362.7152,66.0625 Z M383.296827,7 L362.7152,7 L362.7152,18.5056818 L383.296827,18.5056818 L383.296827,7 Z M419.039406,23.0227273 L413.703429,51.1477273 L413.534033,51.1477273 L408.198055,23.0227273 L387.10824,23.0227273 L399.72825,65.9772727 L426.238741,65.9772727 L439.197544,23.0227273 L419.039406,23.0227273 Z M445.041709,36.5738636 C449.107216,34.5284091 454.358495,32.9090909 459.270983,32.9090909 C464.437564,32.9090909 470.027636,33.5909091 470.112334,39.1306818 C468.248976,38.9602273 465.03045,38.5340909 462.150716,38.5340909 C451.98695,38.5340909 440.129222,41.2613636 440.129222,54.3863636 C440.129222,63.3352273 447.836745,67 455.798362,67 C461.642528,67 466.80911,64.6136364 469.688843,59.7556818 L469.942938,59.7556818 L469.942938,65.9772727 L489,65.9772727 L489,39.8125 C489,24.1306818 474.770727,22 462.912999,22 C454.951382,22 451.224667,22.7670455 445.126407,24.4715909 L445.126407,36.5738636 L445.041709,36.5738636 Z M470.112334,48.5056818 C470.112334,52.1704545 468.07958,56.1761364 463.844678,56.1761364 C460.626151,56.1761364 458.93219,54.9829545 458.93219,52 C458.93219,47.5681818 463.844678,47.1420455 468.164278,47.1420455 L470.112334,47.1420455 L470.112334,48.5056818 Z" id="Shape"></path>
            <g id="Group">
                <polygon id="Shape" points="67.9518072 12.4285714 129.023494 0.514285714 140.83012 61.2857143 79.673494 73.1142857"></polygon>
                <path d="M0.084939759,24.1714286 C21.5746988,3.85714286 53.936747,-1.45714286 62.3457831,13.0285714 L74.3222892,74.8285714 C63.0253012,60.7714286 41.1957831,59.3142857 11.4668675,83.4 L0.084939759,24.1714286 Z M6.6253012,26.4857143 L15.2891566,72.6857143 C36.6939759,57.2571429 56.4849398,54.5142857 65.913253,61.5428571 L56.6548193,15 C50.4542169,8.82857143 28.3698795,8.14285714 6.6253012,26.4857143 Z" id="Shape"></path>
            </g>
        </g>
    </g>
</svg>