<?xml version="1.0" encoding="UTF-8"?>
<svg width="600px" height="250px" viewBox="0 0 600 250" version="1.1" xmlns="http://www.w3.org/2000/svg" xmlns:xlink="http://www.w3.org/1999/xlink">
    <!-- Generator: Sketch 50.2 (55047) - http://www.bohemiancoding.com/sketch -->
    <title>SMLS3</title>
    <desc>Created with Sketch.</desc>
    <defs></defs>
    <g id="SMLS3" stroke="none" stroke-width="1" fill="none" fill-rule="evenodd">
        <g id="Grid-Logo" opacity="0.400000006"></g>
        <g id="SMLE3" transform="translate(135.000000, 60.000000)" fill="#EB7F02" fill-rule="nonzero">
            <path d="M171.067949,15.8695247 C175.346154,15.8695247 178.901282,12.3830382 178.901282,8.05498602 C178.901282,3.72693383 175.40641,0.30055918 171.067949,0.30055918 C166.789744,0.30055918 163.294872,3.78704567 163.234615,8.05498602 C163.234615,12.3830382 166.729487,15.8695247 171.067949,15.8695247 M202.220513,84.5773532 C205.29359,84.5773532 207.944872,83.7958993 209.99359,82.83411 C212.102564,81.8122088 213.548718,80.6700839 214.271795,79.6481827 C214.753846,78.9869525 214.994872,78.1453868 214.994872,77.3038211 C214.994872,76.6425909 214.874359,75.9813607 214.512821,75.3201305 C213.729487,73.8173346 212.162821,73.0959925 210.716667,73.0358807 C210.475641,73.0358807 210.174359,73.0358807 209.933333,73.0959925 C209.15,73.3364399 208.607692,73.5768872 208.065385,73.7572227 C207.523077,73.9375582 206.920513,74.0577819 205.896154,74.0577819 C204.269231,74.0577819 203.244872,73.3965517 202.582051,72.7353215 C202.461538,72.6150979 201.437179,71.3527493 201.075641,69.7898416 C200.473077,67.2050326 200.412821,63.4780988 200.412821,60.8932898 C200.473077,59.9315005 200.473077,7.45386766 200.473077,6.0111836 C200.473077,4.08760485 199.448718,2.52469711 198.062821,1.56290774 C196.676923,0.60111836 194.929487,0.180335508 193.182051,0.180335508 C191.434615,0.180335508 189.626923,0.60111836 188.241026,1.56290774 C186.794872,2.46458527 185.770513,3.96738117 185.770513,5.89095993 L185.770513,68.166822 C185.770513,71.6533085 186.734615,75.6808015 189.325641,78.9268406 C191.916667,82.1728798 196.134615,84.5773532 202.220513,84.5773532 M232.288462,33.362069 C235.964103,28.0722274 239.820513,27.471109 241.688462,27.471109 C244.641026,27.471109 247.653846,29.4547996 248.557692,34.0232992 C248.678205,34.804753 248.738462,35.5862069 248.738462,36.3075489 C248.738462,39.4934762 247.533333,42.2586207 245.665385,44.3625349 C241.266667,49.2315937 235.120513,50.6141659 228.612821,51.3355079 C228.612821,50.7945014 228.612821,50.193383 228.612821,49.5922647 C228.612821,43.8816403 229.396154,37.4496738 232.288462,33.362069 M222.587179,77.1234856 C227.407692,81.6919851 234.035897,84.5172414 242.291026,84.5172414 L242.351282,84.5172414 C246.810256,84.5172414 250.967949,83.7357875 254.101282,82.473439 C255.667949,81.8122088 256.933333,81.0307549 257.897436,80.1290774 C258.861538,79.2273998 259.524359,78.0852749 259.524359,76.8229264 C259.524359,76.6425909 259.524359,76.4021435 259.464103,76.221808 C259.162821,74.0577819 257.415385,72.6150979 255.426923,72.6752097 C254.944872,72.6752097 254.402564,72.7353215 253.920513,72.915657 C251.45,73.6971109 249.1,74.1178938 246.207692,74.1178938 C245.364103,74.1178938 244.580769,74.1178938 243.616667,73.9976701 C237.530769,73.5167754 233.915385,69.8499534 231.746154,66.1230196 C230.661538,64.2595527 229.998718,62.3960857 229.576923,60.9534017 C229.396154,60.3522833 229.275641,59.751165 229.155128,59.3303821 C237.470513,58.9697111 244.701282,58.0079217 251.510256,54.4012116 C255.005128,52.4776328 259.283333,49.2917055 261.512821,44.9636533 C262.898718,42.138397 263.621795,38.8923579 263.621795,35.8867661 C263.621795,34.9249767 263.561538,34.0232992 263.380769,33.1817335 C261.934615,25.1868593 254.523077,19.1155638 242.953846,19.1155638 C234.939744,19.1155638 224.575641,22.3014911 218.308974,31.9794967 C215.898718,35.7665424 212.644872,43.0400746 212.644872,52.2371855 C212.644872,54.4012116 212.825641,56.7455732 213.247436,59.0899348 C214.69359,66.1831314 217.766667,72.4948742 222.587179,77.1234856 M79.7192308,82.2329916 C81.1051282,83.194781 82.8525641,83.6155638 84.6,83.6155638 C86.3474359,83.6155638 88.1551282,83.194781 89.6012821,82.2329916 C90.9871795,81.3313141 92.0717949,79.7684063 92.0717949,77.9049394 C92.0717949,77.9049394 92.0717949,43.9417521 92.0717949,43.7614166 C92.1320513,41.1164958 92.8551282,37.6300093 94.4217949,34.8648649 C95.9884615,32.0997204 98.2782051,30.1160298 101.833333,30.1160298 C103.460256,30.1160298 104.605128,30.6570363 105.508974,31.4384902 C106.894872,32.7008388 107.678205,34.7446412 108.1,36.8485555 C108.521795,38.9524697 108.582051,41.056384 108.582051,42.1985089 C108.582051,42.499068 108.582051,76.8830382 108.582051,77.7847158 C108.582051,79.7684063 109.666667,81.3313141 111.112821,82.2329916 C112.619231,83.194781 114.426923,83.6155638 116.294872,83.6155638 C118.162821,83.6155638 120.030769,83.194781 121.597436,82.2329916 C123.103846,81.3313141 124.248718,79.8285182 124.188462,77.9049394 L124.188462,43.7013048 C124.308974,41.056384 124.971795,37.5698975 126.538462,34.804753 C128.165385,32.0396086 130.394872,30.055918 133.95,30.055918 C135.576923,30.055918 136.721795,30.5969245 137.685897,31.3783784 C139.071795,32.6407269 139.855128,34.6845294 140.276923,36.7884436 C140.698718,38.8923579 140.758974,40.9962721 140.758974,42.138397 C140.758974,42.4389562 140.758974,75.500466 140.758974,77.7246039 C140.758974,79.7082945 141.84359,81.2712022 143.289744,82.1728798 C144.735897,83.1346692 146.603846,83.555452 148.471795,83.555452 C150.339744,83.555452 152.267949,83.1346692 153.714103,82.1728798 C155.220513,81.2712022 156.365385,79.7684063 156.365385,77.8448276 L156.365385,44.3625349 C156.365385,35.8867661 154.678205,29.5149115 151.544872,25.2469711 C148.411538,20.9790308 143.771795,18.8751165 138.348718,18.8751165 C133.10641,18.8751165 129.069231,21.3998136 126.237179,24.2851817 C124.308974,26.2688723 122.923077,28.4328984 121.958974,30.1160298 C120.633333,26.6896552 118.825641,24.0447344 116.475641,22.1812675 C113.64359,19.9571295 110.088462,18.8751165 106.171795,18.8751165 C99.4230769,18.8751165 94.8435897,22.9627213 92.0115385,26.749767 L92.0115385,26.389096 C92.0115385,24.4054054 91.0474359,22.9026095 89.6615385,21.9408201 C88.275641,20.9790308 86.5282051,20.5582479 84.7807692,20.5582479 C82.9730769,20.5582479 81.225641,20.9790308 79.7794872,21.9408201 C78.3333333,22.8424977 77.3089744,24.3452936 77.3089744,26.2688723 C77.3089744,26.2688723 77.3089744,76.2819199 77.3089744,77.7246039 C77.2487179,79.7082945 78.2730769,81.2712022 79.7192308,82.2329916 M175.948718,22.000932 C174.562821,21.0391426 172.815385,20.6183597 171.067949,20.6183597 C169.320513,20.6183597 167.512821,21.0391426 166.126923,22.000932 C164.680769,22.9026095 163.65641,24.4054054 163.65641,26.3289842 C163.65641,26.3289842 163.65641,76.3420317 163.65641,77.7847158 C163.65641,79.7082945 164.620513,81.2712022 166.00641,82.2329916 C167.392308,83.194781 169.139744,83.6155638 170.887179,83.6155638 C172.634615,83.6155638 174.442308,83.194781 175.828205,82.2329916 C177.274359,81.3313141 178.298718,79.7684063 178.298718,77.9049394 C178.298718,77.9049394 178.298718,27.8918919 178.298718,26.4492078 C178.358974,24.4655172 177.334615,22.9026095 175.948718,22.000932 M328.638462,48.5102516 C328.578205,48.1495806 328.337179,47.8490214 328.035897,47.7889096 C327.674359,47.6686859 327.312821,47.7889096 327.071795,48.0293569 C327.071795,48.0293569 326.891026,48.2698043 326.408974,48.6905871 C325.987179,49.11137 325.324359,49.7726002 324.480769,50.6141659 C322.733333,52.2972973 320.142308,54.6416589 316.647436,57.527027 C314.176923,59.5708295 311.284615,61.7949674 307.970513,64.2595527 C307.910256,63.2977633 307.729487,62.3960857 307.548718,61.55452 C306.644872,58.0079217 304.596154,55.3028891 302.005128,53.138863 C298.148718,49.8928239 293.207692,47.7889096 289.170513,45.444548 C287.121795,44.3024231 285.374359,43.1001864 283.988462,41.7176142 C282.662821,40.3350419 281.819231,38.8923579 281.517949,37.0890028 C281.457692,36.7283318 281.457692,36.4277726 281.457692,36.0671016 C281.457692,34.2036347 282.180769,32.2199441 283.687179,30.77726 C284.530769,29.9958062 286.941026,28.3727866 290.435897,28.3727866 C294.714103,28.3727866 298.389744,30.2362535 300.378205,30.2362535 C302.667949,30.2963653 304.65641,28.9137931 305.258974,26.6896552 C305.379487,26.2688723 305.439744,25.7879776 305.439744,25.3671948 C305.439744,22.8424977 303.330769,20.4981361 300.438462,19.776794 C300.438462,19.776794 297.847436,18.8751165 292.364103,18.8751165 C284.711538,18.8751165 278.444872,20.7385834 274.10641,24.0447344 C269.707692,27.3508854 267.237179,32.0997204 267.237179,37.5097856 C267.237179,39.0125815 267.417949,40.5754893 267.779487,42.138397 C269.40641,48.8709226 276.034615,52.4776328 282.180769,55.7236719 C285.253846,57.3466915 288.266667,58.9095993 290.496154,60.5326188 C292.785897,62.2157502 294.232051,63.8988816 294.533333,65.9426841 C294.59359,66.3033551 294.59359,66.6039143 294.59359,66.9645853 C294.59359,68.8280522 293.870513,70.5111836 292.24359,71.833644 C290.616667,73.1561044 288.146154,74.1178938 284.591026,74.1780056 L284.229487,74.1780056 C280.373077,74.1780056 276.998718,73.0959925 274.829487,72.1342032 C273.865385,71.6533085 272.901282,71.472973 271.997436,71.472973 C269.707692,71.472973 267.719231,73.0358807 267.417949,75.3201305 C267.357692,75.5605778 267.357692,75.7409133 267.357692,75.9813607 C267.357692,77.6043802 268.261538,78.9869525 269.466667,80.0689655 C271.274359,81.6318733 273.865385,82.7138863 276.335897,83.4352283 C249.341026,96.9002796 211.861538,109.04287 164.439744,109.04287 C116.596154,109.04287 78.8153846,96.6598322 51.7602564,83.0144455 C57.3038462,81.9324324 61.8230769,79.7082945 65.1974359,76.7027027 C69.9576923,72.4347623 72.3679487,66.6039143 72.3679487,60.5326188 C72.3679487,59.1500466 72.2474359,57.7674744 72.0064103,56.3247903 C71.1628205,51.6961789 68.6320513,47.9692451 65.3782051,44.9636533 C60.4974359,40.4552656 53.9294872,37.2693383 48.4461538,34.083411 C45.7346154,32.4603914 43.2641026,30.8974837 41.4564103,29.2143523 C39.6487179,27.5312209 38.4435897,25.7278658 38.0820513,23.7441752 C37.9615385,23.2031687 37.9012821,22.6621622 37.9012821,22.0610438 C37.9012821,19.4762349 38.925641,16.7110904 41.0948718,14.6071761 C43.2641026,12.5032619 46.6987179,11.000466 51.7,10.9403541 C54.4115385,10.9403541 57.6051282,11.4212488 61.3410256,12.44315 C62.425641,12.7437092 63.3897436,12.9240447 64.2935897,12.9240447 C66.824359,12.9841566 68.6923077,11.5414725 69.475641,9.55778192 C69.7769231,8.83643989 69.8974359,8.11509786 69.8974359,7.45386766 C69.8974359,5.71062442 68.9935897,4.26794035 67.7282051,3.24603914 C66.4628205,2.22413793 64.8358974,1.56290774 63.0884615,1.14212488 C59.6538462,0.480894688 55.9179487,0 52.0012821,0 L51.8807692,0 C41.3961538,0 33.7435897,2.94547996 28.8025641,7.33364399 C23.8012821,11.721808 21.5115385,17.4925443 21.5115385,23.0228332 C21.5115385,24.2250699 21.6320513,25.4874185 21.8730769,26.6295433 C23.4397436,34.6845294 30.1282051,39.8541473 36.9371795,44.0619758 C43.8064103,48.2096925 50.9166667,51.5759553 53.6282051,55.4231128 C55.1346154,57.4669152 55.7974359,59.9315005 55.7974359,62.2758621 C55.7974359,64.6803355 55.074359,66.9645853 53.6884615,68.6477167 C51.0974359,71.7735322 46.2166667,73.8173346 41.0346154,73.8173346 C37.7205128,73.8173346 34.2858974,72.9757689 31.1525641,71.112302 C30.9717949,70.9920783 30.4897436,70.7516309 30.4897436,70.6915191 C22.9576923,65.8224604 16.9320513,61.2539609 12.3525641,57.4669152 C8.85769231,54.6416589 6.26666667,52.2371855 4.51923077,50.5540541 C3.61538462,49.7124884 2.9525641,49.0512582 2.53076923,48.6304753 C2.10897436,48.2096925 1.86794872,47.9692451 1.86794872,47.9692451 C1.62692308,47.7287978 1.26538462,47.6085741 0.903846154,47.7287978 C0.602564103,47.8490214 0.361538462,48.1495806 0.301282051,48.4501398 C0.120512821,49.7726002 0,51.3956198 0,53.2590867 L0,53.6798695 L0,53.8000932 C0.0602564103,58.7292637 1.7474359,62.5163094 6.26666667,66.6640261 C7.35128205,67.7460391 67.6679487,128.939888 164.5,129 C261.332051,129 321.648718,67.806151 322.733333,66.6640261 C327.252564,62.5163094 328.879487,58.7292637 329,53.8000932 L329,53.2590867 C328.939744,51.4557316 328.819231,49.832712 328.638462,48.5102516" id="XMLID_10_"></path>
        </g>
    </g>
</svg>