<?xml version="1.0" encoding="UTF-8"?>
<svg width="600px" height="250px" viewBox="0 0 600 250" version="1.1" xmlns="http://www.w3.org/2000/svg" xmlns:xlink="http://www.w3.org/1999/xlink">
    <!-- Generator: Sketch 50.1 (55044) - http://www.bohemiancoding.com/sketch -->
    <title>SULA</title>
    <desc>Created with Sketch.</desc>
    <defs></defs>
    <g id="SULA" stroke="none" stroke-width="1" fill="none" fill-rule="evenodd">
        <g id="Grid-Logo" opacity="0.400000006"></g>
        <g transform="translate(55.000000, 63.000000)" fill-rule="nonzero">
            <path d="M108.350411,19.0866529 C61.3295383,29.0494155 22.2783049,29.4981886 2,17.8300882 C28.6540164,24.1129115 58.6729918,25.2797215 99.4067046,10.2907002 C133.587603,-1.64666404 162.54396,-5.50611264 182.910816,11.3677557 C194.068311,20.6124814 209.210626,30.575244 227.629349,35.8707665 C242.860215,40.1789882 259.950664,40.8970252 282,39.5507059 C248.88172,58.3094212 220.722328,46.1925477 198.761543,28.7801517 C184.504744,17.4710697 155.371284,9.21364481 108.350411,19.0866529 Z" id="path4" fill="#D8762C"></path>
            <path d="M393.878965,5.70810084 C350.585559,-1.52414762 319.293406,15.0316019 276,39.8652261 C292.801753,41.0851234 318.58222,33.9400105 349.518781,21.8281727 C371.209933,14.5959242 387.922788,11.1105033 419.837229,15.4672795 C451.751669,19.9111912 483.221619,21.043953 489,13.8117045 C476.732053,21.218224 437.172371,12.9403493 393.878965,5.70810084 Z" id="path6" fill="#B85428"></path>
            <g id="Group" transform="translate(0.000000, 52.000000)" fill="#1D2E6F">
                <path d="M110.733696,9.33333333 L110.733696,69.8666667 L124.376087,69.8666667 L124.376087,2.48888889 L116.491848,2.48888889 C112.505435,2.48888889 110.733696,5.77777778 110.733696,9.33333333 Z" id="Shape"></path>
                <path d="M157.419022,2.04444444 C154.85,2.04444444 152.458152,4.62222222 151.306522,7.64444444 L129.159783,69.7777778 L142.979348,69.7777778 L148.028804,55.9111111 L174.604891,55.9111111 L179.477174,69.7777778 L194.005435,69.7777778 L168.669565,1.95555556 L157.419022,1.95555556 L157.419022,2.04444444 Z M152.280978,44.5333333 L161.582609,19.1111111 L170.618478,44.5333333 L152.280978,44.5333333 Z" id="Shape"></path>
                <path d="M31.8027174,30.4888889 C24.0070652,28.6222222 18.1603261,28.1777778 15.2369565,23.6444444 C10.9847826,17.0666667 17.8059783,10.5777778 28.1706522,10.6666667 C34.4603261,10.7555556 38.3581522,14.6666667 41.0157609,20.5333333 L51.9119565,20.8888889 C51.2918478,8.8 39.6869565,0.266666667 28.3478261,0.177777778 C13.9081522,2.6617597e-14 4.6951087,6.4 1.86032609,14.3111111 C-2.21467391,25.5111111 3.98641304,32.7111111 10.8076087,36.6222222 C19.5777174,41.5111111 30.7396739,41.6888889 36.9407609,46.0444444 C50.848913,55.9111111 18.426087,68.0888889 12.136413,48.7111111 L0,48.7111111 C2.48043478,69.7777778 25.5130435,75.8222222 42.4331522,68 C53.3293478,62.9333333 54.4809783,49.1555556 51.6461957,42.2222222 C48.7228261,35.3777778 39.3326087,32.2666667 31.8027174,30.4888889 Z" id="Shape"></path>
                <polygon id="Shape" points="319.8875 2.22222222 309.257065 2.22222222 302.081522 12.5333333 309.522826 12.5333333"></polygon>
                <path d="M90.3586957,24 L90.3586957,50.2222222 C90.3586957,55.2888889 86.2836957,59.3777778 81.2342391,59.3777778 C76.1847826,59.3777778 72.1097826,55.2888889 72.1097826,50.2222222 L72.1097826,17.1555556 L58.4673913,17.1555556 L58.4673913,50.1333333 C58.4673913,61.4222222 67.6804348,70.6666667 78.9309783,70.6666667 L83.626087,70.6666667 C94.8766304,70.6666667 104.089674,61.4222222 104.089674,50.1333333 L104.089674,17.1555556 L96.2054348,17.1555556 C92.1304348,17.1555556 90.3586957,20.4444444 90.3586957,24 Z" id="Shape"></path>
                <path d="M255.83913,16.2666667 L251.144022,16.2666667 C246.005978,16.2666667 241.399457,18.1333333 237.767391,21.2444444 C234.135326,18.1333333 229.528804,16.2666667 224.390761,16.2666667 L219.695652,16.2666667 C208.445109,16.2666667 199.232065,25.5111111 199.232065,36.8 L199.232065,69.7777778 L212.874457,69.7777778 L212.874457,36.7111111 C212.874457,31.6444444 216.949457,27.5555556 221.998913,27.5555556 C227.757065,27.5555556 230.591848,31.4666667 230.591848,36.7111111 L230.591848,69.6888889 L244.234239,69.6888889 L244.588587,34.2222222 C245.65163,30.3111111 249.195109,27.4666667 253.358696,27.4666667 C258.408152,27.4666667 262.483152,31.5555556 262.483152,36.6222222 L262.483152,62.8444444 C262.483152,66.4 264.254891,69.6888889 268.329891,69.6888889 L276.21413,69.6888889 L276.21413,36.7111111 C276.302717,25.5111111 267.089674,16.2666667 255.83913,16.2666667 Z" id="Shape"></path>
                <path d="M416.624457,60.2666667 L415.915761,60.2666667 C397.844022,60.2666667 397.578261,26.7555556 415.915761,26.7555556 L416.624457,26.7555556 C420.522283,26.7555556 423.977174,28.3555556 426.546196,31.0222222 L438.505435,31.0222222 C436.025,22.0444444 426.811957,16.4444444 416.890217,16.4444444 L415.65,16.4444444 C402.184783,16.4444444 391.2,27.4666667 391.2,40.9777778 L391.2,46.4888889 C391.2,60 402.184783,71.0222222 415.65,71.0222222 L416.890217,71.0222222 C427.609239,71.0222222 436.822283,64 440.011413,54.3111111 L427.963587,54.3111111 C425.571739,57.7777778 421.319565,60.2666667 416.624457,60.2666667 Z" id="Shape"></path>
                <path d="M371.533696,9.06666667 L371.533696,12.2666667 L385.176087,12.2666667 L385.176087,2.31111111 L377.291848,2.31111111 C373.216848,2.22222222 371.533696,5.51111111 371.533696,9.06666667 Z" id="Shape"></path>
                <path d="M470.396739,16.0888889 C457.640217,14.4888889 448.25,20.8 444.706522,31.2 L458.260326,31.2 C460.120652,26.4 467.296196,25.2444444 471.902717,27.0222222 C475.977717,28.6222222 476.686413,32.8888889 473.408696,35.5555556 C470.042391,38.3111111 456.665761,36.8888889 450.110326,42.0444444 C439.657065,50.2222222 442.048913,65.6888889 456.045652,69.8666667 C462.778261,71.8222222 471.636957,71.4666667 477.129348,67.4666667 L479.255435,70.2222222 L488.557065,70.2222222 L488.557065,32.3555556 C488.557065,22.8444444 483.153261,17.6888889 470.396739,16.0888889 Z M475.977717,50.2222222 C475.977717,58.9333333 469.688043,61.6888889 463.221196,61.1555556 C456.665761,60.5333333 452.502174,48.8888889 462.689674,47.1111111 C472.877174,45.3333333 472.7,44.7111111 475.977717,42.9333333 L475.977717,50.2222222 Z" id="Shape"></path>
                <path d="M359.042935,17.9555556 C346.729348,17.9555556 336.630435,28.0888889 336.630435,40.4444444 L336.630435,70.0444444 L349.29837,70.0444444 C349.29837,69.7777778 349.29837,69.4222222 349.29837,69.1555556 L349.29837,41.9555556 C349.29837,35.5555556 354.525,30.4 360.814674,30.4 L363.649457,30.4 C363.915217,30.4 364.180978,30.4 364.446739,30.4 L364.446739,18.1333333 C363.472283,17.9555556 362.409239,17.9555556 361.434783,17.9555556 L359.042935,17.9555556 Z" id="Shape"></path>
                <path d="M371.533696,23.6444444 L371.533696,69.6888889 L385.176087,69.6888889 L385.176087,16.8 L377.291848,16.8 C373.216848,16.8 371.533696,20.0888889 371.533696,23.6444444 Z" id="Shape"></path>
                <path d="M282.503804,38.9333333 L282.503804,47.4666667 C282.503804,74.4 321.482065,78.7555556 329.366304,54.5777778 L317.761413,54.4888889 C309.611413,64.8888889 293.222826,59.9111111 293.754348,46.6666667 L330.517935,46.8444444 C331.315217,3.82222222 282.503804,10.8444444 282.503804,38.9333333 Z M293.842935,38.2222222 C293.931522,31.3777778 299.335326,25.8666667 305.979348,25.8666667 C312.62337,25.8666667 318.027174,31.3777778 318.115761,38.2222222 L293.842935,38.2222222 Z" id="Shape"></path>
            </g>
        </g>
    </g>
</svg>