<?xml version="1.0" encoding="UTF-8"?>
<svg width="600px" height="250px" viewBox="0 0 600 250" version="1.1" xmlns="http://www.w3.org/2000/svg" xmlns:xlink="http://www.w3.org/1999/xlink">
    <!-- Generator: Sketch 50.1 (55044) - http://www.bohemiancoding.com/sketch -->
    <title>SUZB</title>
    <desc>Created with Sketch.</desc>
    <defs></defs>
    <g id="SUZB" stroke="none" stroke-width="1" fill="none" fill-rule="evenodd">
        <g id="Grid-Logo" opacity="0.400000006"></g>
        <g transform="translate(46.000000, 53.000000)" fill="#000000" fill-rule="nonzero" id="Shape">
            <path d="M166.536141,83.5314534 C168.714855,85.9522777 170.893569,87.9696312 173.072282,89.1800434 C175.250996,90.3904555 177.231645,90.9956616 179.410359,90.9956616 C181.391007,90.9956616 182.975526,90.3904555 184.163916,89.3817787 C185.352305,88.373102 186.144565,86.9609544 186.144565,85.3470716 C186.144565,83.5314534 185.55037,82.1193059 184.560046,81.1106291 C183.569721,80.1019523 180.994878,79.0932755 177.231645,78.0845987 C171.883893,76.6724512 168.318725,74.6550976 166.140011,72.4360087 C163.961298,70.0151844 162.772908,66.989154 162.772908,62.9544469 C162.772908,57.7093275 164.555492,53.472885 167.922595,50.0433839 C171.289698,46.8156182 175.845191,45 181.391007,45 C184.361981,45 187.134889,45.4034707 189.907797,46.2104121 C192.482641,47.0173536 195.057484,48.2277657 197.434263,49.8416486 L192.878771,60.5336226 C191.294252,59.1214751 189.511668,57.9110629 187.729084,57.3058568 C185.9465,56.4989154 184.163916,56.29718 182.579397,56.29718 C180.796813,56.29718 179.410359,56.7006508 178.221969,57.5075922 C177.03358,58.3145336 176.63745,59.5249458 176.63745,60.7353579 C176.63745,62.1475054 177.03358,63.1561822 178.023904,63.9631236 C179.014229,64.7700651 180.796813,65.5770065 183.569721,66.3839479 L184.163916,66.5856833 C190.105862,68.1995662 194.06716,70.0151844 195.849744,72.032538 C197.038133,73.4446855 198.028458,75.0585683 198.820717,76.8741866 C199.414912,78.6898048 199.811042,80.9088937 199.811042,83.1279826 C199.811042,88.978308 198.028458,93.6182213 194.265225,97.0477223 C190.501992,100.678959 185.55037,102.292842 179.212294,102.292842 C175.449061,102.292842 172.081958,101.687636 168.91292,100.275488 C165.743882,99.0650759 162.970973,96.845987 160,94.2234273 L166.536141,83.5314534 Z M210.902675,46.4121475 L225.559476,46.4121475 L225.559476,73.0412148 C225.559476,76.8741866 225.757541,79.6984816 225.757541,81.5140998 C225.955606,83.1279826 226.351736,84.7418655 226.747866,85.7505423 C227.34206,87.1626898 228.332385,88.1713666 229.718839,88.978308 C231.105293,89.7852495 232.887877,89.9869848 234.868526,89.9869848 C236.849175,89.9869848 238.631759,89.5835141 240.018213,88.978308 C241.404667,88.1713666 242.394991,87.1626898 242.989186,85.7505423 C243.385316,84.5401302 243.781446,83.1279826 243.979511,81.5140998 C244.177575,79.9002169 244.177575,77.0759219 244.177575,73.0412148 L244.177575,69.208243 L244.177575,46.4121475 L258.834377,46.4121475 L258.834377,75.462039 C258.834377,81.5140998 258.438247,85.9522777 257.844052,88.7765727 C257.051793,91.6008677 255.863404,94.021692 254.278884,96.0390456 C252.496301,98.2581345 249.921457,99.8720174 246.752419,101.08243 C243.583381,102.292842 239.622083,102.696312 235.066591,102.696312 C230.511098,102.696312 226.549801,102.091106 223.380763,101.08243 C220.211725,99.8720174 217.636881,98.2581345 215.854297,96.0390456 C214.269778,94.021692 213.081389,91.6008677 212.289129,88.7765727 C211.49687,85.9522777 211.298805,81.5140998 211.298805,75.462039 L211.298805,69.813449 L211.298805,46.4121475 L210.902675,46.4121475 Z M315.282869,101.08243 L267.747297,101.08243 L294.882186,58.1127983 L273.095048,58.1127983 L273.095048,46.2104121 L318.253842,46.2104121 L291.118953,89.1800434 L315.084804,89.1800434 L315.084804,101.08243 L315.282869,101.08243 Z M341.823563,80.7071584 L356.480364,80.7071584 L350.934548,62.5509761 C350.736483,61.9457701 350.538418,61.1388286 350.340353,59.9284165 C349.944223,58.7180043 349.746158,57.1041215 349.151964,55.2885033 C348.755834,56.7006508 348.557769,57.9110629 348.161639,59.1214751 C347.765509,60.3318872 347.567445,61.5422993 347.171315,62.5509761 L341.823563,80.7071584 Z M321.224815,101.08243 L339.842914,46.4121475 L358.262948,46.4121475 L376.881047,101.08243 L362.224246,101.08243 L359.451338,91.197397 L338.654525,91.197397 L335.881616,101.08243 L321.224815,101.08243 Z M385.199772,101.08243 L385.199772,46.4121475 L399.262379,46.4121475 L419.663062,74.6550976 C420.059192,75.2603037 420.653386,76.4707158 421.643711,78.0845987 C422.43597,79.9002169 423.426295,81.9175705 424.614684,84.3383948 C424.416619,82.1193059 424.020489,80.1019523 424.020489,78.2863341 C423.822425,76.4707158 423.822425,74.856833 423.822425,73.6464208 L423.822425,46.4121475 L437.885031,46.4121475 L437.885031,101.08243 L423.822425,101.08243 L403.421742,72.8394794 C403.025612,72.2342733 402.431417,71.0238612 401.441093,69.4099783 C400.648833,67.5943601 399.658509,65.5770065 398.47012,63.3579176 C398.668184,65.5770065 399.064314,67.5943601 399.064314,69.4099783 C399.262379,71.2255965 399.262379,72.8394794 399.262379,74.0498915 L399.262379,101.08243 L385.199772,101.08243 Z M508,73.8481562 C508,77.8828633 507.20774,81.5140998 505.821286,84.9436009 C504.434832,88.373102 502.256118,91.3991323 499.681275,94.2234273 C496.908367,96.845987 493.739328,99.0650759 490.372225,100.477223 C486.807057,101.889371 483.24189,102.696312 479.478657,102.696312 C475.715424,102.696312 471.952191,101.889371 468.387023,100.477223 C464.821855,99.0650759 461.850882,96.845987 459.077974,94.2234273 C456.305065,91.6008677 454.126352,88.373102 452.739898,84.9436009 C451.353443,81.5140998 450.561184,77.8828633 450.561184,73.8481562 C450.561184,70.0151844 451.353443,66.1822126 452.739898,62.7527115 C454.126352,59.3232104 456.305065,56.29718 459.077974,53.472885 C461.652817,50.8503254 464.821855,48.6312364 468.387023,47.2190889 C471.952191,45.8069414 475.517359,45 479.478657,45 C483.24189,45 487.005122,45.8069414 490.57029,47.2190889 C494.135458,48.6312364 497.304496,50.8503254 499.87934,53.472885 C502.652248,56.0954447 504.632897,59.3232104 506.019351,62.7527115 C507.20774,66.1822126 508,70.0151844 508,73.8481562 Z M479.280592,89.9869848 C483.439954,89.9869848 486.608993,88.373102 489.381901,85.3470716 C491.956744,82.3210412 493.343199,78.4880694 493.343199,73.8481562 C493.343199,69.208243 491.956744,65.3752711 489.381901,62.3492408 C486.608993,59.3232104 483.24189,57.7093275 479.280592,57.7093275 C475.121229,57.7093275 471.952191,59.3232104 469.179283,62.3492408 C466.604439,65.3752711 465.217985,69.208243 465.217985,73.8481562 C465.217985,78.4880694 466.604439,82.3210412 469.179283,85.3470716 C471.754126,88.373102 475.121229,89.9869848 479.280592,89.9869848 Z M166.536141,137.193059 L160,137.193059 L160,111.169197 L167.328401,111.169197 C170.101309,111.169197 172.280023,111.370933 173.270347,111.572668 C174.458736,111.774403 175.449061,112.37961 176.24132,112.984816 C177.231645,113.791757 177.825839,114.800434 178.420034,116.010846 C179.014229,117.221258 179.212294,118.633406 179.212294,120.045553 C179.212294,121.659436 179.014229,122.869848 178.420034,124.08026 C178.023904,125.290672 177.231645,126.299349 176.24132,126.904555 C175.449061,127.509761 174.656801,127.913232 173.666477,128.114967 C172.676153,128.518438 171.091633,128.518438 168.91292,128.518438 L167.72453,128.518438 L166.536141,128.518438 L166.536141,137.193059 Z M166.536141,122.869848 L167.922595,122.869848 C169.507114,122.869848 170.695504,122.668113 171.487763,122.264642 C172.081958,121.861171 172.478088,121.05423 172.478088,119.843818 C172.478088,118.835141 172.081958,118.0282 171.487763,117.422993 C170.893569,117.019523 169.705179,116.817787 168.12066,116.817787 L166.734206,116.817787 L166.734206,122.869848 L166.536141,122.869848 Z M189.313603,127.509761 L196.245874,127.509761 L193.67103,118.835141 C193.67103,118.633406 193.472965,118.229935 193.2749,117.624729 C193.076836,117.019523 192.878771,116.212581 192.680706,115.40564 C192.482641,116.010846 192.284576,116.616052 192.284576,117.221258 C192.086511,117.826464 192.086511,118.43167 191.888446,118.835141 L189.313603,127.509761 Z M179.608423,137.193059 L188.521343,111.169197 L197.236198,111.169197 L206.149118,137.193059 L199.216847,137.193059 L197.830393,132.553145 L187.927149,132.553145 L186.540694,137.193059 L179.608423,137.193059 Z M216.646557,137.193059 L210.110415,137.193059 L210.110415,111.169197 L217.438816,111.169197 C220.211725,111.169197 222.390438,111.370933 223.380763,111.572668 C224.569152,111.774403 225.559476,112.37961 226.351736,112.984816 C227.34206,113.791757 227.936255,114.800434 228.53045,116.010846 C229.124644,117.221258 229.322709,118.633406 229.322709,120.045553 C229.322709,121.659436 229.124644,122.869848 228.53045,124.08026 C228.13432,125.290672 227.34206,126.299349 226.351736,126.904555 C225.559476,127.509761 224.767217,127.913232 223.776892,128.114967 C222.786568,128.316703 221.202049,128.518438 219.023335,128.518438 L217.834946,128.518438 L216.646557,128.518438 L216.646557,137.193059 Z M216.646557,122.869848 L218.033011,122.869848 C219.61753,122.869848 220.805919,122.668113 221.598179,122.264642 C222.192373,121.861171 222.588503,121.05423 222.588503,119.843818 C222.588503,118.835141 222.192373,118.0282 221.598179,117.422993 C221.003984,117.019523 219.815595,116.817787 218.231076,116.817787 L216.844622,116.817787 L216.844622,122.869848 L216.646557,122.869848 Z M234.274331,137.193059 L234.274331,111.169197 L249.921457,111.169197 L249.921457,116.817787 L241.008537,116.817787 L241.008537,121.255965 L249.327262,121.255965 L249.327262,126.904555 L241.008537,126.904555 L241.008537,131.342733 L249.921457,131.342733 L249.921457,137.193059 L234.274331,137.193059 Z M256.259533,137.193059 L256.259533,111.169197 L263.191804,111.169197 L263.191804,131.140998 L271.906659,131.140998 L271.906659,137.193059 L256.259533,137.193059 Z M288.14798,137.193059 L288.14798,111.169197 L303.795105,111.169197 L303.795105,116.817787 L294.882186,116.817787 L294.882186,121.255965 L303.200911,121.255965 L303.200911,126.904555 L294.882186,126.904555 L294.882186,131.342733 L303.795105,131.342733 L303.795105,137.193059 L288.14798,137.193059 Z M339.842914,112.177874 L339.842914,120.045553 C338.85259,119.036876 337.862265,118.229935 337.070006,117.624729 C336.079681,117.019523 335.089357,116.817787 334.099032,116.817787 C332.118384,116.817787 330.533865,117.422993 329.14741,118.835141 C327.959021,120.247289 327.364826,122.062907 327.364826,124.281996 C327.364826,126.299349 327.959021,128.114967 329.345475,129.527115 C330.533865,130.939262 332.316448,131.544469 334.099032,131.544469 C335.089357,131.544469 336.277746,131.342733 337.070006,130.737527 C338.06033,130.132321 339.050655,129.527115 339.842914,128.316703 L339.842914,136.184382 C338.654525,136.789588 337.6642,137.193059 336.475811,137.394794 C335.287422,137.596529 334.297097,137.798265 333.108708,137.798265 C331.722254,137.798265 330.3358,137.596529 329.14741,137.193059 C327.959021,136.789588 326.968697,136.386117 325.978372,135.579176 C323.997723,134.368764 322.611269,132.553145 321.620945,130.737527 C320.63062,128.720174 320.036426,126.501085 320.036426,124.08026 C320.036426,122.062907 320.432555,120.247289 321.02675,118.633406 C321.620945,117.019523 322.611269,115.607375 323.997723,114.195228 C325.186113,112.984816 326.572567,111.976139 328.157086,111.370933 C329.741605,110.765727 331.326124,110.362256 333.306773,110.362256 C334.495162,110.362256 335.485487,110.563991 336.673876,110.765727 C337.6642,111.169197 338.654525,111.572668 339.842914,112.177874 Z M345.388731,137.193059 L345.388731,111.169197 L361.035857,111.169197 L361.035857,116.817787 L352.122937,116.817787 L352.122937,121.255965 L360.441662,121.255965 L360.441662,126.904555 L352.122937,126.904555 L352.122937,131.342733 L361.035857,131.342733 L361.035857,137.193059 L345.388731,137.193059 Z M367.373933,137.193059 L367.373933,111.169197 L374.306204,111.169197 L374.306204,131.140998 L383.021059,131.140998 L383.021059,137.193059 L367.373933,137.193059 Z M387.774616,111.169197 L394.706887,111.169197 L394.706887,123.878525 C394.706887,125.694143 394.706887,127.106291 394.904952,127.913232 C394.904952,128.720174 395.103017,129.32538 395.301081,129.930586 C395.499146,130.535792 396.093341,131.140998 396.687536,131.544469 C397.28173,131.947939 398.07399,132.149675 399.064314,132.149675 C400.054639,132.149675 400.846898,131.947939 401.441093,131.544469 C402.035287,131.140998 402.629482,130.737527 402.827547,129.930586 C403.025612,129.32538 403.223677,128.720174 403.223677,127.913232 C403.223677,127.106291 403.421742,125.694143 403.421742,123.878525 L403.421742,122.062907 L403.421742,111.169197 L410.354013,111.169197 L410.354013,124.887202 C410.354013,127.711497 410.155948,129.930586 409.759818,131.140998 C409.363688,132.35141 408.769493,133.561822 407.977234,134.570499 C407.184974,135.579176 405.996585,136.386117 404.412066,136.991323 C402.827547,137.596529 401.044963,137.798265 398.866249,137.798265 C396.687536,137.798265 394.904952,137.596529 393.320433,136.991323 C391.735913,136.386117 390.547524,135.579176 389.755265,134.570499 C388.963005,133.561822 388.36881,132.35141 387.972681,131.140998 C387.576551,129.72885 387.378486,127.711497 387.378486,124.887202 L387.378486,122.264642 L387.378486,111.169197 L387.774616,111.169197 Z M417.484348,137.193059 L417.484348,111.169197 L424.416619,111.169197 L424.416619,131.140998 L433.131474,131.140998 L433.131474,137.193059 L417.484348,137.193059 Z M463.831531,124.281996 C463.831531,126.097614 463.435401,127.913232 462.841207,129.527115 C462.247012,131.140998 461.256688,132.553145 459.870233,133.965293 C458.483779,135.175705 457.097325,136.184382 455.314741,136.991323 C453.730222,137.596529 451.947638,138 450.165054,138 C448.38247,138 446.599886,137.596529 444.817302,136.991323 C443.232783,136.386117 441.648264,135.37744 440.459875,133.965293 C439.073421,132.754881 438.083096,131.140998 437.488902,129.527115 C436.894707,127.913232 436.498577,126.097614 436.498577,124.281996 C436.498577,122.466377 436.894707,120.650759 437.488902,119.036876 C438.083096,117.422993 439.073421,116.010846 440.459875,114.598698 C441.648264,113.388286 443.232783,112.37961 444.817302,111.572668 C446.401821,110.967462 448.184405,110.563991 450.165054,110.563991 C451.947638,110.563991 453.730222,110.967462 455.512806,111.572668 C457.29539,112.177874 458.681844,113.186551 459.870233,114.598698 C461.058623,115.809111 462.048947,117.422993 462.841207,119.036876 C463.435401,120.650759 463.831531,122.264642 463.831531,124.281996 Z M450.165054,131.947939 C452.145703,131.947939 453.730222,131.140998 454.918611,129.72885 C456.107001,128.316703 456.89926,126.501085 456.89926,124.281996 C456.89926,122.062907 456.305065,120.247289 454.918611,118.835141 C453.730222,117.422993 451.947638,116.616052 450.165054,116.616052 C448.184405,116.616052 446.599886,117.422993 445.411497,118.835141 C444.223108,120.247289 443.430848,122.062907 443.430848,124.281996 C443.430848,126.501085 444.025043,128.316703 445.213432,129.72885 C446.599886,131.140998 448.184405,131.947939 450.165054,131.947939 Z M470.961867,128.720174 C471.952191,129.930586 472.942516,130.737527 474.130905,131.342733 C475.121229,131.947939 476.111554,132.149675 477.101878,132.149675 C478.092203,132.149675 478.884462,131.947939 479.478657,131.342733 C480.072851,130.737527 480.468981,130.132321 480.468981,129.32538 C480.468981,128.518438 480.270916,127.711497 479.676722,127.308026 C479.082527,126.904555 477.894138,126.299349 476.111554,125.895879 C473.53671,125.290672 471.754126,124.281996 470.763802,123.273319 C469.773478,122.264642 469.179283,120.650759 469.179283,118.633406 C469.179283,116.212581 469.971542,114.195228 471.556061,112.581345 C473.140581,110.967462 475.319294,110.160521 477.894138,110.160521 C479.280592,110.160521 480.667046,110.362256 481.855435,110.765727 C483.043825,111.169197 484.232214,111.774403 485.420603,112.581345 L483.24189,117.624729 C482.44963,117.019523 481.657371,116.414317 480.865111,116.010846 C480.072851,115.607375 479.280592,115.40564 478.488332,115.40564 C477.696073,115.40564 476.903813,115.607375 476.507684,116.010846 C475.913489,116.414317 475.715424,117.019523 475.715424,117.624729 C475.715424,118.229935 475.913489,118.835141 476.309619,119.238612 C476.705748,119.642082 477.696073,120.045553 478.884462,120.449024 L479.280592,120.449024 C482.0535,121.255965 484.034149,122.062907 484.826409,123.071584 C485.420603,123.67679 485.816733,124.483731 486.212863,125.290672 C486.608993,126.097614 486.608993,127.106291 486.608993,128.316703 C486.608993,131.140998 485.816733,133.360087 484.034149,134.97397 C482.251565,136.587852 479.874787,137.596529 476.903813,137.596529 C475.121229,137.596529 473.53671,137.193059 471.952191,136.587852 C470.565737,135.982646 469.179283,134.97397 467.792829,133.763557 L470.961867,128.720174 Z M492.352874,137.193059 L492.352874,111.169197 L508,111.169197 L508,116.817787 L499.08708,116.817787 L499.08708,121.255965 L507.405805,121.255965 L507.405805,126.904555 L499.08708,126.904555 L499.08708,131.342733 L508,131.342733 L508,137.193059 L492.352874,137.193059 Z"></path>
            <path d="M61.44,0 C62.2276923,0 63.0153846,0 64,0 L64,3.99368166 C62.8184615,3.99368166 61.8338462,3.79399758 60.6523077,3.79399758 C30.9169231,3.79399758 6.89230769,29.1538761 6.89230769,60.3045931 C6.89230769,91.4553101 30.9169231,116.815189 60.6523077,116.815189 C61.8338462,116.815189 63.0153846,116.815189 64,116.615505 L64,128.995918 C63.2123077,128.995918 62.4246154,128.995918 61.44,128.995918 C27.5692308,129.395286 0,100.441094 0,64.6976429 C0,28.954192 27.5692308,0 61.44,0 Z"></path>
            <path d="M63.7951807,9 C64.1967871,9 64.5983936,9 65,9 L65,12.8075397 C64.1967871,12.8075397 63.3935743,12.8075397 62.5903614,12.8075397 C39.6987952,12.8075397 21.2248996,32.0456349 21.2248996,55.4920635 C21.2248996,79.1388889 39.6987952,98.1765873 62.5903614,98.1765873 C63.3935743,98.1765873 64.1967871,98.1765873 65,98.1765873 L65,110 C64.5983936,110 64.1967871,110 63.7951807,110 C36.8875502,110 15,87.3551587 15,59.5 C15,31.6448413 36.8875502,9 63.7951807,9 Z"></path>
            <path d="M63.3463687,14 C63.9664804,14 64.5865922,14 65,14 L65,16.9577465 C64.3798883,16.9577465 63.9664804,16.9577465 63.3463687,16.9577465 C48.0502793,16.9577465 35.6480447,29.1830986 35.6480447,44.3661972 C35.6480447,59.5492958 48.0502793,71.7746479 63.3463687,71.7746479 C63.9664804,71.7746479 64.3798883,71.7746479 65,71.7746479 L65,84 C64.3798883,84 63.9664804,84 63.3463687,84 C43.7094972,84 28,68.2253521 28,48.9014085 C28,29.7746479 43.9162011,14 63.3463687,14 Z"></path>
            <path d="M66.56,146 C65.7723077,146 64.9846154,146 64,146 L64,142.006192 C65.1815385,142.006192 66.1661538,142.205882 67.3476923,142.205882 C97.0830769,142.205882 121.107692,116.845201 121.107692,85.6934985 C121.107692,54.5417957 97.0830769,29.1811146 67.3476923,29.1811146 C66.1661538,29.1811146 64.9846154,29.1811146 64,29.380805 L64,17 C64.7876923,17 65.5753846,17 66.56,17 C100.430769,17 128,45.9551084 128,81.6996904 C128,117.044892 100.430769,146 66.56,146 Z"></path>
            <path d="M65.2048193,139 C64.8032129,139 64.4016064,139 64,139 L64,135.19246 C64.8032129,135.19246 65.6064257,135.19246 66.4096386,135.19246 C89.3012048,135.19246 107.7751,115.954365 107.7751,92.5079365 C107.7751,68.8611111 89.3012048,49.8234127 66.4096386,49.8234127 C65.6064257,49.8234127 64.8032129,49.8234127 64,49.8234127 L64,38 C64.4016064,38 64.8032129,38 65.2048193,38 C92.1124498,38 114,60.6448413 114,88.5 C114,116.355159 92.313253,139 65.2048193,139 Z"></path>
            <path d="M65.6536313,131 C65.0335196,131 64.4134078,131 64,131 L64,128.042254 C64.6201117,128.042254 65.0335196,128.042254 65.6536313,128.042254 C80.9497207,128.042254 93.3519553,115.816901 93.3519553,100.633803 C93.3519553,85.4507042 80.9497207,73.2253521 65.6536313,73.2253521 C65.0335196,73.2253521 64.6201117,73.2253521 64,73.2253521 L64,61 C64.6201117,61 65.0335196,61 65.6536313,61 C85.2905028,61 101,76.7746479 101,96.0985915 C101,115.225352 85.0837989,131 65.6536313,131 Z"></path>
        </g>
    </g>
</svg>