<?xml version="1.0" encoding="UTF-8"?>
<svg width="600px" height="250px" viewBox="0 0 600 250" version="1.1" xmlns="http://www.w3.org/2000/svg" xmlns:xlink="http://www.w3.org/1999/xlink">
    <!-- Generator: Sketch 50.1 (55044) - http://www.bohemiancoding.com/sketch -->
    <title>TAEE</title>
    <desc>Created with Sketch.</desc>
    <defs>
        <polygon id="path-1" points="0.171004487 0.630906006 49.7848421 0.630906006 49.7848421 42.9577823 0.171004487 42.9577823"></polygon>
        <polygon id="path-3" points="0.000274311927 0.247032258 297.601283 0.247032258 297.601283 84 0.000274311927 84"></polygon>
    </defs>
    <g id="TAEE" stroke="none" stroke-width="1" fill="none" fill-rule="evenodd">
        <g id="Grid-Logo" opacity="0.400000006" transform="translate(-4.000000, 0.000000)"></g>
        <g transform="translate(127.000000, 63.000000)">
            <g id="Group-3" transform="translate(289.000000, 12.000000)">
                <mask id="mask-2" fill="white">
                    <use xlink:href="#path-1"></use>
                </mask>
                <g id="Clip-2"></g>
                <path d="M1.25871579,37.6035 L44.8511368,1.3255 C46.1292421,0.26125 48.0368211,0.44 49.0959789,1.72425 C50.1551368,3.00575 49.9745053,4.9225 48.6964,5.9785 L5.10397895,42.2675 C3.82587368,43.3235 1.92103158,43.15025 0.859136842,41.86875 C-0.197284211,40.5845 -0.0166526316,38.66775 1.25871579,37.6035" id="Fill-1" fill="#4B9C35" mask="url(#mask-2)"></path>
            </g>
            <path d="M266.030937,40 L322.969063,40 C324.64007,40 326,41.3548387 326,43.001363 C326,44.6533394 324.64007,46 322.969063,46 L266.030937,46 C264.362683,46 263,44.6533394 263,43.001363 C263,41.3466606 264.362683,40 266.030937,40" id="Fill-4" fill="#F6A010"></path>
            <path d="M256.919709,0.665430512 L317.883415,49.6923204 C319.17888,50.730588 319.373748,52.6250188 318.328045,53.8997506 C317.279596,55.1772003 315.36659,55.3701767 314.079358,54.3319091 L253.110164,5.31317315 C251.822932,4.2749055 251.625319,2.38047473 252.673768,1.10574297 C253.719471,-0.177142714 255.632478,-0.370119163 256.919709,0.665430512" id="Fill-6" fill="#20325E"></path>
            <path d="M300.931771,24.2745798 L314.906571,79.2366391 C315.317273,80.8462345 314.334327,82.4914767 312.73533,82.9000452 L312.727116,82.9082714 C311.12538,83.3140978 309.47436,82.3351787 309.069135,80.7255834 L295.094335,25.763524 C294.680896,24.1539287 295.666579,22.5032023 297.265576,22.0918918 C298.872788,21.6860653 300.526546,22.6622424 300.931771,24.2745798" id="Fill-8" fill="#E9530C"></path>
            <g id="Group-12" transform="translate(0.000000, 40.000000)">
                <mask id="mask-4" fill="white">
                    <use xlink:href="#path-3"></use>
                </mask>
                <g id="Clip-11"></g>
                <path d="M245.103467,79.9359032 C242.310972,77.7149355 240.593779,75.5652581 239.208504,72.2694516 C238.253898,69.6207419 237.965871,67.5971935 237.913751,64.7921935 C237.990559,58.8339677 239.013742,54.5154194 243.589265,50.4820323 C246.727394,47.9073548 250.266017,46.4486452 254.142045,45.3655806 C261.060192,43.4325161 271.415467,42.6346129 279.140091,42.0999355 L283.707384,41.7681613 L283.707384,37.2165484 L283.611375,35.3739677 C283.345293,33.281871 283.136816,31.9904194 282.209641,30.0765484 L281.743311,29.2786452 C279.943825,26.6765484 278.311669,25.5112258 275.42865,24.2773548 C272.935155,23.3423548 270.806494,22.9009032 268.181329,22.5471935 C266.343439,22.3497742 264.612531,22.2455806 262.766412,22.1989677 C260.058953,22.1797742 257.87543,22.358 255.203632,22.8405806 C253.774467,23.1175161 252.402907,23.4410645 251.003917,23.8112258 C248.842339,24.4034839 246.743852,25.0752581 244.637137,25.8347742 L244.025421,26.0623548 L244.025421,17.5650968 L244.335394,17.4992903 L244.98277,17.3567097 C246.502458,17.0413871 248.022146,16.7452581 249.544577,16.4600968 C252.268494,15.9638065 254.89366,15.558 257.650494,15.2728387 C260.780394,14.9794516 263.797825,14.8588065 266.944183,14.8725161 C270.04665,14.9246129 273.011962,15.0836452 276.089742,15.4428387 C278.635357,15.7883226 280.945063,16.2215484 283.4221,16.9125161 C285.808614,17.6336452 287.756228,18.4096129 289.895861,19.7175161 C291.571907,20.8307419 292.792595,21.9000968 294.040715,23.4876774 C295.132476,24.9765484 295.796311,26.2707419 296.421742,28.0036452 C297.30777,30.7263871 297.571109,33.1475161 297.601283,36.0073548 L297.601283,81.4028387 L297.601283,82.0800968 L297.579339,82.1102581 C296.465632,83.1933226 293.79932,83.9610645 290.699595,83.9610645 C287.591641,83.9610645 284.928072,83.1933226 283.811623,82.1102581 L283.707384,81.9896129 L283.707384,81.4028387 L283.707384,68.5733226 L283.707384,46.5473548 L278.144339,47.134129 C271.621201,47.8113871 264.475375,48.0828387 258.613329,51.2333226 C254.80588,53.6407419 253.072228,56.1934839 252.320614,60.6628387 C251.966751,64.4000968 252.252036,67.6054194 254.210623,70.8683226 C259.825788,78.839129 270.384054,76.7004194 278.583238,74.7317097 L278.583238,81.7949355 C268.419981,84.0899355 253.623595,86.0010645 245.103467,79.9359032 Z M199.7021,76.971871 C202.494595,77.0760645 204.91677,77.0184839 207.665375,76.459129 C213.000742,75.3705806 217.013926,73.443 218.366283,67.7260645 C218.632366,65.4228387 218.615907,64.304129 217.666788,62.1955806 C216.448843,59.4947742 214.929155,58.4939677 212.33965,57.3204194 C209.983311,56.3360645 207.670861,55.7575161 205.196568,55.1844516 C201.937742,54.4550968 198.618568,53.936871 195.403632,53.1088065 C192.205155,52.2642903 189.387972,51.2415484 186.513183,49.5634839 C184.384522,48.2034839 182.856605,46.9147742 181.389036,44.839129 C179.830944,42.3878387 179.197283,40.2875161 178.90377,37.4194516 C178.588311,34.343 178.695293,32.1110645 179.778825,29.2128387 C180.448146,27.414129 181.268339,26.0815484 182.458852,24.5789677 C184.587513,22.0289677 186.694228,20.4496129 189.621137,18.8894516 C192.279219,17.5513871 194.868724,16.6492903 197.751742,15.9336452 C201.221788,15.1521935 204.414779,14.8423548 207.964375,14.7573548 C210.946146,14.7381613 213.785274,14.8670323 216.750586,15.2125161 C219.699439,15.5936452 222.310889,16.1584839 225.171962,16.9481613 C226.708109,17.3923548 228.175678,17.8667097 229.673421,18.4315484 L229.824293,18.491871 L229.824293,27.331871 L229.582898,27.1975161 C227.37743,25.969129 225.270715,24.9299355 222.914375,24.0497742 C220.654045,23.2463871 218.465036,22.6650968 216.108696,22.2236452 C213.225678,21.7492903 210.592283,21.5847742 207.665375,21.7410645 C205.533972,21.9083226 203.772889,22.2154194 201.726522,22.8625161 C199.883146,23.5096129 198.714577,24.1046129 197.065962,25.2342903 C194.890669,27.1125161 194.169228,28.1900968 193.475219,30.986871 C193.280458,33.6136452 193.453274,34.9763871 194.649274,37.3317097 C195.710861,38.933 196.478935,39.7144516 198.089146,40.7070323 C199.754219,41.6173548 201.32877,42.1767097 203.133742,42.7250968 C205.934467,43.5312258 208.748907,44.1454194 211.615467,44.6910645 C218.465036,45.9523548 226.993394,47.9704194 230.976403,54.2604194 C231.931008,55.9439677 232.358935,57.2820323 232.737485,59.1712258 C233.127008,61.6088065 233.212045,63.8297742 232.80332,66.2509032 C231.966669,70.426871 230.040999,73.6321935 226.858981,76.4399355 C224.08843,78.7376774 221.158779,80.2594516 217.787485,81.5234839 C214.27355,82.7573548 211.223201,83.3276774 207.514504,83.6896129 C205.17188,83.8760645 202.914293,83.9473548 200.574412,83.9309032 C198.045256,83.8760645 195.672458,83.7197742 193.16799,83.4209032 C190.773247,83.0863871 188.584238,82.6586452 186.241614,82.0800968 C183.698742,81.4110645 181.298513,80.6871935 178.843421,79.7494516 L178.437439,79.5821935 L178.437439,70.2376774 L178.475843,70.2623548 L178.85988,70.4954194 L179.252146,70.7202581 C181.803247,72.1652581 184.721926,73.4813871 187.478761,74.4739677 C191.662017,75.949129 195.244531,76.7470323 199.7021,76.971871 Z M157.822898,44.4909032 C157.565045,38.3462258 157.75432,33.7205806 154.736889,28.2559032 C148.307017,17.8886452 132.561513,18.4096129 125.237384,27.4963871 C121.158366,33.1255806 121.015724,38.0007419 120.713981,44.4909032 L157.822898,44.4909032 Z M118.478339,76.673 C113.924761,73.1276774 111.170669,69.3273548 109.138017,63.9175161 C107.640274,59.546871 107.105366,55.6450968 106.970953,51.0386452 C106.910605,44.8528387 107.571696,39.4347742 109.889632,33.6657419 C112.111559,28.519129 115.183852,24.4583226 119.690797,21.041871 C129.91166,13.729129 147.412761,12.6460645 158.409926,18.2121935 C164.409128,21.4723548 167.711843,26.2405806 169.728036,32.6950968 C170.987128,37.0739677 171.371164,41.1238065 171.415054,45.6671935 L171.415054,49.4894516 L120.782559,49.4894516 C121.589036,60.3749355 122.861843,68.9736452 134.029082,73.8131613 C139.276669,75.9710645 145.733972,76.5139677 151.379311,76.078 C154.020935,75.8367097 156.399219,75.3760645 158.95855,74.6850968 C162.886696,73.5883226 166.567962,71.9760645 170.098357,69.8839677 L170.098357,79.2970323 C162.661761,82.2912258 155.707953,83.771871 147.602036,83.9555806 C145.32799,83.9912258 143.097834,83.9555806 140.826531,83.8267097 C136.506118,83.5196129 132.673981,82.9300968 128.512669,81.6825161 C124.702476,80.4486452 121.731678,79.0338065 118.478339,76.673 Z M13.7899349,17.6254194 L34.0286688,17.6254194 L34.0286688,25.7909032 L25.7115312,25.7909032 C20.4365128,25.7909032 15.633311,26.3009032 13.7817055,28.4450968 C13.7734761,33.9728387 13.7597606,24.5104194 13.7597606,61.6609032 C13.954522,69.6371935 18.4175771,73.7528387 24.4990725,75.5213871 C29.3242193,76.9252581 33.1947606,76.078 37.7538248,75.1210645 L37.7538248,82.5078387 C32.5473844,83.3221935 27.3299716,84.3504194 22.3457239,83.7883226 C10.251311,82.4036452 0.173090826,76.9965484 0.000274311927,62.8728387 L0.000274311927,2.80525806 L0.000274311927,2.11977419 L0.0222192661,2.09783871 C1.13592569,1.01477419 3.80223761,0.247032258 6.90196239,0.247032258 C10.0099165,0.247032258 12.6762284,1.01477419 13.7899349,2.09783871 L13.7899349,17.6254194 Z M48.5095954,79.9359032 C45.7171,77.7149355 43.9999073,75.5652581 42.6173752,72.2694516 C41.6600266,69.6207419 41.3747422,67.5971935 41.3143936,64.7921935 C41.3884578,58.8339677 42.4198706,54.5154194 46.9981367,50.4820323 C50.1362651,47.9073548 53.6721459,46.4486452 57.5481734,45.3655806 C64.4663202,43.4325161 74.8243385,42.6346129 82.5462193,42.0999355 L87.1080266,41.7681613 L87.1080266,37.2165484 L87.0175037,35.3739677 C86.7459349,33.281871 86.5347147,31.9904194 85.6157697,30.0765484 L85.1439532,29.2786452 C83.3526963,26.6765484 81.712311,25.5112258 78.8347789,24.2773548 C76.3440266,23.3423548 74.2153661,22.9009032 71.5874578,22.5471935 C69.752311,22.3497742 68.0186596,22.2455806 66.1752835,22.1989677 C63.4595954,22.1797742 61.2760725,22.358 58.6042743,22.8405806 C57.1805954,23.1175161 55.8117789,23.4410645 54.410045,23.8112258 C52.2512101,24.4034839 50.1499807,25.0752581 48.0432651,25.8347742 L47.4260633,26.0623548 L47.4260633,17.5650968 L47.741522,17.4992903 L48.3834119,17.3567097 C49.9031,17.0413871 51.4227881,16.7452581 52.9507055,16.4600968 C55.6746229,15.9638065 58.3025312,15.558 61.0566229,15.2728387 C64.1892651,14.9794516 67.2066963,14.8588065 70.3530541,14.8725161 C73.4527789,14.9246129 76.4126046,15.0836452 79.4986138,15.4428387 C82.0414853,15.7883226 84.3511917,16.2215484 86.8282284,16.9125161 C89.2147422,17.6336452 91.1651,18.4096129 93.2937606,19.7175161 C94.9807789,20.8307419 96.1987239,21.9000968 97.4495862,23.4876774 C98.5331183,24.9765484 99.2024394,26.2707419 99.8196413,28.0036452 C100.708412,30.7263871 100.971751,33.1475161 101.010155,36.0073548 L101.010155,81.4028387 L101.010155,82.0800968 L100.979981,82.1102581 C99.8745037,83.1933226 97.2027055,83.9610645 94.1002376,83.9610645 C90.9977697,83.9610645 88.3342009,83.1933226 87.2204945,82.1102581 L87.116256,81.9896129 L87.116256,81.4028387 L87.116256,68.5733226 L87.116256,46.5473548 L81.5532101,47.134129 C75.0273294,47.8113871 67.8842468,48.0828387 62.0194578,51.2333226 C58.2120083,53.6407419 56.4728706,56.1934839 55.7294853,60.6628387 C55.3728798,64.4000968 55.6609073,67.6054194 57.608522,70.8683226 C63.2319165,78.839129 73.7846963,76.7004194 81.9811367,74.7317097 L81.9811367,81.7949355 C71.8288523,84.0899355 57.0297239,86.0010645 48.5095954,79.9359032 Z" id="Fill-10" fill="#002969" mask="url(#mask-4)"></path>
            </g>
        </g>
    </g>
</svg>