<?xml version="1.0" encoding="UTF-8"?>
<svg width="600px" height="250px" viewBox="0 0 600 250" version="1.1" xmlns="http://www.w3.org/2000/svg" xmlns:xlink="http://www.w3.org/1999/xlink">
    <!-- Generator: Sketch 50.1 (55044) - http://www.bohemiancoding.com/sketch -->
    <title>TIET</title>
    <desc>Created with Sketch.</desc>
    <defs></defs>
    <g id="TIET" stroke="none" stroke-width="1" fill="none" fill-rule="evenodd">
        <g id="Grid-Logo" opacity="0.400000006" transform="translate(1.000000, 0.000000)"></g>
        <g transform="translate(75.000000, 69.000000)" fill-rule="nonzero">
            <polygon id="Shape" fill="#003A57" points="325.517794 52.1538462 307.822064 52.1538462 307.822064 106 300.855872 106 300.855872 52.1538462 283 52.1538462 283 46 328 46"></polygon>
            <g id="Group">
                <path d="M332.905759,106.508571 L332.905759,62.9085714 L339.659686,62.9085714 L339.659686,106.508571 L332.905759,106.508571 Z M336.282723,53.7992857 C333.691099,53.7992857 331.570681,51.6971429 331.570681,49.1278571 C331.570681,46.5585714 333.691099,44.4564286 336.282723,44.4564286 C338.874346,44.4564286 340.994764,46.5585714 340.994764,49.1278571 C340.994764,51.6192857 338.874346,53.7992857 336.282723,53.7992857 Z" id="Shape" fill="#003A57"></path>
                <path d="M364.790576,67.5021429 L365.026178,67.5021429 C371.701571,67.5021429 375.157068,74.0421429 375.157068,80.115 L364.790576,80.115 L364.790576,85.7985714 L382.539267,85.7985714 L382.539267,84.2414286 C382.539267,70.6942857 376.335079,61.7407143 364.947644,61.7407143 L364.790576,61.7407143 L364.790576,67.5021429 Z M364.790576,107.209286 L364.790576,100.980714 C366.04712,101.292143 367.460733,101.447857 368.95288,101.447857 C372.643979,101.447857 376.727749,99.9685714 379.397906,98.3335714 L381.439791,102.927143 C378.298429,105.496429 372.722513,107.365 367.617801,107.365 C366.596859,107.365 365.65445,107.365 364.790576,107.209286 Z M354.424084,80.115 C354.424084,73.2635714 358.429319,67.6578571 364.790576,67.5021429 L364.790576,61.8185714 C354.267016,61.8964286 347.120419,71.2392857 347.120419,83.8521429 C347.120419,95.4528571 352.931937,105.885714 364.790576,107.287143 L364.790576,101.058571 C357.801047,99.2678571 354.34555,92.8835714 354.34555,85.8764286 L364.790576,85.8764286 L364.790576,80.1928571 L354.424084,80.1928571 L354.424084,80.115 Z" id="Shape" fill="#003A57"></path>
                <path d="M401.308901,107.365 C395.026178,107.365 391.884817,103.705714 391.884817,98.1 L391.884817,68.5921429 L384.73822,68.5921429 L384.73822,62.9085714 L391.884817,62.9085714 L391.884817,53.3321429 L398.638743,50.9964286 L398.638743,62.9085714 L412.146597,62.9085714 L409.712042,68.5921429 L398.638743,68.5921429 L398.638743,96.0757143 C398.638743,99.735 400.052356,101.37 402.958115,101.37 C406.099476,101.37 409.005236,99.6571429 410.732984,98.2557143 L412.853403,103.005 C409.633508,105.418571 405.39267,107.365 401.308901,107.365" id="Shape" fill="#003A57"></path>
                <polygon id="Shape" fill="#003A57" points="431.858639 49.5171429 432.565445 48.505 438.848168 57.5364286 445.680628 57.5364286 435.863874 43.9892857 431.858639 43.9892857 429.424084 43.9892857 419.764398 57.5364286 426.518325 57.5364286"></polygon>
                <path d="M431.858639,67.5021429 L432.094241,67.5021429 C438.769634,67.5021429 442.225131,74.0421429 442.225131,80.115 L431.858639,80.115 L431.858639,85.7985714 L449.60733,85.7985714 L449.60733,84.2414286 C449.60733,70.6942857 443.403141,61.7407143 432.015707,61.7407143 L431.858639,61.7407143 L431.858639,67.5021429 Z M431.858639,107.209286 L431.858639,100.980714 C433.115183,101.292143 434.528796,101.447857 436.020942,101.447857 C439.712042,101.447857 443.795812,99.9685714 446.465969,98.3335714 L448.507853,102.927143 C445.366492,105.496429 439.790576,107.365 434.685864,107.365 C433.664921,107.365 432.801047,107.365 431.858639,107.209286 Z M421.492147,80.115 C421.492147,73.2635714 425.497382,67.6578571 431.858639,67.5021429 L431.858639,61.8185714 C421.335079,61.8964286 414.188482,71.2392857 414.188482,83.8521429 C414.188482,95.4528571 420,105.885714 431.858639,107.287143 L431.858639,101.058571 C424.86911,99.2678571 421.413613,92.8835714 421.413613,85.8764286 L431.858639,85.8764286 L431.858639,80.1928571 L421.492147,80.1928571 L421.492147,80.115 Z" id="Shape" fill="#003A57"></path>
                <path d="M149.136126,61.04 L149.21466,60.5728571 L149.293194,60.5728571 C149.764398,62.5971429 150.549738,65.0885714 151.649215,68.125 L156.596859,82.0614286 L149.136126,82.0614286 L149.136126,91.1707143 L160.13089,91.1707143 L166.17801,106.430714 L178.272251,106.430714 L153.534031,45.235 L149.136126,45.235 L149.136126,61.04 Z M149.136126,82.0614286 L141.675393,82.0614286 L147.015707,67.8914286 C147.958115,65.2442857 148.743455,62.9864286 149.136126,60.9621429 L149.136126,45.235 L145.287958,45.235 L121.413613,106.430714 L132.486911,106.430714 L138.141361,91.1707143 L149.057592,91.1707143 L149.057592,82.0614286 L149.136126,82.0614286 Z" id="Shape" fill="#003A57"></path>
                <polygon id="Shape" fill="#003A57" points="182.434555 106.508571 182.434555 45.5464286 216.675393 45.5464286 213.612565 54.8892857 193.743455 54.8892857 193.743455 70.6942857 213.612565 70.6942857 213.612565 80.0371429 193.743455 80.0371429 193.743455 97.1657143 216.675393 97.1657143 216.675393 106.508571"></polygon>
                <path d="M240.706806,107.442857 C232.068063,107.442857 225.863874,104.64 221.780105,101.915 L226.335079,93.6621429 C229.712042,95.9978571 234.424084,98.3335714 240.235602,98.3335714 C244.947644,98.3335714 250.366492,96.3871429 250.366492,91.3264286 C250.366492,82.6064286 235.445026,81.0492857 227.984293,72.7185714 C225.549738,69.9935714 223.979058,66.49 223.979058,61.8185714 C223.979058,52.7092857 231.125654,45.0792857 244.005236,45.0792857 C250.52356,45.0792857 255.78534,46.6364286 259.08377,48.505 L258.926702,58.4707143 C254.136126,55.9014286 249.581152,54.2664286 244.554974,54.2664286 C239.60733,54.2664286 235.680628,56.3685714 235.680628,60.4171429 C235.680628,71.7064286 262.225131,71.0835714 262.225131,90.0028571 C262.382199,100.669286 252.801047,107.442857 240.706806,107.442857" id="Shape" fill="#003A57"></path>
                <path d="M9.34554974,85.9542857 C3.69109948,77.3121429 0.471204188,67.035 0.471204188,55.9792857 C0.471204188,25.4592857 25.4450262,0.622857143 56.3089005,0.622857143 C68.1675393,0.622857143 73.2722513,3.89285714 75,5.29428571 C78.0628272,7.86357143 80.104712,11.3671429 79.8691099,15.0264286 C78.9267016,29.3521429 58.1151832,26.3935714 37.539267,31.2207143 C7.38219895,38.2278571 -1.96335079,64.0764286 9.34554974,85.9542857" id="Shape" fill="#93C01F"></path>
                <path d="M79.5549738,12.1457143 C80.7329843,16.4278571 80.1832461,19.62 78.6910995,22.5785714 C67.9319372,43.6 26.7015707,28.885 16.8062827,63.1421429 C12.8010471,79.1028571 21.1256545,98.1 38.1675393,107.365 C39.7382199,108.221429 39.5811518,108.766429 37.8534031,108.143571 C26.0732984,104.095 16.0994764,96.1535714 9.42408377,85.8764286 C-1.88481675,63.9985714 7.46073298,38.15 37.539267,31.2207143 C58.1151832,26.4714286 78.9267016,29.3521429 79.8691099,15.0264286 C79.8691099,14.0921429 79.7905759,13.08 79.5549738,12.1457143" id="Shape" fill="#5A7410"></path>
                <path d="M76.5706806,4.36 C92.1989529,10.4328571 104.371728,23.2014286 109.47644,39.1621429 C109.47644,39.1621429 113.167539,52.5535714 104.60733,64.31 C89.1361257,85.4871429 61.6492147,77.8571429 58.9790576,63.22 C54.5811518,39.5514286 87.2513089,41.965 84.7382199,18.6857143 C83.9528796,13.0021429 80.4188482,8.09714286 76.0994764,5.06071429 C74.2931937,3.97071429 74.6858639,3.65928571 76.5706806,4.36" id="Shape" fill="#0074AA"></path>
                <path d="M74.2931937,108.299286 C72.6439791,108.844286 72.3298429,108.610714 73.9005236,107.442857 C76.8062827,105.262857 79.2408377,101.759286 78.6125654,96.9321429 C76.8062827,83.385 57.1727749,85.3314286 54.1099476,68.9035714 C52.617801,61.04 55.8376963,51.775 68.0104712,43.1328571 C61.9633508,47.7264286 57.1727749,53.0985714 59.0575916,63.22 C61.8062827,77.8571429 89.2146597,85.4871429 104.685864,64.31 C113.246073,52.6314286 109.554974,39.1621429 109.554974,39.1621429 C111.282723,44.4564286 112.146597,50.0621429 112.146597,55.9014286 C112.068063,80.1928571 96.2827225,100.902857 74.2931937,108.299286" id="Shape" fill="#003A57"></path>
            </g>
        </g>
    </g>
</svg>