<?xml version="1.0" encoding="UTF-8"?>
<svg width="600px" height="250px" viewBox="0 0 600 250" version="1.1" xmlns="http://www.w3.org/2000/svg" xmlns:xlink="http://www.w3.org/1999/xlink">
    <!-- Generator: Sketch 50.1 (55044) - http://www.bohemiancoding.com/sketch -->
    <title>TOTS</title>
    <desc>Created with Sketch.</desc>
    <defs>
        <radialGradient cx="76.4989548%" cy="43.1552301%" fx="76.4989548%" fy="43.1552301%" r="74.5751235%" id="radialGradient-1">
            <stop stop-color="#231161" stop-opacity="0" offset="16.79%"></stop>
            <stop stop-color="#231161" offset="100%"></stop>
        </radialGradient>
    </defs>
    <g id="TOTS" stroke="none" stroke-width="1" fill="none" fill-rule="evenodd">
        <g id="Grid-Logo" opacity="0.400000006" transform="translate(1.000000, 0.000000)"></g>
        <g id="Group-7" transform="translate(96.000000, 67.000000)" fill-rule="nonzero">
            <path d="M190.238876,37.9323563 L176.037675,37.9323563 L176.037675,87.2953777 C176.037675,88.2187148 175.232453,89 174.280826,89 L162.788102,89 C161.836475,89 161.031252,88.2187148 161.031252,87.2953777 L161.031252,37.9323563 L146.75685,37.9323563 C145.805223,37.9323563 145,37.222097 145,36.2987599 L145,27.6335964 C145,26.7102593 145.805223,26 146.75685,26 L190.165674,26 C191.117301,26 191.995725,26.7102593 191.995725,27.6335964 L191.995725,36.3697858 C192.068928,37.2931229 191.190503,37.9323563 190.238876,37.9323563 Z" id="Shape" fill="#00ACC8"></path>
            <path d="M222,93 C207.531073,93 196,85.1956044 196,64.7274725 L196,54.2725275 C196,33.878022 207.531073,26 222,26 C236.468927,26 248,33.8043956 248,54.2725275 L248,64.7274725 C247.926554,85.121978 236.468927,93 222,93 Z M232.870056,54.2725275 C232.870056,43.743956 229.344633,39.2527473 222,39.2527473 C214.655367,39.2527473 211.20339,43.743956 211.20339,54.2725275 L211.20339,64.7274725 C211.20339,75.256044 214.655367,79.7472527 222,79.7472527 C229.344633,79.7472527 232.870056,75.256044 232.870056,64.7274725 L232.870056,54.2725275 Z" id="Shape" fill="#00ACC8"></path>
            <path d="M297.238876,37.9323563 L283.037675,37.9323563 L283.037675,87.2953777 C283.037675,88.2187148 282.232453,89 281.280826,89 L269.788102,89 C268.836475,89 268.031252,88.2187148 268.031252,87.2953777 L268.031252,37.9323563 L253.75685,37.9323563 C252.805223,37.9323563 252,37.222097 252,36.2987599 L252,27.6335964 C252,26.7102593 252.805223,26 253.75685,26 L297.165674,26 C298.117301,26 298.995725,26.7102593 298.995725,27.6335964 L298.995725,36.3697858 C299.068928,37.2931229 298.190503,37.9323563 297.238876,37.9323563 Z" id="Shape" fill="#00ACC8"></path>
            <path d="M359.927056,27.8353726 L346.942971,82.2358176 C344.973475,90.6785317 338.554377,92 332.572944,92 C326.591512,92 320.099469,90.6785317 318.129973,82.2358176 L305.072944,27.8353726 C305.072944,27.6885428 305,27.541713 305,27.3948832 C305,26.5873192 305.729443,26 306.604775,26 L318.713528,26 C319.588859,26 320.245358,26.7341491 320.464191,27.6151279 L331.332891,78.2714127 C331.47878,79.2258065 331.770557,79.592881 332.572944,79.592881 C333.375332,79.592881 333.594164,79.2258065 333.812997,78.2714127 L344.681698,27.6151279 C344.827586,26.7341491 345.484085,26 346.359416,26 L358.541114,26 C359.416446,26 360,26.5139043 360,27.3948832 C360,27.4682981 359.927056,27.6885428 359.927056,27.8353726 Z" id="Shape" fill="#00ACC8"></path>
            <path d="M385.139303,93 C378.280265,93 373.099502,92.1901099 368.648425,91.0857143 C367.772803,90.7912088 366.897181,90.2758242 366.897181,89.3186813 L366.897181,80.7043956 C366.897181,79.4527473 367.626866,79.010989 368.502488,79.010989 C368.575456,79.010989 368.648425,79.010989 368.794362,79.010989 C372.369818,79.3791209 381.92869,80.0417582 385.358209,80.0417582 C391.341625,80.0417582 393.092869,78.1274725 393.092869,73.8571429 C393.092869,71.2802198 391.852405,69.8813187 387.328358,67.1571429 L375.288557,59.9417582 C367.189055,55.0824176 365,49.5604396 365,43.1549451 C365,33.5098901 370.399668,26 387.328358,26 C393.676617,26 402.505804,27.0307692 405.789386,27.9142857 C406.446103,28.0615385 407.102819,28.5032967 407.102819,29.5340659 L407.102819,38.4428571 C407.102819,39.2527473 406.737977,39.9153846 405.643449,39.9153846 C405.643449,39.9153846 405.570481,39.9153846 405.497512,39.9153846 C403.089552,39.7681319 392.946932,38.9582418 387.036484,38.9582418 C382.074627,38.9582418 380.250415,40.4307692 380.250415,43.5967033 C380.250415,46.0263736 381.41791,47.2043956 386.087894,49.7813187 L397.252073,55.8186813 C406.300166,60.7516484 409,66.5681319 409,73.7098901 C408.927032,83.0604396 402.797678,93 385.139303,93 Z" id="Shape" fill="#00ACC8"></path>
            <path d="M119,59.5 C119,92.3351852 92.408642,119 59.5,119 C26.6648148,119 0,92.408642 0,59.5 C0,26.6648148 26.591358,0 59.5,0 C92.3351852,-5.21941886e-15 119,26.6648148 119,59.5 Z" id="Shape" fill="#00ACC8"></path>
            <path d="M119,59.5 C119,92.3351852 92.408642,119 59.5,119 C26.6648148,119 0,92.408642 0,59.5 C0,26.6648148 26.591358,0 59.5,0 C92.3351852,-5.21941886e-15 119,26.6648148 119,59.5 Z" id="Shape" fill="url(#radialGradient-1)"></path>
            <path d="M99.7804296,33.6381783 C95.9331742,30.3905322 45.9928401,17.7689984 42.2195704,19.0975809 C40.8878282,20.3523532 40.1479714,29.8738612 40,40.1334706 C55.5369928,43.7501674 74.1813842,49.0644974 76.4749403,50.983561 C78.1026253,53.2716754 78.7684964,66.2622599 78.6945107,78.2195024 C89.2004773,80.655237 98.300716,82.4266804 99.7804296,81.9100094 C102.739857,79.1790343 102.739857,37.8453563 99.7804296,33.6381783 Z" id="Shape" fill="#FFFFFF" opacity="0.5"></path>
            <path d="M38.5250597,66.954982 C36.9713604,64.6677494 36.2315036,51.6821708 36.3054893,39.7295359 C25.7995227,37.2947399 16.699284,35.5239792 15.2195704,36.1142327 C12.2601432,38.8441555 12.2601432,80.1619057 15.2195704,84.3674625 C19.0668258,87.6138571 69.0071599,100.230527 72.7804296,98.9024567 C74.1121718,97.6481679 74.8520286,88.130329 75,77.8746731 C59.4630072,74.1855883 40.7446301,68.8733061 38.5250597,66.954982 Z" id="Shape" fill="#FFFFFF" opacity="0.5"></path>
            <path d="M76.7591853,50.5406977 C74.4489273,48.6763566 55.6687657,43.5135659 40.0186311,40 C39.8695822,51.6162791 40.6148267,64.2364341 42.2543646,66.4593023 C44.5646226,68.3236434 63.3447842,73.4864341 78.9949188,77 C79.0694432,65.3120155 78.3241987,52.6918605 76.7591853,50.5406977 Z" id="Shape" fill="#FFFFFF"></path>
        </g>
    </g>
</svg>