<?xml version="1.0" encoding="UTF-8"?>
<svg width="600px" height="250px" viewBox="0 0 600 250" version="1.1" xmlns="http://www.w3.org/2000/svg" xmlns:xlink="http://www.w3.org/1999/xlink">
    <!-- Generator: Sketch 50.1 (55044) - http://www.bohemiancoding.com/sketch -->
    <title>UGPA</title>
    <desc>Created with Sketch.</desc>
    <defs>
        <polygon id="path-1" points="0.300709427 0.940185714 97.2929172 0.940185714 97.2929172 16 0.300709427 16"></polygon>
    </defs>
    <g id="UGPA" stroke="none" stroke-width="1" fill="none" fill-rule="evenodd">
        <g id="Grid-Logo" opacity="0.400000006" transform="translate(-4.000000, 0.000000)"></g>
        <g transform="translate(190.000000, 16.000000)">
            <path d="M5,72.7817497 C6.39136294,69.5657798 7.53911179,67.3944572 8.27497703,65.1025057 C9.34738132,61.7490187 11.4243798,60.7622732 15.0886371,60.7839864 C41.7957734,60.9480419 68.5079326,60.9166784 95.2150689,60.844301 C99.4594793,60.8322381 104.085636,61.9637383 107.561531,58.405182 C108.13415,57.8189249 108.154242,57.9226659 108.626401,58.3738184 C112.519204,62.0964303 117.51706,60.7960493 122.085452,60.8201752 C146.61513,60.9528671 171.144809,60.9022029 195.671975,60.8829022 C206.971149,60.8732519 207.576417,61.3292297 210,72.8058755 C199.783277,72.8058755 189.641899,72.8082881 179.498009,72.8058755 C158.240796,72.8010503 136.981072,72.7986377 115.723859,72.7817497 C112.476508,72.7793371 109.133721,73.1532871 106.348484,70.9457759 C105.811026,70.5211617 105.296172,70.0169323 104.535191,70.6224901 C100.084839,74.1641584 94.775559,72.6924842 89.8329556,72.7190226 C63.4899847,72.8541271 37.1419908,72.7817497 10.7990199,72.7817497 L5,72.7817497 Z" id="Fill-1" fill="#086098"></path>
            <path d="M151.125746,157.754814 C134.711106,157.754814 118.296465,157.778982 101.879302,157.737897 C98.1048933,157.72823 94.1463057,158.43875 90.8764972,155.756175 C90.2634081,155.255911 89.6402271,155.081906 88.971632,155.657089 C85.4142014,158.726341 81.0065198,157.711313 76.9318742,157.73548 C57.2348102,157.8539 37.5352233,157.788649 17.8356363,157.769315 C13.3522647,157.764481 7.19614376,151.101545 8.08676289,147.053515 C8.57874797,144.808369 10.7586203,145.835481 12.1361785,145.828231 C27.0900017,145.760562 42.048871,145.80648 57.0026942,145.816147 C65.0283584,145.820981 73.0540226,145.837898 81.0796868,145.796813 C84.7985893,145.775063 88.8555739,146.678921 91.3104533,142.715477 C91.9891404,141.623113 92.7990235,141.896204 93.3692216,142.766229 C95.766072,146.422748 99.5783255,145.813731 103.178647,145.813731 C138.016236,145.808897 172.851302,145.789563 207.688892,145.789563 C214.014054,145.79198 213.736524,145.731562 211.725692,151.355302 C209.954546,156.295107 207.272597,158.160826 201.459604,157.989237 C184.696789,157.493807 167.906222,157.812816 151.125746,157.812816 L151.125746,157.754814 Z" id="Fill-3" fill="#086098"></path>
            <path d="M14,166.913939 C34.2146499,166.913939 53.3296632,166.998878 72.4421544,166.850842 C76.7448609,166.816866 81.7789771,168.481672 84.760102,163.516376 C85.4410696,162.383046 85.8647828,163.404742 86.1699572,163.843998 C88.6214406,167.367757 92.3818951,166.938207 96.0212887,166.935781 C127.928405,166.916366 159.838043,166.904232 191.745159,166.889671 C194.463985,166.887244 197.185334,166.887244 200,166.887244 C197.028963,175.980579 193.392092,178.654947 184.332701,178.654947 C153.699246,178.657373 123.068314,178.671934 92.4373814,178.645239 C89.3932039,178.642812 86.1876119,179.227679 83.5822802,176.927043 C83.2392743,176.623689 82.4851657,176.296067 82.2026902,176.451384 C74.159706,180.882777 65.4332321,178.089495 57.0497641,178.545739 C47.9626295,179.040813 38.802354,178.300629 29.7152194,178.79813 C24.0732766,179.106337 20.3481315,177.487641 17.9143028,172.653394 C17.0643543,170.96432 15.7730379,169.483953 14,166.913939" id="Fill-5" fill="#086098"></path>
            <path d="M201,52.592495 C174.573206,52.592495 149.058115,52.4488983 123.55058,52.6825472 C116.090734,52.7506948 108.862592,50.78415 101.125709,52.2760955 C93.7615669,53.6950257 85.8760917,52.5900612 78.2198015,52.592495 C70.3821781,52.5949289 62.5445547,52.592495 54.7069313,52.592495 C47.0506411,52.592495 39.3943509,52.5973627 31.7380607,52.5973627 C26.3106577,52.5997966 20.8807361,52.5997966 15,52.5997966 C16.677332,48.418455 19.5333297,45.6949851 21.6564391,42.5212543 C23.2028083,40.2115377 25.4518435,40.8199983 27.5321382,40.8175645 C52.6870811,40.7713215 77.8445425,40.562011 102.989411,40.9635951 C107.190297,41.0317427 110.857257,36.757915 113.21207,38.3593835 C116.851326,40.8321676 120.253842,40.7664538 123.963617,40.778623 C143.648342,40.8321676 163.375882,41.5233789 183.002681,40.4987311 C192.965932,39.9778888 196.814226,44.9356262 201,52.592495" id="Fill-7" fill="#086098"></path>
            <path d="M186,31.914255 C163.563665,31.914255 142.427695,32.1939659 121.311885,31.6894873 C116.846291,31.5820983 112.511741,31.4747092 108.025986,31.6020776 C82.7822743,32.3238317 57.5083212,31.9517163 32,31.3723151 C37.78864,26.0752894 42.0173461,19.2223716 51.7625227,19.5270568 C69.9651115,20.088976 88.1954213,19.7343425 106.415651,19.6744045 C109.953853,19.6619174 113.852428,20.4535992 116.319593,16.7049733 C117.025217,15.6285857 117.831645,15.8733328 118.388584,16.8423313 C120.311411,20.1838779 123.592564,19.6793993 126.629269,19.689389 C138.471158,19.7368399 150.38613,20.5185321 162.134776,19.4796058 C172.877907,18.5305866 178.734589,24.6767347 186,31.914255" id="Fill-9" fill="#086098"></path>
            <path d="M186,185.932374 C179.125856,192.762941 173.267955,198.316903 162.530571,197.923161 C138.665237,197.047635 114.739381,197.676155 90.8362207,197.619906 C87.2730637,197.612569 83.482954,198.40739 80.3737023,195.741684 C80.0383167,195.455548 79.2994596,195.206097 78.9766825,195.367507 C69.1218929,200.334524 58.5559849,196.531613 48.3859833,197.659036 C44.177272,198.126146 36.3221877,191.951001 32,185.653576 C45.9752415,185.653576 59.5596201,185.658467 73.1439987,185.648685 C76.22299,185.646239 79.5314557,186.081556 81.3495988,182.802004 C82.1388898,181.376218 82.668446,182.144137 83.1299165,182.863144 C85.1271,185.981286 88.3044375,185.660913 91.4061241,185.660913 C122.42299,185.668249 153.437334,185.682923 184.456722,185.697597 C184.635762,185.697597 184.817324,185.7514 186,185.932374" id="Fill-11" fill="#086098"></path>
            <path d="M140.418847,105.638267 C139.317784,104.470468 135.77811,107.763154 135.968825,103.363598 C136.342627,94.6279529 138.676981,90.2613998 143.002402,90.1801616 C149.847806,90.0481495 153.156079,92.1755748 153.156079,96.707143 C153.153536,101.929236 148.095769,105.55449 140.418847,105.638267 M158.844478,107.6743 C164.563391,104.201367 166.696858,98.7330206 165.804311,92.1298783 C164.944821,85.7780668 160.677886,82.916959 154.958973,81.2033408 C150.97684,80.0126935 146.961649,80.3427236 143.078688,80 C139.836529,80.1853246 136.718972,80.3071819 133.609043,80.5534352 C130.028683,80.8352302 128.070673,82.1680444 127.282384,86.3441955 C124.576771,100.718279 121.225269,114.973044 118.072111,129.260812 C116.075959,138.316332 116.03273,138.20463 125.398118,137.770513 C127.890129,137.653733 128.902191,136.909896 129.326851,134.429592 C130.09734,129.928488 131.200945,125.478158 132.309636,121.043061 C132.902125,118.671921 131.94092,115.270071 136.401113,115.313229 C140.683305,115.353848 144.159407,116.184001 145.026526,120.999903 C145.476614,123.508132 145.563071,126.082367 145.814815,128.628677 C146.773477,138.3011 147.025221,138.51435 156.599124,137.701968 C157.148384,137.653733 157.702729,137.663888 158.246903,137.592805 C158.999593,137.491257 159.665824,137.257697 159.464938,136.270145 C158.038388,129.28366 159.686167,121.497487 156.154122,115.287842 C153.379851,110.405934 155.531119,109.684945 158.844478,107.6743" id="Fill-13" fill="#086098"></path>
            <path d="M19.0104616,138.999915 C6.33774421,139.027862 -0.663839261,132.127567 0.0496979081,119.277164 C0.740937041,106.802772 4.1178508,94.7069306 7.0810121,82.6644419 C8.18848125,78.1599413 13.6762758,80.8783934 17.0754876,80.7869315 C20.6952022,80.6903883 18.4951292,83.8661501 18.2325079,85.3041351 C16.4461874,95.0245068 14.3353067,104.683904 12.4424511,114.383951 C11.1367772,121.083538 12.9528284,126.149513 16.9986832,127.699285 C22.558327,129.833397 28.6828544,127.158135 31.72282,120.849802 C35.2533425,113.527765 35.7290339,105.319056 37.6194119,97.5193852 C38.7367913,92.8980167 39.244691,88.0937242 40.6469898,83.5765206 C42.4952492,77.6035479 47.6064547,80.926665 51.0453075,80.880934 C54.5015031,80.8326625 52.3930999,84.2345385 52.0487191,85.9951808 C50.1831167,95.5224662 48.1614281,105.016724 46.1075312,114.500819 C42.547278,130.956346 33.6503614,138.966888 19.0104616,138.999915" id="Fill-15" fill="#086098"></path>
            <path d="M196.607465,90.3634269 C192.658077,98.6264945 189.479423,105.276393 186.036302,112.480028 C189.343411,112.480028 191.88986,112.27775 194.390972,112.530597 C197.954993,112.889641 198.655203,111.547019 198.161529,108.151273 C197.3782,102.768142 197.17922,97.2990433 196.607465,90.3634269 M161,137.43611 C170.674491,118.884664 180.097107,100.833856 189.489498,82.7653492 C190.22749,81.3443443 191.134237,80.734981 192.83187,80.5579875 C205.959557,79.1799667 206.445674,79.4252291 208.052632,92.4342507 C209.752783,106.19423 211.165798,119.992137 212.901212,133.749589 C213.299173,136.917772 212.571256,137.86848 209.309485,137.876065 C200.44351,137.893765 199.985099,138.060644 199.755894,129.420833 C199.594694,123.286745 197.194332,122.171686 191.580055,122.202027 C185.144667,122.239955 179.699146,122.406834 178.021663,130.073181 C175.931107,139.640943 168.750171,138.212353 161,137.43611" id="Fill-17" fill="#086098"></path>
            <path d="M103.50206,81.0771566 C109.353415,81.0771566 115.209824,81.2421489 121.051073,81.013698 C124.441625,80.8817041 125.348636,81.6584373 124.888814,85.326344 C124.209188,90.7330162 122.041458,92.5580853 116.505914,92.2534841 C107.114943,91.7407387 107.084626,92.1189519 105.063432,101.533669 C102.678424,112.641461 100.273203,123.744177 97.9437779,134.862122 C96.491045,141.796877 91.1803591,137.837061 87.7670685,138.192429 C83.2901249,138.662023 85.8620936,134.796125 86.0288421,133.085282 C87.2213463,120.802236 91.5972302,109.181699 93.8003312,97.0788756 C94.631547,92.5174718 93.4542018,91.5452862 89.4396061,92.0656467 C88.3582676,92.2052556 87.2466112,92.0935684 86.1501137,92.0935684 C78.7904428,92.1037218 77.3756073,89.5653781 80.7004707,82.7956153 C81.7110674,80.7344801 83.2926513,81.1203084 84.8540233,81.0873099 C87.9616084,81.021313 91.0691934,81.0517731 94.1767785,81.0466964 C97.28689,81.0416197 100.394475,81.0466964 103.50206,81.0466964 L103.50206,81.0771566 Z" id="Fill-19" fill="#086098"></path>
            <path d="M46,138 C49.9132584,119.523836 53.4893431,101.553206 57.6222753,83.7095961 C59.0552635,77.5186965 64.7208035,80.9736097 68.3198773,80.8567524 C72.6469398,80.719572 69.7273221,84.1821063 69.4284635,85.7037923 C67.144878,97.3996895 64.6978143,109.067643 62.0310769,120.682248 C61.0297732,125.038995 60.9659145,127.602236 66.7744978,126.944278 C71.5179188,126.410799 76.3737309,126.941737 81.1759018,126.796936 C83.7660089,126.720725 84.2104651,127.739416 83.9243784,130.081644 C83.0252485,137.466521 82.527151,138 75.1374274,138 C65.5611834,138 55.9849394,138 46,138" id="Fill-21" fill="#086098"></path>
            <g id="Group-25" transform="translate(61.000000, 202.000000)">
                <mask id="mask-2" fill="white">
                    <use xlink:href="#path-1"></use>
                </mask>
                <g id="Clip-24"></g>
                <path d="M0.300709427,4.47375714 C1.89749693,4.47375714 3.51197036,4.32561429 5.08854536,4.50047143 C9.88901411,5.03475714 14.2473344,4.25761429 17.8628454,0.940185714 C21.1878016,5.56904286 26.2384001,4.35961429 30.8746422,4.4519 C35.0737891,4.53447143 39.2779891,4.47375714 43.4821891,4.47375714 C59.3793204,4.47618571 75.2764516,4.47861429 91.1735829,4.48104286 L97.2929172,4.48104286 C70.8751797,18.9310429 30.9352797,20.7257571 0.300709427,4.47375714" id="Fill-23" fill="#086098" mask="url(#mask-2)"></path>
            </g>
            <path d="M157,11.6767355 C148.057894,11.6767355 139.004581,12.5329919 130.201485,11.4583779 C119.543243,10.1555924 109.109944,12.1723338 98.5527999,11.7724203 C87.7959877,11.3651465 77.0088461,11.6865493 66.2343417,11.6890028 C64.4878762,11.6890028 62.7414106,11.6890028 61,11.1369751 C93.0328568,-3.82174989 125.090988,-3.78004112 157,11.6767355" id="Fill-26" fill="#086098"></path>
        </g>
    </g>
</svg>