<?xml version="1.0" encoding="UTF-8"?>
<svg width="600px" height="250px" viewBox="0 0 600 250" version="1.1" xmlns="http://www.w3.org/2000/svg" xmlns:xlink="http://www.w3.org/1999/xlink">
    <!-- Generator: Sketch 50.1 (55044) - http://www.bohemiancoding.com/sketch -->
    <title>USIM</title>
    <desc>Created with Sketch.</desc>
    <defs></defs>
    <g id="USIM" stroke="none" stroke-width="1" fill="none" fill-rule="evenodd">
        <g id="Grid-Logo" opacity="0.400000006" transform="translate(1.000000, 0.000000)"></g>
        <g transform="translate(45.000000, 56.000000)" fill-rule="nonzero" id="Shape">
            <path d="M508.470693,7.70266281e-15 C505.302842,7.70266281e-15 497.000888,3.9025923 489.900533,10.9489395 C482.800178,17.9952867 478.867673,26.2340927 478.867673,38.8091123 L478.867673,84.8813826 C478.867673,103.418696 466.633215,111.332286 448.5,111.332286 C430.366785,111.332286 418.132327,103.418696 418.132327,84.8813826 L418.132327,38.8091123 C418.132327,26.2340927 414.199822,18.1036921 407.099467,10.9489395 C399.999112,3.9025923 391.697158,0 388.529307,0 C387.436945,0 387,0.867242734 387,1.51767478 C387,3.25216025 387,87.8083268 387,87.8083268 C387,125.316575 419.77087,138 448.5,138 C477.338366,138 510,125.316575 510,87.8083268 C510,87.8083268 510,3.25216025 510,1.51767478 C510,0.867242734 509.563055,7.70266281e-15 508.470693,7.70266281e-15 Z" fill="#8FB435"></path>
            <path d="M31.4520199,76.6412214 C31.4520199,84.9427481 28.602708,87.7099237 21.5890172,87.7099237 C14.3561485,87.7099237 12.1643701,85.2748092 12.1643701,76.6412214 L12.1643701,41.7748092 L0,41.7748092 L0,74.759542 C0,93.0229008 8.21916897,98.889313 21.4794282,98.889313 C36.4931102,98.889313 43.0684454,90.1450382 43.0684454,74.759542 L43.0684454,41.7748092 L31.4520199,41.7748092 L31.4520199,76.6412214 Z M95.6711268,98.1145038 L107.945086,98.1145038 L107.945086,41.7748092 L95.6711268,41.7748092 L95.6711268,98.1145038 Z M160.876534,41.7748092 L149.588875,83.8358779 L149.260109,83.8358779 L137.314916,41.7748092 L123.506712,41.7748092 C121.314934,60.7022901 118.465622,98.1145038 118.465622,98.1145038 L128.766981,98.1145038 L131.83547,59.0419847 L132.164237,59.0419847 L143.123129,98.1145038 L154.739555,98.1145038 L165.36968,59.0419847 L165.808035,59.0419847 L168.218992,98.1145038 L179.945006,98.1145038 C179.945006,98.1145038 177.095694,60.5916031 175.123094,41.7748092 L160.876534,41.7748092 Z M190.246364,98.1145038 L202.520323,98.1145038 L202.520323,41.7748092 L190.246364,41.7748092 L190.246364,98.1145038 Z M247.013425,78.7442748 L246.684658,78.8549618 C246.027125,76.6412214 227.287419,41.8854962 227.287419,41.8854962 L214.575105,41.8854962 L214.575105,98.2251908 L225.533997,98.2251908 L225.533997,59.3740458 L225.862763,59.2633588 L246.027125,98.2251908 L257.972317,98.2251908 L257.972317,41.7748092 L246.903836,41.7748092 L247.013425,78.7442748 Z M281.095579,41.7748092 C274.739422,60.9236641 264.328474,98.1145038 264.328474,98.1145038 L275.506544,98.1145038 L279.232567,84.610687 L295.232549,84.610687 L298.848984,98.1145038 L311.342121,98.1145038 C311.342121,98.1145038 300.602407,60.5916031 294.684605,41.7748092 L281.095579,41.7748092 Z M282.081879,74.4274809 L287.013381,54.3931298 L287.342147,54.3931298 L292.383238,74.4274809 L282.081879,74.4274809 Z M63.9999291,57.1603053 C63.9999291,53.5076336 66.5204742,51.6259542 70.3560864,51.4045802 C75.2875878,51.0725191 83.7259346,53.0648855 83.7259346,53.0648855 L83.7259346,42.2175573 C83.6163457,42.2175573 77.4793662,41 72.328687,41 C60.054728,41 51.2876144,46.8664122 51.2876144,57.8244275 C51.2876144,75.0916031 74.3012875,73.2099237 74.3012875,82.6183206 C74.3012875,86.3816794 72.328687,88.1526718 67.7259523,88.5954198 C61.369795,89.148855 52.1643257,85.2748092 52.1643257,85.2748092 L52.1643257,96.8969466 C52.1643257,96.8969466 58.5204831,99 66.3012964,99 C78.2464886,99 86.9040133,93.3549618 86.9040133,81.5114504 C87.0136022,65.129771 63.9999291,65.6832061 63.9999291,57.1603053 Z M329.095526,57.1603053 C329.095526,53.5076336 331.616071,51.6259542 335.451683,51.4045802 C340.383184,51.0725191 348.821531,53.0648855 348.821531,53.0648855 L348.821531,42.2175573 C348.711942,42.2175573 342.574963,41 337.424284,41 C325.150325,41 316.383211,46.8664122 316.383211,57.8244275 C316.383211,75.0916031 339.396884,73.2099237 339.396884,82.6183206 C339.396884,86.3816794 337.424284,88.1526718 332.821549,88.5954198 C326.465392,89.148855 317.259922,85.2748092 317.259922,85.2748092 L317.259922,96.8969466 C317.259922,96.8969466 323.61608,99 331.396893,99 C343.342085,99 351.99961,93.3549618 351.99961,81.5114504 C352.109199,65.129771 329.095526,65.6832061 329.095526,57.1603053 Z" fill="#000000"></path>
        </g>
    </g>
</svg>