<?xml version="1.0" encoding="UTF-8"?>
<svg width="600px" height="250px" viewBox="0 0 600 250" version="1.1" xmlns="http://www.w3.org/2000/svg" xmlns:xlink="http://www.w3.org/1999/xlink">
    <!-- Generator: Sketch 50.1 (55044) - http://www.bohemiancoding.com/sketch -->
    <title>VALE</title>
    <desc>Created with Sketch.</desc>
    <defs></defs>
    <g id="VALE" stroke="none" stroke-width="1" fill="none" fill-rule="evenodd">
        <g id="Grid-Logo" opacity="0.400000006" transform="translate(1.000000, 0.000000)"></g>
        <g transform="translate(75.000000, 38.000000)" id="Group">
            <g>
                <path d="M209.936149,53.1 C179.000676,76.3066667 150.347973,73.868 124.056757,45.6266667 C177.426351,25.1733333 205.528041,-6.372 232.921284,20.6893333 L212.6125,49.7173333 L212.6125,49.796 C212.6125,49.796 212.6125,49.796 212.6125,49.796 C212.6125,49.796 212.6125,49.796 212.6125,49.796 C212.6125,49.796 212.533784,49.8746667 212.533784,49.8746667 C212.533784,49.8746667 212.455068,49.9533333 212.455068,49.9533333 L212.455068,50.3466667 C212.455068,50.3466667 212.455068,50.3466667 212.455068,50.3466667 L212.376351,50.3466667 C212.376351,50.3466667 212.140203,50.6613333 212.140203,50.6613333 C212.140203,50.6613333 212.140203,50.74 212.140203,50.74 C212.140203,50.74 212.061486,50.8186667 211.98277,50.8186667 C211.904054,50.8973333 211.825338,50.8973333 211.746622,50.976 C211.746622,50.976 211.746622,50.976 211.746622,50.976 L211.667905,50.976 C211.667905,50.976 211.589189,51.0546667 211.510473,51.0546667 L211.431757,51.1333333 C211.431757,51.684 210.723311,51.8413333 210.723311,52.2346667 C210.723311,52.2346667 210.644595,52.392 210.644595,52.392 C210.644595,52.392 210.565878,52.4706667 210.565878,52.4706667 C209.857432,52.9426667 209.936149,53.1 209.936149,53.1 Z" id="Shape" fill="#E4AE26"></path>
                <path d="M212.6125,49.7173333 C132.007095,122.641333 100.363176,-49.8746667 0,15.4186667 L113.115203,176.292 L212.6125,49.7173333 Z" id="Shape" fill="#127876"></path>
            </g>
            <g transform="translate(229.000000, 96.000000)" fill="#97989B">
                <polygon id="Shape" points="0.626950355 0.68961039 28.0560284 58.5402597 34.4039007 58.9233766 58.5414894 0.383116883 47.8049645 0 31.4258865 43.2922078 11.7553191 0.383116883"></polygon>
                <path d="M61.9113475,58.5402597 L87.5379433,0.383116883 L96.0801418,0.383116883 L120.21773,58.9233766 L108.697518,58.5402597 L103.838652,44.3649351 L78.6039007,44.3649351 L73.7450355,58.9233766 L61.9113475,58.5402597 Z M83.6195035,35.3233766 L98.8230496,35.3233766 L92.1617021,14.7116883 L83.6195035,35.3233766 Z" id="Combined-Shape"></path>
                <polygon id="Shape" fill-rule="nonzero" points="136.910284 58.2337662 136.910284 2.60519481 147.490071 2.60519481 147.490071 48.7324675 173.586879 48.7324675 173.586879 58.2337662"></polygon>
                <path d="M186.752837,57.8506494 L186.752837,1.45584416 L219.902837,1.45584416 L219.902837,5.82337662 C217.395035,7.35584416 215.043972,9.27142857 212.771277,11.0337662 L195.765248,11.0337662 L195.765248,23.5233766 L218.178723,23.5233766 L218.178723,33.0246753 L195.765248,33.0246753 L195.765248,48.3493506 L220.764894,48.3493506 L220.764894,57.8506494 L186.752837,57.8506494 Z" id="Shape" fill-rule="nonzero"></path>
            </g>
        </g>
    </g>
</svg>