<?xml version="1.0" encoding="UTF-8"?>
<svg width="600px" height="250px" viewBox="0 0 600 250" version="1.1" xmlns="http://www.w3.org/2000/svg" xmlns:xlink="http://www.w3.org/1999/xlink">
    <!-- Generator: Sketch 50.1 (55044) - http://www.bohemiancoding.com/sketch -->
    <title>VIVT</title>
    <desc>Created with Sketch.</desc>
    <defs></defs>
    <g id="VIVT" stroke="none" stroke-width="1" fill="none" fill-rule="evenodd">
        <g id="Grid-Logo" opacity="0.400000006"></g>
        <g transform="translate(75.000000, 64.000000)" fill="#004996" stroke="#004996" stroke-width="0.05329">
            <path d="M133.129282,56.0805085 C126.506077,66.1197034 117.348066,75.3008475 109.416575,75.3008475 C106.227624,75.3008475 104.592265,73.4131356 104.592265,69.2944915 C104.592265,66.8919492 105.246409,63.2881356 105.491713,61.657839 C113.259669,57.7966102 120.78232,53.2489407 127.650829,45.8697034 C131.330387,41.5794492 134.028729,37.2033898 134.028729,32.9131356 C134.028729,28.8802966 131.739227,26.4777542 126.751381,26.4777542 C119.474033,26.4777542 110.80663,31.5402542 105.246409,37.9756356 C97.9690608,46.3845339 92.2453039,58.1398305 92,68.8654661 C92,76.3305085 95.4342541,82.2510593 104.592265,82.0794492 C114.40442,81.5646186 124.216575,73.6705508 129.040884,67.9216102 C128.550276,70.3241525 128.141436,72.7266949 128.141436,74.6144068 C128.141436,81.3072034 131.330387,85.8548729 137.462983,88 L138.607735,87.3135593 C138.117127,85.4258475 138.117127,83.7097458 138.117127,81.5646186 C138.607735,75.1292373 141.060773,67.6641949 144.495028,58.0540254 C151.363536,39.8633475 161.420994,19.184322 166,7 L155.288398,8.88771186 C153.898343,9.40254237 152.753591,10.6038136 152.344751,11.9766949 C147.356906,23.0455508 142.041989,35.2298729 135.418785,50.8463983 C134.682873,52.4766949 134.028729,54.1927966 133.129282,56.0805085 Z M123.317127,31.8834746 C124.952486,31.8834746 125.60663,33.0847458 125.60663,34.5434322 C125.60663,41.7510593 117.348066,50.5889831 106.636464,57.2817797 C109.334807,46.2987288 116.939227,31.8834746 123.317127,31.8834746 Z" id="Shape"></path>
            <path d="M305,73.2447257 C305.250545,78.2236287 308.257081,81.2616034 314.103123,81.0084388 C320.19971,81.0084388 326.463326,77.2109705 331.557734,72.3164557 C332.726943,77.464135 336.485113,81.5147679 344.168482,81.2616034 C352.352941,81.0084388 360.036311,75.8607595 365.381264,69.9535865 C365.381264,70.4599156 365.381264,70.8818565 365.130719,71.6413502 C365.381264,77.0421941 368.137255,81.092827 374.233842,81.092827 C380.998548,81.092827 388.681917,76.1139241 394.527959,67.4219409 L394.778504,67.6751055 C394.277415,69.5316456 393.609296,73.0759494 393.609296,75.4388186 C393.609296,82.021097 397.367466,85.8185654 402.712418,87 L403.881627,86.3248945 C402.044299,81.5991561 404.80029,69.7848101 405.969499,65.8185654 C409.894699,52.8227848 416.24183,37.9704641 420,30.2067511 C418.329702,28.7721519 414.404503,27.8438819 410.228758,27.5907173 C396.448802,27.0843882 382.501816,32.7383966 372.229484,51.1350211 C370.559187,54.1729958 368.471314,57.7172996 367.135076,61.7679325 C365.715323,63.6244726 364.29557,65.3122363 363.627451,65.9873418 C360.119826,69.5316456 354.774873,74.257384 349.42992,74.257384 C346.423384,74.257384 344.753086,72.1476793 344.753086,68.350211 C345.003631,53.7510549 357.614379,31.556962 366.216412,31.556962 C368.554829,31.556962 369.724038,32.4852321 369.473493,34.5949367 C369.724038,36.9578059 368.05374,40.5021097 365.715323,42.6118143 L366.633987,43.5400844 C372.480029,41.1772152 377.824982,37.2109705 377.824982,32.907173 C377.824982,27.7594937 372.229484,27 367.135076,27 C360.620915,27 351.935367,30.2911392 345.170661,37.8860759 C336.735657,47.0843882 332.559913,58.3924051 331.641249,66.1561181 C327.883079,70.8818565 323.45679,73.9198312 320.700799,73.9198312 C319.030501,73.9198312 317.861293,73.2447257 317.861293,71.3037975 C317.861293,69.8691983 318.529412,66.8312236 320.19971,62.7805907 C323.957879,53.3291139 329.302832,41.5991561 335.816993,27.8438819 C335.816993,27.8438819 325.795207,29.5316456 324.375454,29.7004219 C322.705156,30.2067511 321.535948,31.1350211 320.867829,32.7383966 C316.692084,41.6835443 311.514161,52.5696203 308.257081,60.5864979 C306.419753,65.649789 305.250545,70.3755274 305,73.2447257 Z M399.455338,33.4135021 C402.712418,31.978903 405.551924,31.7257384 407.639797,32.4852321 C406.971678,34.1729958 402.962963,41.9367089 399.956427,49.1940928 C395.279593,60.2489451 388.097313,71.3881857 381.332607,73.2447257 C379.244735,73.7510549 377.824982,72.7383966 377.824982,70.628692 C377.992012,60.5021097 388.765432,38.5611814 399.455338,33.4135021 Z" id="Shape"></path>
            <path d="M336.31537,19 C339.193301,19 342.31106,16.2432432 342.790715,12.9189189 C343.670083,9.51351351 341.67152,7 338.793589,7 C335.915658,7 332.797899,9.75675676 332.078416,13.0810811 C331.598761,16.4864865 333.357496,19 336.31537,19 Z" id="Shape"></path>
            <g id="Group" transform="translate(0.000000, 1.000000)">
                <path d="M163.47786,36.3 C156.088561,44.5347222 150.276753,56.0465278 150.027675,66.55 C150.027675,73.6083333 153.763838,79.6583333 163.228782,79.4902778 C173.440959,78.9861111 182.905904,72.9361111 190.793358,64.4493056 C188.96679,69.8270833 187.057196,74.5326389 186.143911,77.3895833 C183.154982,84.8680556 180.830258,91.0020833 176.180812,94.53125 L176.678967,95.4555556 C190.378229,96.1277778 195.442804,86.5486111 200.756458,71.0034722 C206.568266,55.0381944 211.217712,41.4256944 214.870849,32.0145833 C220.682657,32.0145833 229.234317,32.2666667 233.883764,31.3423611 C221.595941,36.7201389 211.134686,56.4666667 212.297048,69.575 C212.961255,75.2048611 216.199262,79.2381944 223.671587,79.2381944 C237.619926,79.4902778 249.409594,62.6006944 254.059041,51.3409722 C256.632841,45.0388889 258.210332,39.5770833 258.45941,34.1993056 C261.946494,33.5270833 265.184502,32.7708333 266.595941,32.7708333 C269.833948,32.2666667 269.169742,35.6277778 268.256458,38.4006944 C262.693727,54.6180556 252.730627,78.3138889 252.48155,78.5659722 L263.607011,78.5659722 C268.256458,68.4826389 271.245387,62.0965278 274.98155,55.2902778 C279.630996,47.3076389 289.843173,33.9472222 293.745387,33.9472222 C295.405904,33.9472222 295.571956,34.8715278 295.405904,36.3 C294.741697,41.6777778 281.457565,62.6006944 281.706642,72.9361111 C281.95572,79.7423611 285.442804,83.7756944 291.420664,85.1201389 L292.583026,84.4479167 C291.918819,83.0194444 291.918819,81.1708333 291.669742,79.0701389 C291.669742,72.2638889 297.232472,60.2479167 299.308118,55.6263889 C302.795203,48.1479167 308.773063,37.5604167 308.357934,31.6784722 C308.357934,28.8215278 306.03321,26.3006944 301.134686,26.3006944 C292.333948,26.3006944 283.284133,34.9555556 275.894834,46.9715278 L275.645756,46.7194444 C278.634686,39.9131944 280.95941,33.3590278 280.95941,30.5020833 C280.710332,27.6451389 279.298893,26.5527778 275.894834,26.5527778 C273.570111,26.5527778 270.332103,27.4770833 267.094096,28.4013889 C262.942804,29.3256944 258.04428,30.7541667 252.979705,31.9305556 C249.990775,32.1826389 248.828413,32.6027778 248.828413,34.03125 C249.49262,51.8451389 237.453875,73.2722222 229.317343,73.2722222 C225.830258,73.2722222 224.916974,70.6673611 224.916974,67.1381944 C224.916974,54.7020833 235.129151,33.7791667 245.092251,30.5020833 C246.005535,29.9979167 246.752768,29.8298611 247.416974,29.8298611 L248.579336,26.5527778 C246.50369,26.8048611 241.605166,27.0569444 238.865314,27.0569444 C236.291513,27.0569444 217.02952,27.0569444 217.02952,27.0569444 C222.841328,13.1923611 230.97786,4.28541667 242.767528,3.78125 C250.156827,3.27708333 255.055351,6.13402778 255.304428,10.5875 C255.802583,14.1166667 254.806273,16.8895833 251.817343,19.9986111 L252.730627,20.9229167 C259.206642,17.6458333 263.607011,12.4361111 263.607011,8.99097222 C263.607011,3.36111111 257.130996,-0.168055556 246.420664,0.0840277778 C233.219557,0.0840277778 216.531365,3.10902778 204.907749,27.5611111 C201.669742,28.0652778 198.431734,29.4097222 195.857934,32.2666667 L196.356089,33.1909722 C198.182657,32.51875 200.50738,32.2666667 202.832103,32.51875 C201.420664,36.4680556 198.182657,44.9548611 194.944649,53.8618056 C185.230627,66.9701389 175.433579,73.1041667 168.293358,73.1041667 C164.391144,73.1041667 162.730627,71.0034722 162.730627,67.2222222 C162.730627,64.8694444 163.228782,61.3402778 163.643911,59.74375 C171.282288,55.9625 179.169742,51.5090278 185.894834,44.2826389 C189.797048,40.08125 192.370849,35.7958333 192.619926,31.5944444 C192.619926,27.6451389 190.046125,25.2923611 184.98155,25.2923611 C177.841328,25.0402778 169.04059,29.9979167 163.47786,36.3 Z M181.743542,30.4180556 C183.404059,30.4180556 184.068266,31.5944444 184.068266,33.0229167 C184.068266,40.08125 175.516605,48.7361111 164.806273,55.2902778 C167.629151,44.5347222 175.01845,30.4180556 181.743542,30.4180556 Z" id="Shape"></path>
                <path d="M224.916974,114.277778 C113.579336,114.025694 0.664206642,115.454167 0.664206642,117.302778 C0.664206642,118.73125 113.579336,120.159722 224.916974,120.327778 C336.171587,120.075694 449.335793,118.647222 449.335793,117.302778 C449.335793,115.454167 336.171587,114.025694 224.916974,114.277778 Z" id="Shape"></path>
            </g>
            <path d="M47.2257786,37.9036904 L47.8926104,37.3983078 C46.9757166,35.5452385 46.4755927,32.6814041 46.4755927,31.0810261 C46.9757166,16.2564716 62.3128494,7.74919892 86.3187964,8.00189019 C86.3187964,8.00189019 92.4036371,7.74919892 99.5720796,8.00189019 C91.9035132,12.4661026 85.4019025,18.3622322 80.4840176,29.9018002 C78.400168,34.6187039 68.1476282,60.9828263 63.9799291,72.9435464 C58.8953361,86.8415662 55.5611768,93.1588479 51.3934777,95.769991 L52.0603096,96.9492169 C63.7298671,97.6230603 70.4815397,91.5584699 74.8993008,80.6927453 C79.0669999,70.079712 84.6517167,53.6547795 87.4857521,46.3267327 C96.3212743,22.8264446 100.322265,12.6345635 107.240646,8.00189019 C116.993062,7.74919892 126.57877,7.74919892 126.57877,8.00189019 C137.24808,7.49650765 141.749195,4.96959496 145,0.673843384 L144.333168,0 C141.749195,1.17922592 135.914416,1.43191719 131.079885,1.68460846 L83.318053,1.68460846 C56.5614246,1.68460846 40.0573361,10.360342 37.2233007,23.8372097 C36.0563449,30.070261 39.4738582,37.1456166 47.2257786,37.9036904 Z" id="Shape"></path>
        </g>
    </g>
</svg>