<?xml version="1.0" encoding="UTF-8"?>
<svg width="600px" height="250px" viewBox="0 0 600 250" version="1.1" xmlns="http://www.w3.org/2000/svg" xmlns:xlink="http://www.w3.org/1999/xlink">
    <!-- Generator: Sketch 50.1 (55044) - http://www.bohemiancoding.com/sketch -->
    <title>VVAR</title>
    <desc>Created with Sketch.</desc>
    <defs></defs>
    <g id="VVAR" stroke="none" stroke-width="1" fill="none" fill-rule="evenodd">
        <g id="Grid-Logo" opacity="0.400000006" transform="translate(1.000000, 0.000000)"></g>
        <g transform="translate(114.000000, 23.000000)" id="Shape">
            <path d="M0.0994246981,134.086614 C-0.282787486,132.965585 0.481636882,131.751138 1.62827343,131.377461 C2.77490998,131.003785 4.01709958,131.751138 4.39931176,132.872166 L17.5856321,177.339637 C18.0633973,178.740923 18.6367156,179.675114 19.3055869,180.235628 C19.6877991,180.515885 19.9744582,180.609304 20.3566704,180.609304 C20.6433296,180.609304 21.0255418,180.515885 21.4077539,180.235628 C22.1721783,179.675114 22.8410496,178.740923 23.3188149,177.339637 L36.6006882,132.591909 C36.9829004,131.47088 38.22509,130.723528 39.3717266,131.097204 C40.5183631,131.47088 41.2827875,132.685328 40.9005753,133.806357 L27.6187019,178.554085 C27.6187019,178.647504 27.6187019,178.740923 27.5231489,178.740923 C26.6631715,181.0764 25.4209819,182.664524 24.0832392,183.692133 C22.9366027,184.532905 21.59886,185 20.2611174,185 C18.9233747,185 17.6811851,184.532905 16.5345486,183.598714 C15.196806,182.571105 14.0501694,180.889562 13.285745,178.647504 L13.285745,178.554085 L0.0994246981,134.086614 Z" fill="#214A3D" fill-rule="nonzero"></path>
            <path d="M49,113.239596 C49,112.026482 49.6734694,111 50.4693878,111 C51.2653061,111 51.9387755,112.026482 51.9387755,113.239596 L51.9387755,120.238335 C51.9387755,121.45145 51.2653061,122.477932 50.4693878,122.477932 C49.6734694,122.477932 49,121.45145 49,120.238335 L49,113.239596 Z M49.0612245,133.769231 C49.0612245,132.556116 49.7346939,131.529634 50.5306122,131.529634 C51.3265306,131.529634 52,132.556116 52,133.769231 L52,182.760404 C52,183.973518 51.3265306,185 50.5306122,185 C49.7346939,185 49.0612245,183.973518 49.0612245,182.760404 L49.0612245,133.769231 Z" fill="#214A3D" fill-rule="nonzero"></path>
            <path d="M95.6050339,156.877389 C94.6626919,156.877389 93.7203499,156.785513 92.872242,156.785513 C91.7414316,156.785513 90.516387,156.693638 89.3855766,156.693638 L89.0086398,156.693638 C83.071885,156.693638 74.5908068,156.601762 70.444502,160.368661 C69.5021599,161.195541 68.7482863,162.298048 68.2771153,163.584306 C67.7117101,164.96244 67.4290075,166.616201 67.4290075,168.637464 C67.4290075,172.496238 68.1828811,175.436257 69.9733309,177.45752 C71.7637808,179.386907 74.5908068,180.489414 78.7371117,180.765041 C81.3756694,180.856917 84.0142271,180.213788 86.7470189,179.295032 C89.574045,178.2844 92.401071,176.906267 95.2280971,175.528133 C95.3223313,175.528133 95.4165655,175.436257 95.5107997,175.436257 L95.6050339,156.877389 Z M95.5107997,180.213788 C93.1549446,181.40817 90.7048554,182.510677 88.2547661,183.337558 C85.1450375,184.440065 81.9410746,185.083194 78.6428775,184.991318 C78.5486433,184.991318 78.5486433,184.991318 78.4544091,184.991318 C73.0830596,184.715691 69.2194573,183.061931 66.6751339,180.213788 C64.1308104,177.365644 63,173.50687 63,168.545588 C63,166.064947 63.3769368,163.859933 64.1308104,162.022422 C64.884684,160.093034 66.0154945,158.531149 67.4290075,157.244891 C72.8945912,152.283609 82.3180114,152.375485 89.0086398,152.375485 L89.3855766,152.375485 C90.6106212,152.375485 91.7414316,152.375485 92.872242,152.467361 C93.8145841,152.467361 94.6626919,152.559236 95.5107997,152.559236 L95.5107997,149.527342 C95.5107997,149.435466 95.5107997,149.435466 95.5107997,149.343591 C95.7935023,144.290433 94.7569261,140.891037 92.872242,138.777898 C90.987558,136.66476 88.1605319,135.746004 84.6738665,135.378501 C82.0353088,135.286626 79.4909854,135.286626 76.8524277,135.470377 C74.21387,135.654128 71.6695466,135.929755 69.0309889,136.297257 C67.8059443,136.481008 66.6751339,135.654128 66.4866655,134.459746 C66.2981971,133.265363 67.1463049,132.162856 68.3713495,131.979105 C71.1041414,131.611602 73.8369332,131.2441 76.5697251,131.152224 C79.3025169,130.968473 82.129543,130.968473 84.9565691,131.060349 L85.0508033,131.060349 C89.6682792,131.427851 93.5318815,132.897861 96.2646733,135.929755 C98.903231,138.869774 100.316744,143.279802 99.9398072,149.527342 L99.845573,182.143175 C99.845573,183.337558 98.903231,184.256313 97.6781863,184.256313 C96.4531417,184.256313 95.5107997,183.337558 95.5107997,182.143175 L95.5107997,180.213788 Z" fill="#214A3D" fill-rule="nonzero"></path>
            <path d="M108.114264,130 L118.477375,130 C119.577882,130.186356 119.944718,130.93178 120.128136,131.956739 L129.390739,173.327787 C129.849284,176.123128 132.78397,176.402662 133.242515,173.327787 L142.688537,131.863561 C143.055372,130.745424 143.789044,130.186356 144.889551,130 L154.794118,130 C155.711207,130.093178 156.078043,130.652246 155.986334,131.584027 L143.422208,176.96173 C141.588029,183.484193 137.919671,186 131.500045,186 C124.346747,186 120.58668,182.925125 118.935919,175.56406 L107.013756,131.956739 C106.922047,131.118136 107.288883,130 108.114264,130 Z" fill="#214A3D"></path>
            <path d="M163.928105,132.502316 L163.928105,138.78725 C164.111111,139.711505 164.660131,139.988781 165.48366,140.081207 C172.346405,139.434228 179.20915,139.341803 186.071895,139.711505 C188.359477,140.081207 190.006536,141.929717 190.372549,144.517631 L190.372549,151.911671 L181.954248,151.911671 C169.601307,151.72682 161,155.885967 161,169.195239 C161,180.47115 165.575163,185 177.196078,185 C182.503268,185 186.071895,183.983319 190.647059,181.025703 L191.287582,181.025703 L191.287582,183.059064 C191.287582,183.706043 191.836601,184.260596 192.660131,184.353021 L201.901961,184.353021 C202.72549,184.353021 202.908497,183.798468 203,183.059064 L203,144.240354 C202.633987,134.905379 195.222222,129.5447 186.986928,129.174998 C183.143791,128.990147 178.843137,128.897721 174.633987,129.174998 C171.614379,129.359849 168.686275,129.729551 165.941176,130.376529 C164.843137,130.56138 163.928105,131.115933 163.928105,132.502316 Z M190.372549,160.229966 L190.372549,172.245281 C187.078431,173.90894 184.24183,175.018046 180.673203,175.018046 C175.457516,174.740769 173.535948,173.169536 173.535948,168.455835 C173.718954,162.910305 176.738562,160.414817 182.960784,160.229966 L190.372549,160.229966 Z" fill="#214A3D"></path>
            <path d="M214.741408,129.652246 L223.723404,129.652246 C224.639935,129.652246 225.464812,130.397671 225.464812,131.422629 L225.464812,133.28619 C229.497545,130.956739 233.713584,129.186356 238.571195,129 C239.762684,129 240.587561,129.46589 240.86252,130.397671 C241.045827,133.006656 241.045827,135.615641 240.86252,138.224626 C240.86252,138.97005 240.404255,139.715474 239.487725,139.715474 C234.446809,139.90183 229.772504,141.206323 225.464812,143.535774 L225.464812,183.229617 C225.464812,184.161398 224.731588,185 223.723404,185 L214.741408,185 C213.824877,185 213,184.254576 213,183.229617 L213,131.422629 C213,130.490849 213.824877,129.652246 214.741408,129.652246 Z" fill="#214A3D"></path>
            <path d="M290.621553,174.460977 C290.621553,173.444573 289.790095,173.074972 288.773869,173.167372 C282.306978,173.721774 275.655318,174.738178 269.188426,174.276176 C261.797693,173.259773 258.841399,168.547354 258.933783,161.340126 L290.806321,161.340126 C291.914931,161.247726 292.746388,160.693324 292.746388,159.492119 C294.409303,143.229655 288.034796,129 269.465578,129 C251.635434,129 246,139.25644 246,155.980905 C246,174.830579 251.54305,185.271819 272.329488,184.994618 C278.242074,184.902218 283.046051,184.902218 288.866253,183.423812 C290.067248,183.239011 290.529168,182.592209 290.529168,181.483405 L290.529168,174.460977 L290.621553,174.460977 Z M259.026168,152.19249 L279.997373,152.19249 C280.089758,145.539664 276.579159,139.718442 269.465578,139.718442 C262.444382,139.718442 258.749015,145.539664 259.026168,152.19249 Z" fill="#214A3D"></path>
            <path d="M303.944471,131.953898 C304.038381,130.930428 304.507932,130 305.540944,130 L315.307606,130 C316.340619,130 316.99799,130.744342 316.99799,131.581727 L316.99799,191.222132 C317.0919,198.479467 313.898953,203.131605 306.573957,204.806375 C302.535818,205.178546 299.34287,204.99246 295.398641,204.434204 C294.459539,204.155075 294.177809,203.782904 294.177809,203.038562 C293.989988,200.433365 293.896078,198.386425 294.177809,195.967313 C294.365629,195.222971 294.83518,194.8508 295.492552,194.8508 L301.502805,194.8508 C303.005369,194.757757 303.944471,193.641244 303.944471,192.431688 L303.944471,131.953898 Z" fill="#214A3D"></path>
            <path d="M304.873239,110 L315.126761,110 C316.112676,110 317,110.716418 317,111.701493 L317,120.298507 C317,121.19403 316.211268,122 315.126761,122 L304.873239,122 C303.887324,122 303,121.283582 303,120.298507 L303,111.61194 C303,110.716418 303.887324,110 304.873239,110 Z" fill="#214A3D"></path>
            <path d="M347.986083,129 C366.300199,129 372,139.9967 372,156.907591 C372,172.432343 367.047714,185 348.640159,185 C329.298211,185 325,174.372937 325,156.907591 C325,141.105611 328.457256,129 347.986083,129 Z M348.266402,139.719472 C358.82505,139.719472 359.011928,149.052805 359.011928,156.630363 C359.011928,164.207921 359.292247,174.372937 348.45328,174.372937 C337.707753,174.372937 337.614314,163.468647 337.614314,156.075908 C337.614314,148.867987 338.455268,139.719472 348.266402,139.719472 Z" fill="#214A3D"></path>
            <path d="M132.130707,84.8022424 C130.926394,84.8022424 130,83.8726777 130,82.6642435 C130,81.4558094 130.926394,80.5262447 132.130707,80.5262447 L155.753757,80.5262447 C158.255021,80.5262447 160.478367,80.0614623 162.609074,79.2248541 C164.83242,78.2952894 167.055765,76.8079858 169.46439,74.9488564 C172.70677,71.9742493 175.76387,68.2559904 178.820971,64.4447751 C186.602682,54.8702585 194.569671,45.0168725 207.261271,45.6675678 C214.301866,45.9464372 219.674952,48.7351314 224.306923,53.197042 C228.753615,57.5659962 232.551831,63.4222539 236.720604,70.4869457 C236.998523,70.8587716 237.832277,72.3460752 238.666032,73.7404223 C246.447743,87.1261542 257.101275,105.345623 271.830942,105.717449 C285.819494,106.089274 294.712877,91.6810213 301.846112,80.0614623 C302.679867,78.6671153 303.513622,77.3657247 304.162098,76.3432035 L335.196301,27.4480993 C339.365075,20.8481898 343.626488,14.7130627 348.999574,9.87932618 C354.465299,4.95263317 360.950058,1.42028725 369.472884,0.0259401728 C370.677197,-0.159972771 371.788869,0.676635475 371.974148,1.79211314 C372.159427,3.00054727 371.325672,4.11602493 370.213999,4.30193787 C362.617568,5.510372 356.781284,8.67089204 351.964035,13.1328027 C347.054146,17.5947133 342.978012,23.450971 338.994517,29.7720111 L307.960314,78.6671153 C307.126559,79.9685059 306.385443,81.17694 305.644328,82.2924177 C297.862617,94.8415413 288.228118,110.365272 271.830942,109.993446 C254.692651,109.528664 243.298003,90.1007613 234.960456,75.8784211 C234.497259,75.0418129 234.034061,74.2981611 233.015028,72.6249446 C229.031533,65.9320786 225.418596,60.2617339 221.342462,56.2646056 C217.451606,52.4533902 212.912275,50.2224349 207.075992,49.9435655 C196.515099,49.4787831 189.289225,58.4026044 182.248629,67.1405128 C179.098889,71.0446846 175.85651,74.9488564 172.428851,78.1093764 C172.428851,78.1093764 172.336212,78.2023329 172.243573,78.2023329 C169.55703,80.3403317 167.055765,82.0135482 164.369222,83.1290259 C161.682679,84.2445036 158.903497,84.8951989 155.753757,84.8022424 L132.130707,84.8022424 Z" fill="#FFC22B" fill-rule="nonzero"></path>
            <path d="M132.342658,84.0691691 C131.230559,84.161226 130.211135,83.3327142 130.025785,82.2280317 C129.840435,81.0312923 130.674509,79.9266098 131.879283,79.7424961 C136.883729,79.0060411 141.517475,77.4410743 146.058546,74.5873112 C150.692292,71.7335481 155.140688,67.6830457 159.867109,62.0675764 C159.867109,61.9755196 159.959784,61.9755196 160.052459,61.8834627 C163.759456,57.6488465 167.651802,53.5062872 171.822174,50.4684104 C176.27057,47.2464199 180.996991,45.1291118 186.186786,45.1291118 C191.098557,45.1291118 196.103003,48.1669886 200.922098,52.6777754 C205.463169,57.0044484 209.911566,62.7119746 213.896587,68.6036144 L213.896587,68.6956713 L216.02811,71.9176619 C224.739553,85.0817947 230.948772,94.5636527 240.494289,94.5636527 L240.586964,94.5636527 C249.854456,94.9318802 256.805075,83.5168279 264.497093,70.9050363 L264.682443,70.6288657 C267.184666,66.5783632 270.150263,61.6072921 273.115861,56.6362209 C282.012653,41.7230075 291.00212,26.809794 301.196361,12.7250924 C304.347309,8.39841936 309.07373,5.17642879 314.819575,3.05912071 C320.750769,0.849755753 327.794063,-0.162869853 335.208057,0.0212438938 L369.868477,0.20535764 C371.073251,0.20535764 372,1.21798325 372,2.4147226 C372,3.61146195 370.980576,4.53203068 369.775802,4.53203068 L335.115382,4.34791694 C328.164763,4.25586006 321.677519,5.17642879 316.302373,7.20168 C311.390603,9.04281747 307.312906,11.7124668 304.718008,15.3026848 C294.709117,29.1112158 285.71965,44.0244293 276.915532,58.9376428 C274.320635,63.3563727 271.633062,67.7751026 268.482115,73.0223444 L268.296765,73.298515 C259.956022,87.0149891 252.264004,99.5347238 240.494289,98.9823826 C228.724574,98.9823826 221.959305,88.6720128 212.506463,74.4031975 C211.209014,72.4700031 210.74564,71.7335481 210.37494,71.1812069 C206.482594,65.5657376 202.312222,60.0423252 197.956501,55.9918228 C193.878804,52.1254341 189.893783,49.6398986 186.186786,49.6398986 C182.016415,49.6398986 178.124068,51.481036 174.417071,54.1506853 C170.524725,57.0044484 166.817728,60.8708371 163.296081,64.9213395 L163.203406,65.0133964 C158.19896,70.9970931 153.379865,75.4158231 148.375419,78.5457567 C147.541345,79.098098 146.70727,79.5583824 145.780521,80.0186667 L132.157308,80.0186667 C130.952534,80.0186667 130.025785,80.9392355 130.025785,82.1359748 C130.025785,83.3327142 130.952534,84.2532829 132.157308,84.2532829 L132.342658,84.0691691 Z" fill="#007347" fill-rule="nonzero"></path>
        </g>
    </g>
</svg>