<?xml version="1.0" encoding="UTF-8"?>
<svg width="600px" height="250px" viewBox="0 0 600 250" version="1.1" xmlns="http://www.w3.org/2000/svg" xmlns:xlink="http://www.w3.org/1999/xlink">
    <!-- Generator: Sketch 50.1 (55044) - http://www.bohemiancoding.com/sketch -->
    <title>WEGE</title>
    <desc>Created with Sketch.</desc>
    <defs></defs>
    <g id="WEGE" stroke="none" stroke-width="1" fill="none" fill-rule="evenodd">
        <g id="Grid-Logo" opacity="0.400000006"></g>
        <g id="WEGE3" transform="translate(191.000000, 49.000000)" fill="#134294">
            <polygon id="Shape" points="0.864806867 0 0 0 0 120 84.8175966 120 84.8175966 33.7041157 65.2596567 33.7041157 65.2596567 100.244716 52.1545064 100.244716 52.1545064 32.9032258 32.6630901 32.9032258 32.6630901 100.244716 20.3562232 100.244716 20.3562232 19.6885428 217 19.6885428 217 0"></polygon>
            <path d="M165.6759,33 L164.878116,33 L164.878116,119.054146 L196.65651,119.054146 L196.65651,132.963903 L1,132.963903 L1,151 L217,151 L217,33 L165.6759,33 Z M184.357341,53.49859 L196.65651,53.49859 L196.65651,100.219402 L184.357341,100.219402 L184.357341,53.49859 Z" id="Shape"></path>
            <path d="M153,87.0742459 L153,33 L98,33 L98,119 L152.207683,119 L152.207683,100.177108 L117.411765,100.177108 L117.411765,87.0742459 L153,87.0742459 Z M117.345738,52.6210363 L132.795918,52.6210363 L132.795918,68.1848415 L117.345738,68.1848415 L117.345738,52.6210363 Z" id="Shape"></path>
        </g>
    </g>
</svg>