<?xml version="1.0" encoding="UTF-8"?>
<svg width="600px" height="250px" viewBox="0 0 600 250" version="1.1" xmlns="http://www.w3.org/2000/svg" xmlns:xlink="http://www.w3.org/1999/xlink">
    <!-- Generator: Sketch 50.1 (55044) - http://www.bohemiancoding.com/sketch -->
    <title>ABEV</title>
    <desc>Created with Sketch.</desc>
    <defs></defs>
    <g id="ABEV" stroke="none" stroke-width="1" fill="none" fill-rule="evenodd">
        <g id="Grid-Logo" opacity="0.400000006"></g>
        <g id="ABEV3" transform="translate(114.000000, 78.000000)" fill="#283488" fill-rule="nonzero">
            <path d="M240.958763,58.5974026 C240.958763,81.995671 225.659794,93.7965368 212.776451,94 C204.321758,94 197.678785,90.1341991 194.659251,86.0649351 L194.659251,92.982684 L175.938144,92.982684 L175.938144,0 L195.061856,0 L195.061856,31.3333333 C198.081389,27.2640693 204.52306,22.991342 212.977754,23.1948052 C225.861096,23.1948052 240.958763,34.995671 240.958763,58.5974026 Z M277.998372,23.1948052 C260.686381,23.1948052 245.588714,35.8095238 245.588714,58.5974026 C245.588714,79.3506494 260.283776,94 279.60879,94 C288.66739,94 297.323386,91.3549784 302.758546,86.6753247 L304.570266,70.3982684 C297.927292,74.8744589 289.875203,77.1125541 281.621812,77.1125541 C272.563212,77.1125541 266.121541,72.6363636 264.712425,65.9220779 L306.78459,65.9220779 C306.985893,64.0909091 306.985893,62.2597403 306.985893,60.4285714 C307.187195,35.8095238 293.297341,23.1948052 277.998372,23.1948052 Z M194.457949,58.5974026 C194.457949,69.5844156 200.295714,76.2987013 207.945198,76.2987013 C216.198589,76.2987013 221.432447,69.5844156 221.432447,58.5974026 C221.432447,47.8138528 216.198589,40.8961039 207.945198,40.8961039 C200.295714,40.8961039 194.457949,48.017316 194.457949,58.5974026 Z M144.534997,23.1948052 C154.398806,23.1948052 166.47694,28.4848485 166.47694,49.4415584 L166.47694,79.3506494 C166.47694,86.2683983 168.489962,89.7272727 173.119913,92.7792208 L153.190993,92.7792208 C149.164948,89.3203463 147.353228,84.6406926 147.353228,77.7229437 L147.353228,51.6796537 C147.353228,44.3549784 144.132393,40.6926407 138.898535,40.6926407 C133.06077,40.6926407 129.43733,45.7792208 129.43733,53.9177489 L129.43733,77.7229437 C129.43733,87.0822511 131.047748,89.5238095 134.872491,92.7792208 L114.94357,92.7792208 C111.722735,89.3203463 110.313619,84.6406926 110.313619,77.7229437 L110.313619,51.6796537 C110.313619,44.3549784 107.092784,40.6926407 101.858926,40.6926407 C96.0211612,40.6926407 92.3977211,45.7792208 92.3977211,53.9177489 L92.3977211,92.7792208 L73.2740098,92.7792208 L73.2740098,24.4155844 L91.39121,24.4155844 L91.39121,31.1298701 C94.0081389,27.6709957 98.6380901,23.1948052 108.099295,23.1948052 C115.950081,23.1948052 121.989148,27.2640693 125.209984,33.1645022 C128.430819,28.6883117 134.067282,23.1948052 144.534997,23.1948052 Z M27.9810092,93.7965368 C36.4357027,93.7965368 42.8773738,89.9307359 45.8969072,85.8614719 L45.8969072,92.7792208 L64.8193163,92.7792208 L64.8193163,24.4155844 L45.8969072,24.4155844 L45.8969072,31.3333333 C42.8773738,27.2640693 36.4357027,23.1948052 27.9810092,23.1948052 C15.0976668,23.1948052 0,34.995671 0,58.5974026 C3.57584584e-15,81.995671 15.2989691,93.7965368 27.9810092,93.7965368 Z M46.5008139,58.5974026 C46.5008139,69.5844156 40.6630494,76.2987013 33.0135648,76.2987013 C24.7601736,76.2987013 19.5263158,69.5844156 19.5263158,58.5974026 C19.5263158,47.8138528 24.7601736,40.8961039 33.0135648,40.8961039 C40.6630494,40.8961039 46.5008139,48.017316 46.5008139,58.5974026 Z M337.785133,71.008658 L350.668475,24.4155844 L371,24.4155844 L348.454151,92.5757576 L327.116115,92.5757576 L304.368964,24.4155844 L324.901791,24.4155844 L337.785133,71.008658 Z M276.589257,39.4718615 C283.433532,39.4718615 287.660879,44.965368 288.063483,51.8831169 L264.511123,51.8831169 C265.517634,44.1515152 270.348888,39.4718615 276.589257,39.4718615 Z" id="Shape"></path>
        </g>
    </g>
</svg>